<?xml version="1.0" encoding="UTF-8" standalone="no"?>
<svg
   xmlns:dc="http://purl.org/dc/elements/1.1/"
   xmlns:cc="http://creativecommons.org/ns#"
   xmlns:rdf="http://www.w3.org/1999/02/22-rdf-syntax-ns#"
   xmlns:svg="http://www.w3.org/2000/svg"
   xmlns="http://www.w3.org/2000/svg"
   xmlns:sodipodi="http://sodipodi.sourceforge.net/DTD/sodipodi-0.dtd"
   xmlns:inkscape="http://www.inkscape.org/namespaces/inkscape"
   width="230mm"
   height="230mm"
   viewBox="0 0 230 230"
   version="1.1"
   id="svg8"
   inkscape:version="1.0.2 (e86c8708, 2021-01-15)"
   sodipodi:docname="score-logo.svg">
  <defs
     id="defs2" />
  <sodipodi:namedview
     id="base"
     pagecolor="#ffffff"
     bordercolor="#666666"
     borderopacity="1.0"
     inkscape:pageopacity="0.0"
     inkscape:pageshadow="2"
     inkscape:zoom="0.35"
     inkscape:cx="354.64284"
     inkscape:cy="402.44415"
     inkscape:document-units="mm"
     inkscape:current-layer="g884"
     inkscape:document-rotation="0"
     showgrid="false"
     fit-margin-top="0"
     fit-margin-left="0"
     fit-margin-right="0"
     fit-margin-bottom="0"
     inkscape:window-width="1728"
     inkscape:window-height="995"
     inkscape:window-x="2560"
     inkscape:window-y="170"
     inkscape:window-maximized="1" />
  <metadata
     id="metadata5">
    <rdf:RDF>
      <cc:Work
         rdf:about="">
        <dc:format>image/svg+xml</dc:format>
        <dc:type
           rdf:resource="http://purl.org/dc/dcmitype/StillImage" />
        <dc:title></dc:title>
      </cc:Work>
    </rdf:RDF>
  </metadata>
  <g
     inkscape:label="レイヤー 1"
     inkscape:groupmode="layer"
     id="layer1"
     transform="translate(-12.000748,-41.686652)">
    <g
       id="g884"
       transform="translate(194.27976,63.5)">
      <g
         id="g896"
         transform="translate(-167.06548,-54.428571)">
        <path
           style="fill:#e97683;stroke-width:0.264583"
           d="m 138.55426,264.02462 c 0.191,-0.0764 0.4192,-0.067 0.50712,0.0209 0.0879,0.0879 -0.0684,0.15045 -0.34726,0.13896 -0.30823,-0.0127 -0.37092,-0.0754 -0.15986,-0.15985 z m 2.43086,-0.44986 c 0,-0.0558 0.23829,-0.16375 0.52953,-0.23991 0.29125,-0.0762 0.46281,-0.0305 0.38126,0.10143 -0.14241,0.23043 -0.91079,0.34725 -0.91079,0.13848 z m 3.70417,-1.5642 c 0,-0.0532 0.56555,-0.48362 1.25677,-0.95647 0.95123,-0.65072 1.0638,-0.6906 0.46302,-0.16407 -0.79889,0.70017 -1.71979,1.30019 -1.71979,1.12054 z m -73.289581,-2.03853 c 0.155761,-0.29105 0.342734,-0.52917 0.415494,-0.52917 0.07276,0 0.0048,0.23812 -0.15091,0.52917 -0.15576,0.29104 -0.342734,0.52916 -0.415494,0.52916 -0.07276,0 -0.0048,-0.23812 0.15091,-0.52916 z m 81.798021,-20.10834 c 0,-0.3638 0.0601,-0.51263 0.13345,-0.33072 0.0734,0.1819 0.0734,0.47955 0,0.66145 -0.0734,0.1819 -0.13345,0.0331 -0.13345,-0.33073 z m -63.603179,-3.10216 c 0.475549,-0.0589 1.189924,-0.0577 1.5875,0.003 0.397576,0.0604 0.0085,0.10855 -0.864634,0.10706 -0.873125,-0.002 -1.198414,-0.0509 -0.722866,-0.10976 z m 9.260417,0 c 0.475548,-0.0589 1.189922,-0.0577 1.587502,0.003 0.39757,0.0604 0.008,0.10855 -0.864637,0.10706 -0.873125,-0.002 -1.198414,-0.0509 -0.722865,-0.10976 z m -12.969322,-0.25956 c 0.327422,-0.0631 0.863203,-0.0631 1.190625,0 0.327422,0.0631 0.05953,0.11466 -0.595312,0.11466 -0.654844,0 -0.922735,-0.0516 -0.595313,-0.11466 z m 17.991664,0 c 0.32742,-0.0631 0.86321,-0.0631 1.19063,0 0.32742,0.0631 0.0595,0.11466 -0.59532,0.11466 -0.65484,0 -0.92273,-0.0516 -0.59531,-0.11466 z M 77.606032,235.9615 c 0.07902,-0.20593 0.143677,-0.42421 0.143677,-0.48507 0,-0.0609 0.193172,-0.11065 0.429271,-0.11065 0.329115,0 0.360518,0.0828 0.134588,0.35507 -0.162076,0.19529 -0.236186,0.41357 -0.164687,0.48507 0.07149,0.0715 -0.05372,0.13 -0.278265,0.13 -0.243314,0 -0.350213,-0.15128 -0.264584,-0.37442 z m 28.784818,0.28023 c 0.25466,-0.0665 0.67138,-0.0665 0.92605,0 0.25466,0.0666 0.0463,0.121 -0.46303,0.121 -0.50932,0 -0.71768,-0.0545 -0.46302,-0.121 z M 78.810138,235.8288 c -0.0026,-0.24599 0.823981,-0.22578 2.379154,0.0582 1.113237,0.20326 1.074679,0.21489 -0.593217,0.17882 -0.981114,-0.0212 -1.784786,-0.12786 -1.785937,-0.237 z m 29.829672,0.1555 c 0.1819,-0.0734 0.47956,-0.0734 0.66146,0 0.1819,0.0734 0.0331,0.13345 -0.33073,0.13345 -0.3638,0 -0.51263,-0.06 -0.33073,-0.13345 z m 1.85208,-0.26458 c 0.18191,-0.0734 0.47956,-0.0734 0.66146,0 0.1819,0.0734 0.0331,0.13345 -0.33073,0.13345 -0.3638,0 -0.51263,-0.0601 -0.33073,-0.13345 z m 1.33946,-0.2701 c 0.19099,-0.0764 0.4192,-0.067 0.50712,0.0209 0.0879,0.0879 -0.0684,0.15045 -0.34727,0.13896 -0.30823,-0.0127 -0.37092,-0.0754 -0.15985,-0.15985 z m 36.5125,0 c 0.19099,-0.0764 0.4192,-0.067 0.50712,0.0209 0.0879,0.0879 -0.0684,0.15045 -0.34727,0.13896 -0.30823,-0.0127 -0.37092,-0.0754 -0.15985,-0.15985 z m -34.66042,-0.26458 c 0.191,-0.0764 0.4192,-0.067 0.50712,0.0209 0.0879,0.0879 -0.0683,0.15046 -0.34727,0.13897 -0.30822,-0.0127 -0.37091,-0.0754 -0.15985,-0.15985 z m 1.50482,-0.0838 -0.79375,-0.20197 0.85989,-0.0313 c 0.47295,-0.0172 0.8599,0.0878 0.8599,0.23328 0,0.14553 -0.0298,0.2505 -0.0661,0.23328 -0.0364,-0.0172 -0.42333,-0.12219 -0.85989,-0.23328 z m -24.931944,-6.26877 c 0.257432,-0.0671 0.614619,-0.0627 0.79375,0.01 0.179131,0.0725 -0.03149,0.12736 -0.468056,0.12197 -0.436562,-0.005 -0.583126,-0.0647 -0.325694,-0.13177 z m 10.313714,0.001 c 0.25466,-0.0666 0.67138,-0.0666 0.92604,0 0.25466,0.0665 0.0463,0.121 -0.46302,0.121 -0.50932,0 -0.71768,-0.0545 -0.46302,-0.121 z m 6.23424,-0.52752 c 0.191,-0.0764 0.41921,-0.067 0.50712,0.0209 0.0879,0.0879 -0.0683,0.15045 -0.34726,0.13896 -0.30823,-0.0127 -0.37092,-0.0754 -0.15986,-0.15985 z m 31.00586,-2.18498 c 0,-0.13694 0.1177,-0.32171 0.26156,-0.41062 0.14998,-0.0927 0.19433,0.0135 0.10398,0.24897 -0.17589,0.45837 -0.36554,0.54223 -0.36554,0.16165 z m 4.49792,-3.5551 c 0,-0.0549 0.20836,-0.2633 0.46302,-0.46302 0.41965,-0.32911 0.429,-0.31975 0.0999,0.0999 -0.34565,0.44073 -0.56292,0.58089 -0.56292,0.36312 z m 1.45521,-1.22302 c 0.26339,-0.29104 0.53842,-0.52916 0.61118,-0.52916 0.0728,0 -0.0832,0.23812 -0.3466,0.52916 -0.26339,0.29104 -0.53842,0.52917 -0.61118,0.52917 -0.0728,0 0.0832,-0.23813 0.3466,-0.52917 z m -4.10104,-6.71448 c 0,-0.0549 0.20836,-0.2633 0.46302,-0.46302 0.41964,-0.32911 0.429,-0.31975 0.0999,0.0999 -0.34564,0.44073 -0.56291,0.58089 -0.56291,0.36312 z M 88.597625,207.5689 c 0,-0.15411 -0.118819,-0.20676 -0.264041,-0.11701 -0.342712,0.21181 -1.852625,-0.679 -1.852625,-1.09299 0,-0.17478 -0.146069,-0.36647 -0.324596,-0.42598 -0.754116,-0.25137 -0.141566,-7.60882 0.633478,-7.60882 0.138332,0 0.191299,-0.0974 0.117705,-0.21651 -0.249367,-0.40348 1.116979,-2.92265 2.254533,-4.15675 2.728619,-2.9602 5.532946,-2.98673 6.706836,-0.0635 0.508002,1.26506 0.576942,4.72277 0.133601,6.70104 -0.358005,1.5975 -1.059995,3.29193 -1.363819,3.29193 -0.138308,0 -0.18897,0.10113 -0.112582,0.22473 0.341066,0.55185 -2.166538,3.17553 -3.176754,3.3238 -0.195342,0.0287 -0.437992,0.13495 -0.539216,0.23618 -0.295166,0.29516 -2.21252,0.21184 -2.21252,-0.0962 z m 20.882055,-19.76198 -0.64143,-0.72761 0.7276,0.64143 c 0.40019,0.35279 0.72761,0.68022 0.72761,0.72761 0,0.20751 -0.21426,0.0386 -0.81378,-0.64143 z m 21.98044,-0.19844 c 0.34178,-0.3638 0.68094,-0.66146 0.7537,-0.66146 0.0728,0 -0.14734,0.29766 -0.48911,0.66146 -0.34178,0.3638 -0.68094,0.66146 -0.7537,0.66146 -0.0728,0 0.14734,-0.29766 0.48911,-0.66146 z m 29.36875,-6.64908 c 0,-0.14024 0.50602,-0.72563 1.12448,-1.30087 l 1.12448,-1.04588 -1.05833,1.18656 c -0.58209,0.65261 -1.0881,1.238 -1.12448,1.30087 -0.0364,0.0629 -0.0661,-5.3e-4 -0.0661,-0.14068 z m -100.434506,-3.33894 -0.504029,-0.59531 0.595312,0.50402 c 0.559446,0.47367 0.715762,0.6866 0.504029,0.6866 -0.05021,0 -0.318098,-0.26789 -0.595312,-0.59531 z m 104.258516,-0.41579 c 1.11414,-1.17771 1.20307,-1.24153 1.20307,-0.86322 0,0.1333 -0.50601,0.6308 -1.12447,1.10557 l -1.12448,0.86321 z m -57.51353,-4.17032 c 0.0127,-0.30823 0.0754,-0.37092 0.15985,-0.15986 0.0764,0.191 0.067,0.41921 -0.0209,0.50712 -0.0879,0.0879 -0.15045,-0.0684 -0.13896,-0.34726 z m 0.0405,-1.43316 c 0,-0.50933 0.0545,-0.71768 0.121,-0.46302 0.0666,0.25466 0.0666,0.67138 0,0.92604 -0.0665,0.25466 -0.121,0.0463 -0.121,-0.46302 z m 18.21576,-1.47726 c 0.0127,-0.30822 0.0754,-0.37092 0.15985,-0.15985 0.0764,0.19099 0.067,0.4192 -0.0209,0.50712 -0.0879,0.0879 -0.15045,-0.0684 -0.13896,-0.34727 z m 35.96244,-0.50712 c 0.34177,-0.3638 0.68094,-0.66146 0.7537,-0.66146 0.0728,0 -0.14734,0.29766 -0.48912,0.66146 -0.34177,0.3638 -0.68094,0.66146 -0.7537,0.66146 -0.0728,0 0.14734,-0.29766 0.48912,-0.66146 z m 11.64166,-0.76135 c 0,-0.0549 0.20836,-0.2633 0.46303,-0.46302 0.41964,-0.32911 0.429,-0.31975 0.0999,0.0999 -0.34564,0.44073 -0.56292,0.58089 -0.56292,0.36313 z M 78.887327,166.8387 c 0,-0.80037 0.0496,-1.12779 0.110223,-0.72761 0.06062,0.40019 0.06062,1.05503 0,1.45521 -0.06062,0.40018 -0.110223,0.0728 -0.110223,-0.7276 z m -31.279228,0.63941 c 0.0127,-0.30823 0.07539,-0.37092 0.159851,-0.15985 0.07643,0.19099 0.06703,0.4192 -0.02088,0.50711 -0.08792,0.0879 -0.150452,-0.0683 -0.138964,-0.34726 z m 127.772851,-1.30087 c 0.34178,-0.3638 0.68094,-0.66146 0.7537,-0.66146 0.0728,0 -0.14734,0.29766 -0.48911,0.66146 -0.34178,0.3638 -0.68094,0.66146 -0.7537,0.66146 -0.0728,0 0.14734,-0.29766 0.48911,-0.66146 z m -10.31875,-0.23219 c 0,-0.0549 0.20836,-0.2633 0.46303,-0.46302 0.41964,-0.32911 0.429,-0.31975 0.0999,0.0999 -0.34564,0.44073 -0.56292,0.58088 -0.56292,0.36312 z m -9.78958,-2.11666 c 0,-0.055 0.20836,-0.2633 0.46302,-0.46303 0.41965,-0.3291 0.42901,-0.31974 0.0999,0.0999 -0.34564,0.44073 -0.56292,0.58089 -0.56292,0.36313 z m -87.577077,-1.5875 c 0,-0.055 0.208359,-0.2633 0.463021,-0.46303 0.419645,-0.3291 0.429003,-0.31974 0.0999,0.0999 -0.345644,0.44073 -0.562917,0.58089 -0.562917,0.36313 z m -7.14375,-1.04123 c 0,-0.0455 0.386953,-0.43249 0.859896,-0.8599 l 0.859896,-0.7771 -0.777105,0.85989 c -0.724371,0.80155 -0.942687,0.98151 -0.942687,0.77711 z m 119.590847,-0.9094 c 0.34622,-0.47294 0.67082,-0.8599 0.72134,-0.8599 0.20093,0 -0.45509,0.99234 -0.88895,1.34468 -0.28582,0.23212 -0.22193,0.0473 0.16761,-0.48478 z m -19.04919,-2.3151 c 0.34178,-0.36381 0.68094,-0.66146 0.7537,-0.66146 0.0728,0 -0.14734,0.29765 -0.48911,0.66146 -0.34178,0.3638 -0.68094,0.66145 -0.7537,0.66145 -0.0728,0 0.14734,-0.29765 0.48911,-0.66145 z M 54.069502,153.34495 c 0.568388,-0.58208 1.092967,-1.05833 1.165728,-1.05833 0.07276,0 -0.332756,0.47625 -0.901145,1.05833 -0.568388,0.58208 -1.092967,1.05833 -1.165727,1.05833 -0.07276,0 0.332755,-0.47625 0.901144,-1.05833 z m 130.439578,0.52917 c 0.0899,-0.14553 0.21603,-0.26459 0.2802,-0.26459 0.0642,0 0.11667,0.11906 0.11667,0.26459 0,0.14552 -0.12609,0.26458 -0.2802,0.26458 -0.1541,0 -0.20661,-0.11906 -0.11667,-0.26458 z m -111.01273,-1.52136 -0.641432,-0.7276 0.727604,0.64143 c 0.680056,0.59952 0.848939,0.81378 0.641432,0.81378 -0.04739,0 -0.374814,-0.32743 -0.727604,-0.72761 z m 119.77444,-2.2263 c 0.41981,-0.31495 1.24719,-0.99956 1.83862,-1.52135 0.59143,-0.52179 0.36681,-0.26409 -0.49915,0.57265 -0.86596,0.83675 -1.69334,1.52136 -1.83861,1.52136 -0.14528,0 0.0793,-0.2577 0.49914,-0.57266 z M 64.718981,148.6718 c 0.181901,-0.0734 0.479557,-0.0734 0.661458,0 0.181901,0.0734 0.03307,0.13346 -0.330729,0.13346 -0.363802,0 -0.51263,-0.0601 -0.330729,-0.13346 z m -13.559896,-1.94143 c 0.26339,-0.29105 0.538422,-0.52917 0.611183,-0.52917 0.07276,0 -0.08321,0.23812 -0.346599,0.52917 -0.26339,0.29104 -0.538422,0.52916 -0.611182,0.52916 -0.07276,0 0.08321,-0.23812 0.346598,-0.52916 z m 122.349755,-6.81302 -0.64143,-0.72761 0.72761,0.64143 c 0.40018,0.35279 0.7276,0.68021 0.7276,0.72761 0,0.2075 -0.21426,0.0386 -0.81378,-0.64143 z m 18.85703,-3.90261 c 0.005,-0.43656 0.0647,-0.58312 0.13177,-0.32569 0.0671,0.25743 0.0627,0.61462 -0.01,0.79375 -0.0725,0.17913 -0.12736,-0.0315 -0.12197,-0.46806 z m -99.336474,-4.01169 c 0.181901,-0.0734 0.479557,-0.0734 0.661458,0 0.181901,0.0734 0.03307,0.13346 -0.330729,0.13346 -0.363802,0 -0.51263,-0.0601 -0.330729,-0.13346 z M 21.591899,121.41972 c 0.181901,-0.0734 0.479558,-0.0734 0.661459,0 0.181901,0.0734 0.03307,0.13346 -0.33073,0.13346 -0.363802,0 -0.51263,-0.0601 -0.330729,-0.13346 z M 167.78474,99.87086 c 0.1761,-0.09337 1.45127,-0.226687 2.83371,-0.296256 1.42145,-0.07153 2.16867,-0.03776 1.7198,0.07774 -0.99773,0.256714 -4.98656,0.448136 -4.55351,0.218516 z m -6.22826,-0.158467 c 0.32742,-0.06307 0.8632,-0.06307 1.19062,0 0.32742,0.06306 0.0595,0.114663 -0.59531,0.114663 -0.65485,0 -0.92274,-0.0516 -0.59531,-0.114663 z m 13.4276,-0.746725 c 0.58208,-0.191839 1.29646,-0.347303 1.5875,-0.345475 0.29104,0.0019 -0.0662,0.168977 -0.79375,0.371438 -1.65535,0.460616 -2.21463,0.44232 -0.79375,-0.02595 z m 2.46393,-0.570206 c 0.191,-0.07643 0.4192,-0.06703 0.50712,0.02088 0.0879,0.08792 -0.0684,0.150453 -0.34727,0.138965 -0.30822,-0.0127 -0.37091,-0.07539 -0.15985,-0.159851 z m 1.24024,-0.348427 c 0.72736,-0.312558 1.1451,-0.312558 0.66145,0 -0.21828,0.141065 -0.57546,0.249936 -0.79375,0.241935 -0.26168,-0.0096 -0.21662,-0.092 0.1323,-0.241935 z m -30.87357,-1.503657 c 0.19099,-0.07643 0.4192,-0.06703 0.50712,0.02088 0.0879,0.08792 -0.0684,0.150453 -0.34727,0.138965 -0.30822,-0.0127 -0.37092,-0.07539 -0.15985,-0.159851 z m 35.6978,-0.381259 c 0.17948,-0.180821 0.39297,-0.262115 0.47443,-0.180652 0.0815,0.08146 -0.0654,0.229407 -0.32632,0.328766 -0.37708,0.143584 -0.40747,0.113194 -0.14811,-0.148114 z m 4.03931,-1.92745 c 0,-0.05037 0.17859,-0.23981 0.39687,-0.420968 0.22876,-0.189851 0.39688,-0.215566 0.39688,-0.0607 0,0.14777 -0.1786,0.337204 -0.39688,0.420968 -0.21828,0.08376 -0.39687,0.111077 -0.39687,0.0607 z m 2.38125,-1.579197 c 0,-0.05494 0.20836,-0.2633 0.46302,-0.463021 0.41964,-0.329107 0.429,-0.319749 0.0999,0.0999 -0.34564,0.44073 -0.56291,0.580888 -0.56291,0.363125 z m 4.89479,-4.39802 c 0.26339,-0.291042 0.53842,-0.529167 0.61118,-0.529167 0.0728,0 -0.0832,0.238125 -0.3466,0.529167 -0.26339,0.291041 -0.53842,0.529166 -0.61118,0.529166 -0.0728,0 0.0832,-0.238125 0.3466,-0.529166 z m -74.61062,-6.876137 c -0.0927,-0.149982 0.0135,-0.194337 0.24896,-0.103984 0.45837,0.175892 0.54224,0.365538 0.16165,0.365538 -0.13693,0 -0.32171,-0.1177 -0.41061,-0.261554 z m -1.1925,-0.391602 c 0,-0.236029 0.1552,-0.329012 0.39535,-0.236858 0.21745,0.08344 0.32948,0.2583 0.24897,0.38857 -0.23088,0.373573 -0.64432,0.276222 -0.64432,-0.151712 z m 62.12747,-2.438 c 0.19099,-0.07643 0.4192,-0.06703 0.50712,0.02087 0.0879,0.08792 -0.0684,0.150453 -0.34727,0.138965 -0.30823,-0.0127 -0.37092,-0.07539 -0.15985,-0.159851 z m -29.21199,-13.114573 -0.50403,-0.595312 0.59532,0.504028 c 0.32742,0.277215 0.59531,0.545106 0.59531,0.595313 0,0.211733 -0.21294,0.05542 -0.6866,-0.504029 z M 140.15762,53.927766 c -0.3291,-0.419645 -0.31975,-0.429003 0.0999,-0.0999 0.25466,0.199721 0.46302,0.40808 0.46302,0.463021 0,0.217762 -0.21727,0.0776 -0.56292,-0.363125 z M 85.158042,38.945059 c 0,-0.05494 0.208359,-0.263301 0.463021,-0.46302 0.419645,-0.329108 0.429003,-0.31975 0.0999,0.09989 -0.345644,0.440729 -0.562917,0.580887 -0.562917,0.363126 z M 102.42714,35.6866 c 0.25743,-0.06708 0.61462,-0.06267 0.79375,0.0098 0.17913,0.07248 -0.0315,0.127362 -0.46806,0.12197 -0.43656,-0.0054 -0.58312,-0.06469 -0.32569,-0.131774 z"
           id="path888" />
        <path
           style="fill:#0e0e0d;stroke-width:0.264583"
           d="m 59.096585,255.64218 c -2.228352,-0.7243 -6.557978,-2.91864 -9.332669,-4.72997 -3.498701,-2.28398 -6.022966,-5.18046 -6.515837,-7.47664 -0.257787,-1.20097 0.76582,-3.00747 2.090173,-3.68884 2.640211,-1.35835 8.331465,0.005 12.130021,2.9051 l 1.217872,0.92991 0.159223,-0.73454 c 0.824508,-3.80367 3.480819,-11.38735 5.550665,-15.84695 0.654412,-1.40997 1.154522,-2.59891 1.111353,-2.64207 -0.04317,-0.0432 -1.153427,-0.4887 -2.467245,-0.99007 -14.077796,-5.37229 -24.299126,-15.79931 -27.997204,-28.5606 -2.273279,-7.84461 -1.896755,-17.52008 1.006036,-25.85215 0.532328,-1.52796 1.031729,-2.96109 1.109784,-3.18472 0.09366,-0.26834 -0.261403,-0.69625 -1.044157,-1.25838 -1.869511,-1.34258 -6.648111,-6.01061 -9.24729,-9.03331 -2.847337,-3.3113 -5.627513,-7.01457 -8.267525,-11.01257 l -1.949051,-2.95161 -1.481055,-0.15286 c -1.747501,-0.18035 -4.387096,-1.35103 -5.7557085,-2.55269 -0.5358209,-0.47046 -1.3636201,-1.64636 -1.8395526,-2.61312 -0.7721626,-1.56848 -0.8653303,-2.00047 -0.8653303,-4.01225 0,-1.93574 0.1051613,-2.46868 0.7437305,-3.76907 1.3530129,-2.75529 3.7580409,-4.15501 6.5674929,-3.82228 0.740137,0.0877 1.775372,0.41289 2.300522,0.72274 0.525148,0.30985 0.992325,0.45083 1.03817,0.31329 0.04585,-0.13753 0.466338,-0.88192 0.934429,-1.6542 1.001164,-1.65177 2.191787,-2.3798 3.889652,-2.37839 1.615472,0.001 2.703132,0.71941 3.465989,2.28826 1.373574,2.82482 0.512516,9.45188 -1.530448,11.77896 -0.428207,0.48776 0.108207,1.38815 4.38654,7.36304 3.274825,4.57344 9.367819,11.60621 11.871079,13.70205 l 1.293799,1.08323 1.602597,-2.16712 c 7.837916,-10.59887 18.202832,-17.69089 31.198104,-21.34679 6.688021,-1.88151 13.413903,-2.62437 19.515822,-2.1555 2.221359,0.17069 5.086212,0.49317 6.366344,0.71661 1.28013,0.22344 2.38204,0.35172 2.44869,0.28507 0.0667,-0.0667 -0.37297,-2.36498 -0.97695,-5.10739 -1.33992,-6.08398 -3.297512,-15.91632 -4.908438,-24.65343 C 96.254373,99.793345 94.952297,92.927347 94.022708,88.12516 93.093121,83.322973 91.725217,76.179223 90.982921,72.250161 90.240624,68.321099 88.566828,59.724876 87.263374,53.147449 85.95992,46.570019 84.893459,40.827131 84.893459,40.385477 c 0,-1.400369 1.137671,-2.339376 3.704166,-3.057335 4.608348,-1.289151 6.740779,-1.572384 11.641665,-1.546267 6.83868,0.03644 11.90001,1.006322 17.77407,3.405953 9.72294,3.97195 15.83368,8.453274 28.64193,21.004644 4.65733,4.563922 8.53081,8.11127 10.34602,9.474935 3.11782,2.342245 9.26119,5.641737 12.38113,6.649683 7.67709,2.480209 15.30399,3.007891 19.51044,1.349864 1.47719,-0.582253 2.03434,-0.472847 2.26463,0.444698 0.58005,2.311125 -3.69345,6.895354 -9.19197,9.860314 -7.37824,3.978558 -16.99328,4.79116 -26.82521,2.267096 -6.70349,-1.72093 -11.95972,-4.196273 -20.50521,-9.656619 -10.97883,-7.015194 -17.19241,-9.135441 -22.86047,-7.800631 -1.1057,0.260387 -2.01036,0.529137 -2.01036,0.597223 0,0.517363 3.07866,18.747162 3.69677,21.889875 1.1612,5.90392 2.99157,16.16986 4.50512,25.26771 0.73838,4.43838 1.77458,10.41655 2.30267,13.28482 l 0.96015,5.21503 2.93275,1.43903 c 10.23961,5.02434 18.15845,13.10075 23.70589,24.17757 l 1.76682,3.52788 1.39452,-0.93844 c 6.4131,-4.3157 15.05019,-13.98558 21.61352,-24.198 l 1.62717,-2.53185 -0.87151,-0.92604 c -1.70106,-1.80749 -2.72125,-5.03457 -2.35506,-7.44953 0.57307,-3.77927 3.73255,-6.72943 6.62563,-6.18669 1.25891,0.23617 2.7622,1.74089 3.39523,3.39844 l 0.45024,1.17894 1.60623,-0.82839 c 1.33176,-0.68685 1.9041,-0.82687 3.34952,-0.81948 3.73043,0.0191 5.84434,2.59976 5.84434,7.13483 0,3.85962 -1.67424,6.50525 -5.22864,8.26232 -1.8343,0.90676 -2.23691,1.00317 -4.39958,1.05353 l -2.38052,0.0554 -1.61471,2.72408 c -6.54728,11.04548 -17.29044,22.95436 -24.80728,27.49909 -0.98227,0.59389 -1.78594,1.18159 -1.78594,1.30601 0,0.12442 0.19271,1.50974 0.42824,3.0785 0.84557,5.63193 0.14698,12.77711 -1.78441,18.25076 -3.42792,9.71493 -11.05135,18.16777 -20.97472,23.25672 -1.10712,0.56777 -1.96065,1.15136 -1.89673,1.29688 2.16012,4.91764 8.88546,18.96472 9.29223,19.40851 0.0474,0.0517 0.46982,-0.34309 0.9388,-0.87724 1.0732,-1.2223 3.373,-2.99618 5.26758,-4.06296 5.60873,-3.15812 10.08622,-1.71368 9.7351,3.14054 -0.19145,2.64677 -1.63789,5.12186 -4.94256,8.45749 -4.63831,4.68177 -8.41213,7.13117 -10.99498,7.13628 -1.2132,0.002 -1.3914,-0.0866 -2.52279,-1.26042 -0.78235,-0.81168 -1.75575,-2.34807 -2.72397,-4.29948 -1.74118,-3.50927 -9.71752,-20.52723 -10.72398,-22.88022 -0.37347,-0.87313 -0.71272,-1.63282 -0.75389,-1.68821 -0.0412,-0.0554 -0.88281,0.10226 -1.87032,0.35032 -13.11975,3.29569 -27.948749,3.62085 -42.240881,0.92624 -1.581018,-0.29808 -2.920024,-0.49652 -2.975568,-0.44098 -0.05554,0.0555 -0.982247,2.12106 -2.059347,4.59005 -3.347559,7.67345 -4.998977,13.61117 -5.457933,19.62413 -0.281094,3.68268 -0.557144,4.37208 -1.990487,4.97097 -1.249191,0.52194 -2.590713,0.45108 -4.750419,-0.25091 z m 32.586764,-48.34306 c 1.819056,-0.88059 3.411596,-3.24984 4.187963,-6.23052 0.562845,-2.16091 0.561528,-5.77568 -0.0026,-7.18121 -1.193459,-2.97343 -4.03996,-2.89307 -6.814037,0.19236 -2.87293,3.1954 -4.352321,10.47637 -2.526786,12.43585 1.274773,1.36831 3.308876,1.67745 5.155477,0.78352 z M 123.7703,192.0719 c 6.15785,-1.52955 10.95831,-6.54668 13.14364,-13.73688 0.64037,-2.10696 0.7218,-2.806 0.73817,-6.33695 0.0156,-3.35256 -0.076,-4.31626 -0.58945,-6.20704 -1.52919,-5.6309 -5.39611,-10.59802 -9.89012,-12.70398 -4.4137,-2.06833 -8.36745,-2.0639 -12.59778,0.0141 -4.96917,2.44096 -8.69194,7.47699 -10.27978,13.90612 -0.69878,2.82936 -0.62337,8.57538 0.15058,11.47308 2.23221,8.35752 8.45396,13.9354 15.62058,14.00406 1.0821,0.0104 2.74898,-0.17527 3.70416,-0.41252 z m -9.93882,-9.13385 c -0.45518,-0.15531 -1.40238,-0.71679 -2.10488,-1.24774 -3.30314,-2.49653 -4.75502,-6.31796 -4.28278,-11.27255 0.52431,-5.50101 4.65722,-9.96761 9.26303,-10.01094 3.07241,-0.0289 6.06173,2.11462 7.6328,5.47319 2.70911,5.7914 0.52438,13.66513 -4.55941,16.43207 -1.07563,0.58544 -1.79538,0.7692 -3.2513,0.83011 -1.02842,0.043 -2.24228,-0.0488 -2.69746,-0.20414 z m 6.60639,-13.7323 c 0.8128,-0.63935 1.37611,-2.28868 1.12432,-3.29191 -0.50522,-2.01296 -2.94917,-2.69815 -4.22323,-1.18402 -1.33449,1.58596 -1.0733,3.71641 0.56459,4.60512 1.0029,0.54417 1.72509,0.50735 2.53432,-0.12919 z m -55.38816,18.67116 c 5.232608,-1.39067 9.732025,-5.62827 12.065213,-11.36315 4.471416,-10.99055 0.362239,-24.41144 -8.315396,-27.15872 -3.249474,-1.02876 -7.714876,-0.61332 -10.664758,0.99221 -8.520715,4.63755 -12.778784,17.03862 -9.353761,27.24159 2.59072,7.71762 9.500062,12.08698 16.268702,10.28807 z m -2.254324,-8.68304 c -1.716323,-0.81772 -3.642257,-2.96799 -4.382963,-4.89349 -0.712311,-1.8517 -0.94986,-5.19357 -0.517282,-7.27727 0.737754,-3.55375 3.616894,-7.38562 6.551716,-8.71972 4.418374,-2.0085 9.385347,1.00168 10.641173,6.44898 0.888857,3.85553 -0.490829,9.00014 -3.222924,12.01774 -2.489409,2.74954 -6.267034,3.75906 -9.06972,2.42376 z m 8.201088,-12.72163 c 0.887947,-0.88795 1.328534,-2.64594 0.913961,-3.64681 -0.710004,-1.7141 -3.149613,-1.98069 -4.230788,-0.46232 -0.703879,0.9885 -0.910122,2.54443 -0.452274,3.41204 0.726951,1.37756 2.72002,1.74617 3.769101,0.69709 z"
           id="path886" />
      </g>
    </g>
  </g>
</svg>
