<?xml version="1.0" encoding="UTF-8"?>
<!-- Created with Inkscape (http://www.inkscape.org/) -->
<svg width="109.95" height="109.95" version="1.1" xmlns="http://www.w3.org/2000/svg" xmlns:cc="http://creativecommons.org/ns#" xmlns:dc="http://purl.org/dc/elements/1.1/" xmlns:osb="http://www.openswatchbook.org/uri/2009/osb" xmlns:rdf="http://www.w3.org/1999/02/22-rdf-syntax-ns#" xmlns:xlink="http://www.w3.org/1999/xlink">
 <defs>
  <pattern id="pattern9925" patternTransform="scale(10)" xlink:href="#pattern9919"/>
  <pattern id="pattern9919" patternTransform="matrix(10 0 0 10 -7166.3 594.15)" xlink:href="#Checkerboard"/>
  <pattern id="Checkerboard" width="2" height="2" patternTransform="translate(0) scale(10)" patternUnits="userSpaceOnUse">
   <rect width="1" height="1"/>
   <rect x="1" y="1" width="1" height="1"/>
  </pattern>
  <clipPath id="clipPath9921">
   <circle cx="4001.4" cy="-776.81" r="54.169" fill="url(#pattern9925)" fill-rule="evenodd" stroke="#282814" stroke-linecap="round" stroke-linejoin="round" stroke-width="1.617"/>
  </clipPath>
 </defs>
 <metadata>
  <rdf:RDF>
   <cc:Work rdf:about="">
    <dc:format>image/svg+xml</dc:format>
    <dc:type rdf:resource="http://purl.org/dc/dcmitype/StillImage"/>
    <dc:title/>
   </cc:Work>
  </rdf:RDF>
 </metadata>
 <g transform="translate(-3946.4 831.78)" stroke="#282814">
  <circle cx="4001.4" cy="-776.81" r="54.169" fill="#81d8d0" fill-rule="evenodd" stroke-linecap="round" stroke-linejoin="round" stroke-width="1.617"/>
  <circle cx="4001.4" cy="-776.81" r="54.169" fill="url(#Checkerboard)" fill-rule="evenodd" stroke-linecap="round" stroke-linejoin="round" stroke-width="1.617"/>
  <g clip-path="url(#clipPath9921)">
   <path d="m3988.1-670.71c-3.316-0.36549-5.6495-1.1522-6.8692-2.3157-1.2667-1.2084-1.3668-2.6836-0.4419-6.5121 0.7317-3.0287 0.9797-5.1407 0.8235-7.0125-0.1301-1.5596-0.1879-1.6205-2.1616-2.2806-1.8351-0.61366-3.019-1.3178-4.4214-2.6296-2.1123-1.976-2.8199-3.6044-2.8179-6.4846 0-3.122 0.7299-6.526 2.6298-12.3 1.4304-4.3469 1.8417-6.1866 1.978-8.8446 0.2665-5.1997 1.0528-9.455 2.466-13.345 0.7327-2.0168 2.4747-5.4884 3.2896-6.5561 0.3564-0.46692 0.648-0.96726 0.648-1.1119 0-0.46587-1.0317-1.4555-2.0187-1.9364-0.528-0.25727-1.6898-0.72436-2.5817-1.038-4.2714-1.502-6.3354-3.241-8.0463-6.7792-0.8765-1.8127-1.1848-3.1505-1.4351-6.2284-0.1089-1.3405-0.2384-2.774-0.2877-3.1857l-0.09-0.74849-2.113-0.0699c-2.5242-0.0835-3.2973-0.37157-3.8371-1.4295-0.7109-1.3936-0.4007-4.3238 0.8381-7.9172 0.4396-1.2749 0.6202-2.0744 0.5569-2.4649-0.052-0.31787-0.4609-1.4997-0.9095-2.6264-0.9474-2.3794-1.2969-3.7912-1.4718-5.9468-0.3106-3.8295 0.9697-8.3991 2.9482-10.523 0.2664-0.28591 1.2317-1.0756 2.1451-1.7549 0.9134-0.67927 1.7604-1.4202 1.8823-1.6466 0.1551-0.28804 0.2326-1.7659 0.2583-4.9249 0.028-3.3659 0.1112-4.8576 0.3292-5.8673 0.4137-1.9166 0.3823-2.1528-0.4584-3.4473-2.1131-3.254-3.2694-7.862-2.4028-9.5752 1.133-2.24 2.2871-2.5417 11.639-3.0437 3.4252-0.18376 5.4289-0.47987 8.3948-1.2403 2.2329-0.57244 3.9384-0.63455 8.0337-0.29251 4.7188 0.39418 8.8293 0.39368 13.72 0 4.4835-0.36252 5.345-0.31228 9.0871 0.5301 3.2773 0.73772 5.0429 0.95663 8.876 1.1001 3.6409 0.13622 6.0288 0.3764 7.2383 0.72803 1.98 0.57564 3.1424 1.9858 3.1424 3.8124 0 2.037-1.2408 5.6552-2.7167 7.9222-0.7688 1.1808-0.8941 1.9507-0.5123 3.1479 0.1138 0.35705 0.2523 2.8238 0.3193 5.6856 0.093 3.9553 0.1763 5.1605 0.3855 5.5401 0.1472 0.26685 0.8766 0.9127 1.6211 1.4352 1.9053 1.3373 2.9419 2.4389 3.6866 3.9176 0.8586 1.7049 1.3506 3.5762 1.509 5.7391 0.2413 3.294-0.07 5.3192-1.3361 8.6812-0.9418 2.5016-0.9461 2.9151-0.062 6.0094 0.9696 3.3942 1.1503 5.6557 0.5467 6.8388-0.5788 1.1347-1.5355 1.5203-4.0729 1.6416l-1.9858 0.0949-0.2194 2.877c-0.3 3.9333-0.5973 5.2571-1.6704 7.4358-1.6939 3.4394-3.7277 5.1046-8.1298 6.6566-3.9313 1.3859-5.1035 2.6063-3.8077 3.964 0.2889 0.30261 0.9347 1.322 1.4351 2.2653 2.5826 4.8682 3.9282 10.17 4.3566 17.164 0.2128 3.4732 0.4607 4.6052 2.1734 9.9193 0.6902 2.1419 1.5788 5.1859 1.9745 6.7645 0.8043 3.2081 1.8345 5.5417 3.0915 7.0025 0.9757 1.1339 1.3759 1.3176 3.4066 1.5645 2.3504 0.28571 3.0016 0.61327 4.1963 2.1106 1.6618 2.0827 2.817 3.9525 2.5851 4.1844-0.062 0.062-0.7612 0.16853-1.5535 0.23663-1.5041 0.12925-1.971 0.3407-1.971 0.89261 0 0.41951-0.6674 0.8908-1.2614 0.8908-0.2525 0-0.7717-0.16761-1.154-0.37247-0.3822-0.20486-0.7938-0.33454-0.9146-0.28818-0.1207 0.0463-0.4002 0.57955-0.6209 1.1849-0.3538 0.97038-0.4581 1.1006-0.8812 1.1006-0.553 0-2.1073-1.5449-2.8913-2.8738-0.5003-0.84814-0.5125-0.97943-0.4232-4.5619 0.044-1.7838-0.1264-2.4476-0.8396-3.2609-0.4108-0.46867-0.5374-0.39266-0.6719 0.4038-0.3298 1.9517-2.639 4.0246-6.2449 5.606-1.1008 0.48276-2.1149 0.97181-2.2534 1.0868-0.8722 0.72383-0.7883 4.0103 0.203 7.9556 0.9916 3.9465 0.9476 5.4593-0.1976 6.7972-1.8654 2.1793-8.5656 3.3228-13.45 2.2954-3.4283-0.72119-5.5382-2.1529-5.9302-4.0242-0.3855-1.8398-0.1306-3.7014 0.9005-6.5764 0.643-1.7927 0.6136-2.1794-0.2278-3.002-0.6857-0.67042-1.4497-0.84998-2.4595-0.57805-1.693 0.45587-1.9018 1.7564-0.7194 4.4802 0.736 1.695 0.7636 1.827 0.7673 3.6541 0 1.7028-0.046 1.9966-0.4866 2.8885-0.5859 1.1858-1.631 1.9675-3.496 2.6152-2.2089 0.76705-5.7965 1.101-8.5579 0.79664zm3.7169-2.1969c0.2044-0.20431-0.7176-2.5123-1.2172-3.047-0.5674-0.60749-0.9265-0.6464-1.4192-0.15376-0.2917 0.29173-0.3611 0.60177-0.3611 1.6146 0 1.5951 0.2919 1.875 1.8468 1.7716 0.5688-0.0379 1.0866-0.12125 1.1507-0.18535zm21.936-0.15152c0.3274-0.32739 0.3705-0.54331 0.3072-1.5383-0.056-0.88017-0.1671-1.2508-0.4635-1.5472-0.3343-0.33436-0.455-0.36001-0.8492-0.18043-0.5612 0.25574-1.098 1.0965-1.4529 2.2759-0.3473 1.1535-0.1717 1.3709 1.1068 1.3709 0.7469 0 1.0586-0.0878 1.3516-0.38083zm-16.826-0.26294c0.873-0.25924 0.9429-0.31949 0.841-0.72522-0.2064-0.82237-1.3529-2.412-1.8251-2.5305-1.4215-0.35676-2.8492 1.5485-2.248 2.9998 0.2107 0.50863 0.2803 0.53859 1.2517 0.53859 0.5656 0 1.4568-0.12722 1.9804-0.28271zm12.086-0.32807c0.3498-0.73192 0.038-1.6549-0.853-2.5249-0.5229-0.51056-0.8037-0.6616-1.072-0.57645-0.4776 0.15158-1.8202 1.9399-1.9524 2.6003-0.093 0.46648-0.035 0.54667 0.5909 0.80937 0.4464 0.18749 1.1126 0.27742 1.866 0.25189 1.0968-0.0371 1.1877-0.073 1.4205-0.56022zm-22.825-0.034c0.1561-0.15603 0.2837-0.50705 0.2837-0.78003 0-0.77484-0.916-2.4068-1.5561-2.7725-0.5427-0.31-0.5783-0.30944-0.9795 0.0154-0.3292 0.26655-0.4326 0.56411-0.4947 1.4219-0.047 0.64511 0.01 1.2473 0.1362 1.4858 0.4184 0.78199 2.0617 1.1783 2.6104 0.62955zm32.73-0.30714c0.5999-0.59984 0.7646-1.9796 0.3355-2.8094-0.4005-0.77432-0.9668-0.82391-1.7092-0.14965-0.8383 0.76132-1.329 2.394-0.9871 3.2847 0.1864 0.48599 1.7672 0.26795 2.3608-0.32563zm-25.225-3.6518c2.0411-0.92153 2.2829-0.94098 3.5772-0.28764 1.1621 0.58668 1.5651 0.67461 1.7466 0.38108 0.06-0.0976-0.3412-1.3077-0.892-2.6892-1.4512-3.6389-1.367-4.8902 0.3984-5.9268 0.774-0.45446 1.0479-0.50815 2.8425-0.55721 1.9334-0.0528 2.0107-0.0398 2.9297 0.49732 1.802 1.0531 1.9198 2.3364 0.5338 5.8131-1.0108 2.5353-1.0877 2.8005-0.8536 2.9452 0.1032 0.0637 0.8761-0.1457 1.7177-0.46538 1.704-0.64729 1.3773-0.68112 3.8412 0.39758 0.9259 0.40533 0.9673 0.40782 1.8054 0.10822 0.4718-0.16865 1.5076-0.35769 2.302-0.42006 1.008-0.0792 1.8259-0.27658 2.708-0.65359 1.0222-0.43693 1.4966-0.53562 2.4824-0.51644 0.6702 0.0131 1.2185-0.0187 1.2185-0.0704s-0.1197-0.84471-0.266-1.7621c-0.3764-2.3598-0.8136-6.2125-0.8155-7.186v-0.82415l3.0239-1.4616c3.4772-1.6807 4.8359-2.5906 5.6069-3.7545 1.5088-2.2778 1.1439-7.0086-1.2041-15.612-0.5013-1.8369-1.0878-4.286-1.3034-5.4423-0.2157-1.1564-0.4547-2.204-0.5314-2.3281-0.402-0.6504-1.3361 0.76449-1.5452 2.3405-0.091 0.68289-0.036 1.2333 0.1977 2.0063 0.3753 1.2391 0.2941 1.4215-0.8926 2.0069-0.4037 0.19922-1.2274 0.88382-1.8304 1.5213-1.3541 1.4317-1.85 1.5138-2.9795 0.49329l-0.737-0.6658-1.1437 0.30473c-2.5608 0.68238-2.9799 0.38749-2.9799-2.0966v-1.5989l-0.9027-1.0378c-0.4965-0.57081-0.9026-1.1991-0.9026-1.3962 0-0.37172 0.6326-1.0396 1.4856-1.5683 0.7142-0.44271 0.9376-0.98594 1.9343-4.705 1.0496-3.9166 1.6015-5.3608 1.8671-4.8863 0.2113 0.3777 0.058 2.0136-0.4306 4.5862-0.7548 3.9766-1.6199 5.9667-2.5937 5.9667-0.2273 0-0.5112 0.11795-0.6308 0.26212-0.3958 0.47685-0.1353 0.89849 0.717 1.1606 0.4457 0.13711 0.9322 0.30781 1.0811 0.37934 0.3894 0.18703 0.432 1.3213 0.089 2.3553-0.4654 1.4011-0.109 1.6002 1.3079 0.73066 1.6129-0.98985 2.0988-0.88418 2.5612 0.55708 0.1166 0.36356 0.3278 0.70543 0.4692 0.7597 0.2788 0.10696 0.8046-0.51533 0.8151-0.96444 0.015-0.64321 0.5188-1.1722 1.3747-1.443 0.9991-0.31613 1.2198-0.80357 0.6126-1.353-0.5272-0.47716-0.4697-1.1193 0.3488-3.8933 1.6466-5.5812 1.662-9.0778 0.064-14.438-0.7634-2.5598-1.8565-5.1886-2.399-5.7694-0.6316-0.67611-1.2788-0.70768-3.8887-0.18975-3.2071 0.63649-9.0431 0.94934-15.797 0.84679-6.3178-0.0959-9.9771-0.37681-13.441-1.0318-2.8756-0.54371-3.0993-0.40619-4.2655 2.6238-1.4607 3.7951-2.3315 7.8092-2.3304 10.742 7e-4 2.1674 0.1802 3.2688 1.2018 7.3772l0.8243 3.3152-0.4742 0.43964c-0.6365 0.5903-0.387 1.0452 0.7486 1.3644 0.7851 0.22067 0.8794 0.30857 1.1275 1.0509 0.5362 1.6039 0.9058 1.6677 1.5269 0.26336 0.2454-0.55498 0.5564-0.99294 0.7049-0.99294 0.1461 0 0.8017 0.28435 1.4567 0.63186 0.6552 0.34753 1.3118 0.63188 1.4593 0.63188 0.3741 0 0.3388-0.62378-0.111-1.9556-0.453-1.3416-0.3731-1.4998 0.9799-1.9373 1.6306-0.52726 1.8253-1.1422 0.4885-1.5427-0.9476-0.28391-1.3138-0.87957-1.9045-3.0991-0.6746-2.5346-0.9915-4.5434-0.9747-6.1788l0.015-1.4443 0.4372 0.92361c0.2405 0.50799 0.8009 2.2953 1.2453 3.9717 1.0305 3.8881 1.3228 4.5218 2.4056 5.2145 0.4682 0.29955 0.8696 0.70312 0.8983 0.903 0.028 0.19875-0.2932 0.92991-0.7149 1.6248-0.721 1.1883-0.7723 1.3636-0.8641 2.948-0.081 1.3895-0.159 1.7295-0.4481 1.9407-0.4546 0.33229-1.4819 0.32614-2.4478-0.0147-1.0936-0.38586-1.3098-0.34759-2.0395 0.36107-0.389 0.37788-0.8309 0.63187-1.099 0.63187-0.2664 0-0.9846-0.40944-1.7692-1.0084-0.7264-0.55462-1.7066-1.3031-2.1783-1.6633-0.9531-0.72794-0.9981-0.91216-0.5621-2.2954 0.1985-0.63 0.2559-1.197 0.175-1.7309-0.163-1.0772-0.8285-2.2235-1.3328-2.296-0.2207-0.0318-0.4014-0.0257-0.4014 0.0136 0 0.63964-0.9473 4.967-1.6498 7.5363-1.38 5.0473-1.7525 6.878-1.9847 9.7524-0.3534 4.3753 0.087 5.9129 2.1515 7.5072 0.4682 0.3616 2.3007 1.3584 4.0723 2.215l3.2211 1.5575-0.1167 1.5345c-0.064 0.84399-0.3125 2.989-0.5518 4.7666-0.2394 1.7776-0.3927 3.3008-0.3408 3.3847 0.052 0.084 0.5974 0.14145 1.2122 0.12771 0.8807-0.0197 1.3477 0.0822 2.201 0.48004 0.8245 0.38435 1.5146 0.5416 2.8886 0.65811 1.3417 0.11377 1.9213 0.24298 2.2566 0.50313 0.2483 0.19252 0.5224 0.35456 0.6092 0.36007 0.087 6e-3 0.7877-0.27434 1.5573-0.6219zm41.434-10.566c0.1701-0.53603 0.7348-0.84135 2.6805-1.4496 1.9799-0.6189 2.1139-0.82198 1.1542-1.7507-0.7769-0.75206-1.7253-1.1278-2.8465-1.1278-1.9417 0-2.936 1.1665-2.6148 3.0677 0.2193 1.2978 1.3392 2.1656 1.6266 1.2603zm-25.876-50.903c4.8091-0.17573 6.2878-0.3842 7.8141-1.1016 1.064-0.50015 1.0518-0.82519-0.038-1.0113-0.4716-0.0806-7.6817-0.14491-16.022-0.14302-15.692 4e-3 -16.54 0.0407-15.991 0.70189 0.3088 0.37212 1.8745 0.99853 3.0423 1.2172 2.2879 0.42833 13.721 0.61008 21.195 0.33695zm3.2537-4.3355c7.5918-0.1888 8.6709-0.31385 11.007-1.2755 4.2482-1.7487 7.104-4.6842 7.9921-8.2156 0.3477-1.3822 0.5982-5.0968 0.7508-11.131 0.102-4.0361 0.081-4.8377-0.1285-4.9005-0.1378-0.0412-1.6723-0.29216-3.4099-0.55749-5.4831-0.83725-18.994-3.7872-24.545-5.3592-2.2651-0.64141-2.707-0.71546-3.3398-0.55967-0.4013 0.0988-2.4761 0.63361-4.611 1.1886-6.3224 1.6436-14.879 3.4781-21.574 4.6256l-3.9717 0.68071-0.062 1.3333c-0.1146 2.4714 0.3472 13.003 0.6323 14.422 0.7645 3.8042 4.2567 7.1558 9.088 8.722 1.6879 0.54721 3.2932 0.81886 5.9576 1.0082 2.9776 0.21161 18.024 0.2223 26.214 0.0187zm-13.036-7.3901c-1.5906-0.48383-2.3187-1.2515-2.517-2.6534-0.3645-2.579 0.6738-4.9036 2.4526-5.4906 0.9057-0.2989 2.285-0.10086 3.2544 0.46727 1.5611 0.91482 1.2185 1.4427-1.1213 1.728-0.8889 0.10838-1.7556 0.27132-1.926 0.36207-0.1704 0.0908-0.4016 0.50567-0.5137 0.92206-0.3182 1.1816 0 1.9629 1.0701 2.6514 1.599 1.0261 1.8044 1.6054 0.7049 1.9887-0.6229 0.21712-0.7627 0.21956-1.404 0.0245zm-22.475-1.3349c-2.3847-0.93502-4.5474-3.7683-4.7511-6.2244-0.1836-2.2146 0.8361-4.727 2.659-6.551 1.619-1.6201 2.3624-1.8679 5.6125-1.8711 2.2509-2e-3 2.5144 0.0336 3.4471 0.46842 1.3545 0.63156 2.5559 1.9226 3.4398 3.6963 1.6916 3.3942 1.385 5.9458-1.0085 8.3909-1.222 1.2485-1.9678 1.7188-3.2534 2.0518-1.292 0.33469-5.3259 0.36022-6.1454 0.0389zm4.8863-4.7223c1.5297-0.89641 1.921-2.7586 0.8917-4.2438-1.5145-2.1855-4.3059-2.4217-5.7102-0.48324-1.1176 1.5428-1.0967 2.8896 0.063 4.0803 0.8043 0.82553 1.4666 1.0801 2.832 1.0884 0.9157 6e-3 1.3176-0.0867 1.9233-0.44171zm36.792 4.3386c-2.3757-1.1885-3.9685-3.3566-4.162-5.6653-0.298-3.5545 1.1625-6.481 3.9237-7.8624 2.6151-1.3083 5.1438-1.2896 7.8634 0.0579 2.4635 1.2207 3.7273 2.9392 4.2572 5.7888 0.4116 2.213-0.3545 4.4304-2.1662 6.2705-1.6559 1.6818-2.7559 2.034-6.3522 2.034-2.0537 0-2.155-0.0188-3.3639-0.62356zm6.2323-4.3162c1.7429-0.84579 2.1714-2.3248 1.2481-4.3078-0.6045-1.2981-1.2985-1.7633-2.6325-1.7643-3.1422-2e-3 -5.1732 3.1182-3.4529 5.3051 1.0316 1.3114 3.0545 1.6321 4.8373 0.76699zm-56.261-5.142c0.1584-0.15806 0.2432-1.1363 0.2829-3.2642 0.073-3.8889-0.011-4.1326-1.688-4.9174-0.6603-0.30897-1.2558-0.48749-1.3335-0.39977-0.5712 0.64506-1.4858 4.4967-1.5223 6.4116-0.03 1.5491 0.2124 2.0078 1.2227 2.318 0.7496 0.23022 2.7571 0.13227 3.0382-0.14824zm69.022-0.1119c0.8846-0.3696 1.048-0.92758 0.8053-2.7508-0.2706-2.034-0.8421-4.2037-1.2504-4.7478-0.6858-0.914-2.4735-0.28924-3.0379 1.0618-0.1955 0.46782-0.2744 1.3795-0.2851 3.2917-0.013 2.2606 0.033 2.7168 0.3107 3.1414 0.3178 0.48515 0.3549 0.49404 1.5806 0.38013 0.6903-0.0641 1.5349-0.23354 1.8768-0.3764zm-3.404-9.8331c1.8324-0.8027 3.2214-2.8233 4.0416-5.8797 0.5435-2.0252 0.5516-5.8896 0.016-7.8791-1.0321-3.8374-3.4216-6.3403-6.2872-6.5858-1.7659-0.15125-1.8715-0.19482-1.8715-0.77216 0-0.28417 0.1946-1.0341 0.4325-1.6665 0.5166-1.3738 0.7732-2.9944 1.0087-6.3718 0.2107-3.0217 0.084-3.3945-0.7922-2.323-0.8898 1.0886-1.9553 2.047-2.5839 2.3242-1.1436 0.50415-3.9111 0.21273-5.6027-0.58993-0.9675-0.45911-2.5237-1.9802-2.7608-2.6985-0.3393-1.0281-0.1492-2.9008 0.4102-4.0413 0.6014-1.2264 1.8906-2.5545 2.9739-3.0637 0.451-0.21199 1.3991-0.45297 2.1069-0.53553 0.7079-0.0826 1.5126-0.23882 1.7884-0.34726l0.5015-0.19717-0.35-0.68594c-1.3591-2.6641-7.3478-6.1587-11.665-6.8068-3.3507-0.50303-8.5428-0.68539-16.594-0.58282-9.9199 0.12633-12.41 0.38019-15.387 1.5682-1.8182 0.72567-4.0028 1.9505-5.5633 3.1192-1.1491 0.86057-2.8055 2.7942-2.8055 3.2751 0 0.24168 1.3576 0.64944 2.1622 0.64944 1.6766 0 4.007 1.6741 5.0679 3.6406 0.5238 0.9711 0.6163 1.3205 0.6129 2.317-0.012 3.6524-4.1592 6.1491-8.2135 4.9451-0.8214-0.24392-1.1874-0.51053-2.2895-1.6675l-1.3117-1.3772v2.4348c0 2.8282 0.3428 5.3164 0.9874 7.1911 0.2506 0.72938 0.4558 1.5215 0.4558 1.7602 0 0.41894-0.046 0.43404-1.3252 0.43404-1.1217 0-1.4977 0.0863-2.4491 0.56165-3.7704 1.8841-5.6081 6.8264-4.6219 12.43 0.6837 3.8844 2.1883 6.4876 4.2932 7.4276 0.8308 0.371 1.2136 0.42026 3.2003 0.41193 2.0126-8e-3 2.6668-0.10145 6.0479-0.85979 2.0851-0.46768 6.1878-1.379 9.1169-2.0251 6.4009-1.4119 9.6962-2.2447 12.143-3.0686 1.0061-0.33879 1.9932-0.61598 2.1937-0.61598s1.3828 0.31981 2.6274 0.71069c2.9788 0.93559 5.2917 1.5085 13.095 3.2437 14.249 3.1686 14.806 3.2399 17.189 2.1961zm-11.598-19.465c-0.3382-1.6474-0.5065-1.9676-1.6001-3.0425-1.2808-1.259-2.6839-1.9011-4.1853-1.9153-1.5561-0.0147-2.1535 0.45366-3.7974 2.977-1.1517 1.7678-1.7343 2.2622-2.2116 1.8768-0.6616-0.53442 0.4003-3.5691 1.7683-5.0531 1.0646-1.1549 2.2637-1.6317 4.0733-1.6196 1.0203 7e-3 1.742 0.12308 2.4587 0.39597 2.2966 0.87452 4.294 2.8969 4.4484 4.5039 0.1559 1.6222-0.6723 3.2508-0.9543 1.8768zm-43.422-0.2406c-0.3108-0.58064-0.1266-2.1132 0.3744-3.1165 0.561-1.1232 1.5489-2.0038 3.0415-2.7109 1.1148-0.52824 1.33-0.56655 3.1816-0.56655 1.7982 0 2.0808 0.0466 2.991 0.49364 1.2255 0.60188 2.187 1.5334 2.6923 2.6084 0.3023 0.64322 0.3686 1.0848 0.3268 2.1778-0.034 0.88272-0.1314 1.3971-0.2741 1.4443-0.333 0.11017-1.0833-0.78853-1.9024-2.2787-0.4026-0.73243-0.9941-1.5938-1.3144-1.9141-2.1489-2.1489-7.0799-0.10011-7.9389 3.2986-0.2486 0.98322-0.8097 1.252-1.1778 0.56416zm47.585-12.282c1.0878-0.27391 1.709-0.92368 1.709-1.7876 0-1.7841-1.5872-3.6081-3.1396-3.6081-0.5254 0-1.462 0.74217-1.8266 1.4473-0.4673 0.90347-0.6624 2.1508-0.4414 2.8205 0.3652 1.1069 1.9105 1.5781 3.6986 1.1278zm-48.037-0.23516c0.8312-0.34728 1.0678-0.85741 0.9458-2.0393-0.1004-0.97315-0.7204-2.2806-1.3155-2.7745-0.1699-0.14102-0.6464-0.25641-1.059-0.25641-1.2248 0-2.5758 1.3665-2.9942 3.0286-0.2464 0.97822-0.066 1.425 0.7874 1.945 0.7033 0.42886 2.7126 0.48223 3.6355 0.0966zm-5.5002-9.7432c0.5016-0.72548 1.6864-2.1846 2.633-3.2426 1.9585-2.1889 2.046-2.0411-1.0315-1.7416-5.3521 0.52084-6.4558 1.0735-6.2439 3.1267 0.092 0.89224 0.8955 3.2781 1.7684 5.2514l0.3865 0.87389 0.7879-1.4744c0.4332-0.81092 1.1981-2.068 1.6996-2.7934zm59.516 2.3969c0.6963-1.3962 1.3263-3.5885 1.3263-4.6154 0-1.7543-0.9423-2.2191-5.4227-2.6748-3.8764-0.39429-3.6792-0.45481-2.4954 0.76536 1.555 1.603 2.8617 3.2309 4.0209 5.0098 1.2096 1.8561 1.7212 2.4704 1.9846 2.3827 0.1014-0.0338 0.3652-0.4242 0.5863-0.86754z" fill="#282814" stroke-width=".58023"/>
   <path d="m3984.9-743.65c-6.5281-0.66188-11.776-4.045-13.281-8.5629-0.4625-1.3877-0.7053-4.6536-0.8472-11.395l-0.1102-5.2322 0.5126-0.10613c0.282-0.0583 1.9029-0.34906 3.6022-0.64599 7.1271-1.2454 12.464-2.3867 20.778-4.4437l5.8605-1.4499 5.4382 1.3607c8.0169 2.0059 15.922 3.6898 22.121 4.7121 1.2137 0.20015 2.4377 0.41097 2.7198 0.46849l0.5131 0.10458-0.1091 5.232c-0.1234 5.9265-0.3682 9.3788-0.7648 10.786-0.8386 2.9746-3.0047 5.4792-6.2429 7.2184-1.9158 1.029-3.741 1.584-5.94 1.8066-2.4459 0.24754-32.008 0.3746-34.25 0.14722zm16.36-7.366c0.5598-0.45328 0.3549-0.90025-0.7912-1.7256-0.5276-0.38002-1.055-0.86731-1.1718-1.0829-0.4472-0.8253-0.062-2.4612 0.6143-2.6056 0.2062-0.044 1.0459-0.2005 1.866-0.34767 0.8201-0.14718 1.6146-0.39436 1.7655-0.54929 0.2489-0.25573 0.2136-0.33471-0.3833-0.85661-1.0341-0.90402-2.7629-1.2525-3.9653-0.79918-0.7953 0.29987-1.6174 1.2206-1.9979 2.2376-0.3901 1.0424-0.4691 2.8863-0.17 3.9633 0.4341 1.5633 3.1071 2.6781 4.2337 1.7658zm-17.119-1.4701c1.2775-0.59037 3.0968-2.4099 3.7812-3.7816 0.4589-0.91997 0.5224-1.2329 0.5171-2.5493 0-1.1892-0.1018-1.7459-0.4676-2.6828-0.9043-2.3163-2.2513-4.0012-3.8888-4.8644-0.8819-0.46494-1.0292-0.48547-3.4808-0.48547-3.5213 0-3.9669 0.14483-5.6627 1.8405-2.0459 2.0457-2.9712 4.2634-2.7584 6.6106 0.2015 2.2225 2.108 4.948 4.2044 6.0106 0.9404 0.47666 0.9822 0.48118 3.8636 0.41811 2.6801-0.0586 2.9912-0.0999 3.892-0.51618zm42.393-0.0263c1.2691-0.62315 2.854-2.3099 3.5319-3.7587 0.9305-1.9883 0.8227-4.2189-0.3175-6.5681-1.4852-3.06-5.9353-4.935-9.5056-4.005-3.2463 0.84554-5.2618 3.1109-5.7605 6.4744-0.4947 3.3377 0.9516 6.1337 4.0369 7.8042l1.1866 0.64245 2.9129-0.0485c2.7811-0.0463 2.9584-0.0708 3.9153-0.54075z" fill="#81d8d0" fill-rule="evenodd" stroke-linecap="round" stroke-linejoin="round" stroke-width=".20602"/>
   <g fill="#282814" fill-rule="evenodd" stroke-linecap="round" stroke-linejoin="round" stroke-width=".20602">
    <path d="m4029.5-771.65c-2.6509-0.43529-15.72-3.275-20.214-4.392-1.3594-0.33791-3.7083-0.97287-5.22-1.411l-2.7486-0.79663-2.283 0.69989c-3.1619 0.96939-6.6373 1.8226-15.965 3.9192-7.904 1.7766-8.076 1.8068-10.738 1.8842-3.2283 0.0939-3.8316-0.0692-5.1563-1.3938-1.0447-1.0448-1.9204-2.8034-2.4945-5.0096-0.3466-1.3322-0.4124-2.0166-0.4072-4.237 0.01-2.4177 0.048-2.7676 0.4859-4.0214 1.2615-3.6107 3.5639-5.6768 6.5802-5.9049 0.8618-0.0652 1.3767-0.18421 1.4331-0.33128 0.049-0.12626-0.1237-0.94951-0.3826-1.8294-0.6899-2.3447-0.9714-4.3853-0.9721-7.0471l-7e-4 -2.3626 1.3926 1.3304c1.2088 1.155 1.5205 1.359 2.364 1.5478 1.4879 0.33298 3.5414 0.14929 4.7465-0.42455 2.052-0.97716 3.193-2.647 3.2098-4.6974 0.01-0.98032-0.079-1.3178-0.585-2.2647-0.6707-1.2554-2.067-2.6294-3.2582-3.2061-0.4366-0.21133-1.3038-0.45646-1.9271-0.54473-0.6234-0.0883-1.3461-0.24141-1.6063-0.34031l-0.4729-0.17981 0.3193-0.54518c0.5339-0.91198 2.3041-2.6113 3.5796-3.4365 2.7673-1.7902 5.3866-2.8785 8.0429-3.3417 4.5061-0.78579 22.184-0.8363 27.889-0.0797 3.6039 0.4779 8.4558 2.8651 10.927 5.3763 0.8866 0.90081 1.5068 1.9203 1.2964 2.1308-0.052 0.0515-0.7574 0.20895-1.5686 0.3498-2.0255 0.35169-2.5866 0.55171-3.4913 1.2446-1.7284 1.3237-2.6619 3.1737-2.6619 5.2758 0 0.90753 0.086 1.2146 0.5234 1.8753 1.2719 1.9203 3.5329 2.9689 6.4147 2.9752 1.5199 3e-3 1.9965-0.23564 3.5887-1.7993 0.8358-0.82085 1.3018-1.1652 1.3881-1.0257 0.1366 0.22112 0.011 2.5405-0.2828 5.2109-0.096 0.87388-0.4211 2.4798-0.7223 3.5686-0.4323 1.5632-0.5032 2.0332-0.3367 2.2337 0.1231 0.14842 0.7176 0.30488 1.4304 0.37647 3.1753 0.31888 5.6104 2.8097 6.6454 6.797 0.4383 1.689 0.3923 5.8029-0.085 7.6153-0.7934 3.0116-2.4099 5.2366-4.325 5.9532-0.9711 0.36332-2.9838 0.48255-4.3524 0.25782zm-6.0816-19.735c0.3655-0.87487 0.3197-2.1453-0.1092-3.0314-0.4692-0.96919-2.1735-2.5459-3.4013-3.1466-1.8816-0.92058-4.6487-0.93003-6.1995-0.0212-0.9646 0.56525-1.7044 1.491-2.4317 3.0428-0.664 1.4168-0.7838 2.798-0.2711 3.1266 0.4007 0.25673 0.9676-0.30352 2.4737-2.4446 1.3933-1.981 1.956-2.3861 3.3136-2.3861 1.2982 0 2.2988 0.35969 3.4786 1.2505 1.1434 0.86329 1.9415 1.9226 2.0992 2.7867 0.2831 1.5503 0.63 1.823 1.0477 0.82341zm-43.073-0.57943c0.7513-1.9211 1.7069-3.0013 3.3422-3.7779 0.8156-0.38731 1.3147-0.50305 2.1696-0.50316 1.597-1.7e-4 2.24 0.38546 3.215 1.9285 2.2721 3.5961 2.8164 3.8522 2.8219 1.3279 0-2.0855-1.0544-3.6649-3.151-4.6998-0.7138-0.35234-1.0895-0.40443-2.937-0.40722-2.0383-3e-3 -2.1632 0.0187-3.3007 0.57511-2.1366 1.0451-3.4962 2.9212-3.4962 4.8245 0 1.4674 0.8636 1.9406 1.3362 0.73208z"/>
    <path d="m3965.3-762.06c-0.3063-0.13833-0.6159-0.43712-0.6879-0.66399-0.3387-1.0675 0.032-4.0531 0.8205-6.6058 0.2933-0.94947 0.4137-1.1332 0.7404-1.1297 0.5931 6e-3 2.1175 0.91013 2.375 1.4082 0.2571 0.49699 0.2475 6.7431-0.011 7.0004-0.2653 0.26458-2.6461 0.25787-3.2373-9e-3z"/>
    <path d="m3970.1-811.64c-1.2742-3.2226-1.5841-4.9208-1.0309-5.6493 0.4005-0.52747 1.7126-0.98085 3.6392-1.2574 2.2897-0.3287 4.5901-0.53728 4.5901-0.41618 0 0.0498-0.7962 1.0267-1.7692 2.1708-1.93 2.2693-2.6506 3.2877-3.895 5.5052l-0.8181 1.4579z"/>
    <path d="m4031.3-811.74c-0.4181-0.57735-1.2537-1.7553-1.8571-2.6176-0.6034-0.86232-1.7055-2.2268-2.449-3.0322s-1.3075-1.5088-1.2531-1.5631c0.1224-0.1224 4.8177 0.37971 6.0727 0.6494 1.2853 0.27622 2.0335 0.82187 2.2225 1.6207 0.1833 0.77536-0.307 2.9228-1.0407 4.5576-0.7116 1.5858-0.81 1.6082-1.6953 0.38523z"/>
    <path d="m4034.3-762.19c-0.385-0.67638-0.3167-5.7107 0.088-6.4756 0.503-0.95125 1.8664-1.5672 2.5166-1.137 0.8154 0.53941 1.9928 5.9705 1.4959 6.8992-0.3132 0.58508-1.1733 0.93153-2.5761 1.0376-1.2175 0.0921-1.2969 0.0752-1.5242-0.32412z"/>
   </g>
   <g fill="#fff" fill-rule="evenodd" stroke-linecap="round" stroke-linejoin="round" stroke-width=".20602">
    <path d="m4021.3-756.81c-1.3427-0.70786-2.0197-1.9745-1.6928-3.167 0.3587-1.3078 1.1732-2.1667 2.4979-2.6342 1.8015-0.63561 3.0836-0.14481 3.9302 1.5046 0.6948 1.3534 0.6128 2.5693-0.232 3.4409-1.0272 1.0598-3.2977 1.4912-4.5033 0.85568z"/>
    <path d="m3978.6-756.69c-2.0135-0.60694-2.8442-2.7163-1.7495-4.4423 0.6655-1.0494 1.4028-1.555 2.4421-1.6743 1.7255-0.19818 3.688 1.4036 3.8875 3.1729 0.2402 2.1318-2.1587 3.6737-4.5801 2.9438z"/>
    <path d="m3975.8-804.13c-0.5493-0.15358-1.2724-0.72384-1.3646-1.0761-0.1383-0.52914 0.3014-1.9166 0.825-2.6031 0.6513-0.85391 1.4492-1.32 2.2609-1.3208 0.7816-7.8e-4 1.2561 0.4045 1.7251 1.4736 0.6975 1.5899 0.616 2.7538-0.2297 3.2824-0.4045 0.25281-2.5919 0.41876-3.2167 0.24404z"/>
    <path d="m4024.5-804.02c-1.7308-0.5306-1.7244-3.1915 0.012-4.7156 0.3584-0.31474 0.763-0.57225 0.8989-0.57225 0.9005 0 2.2282 1.0618 2.7594 2.2068 0.8293 1.7874 0.021 2.9701-2.1651 3.1682-0.5181 0.0469-1.1952 8e-3 -1.5047-0.0871z"/>
   </g>
   <g fill-rule="evenodd" stroke-linecap="round" stroke-linejoin="round" stroke-width=".20602">
    <path d="m3992.1-739.22c-3.4843-0.15551-4.8528-0.38775-6.3034-1.0696-0.9024-0.42419-0.9929-0.59514-0.4101-0.77527 0.6223-0.19235 20.45-0.33212 26.459-0.18649 2.9734 0.0721 5.5156 0.20309 5.6494 0.29118 0.7032 0.46288-1.8747 1.3086-4.7881 1.5708-2.731 0.24578-16.381 0.35801-20.606 0.16941z" fill="#282814"/>
    <path d="m3991.5-677.44c-0.351-0.18006-1.3712-0.41651-2.2672-0.52545-0.8959-0.10893-2.1164-0.38139-2.7122-0.60546s-1.6195-0.46469-2.2749-0.53471c-1.4195-0.15164-1.349 0.16696-0.8389-3.7925 0.1937-1.5044 0.4033-3.4616 0.4657-4.3493l0.1135-1.6139-3.5568-1.8025c-4.7438-2.4041-5.492-3.1432-5.8718-5.8-0.1894-1.325 0.046-4.8347 0.4778-7.1085 0.145-0.76419 0.8562-3.7375 1.5807-6.6074 0.7243-2.8699 1.368-5.6516 1.4303-6.1815 0.073-0.62461 0.1954-0.96358 0.3468-0.96358 0.4133 0 0.9599 0.76188 1.2414 1.73 0.2505 0.86177 0.2485 1.046-0.023 2.1534-0.1633 0.66606-0.2465 1.3697-0.1849 1.5636 0.1137 0.3582 3.2015 2.7978 4.1848 3.3062 0.6327 0.32721 1.2686 0.14304 1.9274-0.5582 0.4725-0.50291 0.6673-0.51685 2.0989-0.15009 1.1438 0.29302 1.9611 0.2211 2.3136-0.20358 0.1173-0.1413 0.2785-0.96481 0.3584-1.83 0.1242-1.3467 0.2506-1.7746 0.878-2.973 0.474-0.90549 0.6942-1.5216 0.6234-1.7448-0.06-0.1897-0.4521-0.5864-0.8708-0.88157-0.9234-0.65085-1.2982-1.4037-2.0507-4.1194-0.8006-2.8892-1.5695-5.1908-1.8639-5.5798-0.2263-0.2989-0.2537-0.17518-0.2586 1.1662-0.01 1.6169 0.2685 3.4443 0.8746 5.8259 0.6134 2.4103 0.8945 2.9106 1.9298 3.4352 1.2656 0.64135 1.1882 0.85276-0.5501 1.5032-0.5925 0.22166-1.0284 0.49752-1.0672 0.67526-0.036 0.16527 0.084 0.84258 0.2674 1.5051 0.4821 1.7445 0.3995 1.8196-1.1781 1.0704-0.7268-0.3452-1.465-0.60031-1.6405-0.56693-0.1754 0.0334-0.543 0.4782-0.817 0.98847-0.2776 0.51712-0.5793 0.87755-0.6817 0.81428-0.1011-0.0624-0.3688-0.53211-0.595-1.0438-0.3576-0.80866-0.5092-0.96285-1.1594-1.1796-1.0255-0.34183-1.2299-0.7074-0.7069-1.2641l0.4075-0.43379-0.9401-3.8553-0.9403-3.8553 0.01-3.0012c0.01-2.6426 0.065-3.2506 0.4943-5.0879 0.8297-3.5487 2.2007-7.3291 2.9184-8.0467 0.4703-0.47023 1.1259-0.47447 3.9421-0.0255 3.4807 0.55499 5.8631 0.71951 12.053 0.83234 6.126 0.11166 11.56-0.0966 14.573-0.55836 4.8561-0.74446 4.5344-0.72287 5.0668-0.33993 0.6395 0.45998 1.5744 2.3655 2.3836 4.8586 1.0147 3.1259 1.3706 4.8346 1.4878 7.142 0.1342 2.6408-0.074 4.1791-1.0998 8.133-0.4314 1.663-0.7845 3.1816-0.7845 3.3746 0 0.193 0.1589 0.55291 0.3531 0.79979 0.4936 0.62756 0.4475 0.79771-0.309 1.1386-0.9101 0.41013-1.633 1.0986-1.633 1.5553 0 0.36005-0.6212 1.1091-0.7844 0.9459-0.042-0.0418-0.2361-0.44933-0.4316-0.90552-0.4968-1.1589-0.9062-1.226-2.5322-0.41488-0.8322 0.41514-1.3053 0.56722-1.3499 0.43383-0.038-0.11297 0.034-0.74979 0.1598-1.4152 0.3012-1.5963 0.1379-1.958-1.0647-2.3574-0.499-0.16576-0.9502-0.4133-1.0028-0.55008-0.1355-0.35317 0.2191-0.71404 0.8195-0.83414 0.9997-0.19996 1.9188-2.5712 2.6383-6.8073 0.4441-2.6148 0.483-3.9015 0.1181-3.9015-0.3252 0-0.7658 1.1928-1.871 5.065-0.4887 1.7121-1.0069 3.3623-1.1516 3.6672-0.1446 0.30489-0.6573 0.84871-1.1392 1.2085-1.3586 1.0143-1.3457 1.5088 0.081 3.0939 0.5607 0.62318 0.5854 0.71298 0.6575 2.3918 0.067 1.5608 0.118 1.779 0.4827 2.0744 0.51 0.41302 0.871 0.41297 2.4454-3.6e-4l1.2584-0.33041 0.4067 0.43546c0.5893 0.63087 1.3452 0.97798 1.8525 0.85065 0.2402-0.0603 0.9665-0.60684 1.614-1.2146s1.514-1.294 1.9256-1.525c0.4116-0.23108 0.7905-0.55304 0.8422-0.71549 0.052-0.16246-0.027-0.8146-0.1739-1.4492-0.302-1.3021-0.154-2.6074 0.4039-3.5626 0.4915-0.8417 0.7946-0.69446 1.0602 0.51511 0.1278 0.58259 0.8187 3.4426 1.5352 6.3555 1.981 8.0534 2.4654 11.313 2.0322 13.672-0.464 2.5265-1.3584 3.3792-6.0327 5.7512l-3.3798 1.7151 0.123 1.9652c0.068 1.0808 0.3068 3.2362 0.5317 4.7898 0.225 1.5536 0.3932 2.8444 0.374 2.8684-0.019 0.0241-0.5449 0.0907-1.1682 0.14808-0.6233 0.0574-1.7347 0.29772-2.4698 0.53404-0.7352 0.23632-2.0886 0.54255-3.0076 0.68051-0.9191 0.13796-1.905 0.33979-2.1909 0.44851-0.4531 0.17228-0.731 0.11238-2.1619-0.4659l-1.642-0.66358-1.4508 0.47891c-1.3748 0.45382-1.8922 0.56346-1.8922 0.401 0-0.0395 0.3961-1.1484 0.8803-2.4642 1.3085-3.5558 1.3367-4.6187 0.1516-5.6967-0.8467-0.77013-1.4604-0.94754-3.2741-0.94651-2.1634 1e-3 -2.9114 0.20627-3.8099 1.0443-0.6306 0.58818-0.719 0.77145-0.7815 1.6185-0.059 0.79585 0.066 1.3382 0.7444 3.2503 1.1106 3.1287 1.1441 3.2463 0.9603 3.36-0.088 0.0543-0.7271-0.15032-1.4205-0.45466-1.4297-0.62749-1.8053-0.61427-3.4626 0.12189-1.6985 0.75441-1.6895 0.75289-2.374 0.40173z" fill="#282814"/>
    <path d="m4034.4-688.04c-0.776-0.43426-1.1004-2.3012-0.5761-3.3151 0.5114-0.98898 2.3671-1.3836 3.7649-0.80054 0.7182 0.29954 1.8039 1.26 1.8039 1.5957 0 0.23779-0.042 0.25732-2.1185 0.9798-1.0912 0.37967-1.6466 0.68424-2.0356 1.1161-0.4202 0.46645-0.6002 0.55746-0.8386 0.42403z" fill="#81d8d0"/>
   </g>
   <g fill="#fff" fill-rule="evenodd" stroke-linecap="round" stroke-linejoin="round" stroke-width=".051506">
    <path d="m4016.9-673.45c-0.3727-0.0979-0.4435-0.25298-0.4359-0.95486 0-0.38752 0.029-0.56458 0.1227-0.8774 0.2351-0.78419 0.6246-1.4071 1.1208-1.7927 0.3306-0.25691 0.5195-0.32633 0.8113-0.29828 0.8171 0.0785 1.2071 1.7539 0.6717 2.8855-0.2312 0.4888-0.6398 0.79747-1.277 0.96473-0.3186 0.0836-0.8323 0.12066-1.0136 0.0731z"/>
    <path d="m4011.7-672.75c-0.4191-0.0887-0.5219-0.22853-0.4856-0.66128 0.052-0.61754 0.567-1.8748 0.98-2.3918 0.3187-0.39881 0.7871-0.66083 1.0592-0.59253 0.1908 0.0478 0.5273 0.41892 0.6308 0.69545 0.1218 0.32574 0.1881 0.83882 0.1971 1.5254 0.01 0.6421-0.037 0.80327-0.3067 1.0795-0.2808 0.28824-0.5158 0.35826-1.2493 0.37225-0.352 7e-3 -0.7234-5e-3 -0.8255-0.0271z"/>
    <path d="m4006.6-673.15c-0.6819-0.0904-1.4021-0.4066-1.461-0.64141-0.106-0.42216 0.5518-1.5773 1.4109-2.4775 0.4826-0.50578 0.6163-0.56368 0.94-0.40704 0.2842 0.13746 0.9393 0.77493 1.2054 1.1729 0.3174 0.47455 0.4139 0.75564 0.4145 1.207 4e-4 0.31-0.019 0.4173-0.1122 0.61789-0.1373 0.29595-0.2826 0.43607-0.5065 0.4885-0.2542 0.0595-1.5379 0.0865-1.8911 0.0396z"/>
    <path d="m3994.2-673.08c-0.269-0.0688-0.3338-0.12292-0.464-0.38719-0.3975-0.80767-0.185-1.7961 0.5419-2.5193 0.4059-0.40381 0.7119-0.55955 1.1553-0.58801 0.4564-0.0293 0.5802 0.0254 0.9588 0.4227 0.7624 0.80034 1.4707 2.0942 1.3233 2.4177-0.082 0.17916-0.7576 0.41174-1.6616 0.57173-0.3909 0.0692-1.6812 0.12655-1.8537 0.0824z"/>
    <path d="m3989.8-672.75c-0.7553-0.0689-0.9574-0.37962-1.0023-1.5406-0.041-1.0509 0.061-1.5296 0.3915-1.836 0.2379-0.22081 0.355-0.28252 0.5367-0.28252 0.253 0 0.437 0.10744 0.7475 0.43658 0.2154 0.22832 0.3397 0.41968 0.5489 0.8451 0.4923 1.0006 0.8383 2.0399 0.7248 2.1767-0.1092 0.13154-1.3284 0.25727-1.9471 0.2008z"/>
    <path d="m3984.8-673.54c-0.4156-0.11213-0.7303-0.28246-0.9817-0.53122-0.2845-0.28158-0.3293-0.46898-0.3266-1.368 0-1.0162 0.084-1.3471 0.411-1.6918 0.3061-0.32238 0.4933-0.36197 0.852-0.18023 0.4502 0.22812 0.8976 0.76442 1.2898 1.546 0.2992 0.59616 0.3971 0.9138 0.3998 1.297 0 0.28353-0.016 0.36339-0.1228 0.5567-0.1757 0.317-0.3846 0.42703-0.8448 0.4449-0.2506 0.01-0.4485-0.0117-0.6767-0.0733z"/>
   </g>
  </g>
 </g>
 <style type="text/css">.st0{fill:#125159;}
	.st1{fill:#D4DB00;}
	.st2{opacity:0.12;}
	.st3{fill:#FFFFFF;}</style>
</svg>
