<?xml version="1.0" encoding="UTF-8" standalone="no"?>
<svg
   xmlns:dc="http://purl.org/dc/elements/1.1/"
   xmlns:cc="http://creativecommons.org/ns#"
   xmlns:rdf="http://www.w3.org/1999/02/22-rdf-syntax-ns#"
   xmlns:svg="http://www.w3.org/2000/svg"
   xmlns="http://www.w3.org/2000/svg"
   xmlns:sodipodi="http://sodipodi.sourceforge.net/DTD/sodipodi-0.dtd"
   xmlns:inkscape="http://www.inkscape.org/namespaces/inkscape"
   width="211.23239mm"
   height="211.2502mm"
   viewBox="0 0 211.23237 211.25018"
   version="1.1"
   id="svg861"
   inkscape:version="1.0.2 (e86c8708, 2021-01-15)"
   sodipodi:docname="logo_php.svg">
  <defs
     id="defs855">
    <clipPath
       clipPathUnits="userSpaceOnUse"
       id="clipPath3609">
      <rect
         style="fill:#79c5b6;stroke-width:0.319138;stroke-linecap:round;stroke-linejoin:round"
         id="rect3611"
         width="154"
         height="154"
         x="26.307148"
         y="25.4189" />
    </clipPath>
    <clipPath
       clipPathUnits="userSpaceOnUse"
       id="clipPath4171">
      <rect
         style="fill:#9a4f96;fill-opacity:1;stroke:none;stroke-width:0.226;stroke-linecap:round;stroke-linejoin:round;stroke-opacity:0.462891"
         id="rect4173"
         width="527.21399"
         height="541.85889"
         x="-261.74652"
         y="-237.54047" />
    </clipPath>
    <clipPath
       clipPathUnits="userSpaceOnUse"
       id="clipPath4269">
      <rect
         style="fill:#9a4f96;fill-opacity:1;stroke:none;stroke-width:0.226;stroke-linecap:round;stroke-linejoin:round;stroke-opacity:0.462891"
         id="rect4271"
         width="421.89252"
         height="399.45142"
         x="-189.10664"
         y="-108.35858" />
    </clipPath>
    <clipPath
       clipPathUnits="userSpaceOnUse"
       id="clipPath4349">
      <rect
         style="fill:#ffffff;fill-opacity:1;stroke:none;stroke-width:0.228559;stroke-linecap:round;stroke-linejoin:round;stroke-opacity:0.462891"
         id="rect4351"
         width="243.00964"
         height="281.39642"
         x="18.846067"
         y="-72.599701" />
    </clipPath>
  </defs>
  <sodipodi:namedview
     id="base"
     pagecolor="#ffffff"
     bordercolor="#666666"
     borderopacity="1.0"
     inkscape:pageopacity="0.0"
     inkscape:pageshadow="2"
     inkscape:zoom="0.56834164"
     inkscape:cx="177.52651"
     inkscape:cy="561.80075"
     inkscape:document-units="mm"
     inkscape:current-layer="g4399"
     inkscape:document-rotation="0"
     showgrid="false"
     fit-margin-top="0"
     fit-margin-left="0"
     fit-margin-right="0"
     fit-margin-bottom="0"
     inkscape:window-width="1792"
     inkscape:window-height="1003"
     inkscape:window-x="3840"
     inkscape:window-y="1664"
     inkscape:window-maximized="1"
     inkscape:pagecheckerboard="true" />
  <metadata
     id="metadata858">
    <rdf:RDF>
      <cc:Work
         rdf:about="">
        <dc:format>image/svg+xml</dc:format>
        <dc:type
           rdf:resource="http://purl.org/dc/dcmitype/StillImage" />
        <dc:title></dc:title>
      </cc:Work>
    </rdf:RDF>
  </metadata>
  <g
     inkscape:label="レイヤー 1"
     inkscape:groupmode="layer"
     id="layer1"
     transform="translate(2.0302843,35.472229)">
    <rect
       style="fill:#ffffff;fill-opacity:1;stroke:none;stroke-width:0.226;stroke-linecap:round;stroke-linejoin:round;stroke-opacity:0.462891"
       id="rect4405"
       width="178.76572"
       height="87.520714"
       x="17.384802"
       y="28.169849" />
    <path
       style="fill:#000000;stroke-width:0.264583"
       id="path4067"
       d="" />
    <g
       id="g4399"
       transform="translate(7.9141072,-24.207857)">
      <path
         style="fill:#b9b9b9;fill-opacity:1;stroke-width:0.264583"
         d="m 20.843811,169.08686 -2.110459,-2.18281 2.182812,2.11046 c 2.02733,1.96013 2.303434,2.25516 2.11046,2.25516 -0.03979,0 -1.022059,-0.98226 -2.182813,-2.18281 z m 111.523739,-40.3387 c 0.65245,-0.0621 1.28659,-0.25349 1.4092,-0.42536 0.15413,-0.21606 0.18992,-0.19002 0.11596,0.0844 -0.0753,0.27919 -0.49309,0.40532 -1.40921,0.42536 l -1.30223,0.0285 z M 78.859914,114.45511 c 0.618464,-0.0557 1.630495,-0.0557 2.248958,0 0.618464,0.0557 0.112448,0.10128 -1.124479,0.10128 -1.236927,0 -1.742942,-0.0456 -1.124479,-0.10128 z m 57.709346,-0.40559 c 0.11151,-0.11135 3.76686,-0.17077 8.123,-0.13204 l 7.92026,0.0704 -8.123,0.13204 c -4.46765,0.0726 -8.03176,0.0409 -7.92026,-0.0704 z m -92.898929,-0.12775 c 2.219193,-0.0442 5.850599,-0.0442 8.069792,0 2.219192,0.0443 0.403489,0.0805 -4.034896,0.0805 -4.438386,0 -6.254089,-0.0362 -4.034896,-0.0805 z M 146.3334,103.34459 c 0.47555,-0.0589 1.18993,-0.0577 1.5875,0.003 0.39758,0.0604 0.008,0.10855 -0.86463,0.10707 -0.87313,-0.002 -1.19842,-0.0509 -0.72287,-0.10977 z M 123.98991,83.428009 c 0,-0.945885 0.048,-1.332838 0.10672,-0.859895 0.0587,0.472942 0.0587,1.246849 0,1.719791 -0.0587,0.472943 -0.10672,0.08599 -0.10672,-0.859896 z m 19.19603,-1.130927 c 0.11303,-0.112686 2.28025,-0.171926 4.81605,-0.13164 l 4.61053,0.07324 -4.81605,0.13164 c -2.64883,0.0724 -4.72357,0.03944 -4.61053,-0.07324 z M 48.300539,82.172675 c 1.273307,-0.0485 3.356901,-0.0485 4.630209,0 1.273307,0.0485 0.23151,0.08819 -2.315105,0.08819 -2.546614,0 -3.588411,-0.03968 -2.315104,-0.08819 z M 20.850018,19.663427 c 1.595766,-1.600729 2.960923,-2.910417 3.033684,-2.910417 0.07276,0 -1.173335,1.309688 -2.7691,2.910417 -1.595766,1.600729 -2.960923,2.910417 -3.033684,2.910417 -0.07276,0 1.173335,-1.309688 2.7691,-2.910417 z m 149.483372,-0.06615 -2.11046,-2.182812 2.18282,2.110459 c 1.20054,1.160754 2.18281,2.143019 2.18281,2.182813 0,0.192974 -0.29503,-0.08313 -2.25517,-2.11046 z"
         id="path4403" />
      <path
         style="fill:#4e5b92;fill-opacity:1;stroke-width:0.264583"
         d="M 86.928753,199.70475 C 68.554867,198.0839 51.556393,192.05605 36.409783,181.79017 27.340147,175.64306 19.127091,167.92781 12.11353,158.96655 9.854978,156.08078 5.2214245,149.13509 3.7294672,146.39884 1.2905224,141.92582 0.51089055,140.37169 -0.94605927,137.07857 -14.943944,105.43939 -12.48888,68.579556 5.5700218,39.247456 12.934759,27.285313 23.44099,16.124892 35.137518,7.8388912 62.742043,-11.71658 99.140041,-16.642674 131.16474,-5.1574023 c 10.31539,3.6994904 20.81291,9.4499357 29.12069,15.9520493 19.62683,15.360994 33.05322,36.380287 38.45234,60.197946 1.82641,8.057033 2.54746,14.677498 2.55023,23.415625 0.005,16.918002 -3.6486,32.365132 -11.23423,47.492712 -9.9784,19.89932 -26.93463,36.85555 -46.83396,46.83395 -11.70455,5.86918 -23.2326,9.2589 -36.49526,10.7311 -5.24237,0.58193 -14.623214,0.69508 -19.795797,0.23877 z M 36.967935,128.20874 c 0.191394,-0.91215 2.535208,-13.80637 2.535208,-13.94715 0,-0.0569 3.899297,-0.14807 8.665105,-0.2026 8.533331,-0.0976 8.700497,-0.11002 10.992535,-0.81538 9.025173,-2.77747 15.368857,-9.69138 17.548466,-19.125902 0.674388,-2.919114 0.675613,-9.115764 0.0021,-11.351157 C 75.193506,77.72775 72.03459,74.690907 66.358209,72.813493 64.524892,72.207139 64.354643,72.200016 49.555857,72.110301 l -14.95027,-0.09063 -2.078125,10.532817 c -1.142841,5.793049 -3.611499,18.271872 -5.485781,27.730732 -1.874282,9.45885 -3.409082,17.46334 -3.41067,17.78775 -0.0029,0.5882 0.01199,0.59005 5.354929,0.66725 2.946797,0.0426 5.9139,0.10458 6.593559,0.13777 1.154377,0.0564 1.245804,0.0124 1.38842,-0.66725 z m 6.305521,-25.12838 c -1.004946,-0.12471 -1.022538,-0.23475 -0.483082,-3.02145 0.207248,-1.070588 0.561653,-3.018088 0.787564,-4.327776 0.225912,-1.309687 0.642411,-3.690937 0.925555,-5.291666 0.283144,-1.600729 0.716706,-4.071276 0.963472,-5.490104 l 0.448665,-2.579688 h 5.497137 c 4.7273,0 5.734171,0.07321 7.189718,0.522785 2.120969,0.6551 3.719293,1.978237 4.333987,3.58779 0.9072,2.375469 -0.133562,8.230917 -2.021743,11.374559 -1.483158,2.46932 -3.944868,4.12667 -7.405573,4.98581 -1.64524,0.40844 -7.728244,0.55091 -10.2357,0.23974 z m 90.555634,25.52525 c 0.0647,-0.1819 0.69319,-3.48588 1.3966,-7.34218 l 1.27892,-7.01146 8.45083,-0.14482 c 6.68468,-0.11455 8.81339,-0.23769 10.18563,-0.58923 4.42984,-1.13483 8.6269,-3.57495 11.77804,-6.84761 3.22155,-3.34579 4.97849,-6.40042 6.37451,-11.082762 0.69405,-2.3279 0.74618,-2.824864 0.74809,-7.132455 0.002,-3.852463 -0.0819,-4.874644 -0.49755,-6.085417 -0.87865,-2.559259 -1.77736,-4.046217 -3.4372,-5.687039 -1.8264,-1.805469 -3.86987,-2.96994 -6.77882,-3.862898 -1.95314,-0.599553 -2.21848,-0.610621 -16.8586,-0.703109 l -14.87422,-0.09397 -0.13752,0.609443 c -0.0756,0.335196 -0.36985,1.800069 -0.6538,3.255278 -0.85534,4.383386 -7.35783,37.314359 -8.89988,45.072199 -0.79116,3.98023 -1.43848,7.34133 -1.43848,7.46911 0,0.12778 2.47055,0.26707 5.49011,0.30952 3.01955,0.0425 5.99985,0.10439 6.62288,0.13766 0.71446,0.0381 1.17625,-0.0617 1.25046,-0.27026 z m 6.59105,-25.56712 -0.81529,-0.16361 1.70289,-9.921871 c 0.93659,-5.457031 1.74621,-10.070703 1.79917,-10.252604 0.14981,-0.51454 10.36075,-0.45807 12.3823,0.06848 3.45319,0.89944 4.99305,2.870758 4.95732,6.346309 -0.0451,4.385916 -1.5217,8.477141 -3.85661,10.685396 -2.78371,2.63272 -5.61254,3.48689 -11.38042,3.43634 -2.18574,-0.0192 -4.34095,-0.10845 -4.78936,-0.19844 z m -51.946635,11.041 c 0.0851,-0.13558 0.825264,-3.60504 1.644795,-7.70993 0.819534,-4.10488 2.208416,-11.000765 3.08641,-15.324181 0.877993,-4.323416 1.59635,-7.935872 1.59635,-8.027683 0,-0.09181 2.887266,-0.124621 6.41615,-0.07292 7.40891,0.108556 7.90501,0.23055 8.39907,2.065377 0.36972,1.373005 0.41326,1.105186 -4.08722,25.140777 -0.36784,1.96453 -0.66993,3.78023 -0.67132,4.03489 -0.002,0.4295 0.51021,0.46302 7.08062,0.46302 h 7.08314 l 1.78759,-10.64948 c 0.98317,-5.857214 2.15194,-12.733073 2.59726,-15.279688 0.59259,-3.388757 0.77004,-5.080529 0.66182,-6.309759 -0.39324,-4.466543 -3.47066,-7.541766 -9.10404,-9.097531 -1.81186,-0.50038 -2.90161,-0.574903 -9.77817,-0.668679 -7.041056,-0.09602 -7.739067,-0.14578 -7.739067,-0.551707 0,-0.24539 0.535782,-3.359499 1.190625,-6.92024 0.654844,-3.560742 1.190625,-6.684283 1.190625,-6.941204 0,-0.433985 -0.468984,-0.467129 -6.609543,-0.467129 h -6.609543 l -0.138753,0.595312 c -0.07631,0.327422 -0.85798,4.28625 -1.737037,8.797396 -0.879057,4.511145 -2.002459,10.226145 -2.496449,12.7 -0.493991,2.473854 -1.981285,10.034322 -3.305101,16.801041 -1.323816,6.766718 -2.640555,13.457118 -2.926088,14.867548 -0.285533,1.41043 -0.519152,2.70549 -0.519152,2.87791 0,0.38559 12.741137,0.0686 12.987028,-0.32314 z"
         id="path4401" />
    </g>
  </g>
</svg>
