<?xml version="1.0" encoding="UTF-8" standalone="no"?>
<svg
   xmlns:dc="http://purl.org/dc/elements/1.1/"
   xmlns:cc="http://creativecommons.org/ns#"
   xmlns:rdf="http://www.w3.org/1999/02/22-rdf-syntax-ns#"
   xmlns:svg="http://www.w3.org/2000/svg"
   xmlns="http://www.w3.org/2000/svg"
   xmlns:sodipodi="http://sodipodi.sourceforge.net/DTD/sodipodi-0.dtd"
   xmlns:inkscape="http://www.inkscape.org/namespaces/inkscape"
   width="68.701424mm"
   height="68.692848mm"
   viewBox="0 0 68.701416 68.692843"
   version="1.1"
   id="svg861"
   inkscape:version="1.0.2 (e86c8708, 2021-01-15)"
   sodipodi:docname="logo_python.svg">
  <defs
     id="defs855">
    <clipPath
       clipPathUnits="userSpaceOnUse"
       id="clipPath3609">
      <rect
         style="fill:#79c5b6;stroke-width:0.319138;stroke-linecap:round;stroke-linejoin:round"
         id="rect3611"
         width="154"
         height="154"
         x="26.307148"
         y="25.4189" />
    </clipPath>
    <clipPath
       clipPathUnits="userSpaceOnUse"
       id="clipPath4171">
      <rect
         style="fill:#9a4f96;fill-opacity:1;stroke:none;stroke-width:0.226;stroke-linecap:round;stroke-linejoin:round;stroke-opacity:0.462891"
         id="rect4173"
         width="527.21399"
         height="541.85889"
         x="-261.74652"
         y="-237.54047" />
    </clipPath>
    <clipPath
       clipPathUnits="userSpaceOnUse"
       id="clipPath4269">
      <rect
         style="fill:#9a4f96;fill-opacity:1;stroke:none;stroke-width:0.226;stroke-linecap:round;stroke-linejoin:round;stroke-opacity:0.462891"
         id="rect4271"
         width="421.89252"
         height="399.45142"
         x="-189.10664"
         y="-108.35858" />
    </clipPath>
    <clipPath
       clipPathUnits="userSpaceOnUse"
       id="clipPath4349">
      <rect
         style="fill:#ffffff;fill-opacity:1;stroke:none;stroke-width:0.228559;stroke-linecap:round;stroke-linejoin:round;stroke-opacity:0.462891"
         id="rect4351"
         width="243.00964"
         height="281.39642"
         x="18.846067"
         y="-72.599701" />
    </clipPath>
    <clipPath
       clipPathUnits="userSpaceOnUse"
       id="clipPath4445">
      <rect
         style="fill:#4e5b92;fill-opacity:0.513672;stroke:none;stroke-width:0.221389;stroke-linecap:round;stroke-linejoin:round;stroke-opacity:0.462891"
         id="rect4447"
         width="285.37338"
         height="256.97574"
         x="-73.257248"
         y="-55.955799" />
    </clipPath>
  </defs>
  <sodipodi:namedview
     id="base"
     pagecolor="#ffffff"
     bordercolor="#666666"
     borderopacity="1.0"
     inkscape:pageopacity="0.0"
     inkscape:pageshadow="2"
     inkscape:zoom="1.3458642"
     inkscape:cx="76.397777"
     inkscape:cy="26.276002"
     inkscape:document-units="mm"
     inkscape:current-layer="layer1"
     inkscape:document-rotation="0"
     showgrid="false"
     fit-margin-top="0"
     fit-margin-left="0"
     fit-margin-right="0"
     fit-margin-bottom="0"
     inkscape:window-width="1792"
     inkscape:window-height="1003"
     inkscape:window-x="3840"
     inkscape:window-y="1664"
     inkscape:window-maximized="1"
     inkscape:pagecheckerboard="true"
     inkscape:snap-global="false" />
  <metadata
     id="metadata858">
    <rdf:RDF>
      <cc:Work
         rdf:about="">
        <dc:format>image/svg+xml</dc:format>
        <dc:type
           rdf:resource="http://purl.org/dc/dcmitype/StillImage" />
        <dc:title></dc:title>
      </cc:Work>
    </rdf:RDF>
  </metadata>
  <g
     inkscape:label="レイヤー 1"
     inkscape:groupmode="layer"
     id="layer1"
     transform="translate(-61.600948,-62.851291)">
    <rect
       style="fill:#ffffff;fill-opacity:1;stroke:none;stroke-width:0.226;stroke-linecap:round;stroke-linejoin:round;stroke-opacity:0.462891"
       id="rect4571"
       width="13.368114"
       height="8.6499567"
       x="82.63607"
       y="66.389908" />
    <rect
       style="fill:#ffffff;fill-opacity:1;stroke:none;stroke-width:0.226;stroke-linecap:round;stroke-linejoin:round;stroke-opacity:0.462891"
       id="rect4573"
       width="13.368114"
       height="8.6499567"
       x="82.63607"
       y="66.389908" />
    <rect
       style="fill:#ffffff;fill-opacity:1;stroke:none;stroke-width:0.226;stroke-linecap:round;stroke-linejoin:round;stroke-opacity:0.462891"
       id="rect4573-9"
       width="13.368114"
       height="8.6499567"
       x="97.882401"
       y="118.65656" />
    <path
       style="fill:#000000;stroke-width:0.264583"
       id="path4067"
       d="" />
    <path
       style="fill:#fcd548;stroke-width:0.264583"
       d="m 95.233992,131.44504 c 0.691224,-0.0545 1.822317,-0.0545 2.513541,0 0.691224,0.0545 0.125678,0.0991 -1.25677,0.0991 -1.382448,0 -1.947995,-0.0446 -1.256771,-0.0991 z m -5.429573,-0.34467 c -1.615831,-0.27179 -4.489223,-1.19937 -5.822804,-1.87971 -1.490717,-0.76051 -3.253136,-2.47289 -3.881854,-3.77165 -0.516054,-1.06603 -0.542331,-1.58369 -0.542331,-10.68414 0,-9.1291 0.02578,-9.63272 0.567074,-11.07947 0.749865,-2.00419 2.52479,-3.780627 4.607941,-4.611855 1.540852,-0.614839 1.785983,-0.629941 12.426192,-0.765511 l 10.854333,-0.1383 1.76559,-0.86962 c 2.12315,-1.045726 3.65822,-2.685325 4.47527,-4.780004 0.50616,-1.297649 0.603,-2.18998 0.73643,-6.785793 l 0.15363,-5.291666 3.41277,-0.07434 c 4.20981,-0.09171 5.39413,0.239387 7.39391,2.067072 1.56502,1.430343 2.76662,3.484145 3.55544,6.077063 0.58328,1.917314 1.01234,4.452379 0.60453,3.571875 -0.1348,-0.291041 -0.26207,-0.410104 -0.28284,-0.264583 -0.0208,0.145521 -0.26401,-0.655693 -0.54054,-1.780477 -0.4997,-2.032527 -1.67213,-4.71956 -2.04304,-4.68236 -0.10669,0.0107 -0.63565,0.516716 -1.17546,1.124479 -1.40996,1.587453 -9.08044,9.480362 -17.38334,17.88742 -3.94211,3.99157 -7.16747,7.41835 -7.16747,7.61507 0,0.19673 -0.17791,0.42595 -0.39536,0.50939 -1.277904,0.49038 0.92262,0.62543 10.19063,0.62543 9.89037,0 10.35282,-0.0223 11.81629,-0.56985 2.85584,-1.06851 5.36483,-4.40557 6.25316,-8.31699 0.19205,-0.84564 0.43267,-1.40244 0.53471,-1.23734 0.29573,0.4785 -0.30624,2.6881 -1.29096,4.73855 -1.1222,2.33676 -2.83977,4.14258 -4.82518,5.07314 l -1.5135,0.70937 -12.93595,0.13229 c -14.162905,0.14484 -13.691671,0.0853 -13.291722,1.67884 l 0.176292,0.70241 h 8.16874 c 7.20474,0 8.18768,0.0494 8.32933,0.41852 0.3424,0.89227 0.1646,7.67405 -0.23661,9.02507 -0.70316,2.36778 -2.88925,3.94026 -7.13319,5.13096 -2.02806,0.56901 -5.62307,0.88195 -6.178436,0.53784 -0.204123,-0.12648 0.614201,-0.2837 1.984376,-0.38126 5.6866,-0.40489 10.16959,-2.64413 10.92733,-5.45817 0.15754,-0.58506 0.2501,-2.7229 0.20915,-4.83054 l -0.0735,-3.78096 -7.01146,0.006 c -7.646299,0.007 -9.525002,0.17304 -9.525002,0.84362 0,0.23123 -0.533382,0.92425 -1.185291,1.54003 -0.65191,0.61579 -1.306071,1.43729 -1.45369,1.82557 -0.156549,0.41175 -0.591822,0.81869 -1.044477,0.97649 -0.486587,0.16962 -0.874585,0.55313 -1.04017,1.02812 -0.145253,0.41667 -0.606959,0.93489 -1.026014,1.15159 -0.419058,0.2167 -0.899001,0.69486 -1.066543,1.06258 -0.167542,0.36772 -0.666972,0.85595 -1.109844,1.08497 -0.442872,0.22903 -0.805221,0.5335 -0.805221,0.6766 0,0.14311 -0.357187,0.63396 -0.79375,1.09079 -0.436562,0.45681 -0.79375,0.90846 -0.79375,1.00365 0,0.54264 5.572186,1.85028 8.026921,1.88371 1.007054,0.0137 1.226799,0.0783 0.83662,0.24598 -0.65002,0.27933 -2.745377,0.27461 -4.437385,-0.01 z m 13.395271,-5.36424 c -0.79358,-0.72726 -0.97693,-1.09851 -1.07802,-2.18281 -0.0993,-1.06554 -0.006,-1.47659 0.50502,-2.22869 0.8543,-1.25684 1.67054,-1.63577 3.24037,-1.50431 1.09297,0.0915 1.44973,0.2657 2.18281,1.06563 0.73651,0.80368 0.87603,1.15733 0.87457,2.21687 -0.003,2.22905 -1.2603,3.48353 -3.50788,3.50024 -1.06514,0.008 -1.40895,-0.12653 -2.21687,-0.86693 z m 4.37559,-0.42047 c 0.69376,-0.64806 0.82173,-0.96123 0.82173,-2.01083 0,-1.06108 -0.13179,-1.37502 -0.89958,-2.14281 -0.64224,-0.64224 -1.13798,-0.89958 -1.73293,-0.89958 -1.79697,0 -3.18832,1.39135 -3.18832,3.18832 0,0.59495 0.25734,1.09069 0.89958,1.73293 0.75617,0.75617 1.08915,0.89958 2.08869,0.89958 0.94701,0 1.3564,-0.15628 2.01083,-0.76761 z"
       id="path4563" />
    <path
       style="fill:#fdcc3c;stroke-width:0.264583"
       d="m 94.241804,131.11036 c 0.390179,-0.16767 0.170434,-0.23228 -0.83662,-0.24599 -2.454735,-0.0334 -8.026921,-1.34107 -8.026921,-1.88371 0,-0.0952 0.357188,-0.54683 0.79375,-1.00365 0.436563,-0.45682 0.79375,-0.94768 0.79375,-1.09078 0,-0.14311 0.362349,-0.44758 0.805221,-0.6766 0.442872,-0.22901 0.942302,-0.71725 1.109844,-1.08497 0.167542,-0.36771 0.647485,-0.84587 1.066543,-1.06258 0.419055,-0.2167 0.880761,-0.73491 1.026014,-1.15159 0.165585,-0.47499 0.553583,-0.8585 1.04017,-1.02812 0.452655,-0.1578 0.887928,-0.56474 1.044477,-0.97649 0.147619,-0.38828 0.80178,-1.20978 1.45369,-1.82556 0.651909,-0.61579 1.185291,-1.3088 1.185291,-1.54004 0,-0.67058 1.878703,-0.83697 9.524997,-0.84362 l 7.01146,-0.006 0.0735,3.78097 c 0.041,2.10763 -0.0516,4.24547 -0.20914,4.83053 -0.75774,2.81404 -5.24073,5.05328 -10.92734,5.45817 -1.40237,0.0999 -2.193291,0.25382 -1.984371,0.38631 0.196453,0.12458 -0.917099,0.21397 -2.56304,0.20575 -1.869119,-0.009 -2.721091,-0.0959 -2.38125,-0.24194 z m 13.046666,-4.85586 c 1.00924,-0.56004 1.63405,-1.76373 1.63597,-3.15168 0.002,-1.05954 -0.13806,-1.41319 -0.87457,-2.21687 -0.73308,-0.79993 -1.08984,-0.9741 -2.18281,-1.06563 -1.56983,-0.13146 -2.38607,0.24747 -3.24037,1.50431 -0.51122,0.7521 -0.60437,1.16315 -0.50502,2.22869 0.10109,1.0843 0.28444,1.45555 1.07802,2.18281 0.80792,0.7404 1.15173,0.87486 2.21687,0.86693 0.69337,-0.005 1.53572,-0.16201 1.87191,-0.34856 z m -6.41495,-13.37267 c -0.0805,-0.13027 0.0315,-0.30513 0.24897,-0.38857 0.21745,-0.0834 0.39536,-0.31267 0.39536,-0.50939 0,-0.19672 3.22536,-3.62351 7.16747,-7.61507 8.3029,-8.407062 15.97338,-16.299971 17.38334,-17.887424 0.53981,-0.607763 1.06877,-1.113779 1.17546,-1.124479 0.37091,-0.0372 1.54334,2.649833 2.04304,4.68236 0.27653,1.124784 0.51978,1.925998 0.54054,1.780477 0.0208,-0.145521 0.14008,-0.02646 0.26515,0.264583 0.27936,0.650113 0.27936,9.220873 0,10.318753 -0.11109,0.43656 -0.22599,0.67468 -0.25533,0.52916 -0.0293,-0.14552 -0.22227,0.43331 -0.42874,1.28628 -0.96712,3.99536 -3.43165,7.26485 -6.27937,8.33032 -1.46347,0.54756 -1.92592,0.56986 -11.81629,0.56986 -5.77353,0 -10.35749,-0.104 -10.4396,-0.23686 z"
       id="path4561" />
    <path
       style="fill:#3571a3;stroke-width:0.264583"
       d="m 69.062059,113.69117 c -4.505805,-1.56997 -7.069066,-6.70625 -7.41587,-14.859978 -0.177567,-4.174799 0.160771,-7.19211 1.135349,-10.125076 1.533735,-4.615732 4.309497,-7.223135 8.345536,-7.839351 0.949516,-0.144971 6.009226,-0.218378 11.605356,-0.168372 5.457031,0.04876 10.695781,0.01117 11.641666,-0.08354 1.640149,-0.164226 1.723739,-0.206637 1.805056,-0.915805 0.164695,-1.436349 0.167331,-1.435891 -8.476166,-1.474046 -6.03496,-0.02664 -8.038248,-0.115518 -8.204732,-0.364007 -0.281914,-0.420777 0.01771,-8.259557 0.358138,-9.369492 0.274563,-0.895201 2.058729,-2.698614 3.308801,-3.344496 2.72459,-1.407728 7.574473,-2.296183 12.53182,-2.295716 8.007037,7.53e-4 13.904677,1.981289 15.981737,5.366961 0.67707,1.103653 0.80221,1.621721 0.95867,3.96875 0.099,1.484669 0.15333,5.914087 0.12079,9.843149 -0.0538,6.492991 -0.10873,7.27171 -0.6032,8.548444 -0.72883,1.88183 -1.67622,3.068595 -3.12955,3.920304 -2.62733,1.539719 -2.54501,1.53002 -14.254489,1.679898 l -10.847916,0.138853 -1.455208,0.691304 c -2.284654,1.085336 -3.964232,3.047576 -4.837114,5.651166 -0.147752,0.4407 -0.340236,3.18253 -0.427742,6.09295 l -0.159102,5.29166 -3.307292,0.0614 c -2.620627,0.0487 -3.591161,-0.0375 -4.674538,-0.41498 z M 88.032756,73.823589 c 0.870855,-0.450336 1.57884,-1.621159 1.57884,-2.610991 0,-2.740771 -3.149901,-4.014036 -5.101706,-2.06223 -2.339962,2.339962 0.570037,6.200189 3.522866,4.673221 z"
       id="path4559" />
  </g>
</svg>
