<?xml version="1.0" encoding="UTF-8" standalone="no"?>
<svg
   xmlns:dc="http://purl.org/dc/elements/1.1/"
   xmlns:cc="http://creativecommons.org/ns#"
   xmlns:rdf="http://www.w3.org/1999/02/22-rdf-syntax-ns#"
   xmlns:svg="http://www.w3.org/2000/svg"
   xmlns="http://www.w3.org/2000/svg"
   xmlns:sodipodi="http://sodipodi.sourceforge.net/DTD/sodipodi-0.dtd"
   xmlns:inkscape="http://www.inkscape.org/namespaces/inkscape"
   width="59.102055mm"
   height="59.18922mm"
   viewBox="0 0 59.102052 59.189218"
   version="1.1"
   id="svg861"
   inkscape:version="1.0.2 (e86c8708, 2021-01-15)"
   sodipodi:docname="logo_dotNet.svg">
  <defs
     id="defs855">
    <clipPath
       clipPathUnits="userSpaceOnUse"
       id="clipPath3609">
      <rect
         style="fill:#79c5b6;stroke-width:0.319138;stroke-linecap:round;stroke-linejoin:round"
         id="rect3611"
         width="154"
         height="154"
         x="26.307148"
         y="25.4189" />
    </clipPath>
  </defs>
  <sodipodi:namedview
     id="base"
     pagecolor="#ffffff"
     bordercolor="#666666"
     borderopacity="1.0"
     inkscape:pageopacity="0.0"
     inkscape:pageshadow="2"
     inkscape:zoom="1.9630296"
     inkscape:cx="54.730216"
     inkscape:cy="136.72717"
     inkscape:document-units="mm"
     inkscape:current-layer="layer1"
     inkscape:document-rotation="0"
     showgrid="false"
     fit-margin-top="0"
     fit-margin-left="0"
     fit-margin-right="0"
     fit-margin-bottom="0"
     inkscape:window-width="1792"
     inkscape:window-height="1003"
     inkscape:window-x="3840"
     inkscape:window-y="1664"
     inkscape:window-maximized="1"
     inkscape:pagecheckerboard="true" />
  <metadata
     id="metadata858">
    <rdf:RDF>
      <cc:Work
         rdf:about="">
        <dc:format>image/svg+xml</dc:format>
        <dc:type
           rdf:resource="http://purl.org/dc/dcmitype/StillImage" />
        <dc:title></dc:title>
      </cc:Work>
    </rdf:RDF>
  </metadata>
  <g
     inkscape:label="レイヤー 1"
     inkscape:groupmode="layer"
     id="layer1"
     transform="translate(-23.827751,27.631184)">
    <ellipse
       style="fill:#eeeeee;fill-opacity:1;stroke:none;stroke-width:0.234826;stroke-linecap:round;stroke-linejoin:round;stroke-opacity:0.462891"
       id="path4109"
       cx="53.547436"
       cy="3.0993767"
       rx="26.347815"
       ry="25.202158" />
    <path
       style="fill:#000000;stroke-width:0.264583"
       id="path4067"
       d="" />
    <path
       style="fill:#9a4f96;fill-opacity:1;stroke-width:0.264583"
       d="M 50.543726,31.440098 C 37.557597,30.297405 26.666257,20.36755 24.242831,7.4610377 c -0.545238,-2.903789 -0.554841,-8.21654204 -0.0198,-10.953634 2.073217,-10.6058807 9.516733,-19.2035257 19.597861,-22.6365407 5.967833,-2.032279 13.48607,-1.999985 19.283642,0.08283 7.494254,2.69236 13.298865,7.802923 16.777763,14.771672 2.158482,4.3237607 3.027103,8.0571387 3.047167,13.0968757 0.02058,5.171297 -0.885428,9.0588973 -3.175585,13.6260413 C 74.384084,26.157001 62.769195,32.51586 50.543726,31.440098 Z m -2.86127,-13.085294 c 0.142054,-0.08779 0.25828,-0.387778 0.25828,-0.666631 0,-0.434909 -0.09651,-0.47031 -0.678683,-0.248967 -2.233315,0.849106 -4.085264,-0.44966 -4.082828,-2.863268 0.0022,-2.143149 1.812244,-3.556516 3.838328,-2.997089 0.897065,0.247693 0.950528,0.228431 0.87323,-0.314611 -0.07147,-0.502107 -0.274404,-0.589798 -1.537547,-0.664403 -2.649848,-0.156506 -4.346726,1.426933 -4.346726,4.056142 0,2.588006 1.738082,4.259839 4.154592,3.996235 0.694691,-0.07578 1.3793,-0.209614 1.521354,-0.297408 z m 5.294023,-5.29e-4 c 1.447665,-0.748615 1.997417,-2.784237 1.179227,-4.366442 -0.509717,-0.985737 -1.142989,-1.317675 -2.513761,-1.317675 -0.858679,0 -1.263592,0.16751 -1.869478,0.773398 -0.655617,0.655616 -0.773398,0.981993 -0.773398,2.143125 0,1.204949 0.108219,1.477943 0.899584,2.26931 1.000765,1.000765 1.842529,1.137028 3.077826,0.498229 z M 50.46928,17.109257 c -0.982665,-1.403006 -0.21752,-3.380766 1.307915,-3.380766 1.06182,0 1.719791,0.759195 1.719791,1.984375 0,1.225179 -0.657971,1.984375 -1.719791,1.984375 -0.626002,0 -1.020162,-0.177216 -1.307915,-0.58804 z m 13.224541,1.108594 c 0.564492,-0.468487 0.505987,-1.15883 -0.07652,-0.902917 -0.254662,0.111881 -0.894967,0.254801 -1.422898,0.3176 -0.778245,0.09258 -1.04109,-0.0018 -1.389062,-0.498568 -0.236054,-0.337065 -0.429186,-0.705371 -0.429186,-0.818515 0,-0.113141 0.892969,-0.20571 1.984375,-0.20571 h 1.984375 V 15.204 c 0,-1.354952 -1.092158,-2.53553 -2.338623,-2.527958 -1.626312,0.0099 -2.696205,1.242102 -2.679084,3.085576 0.01804,1.942732 1.201521,3.091595 2.977563,2.890475 0.55141,-0.06244 1.176488,-0.257876 1.389062,-0.434298 z m -2.989199,-3.761756 c 0.506037,-0.766514 1.773706,-0.938048 2.238172,-0.302858 0.567354,0.775906 0.411668,0.89817 -1.143704,0.89817 -1.482632,0 -1.486199,-0.0018 -1.094468,-0.595312 z m -3.768053,2.1375 c 0,-2.022211 0.401257,-2.865104 1.363925,-2.865104 0.311769,0 0.488159,-0.191207 0.488159,-0.529167 0,-0.650417 -0.698871,-0.697045 -1.368229,-0.09128 -0.450231,0.407453 -0.483855,0.407453 -0.483855,0 0,-0.261493 -0.213161,-0.437883 -0.529166,-0.437883 -0.497097,0 -0.529167,0.17639 -0.529167,2.910417 0,2.734027 0.03207,2.910416 0.529167,2.910416 0.479973,0 0.529166,-0.176389 0.529166,-1.897395 z M 31.483653,6.5318237 c 0.409289,-0.409289 0.409289,-1.601544 0,-2.010833 -0.174625,-0.174625 -0.627063,-0.3175 -1.005417,-0.3175 -0.874384,0 -1.322916,0.448532 -1.322916,1.322917 0,0.874384 0.448532,1.322916 1.322916,1.322916 0.378354,0 0.830792,-0.142875 1.005417,-0.3175 z m 5.935503,-6.87392704 0.07054,-6.92684796 4.45235,6.92684796 4.452351,6.92684404 h 1.302337 1.302336 v -8.466666 -8.4666677 h -1.05394 -1.05394 l -0.07054,6.8614397 -0.07054,6.861437 -4.365625,-6.85917 -4.365625,-6.8591727 -1.389062,-0.0023 -1.389063,-0.0023 v 8.4666677 8.466666 h 1.053941 1.05394 z M 62.492819,5.6586987 V 4.7326567 H 59.089198 55.68558 L 55.517323,3.5051047 C 55.424783,2.8299487 55.34907,1.5202607 55.34907,0.59468766 V -1.0881753 h 3.174999 3.175001 v -0.926042 -0.926042 H 58.524069 55.34907 v -2.778126 -2.778125 h 3.307291 3.307292 v -0.926041 -0.9260417 h -4.365625 -4.365625 v 8.4666677 8.466666 h 4.630208 4.630208 z m 8.466667,-6.61458304 V -8.4965103 h 2.38125 2.38125 v -0.926041 -0.9260417 h -5.953125 -5.953125 v 0.9260417 0.926041 h 2.38125 2.38125 v 7.54062596 7.54062504 h 1.190625 1.190625 z"
       id="path4089" />
  </g>
</svg>
