<?xml version="1.0" encoding="UTF-8" standalone="no"?>
<svg
   xmlns:dc="http://purl.org/dc/elements/1.1/"
   xmlns:cc="http://creativecommons.org/ns#"
   xmlns:rdf="http://www.w3.org/1999/02/22-rdf-syntax-ns#"
   xmlns:svg="http://www.w3.org/2000/svg"
   xmlns="http://www.w3.org/2000/svg"
   xmlns:sodipodi="http://sodipodi.sourceforge.net/DTD/sodipodi-0.dtd"
   xmlns:inkscape="http://www.inkscape.org/namespaces/inkscape"
   width="51.251457mm"
   height="50.550087mm"
   viewBox="0 0 51.251452 50.550083"
   version="1.1"
   id="svg861"
   inkscape:version="1.0.2 (e86c8708, 2021-01-15)"
   sodipodi:docname="logo_inkscape.svg">
  <defs
     id="defs855">
    <marker
       style="overflow:visible"
       id="marker5149"
       refX="0.0"
       refY="0.0"
       orient="auto"
       inkscape:stockid="Arrow1Lstart"
       inkscape:isstock="true">
      <path
         transform="scale(0.8) translate(12.5,0)"
         style="fill-rule:evenodd;stroke:#ffffff;stroke-width:1pt;stroke-opacity:0.880859;fill:#000000;fill-opacity:1"
         d="M 0.0,0.0 L 5.0,-5.0 L -12.5,0.0 L 5.0,5.0 L 0.0,0.0 z "
         id="path5147" />
    </marker>
    <marker
       style="overflow:visible"
       id="marker5115"
       refX="0.0"
       refY="0.0"
       orient="auto"
       inkscape:stockid="Arrow1Lstart"
       inkscape:isstock="true">
      <path
         transform="scale(0.8) translate(12.5,0)"
         style="fill-rule:evenodd;stroke:#ffffff;stroke-width:1pt;stroke-opacity:0.99;fill:#000000;fill-opacity:1"
         d="M 0.0,0.0 L 5.0,-5.0 L -12.5,0.0 L 5.0,5.0 L 0.0,0.0 z "
         id="path5113" />
    </marker>
    <marker
       style="overflow:visible"
       id="marker5087"
       refX="0.0"
       refY="0.0"
       orient="auto"
       inkscape:stockid="Arrow1Lstart"
       inkscape:isstock="true">
      <path
         transform="scale(0.8) translate(12.5,0)"
         style="fill-rule:evenodd;stroke:#ffffff;stroke-width:1pt;stroke-opacity:0.99;fill:#000000;fill-opacity:1"
         d="M 0.0,0.0 L 5.0,-5.0 L -12.5,0.0 L 5.0,5.0 L 0.0,0.0 z "
         id="path5085" />
    </marker>
    <marker
       style="overflow:visible"
       id="marker5065"
       refX="0.0"
       refY="0.0"
       orient="auto"
       inkscape:stockid="Arrow1Lstart"
       inkscape:isstock="true">
      <path
         transform="scale(0.8) translate(12.5,0)"
         style="fill-rule:evenodd;stroke:#ffffff;stroke-width:1pt;stroke-opacity:0.99;fill:#000000;fill-opacity:1"
         d="M 0.0,0.0 L 5.0,-5.0 L -12.5,0.0 L 5.0,5.0 L 0.0,0.0 z "
         id="path5063" />
    </marker>
    <marker
       style="overflow:visible"
       id="Arrow1Lstart"
       refX="0.0"
       refY="0.0"
       orient="auto"
       inkscape:stockid="Arrow1Lstart"
       inkscape:isstock="true">
      <path
         transform="scale(0.8) translate(12.5,0)"
         style="fill-rule:evenodd;stroke:#ffffff;stroke-width:1pt;stroke-opacity:0.99;fill:#000000;fill-opacity:1"
         d="M 0.0,0.0 L 5.0,-5.0 L -12.5,0.0 L 5.0,5.0 L 0.0,0.0 z "
         id="path4781" />
    </marker>
    <clipPath
       clipPathUnits="userSpaceOnUse"
       id="clipPath3609">
      <rect
         style="fill:#79c5b6;stroke-width:0.319138;stroke-linecap:round;stroke-linejoin:round"
         id="rect3611"
         width="154"
         height="154"
         x="26.307148"
         y="25.4189" />
    </clipPath>
    <clipPath
       clipPathUnits="userSpaceOnUse"
       id="clipPath4171">
      <rect
         style="fill:#9a4f96;fill-opacity:1;stroke:none;stroke-width:0.226;stroke-linecap:round;stroke-linejoin:round;stroke-opacity:0.462891"
         id="rect4173"
         width="527.21399"
         height="541.85889"
         x="-261.74652"
         y="-237.54047" />
    </clipPath>
    <clipPath
       clipPathUnits="userSpaceOnUse"
       id="clipPath4269">
      <rect
         style="fill:#9a4f96;fill-opacity:1;stroke:none;stroke-width:0.226;stroke-linecap:round;stroke-linejoin:round;stroke-opacity:0.462891"
         id="rect4271"
         width="421.89252"
         height="399.45142"
         x="-189.10664"
         y="-108.35858" />
    </clipPath>
    <clipPath
       clipPathUnits="userSpaceOnUse"
       id="clipPath4349">
      <rect
         style="fill:#ffffff;fill-opacity:1;stroke:none;stroke-width:0.228559;stroke-linecap:round;stroke-linejoin:round;stroke-opacity:0.462891"
         id="rect4351"
         width="243.00964"
         height="281.39642"
         x="18.846067"
         y="-72.599701" />
    </clipPath>
    <clipPath
       clipPathUnits="userSpaceOnUse"
       id="clipPath4445">
      <rect
         style="fill:#4e5b92;fill-opacity:0.513672;stroke:none;stroke-width:0.221389;stroke-linecap:round;stroke-linejoin:round;stroke-opacity:0.462891"
         id="rect4447"
         width="285.37338"
         height="256.97574"
         x="-73.257248"
         y="-55.955799" />
    </clipPath>
    <clipPath
       clipPathUnits="userSpaceOnUse"
       id="clipPath3609-2">
      <rect
         style="fill:#79c5b6;stroke-width:0.319138;stroke-linecap:round;stroke-linejoin:round"
         id="rect3611-1"
         width="154"
         height="154"
         x="26.307148"
         y="25.4189" />
    </clipPath>
  </defs>
  <sodipodi:namedview
     id="base"
     pagecolor="#ffffff"
     bordercolor="#666666"
     borderopacity="1.0"
     inkscape:pageopacity="0.0"
     inkscape:pageshadow="2"
     inkscape:zoom="1.7876322"
     inkscape:cx="173.65076"
     inkscape:cy="167.03506"
     inkscape:document-units="mm"
     inkscape:current-layer="layer1"
     inkscape:document-rotation="0"
     showgrid="false"
     fit-margin-top="0"
     fit-margin-left="0"
     fit-margin-right="0"
     fit-margin-bottom="0"
     inkscape:window-width="1792"
     inkscape:window-height="1003"
     inkscape:window-x="3840"
     inkscape:window-y="1664"
     inkscape:window-maximized="1"
     inkscape:pagecheckerboard="true"
     inkscape:snap-global="false" />
  <metadata
     id="metadata858">
    <rdf:RDF>
      <cc:Work
         rdf:about="">
        <dc:format>image/svg+xml</dc:format>
        <dc:type
           rdf:resource="http://purl.org/dc/dcmitype/StillImage" />
        <dc:title></dc:title>
      </cc:Work>
    </rdf:RDF>
  </metadata>
  <g
     inkscape:label="レイヤー 1"
     inkscape:groupmode="layer"
     id="layer1"
     transform="translate(379.48121,157.55292)">
    <path
       style="fill:#000000;stroke:#ffffff;stroke-width:0.6;stroke-miterlimit:4;stroke-dasharray:none;stroke-opacity:0.88085938;marker-start:url(#marker5149)"
       d="m -355.89175,-107.46133 c -0.70745,-0.25223 -0.97931,-0.59416 -1.29481,-1.62853 -0.4939,-1.61925 -1.24268,-2.16402 -3.62092,-2.63439 -1.82475,-0.3609 -2.74034,-0.92523 -2.74034,-1.68902 0,-0.33543 0.37359,-0.91924 1.04434,-1.63201 1.13327,-1.20426 1.28787,-1.43529 1.28787,-1.9246 0,-1.03677 -0.94806,-1.54688 -6.17288,-3.32135 -4.64774,-1.57849 -5.83797,-2.15304 -5.83797,-2.81813 0,-0.48135 0.59505,-0.91281 2.62663,-1.90457 1.16079,-0.56665 1.99256,-1.04721 2.14251,-1.23784 0.27896,-0.35464 0.3182,-0.77396 0.0901,-0.96324 -0.34078,-0.28281 -1.86988,-0.75541 -4.73576,-1.46367 -3.49811,-0.8645 -4.66068,-1.33294 -5.4512,-2.19647 -0.79584,-0.86936 -0.83402,-2.00642 -0.11492,-3.42311 0.78166,-1.53993 0.44012,-1.16029 8.0671,-8.96721 2.5063,-2.56542 6.33881,-6.49035 8.51671,-8.72207 2.17789,-2.23171 4.20389,-4.21478 4.50223,-4.40682 1.05794,-0.68102 1.75849,-0.86296 3.30571,-0.85849 1.5476,0.005 2.26914,0.19172 3.30571,0.85794 0.51405,0.33039 2.78572,2.58407 8.5903,8.52227 1.41001,1.44246 3.69483,3.77758 5.07739,5.18915 8.3792,8.55503 8.30326,8.46829 8.6763,9.90982 0.51931,2.00677 -0.94989,3.70419 -4.59187,5.30513 -0.60394,0.26549 -2.80788,1.06164 -4.89762,1.76923 -3.71208,1.25692 -5.32433,1.89623 -5.74728,2.27899 -0.56899,0.51493 -0.0311,1.13549 1.93184,2.22883 1.65205,0.92017 2.52359,1.67655 2.52188,2.18865 -0.002,0.49972 -0.48955,1.46639 -0.99542,1.97226 -0.57511,0.5751 -1.07423,0.785 -3.1832,1.33864 -2.2671,0.59514 -3.50717,1.21452 -4.78321,2.38907 -0.91669,0.84378 -0.86877,1.32238 0.18201,1.81779 0.82239,0.38774 1.31791,0.7888 1.31791,1.06669 0,0.78558 -3.18212,2.41354 -5.75746,2.94549 -1.07431,0.22191 -2.65608,0.22752 -3.26173,0.0116 z m 2.34932,-15.50203 c 0.43802,-0.22651 0.75061,-0.59813 0.70382,-0.83673 -0.0323,-0.16461 -0.63818,-0.32151 -3.36276,-0.8708 -1.82787,-0.36851 -4.0318,-0.8395 -4.89763,-1.04665 -1.96018,-0.46899 -2.33221,-0.52675 -2.33221,-0.36215 0,0.47039 4.01721,2.1708 6.92339,2.93055 1.42227,0.37182 2.47776,0.43794 2.96539,0.18578 z m 2.70383,-21.40991 c 0.0783,0 0.79295,0.3451 1.58803,0.76689 1.02592,0.54424 1.46048,0.72198 1.49683,0.6122 0.0282,-0.0851 0.1936,-1.03363 0.36759,-2.1079 0.174,-1.07427 0.36212,-1.95322 0.41804,-1.95322 0.0559,0 0.8915,0.6393 1.85685,1.42066 1.94394,1.57345 1.96531,1.57817 1.96844,0.43429 10e-4,-0.45819 -0.0763,-0.79572 -0.26059,-1.13478 -0.14538,-0.26743 -2.03015,-2.25996 -4.22712,-4.4688 -3.55189,-3.5711 -4.04354,-4.02311 -4.72143,-4.34078 -0.65997,-0.30927 -0.88352,-0.35421 -1.74915,-0.35164 -0.74274,0.002 -1.16852,0.0695 -1.69213,0.26743 -0.65502,0.2476 -0.96407,0.52986 -4.84407,4.42424 -4.55231,4.56916 -4.77627,4.85321 -4.77627,6.05783 0,0.56113 0.0434,0.67354 0.39648,1.0266 l 0.39647,0.39647 h 2.28175 2.28174 l 0.64517,-1.10779 c 0.35484,-0.60929 0.94229,-1.61785 1.30544,-2.24125 0.55389,-0.95083 0.67582,-1.09644 0.75678,-0.90373 0.0531,0.12635 0.41171,1.53319 0.79696,3.12631 0.38524,1.59313 0.72801,2.94119 0.76169,2.99569 0.0337,0.0545 1.12973,-0.57991 2.43566,-1.40981 1.30593,-0.8299 2.43851,-1.50891 2.51684,-1.50891 z m -17.43256,30.95205 c -0.88738,-0.60219 -1.1355,-1.16728 -0.81193,-1.84915 0.69238,-1.45909 4.19559,-2.04144 5.25283,-0.8732 0.20586,0.22747 0.2054,0.24851 -0.0145,0.66632 -0.39364,0.74804 -1.34261,1.66465 -2.09359,2.0222 -0.92856,0.44211 -1.7144,0.4535 -2.33283,0.0338 z m 30.41447,-0.50366 c -0.90291,-0.42202 -1.1019,-1.43619 -0.4496,-2.2914 0.36618,-0.48008 0.60481,-0.50209 1.40475,-0.12958 1.31438,0.61208 1.91375,1.98316 1.04864,2.39884 -0.5682,0.27302 -1.44627,0.28272 -2.00379,0.0221 z m 2.39588,-4.03127 c -0.91693,-0.18988 -1.49989,-0.46713 -1.49989,-0.71336 0,-0.33215 0.34054,-0.83779 0.88991,-1.32137 1.62522,-1.43057 4.58342,-1.16046 5.72733,0.52296 0.42697,0.62833 0.32709,0.97937 -0.37859,1.33067 -0.53073,0.26421 -0.73478,0.29255 -2.2739,0.31581 -1.07938,0.0163 -1.97076,-0.0324 -2.46486,-0.13471 z"
       id="path3993" />
  </g>
</svg>
