<?xml version="1.0" encoding="UTF-8" standalone="no"?>
<svg
   xmlns:dc="http://purl.org/dc/elements/1.1/"
   xmlns:cc="http://creativecommons.org/ns#"
   xmlns:rdf="http://www.w3.org/1999/02/22-rdf-syntax-ns#"
   xmlns:svg="http://www.w3.org/2000/svg"
   xmlns="http://www.w3.org/2000/svg"
   xmlns:sodipodi="http://sodipodi.sourceforge.net/DTD/sodipodi-0.dtd"
   xmlns:inkscape="http://www.inkscape.org/namespaces/inkscape"
   width="68.042374mm"
   height="68.092781mm"
   viewBox="0 0 68.042366 68.092776"
   version="1.1"
   id="svg861"
   inkscape:version="1.0.2 (e86c8708, 2021-01-15)"
   sodipodi:docname="logo_davinci.svg">
  <defs
     id="defs855">
    <clipPath
       clipPathUnits="userSpaceOnUse"
       id="clipPath3609">
      <rect
         style="fill:#79c5b6;stroke-width:0.319138;stroke-linecap:round;stroke-linejoin:round"
         id="rect3611"
         width="154"
         height="154"
         x="26.307148"
         y="25.4189" />
    </clipPath>
    <clipPath
       clipPathUnits="userSpaceOnUse"
       id="clipPath4171">
      <rect
         style="fill:#9a4f96;fill-opacity:1;stroke:none;stroke-width:0.226;stroke-linecap:round;stroke-linejoin:round;stroke-opacity:0.462891"
         id="rect4173"
         width="527.21399"
         height="541.85889"
         x="-261.74652"
         y="-237.54047" />
    </clipPath>
    <clipPath
       clipPathUnits="userSpaceOnUse"
       id="clipPath4269">
      <rect
         style="fill:#9a4f96;fill-opacity:1;stroke:none;stroke-width:0.226;stroke-linecap:round;stroke-linejoin:round;stroke-opacity:0.462891"
         id="rect4271"
         width="421.89252"
         height="399.45142"
         x="-189.10664"
         y="-108.35858" />
    </clipPath>
    <clipPath
       clipPathUnits="userSpaceOnUse"
       id="clipPath4349">
      <rect
         style="fill:#ffffff;fill-opacity:1;stroke:none;stroke-width:0.228559;stroke-linecap:round;stroke-linejoin:round;stroke-opacity:0.462891"
         id="rect4351"
         width="243.00964"
         height="281.39642"
         x="18.846067"
         y="-72.599701" />
    </clipPath>
    <clipPath
       clipPathUnits="userSpaceOnUse"
       id="clipPath4445">
      <rect
         style="fill:#4e5b92;fill-opacity:0.513672;stroke:none;stroke-width:0.221389;stroke-linecap:round;stroke-linejoin:round;stroke-opacity:0.462891"
         id="rect4447"
         width="285.37338"
         height="256.97574"
         x="-73.257248"
         y="-55.955799" />
    </clipPath>
  </defs>
  <sodipodi:namedview
     id="base"
     pagecolor="#ffffff"
     bordercolor="#666666"
     borderopacity="1.0"
     inkscape:pageopacity="0.0"
     inkscape:pageshadow="2"
     inkscape:zoom="1.5429637"
     inkscape:cx="248.40978"
     inkscape:cy="164.62928"
     inkscape:document-units="mm"
     inkscape:current-layer="layer1"
     inkscape:document-rotation="0"
     showgrid="false"
     fit-margin-top="0"
     fit-margin-left="0"
     fit-margin-right="0"
     fit-margin-bottom="0"
     inkscape:window-width="1792"
     inkscape:window-height="1003"
     inkscape:window-x="3840"
     inkscape:window-y="1664"
     inkscape:window-maximized="1"
     inkscape:pagecheckerboard="true"
     inkscape:snap-global="false" />
  <metadata
     id="metadata858">
    <rdf:RDF>
      <cc:Work
         rdf:about="">
        <dc:format>image/svg+xml</dc:format>
        <dc:type
           rdf:resource="http://purl.org/dc/dcmitype/StillImage" />
        <dc:title></dc:title>
      </cc:Work>
    </rdf:RDF>
  </metadata>
  <g
     inkscape:label="レイヤー 1"
     inkscape:groupmode="layer"
     id="layer1"
     transform="translate(173.21264,6.2084216)">
    <path
       style="fill:#d2e22a;fill-opacity:1;stroke:none;stroke-width:0.553593;stroke-linecap:round;stroke-linejoin:round;stroke-opacity:0.462891"
       d="m 650.85576,410.38648 c -10.3754,-0.3653 -20.96862,3.07998 -28.18364,10.7608 -9.16389,8.57052 -10.74789,22.04592 -9.81016,33.87859 4.25926,9.12023 9.90384,18.51329 19.51272,22.7545 6.61388,3.8354 14.48067,5.59095 21.96949,3.48365 12.94824,-2.44249 22.76794,-12.71999 28.12783,-24.29633 4.56986,-10.26998 9.46246,-20.86536 10.5282,-32.1799 0.71002,-6.24343 -6.27502,-8.40684 -10.94687,-9.89117 -10.09548,-3.00664 -20.66527,-4.52429 -31.19757,-4.51014 z"
       id="path4677"
       transform="matrix(0.26458333,0,0,0.26458333,-323.5632,-81.449654)" />
    <path
       style="fill:#f14955;fill-opacity:1;stroke:none;stroke-width:0.553593;stroke-linecap:round;stroke-linejoin:round;stroke-opacity:0.462891"
       d="m 740.42693,410.40041 c -12.11221,0.54945 -24.17712,2.8641 -35.76467,6.35318 -3.91021,1.56822 -6.14065,6.47162 -3.80227,10.26108 2.93028,9.62891 4.78432,19.71479 10.03377,28.49207 3.95328,7.80391 8.13593,16.02164 15.94072,20.67109 4.21382,3.56584 9.59513,5.07301 15.0582,4.66221 8.18913,0.24711 17.00656,-0.10975 23.68877,-5.50398 8.9472,-5.83977 14.87779,-15.77086 15.41397,-26.48363 1.02156,-10.00053 -2.45391,-20.28087 -9.76487,-27.27227 -7.15925,-9.49425 -19.63249,-11.5627 -30.80362,-11.17975 z"
       id="path4679"
       transform="matrix(0.26458333,0,0,0.26458333,-323.5632,-81.449654)" />
    <path
       style="fill:#03ddfc;fill-opacity:1;stroke:none;stroke-width:0.553593;stroke-linecap:round;stroke-linejoin:round;stroke-opacity:0.462891"
       d="m 697.79135,325.18241 c -11.5284,0.32544 -23.09368,5.46508 -29.75073,15.12283 -2.69376,4.14038 -5.92811,8.56213 -6.53439,13.47432 0.54142,8.10793 -1.03665,17.03999 3.97013,24.1251 6.98461,11.94491 15.21079,23.55894 25.98586,32.37422 2.28125,1.98769 5.60052,3.58998 8.19243,1.1671 10.85749,-8.29459 19.0174,-19.63748 26.56789,-30.89589 8.15297,-11.43804 8.71364,-28.22109 -0.008,-39.50687 -6.58589,-8.89796 -17.07626,-15.85202 -28.42288,-15.86081 z"
       id="path4681"
       transform="matrix(0.26458333,0,0,0.26458333,-323.5632,-81.449654)" />
    <path
       style="fill:#000000;stroke-width:0.264583"
       id="path4067"
       d="" />
    <path
       style="fill:#777777;fill-opacity:1;stroke-width:0.264583"
       d="m -145.27687,61.241377 c -11.4966,-2.10082 -21.14217,-10.02062 -25.56773,-20.993194 -0.80526,-1.996528 -1.31208,-3.860216 -1.80146,-6.624331 -0.63993,-3.614528 -0.66585,-4.092644 -0.43024,-7.9375 0.21428,-3.496911 0.38799,-4.541229 1.19571,-7.188308 3.61772,-11.8561647 11.51825,-19.7566977 23.37442,-23.3744217 2.64708,-0.807715 3.6914,-0.981428 7.18831,-1.195711 3.84485,-0.235605 4.32297,-0.209689 7.9375,0.430248 9.82027,1.738636 17.82959,7.205806 23.23438,15.8598147 2.24511,3.594819 3.60079,7.217971 4.40914,11.783706 0.63994,3.614528 0.66585,4.092644 0.43025,7.9375 -0.21429,3.496911 -0.388,4.541229 -1.19571,7.188308 -3.6177,11.856059 -11.51691,19.755389 -23.37443,23.374739 -2.5893,0.79036 -3.72594,0.98484 -6.93347,1.18635 -4.7737,0.29991 -4.21728,0.3293 -8.46667,-0.4472 z m -4.89479,-15.796606 c 3.6132,-0.965171 5.78166,-3.229424 7.71743,-8.058372 1.99854,-4.985536 2.37305,-7.165917 1.34455,-7.827984 -2.00074,-1.287915 -8.26193,-2.380276 -11.57552,-2.019525 -2.3847,0.259626 -3.44063,0.687732 -5.27743,2.139636 -1.89239,1.495853 -2.91864,3.66654 -3.1196,6.598459 -0.13668,1.994104 -0.0962,2.21261 0.71391,3.858284 1.15103,2.338073 2.16238,3.428198 4.08832,4.406781 2.56844,1.305036 3.87783,1.498542 6.10834,0.902721 z m 27.47708,-0.527854 c 1.43632,-0.607089 3.51141,-2.415527 4.25311,-3.706585 1.25992,-2.193126 1.55256,-5.58415 0.68257,-7.909414 -0.70888,-1.894647 -2.79365,-4.200044 -4.43765,-4.907273 -2.8665,-1.233132 -6.45176,-1.219049 -11.93723,0.0469 -1.65666,0.382328 -3.0529,0.695143 -3.10275,0.695143 -0.0499,0 -0.27333,0.27882 -0.49661,0.619601 -0.37468,0.571823 -0.34466,0.811554 0.38924,3.108854 0.43738,1.369089 0.79592,2.670979 0.79676,2.893092 7.9e-4,0.222112 0.65036,1.722723 1.44339,3.334692 1.14983,2.337257 1.7384,3.201868 2.906,4.268996 0.80528,0.735979 1.97215,1.525617 2.59304,1.754751 1.44819,0.534445 5.44759,0.419413 6.91013,-0.198752 z m -13.71348,-19.79022 c 2.24109,-2.363202 4.85203,-5.980803 5.63321,-7.805113 1.36618,-3.190465 0.63208,-7.009079 -1.80494,-9.3889487 -2.49896,-2.440356 -4.85593,-3.306748 -7.73461,-2.84315 -3.38719,0.545492 -5.69767,2.275394 -7.23454,5.4166387 -0.6233,1.273969 -0.68094,1.648648 -0.59519,3.868511 0.0919,2.379511 0.13641,2.531527 1.39434,4.765153 1.39932,2.484699 4.90335,6.700602 6.43319,7.740152 0.84614,0.574969 1.01138,0.60369 1.62873,0.283102 0.37788,-0.196231 1.40379,-1.112586 2.27981,-2.036345 z"
       id="path4659" />
  </g>
</svg>
