<?xml version="1.0" encoding="UTF-8" standalone="no"?>
<svg
   xmlns:dc="http://purl.org/dc/elements/1.1/"
   xmlns:cc="http://creativecommons.org/ns#"
   xmlns:rdf="http://www.w3.org/1999/02/22-rdf-syntax-ns#"
   xmlns:svg="http://www.w3.org/2000/svg"
   xmlns="http://www.w3.org/2000/svg"
   xmlns:xlink="http://www.w3.org/1999/xlink"
   xmlns:sodipodi="http://sodipodi.sourceforge.net/DTD/sodipodi-0.dtd"
   xmlns:inkscape="http://www.inkscape.org/namespaces/inkscape"
   width="78.229111mm"
   height="78.229111mm"
   viewBox="0 0 78.229111 78.229111"
   version="1.1"
   id="svg7513"
   inkscape:version="1.0.1 (3bc2e813f5, 2020-09-07)"
   sodipodi:docname="hippo_002_cir2.svg">
  <defs
     id="defs7507">
    <clipPath
       clipPathUnits="userSpaceOnUse"
       id="clipPath8134">
      <circle
         r="94.69075"
         cy="-772.75208"
         cx="3832.4658"
         id="circle8136"
         style="opacity:1;fill:#81d8d0;fill-opacity:1;fill-rule:evenodd;stroke:#282814;stroke-width:2.82659;stroke-linecap:round;stroke-linejoin:round;stroke-miterlimit:4;stroke-dasharray:none;stroke-opacity:1" />
    </clipPath>
    <filter
       style="color-interpolation-filters:sRGB"
       inkscape:label="Emergence"
       id="filter8142"
       inkscape:menu="Shadows and Glows"
       inkscape:menu-tooltip="Cut out, add inner shadow and colorize some parts of an image">
      <feTurbulence
         type="fractalNoise"
         numOctaves="5"
         seed="1"
         baseFrequency="0.013 0.013"
         result="turbulence"
         id="feTurbulence8138" />
      <feDisplacementMap
         in="SourceGraphic"
         in2="turbulence"
         scale="6.6"
         yChannelSelector="G"
         xChannelSelector="R"
         id="feDisplacementMap8140"
         result="fbSourceGraphic" />
      <feColorMatrix
         result="fbSourceGraphicAlpha"
         in="fbSourceGraphic"
         values="0 0 0 -1 0 0 0 0 -1 0 0 0 0 -1 0 0 0 0 1 0"
         id="feColorMatrix8144" />
      <feColorMatrix
         id="feColorMatrix8146"
         values="0 0 0 0 0 0 0 0 0 0 0 0 0 0 0 0.21 0.72 0.07 0 0 "
         result="result1"
         in="fbSourceGraphic" />
      <feColorMatrix
         id="feColorMatrix8148"
         values="1 0 0 0 0 0 1 0 0 0 0 0 1 0 0 0 0 0 2 0 "
         result="result9" />
      <feComposite
         in2="result9"
         id="feComposite8150"
         in="fbSourceGraphic"
         operator="in"
         result="result4" />
      <feFlood
         id="feFlood8152"
         result="result2"
         flood-color="rgb(0,0,0)" />
      <feComposite
         in2="result9"
         id="feComposite8154"
         operator="in"
         result="result10" />
      <feComposite
         in2="result4"
         id="feComposite8156"
         operator="atop" />
      <feGaussianBlur
         id="feGaussianBlur8158"
         stdDeviation="3"
         result="result8" />
      <feOffset
         id="feOffset8160"
         dx="3"
         dy="3"
         result="result3"
         in="result8" />
      <feFlood
         id="feFlood8162"
         flood-opacity="1"
         flood-color="rgb(219,173,62)"
         result="result5" />
      <feMerge
         id="feMerge8164"
         result="result6">
        <feMergeNode
           id="feMergeNode8166"
           in="result5" />
        <feMergeNode
           id="feMergeNode8168"
           in="result3" />
        <feMergeNode
           id="feMergeNode8170"
           in="result4" />
      </feMerge>
      <feComposite
         in2="fbSourceGraphic"
         id="feComposite8172"
         operator="in"
         result="result7" />
    </filter>
    <radialGradient
       inkscape:collect="always"
       xlink:href="#linearGradient2648"
       id="radialGradient10237"
       gradientUnits="userSpaceOnUse"
       gradientTransform="matrix(1.2350089,0.02690179,-0.01081704,0.49658955,-1047.4138,-356.66374)"
       cx="4656.7329"
       cy="-257.60577"
       fx="4656.7329"
       fy="-257.60577"
       r="115.359" />
    <linearGradient
       id="linearGradient2648"
       inkscape:collect="always">
      <stop
         id="stop2644"
         offset="0"
         style="stop-color:#c07e30;stop-opacity:1" />
      <stop
         id="stop2646"
         offset="1"
         style="stop-color:#92540a;stop-opacity:1" />
    </linearGradient>
  </defs>
  <sodipodi:namedview
     id="base"
     pagecolor="#ffffff"
     bordercolor="#666666"
     borderopacity="1.0"
     inkscape:pageopacity="0.0"
     inkscape:pageshadow="2"
     inkscape:zoom="0.35"
     inkscape:cx="142.81084"
     inkscape:cy="431.70427"
     inkscape:document-units="mm"
     inkscape:current-layer="layer1"
     inkscape:document-rotation="0"
     showgrid="false"
     inkscape:window-width="1920"
     inkscape:window-height="1017"
     inkscape:window-x="-8"
     inkscape:window-y="-8"
     inkscape:window-maximized="1"
     fit-margin-top="0"
     fit-margin-left="0"
     fit-margin-right="0"
     fit-margin-bottom="0" />
  <metadata
     id="metadata7510">
    <rdf:RDF>
      <cc:Work
         rdf:about="">
        <dc:format>image/svg+xml</dc:format>
        <dc:type
           rdf:resource="http://purl.org/dc/dcmitype/StillImage" />
        <dc:title></dc:title>
      </cc:Work>
    </rdf:RDF>
  </metadata>
  <g
     inkscape:label="レイヤー 1"
     inkscape:groupmode="layer"
     id="layer1"
     transform="translate(-61.049131,-42.906273)">
    <g
       id="g7707"
       transform="matrix(2.6890056,0,0,2.6890056,-103.11233,-204.59836)">
      <circle
         r="14.332191"
         cy="106.58929"
         cx="75.595238"
         id="circle10183"
         style="opacity:1;fill:#c07e30;fill-opacity:1;fill-rule:evenodd;stroke:#282814;stroke-width:0.427826;stroke-linecap:round;stroke-linejoin:round;stroke-miterlimit:4;stroke-dasharray:none;stroke-opacity:1" />
      <g
         style="filter:url(#filter8142)"
         clip-path="url(#clipPath8134)"
         transform="matrix(0.15135788,0,0,0.15135788,-504.47872,223.5514)"
         id="g10235">
        <g
           id="g10221"
           transform="matrix(0.29007035,0,0,0.29007035,2467.24,-665.96659)">
          <path
             style="fill:#2d2d2d;fill-opacity:1;stroke-width:3.85565"
             d="m 4593.8038,351.65715 c -23.228,-7.14337 -25.1188,-14.01997 -14.7459,-53.62254 9.8685,-37.67636 9.9005,-43.18682 0.2699,-46.24382 -14.3917,-4.56775 -45.0082,-31.91725 -51.8351,-46.30423 -8.5167,-17.94734 -6.0707,-41.75765 9.7641,-95.06071 6.1582,-20.728418 11.1964,-41.895029 11.1964,-47.036851 0,-8.531366 4.8061,-36.053597 15.7635,-90.273143 2.5393,-12.563377 9.1545,-26.945349 17.3072,-37.625972 7.2583,-9.509004 13.1972,-17.914599 13.1972,-18.679097 0,-0.764499 -6.385,-2.426132 -14.1888,-3.692521 -23.2928,-3.779928 -50.1763,-24.711966 -61.6369,-47.992126 -8.4435,-17.15172 -10.551,-28.40468 -13.3456,-71.25668 -1.8252,-27.98861 -2.441,-53.65342 -1.3683,-57.0329 1.2241,-3.85642 -1.6129,-8.05145 -7.6184,-11.26548 -16.4124,-8.78368 -28.4004,-30.64304 -32.9501,-60.08215 -5.3431,-34.57441 -1.5064,-52.02572 17.1454,-77.98772 13.1859,-18.35414 14.5242,-22.54134 15.0578,-47.1128 0.5579,-25.6807 0.1658,-26.96822 -8.2133,-26.9664 -4.8396,10e-4 -14.626,-2.43277 -21.7478,-5.40848 -17.1056,-7.14711 -23.2072,-25.0001 -19.4899,-57.02685 2.3423,-20.18234 4.9009,-25.87915 18.0124,-40.10331 20.9088,-22.68354 41.6284,-30.06291 77.8777,-27.73656 19.8192,1.2719 32.9122,4.39124 42.7194,10.1778 13.415,7.91493 15.1686,8.05496 34.1141,2.72402 27.773,-7.81475 147.1194,-7.81475 174.8924,0 18.9456,5.33094 20.6991,5.19091 34.1141,-2.72402 9.8072,-5.78656 22.9002,-8.9059 42.7195,-10.1778 36.2493,-2.32635 56.9688,5.05302 77.8776,27.73656 13.1115,14.22416 15.6702,19.92097 18.0125,40.10331 3.7172,32.02675 -2.3844,49.87974 -19.49,57.02685 -7.1218,2.97571 -16.9082,5.40952 -21.7478,5.40848 -8.3787,-0.002 -8.7712,1.2857 -8.2133,26.9664 0.5336,24.57146 1.8719,28.75866 15.0579,47.1128 18.6563,25.96817 22.4904,43.41578 17.1372,77.98772 -4.5258,29.22959 -13.9197,46.68745 -31.4675,58.48078 -6.4648,4.34474 -10.1076,9.66874 -9.0015,13.15499 1.0226,3.22101 0.3663,28.75615 -1.4597,56.74476 -2.7946,42.852 -4.9021,54.10496 -13.3456,71.25668 -11.4605,23.28016 -38.3441,44.212198 -61.6368,47.992126 -7.8039,1.266389 -14.1888,3.147755 -14.1888,4.1808 0,1.033046 5.1588,7.753912 11.4644,14.935298 6.3051,7.181385 13.8969,22.158323 16.8704,33.282076 6.6618,24.9226345 17.933,87.170653 17.933,99.040899 0,4.811932 4.4425,23.313979 9.8724,41.115681 8.6525,28.36651 10.9709,32.36671 18.7585,32.36671 20.77,0 41.2968,32.1408 35.4373,55.48755 -3.0486,12.14655 -22.7294,23.1598 -35.6096,19.92702 -7.2741,-1.82569 -11.7177,0.46449 -20.6582,10.64689 -6.2647,7.13512 -19.2579,17.14663 -28.8735,22.24781 -9.616,5.10122 -17.4834,11.98746 -17.4834,15.30278 0,3.31528 3.5776,19.68758 7.9507,36.38283 10.5495,40.27674 8.6826,46.40711 -16.4008,53.85604 -22.2537,6.60863 -78.299,7.93046 -93.3662,2.20204 -5.5637,-2.11533 -10.8405,-7.93501 -12.2359,-13.49479 -1.3495,-5.37651 -3.8121,-9.77551 -5.4731,-9.77551 -1.661,0 -4.1236,4.399 -5.4731,9.77551 -1.3953,5.55978 -6.6722,11.37946 -12.2359,13.49479 -14.5377,5.52719 -74.0929,4.00074 -95.021,-2.43554 z m 18.4898,-25.65432 c 1.998,-9.01259 5.3675,-16.38653 7.4881,-16.38653 2.1206,0 4.3892,7.37394 5.0412,16.38653 1.0391,14.36053 2.3211,16.38652 10.3702,16.38652 7.8304,0 9.3611,-2.13217 10.3813,-14.4587 0.6582,-7.95228 2.9319,-14.4587 5.0525,-14.4587 2.1206,0 5.4631,6.50642 7.4275,14.4587 3.2041,12.97092 4.8477,14.4587 15.974,14.4587 18.0217,0 22.7333,-16.51958 10.6936,-37.49684 -8.7126,-15.18117 -4.5955,-29.6135 10.1959,-35.74025 25.7357,-10.66007 47.0058,12.08161 33.4274,35.74025 -12.0393,20.97726 -7.3277,37.49684 10.694,37.49684 10.9863,0 12.8101,-1.5733 15.974,-13.78041 4.5396,-17.51427 10.9273,-17.40932 12.48,0.20512 1.0044,11.39592 2.6712,13.57533 10.3813,13.57533 7.955,0 9.3434,-2.07391 10.3702,-15.49066 1.5912,-20.78791 8.0437,-21.13442 12.5752,-0.67528 3.3822,15.27012 4.4687,16.41216 13.4948,14.18583 5.3991,-1.33166 11.0329,-3.60152 12.5193,-5.04416 2.4121,-2.34053 -2.5659,-28.94292 -12.2783,-65.61654 -4.4749,-16.89652 -2.8293,-20.16372 15.4164,-30.60795 42.8394,-24.52219 53.3711,-43.80832 44.9303,-82.27872 -10.2244,-46.59997 -23.7874,-95.834923 -26.4135,-95.885008 -5.4272,-0.103717 -7.0805,14.848854 -2.704,24.454327 4.9977,10.968678 -0.293,21.763311 -10.6663,21.763311 -4.3507,0 -4.9229,4.83946 -2.9037,24.5496 4.3546,42.50195 -16.4247,85.95794 -49.4803,103.47941 -15.0274,7.9654 -21.5674,8.7132 -76.2008,8.7132 -54.3482,0 -61.227,-0.77672 -75.926,-8.57289 -16.5573,-8.78198 -29.5462,-23.35805 -42.0609,-47.2006 -5.3239,-10.14249 -7.0693,-21.87559 -7.0265,-47.23175 0.039,-23.27435 -1.346,-33.73697 -4.4668,-33.73697 -9.5705,0 -14.5917,-11.183283 -9.771,-21.763311 4.7147,-10.347957 2.596,-24.504527 -3.6679,-24.504527 -1.9775,0 -3.6066,3.036327 -3.6197,6.747393 0,3.711066 -5.3088,24.965355 -11.7682,47.231755 -20.9065,72.06914 -17.6523,88.06867 23.7038,116.53346 29.0523,19.99622 31.3218,22.27985 28.7651,28.94257 -1.2411,3.23478 -4.9175,18.76103 -8.169,34.50278 -3.2515,15.74178 -6.8719,31.12395 -8.046,34.1826 -1.3251,3.45343 1.3067,6.93929 6.9445,9.19724 15.0274,6.01898 17.0844,4.81047 20.8683,-12.26163 z m 102.7709,-22.2553 c 3.632,-6.38191 5.615,-14.17862 4.4074,-17.32603 -2.6662,-6.9475 -23.1891,-7.67352 -25.5264,-0.90303 -1.7358,5.02816 8.5422,29.89943 12.3385,29.85694 1.1976,-0.0116 5.1492,-5.24596 8.7805,-11.62788 z m 60.8711,-80.91813 c 25.8684,-13.14257 42.4122,-42.22353 42.4122,-74.55349 0,-17.59446 -1.4139,-21.84266 -8.9023,-26.74933 -4.9538,-3.24588 -13.3533,-4.98227 -18.9371,-3.91487 -7.5455,1.44244 -11.1493,-0.16464 -14.5284,-6.47858 -2.4715,-4.61826 -3.666,-10.55458 -2.6539,-13.191848 1.0121,-2.637229 -1.5665,-6.922517 -5.7303,-9.522847 -9.8523,-6.152813 -7.8705,-20.516972 3.5203,-25.514323 11.7535,-5.156628 10.9115,-12.93028 -3.2646,-30.128268 -24.3739,-29.5696218 -63.0523,-38.7907252 -94.7917,-22.598678 -17.0362,8.691375 -39.7834,33.278876 -39.7834,43.00241 0,3.255174 3.9039,7.631225 8.6753,9.724536 11.3907,4.997351 13.3725,19.36151 3.5202,25.514323 -4.1637,2.60033 -6.7424,6.885618 -5.7303,9.522847 1.0121,2.637268 -0.1812,8.573588 -2.6538,13.191848 -3.3791,6.31406 -6.983,7.92102 -14.5285,6.47858 -5.5838,-1.0674 -13.9833,0.66899 -18.9371,3.91487 -7.4884,4.90667 -8.9023,9.15487 -8.9023,26.74933 0,31.10417 16.2427,60.78472 40.4751,73.96061 22.7507,12.37013 116.7797,12.76622 140.7406,0.59288 z m 141.3648,-32.99919 c 5.2248,-13.61485 -10.6246,-40.22352 -23.959,-40.22352 -5.0439,0 -5.5583,3.75436 -3.3008,24.09783 1.4709,13.25381 4.4999,25.27805 6.7312,26.72053 5.0837,3.2864 17.7009,-3.22529 20.5286,-10.59484 z m -312.6375,-85.52745 c 4.2127,-5.673437 6.2666,-5.98027 12.9037,-1.92782 11.1016,6.77808 11.9429,6.22661 9.4575,-6.20028 -1.7898,-8.947815 -0.684,-11.417361 5.8799,-13.13382 11.2573,-2.943869 10.1361,-10.547217 -1.5554,-10.547217 -8.4751,0 -9.6391,-1.65608 -9.6391,-13.715253 0,-7.543393 -1.8966,-21.2465 -4.2142,-30.45141 -6.3002,-25.0197583 -2.5135,-34.9170661 5.9666,-15.595963 3.723,8.482437 7.1684,15.85969 7.6565,16.393852 0.4882,0.534201 8.1455,-5.933002 17.0162,-14.371562 10.6882,-10.1673964 23.2581,-17.4153306 37.2641,-21.4870162 19.3384,-5.6218508 22.9319,-5.6218508 42.2703,0 14.0061,4.0716856 26.5759,11.3196198 37.2641,21.4870162 8.8707,8.43856 16.5281,14.905763 17.0162,14.371562 0.4877,-0.534162 3.9331,-7.911415 7.6565,-16.393852 8.4802,-19.3211031 12.2668,-9.4237953 5.9667,15.595963 -2.3177,9.20491 -4.2143,22.908017 -4.2143,30.45141 0,12.059173 -1.164,13.715253 -9.6391,13.715253 -11.6915,0 -12.8127,7.603348 -1.5554,10.547217 6.5639,1.716459 7.6697,4.186005 5.8799,13.13382 -2.4854,12.42689 -1.6441,12.97836 9.4575,6.20028 6.6372,-4.05245 8.6911,-3.745617 12.9034,1.92782 6.4509,8.6881 8.585,8.5021 11.0603,-0.96391 1.2461,-4.764277 5.2595,-7.711307 10.5016,-7.711307 6.6638,0 7.8347,-1.447952 5.4562,-6.747394 -4.3396,-9.668243 -3.3471,-22.63041 3.8537,-50.347892 7.709,-29.6724133 3.3297,-61.717905 -12.3963,-90.707559 -9.4768,-17.470004 -10.8467,-18.472474 -21.8523,-15.990397 -6.4579,1.456435 -18.6818,4.129289 -27.1643,5.939672 -8.4824,1.810384 -40.5807,3.29161 -71.3295,3.29161 -30.7489,0 -62.8472,-1.481226 -71.3296,-3.29161 -8.4825,-1.810383 -20.7064,-4.483237 -27.1643,-5.939672 -11.0117,-2.483465 -12.3774,-1.480417 -21.9652,16.136063 -15.0776,27.701905 -19.6816,62.768764 -12.047,91.750206 6.9745,26.475769 7.9357,39.538529 3.6174,49.159579 -2.3786,5.299442 -1.2076,6.747394 5.4561,6.747394 5.2421,0 9.2555,2.94703 10.5012,7.711307 2.4758,9.46601 4.6099,9.65201 11.0604,0.96391 z m 168.2248,-176.355189 c 12.1079,-1.55005 25.1208,-5.174556 28.9174,-8.054382 5.8722,-4.453974 -8.3297,-5.254408 -95.0785,-5.358742 -80.2403,-0.09639 -100.9791,0.880092 -97.2789,4.580632 11.0573,11.057088 105.9904,16.187421 163.44,8.832492 z m 60.6421,-28.889371 c 45.7265,-13.11419 59.0794,-39.5447 63.8281,-126.34162 l 2.3727,-43.3761 -22.377,-0.13533 c -12.3073,-0.0744 -33.6549,-2.61622 -47.4388,-5.64815 -13.784,-3.03193 -32.78,-5.57354 -42.2133,-5.64803 -9.4332,-0.0744 -31.555,-4.52885 -49.1595,-9.8985 l -32.0081,-9.7631 -32.0081,9.7631 c -17.6046,5.36965 -39.7264,9.82401 -49.1596,9.8985 -9.4333,0.0744 -28.4293,2.6161 -42.2132,5.64803 -13.784,3.03193 -35.1844,5.57354 -47.5568,5.64803 l -22.4951,0.13533 2.4646,43.3761 c 4.3457,76.48302 12.8763,99.46175 43.6097,117.4727 15.0428,8.81572 23.9968,10.807433 58.4633,13.004307 51.5825,3.28787 199.9148,0.446601 215.8911,-4.135377 z m -152.3307,-55.89841 c -5.9627,-5.96277 -9.1332,-12.47354 -7.7849,-15.98697 1.2508,-3.26003 2.2744,-8.38801 2.2744,-11.3955 0,-16.5758 35.2261,-28.41192 45.9829,-15.45052 5.3019,6.38843 0,11.11372 -8.7049,7.77018 -3.2067,-1.23049 -9.54,-0.25178 -14.0739,2.17466 -11.7736,6.30107 -9.2983,23.98884 3.7855,27.04849 13.0082,3.04196 12.3952,13.15595 -0.8903,14.68634 -7.2945,0.84026 -13.6197,-1.87751 -20.5888,-8.84668 z m -141.1462,-5.35253 c -11.0912,-9.90988 -12.5447,-13.69953 -13.9956,-36.48528 -1.5253,-23.95213 -0.967,-26.07883 9.6241,-36.66996 14.8396,-14.83983 51.38,-20.19171 70.4678,-10.32105 15.6443,8.09005 24.4765,28.10301 20.9651,47.50612 -6.0707,33.54704 -21.9166,47.02864 -55.2761,47.02864 -15.9197,0 -21.6337,-1.98793 -31.7853,-11.05847 z m 60.6255,-17.68369 c 6.5342,-6.53402 9.4641,-13.75007 9.4641,-23.30916 0,-29.21937 -35.28,-44.11129 -55.8267,-23.56471 -11.4957,11.49567 -16.4888,34.68634 -9.3265,43.31653 12.8521,15.48569 41.9052,17.34157 55.6891,3.55734 z m 209.0428,22.70656 c -30.7122,-16.66413 -32.5005,-73.14174 -2.8027,-88.49916 19.0878,-9.87066 55.6282,-4.51878 70.4678,10.32105 10.5911,10.59113 11.1494,12.71783 9.6241,36.66996 -1.4508,22.78575 -2.9044,26.5754 -13.9956,36.48528 -10.359,9.25599 -15.6659,11.03329 -32.5579,10.90409 -11.0997,-0.0848 -24.9307,-2.73146 -30.7357,-5.88122 z m 44.7699,-16.91375 c 14.7282,-5.59972 19.6041,-17.63475 14.3072,-35.31454 -5.2823,-17.63087 -16.7579,-26.56048 -34.1334,-26.56048 -17.7236,0 -31.7397,14.47242 -31.7397,32.77305 0,25.80504 24.2463,39.48883 51.5659,29.10197 z m -279.1042,-116.2026 19.6029,-4.20409 -17.1226,-11.34152 c -24.4151,-16.17184 -30.6913,-27.30134 -28.4647,-50.4739 1.0055,-10.46698 5.2317,-23.67297 9.3916,-29.34668 21.5138,-29.34341 82.0159,-53.95166 120.1549,-48.87099 26.8885,3.58198 28.2812,3.58198 55.1697,0 38.139,-5.08067 98.6412,19.52758 120.1549,48.87099 4.1599,5.67371 8.3861,18.8797 9.3916,29.34668 2.2267,23.17256 -4.05,34.30206 -28.4647,50.4739 l -17.1226,11.34152 19.6029,4.20409 c 10.7816,2.31223 31.5088,4.20409 46.06,4.20409 24.8108,0 27.0783,-0.73828 36.4402,-11.86412 12.6712,-15.05879 15.7611,-26.33866 15.7631,-57.53764 0,-21.39017 -1.6649,-27.51923 -11.3711,-41.83608 -6.2543,-9.22588 -15.4334,-18.31848 -20.3972,-20.20574 -7.4908,-2.84802 -8.3432,-4.70556 -5.0143,-10.92569 5.3763,-10.04614 5.0976,-49.93368 -0.463,-66.22458 -13.8738,-40.647 -45.6934,-71.59089 -93.3635,-90.79416 -25.6806,-10.34507 -28.7632,-10.67827 -98.8011,-10.67827 -70.038,0 -73.1206,0.33313 -98.8012,10.67827 -47.6701,19.20327 -79.4896,50.14716 -93.3634,90.79416 -5.5607,16.2909 -5.8394,56.17844 -0.4631,66.22458 3.329,6.22013 2.4765,8.07767 -5.0143,10.92569 -4.9641,1.88726 -14.1429,10.97986 -20.3975,20.20574 -9.7059,14.31685 -11.3719,20.44591 -11.3708,41.83608 0,31.19898 3.0919,42.47885 15.7631,57.53764 9.3619,11.12584 11.6294,11.86412 36.4402,11.86412 14.5512,0 35.2784,-1.89186 46.06,-4.20409 z m -12.33,-169.87735 c -13.5353,-4.94954 -26.9429,-26.83149 -26.9429,-43.97249 0,-25.34529 26.2389,-47.87233 55.8676,-47.96464 10.5337,-0.0308 36.6835,14.49576 41.1661,22.87151 5.4758,10.23194 4.7663,38.8238 -1.2319,49.63274 -11.5415,20.79917 -41.7833,29.33377 -68.8589,19.43288 z m 45.3328,-24.30943 c 19.9222,-19.92193 6.274,-44.51529 -24.7035,-44.51529 -14.4788,0 -27.5228,15.4132 -27.5228,32.52189 0,16.43542 6.0869,21.45725 26.0083,21.45725 12.6477,0 19.0739,-2.31963 26.218,-9.46385 z m 189.0119,21.23767 c -6.2188,-4.09948 -13.531,-11.46197 -16.2497,-16.36112 -5.9982,-10.80894 -6.7076,-39.4008 -1.2318,-49.63274 4.4825,-8.37575 30.6323,-22.90436 41.166,-22.87151 43.2689,0.13495 68.9144,40.32848 47.667,74.70764 -13.3714,21.63542 -49.2181,28.74822 -71.3515,14.15773 z m 54.876,-16.4006 c 7.2247,-7.22492 5.4418,-27.9981 -3.3645,-39.19326 -15.5884,-19.81774 -53.6992,-9.01027 -53.6992,15.2281 0,15.71826 16.0661,28.59194 35.6821,28.59194 9.215,0 18.8368,-2.08205 21.3816,-4.62678 z m -179.1387,172.3477 c 28.0275,-7.30029 38.5958,-7.25483 68.0573,0.29303 36.8377,9.43737 74.9261,-0.13572 97.8707,-24.59826 9.3623,-9.98182 10.6914,-13.88393 8.5738,-25.17182 -3.7978,-20.24465 -15.4511,-32.03535 -46.3507,-46.89751 -34.9596,-16.81481 -37.3617,-16.92323 -32.9342,-1.48643 5.3636,18.70273 -4.1861,33.05004 -29.4294,44.2139 -11.5751,5.1188 -26.1518,9.30708 -32.3925,9.30708 -6.2408,0 -20.8175,-4.18828 -32.3925,-9.30728 -25.2434,-11.16385 -34.7931,-25.51116 -29.4295,-44.21389 4.4275,-15.4368 2.0254,-15.32838 -32.9342,1.48643 -30.8996,14.86216 -42.5529,26.65286 -46.3507,46.89751 -2.1206,11.30381 -0.8016,15.15175 8.5738,25.01482 13.088,13.76854 26.6252,21.32905 46.6195,26.03715 21.3422,5.02553 27.9376,4.82778 52.5186,-1.57473 z m -170.9547,-200.35833 c 0,-3.1063 -3.4303,-7.48367 -7.623,-9.72746 -18.2943,-9.79093 -18.8792,-33.28285 -1.3468,-54.1188 10.6972,-12.71286 25.1212,-14.85167 47.514,-7.04547 10.6285,3.70509 14.8196,3.29068 25.6374,-2.53498 7.1122,-3.83025 12.9315,-8.46891 12.9315,-10.30805 0,-6.37124 -19.9121,-10.86438 -48.1471,-10.86438 -26.1328,0 -29.6804,0.99996 -45.0529,12.6999 -18.452,14.04375 -25.7689,29.84977 -26.1078,56.39826 -0.2815,22.06263 7.7024,31.14882 27.3697,31.14882 10.4493,0 14.825,-1.66707 14.825,-5.64784 z m 444.0606,-0.73323 c 4.963,-4.49145 6.9865,-11.62745 6.8334,-24.09783 -0.3354,-27.21 -7.5228,-42.9231 -26.1078,-57.06818 -15.3725,-11.69994 -18.9201,-12.6999 -45.0529,-12.6999 -28.2349,0 -48.1471,4.49314 -48.1471,10.86438 0,1.83914 5.8194,6.4778 12.9315,10.30805 10.8178,5.82566 15.0089,6.24007 25.6374,2.53498 22.3929,-7.8062 36.8169,-5.66739 47.514,7.04547 17.5324,20.83595 16.9475,44.32787 -1.3468,54.1188 -4.1926,2.24379 -7.623,6.62116 -7.623,9.72746 0,7.97157 26.346,7.42526 35.3613,-0.73323 z m -432.4936,-19.91448 c 0,-1.7389 6.0549,-10.23534 13.4551,-18.88098 14.5543,-17.00347 12.9939,-20.36957 -9.4425,-20.36957 -18.0688,0 -28.951,22.05603 -17.2575,34.97717 6.9906,7.72426 13.2449,9.7422 13.2449,4.27338 z m 398.8099,-4.27338 c 6.8175,-7.53306 5.7615,-19.67925 -2.6215,-30.15761 -3.954,-4.9421 -30.5341,-6.75707 -34.9079,-2.3836 -1.3395,1.33976 3.5765,9.45977 10.9246,18.04442 7.3481,8.58469 13.3602,17.03127 13.3602,18.77017 0,5.46882 6.2543,3.45088 13.2446,-4.27338 z"
             id="path10185"
             inkscape:connector-curvature="0" />
          <path
             sodipodi:nodetypes="ccccccccccccccccsccccscsccccscccccccccccscccccccccccscscsccccccsssccccccsssscsccssccscssccccsccccsscccccccscsscccccsccccccscccscscccscccccsscccccccccscsscscssccccccccscsccsscccsccsccsscsccscscscccssscsccsccsccsssssccccccccsccssssscssccccccccccccccccsccccccccccccsssscscccccccsccscccccccccscscsccccccssccccccccsscccccccccccccccccccccccccccc"
             style="fill:#010101;fill-opacity:1;stroke-width:3.85565"
             d="m 4588.8659,352.05359 c -17.4638,-7.07871 -18.7246,-13.10024 -9.9484,-47.50844 4.4849,-17.58305 8.1189,-35.38306 8.0753,-39.55557 -0.054,-5.01455 -7.3978,-12.09942 -21.6684,-20.89876 -44.426,-27.39333 -49.7279,-50.60603 -29.1707,-127.71392 6.4582,-24.224805 14.6295,-61.395539 18.1586,-82.601632 11.5303,-69.288326 19.3357,-93.289575 34.4055,-105.796582 7.9959,-6.63581 7.6986,-11.791744 -0.682,-11.838513 -11.3731,-0.06362 -44.7114,-17.633403 -55.7027,-29.355983 -19.3874,-20.67825 -23.664,-37.13703 -25.4234,-97.84291 l -1.6201,-55.90697 -13.5862,-11.29421 c -20.0266,-16.64863 -27.827,-36.98755 -27.9276,-72.81972 -0.089,-32.07861 1.9922,-38.37019 20.5248,-62.00461 10.64,-13.56924 11.801,-17.76627 11.9729,-43.28279 l 0.1889,-28.25651 -16.083,-2.41336 c -9.8539,-1.47865 -19.5605,-6.11654 -25.0618,-11.97462 -7.7599,-8.26348 -8.8907,-13.1248 -8.3313,-35.81567 0.3702,-15.02494 3.2222,-31.23341 6.6668,-37.89517 8.3252,-16.0992 32.076,-34.83644 50.5207,-39.85643 21.3487,-5.81043 65.831,-1.1988 82.3293,8.53538 11.2821,6.65651 14.9688,7.14032 25.2052,3.30757 19.0423,-7.12957 153.6362,-8.31383 180.6162,-1.58919 20.6184,5.13909 22.97,5.00395 34.8443,-2.00216 16.0164,-9.4497 60.8418,-13.96884 81.8485,-8.2516 18.3044,4.98178 42.1786,23.72519 50.3522,39.53059 3.2268,6.23999 6.2118,23.24365 6.6552,37.91121 0.7002,23.15806 -0.3547,27.83034 -8.1628,36.14155 -5.4877,5.84135 -15.2082,10.48163 -25.0502,11.95854 l -16.083,2.41336 0.1889,28.25651 c 0.1735,25.51652 1.3329,29.71355 11.9729,43.28279 18.5326,23.63442 20.6151,29.926 20.5252,62.00461 -0.1002,35.83217 -7.9014,56.17109 -27.928,72.81972 l -13.5862,11.29421 -1.6201,55.90697 c -1.7594,60.70588 -6.036,77.16466 -25.4238,97.84291 -10.9909,11.72258 -44.3292,29.292519 -55.7023,29.355983 -8.7847,0.04897 -8.561,4.912333 0.6073,13.209815 11.1332,10.07513 22.982,40.880914 27.2213,70.77105606 2.0871,14.71537094 4.6842,29.17499594 5.7715,32.13255194 1.0873,2.957517 3.5445,16.655111 5.4604,30.439072 5.4673,39.332102 19.5289,81.874022 26.2146,79.308552 11.0249,-4.23069 27.2973,8.61345 34.3678,27.12761 6.1173,16.01769 6.2419,18.99437 1.1744,28.03561 -7.6836,13.70758 -25.6116,22.22391 -34.7591,16.51133 -5.6859,-3.55094 -8.1991,-2.41129 -14.6453,6.64156 -4.2798,6.01046 -17.3817,16.74641 -29.1152,23.8577 -24.6519,14.94073 -24.7047,15.18468 -13.1027,60.6719 l 8.2314,32.27094 -8.3274,8.33831 c -7.5571,7.5671 -13.0934,8.45437 -59.8602,9.5931 -50.071,1.21923 -51.7089,1.00351 -57.7388,-7.60528 -8.1111,-11.58049 -7.8863,-30.50238 0.5418,-45.57972 6.5048,-11.63683 6.4782,-12.27181 -0.7369,-17.6629 -4.1166,-3.07566 -8.556,-5.59213 -9.8662,-5.59213 -1.3101,0 -5.7499,2.51647 -9.8662,5.59213 -7.2151,5.39109 -7.2417,6.02607 -0.7368,17.6629 8.3555,14.94798 8.6686,33.97636 0.7453,45.28881 -5.6625,8.08403 -8.6641,8.55539 -53.0153,8.32482 -25.8571,-0.13456 -50.5433,-1.67536 -54.8582,-3.42432 z m 56.0407,-19.46519 c 0,-11.13856 1.6067,-15.42261 5.7835,-15.42261 4.0492,0 5.7835,4.08329 5.7835,13.61577 0,15.16633 5.908,19.4857 21.3511,15.60977 15.3501,-3.85265 18.6463,-18.34204 8.7885,-38.6323 -7.8559,-16.16964 -7.943,-17.50559 -1.7631,-26.93725 9.3214,-14.22667 34.1726,-14.22667 43.494,0 6.1799,9.43166 6.0927,10.76761 -1.7632,26.93725 -9.8577,20.29026 -6.5615,34.77965 8.7886,38.6323 15.4431,3.87593 21.3511,-0.44344 21.3511,-15.60977 0,-9.53248 1.7343,-13.61577 5.7835,-13.61577 4.1768,0 5.7834,4.28405 5.7834,15.42261 0,12.76013 1.3079,15.42261 7.5756,15.42261 9.7259,0 15.3964,-10.67511 12.8228,-24.13886 -1.2469,-6.52218 -0.3355,-10.56202 2.3816,-10.56202 5.4511,0 12.9431,18.7645 10.2715,25.72666 -2.5841,6.73393 13.2692,6.82161 22.4287,0.12415 6.4193,-4.69407 6.4636,-6.40902 0.7368,-28.51001 -3.3513,-12.93352 -6.0935,-27.68942 -6.0935,-32.79087 0,-5.10149 -1.9309,-11.20626 -4.2909,-13.56623 -6.2111,-6.21111 -1.8403,-11.11755 25.0101,-28.07513 31.6302,-19.97614 42.9273,-39.03313 39.3091,-66.3091 -1.4081,-10.615 -6.703,-32.57484 -11.7667,-48.7997 -5.0632,-16.22486 -10.379,-36.006132 -11.8125,-43.958417 -1.4336,-7.952285 -4.0315,-14.458699 -5.7731,-14.458699 -6.0202,0 -7.763,14.574832 -2.9943,25.04108 4.2015,9.221064 3.8626,11.143532 -2.7726,15.734146 -16.2712,11.25747 -16.7574,12.28635 -12.4476,26.3291 10.2607,33.43245 -16.1139,90.43659 -49.2695,106.48679 -15.4156,7.46269 -22.1403,8.04489 -79.9546,6.92236 -59.9304,-1.1636 -63.845,-1.71311 -77.3984,-10.86473 -29.8119,-20.13014 -51.1815,-72.39413 -41.9283,-102.54442 4.3098,-14.04275 3.8236,-15.07163 -12.4476,-26.3291 -6.6352,-4.590614 -6.9741,-6.513082 -2.7726,-15.734146 4.7687,-10.466364 3.0259,-25.041196 -2.9943,-25.041196 -1.7416,0 -4.3396,6.506415 -5.7731,14.4587 -1.4335,7.952285 -6.9772,28.339052 -12.3196,45.303922 -5.342,16.96488 -10.0011,41.28468 -10.3536,54.04404 -0.7796,28.24293 6.4132,39.15925 39.6485,60.17364 26.8947,17.00513 27.9311,18.45663 23.3441,32.69606 -1.9792,6.14244 -6.3754,23.25375 -9.7695,38.02514 -5.8089,25.2779 -5.7735,27.14827 0.6007,31.80914 9.1136,6.66411 24.9465,6.54625 22.3705,-0.16656 -2.6716,-6.96216 4.8203,-25.72666 10.2715,-25.72666 2.7174,0 3.6285,4.03984 2.3816,10.56203 -2.5736,13.46378 3.0969,24.13889 12.8228,24.13889 6.2677,0 7.5755,-2.66248 7.5755,-15.42261 z m 130.7256,-106.99893 c 19.2408,-9.46466 37.48,-35.19837 42.6716,-60.20549 7.2228,-34.79141 0.5487,-45.54795 -28.8102,-46.4349 -9.7243,-0.2938 -11.7655,-2.08367 -12.8142,-11.23595 -0.6863,-5.98756 -4.5898,-14.229022 -8.6752,-18.314357 -4.0855,-4.085296 -7.428,-9.038962 -7.428,-11.008083 0,-4.363365 9.7437,-14.447672 15.9628,-16.520664 7.6219,-2.540683 0.7118,-19.400761 -14.2455,-34.757944 -8.9987,-9.239263 -21.4482,-16.722277 -34.8481,-20.9463375 -19.6434,-6.19194784 -22.0532,-6.19194784 -41.6966,0 -13.3999,4.2240605 -25.8495,11.7070745 -34.8482,20.9463375 -14.9576,15.357183 -21.8673,32.217261 -14.2454,34.757944 6.2191,2.072992 15.9627,12.157299 15.9627,16.520664 0,1.969121 -3.3424,6.922787 -7.4279,11.008083 -4.0854,4.085335 -7.9893,12.326797 -8.6752,18.314357 -1.0487,9.15228 -3.0899,10.94219 -12.8143,11.23595 -29.2736,0.88437 -36.0295,11.66007 -28.8854,46.07236 4.5543,21.93747 20.7311,47.63987 36.4784,57.95787 14.1286,9.25738 44.8289,13.01476 90.4366,11.06838 27.5618,-1.17624 44.5028,-3.83456 53.9021,-8.45822 z m 134.4566,-26.23973 c 4.7132,-3.30117 8.5627,-9.80758 8.555,-14.4587 -0.039,-12.9777 -14.1634,-33.51835 -23.0754,-33.51835 -7.0778,0 -7.6924,2.17652 -6.804,24.09784 1.2126,29.93421 5.6254,34.87534 21.3244,23.87921 z m -305.3874,-93.28097 c 3.9941,-5.40605 5.9566,-5.7893 9.8717,-1.92783 9.2732,9.14642 15.736,5.78749 12.9831,-6.747392 -2.1873,-9.958343 -1.4254,-11.56696 5.477,-11.56696 10.8316,0 10.2575,-10.712547 -0.6574,-12.262713 -7.3073,-1.037788 -9.028,-4.272102 -10.9115,-20.51034 -1.23,-10.603047 -3.592,-25.784682 -5.2487,-33.736967 -4.1757,-20.04311221 3.8834,-19.01180206 9.9614,1.274756 l 4.714,15.733456 11.8272,-13.758744 c 14.3538,-16.6975238 44.6847,-30.5535079 66.1707,-30.2286692 20.4712,0.309609 52.3856,16.5350078 63.6561,32.3631582 l 8.7901,12.344376 5.3643,-16.093497 c 6.818,-20.45397107 14.453,-21.66823196 10.2792,-1.634836 -1.6568,7.952285 -4.0187,23.13392 -5.2487,33.736967 -1.8835,16.238238 -3.6042,19.472552 -10.9115,20.51034 -10.915,1.550166 -11.4891,12.262713 -0.6574,12.262713 6.9024,0 7.6643,1.608617 5.477,11.56696 -2.753,12.534882 3.7099,15.893812 12.9831,6.747392 3.9158,-3.86225 5.9327,-3.40261 10.1539,2.31393 5.6485,7.64958 13.4917,5.61175 13.4917,-3.5054 0,-3.055763 3.4701,-5.555922 7.7113,-5.555922 8.3336,0 10.2371,-7.498861 3.5908,-14.14512 -2.9234,-2.923472 -1.6699,-12.188491 4.3156,-31.894041 11.5943,-38.17224 6.7397,-75.655861 -14.0878,-108.766785 l -8.853,-14.074599 -16.5808,6.281013 c -24.0894,9.125522 -159.4421,9.125522 -183.5314,0 l -16.5809,-6.281013 -8.8529,14.074599 c -20.7234,32.945825 -25.6748,70.61899 -14.2328,108.28984 6.1637,20.292651 7.271,29.202719 4.3156,34.725094 -5.4877,10.253647 -5.059,11.791012 3.2862,11.791012 4.0188,0 8.162,3.443402 9.2779,7.711302 2.4822,9.4917 6.1501,9.77104 12.6569,0.96392 z m 181.7378,-177.964081 c 35.6505,-9.723842 20.6142,-11.926538 -80.5785,-11.804237 -88.7086,0.107187 -100.5262,0.813196 -94.1705,5.625321 3.9975,3.026457 15.2753,6.57786 25.0617,7.891944 9.7868,1.314084 19.5289,2.904772 21.6495,3.534863 9.8697,2.932494 113.6396,-1.320715 128.0378,-5.247891 z m 60.8892,-33.132939 c 13.9641,-6.98193 26.4652,-16.60086 31.5385,-24.26629 12.1237,-18.31894 20.5129,-60.34857 20.5129,-102.7675 v -36.83148 l -20.2422,-0.0571 c -11.1332,-0.0308 -31.1653,-2.63225 -44.5159,-5.77978 -13.3505,-3.14752 -35.0386,-6.42259 -48.1956,-7.27789 -13.1571,-0.8553 -34.3323,-4.61992 -47.056,-8.3658 -28.8584,-8.49609 -36.6865,-8.49617 -65.5461,-8.1e-4 -12.7236,3.74545 -32.7229,7.4507 -44.4425,8.23394 -11.7201,0.78323 -33.9552,4.08429 -49.4118,7.33569 -15.4565,3.25147 -36.899,5.91171 -47.6497,5.91171 h -19.5466 l 2.0832,47.23176 c 3.1555,71.54099 14.1622,98.85822 46.4726,115.3419 24.3619,12.42851 46.0299,14.276331 158.7627,13.539246 l 104.1026,-0.680677 z m -162.9013,-46.35926 c -18.6186,-13.15472 -5.7106,-51.9599 17.2837,-51.9599 12.1041,0 20.3089,4.02195 20.3089,9.95526 0,3.72325 -3.1821,4.63816 -10.819,3.11078 -20.5059,-4.10118 -28.7747,24.59934 -8.4593,29.36192 5.3016,1.24283 9.6392,4.78405 9.6392,7.86935 0,7.93065 -17.6003,8.97746 -27.9535,1.66259 z m -138.3,-5.34347 c -12.9816,-7.91593 -19.2015,-23.35443 -19.2015,-43.64869 0,-29.62029 29.9873,-45.90036 52.8687,-46.64261 21.8053,-0.62261 24.0149,0.13996 34.5644,11.92657 8.9848,10.03889 11.2697,16.1742 11.2697,30.26252 0,9.71895 -2.7368,23.43787 -6.0815,30.48646 -11.1255,23.44573 -48.9688,32.52545 -73.4198,17.61575 z m 15.883,-8.0599 c -1.3105,-2.12061 -4.9854,-3.85565 -8.1663,-3.85565 -3.1809,0 -4.7112,1.73504 -3.4007,3.85565 1.3106,2.12061 4.9854,3.85566 8.1663,3.85566 3.1809,0 4.7112,-1.73505 3.4007,-3.85566 z m 38.7316,-13.31954 c 13.5676,-13.56762 13.2272,-37.13993 -0.6952,-48.09107 -13.942,-10.96706 -34.586,-8.45822 -45.1582,2.8678 -9.6306,10.31765 -15.7873,24.24362 -12.6581,36.71014 4.7968,19.11332 42.4353,24.5895 58.5115,8.51313 z m 211.1957,22.52187 c -23.6379,-11.65718 -32.8448,-55.22553 -16.154,-76.44423 11.1682,-14.19802 23.6991,-18.21453 47.1704,-15.1194 27.2483,3.59312 44.859,20.68728 44.859,43.54305 0,34.284 -18.1339,54.33784 -48.968,54.15307 -8.0579,-0.0482 -20.1662,-2.80791 -26.9074,-6.13249 z m 50.8137,-9.20233 c 1.3105,-2.12061 -0.2198,-3.85565 -3.4007,-3.85565 -3.181,0 -6.8558,1.73504 -8.1663,3.85565 -1.3105,2.12061 0.2198,3.85566 3.4007,3.85566 3.1809,0 6.8557,-1.73505 8.1663,-3.85566 z m -3.9448,-8.37232 c 27.2614,-12.42106 10.3212,-61.02944 -21.2693,-61.02944 -21.2092,0 -34.5486,12.08536 -34.5486,31.30031 0,28.28388 27.1974,42.76949 55.8179,29.72913 z m -277.5179,-116.50404 15.4226,-4.75845 -11.9587,-6.31521 c -19.0967,-10.08489 -36.2497,-32.08305 -36.1522,-46.36377 0.1273,-18.61629 12.3902,-42.00615 28.4424,-54.24997 22.3177,-17.02232 58.9433,-30.38031 83.2868,-30.37588 27.0844,0.004 65.4512,0.004 92.5356,0 24.3435,-0.004 60.9691,13.35356 83.2868,30.37588 16.0522,12.24382 28.3155,35.63368 28.4424,54.24997 0.096,14.28072 -17.0555,36.27888 -36.1522,46.36377 l -11.9587,6.31521 15.4226,4.75845 c 16.3245,5.03676 70.2481,7.00357 80.8176,2.94777 11.2604,-4.321 22.4742,-32.6031 24.2721,-61.21494 1.6371,-26.05558 1.1872,-27.75681 -13.0009,-49.15958 -8.083,-12.1935 -16.6171,-22.17 -18.9644,-22.17 -2.9164,0 -3.7299,-10.25438 -2.5686,-32.37943 1.4998,-28.57795 0.554,-34.88148 -8.0572,-53.69055 -18.7057,-40.85879 -56.724,-71.0659 -106.8386,-84.88784 -29.3114,-8.08434 -132.626,-8.08434 -161.9374,0 -50.0345,13.79977 -88.1341,44.0316 -106.7581,84.7114 -8.4388,18.43322 -9.5119,25.41924 -8.3937,54.65446 0.8459,22.1202 -0.1041,33.26859 -2.7977,32.78115 -2.244,-0.40623 -10.6265,9.13651 -18.6278,21.2061 -14.023,21.15192 -14.4872,22.91974 -12.8524,48.93429 1.7092,27.20325 12.9534,56.96955 23.0541,61.0304 9.5878,3.85481 66.8358,1.92656 82.0356,-2.76323 z m -11.567,-167.07077 c -17.0192,-4.14618 -32.7731,-26.75076 -32.7731,-47.02471 0,-16.26353 19.638,-37.64355 39.485,-42.98783 12.6655,-3.41048 18.7828,-3.01543 32.108,2.07349 20.6192,7.87459 28.654,19.88553 28.654,42.83446 0,15.69817 -1.8703,19.81007 -14.9692,32.90873 -12.5277,12.52779 -17.4009,14.89605 -29.8813,14.52174 -8.2017,-0.24599 -18.3822,-1.29265 -22.6234,-2.32588 z m 37.7819,-23.29833 c 12.0736,-10.87098 15.3428,-23.76709 8.6247,-34.02028 -7.2821,-11.11419 -29.9726,-17.94787 -43.0657,-12.96999 -12.3616,4.69996 -22.8185,28.83327 -18.1929,41.98694 5.7234,16.27364 36.8327,19.23088 52.6339,5.00333 z m 183.996,11.63386 c -14.0958,-14.09569 -15.5004,-17.30529 -15.5004,-35.41638 0,-16.48908 1.7227,-21.51261 10.0123,-29.1952 23.9074,-22.15651 56.7984,-20.45478 78.3157,4.05187 13.2114,15.04738 15.3142,30.25824 6.5303,47.2444 -9.1584,17.71013 -19.5582,24.24358 -42.3312,26.59398 -21.1402,2.18184 -21.8045,1.94352 -37.0267,-13.27867 z m 64.5044,-11.60363 c 6.1898,-8.06294 6.0703,-13.62465 -0.6374,-29.67924 -7.5081,-17.96865 -17.5953,-22.75009 -36.9819,-17.5298 -18.8661,5.08017 -28.698,18.08332 -23.6521,31.28157 3.7226,9.73714 14.0704,20.19656 23.6787,23.93373 9.4121,3.66091 32.3933,-1.23346 37.5927,-8.00626 z m -180.2518,174.48389 c 9.0156,-3.18092 22.896,-5.78348 30.8452,-5.78348 7.9492,0 21.8295,2.60256 30.8452,5.78348 30.1084,10.6229 58.6214,6.39672 89.6644,-13.29021 28.4748,-18.05822 29.4375,-40.92143 2.7903,-66.27023 -12.5486,-11.93722 -49.7718,-30.32568 -61.3874,-30.32568 -1.8391,0 -2.4013,7.0282 -1.2492,15.61825 1.7933,13.36998 0.5529,17.22802 -8.6185,26.80072 -5.9165,6.17541 -19.9665,14.09291 -31.3793,17.68257 -19.382,6.09644 -21.9491,6.09644 -41.331,0 -11.3665,-3.57508 -25.442,-11.48515 -31.279,-17.57789 -8.811,-9.19673 -10.3586,-13.74756 -9.1136,-26.80072 0.8243,-8.64761 0.2159,-15.72293 -1.3499,-15.72293 -11.1849,0 -48.6021,18.63456 -60.8919,30.32568 -25.4489,24.20899 -25.5191,47.76144 -0.1928,64.52212 31.3175,20.72502 62.2827,25.75125 92.6463,15.03832 z m -173.8056,-198.00326 c 3.0664,-5.72989 2.03,-8.10925 -5.2221,-11.99054 -20.0166,-10.71251 -19.84,-38.45583 0.3625,-57.01019 11.0233,-10.12375 23.1088,-10.94524 42.4064,-2.8823 12.9303,5.40266 14.7405,5.25156 26.8658,-2.24229 7.1507,-4.41935 13.0012,-9.67171 13.0012,-11.67183 0,-6.55061 -19.2855,-11.15707 -46.7104,-11.15707 -29.852,0 -41.8119,4.63022 -59.2013,22.91893 -9.9715,10.48734 -11.6086,15.38078 -12.6924,37.93685 -0.684,14.24302 0.3393,28.2385 2.2748,31.10101 2.8733,4.24997 17.7777,9.66682 32.3332,11.75118 1.516,0.21708 4.4775,-2.8221 6.582,-6.75375 z m 436.8953,1.6646 c 12.7772,-2.84154 16.1436,-13.40776 13.6918,-42.97523 -1.8785,-22.65177 -13.1385,-38.96727 -34.6477,-50.20434 -13.0567,-6.821 -62.3995,-6.92557 -78.2555,-0.1658 l -11.5538,4.92564 15.7164,10.40078 c 15.1365,10.01687 16.2346,10.18444 29.7444,4.53961 19.4591,-8.1305 31.5212,-7.33315 42.5699,2.81405 20.2029,18.55436 20.3795,46.29768 0.3625,57.01019 -7.3505,3.9338 -8.3117,6.21789 -5.1231,12.17584 2.2764,4.25348 6.6603,6.59668 10.4377,5.57894 3.5819,-0.96511 11.2573,-2.80996 17.0566,-4.09964 z m -412.5773,-40.82601 c 15.1238,-19.86055 15.0726,-20.51551 -1.9282,-24.58056 -20.7021,-4.95016 -40.6725,29.47358 -23.0525,39.73633 9.4671,5.51412 9.0465,5.76932 24.9807,-15.15577 z m 384.9357,15.32896 c 18.4987,-9.9002 -1.1393,-44.97939 -22.3419,-39.90952 -5.8764,1.40512 -11.9495,3.26235 -13.4952,4.12709 -2.3493,1.31416 23.4508,38.88473 27.1619,39.55415 0.6697,0.12068 4.5736,-1.5765 8.6752,-3.77172 z"
             id="path10187"
             inkscape:connector-curvature="0" />
          <path
             inkscape:export-ydpi="300"
             inkscape:export-xdpi="300"
             inkscape:export-filename="G:\41_web\myWeb\images\hippo_002.png"
             inkscape:connector-curvature="0"
             id="path10189"
             d="m 4502.882,-289.88474 c -7.1611,-3.96821 -17.2861,-18.00602 -20.816,-28.861 -2.3962,-7.36776 -3.1485,-13.63401 -3.6435,-30.34421 -0.758,-25.59599 0.293,-30.50339 9.5956,-44.73337 8.5761,-13.1211 15.9917,-20.93185 22.4241,-23.61955 6.2025,-2.59157 6.9494,-4.69633 4.0064,-11.29401 -3.4813,-7.80485 -4.3238,-42.89504 -1.3665,-56.91434 10.7936,-51.16786 68.6452,-98.75237 129.8079,-106.77007 33.6302,-4.40853 104.1729,-3.98904 134.0677,0.79725 12.4148,1.98766 31.4389,8.56443 46.0812,15.9306 41.5034,20.87916 72.7307,59.08869 77.8676,95.27827 2.2088,15.56042 1.0603,42.90143 -2.1353,50.82626 -2.9156,7.23094 -2.2359,9.13875 4.4741,12.56192 8.3718,4.27109 19.9846,18.029 28.0457,33.22674 3.1029,5.85062 3.2865,7.54209 3.2854,30.29441 0,26.74883 -1.6464,35.30565 -9.0003,46.81866 -5.0331,7.8805 -13.3799,16.46338 -17.5529,18.04997 -4.4667,1.69822 -42.5213,1.53645 -56.7552,-0.24136 -6.4378,-0.80399 -16.2396,-2.50633 -21.7821,-3.78291 l -10.0776,-2.32109 8.9318,-5.13377 c 13.822,-7.94499 27.697,-20.62199 31.8406,-29.09141 6.2732,-12.82189 5.9548,-29.03256 -0.9327,-47.46814 -9.4718,-25.35284 -57.4673,-52.77953 -101.7934,-58.16908 -9.9569,-1.21063 -16.1073,-1.07634 -31.4949,0.68746 -17.4522,2.00054 -20.8421,2.00205 -38.8229,0.0154 -21.1244,-2.33163 -29.5347,-1.94942 -47.2414,2.14698 -30.0395,6.94966 -57.3576,20.92379 -74.5881,38.15424 -8.5718,8.57173 -12.0848,15.37703 -14.9727,29.00469 -3.9316,18.55113 -1.649,32.59268 6.9271,42.61156 5.7576,6.72661 19.3635,17.62207 28.6938,22.97777 3.6572,2.09913 6.3761,4.08938 6.043,4.42281 -0.3355,0.33352 -6.734,1.87555 -14.2228,3.42695 -10.0994,2.09223 -20.9072,2.99642 -41.8449,3.50086 -26.0963,0.62873 -28.5932,0.47833 -33.0488,-1.99053 z m 103.665,-166.05709 c 8.0124,-3.4603 22.0995,-16.44116 26.3638,-24.29401 4.8847,-8.99532 6.1617,-22.93567 3.538,-38.62474 -1.51,-9.02748 -2.3258,-10.8057 -7.0173,-15.29415 -6.3241,-6.04994 -19.7661,-13.66681 -29.8744,-16.92832 -19.3161,-6.23244 -49.5128,8.50864 -59.6631,29.12565 -4.8373,9.82528 -4.685,27.05778 0.3315,37.63476 7.3257,15.44258 18.617,25.65764 31.4047,28.41104 10.7855,2.32218 29.5062,2.30599 34.9156,-0.0309 z m 231.1491,-0.0733 c 12.3971,-2.6277 18.9089,-6.21411 26.3904,-14.5353 10.7781,-11.98808 15.12,-28.66428 11.2943,-43.37808 -5.7198,-21.99623 -26.7566,-37.79081 -51.0623,-38.33752 -8.8945,-0.20006 -10.7399,0.28101 -21.3436,5.56298 -23.8655,11.8881 -26.6257,16.13042 -26.7005,41.03671 -0.065,21.21184 1.2322,24.87806 12.8301,36.28613 13.9138,13.68602 17.0697,15.35537 28.9771,15.32815 5.7562,-0.0154 14.5825,-0.89651 19.6145,-1.96303 z"
             style="opacity:1;fill:#c07e30;fill-opacity:1;stroke:#c07e30;stroke-width:5.20448;stroke-linecap:round;stroke-linejoin:round;stroke-miterlimit:4;stroke-dasharray:none;stroke-opacity:1" />
          <path
             inkscape:export-ydpi="300"
             inkscape:export-xdpi="300"
             inkscape:export-filename="G:\41_web\myWeb\images\hippo_002.png"
             inkscape:connector-curvature="0"
             id="path10191"
             d="m 4475.4559,-504.01454 c -5.1268,-1.65828 -9.4574,-5.26015 -11.7397,-9.76383 -2.7441,-5.41541 -3.3841,-12.10675 -2.5331,-26.49195 0.6728,-11.37458 0.9485,-13.09416 3.1115,-19.41217 3.0039,-8.77313 5.8263,-13.52259 11.8249,-19.89912 8.9748,-9.54029 18.6367,-15.47469 29.4417,-18.08371 21.3967,-5.16654 65.2397,-1.7559 71.8899,5.59247 1.154,1.27536 1.1146,1.41888 -0.9893,3.58949 -3.1286,3.22797 -12.1415,8.4959 -18.0519,10.55139 -5.9777,2.07878 -8.2576,1.93026 -18.3683,-1.19645 -17.0913,-5.28536 -27.8852,-5.47964 -37.2907,-0.67117 -9.2983,4.75344 -19.2822,19.39926 -21.8889,32.11064 -2.6832,13.08196 2.0238,23.52137 14.2304,31.56334 3.1227,2.05702 5.0055,3.85284 5.804,5.53572 1.4828,3.12508 1.25,4.32469 -1.1938,6.15022 -1.7127,1.27934 -3.0094,1.46881 -11.0163,1.60966 -7.4315,0.13071 -9.8277,-0.0836 -13.2304,-1.18453 z"
             style="opacity:1;fill:#c07e30;fill-opacity:1;stroke:#c07e30;stroke-width:2.60224;stroke-linecap:round;stroke-linejoin:round;stroke-miterlimit:4;stroke-dasharray:none;stroke-opacity:1" />
          <path
             inkscape:export-ydpi="300"
             inkscape:export-xdpi="300"
             inkscape:export-filename="G:\41_web\myWeb\images\hippo_002.png"
             inkscape:connector-curvature="0"
             id="path10193"
             d="m 4920.2573,-502.67767 c -4.7807,-0.49464 -8.3198,-2.1119 -8.9471,-4.08858 -0.7541,-2.3762 2.2332,-6.59258 6.5654,-9.26671 5.4939,-3.39097 11.2084,-9.76765 13.1246,-14.64539 2.3613,-6.01075 2.2302,-15.18981 -0.3238,-22.57251 -4.0222,-11.63245 -12.8274,-22.66418 -21.5177,-26.95925 -4.5434,-2.24543 -5.8009,-2.54651 -11.8491,-2.83779 -7.5976,-0.36582 -14.2425,0.71581 -24.544,3.99528 -9.1641,2.91725 -12.2328,3.15943 -17.5089,1.3817 -5.7862,-1.94956 -14.3881,-6.95238 -18.4821,-10.74894 -3.1497,-2.92098 -3.2213,-3.07126 -1.9348,-4.07041 1.8935,-1.47063 8.0977,-3.69568 13.4351,-4.81842 15.7191,-3.30661 46.6588,-3.24829 61.6538,0.11624 14.1113,3.16627 29.2135,16.06057 36.2435,30.94464 7.974,16.88257 8.8707,46.24545 1.6996,55.64712 -4.2204,5.53336 -16.5426,9.06869 -27.6158,7.92306 z"
             style="opacity:1;fill:#c07e30;fill-opacity:1;stroke:#c07e30;stroke-width:2.60224;stroke-linecap:round;stroke-linejoin:round;stroke-miterlimit:4;stroke-dasharray:none;stroke-opacity:1" />
          <path
             inkscape:export-ydpi="300"
             inkscape:export-xdpi="300"
             inkscape:export-filename="G:\41_web\myWeb\images\hippo_002.png"
             inkscape:connector-curvature="0"
             id="path10195"
             d="m 4594.3362,102.19414 c -1.737,-3.811781 -5.4566,-6.930461 -8.2661,-6.930461 -7.3872,0 -8.7948,-2.462958 -5.5179,-9.654786 2.1785,-4.781397 1.452,-13.392612 -2.9391,-34.83922 -3.2084,-15.668415 -5.8329,-34.734042 -5.8322,-42.3680818 0,-18.5335852 6.776,-43.6097132 16.3391,-60.4789682 8.806,-15.534119 10.6,-15.961248 40.1197,-9.552767 22.3122,4.84378 134.3391,4.890781 156.9802,0.06593 32.7314,-6.975262 30.1485,-7.370736 37.829,5.791924 18.5079,31.718455 21.8669,58.1590599 13.0409,102.647206 -4.9089,24.746322 -5.6461,33.327037 -3.3035,38.468129 3.3942,7.449464 2.0497,9.92071 -5.3967,9.92071 -2.8097,0 -6.5292,3.11868 -8.2661,6.930465 l -3.1578,6.93041 -6.5932,-6.1941 c -6.3758,-5.989754 -6.8631,-6.039376 -14.7652,-1.50413 l -8.1721,4.69001 0.6046,-8.973254 c 0.6975,-10.356018 -1.8365,-15.649596 -7.4903,-15.649596 -6.6835,0 -4.4106,-4.901813 3.4943,-7.536799 6.8965,-2.29886 7.7297,-4.250278 10.972,-25.704335 1.9298,-12.769152 4.3395,-28.650819 5.3551,-35.292568 2.3627,-15.4506048 -3.0633,-14.6276924 -12.2401,1.856497 l -6.3507,11.408262 -15.6435,-12.741777 c -22.1033,-18.0034732 -36.7652,-24.053225 -58.407,-24.100031 -21.5801,-0.04666 -41.6075,8.366073 -61.0111,25.628488 -7.0489,6.270835 -13.4593,11.401514 -14.2454,11.401514 -0.7858,0 -2.8282,-4.238481 -4.5378,-9.418859 -3.2603,-9.8794569 -10.0004,-17.37376671 -12.9619,-14.4123948 -0.957,0.9569736 0.6222,16.7956898 3.509,35.1970638 5.0305,32.061768 5.5653,33.567404 12.8227,36.101416 9.1946,3.210253 9.5343,5.441171 1.3772,9.045164 -5.1276,2.265396 -6.0521,4.558462 -5.3585,13.290366 l 0.8382,10.552523 -8.3374,-4.92501 c -8.1593,-4.819798 -8.4763,-4.794623 -14.8343,1.17825 l -6.4968,6.1033 z"
             style="opacity:1;fill:#c07e30;fill-opacity:1;stroke:#c07e30;stroke-width:10.409;stroke-linecap:round;stroke-linejoin:round;stroke-miterlimit:4;stroke-dasharray:none;stroke-opacity:1" />
          <path
             inkscape:export-ydpi="300"
             inkscape:export-xdpi="300"
             inkscape:export-filename="G:\41_web\myWeb\images\hippo_002.png"
             inkscape:connector-curvature="0"
             id="path10197"
             d="m 4592.4373,337.12912 c -3.0295,-1.69205 -5.9435,-3.43246 -6.476,-3.86753 -0.5321,-0.43511 2.9923,-17.64471 7.8327,-38.24357 4.8401,-20.59886 8.1351,-39.18524 7.3223,-41.30307 -0.8124,-2.1178 -12.6295,-12.03608 -26.2601,-22.04061 -24.5219,-17.99857 -33.7384,-28.76711 -37.1985,-43.46282 -2.4549,-10.42491 2.2856,-38.12388 13.7859,-80.55465 12.7973,-47.215215 11.6506,-44.214976 15.4473,-40.41809 2.4182,2.418042 2.3006,6.662922 -0.4851,17.531849 l -3.6755,14.341336 8.657,7.227035 c 8.5082,7.10304 8.6578,7.64896 8.7242,31.81284 0.089,32.98697 3.4508,45.63802 17.8933,67.36271 12.8247,19.29117 27.1905,31.28568 42.8494,35.77667 13.7142,3.93316 119.1644,3.43208 133.03,-0.63212 7.5904,-2.22487 16.8748,-8.82167 28.1008,-19.96678 22.7399,-22.57563 29.3982,-39.59208 30.7589,-78.60998 0.9897,-28.38811 1.1633,-29.04768 9.4734,-36.03475 l 8.4654,-7.117301 -3.6524,-14.250492 c -2.6385,-10.294833 -2.8181,-15.084704 -0.6471,-17.25587 3.3614,-3.361318 6.5389,6.197077 20.5014,61.674913 16.2191,64.44617 11.3514,79.09777 -35.7944,107.73726 -10.9014,6.6225 -17.5355,12.63813 -18.5957,16.86342 -0.907,3.61264 1.5707,20.03174 5.505,36.48687 9.1742,38.36803 9.1849,44.04274 0.089,47.50079 -10.9285,4.15505 -11.5318,3.68628 -16.2778,-12.63852 -3.3972,-11.68564 -5.5686,-15.11315 -9.1459,-14.43479 -3.4362,0.6516 -5.0598,4.56768 -6.0681,14.63591 -1.2573,12.54822 -2.0373,13.82224 -8.9509,14.6177 -6.3248,0.7278 -7.5798,-0.18044 -7.611,-5.50807 -0.1273,-21.30492 -8.6714,-24.61172 -16.4869,-6.37953 -4.779,11.14948 -6.2342,12.39319 -14.4983,12.39319 -16.6912,0 -20.2711,-11.56816 -10.3486,-33.43622 7.4641,-16.44934 6.9352,-23.45572 -2.4815,-32.87254 -11.336,-11.33615 -27.6442,-11.33615 -38.9802,0 -9.4834,9.48353 -10.0784,17.17321 -2.6027,33.64806 9.6558,21.27931 5.3266,32.6607 -12.4233,32.6607 -8.4441,0 -9.6094,-0.98682 -12.1958,-10.32764 -5.9909,-21.63757 -13.0236,-22.28814 -16.3999,-1.51704 -1.4394,8.85358 -2.7561,10.46768 -8.5399,10.46768 -6.1101,0 -6.9984,-1.3919 -8.3405,-13.06921 -2.1358,-18.57893 -6.8789,-22.28617 -12.2048,-9.53919 -2.3068,5.52106 -4.1945,11.68922 -4.1945,13.707 0,4.41888 -5.4913,10.31079 -9.5012,10.19466 -1.5904,-0.0458 -5.3705,-1.46816 -8.3999,-3.16021 z"
             style="opacity:1;fill:#c07e30;fill-opacity:1;stroke:#c07e30;stroke-width:10.409;stroke-linecap:round;stroke-linejoin:round;stroke-miterlimit:4;stroke-dasharray:none;stroke-opacity:1" />
          <path
             inkscape:export-ydpi="300"
             inkscape:export-xdpi="300"
             inkscape:export-filename="G:\41_web\myWeb\images\hippo_002.png"
             inkscape:connector-curvature="0"
             id="path10199"
             d="m 4895.4581,197.14484 c -3.2041,-7.66823 -7.2533,-36.33965 -5.8961,-41.74747 0.721,-2.87342 3.9906,-4.10681 8.15,-3.0748 4.0766,1.01133 12.1592,10.01617 16.1487,17.99128 2.9823,5.96091 3.5688,8.14653 3.5688,13.29769 0,5.52824 -0.3162,6.52542 -3.0722,9.66354 -3.8399,4.37324 -9.4201,7.27923 -13.9783,7.27923 -3.076,0 -3.6678,-0.41008 -4.9209,-3.40947 z"
             style="opacity:1;fill:#c07e30;fill-opacity:1;stroke:#c07e30;stroke-width:3.68012;stroke-linecap:round;stroke-linejoin:round;stroke-miterlimit:4;stroke-dasharray:none;stroke-opacity:1" />
          <path
             inkscape:export-ydpi="300"
             inkscape:export-xdpi="300"
             inkscape:export-filename="G:\41_web\myWeb\images\hippo_002.png"
             inkscape:connector-curvature="0"
             id="path10201"
             d="m 4669.5164,-70.190967 c -26.5173,-1.796695 -52.197,-5.960493 -56.5952,-9.176532 -1.6548,-1.210019 -1.4845,-1.384912 2.0801,-2.135685 5.0397,-1.061499 170.2811,-1.069866 178.9139,-0.0077 3.62,0.444788 6.3537,1.17744 6.0749,1.628088 -0.6434,1.041721 -11.0206,4.394134 -18.0117,5.818914 -18.7913,3.829782 -81.325,5.984014 -112.462,3.874238 z"
             style="opacity:1;fill:#c07e30;fill-opacity:1;stroke:#010101;stroke-width:3.68012;stroke-linecap:round;stroke-linejoin:round;stroke-miterlimit:4;stroke-dasharray:none;stroke-opacity:1" />
          <path
             inkscape:export-filename="G:\41_web\myWeb\images\hippo_002.png"
             inkscape:export-ydpi="300"
             inkscape:export-xdpi="300"
             sodipodi:nodetypes="cccscccsssccssscsccccsccccscccccccccccccccccccscccccsccssccccccccccccccc"
             inkscape:connector-curvature="0"
             id="path10203"
             d="m 4630.5578,-96.436396 c -33.3988,-1.475893 -50.7793,-3.896234 -61.2087,-8.523744 -18.5117,-8.21354 -31.9809,-20.48237 -38.8802,-35.41509 -8.3461,-18.06397 -11.7796,-39.6073 -14.9236,-93.63848 -0.8386,-14.4126 -1.6781,-28.09989 -1.8658,-30.41619 l -0.3409,-4.21148 12.0148,-0.002 c 17.7967,-0.004 32.1589,-1.5574 54.7535,-5.92529 18.24,-3.5261 35.1689,-6.04172 48.3539,-7.18536 10.3739,-0.89982 28.3711,-3.96434 38.0593,-6.48068 4.461,-1.15867 12.5138,-3.25373 17.8952,-4.65568 19.495,-5.07886 28.6865,-4.67365 53.4624,2.35691 15.8008,4.48379 32.0517,7.3576 51.4824,9.10422 12.7662,1.14755 28.1362,3.42904 40.3154,5.98435 24.4722,5.13447 33.3297,6.24011 53.1894,6.6394 l 16.066,0.32301 v 4.13209 c 0,4.15524 -1.304,28.61439 -2.508,47.18269 -2.4405,37.63434 -7.4708,63.34006 -15.594,79.68879 -3.6538,7.35351 -6.6285,11.54664 -12.1256,17.09195 -7.8688,7.93791 -16.3705,12.88699 -29.9348,17.42588 -9.3838,3.140016 -21.1383,4.199965 -65.866,5.939415 -21.1986,0.824406 -127.0782,1.259866 -142.3407,0.585413 z m 76.2765,-50.549674 c 1.2402,-0.34451 2.995,-1.31221 3.8995,-2.15045 1.3517,-1.25279 1.6445,-2.07614 1.6445,-4.62561 0,-3.9086 -1.9182,-6.40022 -6.101,-7.92503 -8.7691,-3.19668 -11.2925,-4.96238 -13.3056,-9.31047 -1.6023,-3.4608 -1.492,-7.23315 0.3151,-10.7834 1.7597,-3.45673 3.4559,-5.12118 7.0645,-6.93223 3.0164,-1.51385 6.3239,-1.75558 14.0272,-1.02521 l 5.4318,0.51501 2.2113,-2.21127 c 1.2161,-1.21619 2.2097,-2.73068 2.208,-3.36551 0,-1.60114 -2.4671,-5.47539 -4.4796,-7.04751 -7.4173,-5.79387 -23.78,-4.19247 -34.9173,3.41732 -6.5947,4.50596 -8.797,8.06376 -9.5075,15.3595 -0.2222,2.28176 -0.8173,5.51056 -1.3223,7.1751 -0.505,1.66454 -0.9213,4.02247 -0.925,5.23986 -0.012,3.18961 5.4452,14.01029 8.7074,17.27246 2.7345,2.73456 7.6274,5.39185 11.6872,6.34726 3.2922,0.77477 10.6537,0.80241 13.3618,0.0502 z m -116.482,-4.61527 c 14.1612,-4.25116 24.1769,-11.98268 29.4006,-22.6955 4.7985,-9.84054 8.396,-23.82354 8.396,-32.63427 0,-16.71674 -9.2803,-32.78463 -22.6417,-39.20184 -7.0862,-3.40339 -13.166,-4.5701 -23.8405,-4.57499 -13.9173,-0.006 -25.6744,7.63227 -36.7617,13.37549 -6.6406,3.43978 -15.1211,11.61967 -17.6536,17.02765 l -1.7377,3.71072 v 10.03291 c 0,13.08934 0.1813,15.87725 1.4288,22.14922 1.9752,9.9311 3.8516,13.50382 10.8879,20.73023 6.2186,6.38675 10.6908,9.28511 17.9846,11.65588 6.7986,2.2098 9.2145,2.4967 19.2988,2.29187 8.3275,-0.16915 10.4438,-0.42852 15.2368,-1.86737 z m 263.9681,0.64841 c 2.059,-0.56512 6.1301,-2.19114 9.0469,-3.61338 4.462,-2.17567 6.2931,-3.58511 11.5425,-8.88469 6.7874,-6.85215 9.0029,-10.49719 10.2756,-16.90545 0.409,-2.05895 0.9909,-4.87785 1.2933,-6.26422 1.209,-5.54413 1.756,-16.54116 1.2865,-25.86775 -0.4171,-8.28858 -0.6996,-10.11653 -1.9772,-12.78945 -1.9576,-4.09596 -9.6776,-12.11827 -14.7355,-15.31268 -14.5645,-9.19824 -38.7521,-12.80116 -56.1439,-8.363 -10.1827,2.59852 -19.075,9.92174 -23.8228,19.61925 -9.9474,20.31806 -6.3666,48.47594 8.1361,63.97937 7.682,8.21201 14.5709,11.96714 26.7775,14.59619 7.2966,1.57154 22.2618,1.46893 28.321,-0.19419 z"
             style="opacity:1;fill:#fef5e4;fill-opacity:1;stroke:#010101;stroke-width:1.24784;stroke-linecap:round;stroke-linejoin:round;stroke-miterlimit:4;stroke-dasharray:none;stroke-opacity:1" />
          <path
             inkscape:export-filename="G:\41_web\myWeb\images\hippo_002.png"
             inkscape:export-ydpi="300"
             inkscape:export-xdpi="300"
             inkscape:connector-curvature="0"
             id="path10205"
             d="m 4570.4649,-171.58219 c -7.7343,-0.72983 -14.6206,-3.31713 -20.2197,-7.59681 -5.7303,-4.38005 -8.0065,-8.85415 -7.971,-15.66815 0.068,-12.93637 10.5195,-29.26309 22.1397,-34.58294 16.1062,-7.37366 35.3498,-1.57833 42.3944,12.76729 2.1903,4.46032 2.4802,6.03088 2.4802,13.43325 0,7.21311 -0.3242,9.07413 -2.325,13.34126 -6.3227,13.48422 -19.1926,19.93917 -36.4986,18.3061 z"
             style="opacity:1;fill:#ffffff;fill-opacity:1;stroke:#ffffff;stroke-width:1.76472;stroke-linecap:round;stroke-linejoin:round;stroke-miterlimit:4;stroke-dasharray:none;stroke-opacity:1" />
          <path
             inkscape:export-filename="G:\41_web\myWeb\images\hippo_002.png"
             inkscape:export-ydpi="300"
             inkscape:export-xdpi="300"
             inkscape:connector-curvature="0"
             id="path10207"
             d="m 4824.33,-173.04243 c -13.8225,-4.80174 -21.4614,-16.65216 -20.5398,-31.86444 0.529,-8.73421 3.1445,-14.71348 8.715,-19.92404 9.912,-9.27142 26.0933,-11.60328 38.6792,-5.57397 6.0291,2.88831 13.4155,10.84186 15.7612,16.97172 8.0663,21.07842 1.7084,35.52485 -17.8743,40.61419 -7.0777,1.83941 -19.116,1.73069 -24.7413,-0.22346 z"
             style="opacity:1;fill:#ffffff;fill-opacity:1;stroke:#ffffff;stroke-width:1.76472;stroke-linecap:round;stroke-linejoin:round;stroke-miterlimit:4;stroke-dasharray:none;stroke-opacity:1" />
          <path
             inkscape:export-filename="G:\41_web\myWeb\images\hippo_002.png"
             inkscape:export-ydpi="300"
             inkscape:export-xdpi="300"
             inkscape:connector-curvature="0"
             id="path10209"
             d="m 4624.8968,-305.33508 c -22.553,-4.88464 -37.2458,-12.99581 -51.4834,-28.42133 -8.1523,-8.83256 -9.405,-12.80732 -7.2731,-23.07701 2.9818,-14.36297 15.3367,-28.24393 35.9221,-40.35905 12.0374,-7.08439 31.4302,-15.69741 38.873,-17.26482 l 4.2479,-0.89462 -1.05,7.94046 c -2.4245,18.33448 -0.2696,25.25167 11.105,35.64749 11.2579,10.28914 38.1165,21.58278 51.3282,21.58278 13.2118,0 40.0703,-11.29364 51.3282,-21.58278 11.1919,-10.22867 14.3424,-19.40428 11.1899,-32.58874 -2.2366,-9.3539 -1.6362,-11.0941 3.4639,-10.03841 6.6604,1.37864 28.4316,11.01354 39.5013,17.48138 26.2612,15.344 40.9044,38.79052 33.9664,54.38695 -5.7198,12.85798 -28.5659,28.9464 -49.6755,34.98174 -15.2585,4.36243 -38.6271,4.01899 -57.9542,-0.85177 -12.3402,-3.10993 -16.7972,-3.62436 -31.82,-3.67281 -15.8319,-0.051 -18.9907,0.33388 -33.6918,4.10565 -20.8657,5.3534 -32.4531,5.98736 -47.9779,2.62489 z"
             style="opacity:1;fill:url(#radialGradient10237);fill-opacity:1;stroke:#010101;stroke-width:2.49569;stroke-linecap:round;stroke-linejoin:round;stroke-miterlimit:4;stroke-dasharray:none;stroke-opacity:1" />
          <path
             inkscape:export-filename="G:\41_web\myWeb\images\hippo_002.png"
             inkscape:export-ydpi="300"
             inkscape:export-xdpi="300"
             inkscape:connector-curvature="0"
             id="path10211"
             d="m 4504.8234,-529.56867 c -8.9857,-7.88957 -10.371,-15.69587 -4.4439,-25.04191 4.7086,-7.42477 12.7299,-12.24154 20.172,-12.11322 7.55,0.13018 14.16,2.67915 14.5873,5.62529 0.2099,1.44744 -3.5332,7.31432 -9.4865,14.86918 -5.4082,6.86314 -10.7728,14.30342 -11.9213,16.53393 -1.1486,2.23052 -2.6157,4.05549 -3.2606,4.05549 -0.6448,0 -3.1859,-1.76794 -5.647,-3.92876 z"
             style="opacity:1;fill:#fbf6ef;fill-opacity:1;stroke:#fbf6ef;stroke-width:2.49569;stroke-linecap:round;stroke-linejoin:round;stroke-miterlimit:4;stroke-dasharray:none;stroke-opacity:1" />
          <path
             inkscape:export-filename="G:\41_web\myWeb\images\hippo_002.png"
             inkscape:export-ydpi="300"
             inkscape:export-xdpi="300"
             inkscape:connector-curvature="0"
             id="path10213"
             d="m 4503.1542,-530.31932 c -6.802,-6.47698 -8.6245,-13.39755 -5.4255,-20.60388 2.6687,-6.01201 11.102,-14.19145 15.864,-15.38664 5.7004,-1.43073 17.7831,0.0836 20.5346,2.57379 2.4931,2.25625 2.4991,2.38996 0.2721,6.1644 -1.252,2.12198 -6.5893,9.65323 -11.8606,16.73613 -5.2712,7.0829 -9.584,13.39946 -9.584,14.0368 0,2.70136 -5.2451,0.8172 -9.8006,-3.5206 z"
             style="opacity:1;fill:#ffffff;fill-opacity:1;stroke:#ffffff;stroke-width:2.49569;stroke-linecap:round;stroke-linejoin:round;stroke-miterlimit:4;stroke-dasharray:none;stroke-opacity:1" />
          <path
             inkscape:export-filename="G:\41_web\myWeb\images\hippo_002.png"
             inkscape:export-ydpi="300"
             inkscape:export-xdpi="300"
             inkscape:connector-curvature="0"
             id="path10215"
             d="m 4567.2837,-477.59648 c -2.719,-0.96843 -5.927,-3.04952 -7.129,-4.62465 -5.214,-6.83273 -3.9817,-23.65889 2.3945,-32.69333 8.9191,-12.63755 18.1934,-15.61555 33.8349,-10.86457 9.3588,2.84262 15.3721,7.0139 18.3147,12.70423 2.5681,4.96603 2.2836,14.09192 -0.6165,19.77657 -3.4556,6.77339 -12.6982,14.50806 -19.3328,16.17868 -7.551,1.90136 -21.4669,1.65971 -27.4658,-0.47693 z"
             style="opacity:1;fill:#ffffff;fill-opacity:1;stroke:#ffffff;stroke-width:2.49569;stroke-linecap:round;stroke-linejoin:round;stroke-miterlimit:4;stroke-dasharray:none;stroke-opacity:1" />
          <path
             inkscape:export-filename="G:\41_web\myWeb\images\hippo_002.png"
             inkscape:export-ydpi="300"
             inkscape:export-xdpi="300"
             inkscape:connector-curvature="0"
             id="path10217"
             d="m 4819.9242,-476.81304 c -10.1896,-3.37218 -19.7957,-11.24392 -22.5448,-18.47456 -0.6403,-1.68422 -1.1642,-5.75027 -1.1642,-9.03567 0,-8.65387 3.6704,-13.47777 14.3206,-18.82094 7.4756,-3.75055 9.9433,-4.36746 17.4699,-4.36746 7.6905,0 9.4495,0.46257 14.3554,3.77491 15.0081,10.13316 18.9414,40.74913 5.8506,45.54081 -4.9754,1.82117 -24.1332,2.75775 -28.2875,1.38291 z"
             style="opacity:1;fill:#ffffff;fill-opacity:1;stroke:#ffffff;stroke-width:2.49569;stroke-linecap:round;stroke-linejoin:round;stroke-miterlimit:4;stroke-dasharray:none;stroke-opacity:1" />
          <path
             inkscape:export-filename="G:\41_web\myWeb\images\hippo_002.png"
             inkscape:export-ydpi="300"
             inkscape:export-xdpi="300"
             inkscape:connector-curvature="0"
             id="path10219"
             d="m 4899.1965,-529.75891 c -1.075,-2.26545 -5.0838,-8.02112 -8.9085,-12.79039 -7.5056,-9.35929 -14.2108,-18.69226 -14.2108,-19.78 0,-0.3719 3.1706,-1.59793 7.0459,-2.7245 12.7975,-3.72032 21.5816,-0.77243 29.2524,9.81686 6.5884,9.09485 4.2644,20.08044 -5.6909,26.90191 -2.1632,1.48232 -4.2933,2.69512 -4.7334,2.69512 -0.44,0 -1.6796,-1.85354 -2.7547,-4.119 z"
             style="opacity:1;fill:#ffffff;fill-opacity:1;stroke:#ffffff;stroke-width:2.49569;stroke-linecap:round;stroke-linejoin:round;stroke-miterlimit:4;stroke-dasharray:none;stroke-opacity:1" />
        </g>
        <g
           transform="matrix(0.2778031,0,0,0.2778031,2680.0805,-679.69659)"
           id="g10233"
           inkscape:export-filename="e:\41_web\myWeb\images\hippo_003.png"
           inkscape:export-xdpi="30"
           inkscape:export-ydpi="30">
          <path
             style="fill:#131313;fill-opacity:1;stroke-width:3.41594"
             d="m 4079.7145,117.96295 c -3.4059,-4.86257 -5.3176,-15.10396 -5.3176,-28.487202 0,-19.09864 -0.7513,-21.23747 -8.7362,-24.8758 -5.4821,-2.49774 -11.9019,-10.89454 -17.2337,-22.5411 -7.0541,-15.40831 -8.3263,-22.8026 -7.4894,-43.5369995 0.7857,-19.4759905 2.1362,-24.9764005 6.1315,-24.9764005 3.9661,0 5.5923,6.29107 7.1956,27.8383805 1.4994,20.1525195 4.1696,31.2340495 9.6721,40.1373495 4.1807,6.76443 8.4595,12.29893 9.5078,12.29893 4.0365,0 10.9877,-12.31046 11.0911,-19.64169 0.092,-6.52453 1.9635,-7.68585 12.3843,-7.68585 9.2379,0 12.7006,1.62517 13.9933,6.56698 1.563,5.97757 5.6983,6.66737 46.078,7.68585 37.4833,0.94545 45.037,2.04564 48.7242,7.09682 5.9776,8.18782 7.0865,7.74355 15.7787,-6.32104 5.5026,-8.9033 8.1734,-19.98483 9.6728,-40.1373495 1.6032,-21.5473105 3.2289,-27.8383805 7.195,-27.8383805 3.9953,0 5.3459,5.50041 6.1321,24.9764005 0.8363,20.7343995 -0.4354,28.1286895 -7.4895,43.5369995 -5.3323,11.64656 -11.752,20.04336 -17.2336,22.5411 -7.9855,3.63833 -8.7367,5.77716 -8.7367,24.8758 0,35.904032 -0.3315,36.079182 -68.3187,36.079182 -55.7361,0 -57.863,-0.25622 -63.0011,-7.59198 z m 115.042,-11.00877 c 1.3803,-1.98158 2.533,-11.686082 2.5618,-21.565532 0.047,-16.68829 -0.3999,-17.68005 -6.3269,-13.97865 -8.3054,5.18681 -17.5323,1.50437 -17.5323,-6.99726 0,-4.23379 2.83,-7.24665 7.6858,-8.18192 4.2276,-0.81415 -1.537,-1.53642 -12.8099,-1.60502 -13.3453,-0.0813 -17.5255,0.70181 -11.9827,2.24434 16.1833,4.50375 20.3206,27.54785 7.5787,42.21123 -3.5672,4.105112 -10.2136,5.977892 -21.2154,5.977892 -11.0019,0 -17.6482,-1.87278 -21.2155,-5.977892 -12.7419,-14.66338 -8.604,-37.70748 7.5793,-42.21123 6.1336,-1.70698 3.4378,-2.46418 -9.6461,-2.70954 -27.4394,-0.51454 -31.3726,2.84882 -31.3726,26.82788 0,11.05282 0.8243,22.244622 1.8319,24.870582 1.455,3.79187 12.1765,4.76666 52.0931,4.73627 31.3392,-0.024 51.2062,-1.39462 52.7708,-3.64115 z m -39.0041,-26.660512 c 1.0222,-8.88497 0.3284,-9.39382 -12.8098,-9.39382 -12.2751,0 -13.8909,0.92717 -13.8909,7.97048 0,10.72346 2.9789,13.03503 15.2494,11.83304 8.4672,-0.8294 10.5685,-2.73987 11.4513,-10.4097 z m 33.8613,-14.87362 c -1.135,-1.13506 -4.0815,-1.25638 -6.5472,-0.26948 -2.7251,1.09042 -1.9154,1.89987 2.0637,2.06375 3.6012,0.14826 5.6185,-0.65905 4.4835,-1.79411 z m -84.4733,-28.67967 c 0,-1.87874 -3.0745,-3.41594 -6.8322,-3.41594 -3.7573,0 -6.8317,1.5372 -6.8317,3.41594 0,1.87878 3.0744,3.41598 6.8317,3.41598 3.7577,0 6.8322,-1.5372 6.8322,-3.41598 z"
             id="path10223"
             inkscape:connector-curvature="0" />
          <path
             style="opacity:1;fill:#ffffff;fill-opacity:1;fill-rule:evenodd;stroke:#ffffff;stroke-width:8.08122;stroke-linecap:round;stroke-linejoin:round;stroke-miterlimit:4;stroke-dasharray:none;stroke-opacity:1"
             d="m 4135.0533,90.114478 c -4.0537,-1.65389 -5.0508,-3.64227 -5.0508,-10.07205 0,-7.97563 0.751,-8.46528 12.983,-8.46528 11.9814,0 12.2708,0.14436 12.2708,6.12146 0,6.05803 -1.4826,9.47171 -4.7629,10.96629 -2.9913,1.36296 -13.284,2.32928 -15.4401,1.44958 z"
             id="path10225"
             inkscape:connector-curvature="0" />
          <path
             style="opacity:1;fill:#808000;fill-opacity:1;fill-rule:evenodd;stroke:#808000;stroke-width:2.0203;stroke-linecap:round;stroke-linejoin:round;stroke-miterlimit:4;stroke-dasharray:none;stroke-opacity:1"
             d="m 4096.3397,39.862428 c -2.6559,-0.39897 -4.7577,-1.78732 -4.7577,-3.14274 0,-0.87307 0.8634,-1.76753 2.3267,-2.41043 1.8783,-0.82521 5.7037,-0.99459 7.8418,-0.34723 1.8312,0.55447 3.2161,1.73841 3.2161,2.7496 0,2.14144 -4.4724,3.77489 -8.6269,3.1508 z"
             id="path10227"
             inkscape:connector-curvature="0" />
          <path
             style="opacity:1;fill:#808000;fill-opacity:1;fill-rule:evenodd;stroke:#131313;stroke-width:8.08122;stroke-linecap:round;stroke-linejoin:round;stroke-miterlimit:4;stroke-dasharray:none;stroke-opacity:1"
             d="m 4102.391,109.13251 c -10.8011,-1.04585 -12.0032,-1.76033 -12.8051,-7.61073 -1.0384,-7.576442 -0.7363,-31.866112 0.4495,-36.136872 2.3699,-8.53493 9.2513,-11.06628 28.6826,-10.55102 l 12.1024,0.32092 -5.0221,2.58058 c -9.2535,4.75488 -13.8332,15.47769 -11.6123,27.18858 1.0751,5.66866 4.4898,12.43227 7.7799,15.409802 3.5878,3.24693 10.2596,4.82382 20.3846,4.81796 12.8364,-0.007 16.8213,-1.20621 22.0473,-6.632412 11.9041,-12.36026 8.8057,-35.0766 -5.6112,-41.13846 l -3.3731,-1.41825 5.831,-0.60182 c 7.4444,-0.76832 19.9002,0.28125 16.8274,1.41795 -3.4809,1.28769 -5.6142,5.42946 -4.8619,9.43952 1.3454,7.17173 9.6087,9.75918 17.808,5.57619 l 4.0148,-2.04819 1.1042,2.8058 c 0.7168,1.82126 0.8882,7.2365 0.4887,15.43271 -0.7355,15.087462 -1.285,17.931462 -3.7158,19.232392 -4.7746,2.55527 -69.7183,3.92945 -90.5189,1.91535 z"
             id="path10229"
             inkscape:connector-curvature="0" />
          <path
             style="opacity:1;fill:#808000;fill-opacity:1;fill-rule:evenodd;stroke:#808000;stroke-width:2.0203;stroke-linecap:round;stroke-linejoin:round;stroke-miterlimit:4;stroke-dasharray:none;stroke-opacity:1"
             d="m 4183.2338,66.907638 c -1.6064,-0.26924 -1.9043,-0.57883 -1.078,-1.12025 2.2374,-1.46601 7.0184,-1.46692 7.5808,-0.001 0.4099,1.06819 -3.1541,1.68294 -6.5028,1.12168 z"
             id="path10231"
             inkscape:connector-curvature="0" />
        </g>
      </g>
    </g>
  </g>
</svg>
