<?xml version="1.0" encoding="UTF-8" standalone="no"?>
<svg
   xmlns:dc="http://purl.org/dc/elements/1.1/"
   xmlns:cc="http://creativecommons.org/ns#"
   xmlns:rdf="http://www.w3.org/1999/02/22-rdf-syntax-ns#"
   xmlns:svg="http://www.w3.org/2000/svg"
   xmlns="http://www.w3.org/2000/svg"
   xmlns:sodipodi="http://sodipodi.sourceforge.net/DTD/sodipodi-0.dtd"
   xmlns:inkscape="http://www.inkscape.org/namespaces/inkscape"
   width="30.319159mm"
   height="84.309311mm"
   viewBox="0 0 30.319159 84.309311"
   version="1.1"
   id="svg4994"
   inkscape:version="1.0.1 (3bc2e813f5, 2020-09-07)"
   sodipodi:docname="hippo_022.svg">
  <defs
     id="defs4988">
    <marker
       style="overflow:visible"
       id="marker7108"
       refX="0.0"
       refY="0.0"
       orient="auto"
       inkscape:stockid="Arrow1Lstart"
       inkscape:isstock="true">
      <path
         transform="scale(0.8) translate(12.5,0)"
         style="fill-rule:evenodd;stroke:#f56a6a;stroke-width:1pt;stroke-opacity:1;fill:#f56a6a;fill-opacity:1"
         d="M 0.0,0.0 L 5.0,-5.0 L -12.5,0.0 L 5.0,5.0 L 0.0,0.0 z "
         id="path7106" />
    </marker>
    <marker
       style="overflow:visible"
       id="marker7098"
       refX="0.0"
       refY="0.0"
       orient="auto"
       inkscape:stockid="Arrow1Lstart"
       inkscape:isstock="true">
      <path
         transform="scale(0.8) translate(12.5,0)"
         style="fill-rule:evenodd;stroke:#f56a6a;stroke-width:1pt;stroke-opacity:1;fill:#f56a6a;fill-opacity:1"
         d="M 0.0,0.0 L 5.0,-5.0 L -12.5,0.0 L 5.0,5.0 L 0.0,0.0 z "
         id="path7096" />
    </marker>
    <marker
       style="overflow:visible"
       id="marker7034"
       refX="0.0"
       refY="0.0"
       orient="auto"
       inkscape:stockid="Arrow1Lstart"
       inkscape:isstock="true">
      <path
         transform="scale(0.8) translate(12.5,0)"
         style="fill-rule:evenodd;stroke:#febffd;stroke-width:1pt;stroke-opacity:1;fill:#febffd;fill-opacity:1"
         d="M 0.0,0.0 L 5.0,-5.0 L -12.5,0.0 L 5.0,5.0 L 0.0,0.0 z "
         id="path7032" />
    </marker>
    <marker
       style="overflow:visible"
       id="Arrow1Lstart"
       refX="0.0"
       refY="0.0"
       orient="auto"
       inkscape:stockid="Arrow1Lstart"
       inkscape:isstock="true">
      <path
         transform="scale(0.8) translate(12.5,0)"
         style="fill-rule:evenodd;stroke:#000000;stroke-width:1.0pt"
         d="M 0.0,0.0 L 5.0,-5.0 L -12.5,0.0 L 5.0,5.0 L 0.0,0.0 z "
         id="path6736" />
    </marker>
  </defs>
  <sodipodi:namedview
     id="base"
     pagecolor="#ffffff"
     bordercolor="#666666"
     borderopacity="1.0"
     inkscape:pageopacity="0.0"
     inkscape:pageshadow="2"
     inkscape:zoom="1.979899"
     inkscape:cx="-44.471284"
     inkscape:cy="162.73849"
     inkscape:document-units="mm"
     inkscape:current-layer="layer1"
     inkscape:document-rotation="0"
     showgrid="false"
     inkscape:window-width="1920"
     inkscape:window-height="1017"
     inkscape:window-x="-8"
     inkscape:window-y="-8"
     inkscape:window-maximized="1"
     inkscape:snap-global="false"
     fit-margin-top="0"
     fit-margin-left="0"
     fit-margin-right="0"
     fit-margin-bottom="0" />
  <metadata
     id="metadata4991">
    <rdf:RDF>
      <cc:Work
         rdf:about="">
        <dc:format>image/svg+xml</dc:format>
        <dc:type
           rdf:resource="http://purl.org/dc/dcmitype/StillImage" />
        <dc:title></dc:title>
      </cc:Work>
    </rdf:RDF>
  </metadata>
  <g
     inkscape:label="レイヤー 1"
     inkscape:groupmode="layer"
     id="layer1"
     transform="translate(-40.626485,-123.24172)">
    <g
       id="g7469">
      <path
         style="fill:#655d57;stroke-width:0.264583"
         d="m 48.771413,206.31612 -1.145038,-0.87726 0.09586,-2.79418 0.09583,-2.79419 -1.264523,-1.55249 c -0.695457,-0.85386 -1.558766,-2.19522 -1.918388,-2.98077 -0.592455,-1.29408 -0.639683,-1.65478 -0.502655,-3.83807 0.08319,-1.32535 0.277971,-2.76694 0.432858,-3.2035 0.154887,-0.43656 0.507338,-2.05359 0.783272,-3.59341 0.275908,-1.5398 0.768906,-3.32346 1.095508,-3.96367 0.613992,-1.20351 1.843987,-4.62198 1.843325,-5.12313 -1.85e-4,-0.15639 -0.702733,-0.49077 -1.5612,-0.74303 -1.995911,-0.5865 -3.701256,-1.87632 -4.4577,-3.37153 -0.555175,-1.09739 -0.594519,-1.50749 -0.583697,-6.08161 0.01296,-5.4502 0.09051,-5.8266 1.792287,-8.69111 0.59145,-0.99552 1.469311,-2.75354 1.950826,-3.9067 0.851879,-2.0401 0.87413,-2.1893 0.825606,-5.53268 -0.02741,-1.88981 -0.194125,-4.16182 -0.37047,-5.04894 -0.289719,-1.45753 -0.37756,-1.60202 -0.911992,-1.49984 -0.938689,0.17944 -3.460909,-0.44463 -3.940969,-0.9751 -0.408887,-0.45183 -0.396055,-0.57716 0.19521,-1.90561 1.12694,-2.53211 4.649602,-5.77641 6.291897,-5.79471 0.351049,-0.004 1.037908,-0.33862 1.526329,-0.74375 0.876749,-0.72731 0.885137,-0.75491 0.660294,-2.17569 -0.207222,-1.30945 -0.293688,-1.44667 -0.959961,-1.52334 -1.118262,-0.12872 -1.614647,-1.07453 -1.258332,-2.39771 0.158538,-0.58878 0.54946,-1.25349 0.868706,-1.47709 0.807667,-0.5657 2.281317,-0.50564 3.333591,0.13589 0.838862,0.51141 0.877279,0.60029 0.714799,1.65267 -0.169678,1.09881 -0.197221,3.66278 -0.04106,3.81897 0.04434,0.0443 0.812747,-0.10697 1.707595,-0.33621 1.480767,-0.37936 1.773131,-0.37936 3.253925,0 0.894821,0.22924 1.652878,0.38497 1.684576,0.34602 0.285591,-0.35075 0.254396,-2.5827 -0.04172,-2.9877 -0.553059,-0.75634 -0.432276,-1.41655 0.413993,-2.26279 0.596689,-0.59669 1.014916,-0.77341 1.830441,-0.77341 0.581369,0 1.249786,0.074 1.485344,0.16436 0.612643,0.23508 1.202478,1.5062 1.202478,2.59133 0,0.98028 -0.522075,1.47765 -1.551066,1.47765 -0.443257,0 -0.557636,0.24098 -0.715989,1.50841 -0.184971,1.48048 -0.172032,1.52215 0.698579,2.24896 0.487865,0.4073 1.1058,0.74054 1.373187,0.74054 2.003236,0 6.809876,5.04563 6.809876,7.14846 0,0.72964 -1.54649,1.38973 -3.33709,1.42436 l -1.35268,0.0262 0.0317,5.15938 0.0317,5.15937 0.85532,1.98438 c 0.47043,1.09141 1.3417,2.81654 1.93617,3.83363 1.51839,2.59783 1.84637,4.07995 2.0216,9.13548 0.14052,4.05339 0.11223,4.44651 -0.39026,5.42396 -0.94396,1.83618 -2.97953,3.2967 -5.16657,3.70699 -0.538933,0.1011 -0.979887,0.32832 -0.979887,0.50491 0,0.4831 1.178027,3.79005 1.938177,5.44086 0.36857,0.80037 0.85468,2.5423 1.08027,3.87096 0.22561,1.32866 0.54327,2.75741 0.70591,3.175 0.16266,0.41759 0.36052,1.97385 0.43971,3.45837 0.13475,2.52651 0.0999,2.78876 -0.54563,4.10104 -0.37928,0.77105 -1.24703,2.03647 -1.92833,2.81202 l -1.238781,1.4101 0.163354,2.69094 c 0.08983,1.48003 0.07758,2.81903 -0.02723,2.97559 -0.403569,0.6028 -2.329921,1.69973 -2.984923,1.69973 -0.377931,0 -1.332574,-0.45048 -2.121403,-1.00107 l -1.434253,-1.00108 -0.07628,-2.295 c -0.07017,-2.11119 -0.131286,-2.33825 -0.763296,-2.83538 -0.869342,-0.68381 -1.422691,-0.68191 -2.299732,0.008 -0.65786,0.5175 -0.697151,0.67834 -0.697151,2.8543 v 2.30589 l -1.458356,0.98219 c -1.825573,1.22949 -2.648427,1.25034 -4.143481,0.10493 z m 3.653208,-2.75257 c 1.089924,-0.4508 1.100666,-0.46863 1.212426,-2.01382 0.09112,-1.25974 0.236114,-1.6551 0.755227,-2.05952 1.313048,-1.02293 2.564659,-0.97531 3.7719,0.14351 0.599308,0.55541 0.706993,0.87442 0.706993,2.09434 0,1.43319 0.0042,1.44084 1.063678,1.8647 1.548897,0.61973 2.156434,0.53192 3.250142,-0.46987 0.969301,-0.88784 0.976656,-0.91038 0.865372,-2.64584 -0.08266,-1.28883 -0.02461,-1.75035 0.220425,-1.75035 0.430106,0 1.820361,-1.73442 2.667791,-3.32822 0.84008,-1.57998 0.88728,-4.07638 0.13467,-7.12282 -0.2876,-1.16417 -0.53186,-2.41432 -0.54281,-2.77812 l -0.0198,-0.66146 -0.26104,0.65413 c -0.17981,0.45053 -0.16725,0.82939 0.0404,1.21729 0.45595,0.85196 0.22526,1.81803 -0.45736,1.91519 -0.40492,0.0576 -0.60405,0.29591 -0.66146,0.7915 -0.0981,0.84688 -0.948293,1.11839 -1.431739,0.45723 -0.305912,-0.41836 -0.368882,-0.4182 -1.011,0.003 -0.860001,0.56338 -1.475872,0.15894 -1.475872,-0.96933 0,-0.48347 -0.137954,-0.76136 -0.377984,-0.76136 -0.207883,0 -0.564832,-0.18688 -0.793221,-0.41526 -0.519482,-0.51949 -0.156871,-1.32528 0.790655,-1.757 0.354833,-0.16166 0.645133,-0.45593 0.645133,-0.65391 0,-0.29644 0.366025,-1.72628 1.235102,-4.82484 0.07475,-0.26651 0.187113,-0.29303 0.388461,-0.0917 0.201374,0.20135 0.197882,0.65424 -0.01217,1.56559 -0.793776,3.44618 -0.988351,3.92166 -1.823958,4.45731 -1.041956,0.66791 -1.04476,0.82013 -0.01905,1.02526 0.751972,0.15039 0.812641,0.2363 0.670137,0.94885 -0.196242,0.9812 0.1388,1.217 0.757634,0.53319 0.618093,-0.68297 1.037458,-0.66115 1.391232,0.0724 0.268817,0.55737 0.288264,0.53869 0.305012,-0.29327 0.01614,-0.80677 0.07734,-0.87368 0.663148,-0.72662 0.35489,0.089 0.71247,0.0532 0.79463,-0.0798 0.23585,-0.38163 -0.13359,-1.08318 -0.57045,-1.08318 -0.277913,0 -0.33681,-0.13877 -0.19645,-0.46302 0.11023,-0.25466 0.38695,-1.14239 0.61492,-1.97273 0.40243,-1.46582 0.39648,-1.55041 -0.20553,-2.91042 -0.34099,-0.77039 -0.858201,-2.11508 -1.149322,-2.9882 -0.291121,-0.87313 -0.603514,-1.66905 -0.694214,-1.76869 -0.09067,-0.0997 -0.876644,-0.0148 -1.746594,0.1886 -1.889865,0.44185 -8.834199,0.494 -10.826908,0.0813 -2.322486,-0.48096 -2.27965,-0.49784 -2.797043,1.10191 -0.258842,0.80037 -0.793221,2.1426 -1.187503,2.98273 -0.769091,1.6388 -0.764672,2.71322 0.01879,4.58859 0.45466,1.08813 0.454713,1.15993 0,1.15993 -0.201295,0 -0.428281,0.23813 -0.504401,0.52917 -0.114935,0.43953 -0.0082,0.52917 0.630608,0.52917 0.687493,0 0.770863,0.0911 0.786897,0.85989 0.01693,0.81108 0.03421,0.82608 0.305012,0.26459 0.332766,-0.69001 0.796237,-0.76275 1.264576,-0.19844 0.564594,0.68029 1.007268,0.46789 0.965041,-0.46302 -0.03416,-0.7529 0.05154,-0.87032 0.688605,-0.94361 0.937921,-0.10793 0.926147,-0.43133 -0.03016,-0.82743 -0.682175,-0.28255 -0.830183,-0.58711 -1.483942,-3.05359 -0.655743,-2.47406 -0.713237,-3.53359 -0.17362,-3.20008 0.10668,0.0659 0.483103,1.29326 0.836507,2.7274 0.55925,2.26947 0.745755,2.67513 1.438487,3.12913 1.116621,0.73181 1.177263,1.39475 0.162533,1.77776 -0.675534,0.25495 -0.816028,0.45257 -0.816028,1.14771 0,0.99054 -0.651298,1.37186 -1.315878,0.77044 -0.570469,-0.51628 -0.966973,-0.51213 -1.168162,0.0122 -0.274214,0.71459 -1.339612,0.35734 -1.436132,-0.48157 -0.05966,-0.5185 -0.233151,-0.7276 -0.603621,-0.7276 -0.726889,0 -0.898763,-0.65379 -0.494188,-1.87971 0.263736,-0.79909 0.272229,-1.11982 0.03588,-1.35617 -0.236352,-0.23633 -0.309562,-0.15606 -0.309562,0.33954 0,0.35697 -0.238125,1.48174 -0.529167,2.49946 -0.314616,1.10011 -0.529167,2.64359 -0.529167,3.80664 0,2.36265 0.597482,3.76423 2.413635,5.66193 1.192689,1.24624 1.223857,1.32177 1.257671,3.04842 0.03241,1.65404 0.0912,1.8179 0.893683,2.491 1.009147,0.84645 1.525561,0.89445 3.011382,0.2799 z m 9.5554,-27.36696 c 0.763985,-0.16955 1.389063,-0.38772 1.389063,-0.48483 0,-0.0971 -3.214688,-0.18161 -7.14375,-0.18777 -3.929063,-0.006 -7.14375,0.0759 -7.14375,0.18251 0,0.17547 2.033878,0.65683 3.704166,0.87664 1.378347,0.18137 7.863682,-0.0913 9.194271,-0.38655 z m 1.801151,-1.67439 c 2.882823,-0.46668 4.684423,-1.42971 5.601203,-2.99408 0.67601,-1.15353 0.68053,-1.19915 0.51538,-5.20147 -0.0916,-2.22073 -0.24207,-4.23437 -0.3343,-4.47471 -0.17928,-0.46721 -4.580148,-2.67275 -6.988121,-3.50214 -1.232429,-0.42449 -2.224802,-0.50016 -6.482292,-0.49426 -5.569135,0.008 -5.711904,0.0397 -10.550551,2.36704 -2.908777,1.39906 -3.075729,1.75315 -3.074512,6.52076 0,3.41188 0.05906,3.90049 0.562663,4.7266 1.006581,1.65118 2.687188,2.58053 5.510636,3.04726 2.753969,0.45524 12.438883,0.45841 15.239894,0.005 z m -9.341776,-3.71531 c -0.640186,-0.4523 -0.776367,-1.40999 -0.321416,-2.26007 0.433361,-0.80976 2.901104,-0.65834 2.901104,0.17799 0,0.4419 -0.134885,0.45659 -0.821135,0.0893 -0.760597,-0.40706 -1.560115,-0.066 -1.560115,0.66564 0,0.6337 0.441854,0.93652 1.366599,0.93652 0.745781,0 0.458126,0.64444 -0.328665,0.73633 -0.352584,0.0412 -0.90895,-0.1144 -1.236372,-0.34573 z m -9.45896,-0.22812 c -1.316434,-0.57373 -1.529265,-1.02418 -1.405122,-2.97373 0.100356,-1.57637 0.198913,-1.83425 0.961151,-2.51532 1.432084,-1.27955 3.983567,-0.98719 4.898258,0.56129 0.560388,0.94861 0.575813,3.13161 0.02768,3.91416 -0.896515,1.27998 -2.854669,1.72281 -4.481963,1.0136 z m 3.063161,-1.46505 c 0.425371,-0.42537 0.773403,-1.02852 0.773403,-1.3403 0,-2.06293 -2.906659,-2.8593 -3.841062,-1.05241 -0.558403,1.07987 -0.487706,1.77181 0.257175,2.51666 0.87376,0.87379 1.856079,0.83045 2.810484,-0.12395 z m 15.914211,1.31717 c -1.086511,-0.68215 -1.462855,-1.63391 -1.307412,-3.30618 0.171424,-1.8437 1.23608,-2.79384 3.130579,-2.79384 1.18065,0 1.45674,0.11155 2.25718,0.91199 0.8808,0.8808 0.9093,0.97266 0.83344,2.68478 -0.0695,1.56843 -0.16015,1.83356 -0.78645,2.29995 -1.05015,0.78205 -3.048736,0.8805 -4.127337,0.2033 z m 3.291227,-1.22468 c 0.5642,-0.56417 0.65435,-0.84447 0.52602,-1.63531 -0.2109,-1.2996 -0.7598,-1.77281 -2.05639,-1.77281 -2.946455,0 -2.581621,3.9679 0.37444,4.07226 0.26127,0.009 0.78144,-0.28964 1.15593,-0.66414 z m -20.41641,-10.2445 c 3.758116,-1.67741 4.761363,-1.84547 10.31875,-1.72858 l 4.7625,0.10017 3.042709,1.26228 c 1.673491,0.69424 3.370131,1.4297 3.770311,1.63438 0.40267,0.20595 0.7276,0.25567 0.7276,0.11136 0,-0.47461 -0.80721,-2.20281 -1.62186,-3.47234 -0.44141,-0.68786 -1.23503,-2.29668 -1.76358,-3.57512 -0.94989,-2.29746 -0.96092,-2.36697 -0.94914,-5.98528 0.0119,-3.6313 0.008,-3.65334 -0.438895,-2.73396 -0.247967,0.50977 -0.688022,1.26415 -0.977953,1.67645 -0.877437,1.24775 -2.364475,4.37491 -2.71899,5.7178 -0.416772,1.57885 -1.133052,2.27992 -2.942881,2.88044 -1.788875,0.59354 -2.743597,0.60095 -4.579911,0.0355 -2.089362,-0.64339 -2.708725,-1.25015 -3.186298,-3.12166 -0.344329,-1.34924 -2.330238,-5.27124 -3.0734,-6.06965 -0.133456,-0.14337 -0.221218,0.86575 -0.207116,2.38125 0.02823,3.03234 -0.415184,4.40809 -3.043449,9.44235 -0.816213,1.56339 -1.484022,3.16412 -1.484022,3.55714 v 0.71458 l 0.859896,-0.82309 c 0.472943,-0.45268 2.050521,-1.35451 3.505729,-2.00403 z m 11.1125,-4.97737 c 1.436238,-0.39275 1.875896,-0.8455 2.236841,-2.30362 0.329406,-1.33065 1.758844,-4.27892 2.910496,-6.00298 0.388805,-0.58208 1.018434,-1.71317 1.399169,-2.51354 0.597804,-1.25664 0.660264,-1.61766 0.457835,-2.64583 -0.128931,-0.65484 -0.241352,-1.78594 -0.249846,-2.51354 -0.02302,-1.98549 -0.851746,-4.33398 -1.893649,-5.36723 -0.490643,-0.48657 -1.895925,-1.38301 -3.122798,-1.99205 -1.998768,-0.99224 -2.425223,-1.10622 -4.101041,-1.09614 -1.585569,0.01 -2.132198,0.14533 -3.590132,0.89207 -0.945885,0.48445 -2.258933,1.27381 -2.917851,1.75413 -1.67349,1.21986 -2.443506,3.56394 -2.473219,7.52901 -0.02275,3.0457 0.186901,3.77111 1.792737,6.20128 1.27299,1.92648 2.468166,4.3916 2.682134,5.53204 0.236247,1.25941 0.880692,2.04777 2.00705,2.45525 1.135989,0.41098 3.493426,0.44548 4.862274,0.0712 z m -5.454411,-4.00712 c -0.125942,-1.36686 0.4563,-2.20294 1.339029,-1.92278 0.678498,0.21535 1.225815,1.41246 0.827749,1.81052 -0.176397,0.17637 -0.353853,0.0297 -0.532447,-0.43997 -0.373777,-0.98312 -1.074711,-0.92493 -1.074711,0.0892 0,0.7529 -0.495194,1.16261 -0.55962,0.46302 z m 5.802709,-0.39462 c -0.101283,-0.87755 -0.879078,-1.12588 -1.083072,-0.34579 -0.07795,0.29808 -0.271939,0.54198 -0.431086,0.54198 -0.462809,0 -0.334115,-0.93581 0.194496,-1.4142 0.970544,-0.87834 1.897406,-0.35555 1.897406,1.07024 0,1.05293 -0.459687,1.17051 -0.577744,0.14777 z m -9.573869,-9.35937 c -0.705194,-1.0068 0.376106,-2.57839 1.265899,-1.83994 0.783617,0.65034 0.386371,2.39966 -0.544909,2.39966 -0.180922,0 -0.505381,-0.25188 -0.72099,-0.55972 z m 12.419463,0.14396 c -0.22868,-0.22868 -0.415767,-0.63691 -0.415767,-0.90715 0,-0.50486 0.654447,-1.32292 1.058334,-1.32292 0.435583,0 1.058333,0.83627 1.058333,1.42118 0,1.11988 -0.941943,1.56782 -1.7009,0.80889 z m -15.548743,-1.33872 0.08057,-0.82841 -1.138899,0.21524 c -0.626401,0.1184 -1.542336,0.38616 -2.03544,0.59505 l -0.89654,0.37978 1.028832,0.27832 c 0.565865,0.15306 1.445551,0.25807 1.954874,0.23339 0.832538,-0.0404 0.934164,-0.12856 1.006607,-0.87337 z m 22.938181,0.65919 1.05834,-0.29861 -1.05834,-0.4513 c -0.58208,-0.24821 -1.50481,-0.52242 -2.05052,-0.60934 -1.04555,-0.16653 -1.12731,-0.061 -0.82542,1.06548 0.18465,0.68905 1.13194,0.78581 2.87594,0.29377 z m -25.331019,-1.55067 c 0.765545,-0.29096 1.688279,-0.52904 2.05052,-0.52904 0.522897,0 0.658628,-0.13385 0.658628,-0.64942 0,-0.35718 0.282892,-1.42875 0.628623,-2.38125 0.345731,-0.9525 0.539883,-1.73183 0.43143,-1.73183 -0.373512,0 -2.781432,2.06066 -3.598863,3.07986 -0.732208,0.91292 -1.822926,2.74119 -1.635178,2.74084 0.04011,-8e-5 0.699294,-0.2382 1.46484,-0.52916 z m 25.881729,-0.55457 c -0.39116,-0.92144 -3.29203,-3.92777 -4.268525,-4.4237 -0.536073,-0.27226 -0.535252,-0.25249 0.06614,1.59224 0.334935,1.02735 0.608965,2.09047 0.608965,2.36246 0,0.35962 0.19852,0.49845 0.7276,0.50893 0.40019,0.008 1.26339,0.22561 1.91823,0.48379 0.65485,0.25818 1.22195,0.44857 1.26024,0.42312 0.0383,-0.0254 -0.10239,-0.45154 -0.31266,-0.94684 z m -17.748623,-9.43247 c 0,-1.02627 0.0893,-1.95726 0.198438,-2.06889 0.38354,-0.39227 0.192934,-1.42203 -0.313346,-1.69296 -0.765017,-0.40944 -2.039515,-0.33065 -2.526321,0.15616 -0.261065,0.26106 -0.398437,0.75493 -0.349621,1.25677 0.06358,0.65354 0.218969,0.84587 0.741892,0.91821 1.018672,0.14091 1.249098,0.46715 1.446636,2.04816 0.267229,2.13884 0.802322,1.72704 0.802322,-0.61745 z m 9.478989,0.69873 c 0.187695,-1.58469 0.488765,-2.02747 1.454441,-2.13907 0.869156,-0.10047 1.080347,-0.99936 0.457967,-1.94924 -0.501544,-0.76547 -1.814539,-0.87799 -2.733569,-0.23429 -0.697283,0.48839 -0.746733,0.97912 -0.158035,1.56784 0.380418,0.38039 0.390895,0.61434 0.09086,2.02819 -0.286677,1.35094 -0.28157,1.63462 0.03302,1.8338 0.617193,0.39074 0.688922,0.29787 0.855318,-1.10723 z"
         id="path4143" />
      <path
         style="fill:#fdf8db;fill-opacity:1;stroke:#fcf7dc;stroke-width:0.0516763;stroke-opacity:1"
         d="m 41.768633,138.50575 c 0.19304,-0.51149 1.325324,-2.23936 1.870974,-2.85512 0.864315,-0.97537 3.18643,-2.91349 3.32486,-2.77506 0.0554,0.0554 -0.102684,0.64925 -0.449924,1.68986 -0.377295,1.13066 -0.61595,2.0308 -0.616532,2.32544 0,0.29834 -0.09811,0.56909 -0.222514,0.61776 -0.06223,0.0243 -0.328322,0.0701 -0.591344,0.10179 -0.557715,0.0671 -1.319265,0.28913 -2.487692,0.72533 -0.459819,0.17166 -0.84627,0.31211 -0.858758,0.31211 -0.01243,0 0.0026,-0.0639 0.03093,-0.14211 z"
         id="path4984" />
      <path
         style="fill:#fdf8db;fill-opacity:1;stroke:#fcf7dc;stroke-width:0.0516763;stroke-opacity:1"
         d="m 54.088956,154.12062 c -1.006502,-0.15547 -1.620653,-0.42797 -2.144925,-0.95168 -0.426217,-0.42578 -0.621294,-0.81905 -0.851243,-1.71613 -0.388118,-1.51419 -1.358662,-3.48975 -2.838953,-5.77867 -0.933027,-1.44271 -1.311857,-2.28641 -1.515851,-3.37607 -0.128958,-0.68882 -0.126365,-3.81798 0.004,-4.89044 0.301836,-2.4823 0.951415,-4.02984 2.094653,-4.99028 0.679662,-0.57098 2.827152,-1.84218 3.923744,-2.32265 0.304351,-0.13336 0.724615,-0.2863 0.9339,-0.33988 0.843439,-0.21594 2.665228,-0.24971 3.572722,-0.0662 1.262962,0.25535 4.408726,1.93673 5.438748,2.90695 0.582481,0.54867 1.050052,1.35296 1.434254,2.46717 0.325067,0.94272 0.454871,1.67653 0.542766,3.06838 0.0794,1.25721 0.132318,1.75429 0.260562,2.44742 0.113582,0.61397 0.09723,1.09463 -0.05345,1.57163 -0.23622,0.74781 -1.154245,2.48627 -2.087774,3.95365 -1.068203,1.67906 -2.215701,4.11632 -2.666471,5.66351 -0.193807,0.66518 -0.359939,1.04476 -0.58928,1.34631 -0.335254,0.44086 -1.332257,0.85535 -2.423504,1.00755 -0.727022,0.10141 -2.375826,0.10111 -3.033951,-5.3e-4 z m -1.143344,-4.0201 c 0.04649,-0.098 0.104722,-0.37743 0.129407,-0.62104 0.06633,-0.65434 0.249529,-0.86181 0.589016,-0.66702 0.118004,0.0677 0.234288,0.22505 0.399097,0.53995 0.345917,0.66107 0.415317,0.71715 0.618093,0.4995 0.07985,-0.0857 0.105358,-0.18266 0.105331,-0.4005 -5.3e-5,-0.40126 -0.213413,-0.83691 -0.564409,-1.15249 -0.290962,-0.26159 -0.485405,-0.3267 -0.852223,-0.28535 -0.504428,0.0568 -0.841454,0.57272 -0.892889,1.36673 -0.03392,0.52348 0.0026,0.80205 0.11893,0.91884 0.106839,0.10683 0.240824,0.0307 0.349647,-0.19862 z m 5.873273,-0.0627 c 0.03755,-0.11375 0.05392,-0.39088 0.04204,-0.71159 -0.0164,-0.44638 -0.04114,-0.56963 -0.163883,-0.82054 -0.328877,-0.67219 -0.902864,-0.76998 -1.582579,-0.2696 -0.372295,0.27406 -0.622565,0.72309 -0.622565,1.11701 0,0.26362 0.12237,0.45683 0.289349,0.45683 0.127979,0 0.356103,-0.27668 0.429154,-0.52055 0.07607,-0.25385 0.310594,-0.51298 0.464291,-0.51298 0.149198,0 0.454819,0.28432 0.516599,0.4806 0.02863,0.0909 0.07977,0.31165 0.113665,0.49044 0.109564,0.57832 0.370284,0.72563 0.513926,0.29038 z m -9.058486,-9.32126 c 0.500433,-0.22716 0.778245,-1.08161 0.58502,-1.79924 -0.108823,-0.4041 -0.493765,-0.73458 -0.855663,-0.73458 -0.51263,0 -1.007692,0.63542 -1.007692,1.2934 0,0.46096 0.255403,0.91763 0.664845,1.18884 0.270934,0.17946 0.322289,0.18377 0.61349,0.0516 z m 12.486031,-0.0211 c 0.389573,-0.16277 0.63754,-0.67371 0.588645,-1.21289 -0.05823,-0.6421 -0.613357,-1.35152 -1.057592,-1.35152 -0.282655,0 -0.687414,0.3729 -0.937287,0.86352 -0.233336,0.45815 -0.07893,1.04707 0.380603,1.45155 0.350891,0.30887 0.687388,0.39067 1.025631,0.24934 z"
         id="path4986" />
      <path
         style="fill:#fdf8db;stroke:#fcf7dc;stroke-width:0.0668173"
         d="m 42.491499,161.31569 c 0,-0.62359 0.338259,-1.45083 1.788353,-4.37356 1.716177,-3.45902 2.081503,-4.3113 2.410275,-5.62298 0.236124,-0.94206 0.289919,-1.49621 0.338939,-3.49155 0.03086,-1.25587 0.07402,-1.98135 0.120652,-2.02799 0.09825,-0.0983 0.592019,0.64037 1.283417,1.91979 0.799923,1.48025 1.444514,2.92862 1.84549,4.14673 0.526262,1.59871 0.86427,2.04612 1.9348,2.56104 1.088385,0.5235 2.465901,0.86534 3.494027,0.86708 0.803918,0.001 1.429149,-0.11527 2.372397,-0.44253 0.949404,-0.32939 1.554292,-0.663 1.98442,-1.09443 0.430429,-0.43174 0.659447,-0.87324 0.982771,-1.89457 0.503134,-1.58931 1.664382,-4.01844 2.703134,-5.65447 0.314994,-0.49612 0.713949,-1.16573 0.886566,-1.48802 0.172617,-0.3223 0.342016,-0.56858 0.376441,-0.54731 0.03709,0.0229 0.06266,1.05112 0.06275,2.52369 2.01e-4,2.91071 0.06832,4.01605 0.295918,4.80091 0.362524,1.25015 1.639826,4.04899 2.510816,5.50173 0.770028,1.28435 1.409258,2.61818 1.508652,3.14798 0.03894,0.2076 0.0288,0.2263 -0.12268,0.2263 -0.09082,0 -0.552704,-0.1762 -1.0264,-0.39155 -0.754576,-0.34305 -2.210639,-0.9618 -5.417566,-2.30221 l -0.881341,-0.36837 -3.66224,-0.0799 c -6.618544,-0.1445 -7.574217,-0.008 -11.212605,1.60111 -1.880616,0.83174 -3.242858,1.63614 -4.038823,2.38493 l -0.538167,0.50627 z"
         id="path5026" />
      <path
         style="fill:#fdf8db;stroke:#fcf7dc;stroke-width:0.0668173"
         d="m 52.413879,176.5093 c -1.524172,-0.24924 -3.121925,-0.62974 -3.204337,-0.76309 -0.07519,-0.12165 1.840648,-0.16908 6.812476,-0.16863 5.014319,5.3e-4 7.249686,0.0523 7.249686,0.1683 0,0.0715 -0.702051,0.29071 -1.347877,0.42085 -1.064766,0.21457 -3.535813,0.36856 -6.569983,0.40942 -1.859775,0.0251 -2.461739,0.0113 -2.939965,-0.0669 z"
         id="path5028" />
      <path
         style="fill:#fdf8db;stroke:#fcf7dc;stroke-width:0.0334087"
         d="m 50.458269,203.90312 c -0.100441,-0.027 -0.278439,-0.10266 -0.395554,-0.16816 -0.263033,-0.14709 -0.795023,-0.57247 -1.046321,-0.83663 -0.400733,-0.42125 -0.434859,-0.58226 -0.497925,-2.34942 -0.03287,-0.92093 -0.06994,-1.19484 -0.203803,-1.50602 -0.108427,-0.25205 -0.389015,-0.61346 -0.879819,-1.13327 -1.367846,-1.44866 -1.962751,-2.36443 -2.301814,-3.5433 -0.409443,-1.42359 -0.327552,-3.86044 0.196537,-5.84842 0.39905,-1.51369 0.583803,-2.38784 0.584174,-2.76401 2.09e-4,-0.21081 0.05301,-0.43934 0.101513,-0.43934 0.01746,0 0.09106,0.0536 0.163562,0.11909 0.102018,0.0922 0.140772,0.1591 0.171429,0.29609 0.04525,0.20222 -0.0048,0.4754 -0.220744,1.20457 -0.343768,1.16081 -0.190212,1.67105 0.527103,1.75149 0.136659,0.0153 0.287734,0.0536 0.335721,0.085 0.116727,0.0765 0.211987,0.28502 0.260136,0.56947 0.07181,0.42425 0.273873,0.71903 0.588185,0.85806 0.266509,0.11789 0.608287,0.0756 0.748038,-0.0925 0.02622,-0.0316 0.100949,-0.15657 0.16606,-0.27782 0.244401,-0.45516 0.519967,-0.44153 1.1307,0.0559 0.238863,0.19456 0.415361,0.27322 0.615113,0.27413 0.181812,8e-4 0.300416,-0.051 0.430861,-0.18838 0.163539,-0.17221 0.234508,-0.39195 0.26779,-0.82918 0.05752,-0.7557 0.150284,-0.89543 0.767303,-1.15579 0.552283,-0.23305 0.762418,-0.43666 0.762418,-0.73874 0,-0.3162 -0.249804,-0.63608 -0.8088,-1.03572 -0.770022,-0.55049 -0.923555,-0.87553 -1.496195,-3.1675 -0.31107,-1.24506 -0.633976,-2.33542 -0.774597,-2.61558 -0.03532,-0.0704 -0.102015,-0.14125 -0.150127,-0.15954 -0.488677,-0.1858 -0.372991,1.00364 0.359987,3.70124 0.546899,2.01277 0.696238,2.29521 1.383755,2.61706 0.425934,0.1994 0.607716,0.31691 0.666721,0.43102 0.0961,0.18584 -0.04742,0.26878 -0.636868,0.36801 -0.213207,0.0359 -0.435094,0.0929 -0.49308,0.12665 -0.174255,0.10146 -0.202505,0.20157 -0.223788,0.79301 -0.02064,0.5737 -0.05879,0.72989 -0.202932,0.83085 -0.176004,0.12328 -0.375026,0.0335 -0.731086,-0.32973 -0.386427,-0.39422 -0.602031,-0.46846 -0.882714,-0.30397 -0.158824,0.0931 -0.295558,0.27277 -0.46645,0.613 -0.06691,0.13322 -0.136504,0.24222 -0.154646,0.24222 -0.04141,0 -0.03349,0.07 -0.06435,-0.56947 -0.02755,-0.57099 -0.05462,-0.68316 -0.195623,-0.81077 -0.07859,-0.0711 -0.385318,-0.12153 -0.745236,-0.12248 -0.451016,-0.001 -0.557188,-0.0882 -0.496702,-0.40717 0.03985,-0.21015 0.165627,-0.43354 0.296601,-0.5268 0.05419,-0.0386 0.188174,-0.0815 0.303786,-0.0973 0.113758,-0.0156 0.220935,-0.0494 0.23817,-0.0751 0.05753,-0.086 -0.0051,-0.30488 -0.305811,-1.06949 -0.484251,-1.23111 -0.62803,-1.86685 -0.588523,-2.60219 0.03649,-0.6792 0.165497,-1.11166 0.672701,-2.25509 0.423735,-0.95527 0.758692,-1.8084 1.069961,-2.72519 0.138094,-0.40674 0.291209,-0.82147 0.340249,-0.92163 0.109562,-0.22375 0.299278,-0.40095 0.461934,-0.43147 0.230095,-0.0432 0.767585,0.0115 1.452097,0.14775 0.874424,0.17402 1.00381,0.19367 1.670433,0.2537 1.011513,0.0911 2.072812,0.1259 3.841999,0.12603 2.842408,2.1e-4 4.748411,-0.11954 5.947238,-0.37366 0.977151,-0.20713 1.544701,-0.25462 1.650164,-0.13809 0.07859,0.0868 0.329496,0.71648 0.620416,1.5569 0.421515,1.21771 0.881814,2.41348 1.279594,3.32417 0.377105,0.86336 0.449299,1.15894 0.392906,1.60867 -0.05868,0.468 -0.434176,1.84023 -0.767813,2.80595 -0.09294,0.26901 -0.168976,0.52727 -0.168976,0.57392 0,0.10398 0.08025,0.18974 0.177781,0.18999 0.377968,0.001 0.724255,0.38789 0.724255,0.80924 0,0.35832 -0.268301,0.46622 -0.851911,0.3426 -0.418007,-0.0885 -0.550214,-0.0617 -0.61627,0.12516 -0.02125,0.0601 -0.04616,0.31975 -0.05536,0.577 -0.01844,0.5159 -0.03693,0.68488 -0.07489,0.68488 -0.01386,0 -0.105965,-0.15093 -0.204692,-0.3354 -0.27142,-0.50714 -0.490252,-0.66329 -0.792231,-0.56531 -0.181356,0.0588 -0.285666,0.13704 -0.649838,0.48712 -0.418555,0.40237 -0.617609,0.46508 -0.717487,0.22604 -0.05998,-0.14355 -0.05873,-0.39326 0.0037,-0.74789 0.05995,-0.34034 0.06381,-0.56816 0.01156,-0.68282 -0.05526,-0.12128 -0.250142,-0.2028 -0.758552,-0.31728 -0.491093,-0.11058 -0.650325,-0.18221 -0.667383,-0.30021 -0.01579,-0.10927 0.170974,-0.29068 0.595855,-0.57876 0.192934,-0.13081 0.414809,-0.28963 0.493051,-0.35294 0.370875,-0.30007 0.649179,-0.88261 0.959583,-2.00856 0.155663,-0.56465 0.52592,-2.11865 0.615969,-2.58527 0.09116,-0.47237 0.09305,-0.91499 0.0047,-1.08825 -0.1143,-0.22405 -0.324082,-0.30597 -0.416062,-0.16247 -0.108228,0.16886 -1.215813,4.33411 -1.284565,4.83082 -0.05151,0.37214 -0.208323,0.55622 -0.673315,0.79042 -0.639416,0.32205 -1.001188,0.75361 -1.001935,1.19521 -1.66e-4,0.10624 0.02077,0.24365 0.04654,0.30534 0.110379,0.26418 0.512334,0.57849 0.840078,0.65692 0.339765,0.0813 0.359714,0.0966 0.450363,0.34612 0.01966,0.0541 0.04937,0.28897 0.06602,0.52191 0.05683,0.79513 0.294356,1.1349 0.791966,1.13286 0.233162,-0.001 0.454922,-0.087 0.828196,-0.32127 0.318149,-0.19969 0.45924,-0.25381 0.560846,-0.21514 0.04066,0.0155 0.169465,0.13566 0.286242,0.26708 0.304813,0.34304 0.559461,0.45359 0.854538,0.37097 0.31737,-0.0888 0.524885,-0.36417 0.608454,-0.80725 0.0989,-0.52436 0.23704,-0.68908 0.658514,-0.78522 0.416345,-0.095 0.651764,-0.41309 0.682585,-0.92236 0.02029,-0.33546 -0.03441,-0.60326 -0.197038,-0.96443 -0.246655,-0.54779 -0.243689,-0.78029 0.01849,-1.44914 l 0.144055,-0.36749 0.02056,0.33408 c 0.04096,0.66518 0.198207,1.49352 0.655843,3.45474 0.278133,1.19196 0.411446,2.29864 0.412877,3.42745 0.0016,1.16684 -0.106333,1.89162 -0.398711,2.68032 -0.494794,1.33474 -2.402144,3.88308 -2.907278,3.88432 -0.09579,2.3e-4 -0.166781,0.0887 -0.214517,0.26744 -0.05147,0.19271 -0.05064,0.96172 0.0019,1.8187 0.06384,1.03965 0.01738,1.33507 -0.268065,1.70508 -0.189852,0.24608 -0.878255,0.86342 -1.216829,1.09121 -0.395444,0.26605 -0.59472,0.33506 -1.024559,0.35479 -0.304512,0.014 -0.401357,0.004 -0.70321,-0.0714 -0.669692,-0.16768 -1.506207,-0.51769 -1.709224,-0.71516 -0.203208,-0.19766 -0.225893,-0.32336 -0.257514,-1.42695 -0.0368,-1.28425 -0.0858,-1.46031 -0.539279,-1.93771 -0.434845,-0.45778 -0.960011,-0.80097 -1.465635,-0.95777 -0.320503,-0.0994 -0.901423,-0.10763 -1.236123,-0.0175 -0.328626,0.0885 -0.850262,0.35913 -1.183002,0.61382 -0.594514,0.45505 -0.71773,0.7833 -0.837954,2.23236 -0.02896,0.34912 -0.06928,0.73192 -0.08959,0.85065 -0.09061,0.52969 -0.244176,0.67454 -1.085453,1.02381 -0.930272,0.38622 -1.49996,0.4899 -1.981213,0.36056 z"
         id="path5030" />
      <path
         style="fill:#d8c3b0;stroke-width:0.264583"
         d="m 50.193431,207.39845 c -0.218282,-0.0814 -0.908659,-0.4972 -1.534213,-0.92405 l -1.137312,-0.77605 0.183859,-2.90555 0.183833,-2.90555 -1.069393,-1.10781 c -0.588195,-0.60928 -1.439043,-1.77226 -1.890819,-2.5844 -0.758242,-1.3631 -0.821372,-1.67063 -0.821372,-4.00161 0,-1.59303 0.149807,-2.94965 0.405871,-3.6754 0.223229,-0.6327 0.584597,-2.26111 0.803063,-3.61866 0.21844,-1.35755 0.70276,-3.14679 1.076219,-3.9761 0.702416,-1.55977 1.94818,-5.00684 1.94818,-5.39069 0,-0.12002 -0.233653,-0.21823 -0.519245,-0.21823 -1.055766,0 -3.510465,-1.13694 -4.421346,-2.04783 -1.539293,-1.53929 -1.666055,-2.11748 -1.709049,-7.79507 -0.04233,-5.59168 -0.02942,-5.65822 1.638485,-8.43158 0.574887,-0.95594 1.46132,-2.76993 1.969876,-4.03109 0.878284,-2.1781 0.924613,-2.45266 0.924613,-5.47878 0,-1.75218 -0.146209,-3.95655 -0.324909,-4.89863 l -0.324935,-1.71283 -1.064127,-0.0116 c -1.446424,-0.0159 -3.688715,-0.81084 -3.78796,-1.34321 -0.04395,-0.2358 0.236352,-1.09673 0.622882,-1.91312 0.962025,-2.03179 3.789759,-4.68657 5.788395,-5.43436 2.521347,-0.94335 2.67589,-1.109 2.573946,-2.75857 -0.08734,-1.41296 -0.103373,-1.43785 -1.121913,-1.74303 -1.232164,-0.36914 -1.530826,-1.13212 -1.059285,-2.70599 0.433175,-1.44579 1.649968,-2.04703 3.201802,-1.58211 1.909233,0.57203 2.615644,1.83666 1.731248,3.09931 -0.282575,0.40341 -0.32049,0.80319 -0.148537,1.56561 0.127,0.56314 0.171662,1.11975 0.09924,1.23693 -0.170127,0.2753 -0.157268,0.27321 1.090189,-0.17621 1.357472,-0.48903 2.963175,-0.50244 4.28588,-0.0357 l 1.045104,0.36873 0.266224,-1.29961 c 0.207804,-1.01436 0.188965,-1.36372 -0.08581,-1.59176 -0.193622,-0.16068 -0.352028,-0.64045 -0.352028,-1.06614 0,-1.6333 2.680785,-2.89424 4.131839,-1.9435 0.694664,0.45517 1.424411,1.85524 1.424411,2.73278 0,0.6195 -0.708607,1.27693 -1.621975,1.50484 -0.612431,0.1528 -0.71329,0.3378 -0.840687,1.54197 -0.130731,1.2356 -0.07871,1.42359 0.536231,1.93831 0.374518,0.31348 1.042088,0.6422 1.483466,0.73049 1.189143,0.23781 3.191034,1.61719 4.585097,3.15928 1.318921,1.45897 2.611966,3.92319 2.378207,4.53232 -0.17436,0.45436 -2.56368,1.19438 -3.856381,1.19438 h -0.944166 l 0.0172,4.96093 0.0172,4.96094 0.929957,2.25513 c 0.511493,1.24031 1.428988,3.08244 2.038853,4.09366 1.600147,2.65305 1.728893,3.31821 1.744901,9.01427 l 0.01429,5.04428 -0.721677,1.09262 c -0.832935,1.26109 -2.413133,2.27005 -4.305406,2.749 -0.727604,0.18418 -1.3648,0.36195 -1.415997,0.39507 -0.154464,0.0999 0.760862,2.74195 1.702302,4.91373 0.486622,1.12263 1.068679,3.10097 1.293416,4.39635 0.224764,1.29537 0.585047,2.93671 0.800656,3.64744 0.223996,0.73834 0.39325,2.34492 0.39489,3.74837 0.0026,2.12019 -0.09067,2.64078 -0.680852,3.80545 -0.376052,0.74211 -1.226397,1.92942 -1.889654,2.63851 l -1.205918,1.28923 0.182695,2.8874 0.182721,2.88743 -1.241954,0.85447 c -1.559613,1.07304 -2.466922,1.06381 -4.048654,-0.0412 -1.804062,-1.26035 -1.87886,-1.41389 -1.87886,-3.85665 0,-2.16749 -0.0087,-2.1961 -0.79375,-2.60205 -0.717232,-0.37089 -0.870267,-0.37089 -1.5875,0 l -0.79375,0.41048 -0.0056,2.44059 -0.0056,2.4406 -1.515851,0.95888 c -1.673833,1.05878 -2.375112,1.31725 -2.971086,1.095 z m 0.07847,-5.53868 c 0.08961,-0.14499 0.645821,-0.59827 1.236001,-1.00727 1.021423,-0.70784 1.097253,-0.72173 1.575832,-0.28863 0.476381,0.43111 0.507761,0.42966 0.597455,-0.028 0.05207,-0.26564 0.009,-1.2569 -0.09546,-2.20278 -0.38153,-3.45107 -0.274877,-4.55049 0.526071,-5.42396 0.932736,-1.01714 3.997324,-3.57188 4.284767,-3.57188 0.120624,0 1.049788,0.90125 2.064783,2.00277 2.819771,3.06019 3.653472,5.91423 2.334101,7.99052 -0.914691,1.43944 -1.579165,1.93984 -2.791909,2.10251 -0.632725,0.0849 -1.078865,0.28652 -1.078865,0.48763 0,0.2573 0.361844,0.30556 1.449439,0.19333 1.300693,-0.13425 1.503469,-0.0848 1.975592,0.48212 0.545465,0.65498 0.660823,0.488 0.294666,-0.42659 -0.392324,-0.97993 0.65876,-2.96129 1.974374,-3.72184 0.920829,-0.53234 1.052566,-1.05333 0.434155,-1.71714 -0.31459,-0.33766 -0.571976,-0.72557 -0.571976,-0.86204 0,-0.46749 -1.608111,-3.41297 -2.40419,-4.40357 -0.566049,-0.70435 -0.808328,-1.30701 -0.83947,-2.08806 -0.03223,-0.80809 -0.154675,-1.09797 -0.463814,-1.09797 -1.213671,0 -1.388957,-1.42425 -0.253868,-2.06283 0.440611,-0.24788 0.868627,-0.74837 0.951151,-1.11217 0.0825,-0.3638 0.309033,-1.13771 0.503422,-1.71979 0.560203,-1.67762 0.677122,-2.46846 0.391081,-2.64523 -0.539433,-0.3334 -0.238839,-1.17472 0.694584,-1.94413 0.772822,-0.63704 0.928635,-0.91697 0.798671,-1.43483 -0.155945,-0.62127 -0.202115,-0.63307 -1.344215,-0.34306 -1.517253,0.38523 -1.635125,0.52406 -1.116648,1.31532 0.364596,0.55647 0.395499,1.06878 0.208783,3.4612 -0.217302,2.78445 -0.227833,2.81723 -1.252008,3.90237 -0.568061,0.60187 -1.157473,1.23499 -1.309767,1.40694 -0.152321,0.17196 -0.528003,0.39233 -0.834867,0.48972 -0.675322,0.21434 -0.992425,-0.19518 -3.089275,-3.98955 -1.383294,-2.50311 -1.487487,-2.81352 -1.487487,-4.43177 0,-1.7141 -0.01058,-1.74011 -0.714375,-1.74011 -0.555625,0 -0.643811,0.0706 -0.396875,0.3175 0.174625,0.17463 0.3175,0.81103 0.3175,1.4142 0,1.34374 -0.534776,1.8937 -1.984375,2.04073 l -1.058334,0.10737 1.1498,0.0445 c 1.627426,0.0629 2.499784,0.68524 3.356531,2.39437 0.40984,0.81761 1.208855,2.22671 1.775566,3.13134 0.750808,1.19849 0.965359,1.76096 0.790733,2.07299 -0.131816,0.23553 -1.054126,1.13249 -2.049594,1.99324 -2.018506,1.74537 -2.338176,1.81803 -5.662825,1.28674 -3.049296,-0.48725 -2.878561,-0.38991 -3.110785,-1.77323 -0.115941,-0.69067 -0.184098,-1.46413 -0.151474,-1.71879 0.08702,-0.67892 -0.381953,-0.56555 -0.547132,0.13229 -0.0775,0.32742 -0.224208,1.40713 -0.32602,2.39938 l -0.185129,1.80408 0.90895,-0.17052 c 0.499903,-0.0938 2.088171,-0.039 3.529462,0.12168 3.541316,0.39489 3.883369,0.70205 3.67239,3.29771 -0.146658,1.80444 -0.196877,1.91617 -1.348395,3.00062 -0.657834,0.61952 -1.481218,1.19798 -1.82978,1.28545 -0.442013,0.11094 -0.633756,0.34578 -0.633756,0.77623 0,0.33944 -0.128006,0.69628 -0.28448,0.79299 -0.181425,0.11213 -0.06212,0.41248 0.329353,0.8292 l 0.613833,0.65339 0.157586,-0.77055 c 0.08668,-0.42378 0.230929,-0.88916 0.320517,-1.03415 z m 12.925504,-13.24099 c 0.382667,-0.32755 0.492284,-0.29821 0.89244,0.23868 0.295381,0.39635 0.401003,0.44889 0.299641,0.14909 -0.26633,-0.78779 0.07789,-1.27026 0.780494,-1.09392 0.479875,0.12044 0.633862,0.0514 0.633862,-0.28429 0,-0.31676 -0.145018,-0.39735 -0.507814,-0.28221 -0.363723,0.11544 -0.556763,0.007 -0.680218,-0.38192 -0.219392,-0.69125 -2.251551,-1.74353 -2.251551,-1.16586 0,0.20997 -0.446484,0.64566 -0.992188,0.96816 l -0.992187,0.5864 0.859896,0.0829 c 0.872146,0.0841 0.959511,0.21878 0.866351,1.33585 -0.05458,0.65477 0.187299,0.62087 1.091274,-0.1529 z m -17.321159,-1.18319 c -0.08446,-0.21106 -0.147161,-0.14838 -0.159861,0.15986 -0.01138,0.2789 0.05106,0.43519 0.138985,0.34727 0.08792,-0.0879 0.09731,-0.31613 0.0209,-0.50713 z m 0.608965,-1.33945 c 0.0027,-0.10914 -0.115015,-0.19844 -0.260535,-0.19844 -0.145521,0 -0.262758,0.26789 -0.260536,0.59531 0.0032,0.48138 0.05313,0.51938 0.260536,0.19844 0.141075,-0.21828 0.258312,-0.48617 0.260535,-0.59531 z m 20.108333,0.13229 c -0.0029,-0.52954 -0.06831,-0.62611 -0.240109,-0.35473 -0.129831,0.20508 -0.174784,0.5325 -0.09993,0.72761 0.214709,0.55948 0.344434,0.41722 0.340042,-0.37288 z m -18.840159,-4.09162 c 0.367903,-0.39503 0.749935,-0.66816 0.848942,-0.60696 0.388462,0.24008 0.153141,-0.77428 -0.280141,-1.20756 -0.437118,-0.43712 -0.49522,-0.38195 -1.161679,1.10316 -0.385868,0.85981 -0.61341,1.70592 -0.505672,1.88026 0.144304,0.23352 0.226669,0.2159 0.312738,-0.0669 0.06429,-0.21111 0.417883,-0.70702 0.785812,-1.10201 z m 2.529126,-4.9706 c -0.463815,-0.42923 -1.412002,-0.57243 -1.412002,-0.21323 0,0.209 0.330914,0.36489 0.816689,0.38473 0.449183,0.0183 0.717101,-0.0588 0.595313,-0.1715 z m 2.292165,-0.77568 c 0,-0.29611 -0.492258,-0.4447 -2.248959,-0.67883 -1.633299,-0.21767 -1.34157,0.23021 0.396875,0.60927 1.601735,0.34928 1.852084,0.3587 1.852084,0.0696 z m 13.883454,-2.4776 c 1.914208,-0.8963 2.418821,-1.33131 3.105812,-2.67737 0.46355,-0.90826 0.510963,-1.38153 0.384492,-3.83646 -0.146896,-2.85105 -0.362214,-4.90472 -0.579622,-5.52805 -0.144463,-0.41415 -4.340278,-2.42916 -6.695678,-3.21556 -1.45468,-0.48567 -2.295499,-0.55938 -6.379607,-0.55938 -5.316749,0 -6.339867,0.22035 -10.395241,2.23896 -3.183943,1.58485 -3.377777,1.95381 -3.377777,6.43001 0,4.64579 0.424101,5.5862 3.133672,6.94896 1.869652,0.94036 2.960502,1.03566 11.28612,0.9861 l 7.9375,-0.0473 z m -12.122652,-3.05118 c -0.642118,-0.70953 -0.563325,-2.04411 0.150151,-2.54386 0.323426,-0.22654 0.832723,-0.41188 1.131755,-0.41188 0.60751,0 1.719792,0.69091 1.719792,1.06829 0,0.13631 -0.509112,0.17473 -1.15062,0.0868 -0.960279,-0.13164 -1.181497,-0.0772 -1.33731,0.32879 -0.215318,0.5611 0.535014,1.25725 1.115165,1.03463 0.509429,-0.19547 0.847831,0.073 0.671434,0.53266 -0.213995,0.55766 -1.767655,0.49318 -2.300367,-0.0954 z m -9.609111,-0.20552 c -0.460296,-0.22702 -0.977927,-0.75327 -1.150303,-1.16944 -0.356394,-0.8604 -0.147928,-2.61935 0.448522,-3.78441 0.769593,-1.50328 3.431408,-1.87619 4.937284,-0.69168 1.115827,0.87771 1.408244,3.08372 0.623517,4.70382 -0.632646,1.30609 -3.136398,1.79131 -4.85902,0.94171 z m 3.251755,-1.30736 c 1.486429,-0.93528 0.770732,-3.09034 -1.078071,-3.24628 -1.148847,-0.0969 -1.87415,0.41844 -2.076159,1.47513 -0.379809,1.98678 1.306565,2.9337 3.15423,1.77115 z m 15.699185,1.00454 c -1.969426,-1.7648 -1.306619,-5.24748 1.123182,-5.90177 2.310289,-0.62209 3.949595,0.55764 4.333637,3.11867 0.34253,2.28415 -0.86278,3.5107 -3.449902,3.5107 -0.930354,0 -1.374748,-0.1611 -2.006917,-0.7276 z m 3.040089,-0.59058 c 0.920247,-0.34986 1.304237,-1.41015 0.925909,-2.55651 -0.46953,-1.42269 -2.542566,-1.60559 -3.50602,-0.30932 -0.471408,0.63423 -0.490723,0.8014 -0.179335,1.55313 0.275855,0.66596 1.215999,1.39049 2.027105,1.56221 0.02691,0.006 0.356474,-0.10658 0.732341,-0.24951 z m 1.846421,-11.31993 c -1.865286,-3.24453 -3.553725,-7.24133 -3.553725,-8.4123 0,-0.23629 -0.238125,-0.73236 -0.529166,-1.10236 -0.540623,-0.6873 -0.715248,-2.04263 -0.296519,-2.30142 0.127953,-0.0791 0.295434,-0.38394 0.372189,-0.67744 0.240533,-0.9198 -0.289956,-0.31197 -1.29278,1.48124 -0.952341,1.70297 -0.958162,1.73141 -0.429657,2.10159 1.185254,0.83021 4.821767,7.89376 4.821767,9.36585 0,0.27345 0.327422,0.73729 0.727604,1.03077 1.026636,0.75287 1.103445,0.11983 0.180287,-1.48593 z m -22.428465,-1.10831 c -0.05977,-2.92746 0.151183,-3.11963 2.917137,-2.65729 3.253582,0.54385 3.774387,0.82611 3.782722,2.05009 0.0026,0.35097 0.166952,0.59532 0.400923,0.59532 0.218281,0 0.396875,-0.1042 0.396875,-0.23151 0,-0.12735 0.07175,-0.59032 0.159464,-1.02886 0.147506,-0.73742 0.0844,-0.82212 -0.840052,-1.12721 -0.549751,-0.18142 -1.576202,-0.37028 -2.281026,-0.41965 -0.704823,-0.0494 -1.50958,-0.21188 -1.788371,-0.36108 -0.278792,-0.1492 -0.734404,-0.27128 -1.012455,-0.27128 -0.27805,0 -0.719481,-0.23638 -0.980943,-0.5253 -0.465984,-0.51491 -0.492019,-0.48702 -1.315772,1.4079 -0.462228,1.06326 -1.04066,2.21911 -1.285399,2.56855 -0.570759,0.81486 -0.561208,1.04677 0.04313,1.04677 0.268499,0 0.703659,0.23813 0.967052,0.52917 0.263393,0.29104 0.569066,0.52916 0.679291,0.52916 0.110225,0 0.181054,-0.94715 0.157427,-2.10478 z m 8.72453,-4.53914 c 0.267441,-0.74375 0.807667,-1.62269 1.20052,-1.95326 l 0.714243,-0.601 -0.475324,-0.89101 c -0.585205,-1.09699 -0.461592,-3.79154 0.209285,-4.56137 0.386345,-0.44331 0.695802,-0.47784 2.945236,-0.32848 2.20988,0.14671 2.581646,0.24384 3.077184,0.80402 l 0.563668,0.63717 0.957686,-1.96308 c 0.526759,-1.07968 0.953426,-2.23062 0.948187,-2.55765 -0.0093,-0.57533 -0.02842,-0.57078 -0.595312,0.14116 -0.322183,0.40463 -0.977265,1.16364 -1.455711,1.68669 -0.865055,0.94565 -0.879131,0.95001 -2.513542,0.77843 -3.74695,-0.39341 -3.872865,-0.43217 -4.630843,-1.42576 -0.63799,-0.83627 -0.716942,-1.16713 -0.716942,-3.00437 0,-1.90055 0.05805,-2.12294 0.730488,-2.79889 0.598329,-0.60148 1.172687,-0.81082 3.175,-1.15726 1.44399,-0.24988 2.625964,-0.33158 2.887822,-0.19969 0.243813,0.1228 0.829416,0.81915 1.301326,1.54745 0.851747,1.31447 1.271138,1.62835 1.327362,0.99343 0.113268,-1.2791 -0.630687,-4.03511 -1.267725,-4.69636 -0.338216,-0.35105 -0.459872,-0.30757 -1.053967,0.37664 -0.565706,0.65153 -1.053359,0.84754 -3.092212,1.2428 -1.331331,0.2581 -2.688484,0.47556 -3.015906,0.48326 -1.159748,0.0272 -2.269464,-1.6438 -2.571168,-3.8717 -0.134858,-0.99581 -0.283898,-1.33448 -0.543481,-1.23486 -0.196717,0.0755 -0.29255,0.30689 -0.212989,0.51427 0.390842,1.01851 -2.449883,3.28334 -4.11824,3.28334 H 47.70838 l 0.845634,0.87249 c 0.707576,0.73002 0.845662,1.07567 0.845662,2.11667 0,0.89223 0.105171,1.24418 0.371792,1.24418 0.290274,0 0.345176,-0.33348 0.250428,-1.52136 l -0.121364,-1.52135 1.164537,-0.8599 c 0.640477,-0.47294 1.279419,-0.85989 1.41986,-0.85989 0.304826,0 1.443037,1.19078 2.023242,2.11666 0.365972,0.58399 0.371634,0.84453 0.04842,2.22459 -0.201374,0.85974 -0.521309,1.66958 -0.710988,1.79965 -0.18968,0.13007 -1.029494,0.17261 -1.866239,0.0946 -1.256347,-0.11721 -1.521354,-0.0708 -1.521354,0.26649 0,0.22465 0.111442,0.33956 0.247623,0.2554 0.438336,-0.27091 2.429563,0.32361 3.056494,0.9126 0.33438,0.31411 0.87159,1.29416 1.1938,2.17789 0.595233,1.63248 0.598672,1.77723 0.142584,6.02716 -0.05466,0.50932 -0.345679,1.69994 -0.646721,2.64583 -0.621745,1.95347 -0.646113,2.11667 -0.316178,2.11667 0.13089,0 0.45683,-0.60852 0.724271,-1.35226 z m 3.227176,-3.39429 c 0.06006,-0.41045 -0.02461,-0.56676 -0.264584,-0.48773 -0.194151,0.064 -0.3928,0.38817 -0.441404,0.72041 -0.06009,0.41044 0.02461,0.56676 0.264583,0.4877 0.194125,-0.064 0.392774,-0.38814 0.441405,-0.72038 z m 2.91338,-0.13123 c 0.07083,-0.36785 -0.0172,-0.44821 -0.350785,-0.3202 -0.244925,0.094 -0.673735,0.17089 -0.95287,0.17089 -0.319723,0 -0.507524,0.18344 -0.507524,0.49575 0,0.41881 0.133218,0.4685 0.858308,0.3202 0.538851,-0.1102 0.893498,-0.3583 0.952871,-0.66664 z m 4.218093,-4.94798 c -0.06607,-0.19817 -0.186002,-0.0782 -0.279559,0.27954 -0.115093,0.44011 -0.08065,0.5434 0.115676,0.34705 0.153776,-0.15375 0.227489,-0.43571 0.163883,-0.62659 z m -16.485658,-2.70314 0.706517,-0.49035 -0.55671,-0.38992 c -0.506333,-0.35467 -0.615421,-0.33424 -1.205892,0.22577 -0.378592,0.35902 -0.651113,0.91901 -0.653785,1.34329 -0.0045,0.7012 0.01376,0.71081 0.499374,0.26459 0.277178,-0.25467 0.821902,-0.68369 1.210496,-0.95338 z m -3.455882,-1.65462 c 0.230188,-0.0883 0.418518,-0.44551 0.418518,-0.79375 0,-0.77113 -0.456592,-0.80809 -2.267982,-0.18365 l -1.303893,0.4495 1.058333,0.32393 c 1.265211,0.38722 1.546199,0.41458 2.095024,0.20397 z m 23.040393,-0.20397 1.058333,-0.32393 -1.303893,-0.4495 c -1.815676,-0.62592 -2.267982,-0.58806 -2.267982,0.18992 0,0.97131 0.708793,1.13585 2.513542,0.58351 z m -21.43125,-6.25001 c 0.206957,-0.33486 -0.143298,-0.33486 -0.661458,0 -0.342027,0.22103 -0.335042,0.25704 0.05054,0.26053 0.246062,0.003 0.520991,-0.11501 0.610922,-0.26053 z"
         id="path4147"
         inkscape:export-xdpi="400"
         inkscape:export-ydpi="400" />
      <path
         id="path5046"
         style="fill:#f56a6a;fill-opacity:1;stroke:#f56a6a;stroke-width:0.00835218;stroke-opacity:1;marker-end:url(#marker7098)"
         d="m 45.660897,138.20839 c -0.481189,0.0878 -0.963099,0.17424 -1.441254,0.2775 -0.547658,0.12927 -1.091115,0.28213 -1.615924,0.48628 -0.323331,0.13551 -0.650071,0.26421 -0.966864,0.41444 -0.01508,0.0186 0.06032,0.0186 0.07338,0.03 0.40123,0.10778 0.800852,0.22141 1.205611,0.31523 0.453771,0.0935 0.916139,0.15124 1.379244,0.1664 0.296058,-10e-6 0.597863,0.003 0.885735,-0.0755 0.144031,-0.0364 0.263597,-0.14567 0.311608,-0.28629 0.08822,-0.24417 0.08587,-0.50801 0.118856,-0.76274 0.01744,-0.18821 0.03981,-0.37824 0.05168,-0.56534 z" />
      <path
         style="fill:#f56a6a;fill-opacity:1;stroke:#f56a6a;stroke-width:0.00600001;stroke-miterlimit:4;stroke-dasharray:none;stroke-opacity:1;marker-end:url(#marker7108)"
         d="m 65.902685,138.37451 c -0.10316,-0.005 -0.48394,-0.3063 -0.55956,-0.22917 -0.0842,0.0859 0.19485,0.53161 0.19815,0.64177 0.0143,0.20864 -0.41018,0.39399 -0.36113,0.59637 0.0333,0.14679 0.57123,0.31163 0.68038,0.4198 0.18341,0.19048 0.4542,0.25677 0.7089,0.28075 0.22654,0.0213 0.45443,0.004 0.67999,-0.0204 0.72399,-0.086 1.41982,-0.31318 2.11986,-0.50643 0.078,-0.0233 0.16008,-0.0437 0.23552,-0.0698 -0.35475,-0.15598 -0.71229,-0.30585 -1.06932,-0.45662 -0.54842,-0.22623 -1.11741,-0.40134 -1.69526,-0.53463 -0.24874,-0.0537 -0.46681,-0.86701 -0.72059,-0.88779 -0.0611,-0.003 -0.15576,0.76602 -0.21694,0.76602 z"
         id="path5614"
         sodipodi:nodetypes="cscccccccccccc" />
      <path
         style="fill:#0a0807;stroke:#000000;stroke-width:0.465;stroke-miterlimit:4;stroke-dasharray:none;stroke-opacity:1"
         d="m 48.94473,206.49989 c -0.679768,-0.4503 -1.252247,-0.95631 -1.272144,-1.12448 -0.01984,-0.1682 -0.0093,-1.55596 0.02328,-3.08393 l 0.05953,-2.77813 -0.836691,-0.79375 c -0.460164,-0.43656 -1.274366,-1.50812 -1.809301,-2.38125 -0.960993,-1.56858 -0.971973,-1.61848 -0.921199,-4.18676 0.02879,-1.4572 0.227621,-3.14291 0.45249,-3.83646 0.22061,-0.68046 0.591238,-2.35659 0.823621,-3.72475 0.232357,-1.36814 0.650902,-2.93526 0.93009,-3.48253 0.577453,-1.13191 1.676268,-4.00262 1.933072,-5.05024 0.161634,-0.65939 0.09562,-0.7199 -1.09765,-1.00615 -2.060205,-0.49424 -3.898821,-1.69704 -4.710033,-3.08126 -0.709004,-1.20983 -0.715275,-1.26447 -0.739643,-6.45316 l -0.02461,-5.23296 1.761702,-3.40413 c 2.97987,-5.75797 3.206062,-6.92253 2.567622,-13.21988 l -0.300857,-2.96759 -1.128845,0.0172 c -1.443726,0.0217 -3.567695,-0.56907 -3.749596,-1.04315 -0.280749,-0.73157 0.830554,-2.8812 2.285127,-4.42015 1.593559,-1.68603 3.536394,-3.06936 4.31083,-3.06936 0.265668,0 0.937419,-0.30067 1.492726,-0.66817 0.999913,-0.6617 1.007719,-0.68033 0.803857,-1.91823 -0.113215,-0.68752 -0.212936,-1.39888 -0.221615,-1.58078 -0.0087,-0.1819 -0.261726,-0.33073 -0.562319,-0.33073 -1.03714,0 -1.570117,-0.49289 -1.570117,-1.45206 0,-1.27754 0.474954,-2.16546 1.352841,-2.52907 0.951204,-0.39402 2.478379,-0.12515 3.15984,0.55631 0.586343,0.58634 0.682519,1.89759 0.170339,2.32264 -0.265747,0.22056 -0.284903,0.60852 -0.08414,1.70448 l 0.259926,1.4189 0.944034,-0.33753 c 1.2632,-0.45164 3.414209,-0.44593 4.713578,0.0124 l 1.057937,0.37325 0.173593,-1.47688 c 0.105515,-0.89781 0.06683,-1.58361 -0.09864,-1.74908 -0.149728,-0.14973 -0.27223,-0.66688 -0.27223,-1.14925 0,-0.70551 0.168143,-0.97954 0.859896,-1.40131 1.804035,-1.09992 3.766317,-0.3039 4.078076,1.65431 0.187166,1.17557 -0.162983,1.70175 -1.333236,2.00337 -0.783246,0.20188 -0.83386,0.29369 -0.964617,1.75025 -0.13642,1.51947 -0.127292,1.54447 0.789013,2.16714 0.509879,0.34645 1.107758,0.63104 1.328632,0.63241 0.76081,0.005 3.05017,1.52339 4.281964,2.84054 1.208087,1.2918 2.601939,3.64644 2.601939,4.3955 0,0.5194 -1.918547,1.24063 -3.474561,1.30619 l -1.287754,0.0542 -0.02567,3.96875 c -0.01402,2.18282 -0.0032,4.4418 0.02434,5.01997 0.06178,1.29513 1.014995,3.87652 2.288196,6.19646 1.809724,3.29764 1.961092,3.65287 2.220754,5.21237 0.143113,0.85958 0.333375,3.18659 0.422778,5.17113 0.156898,3.48308 0.139038,3.65963 -0.515065,5.08836 -0.759883,1.65978 -2.236655,2.8023 -4.485878,3.47046 -0.693526,0.20603 -1.372949,0.44381 -1.509765,0.52837 -0.232172,0.14348 0.761338,3.21741 2.053775,6.35455 0.546126,1.32557 1.455499,5.52416 1.948418,8.99584 0.467175,3.29022 -0.0172,4.87809 -2.297377,7.53088 l -1.24243,1.44548 0.09586,2.91835 0.09586,2.91835 -1.286696,0.8617 c -0.707654,0.47392 -1.512675,0.86169 -1.788927,0.86169 -0.276225,0 -1.210918,-0.48373 -2.077058,-1.07494 l -1.5748,-1.07495 -0.07586,-2.41673 -0.07583,-2.41674 -0.859896,-0.50141 c -0.844047,-0.4922 -0.875771,-0.4922 -1.719792,6e-5 l -0.859895,0.50146 -0.07572,2.56373 -0.0757,2.56374 -0.850345,0.43614 c -0.467677,0.23987 -1.134269,0.65743 -1.481322,0.92789 -0.888498,0.69241 -1.60581,0.61497 -3.027813,-0.32692 z m 3.413125,-0.57039 c 1.065291,-0.6445 1.423193,-1.01611 1.428803,-1.48352 0.0061,-0.49559 -0.08752,-0.58214 -0.455507,-0.42156 -0.254662,0.11112 -0.969037,0.32954 -1.5875,0.48532 -1.074156,0.27062 -1.124479,0.32798 -1.124479,1.28149 0,0.54898 0.07141,0.99816 0.15867,0.99816 0.08729,0 0.798275,-0.38695 1.580013,-0.85989 z m 9.109233,-0.205 c 0,-0.81809 -0.319907,-1.05452 -1.996043,-1.47521 -1.045474,-0.26241 -0.795046,0.48154 0.474689,1.41018 1.41814,1.03716 1.521354,1.04158 1.521354,0.065 z m -11.377083,-0.0738 c 0,-0.3493 -0.395393,-0.99282 -0.926042,-1.50712 l -0.926041,-0.89754 v 1.04407 c 0,0.85574 0.131656,1.12326 0.727604,1.48293 0.9906,0.59783 1.124003,0.5833 1.124003,-0.12234 z m 13.295313,0.0956 c 0.57568,-0.28856 0.727604,-0.5492 0.727604,-1.24828 0,-1.06894 -0.150098,-1.09228 -1.110007,-0.17261 -0.645768,0.61867 -1.087199,2.14712 -0.543639,1.88227 0.10914,-0.0532 0.525859,-0.2608 0.926042,-0.46138 z m -9.536351,-4.08959 c 0.07205,-1.48338 0.140811,-1.63838 0.976524,-2.20027 1.126596,-0.75753 1.572948,-0.75761 2.699861,0 0.814811,0.54742 0.911411,0.74962 1.03132,2.15855 0.126788,1.48973 0.175101,1.57668 1.159457,2.08592 1.507992,0.78012 2.398871,0.68834 3.478794,-0.35838 0.859605,-0.83312 0.917999,-0.99764 0.917999,-2.58569 0,-1.51784 0.07334,-1.75366 0.698447,-2.24536 0.384148,-0.30216 1.158055,-1.2605 1.719791,-2.12961 1.006423,-1.55715 1.021266,-1.61731 1.015127,-4.1189 -0.0042,-1.671 -0.18497,-3.21077 -0.529166,-4.50514 -0.287629,-1.08156 -0.532342,-2.21265 -0.543825,-2.51354 -0.01667,-0.43751 -0.07586,-0.39616 -0.295275,0.20643 -0.193834,0.53234 -0.187722,0.94366 0.0209,1.4015 0.521309,1.14414 0.373486,1.67904 -0.513,1.85634 -0.53647,0.10729 -0.761683,0.283 -0.66974,0.52255 0.194072,0.50575 -0.098,1.15464 -0.519668,1.15464 -0.194469,0 -0.535464,-0.25968 -0.757794,-0.57708 -0.380814,-0.54369 -0.432699,-0.55134 -0.89572,-0.13229 -0.270351,0.24463 -0.688234,0.44479 -0.928661,0.44479 -0.452887,0 -0.882147,-1.09786 -0.604758,-1.54667 0.08631,-0.13962 -0.200157,-0.37833 -0.636535,-0.53044 -1.057354,-0.36862 -1.059047,-1.21153 -0.0034,-1.75736 0.479954,-0.24821 0.85254,-0.6921 0.94951,-1.13128 0.08779,-0.39751 0.321125,-1.25857 0.51853,-1.91342 0.197406,-0.65484 0.395208,-1.48828 0.439553,-1.85208 0.04434,-0.3638 0.199681,-0.62389 0.345202,-0.57795 0.319457,0.1008 0.281675,0.35634 -0.470588,3.18433 -0.49657,1.86672 -0.703263,2.26934 -1.33223,2.5952 -0.892996,0.46267 -0.80862,0.98414 0.178091,1.10069 0.661987,0.0782 0.702945,0.15272 0.545465,0.99219 -0.197565,1.05315 -0.06985,1.10249 0.958532,0.37023 l 0.754724,-0.53742 0.287629,0.53742 c 0.429657,0.80285 0.807111,0.64833 0.626189,-0.25636 -0.154067,-0.77022 -0.134276,-0.78882 0.668073,-0.62838 0.713555,0.14272 0.826823,0.0901 0.826823,-0.38373 0,-0.30199 -0.18497,-0.65259 -0.41103,-0.77911 -0.367983,-0.20593 -0.357426,-0.42344 0.100753,-2.07683 0.508397,-1.83459 0.508265,-1.85549 -0.01693,-3.15658 -0.290751,-0.72035 -0.862145,-2.20271 -1.269789,-3.29412 -0.479028,-1.28248 -0.865822,-1.95207 -1.093523,-1.89309 -2.635567,0.68281 -4.28445,0.83413 -7.96417,0.73083 -2.530316,-0.071 -4.497572,-0.26003 -5.286904,-0.50794 -0.691409,-0.21717 -1.30085,-0.31716 -1.354323,-0.22223 -0.05347,0.095 -0.246009,0.64889 -0.427857,1.23098 -0.181875,0.58208 -0.688631,1.8861 -1.126146,2.89782 -0.928926,2.14799 -0.953744,2.49849 -0.319882,4.51374 0.443045,1.40853 0.445294,1.52908 0.03307,1.75979 -0.243416,0.13621 -0.442568,0.49475 -0.442568,0.79674 0,0.469 0.115808,0.52594 0.79375,0.39034 0.749908,-0.14996 0.794094,-0.1116 0.79965,0.69453 l 0.0058,0.85329 0.505592,-0.65805 0.505593,-0.65804 0.630052,0.59189 c 0.870585,0.81788 1.080029,0.74288 0.881433,-0.31572 -0.15748,-0.83947 -0.116496,-0.91401 0.545465,-0.99219 0.986816,-0.11658 1.070874,-0.63751 0.178117,-1.10389 -0.627274,-0.32772 -0.841454,-0.74396 -1.360487,-2.64396 -0.338799,-1.24026 -0.568087,-2.53074 -0.509561,-2.86774 0.133112,-0.76634 0.225742,-0.53581 1.004782,2.50026 0.499004,1.94479 0.706305,2.37236 1.283969,2.64832 0.950781,0.45419 1.053042,1.42047 0.191876,1.81282 -0.467016,0.2128 -0.689372,0.54822 -0.745675,1.12488 -0.09612,0.98451 -0.800602,1.22642 -1.562761,0.53668 -0.496755,-0.44956 -0.533083,-0.44524 -0.921359,0.10911 -0.58592,0.83651 -1.167976,0.73771 -1.167976,-0.19825 0,-0.59052 -0.135467,-0.7955 -0.568299,-0.8599 -0.918369,-0.13663 -1.226688,-0.8891 -0.724482,-1.7681 0.361765,-0.63318 0.375153,-0.86487 0.08763,-1.51628 -0.336524,-0.76245 -0.33954,-0.76334 -0.360865,-0.10662 -0.01164,0.3643 -0.259583,1.49503 -0.550625,2.51275 -0.74459,2.60365 -0.729932,6.10481 0.03191,7.6173 0.702204,1.39417 2.281979,3.36309 2.697798,3.36235 0.218466,-2.7e-4 0.285856,0.52713 0.223096,1.74665 -0.08318,1.61647 -0.03368,1.80665 0.661459,2.54158 1.110932,1.17454 1.60438,1.27199 3.3197,0.65556 l 1.509977,-0.54266 z m 8.488706,-25.29258 c 0.697098,-0.18402 1.23153,-0.4423 1.187636,-0.57401 -0.108771,-0.32629 -14.594893,-0.31459 -14.703717,0.0119 -0.04606,0.13822 0.5479,0.3792 1.319927,0.53555 0.772028,0.15632 1.641819,0.33208 1.932861,0.39058 1.15189,0.23148 9.071319,-0.0494 10.263293,-0.36396 z m 2.136035,-1.71863 c 2.297879,-0.48686 3.949223,-1.45031 4.870661,-2.84178 0.681091,-1.02851 0.719217,-1.24714 0.677704,-3.88797 -0.07086,-4.50866 -0.298053,-5.9617 -1.041347,-6.66001 -0.354224,-0.33274 -0.88355,-0.64157 -1.176311,-0.68623 -0.292762,-0.0447 -1.11723,-0.37766 -1.832187,-0.73996 -0.71493,-0.36227 -2.190882,-0.95779 -3.279881,-1.32336 -1.808268,-0.60701 -2.37355,-0.66466 -6.516925,-0.66466 -4.173035,0 -4.699794,0.0547 -6.567938,0.68156 -1.11707,0.37486 -3.022758,1.19629 -4.234894,1.82542 -1.748023,0.90725 -2.083356,1.01557 -1.621234,0.52366 0.677201,-0.72089 4.743926,-2.56424 6.890252,-3.12325 1.067382,-0.278 2.757012,-0.36997 6.085417,-0.33126 4.342633,0.0505 4.721966,0.0966 6.592147,0.80071 1.091406,0.4109 2.535422,1.02465 3.208919,1.36388 0.673497,0.33922 1.292305,0.54901 1.375119,0.46619 0.08284,-0.0828 0.472705,0.10279 0.866378,0.41246 0.393674,0.30967 0.758402,0.52041 0.810498,0.46831 0.202222,-0.20222 -0.721995,-2.35167 -1.72921,-4.02164 -0.581052,-0.9634 -1.430417,-2.7845 -1.887458,-4.04685 -0.785125,-2.1685 -0.830554,-2.49979 -0.822802,-5.9994 0.0082,-3.67541 0.0048,-3.69597 -0.422486,-2.64584 -0.236908,0.58209 -0.750809,1.53459 -1.142048,2.11667 -1.142709,1.70016 -2.569924,4.68061 -2.755212,5.75366 -0.315145,1.82528 -1.586786,2.67567 -4.926277,3.29432 -0.886989,0.16434 -3.893741,-0.83074 -4.646163,-1.53762 -0.324326,-0.30467 -0.732578,-1.16666 -0.90723,-1.91551 -0.309721,-1.32807 -1.519925,-3.79637 -2.840408,-5.79329 -0.360865,-0.5457 -0.670057,-0.99245 -0.687096,-0.99277 -0.01693,0 0.0071,1.13938 0.05376,2.53267 0.105357,3.14915 -0.229261,4.29663 -2.642447,9.06164 -1.988846,3.9271 -1.895025,3.39553 -1.927145,10.91589 -0.01244,2.90314 0.02461,3.11954 0.708607,4.15255 0.901515,1.36139 2.573496,2.35834 4.746122,2.82991 2.418927,0.52504 14.259349,0.53348 16.721112,0.0119 z m -9.81382,-3.63056 c -0.780177,-0.37652 -0.977873,-1.09259 -0.549592,-1.99051 0.270378,-0.56684 0.562583,-0.7498 1.295903,-0.8114 0.599757,-0.0504 1.067355,0.0657 1.275688,0.31676 0.284321,0.34258 0.173752,0.38918 -0.816398,0.34409 -1.107731,-0.0504 -1.145276,-0.0262 -1.145276,0.7416 0,0.70213 0.09927,0.80333 0.859896,0.87667 0.916887,0.0884 1.130168,0.4182 0.441378,0.68252 -0.526971,0.20222 -0.638836,0.1891 -1.361599,-0.15973 z m -9.75524,-0.43436 c -1.221978,-0.57073 -1.429412,-0.93485 -1.428803,-2.50814 0,-1.36351 0.709507,-2.83464 1.587077,-3.29317 1.08368,-0.56615 3.160792,-0.26072 3.875246,0.56989 1.204304,1.40007 1.036373,4.2065 -0.304218,5.08492 -1.010708,0.66223 -2.499836,0.72073 -3.729302,0.1465 z m 3.213021,-1.21772 c 1.414012,-1.41401 0.550492,-3.58388 -1.426237,-3.58388 -1.043331,0 -1.525243,0.34705 -2.145824,1.54535 -0.373009,0.72022 0.02249,1.99625 0.750438,2.42162 0.81825,0.47808 2.139871,0.29866 2.821623,-0.38309 z m 16.080184,1.28093 c -1.535007,-0.757 -2.08534,-2.8493 -1.208987,-4.59655 0.553799,-1.10419 1.412081,-1.58203 2.851123,-1.58729 1.88648,-0.007 3.035433,1.34525 3.035433,3.57224 0,1.60666 -0.295963,2.09394 -1.585146,2.60975 -1.329742,0.53207 -2.016442,0.53247 -3.092423,0.003 z m 2.806594,-0.88596 c 0.763561,-0.40865 1.185466,-1.69074 0.800788,-2.4335 -0.611346,-1.18047 -1.106223,-1.54535 -2.095923,-1.54535 -1.295506,0 -2.125557,0.78364 -2.125557,2.0067 0,1.70127 1.890395,2.79114 3.420692,1.97215 z m -8.29392,-15.86793 c 0.992531,-0.43855 1.117494,-0.61103 1.544108,-2.13151 0.469212,-1.67228 1.744345,-4.24035 3.112109,-6.26772 0.410395,-0.6083 0.746178,-1.23338 0.746178,-1.38906 0,-0.15568 0.259027,-0.54208 0.575601,-0.85865 0.565494,-0.5655 0.569806,-0.62937 0.245983,-3.63802 -0.635741,-5.90677 -1.318234,-7.0299 -5.502566,-9.05524 -3.127534,-1.51381 -4.4636,-1.52106 -7.54806,-0.041 -3.093376,1.48431 -4.003993,2.35243 -4.745831,4.52445 -0.490935,1.43746 -0.607219,2.3512 -0.612908,4.81669 -0.0079,3.37772 -0.02717,3.31959 2.601595,7.80521 0.682255,1.16416 1.476693,2.90652 1.765406,3.87191 0.288687,0.96541 0.706676,1.90611 0.928794,2.09047 1.25386,1.04061 4.830974,1.18208 6.889591,0.2725 z m -6.239272,-4.22887 c 0,-0.89765 0.30644,-1.34455 0.921941,-1.34455 0.733954,0 1.278096,0.6016 1.12522,1.24407 -0.104008,0.43714 -0.131022,0.4328 -0.33327,-0.0534 -0.454607,-1.09307 -1.184724,-1.08344 -1.184724,0.0156 0,0.35523 -0.119063,0.64585 -0.264584,0.64585 -0.14552,0 -0.264583,-0.22839 -0.264583,-0.50753 z m 5.772256,-0.22008 c -0.103267,-0.89757 -0.747236,-0.9575 -1.170305,-0.10887 -0.376079,0.75433 -0.659792,0.40979 -0.346075,-0.42029 0.162428,-0.42979 0.439473,-0.59531 0.996394,-0.59531 0.74803,0 1.082569,0.46516 1.094105,1.52135 0.0071,0.65794 -0.492495,0.31253 -0.574119,-0.39688 z m -9.336485,-8.95982 c -0.762079,-0.76208 -0.32586,-1.95424 0.715037,-1.95424 0.589148,0 0.844312,0.5769 0.631058,1.42661 -0.201904,0.80446 -0.825024,1.0487 -1.346095,0.52763 z m 12.455631,0.0832 c -0.681646,-0.49845 -0.48387,-1.87793 0.284957,-1.98739 0.869129,-0.12372 1.306777,0.85026 0.758216,1.68746 -0.493712,0.75348 -0.44286,0.73887 -1.043173,0.29993 z m -15.552605,-1.4791 0.08565,-0.89683 -1.081934,0.17301 c -0.595074,0.0951 -1.581335,0.37282 -2.191676,0.61703 l -1.109716,0.44403 0.783088,0.3402 c 0.430689,0.18711 1.3784,0.31303 2.106004,0.27979 1.296537,-0.0592 1.324636,-0.0783 1.408588,-0.95723 z m 23.186999,0.67125 0.783087,-0.33401 -1.109715,-0.44403 c -0.610341,-0.24421 -1.587818,-0.52049 -2.17215,-0.61391 -0.949378,-0.15182 -1.062435,-0.11229 -1.062435,0.37145 0,1.1403 0.270537,1.37887 1.549665,1.36644 0.67564,-0.007 1.580859,-0.16224 2.011548,-0.34594 z m -24.933275,-1.65936 1.778979,-0.47763 0.283421,-1.33226 c 0.155893,-0.73273 0.506968,-1.80784 0.780151,-2.3891 0.273208,-0.58127 0.457517,-1.09607 0.409575,-1.14398 -0.241353,-0.24136 -1.768131,0.88775 -3.217413,2.37945 -1.86473,1.91928 -3.077713,3.93951 -2.144422,3.57153 0.181902,-0.0717 1.131279,-0.34534 2.109709,-0.60801 z m 25.222888,-0.15465 c -0.486596,-1.15726 -2.561802,-3.4648 -4.015291,-4.46485 -1.149985,-0.79121 -1.78554,-0.88532 -1.233646,-0.18269 0.415634,0.52919 1.133528,2.86713 1.133528,3.69154 0,0.59447 0.121338,0.74899 0.595313,0.75822 0.327421,0.006 1.190625,0.22857 1.918229,0.49379 1.944105,0.70864 2.018506,0.6949 1.601867,-0.29601 z m -8.198909,-10.16749 c 0.07871,-0.40532 0.376661,-0.61545 1.052222,-0.74218 1.156017,-0.21688 1.328076,-0.60204 0.816213,-1.82711 -0.482256,-1.15419 -1.306857,-1.4247 -2.642156,-0.8668 -1.057804,0.44198 -1.280795,1.22809 -0.570891,2.01252 0.306149,0.33833 0.335306,0.63411 0.132291,1.34202 -0.391371,1.36459 -0.317976,2.30773 0.202592,2.60377 0.481118,0.2736 0.453178,0.34338 1.009729,-2.52222 z m -9.495234,2.12503 c 0.08964,-0.2336 0.02434,-1.02561 -0.145203,-1.75999 -0.265695,-1.15101 -0.248497,-1.40123 0.124645,-1.81356 0.715168,-0.79025 0.288845,-1.74638 -0.943372,-2.11555 -0.878285,-0.26313 -1.14689,-0.24514 -1.694233,0.11348 -0.646933,0.42389 -1.146731,1.78168 -0.839047,2.27952 0.08863,0.14343 0.562743,0.33612 1.053571,0.4282 0.948743,0.17798 1.195414,0.61386 1.202082,2.12407 0.0026,0.44871 0.083,0.89519 0.180022,0.99219 0.319088,0.31911 0.895535,0.18426 1.061535,-0.24836 z"
         id="path4141"
         inkscape:export-xdpi="400"
         inkscape:export-ydpi="400" />
      <path
         style="fill:#fef5e4;fill-opacity:1;stroke:#fef5e4;stroke-width:0.46972;stroke-miterlimit:4;stroke-dasharray:none;stroke-opacity:1"
         d="m 55.452359,158.19092 c -4.231328,-0.18963 -8.375849,1.35151 -11.827198,3.70001 -1.470597,1.97525 -0.665549,4.68919 -0.859753,6.98555 -0.405993,3.40289 3.312422,5.46305 6.270395,5.4618 5.326557,0.11226 10.730013,0.16818 16.012329,-0.10137 2.14063,-0.89134 4.713181,-2.25524 4.644681,-4.94543 -0.0011,-2.52262 0.07947,-5.23094 -0.881155,-7.58795 -3.528386,-2.09203 -7.575638,-3.6925 -11.758292,-3.5147 -0.533699,-0.006 -1.067324,-0.005 -1.601007,0.002 z m 10.533655,5.90029 c 3.578365,0.0459 4.623522,6.32542 0.872802,7.02626 -2.425909,0.93137 -5.15656,-1.45965 -4.514871,-4.00591 0.08649,-1.86807 1.872869,-3.08262 3.642069,-3.02035 z m -19.446468,0.0412 c 2.28132,-0.2223 3.816041,1.94747 3.484944,4.05028 0.02853,2.51979 -2.812884,3.59876 -4.910556,2.85435 -3.671673,-0.7554 -1.807059,-7.17414 1.425612,-6.90463 z m 9.131012,3.65773 c 0.531968,0.0281 2.06897,0.59905 1.581171,1.22986 -0.558292,0.21476 -2.886025,-0.18094 -1.894377,0.95527 0.648242,0.13764 1.762916,0.41046 1.03306,1.27423 -1.471956,1.08949 -3.983011,-1.21701 -2.376193,-2.65756 0.370702,-0.52692 1.010075,-0.84871 1.656339,-0.8018 z"
         id="path5628"
         inkscape:export-xdpi="400"
         inkscape:export-ydpi="400" />
      <path
         style="fill:#0a0807;fill-opacity:1;stroke:#ffffff;stroke-width:0.617;stroke-miterlimit:4;stroke-dasharray:none;stroke-opacity:1"
         d="m 46.55817,166.12374 c -0.752592,-0.0221 -1.447244,0.48488 -1.628804,1.22007 -0.216115,0.63567 -0.229554,1.43963 0.357447,1.89033 0.436177,0.53964 1.166044,0.6065 1.788148,0.40835 1.065676,-0.2807 1.794774,-1.5471 1.308551,-2.58761 -0.279948,-0.71654 -1.125087,-0.95591 -1.825342,-0.93114 z"
         id="path6638" />
      <path
         style="fill:#0a0807;fill-opacity:1;stroke:#ffffff;stroke-width:0.617;stroke-miterlimit:4;stroke-dasharray:none;stroke-opacity:1"
         d="m 65.909256,165.97327 c -0.865798,0.002 -1.749116,0.67208 -1.904948,1.53432 -0.126228,0.95508 0.681926,1.7597 1.50313,2.08726 1.204987,0.45567 2.631608,-0.82285 2.242819,-2.06912 -0.269571,-0.78463 -0.906381,-1.651 -1.841001,-1.55246 z"
         id="path6640" />
    </g>
  </g>
</svg>
