<?xml version="1.0" encoding="UTF-8" standalone="no"?>
<svg
   xmlns:dc="http://purl.org/dc/elements/1.1/"
   xmlns:cc="http://creativecommons.org/ns#"
   xmlns:rdf="http://www.w3.org/1999/02/22-rdf-syntax-ns#"
   xmlns:svg="http://www.w3.org/2000/svg"
   xmlns="http://www.w3.org/2000/svg"
   xmlns:sodipodi="http://sodipodi.sourceforge.net/DTD/sodipodi-0.dtd"
   xmlns:inkscape="http://www.inkscape.org/namespaces/inkscape"
   width="29.092207mm"
   height="29.092207mm"
   viewBox="0 0 29.092207 29.092207"
   version="1.1"
   id="svg7513"
   inkscape:version="1.0.1 (3bc2e813f5, 2020-09-07)"
   sodipodi:docname="hippo_005_cir2.svg">
  <defs
     id="defs7507">
    <clipPath
       clipPathUnits="userSpaceOnUse"
       id="clipPath8134">
      <circle
         r="94.69075"
         cy="-772.75208"
         cx="3832.4658"
         id="circle8136"
         style="opacity:1;fill:#81d8d0;fill-opacity:1;fill-rule:evenodd;stroke:#282814;stroke-width:2.82659;stroke-linecap:round;stroke-linejoin:round;stroke-miterlimit:4;stroke-dasharray:none;stroke-opacity:1" />
    </clipPath>
    <filter
       style="color-interpolation-filters:sRGB"
       inkscape:label="Emergence"
       id="filter8142"
       inkscape:menu="Shadows and Glows"
       inkscape:menu-tooltip="Cut out, add inner shadow and colorize some parts of an image">
      <feTurbulence
         type="fractalNoise"
         numOctaves="5"
         seed="1"
         baseFrequency="0.013 0.013"
         result="turbulence"
         id="feTurbulence8138" />
      <feDisplacementMap
         in="SourceGraphic"
         in2="turbulence"
         scale="6.6"
         yChannelSelector="G"
         xChannelSelector="R"
         id="feDisplacementMap8140"
         result="fbSourceGraphic" />
      <feColorMatrix
         result="fbSourceGraphicAlpha"
         in="fbSourceGraphic"
         values="0 0 0 -1 0 0 0 0 -1 0 0 0 0 -1 0 0 0 0 1 0"
         id="feColorMatrix8144" />
      <feColorMatrix
         id="feColorMatrix8146"
         values="0 0 0 0 0 0 0 0 0 0 0 0 0 0 0 0.21 0.72 0.07 0 0 "
         result="result1"
         in="fbSourceGraphic" />
      <feColorMatrix
         id="feColorMatrix8148"
         values="1 0 0 0 0 0 1 0 0 0 0 0 1 0 0 0 0 0 2 0 "
         result="result9" />
      <feComposite
         in2="result9"
         id="feComposite8150"
         in="fbSourceGraphic"
         operator="in"
         result="result4" />
      <feFlood
         id="feFlood8152"
         result="result2"
         flood-color="rgb(0,0,0)" />
      <feComposite
         in2="result9"
         id="feComposite8154"
         operator="in"
         result="result10" />
      <feComposite
         in2="result4"
         id="feComposite8156"
         operator="atop" />
      <feGaussianBlur
         id="feGaussianBlur8158"
         stdDeviation="3"
         result="result8" />
      <feOffset
         id="feOffset8160"
         dx="3"
         dy="3"
         result="result3"
         in="result8" />
      <feFlood
         id="feFlood8162"
         flood-opacity="1"
         flood-color="rgb(219,173,62)"
         result="result5" />
      <feMerge
         id="feMerge8164"
         result="result6">
        <feMergeNode
           id="feMergeNode8166"
           in="result5" />
        <feMergeNode
           id="feMergeNode8168"
           in="result3" />
        <feMergeNode
           id="feMergeNode8170"
           in="result4" />
      </feMerge>
      <feComposite
         in2="fbSourceGraphic"
         id="feComposite8172"
         operator="in"
         result="result7" />
    </filter>
    <clipPath
       clipPathUnits="userSpaceOnUse"
       id="clipPath7206">
      <circle
         style="opacity:1;fill:#81d8d0;fill-opacity:1;fill-rule:evenodd;stroke:#282814;stroke-width:8.57701;stroke-linecap:round;stroke-linejoin:round;stroke-miterlimit:4;stroke-dasharray:none;stroke-opacity:1"
         id="circle7208"
         cx="4142.0654"
         cy="-268.1604"
         r="287.32996" />
    </clipPath>
    <filter
       inkscape:menu="Shadows and Glows"
       inkscape:menu-tooltip="Cut out, add inner shadow and colorize some parts of an image"
       style="color-interpolation-filters:sRGB"
       inkscape:label="Roughen"
       id="filter7384">
      <feColorMatrix
         values="0 0 0 0 0 0 0 0 0 0 0 0 0 0 0 0.21 0.72 0.07 0 0 "
         result="result1"
         id="feColorMatrix7356" />
      <feColorMatrix
         values="1 0 0 0 0 0 1 0 0 0 0 0 1 0 0 0 0 0 2 0 "
         result="result9"
         id="feColorMatrix7358" />
      <feComposite
         in2="result9"
         in="SourceGraphic"
         operator="in"
         result="result4"
         id="feComposite7360" />
      <feFlood
         result="result2"
         flood-color="rgb(0,0,0)"
         id="feFlood7362" />
      <feComposite
         in2="result9"
         operator="in"
         result="result10"
         id="feComposite7364" />
      <feComposite
         in2="result4"
         operator="atop"
         id="feComposite7366" />
      <feGaussianBlur
         stdDeviation="3"
         result="result8"
         id="feGaussianBlur7368" />
      <feOffset
         dx="3"
         dy="3"
         result="result3"
         in="result8"
         id="feOffset7370" />
      <feFlood
         flood-opacity="1"
         flood-color="rgb(219,173,62)"
         result="result5"
         id="feFlood7372" />
      <feMerge
         result="result6"
         id="feMerge7380">
        <feMergeNode
           in="result5"
           id="feMergeNode7374" />
        <feMergeNode
           in="result3"
           id="feMergeNode7376" />
        <feMergeNode
           in="result4"
           id="feMergeNode7378" />
      </feMerge>
      <feComposite
         in2="SourceGraphic"
         operator="in"
         result="fbSourceGraphic"
         id="feComposite7382" />
      <feColorMatrix
         result="fbSourceGraphicAlpha"
         in="fbSourceGraphic"
         values="0 0 0 -1 0 0 0 0 -1 0 0 0 0 -1 0 0 0 0 1 0"
         id="feColorMatrix8174" />
      <feTurbulence
         id="feTurbulence8176"
         type="fractalNoise"
         numOctaves="5"
         seed="1"
         baseFrequency="0.013 0.013"
         result="turbulence" />
      <feDisplacementMap
         in2="turbulence"
         id="feDisplacementMap8178"
         in="fbSourceGraphic"
         scale="6.6"
         yChannelSelector="G"
         xChannelSelector="R" />
    </filter>
    <clipPath
       clipPathUnits="userSpaceOnUse"
       id="clipPath7468">
      <circle
         r="376.35712"
         cy="-248.93507"
         cx="6516.6523"
         id="circle7470"
         style="opacity:1;fill:#81d8d0;fill-opacity:1;fill-rule:evenodd;stroke:#282814;stroke-width:11.2345;stroke-linecap:round;stroke-linejoin:round;stroke-miterlimit:4;stroke-dasharray:none;stroke-opacity:1" />
    </clipPath>
    <filter
       style="color-interpolation-filters:sRGB"
       inkscape:label="Emergence"
       id="filter8018"
       inkscape:menu="Shadows and Glows"
       inkscape:menu-tooltip="Cut out, add inner shadow and colorize some parts of an image">
      <feTurbulence
         type="fractalNoise"
         numOctaves="5"
         seed="1"
         baseFrequency="0.013 0.013"
         result="turbulence"
         id="feTurbulence8014" />
      <feDisplacementMap
         in="SourceGraphic"
         in2="turbulence"
         scale="6.6"
         yChannelSelector="G"
         xChannelSelector="R"
         id="feDisplacementMap8016"
         result="fbSourceGraphic" />
      <feColorMatrix
         result="fbSourceGraphicAlpha"
         in="fbSourceGraphic"
         values="0 0 0 -1 0 0 0 0 -1 0 0 0 0 -1 0 0 0 0 1 0"
         id="feColorMatrix8020" />
      <feColorMatrix
         id="feColorMatrix8022"
         values="0 0 0 0 0 0 0 0 0 0 0 0 0 0 0 0.21 0.72 0.07 0 0 "
         result="result1"
         in="fbSourceGraphic" />
      <feColorMatrix
         id="feColorMatrix8024"
         values="1 0 0 0 0 0 1 0 0 0 0 0 1 0 0 0 0 0 2 0 "
         result="result9" />
      <feComposite
         in2="result9"
         id="feComposite8026"
         in="fbSourceGraphic"
         operator="in"
         result="result4" />
      <feFlood
         id="feFlood8028"
         result="result2"
         flood-color="rgb(0,0,0)" />
      <feComposite
         in2="result9"
         id="feComposite8030"
         operator="in"
         result="result10" />
      <feComposite
         in2="result4"
         id="feComposite8032"
         operator="atop" />
      <feGaussianBlur
         id="feGaussianBlur8034"
         stdDeviation="3"
         result="result8" />
      <feOffset
         id="feOffset8036"
         dx="3"
         dy="3"
         result="result3"
         in="result8" />
      <feFlood
         id="feFlood8038"
         flood-opacity="1"
         flood-color="rgb(219,173,62)"
         result="result5" />
      <feMerge
         id="feMerge8040"
         result="result6">
        <feMergeNode
           id="feMergeNode8042"
           in="result5" />
        <feMergeNode
           id="feMergeNode8044"
           in="result3" />
        <feMergeNode
           id="feMergeNode8046"
           in="result4" />
      </feMerge>
      <feComposite
         in2="fbSourceGraphic"
         id="feComposite8048"
         operator="in"
         result="result7" />
    </filter>
  </defs>
  <sodipodi:namedview
     id="base"
     pagecolor="#ffffff"
     bordercolor="#666666"
     borderopacity="1.0"
     inkscape:pageopacity="0.0"
     inkscape:pageshadow="2"
     inkscape:zoom="0.35"
     inkscape:cx="929.90851"
     inkscape:cy="544.51623"
     inkscape:document-units="mm"
     inkscape:current-layer="layer1"
     inkscape:document-rotation="0"
     showgrid="false"
     inkscape:window-width="1920"
     inkscape:window-height="1017"
     inkscape:window-x="-8"
     inkscape:window-y="-8"
     inkscape:window-maximized="1"
     fit-margin-top="0"
     fit-margin-left="0"
     fit-margin-right="0"
     fit-margin-bottom="0" />
  <metadata
     id="metadata7510">
    <rdf:RDF>
      <cc:Work
         rdf:about="">
        <dc:format>image/svg+xml</dc:format>
        <dc:type
           rdf:resource="http://purl.org/dc/dcmitype/StillImage" />
        <dc:title></dc:title>
      </cc:Work>
    </rdf:RDF>
  </metadata>
  <g
     inkscape:label="レイヤー 1"
     inkscape:groupmode="layer"
     id="layer1"
     transform="translate(165.34665,94.287128)">
    <g
       id="g7820"
       transform="matrix(0.26458333,0,0,0.26458333,-1299.2617,83.191131)">
      <circle
         r="54.168911"
         cy="-615.80658"
         cx="4340.6406"
         id="circle10414"
         style="opacity:1;fill:#ffb2b8;fill-opacity:1;fill-rule:evenodd;stroke:#282814;stroke-width:1.61698;stroke-linecap:round;stroke-linejoin:round;stroke-miterlimit:4;stroke-dasharray:none;stroke-opacity:1" />
      <g
         style="filter:url(#filter8018)"
         clip-path="url(#clipPath7468)"
         inkscape:export-ydpi="30"
         inkscape:export-xdpi="30"
         inkscape:export-filename="G:\41_web\myWeb\images\hippo_005.png"
         transform="matrix(0.14392955,0,0,0.14392955,3402.7017,-579.97747)"
         id="g10457">
        <path
           inkscape:connector-curvature="0"
           id="path10417"
           d="m 6545.6711,357.50887 c -5.3049,-0.3178 -9.6452,-1.2951 -9.6452,-2.1716 0,-0.8765 -1.321,-1.5965 -2.9355,-1.6 -1.6145,0 -5.407,-1.5131 -8.4276,-3.3548 -3.0207,-1.8417 -6.588,-3.3486 -7.9272,-3.3486 -1.3393,0 -4.9066,1.5069 -7.9272,3.3486 -3.0207,1.8417 -7.568,3.3514 -10.1051,3.3548 -2.5371,0 -4.6129,0.7611 -4.6129,1.6837 0,1.0006 -6.4301,1.6774 -15.9355,1.6774 -8.7645,0 -15.9355,-0.673 -15.9355,-1.4955 0,-0.8226 -1.8727,-1.9656 -4.1615,-2.5401 -2.2889,-0.5745 -6.8179,-3.7008 -10.0646,-6.9474 -5.8951,-5.8951 -5.9029,-5.9236 -5.9193,-21.3632 -0.025,-23.3898 -6.298,-35.1173 -35.2625,-65.9217 -21.2429,-22.5922 -32.5765,-39.3779 -35.2632,-52.2265 -3.0224,-14.4538 -1.011,-47.7768 4.1291,-68.4089 2.2985,-9.2258 10.1544,-37.9097 17.4577,-63.741897 19.6055,-69.3466001 21.565,-77.5176001 19.4091,-80.9354001 -1.0049,-1.5931 -7.0342,-4.4830999 -13.3985,-6.4222999 -15.4964,-4.7217 -21.488,-8.0242 -26.5147,-14.6146 -13.3048,-17.4434 -22.6751,-56.804 -27.9323,-117.331133 -2.6688,-30.72622 -1.9114,-29.18764 -19.1875,-38.97682 -9.8273,-5.56848 -19.3511,-12.84181 -28.0599,-21.42953 -7.2509,-7.15 -13.7169,-12.99427 -14.369,-12.98727 -0.652,0.007 -7.5201,0.74102 -15.2625,1.63114 -28.4655,3.27263 -37.4403,-2.57417 -46.2957,-30.16001 -4.3273,-13.4803 -6.7628,-15.68354 -15.9499,-14.42925 -4.1516,0.5668 -9.5991,1.48651 -12.1055,2.0438 -3.6331,0.80782 -5.6289,-0.0587 -9.8437,-4.27342 l -5.2867,-5.28669 1.1156,-22.99496 c 0.6136,-12.64725 1.5474,-26.22873 2.075,-30.18106 0.9015,-6.75223 0.5727,-7.51181 -5.4453,-12.58066 -3.5226,-2.96701 -10.9702,-9.78644 -16.5503,-15.15429 -9.697,-9.32821 -10.1324,-10.09934 -9.8483,-17.44066 0.1635,-4.2245 0.9748,-8.13585 1.8028,-8.69188 0.8281,-0.55603 2.8321,-5.12129 4.4533,-10.14502 11.3571,-35.19164 40.1437,-67.34163 76.8377,-85.81552 13.1815,-6.6363 38.6957,-14.92142 45.9508,-14.92142 2.2032,0 4.0059,-0.75484 4.0059,-1.67742 0,-1.05051 10.3441,-1.67742 27.6774,-1.67742 17.3334,0 27.6774,0.62691 27.6774,1.67742 0,0.92258 2.8307,1.67683 6.2904,1.67611 3.4597,-7.2e-4 14.4845,1.63069 24.4996,3.62535 16.2225,3.23094 19.517,3.40557 30.1936,1.60043 32.3386,-5.46765 202.9843,-5.46793 235.3211,-3.9e-4 10.6871,1.80699 13.9046,1.63417 29.7711,-1.59907 9.7839,-1.99376 20.4324,-3.62501 23.6631,-3.62501 3.2308,0 5.8742,-0.75484 5.8742,-1.67742 0,-1.0525 10.6236,-1.67742 28.5161,-1.67742 17.8925,0 28.5161,0.62492 28.5161,1.67742 0,0.92258 1.7136,1.67742 3.8079,1.67742 6.8654,0 28.6345,6.82276 42.5205,13.3266 38.809,18.17701 65.2967,47.21883 80.4043,88.1573 1.7023,4.6129 3.7667,8.85025 4.5874,9.41634 0.8208,0.56608 1.5455,4.54433 1.6104,8.84056 0.1119,7.40469 -0.4023,8.31164 -9.8779,17.42238 -5.4978,5.28608 -12.8787,12.03911 -16.402,15.00673 -6.3005,5.30691 -6.3881,5.54146 -5.3245,14.25806 0.5947,4.87432 1.1332,18.51078 1.1966,30.30328 0.094,17.49802 -0.4095,22.24188 -2.7387,25.7967 -2.8016,4.27581 -3.1069,4.33531 -16.6159,3.2392 -16.5104,-1.33965 -16.6997,-1.19444 -23.5958,18.10978 -8.8595,24.80045 -17.4561,29.50049 -47.481,25.95946 l -16.2236,-1.91335 -4.2242,5.64959 c -8.3818,11.21036 -18.2909,19.63089 -33.2832,28.28344 -8.3976,4.84655 -15.9697,9.67776 -16.8268,10.73602 -0.8572,1.05827 -2.4357,12.86929 -3.5078,26.24671 -2.7045,33.74417 -6.4073,59.954053 -11.2564,79.677453 -3.9786,16.1821 -12.9407,36.9213 -18.7427,43.372 -3.9525,4.3945 -13.0532,8.7541 -24.5313,11.7515 -14.2025,3.7087999 -15.485,5.4567999 -12.9628,17.6683999 1.1279,5.4605001 9.9852,38.1161001 19.6829,72.5681001 9.6977,34.451997 18.7407,68.966297 20.0955,76.698497 4.4455,25.3711 2.5789,52.1867 -4.6223,66.4045 -4.3802,8.6481 -9.4665,15.1162 -33.3938,42.4655 -10.7314,12.2662 -22.0152,26.9898 -25.0752,32.7192 -4.8775,9.1323 -5.6392,12.2786 -6.1766,25.5137 -0.3372,8.3032 -1.4192,17.1922 -2.4044,19.7532 -1.9364,5.0334 -8.0753,10.0733 -14.7676,12.1238 -2.3065,0.7067 -4.571,1.8234 -5.0323,2.4815 -1.2275,1.7514 -12.8386,2.7795 -23.9032,2.1165 z m -57.1019,-26.8298 c -0.4784,-2.5371 -2.151,-8.0097 -3.7168,-12.1613 -3.3648,-8.921 -2.5192,-25.4096 1.7239,-33.6147 5.3299,-10.307 3.8924,-11.7072 -21.002,-20.4561 -12.4549,-4.3772 -23.5888,-7.9664 -24.742,-7.9761 -3.3856,-0.029 -2.4301,3.663 3.0347,11.7243 12.2425,18.0594 20.0298,38.0982 20.0298,51.542 0,10.6391 5.3372,15.5548 16.8884,15.5548 8.533,0 8.6416,-0.064 7.784,-4.6129 z m 75.9414,1.6208 c 2.8618,-2.3173 3.9848,-5.6274 4.9798,-14.6774 1.5045,-13.6851 6.9353,-27.9723 16.9043,-44.4716 10.0708,-16.6676 8.695,-17.2802 -18.5937,-8.2789 -12.1357,4.0029 -22.4615,8.3605 -22.9736,9.695 -0.5116,1.3332 0.3641,6.0233 1.946,10.4224 4.577,12.7282 5.212,25.0685 1.8414,35.7846 -1.6161,5.1381 -2.4916,10.5066 -1.9454,11.93 1.4041,3.659 13.1522,3.3928 17.8412,-0.4041 z m -38.7772,-15.2181 c 7.7851,-16.8901 8.1908,-20.8279 2.96,-28.7322 -5.2636,-7.9539 -11.2844,-12.2423 -15.1208,-10.7701 -4.7117,1.808 -11.0951,14.5614 -11.0951,22.1668 0,7.3858 6.0062,22.8607 10.6913,27.5457 4.2734,4.2734 6.856,2.1747 12.5646,-10.2102 z m -97.0549,-69.435 c 0,-1.1532 -2.6524,-7.3807 -5.9035,-13.8387 -8.9338,-17.7466 -10.8809,-29.8673 -12.3325,-76.7701 -1.321,-42.6857 -2.3588,-48.5041 -7.6859,-43.0936 -3.2234,3.274 -8.763,31.3401 -11.0519,55.9945 -3.2106,34.5827 1.3599,49.9327 20.3437,68.3234 11.3142,10.9608 16.6138,13.9514 16.6301,9.3845 z m 115.7345,-2.3879 c 14.6195,-4.0089 34.9519,-15.4434 44.5784,-25.07 11.4452,-11.4451 15.7321,-23.6532 16.0381,-45.6728 0.2678,-19.2643 -1.0816,-21.3625 -12.1041,-18.8219 -4.0786,0.9401 -11.6427,1.7277 -16.8091,1.7502 -10.2201,0.045 -14.9804,-2.5691 -29.6065,-16.2562 -9.3808,-8.7784 -9.6617,-15.1292 -1.1619,-26.2611 7.7586,-10.1611 10.0139,-15.864997 12.5568,-31.758197 2.1744,-13.5894 1.2482,-17.3093 -3.8251,-15.3625 -3.0934,1.1871 -13.4875,15.8444 -21.3669,30.1306 -6.6541,12.064797 -9.1119,14.258097 -15.9771,14.258097 -7.0742,0 -9.3027,-2.1159 -17.6666,-16.774197 -19.2262,-33.695 -29.3357,-37.1258 -23.3572,-7.9265 2.5474,12.4412 4.2023,16.318197 10.6961,25.056797 10.1795,13.6985 10.279,18.7872 0.5535,28.296 -14.2883,13.9698 -19.173,16.6382 -30.4563,16.6382 -5.6338,0 -12.863,-0.7513 -16.0647,-1.6695 -8.3276,-2.3883 -11.3301,-0.8678 -12.5436,6.3525 -1.5588,9.2749 1.8118,34.4836 5.8233,43.5524 1.9362,4.377 7.3683,11.5709 12.0714,15.9865 10.4332,9.7954 38.6298,24.1003 51.6537,26.2054 11.8255,1.9114 35.1194,0.5953 46.9678,-2.6538 z m 76.5167,-7.5701 c 7.155,-6.8706 12.6326,-14.0874 16.2096,-21.3563 5.1938,-10.5544 5.3946,-11.7261 5.1926,-30.3001 -0.2095,-19.2611 -5.4304,-56.0774 -9.7018,-68.4151 -1.1922,-3.4435 -3.2111,-6.2609 -4.4865,-6.2609 -3.4506,0 -4.6865,10.176 -4.7952,39.4831 -0.1025,27.6391 -3.3309,59.2371 -7.4136,72.5603 -1.3556,4.4239 -4.4155,10.6009 -6.7997,13.7268 -2.3843,3.1259 -4.335,6.8661 -4.335,8.3115 0,5.1204 5.4577,2.4983 16.1296,-7.7493 z m -161.3462,-108.0006 c 3.2706,-3.2706 3.2883,-2.9281 -0.5376,-10.4309 -1.8125,-3.5543 -3.6818,-11.9789 -4.3585,-19.642797 -0.6517,-7.3807 -3.3653,-23.3708 -6.0302,-35.5336 -2.6649,-12.1628 -5.3335,-27.3677 -5.9303,-33.7887 -0.9875,-10.6259 -0.7784,-11.8386 2.3286,-13.5014 5.6905,-3.0455 13.0365,0.6945 18.0002,9.1644 3.0328,5.1751 6.7887,8.6585 12.4037,11.5038 5.4967,2.7854 13.0564,9.7054 23.8106,21.7957 8.6662,9.743 16.5476,17.7146 17.5143,17.7146 0.9666,0 7.7672,-6.8808 15.1124,-15.2908 17.7646,-20.3395 16.5102,-19.1605 25.7158,-24.1708 5.1045,-2.7782 9.8118,-7.1158 12.7264,-11.7269 7.5478,-11.9409 21.0596,-13.7717 21.0292,-2.8493 -0.018,6.5864 -2.8674,23.6546 -7.4802,44.812 -2.2126,10.1484 -4.5487,23.7355 -5.1914,30.1935 -0.6427,6.458097 -2.5511,15.280397 -4.241,19.605097 -2.9842,7.6376 -2.9831,7.9733 0.041,11.7081 7.0449,8.7001 18.5711,-3.0344 28.7141,-29.233 10.6451,-27.495797 10.5829,-38.363997 -0.4387,-76.571897 -8.2377,-28.5572001 -0.4343,-26.1534001 -84.9012,-26.1534001 -54.9611,0 -71.058,0.4847 -75.281,2.26709996 -6.0356,2.54740004 -8.5588,8.71070004 -16.3643,39.97230014 -6.561,26.2771 -5.1894,41.972 5.7157,65.403997 10.71,23.0127 20.5611,31.8341 27.6423,24.7529 z m 123.4102,-155.060897 c 23.9804,-1.7881 45.4634,-5.4648 55.6331,-9.5212 6.8819,-2.7449 13.369,-11.0566 17.2658,-22.1219 5.7593,-16.3536 2.5251,-18.9233 -15.0365,-11.9471 -7.1237,2.8299 -16.2526,5.5976 -20.2865,6.1505 -18.8387,2.5821 -37.2547,-10.7078 -44.2155,-31.90815 -3.1547,-9.608093 -2.5714,-26.420083 1.2124,-34.944463 6.0639,-13.66116 23.6823,-24.84962 39.1306,-24.84962 8.046,0 23.8394,5.94629 34.9115,13.14433 5.9091,3.84159 11.4004,6.98471 12.2028,6.98471 2.8052,0 4.8861,-9.1194 5.2264,-22.90326 0.5003,-20.27053 1.5364,-19.61843 -45.2553,-28.48322 -21.05,-3.98797 -46.9534,-8.01418 -57.563,-8.94714 -24.742,-2.17568 -74.2001,-2.18197 -98.9678,-0.0117 -19.846,1.73829 -87.8202,13.77218 -96.025,16.99987 -6.7802,2.66727 -8.8031,11.03276 -6.6194,27.37442 0.9576,7.16648 2.5029,13.7918 3.4341,14.72295 1.1391,1.13905 5.2234,-0.53666 12.4829,-5.12141 20.6497,-13.04149 33.0889,-15.93596 48.8255,-11.3612 18.3815,5.3428 29.5148,20.48691 29.5148,40.14673 0,12.487063 -2.8674,21.639403 -10.0501,32.079253 -12.0152,17.4634 -30.9017,21.26 -55.7434,11.2057 -7.1252,-2.8838 -14.1074,-4.801 -15.5162,-4.2604 -4.2591,1.6344 -2.9303,9.7353 3.729,22.7333 7.696,15.0215 11.4223,17.1773 35.8152,20.7205 36.6241,5.3198 121.5208,7.4275 165.8946,4.1186 z m -81.8428,-36.156 c -9.5521,-6.6905 -13.3358,-25.2726 -7.1962,-35.34133 4.0636,-6.664173 15.9422,-11.546443 24.2848,-9.981353 8.5822,1.61003 14.7442,9.598113 14.0974,18.275083 -0.6319,8.4768 -2.8999,9.3294 -7.2142,2.7118 -6.9952,-10.72983 -18.0605,-11.78442 -22.4548,-2.1401 -2.0729,4.5496 0.2606,11.9263 6.5804,20.8016 5.4707,7.6829 0.1216,11.4312 -8.0974,5.6743 z m -79.1347,-26.7563 c 13.2466,-6.85001 13.5421,-29.157063 0.4748,-35.839753 -8.6983,-4.44835 -19.7184,-0.11373 -27.1003,10.65943 -6.3268,9.23336 -3.8424,17.861563 7.0567,24.507513 6.3427,3.86761 12.9515,4.09481 19.5688,0.67281 z m 212.5446,-3.16255 c 5.1224,-4.69436 6.2261,-6.8525 6.2194,-12.161303 -0.015,-11.63758 -11.637,-22.38964 -24.2013,-22.38964 -8.1049,0 -15.1336,7.80783 -15.1336,16.81101 0,13.973953 8.2117,23.315083 20.573,23.402383 4.8801,0.035 7.73,-1.2521 12.5425,-5.66245 z M 6399.2167,-212.44687 c 35.6127,-6.97391 36.1661,-7.12232 36.157,-9.69698 0,-1.09104 -1.891,-5.69715 -4.1936,-10.23576 -3.6507,-7.19595 -4.1865,-10.44161 -4.1865,-25.36093 0,-45.71593 16.2245,-87.50576 45.2553,-116.56536 15.5674,-15.58286 38.2693,-31.82173 44.4867,-31.82173 4.9478,0 25.2996,13.5726 39.0442,26.03864 13.902,12.60871 23.5627,26.45182 34.655,49.65807 11.8919,24.87913 14.3065,35.0189 15.4509,64.88221 0.9283,24.22699 0.8699,24.78419 -3.4254,32.70343 -5.1304,9.45868 -5.4381,12.36696 -1.4344,13.55964 1.6145,0.48096 16.5226,3.62752 33.1291,6.99236 34.569,7.00445 40.7953,6.91333 57.3627,-0.83945 13.0025,-6.08462 30.0627,-21.88122 35.8373,-33.18296 3.5653,-6.97793 4.0741,-10.15845 3.9642,-24.77965 -0.1947,-25.87718 -8.1353,-51.84829 -20.2573,-66.25444 -6.6569,-7.9113 -20.4743,-18.45526 -24.1847,-18.45526 -2.002,0 -4.4133,2.43672 -6.5436,6.61251 -6.5371,12.81364 -26.0706,22.91118 -41.3517,21.37601 -20.7597,-2.08558 -34.2352,-16.25464 -34.145,-35.90238 0.093,-20.18007 16.5832,-36.71373 38.4224,-38.52301 12.0827,-1.00099 22.1837,3.93435 29.8116,14.5659 10.8522,15.12578 11.8302,16.0933 14.0599,13.91002 4.317,-4.2269 -4.0016,-45.92763 -10.9892,-55.08885 -4.8762,-6.39297 -22.769,-15.99288 -38.6318,-20.72684 -34.4442,-10.27921 -100.7745,-15.53267 -153.8291,-12.18348 -82.7189,5.22182 -117.2514,16.06376 -129.755,40.73827 -4.4856,8.85206 -10.4662,39.17991 -8.6563,43.89657 1.959,5.10505 6.0068,3.07542 11.8319,-5.93279 9.5682,-14.7966 16.9065,-19.70968 29.439,-19.70968 35.9241,0 55.6346,40.61495 31.4482,64.80138 -7.0389,7.03892 -15.6911,10.6554 -25.5348,10.67316 -14.0861,0.0254 -33.0891,-10.44721 -39.4306,-21.7304 -2.0467,-3.64155 -4.7084,-6.99979 -5.9148,-7.46275 -2.5661,-0.9847 -20.0612,13.18555 -26.1452,21.17636 -10.4748,13.75783 -17.906,37.515 -19.3008,61.70357 -0.6826,11.83811 -0.2138,15.86581 2.7621,23.73061 6.1908,16.36129 21.6774,30.92424 41.7594,39.2688 12.6976,5.27618 17.5834,5.10714 53.0329,-1.83481 z m -126.6665,-31.87877 c 1.8048,-1.75205 2.7433,-10.30181 3.8064,-34.67658 1.8426,-42.24941 4.3524,-50.98875 22.3122,-77.69605 11.6631,-17.34372 12.5222,-19.49914 15.9951,-40.12903 4.1163,-24.45173 8.0937,-34.776 19.3188,-50.14671 5.0269,-6.8835 9.1399,-13.31474 9.1399,-14.29166 0,-4.63376 -6.9018,-5.45363 -29.8571,-3.54676 -31.7815,2.64005 -46.0838,5.38133 -61.4483,11.77757 -29.6587,12.34695 -51.0953,31.70158 -64.0968,57.87161 -12.3154,24.78872 -12.064,34.26918 1.1604,43.76993 4.6135,3.31448 9.271,7.64066 10.3501,9.61375 1.0791,1.97309 2.3884,13.53296 2.9097,25.68859 0.5212,12.15564 1.5573,22.71077 2.3024,23.45586 0.7451,0.74511 6.2776,1.36733 12.2944,1.38273 12.8374,0.0329 15.0411,1.87843 20.646,17.29034 1.9155,5.26702 4.6739,12.81427 6.1298,16.77167 1.4559,3.9574 4.584,9.49715 6.9513,12.31057 3.9958,4.74864 4.8557,5.03516 11.9973,3.9974 4.2312,-0.61482 8.771,-2.16429 10.0884,-3.44323 z m 509.7126,0.43497 c 1.9777,-2.10518 6.4935,-11.54407 10.0351,-20.9753 3.5415,-9.43124 7.9863,-19.22011 9.8772,-21.75305 3.1258,-4.18716 4.4471,-4.61538 14.5506,-4.71583 6.112,-0.0607 11.3898,-0.43817 11.7285,-0.83871 0.3387,-0.40053 1.3605,-11.29692 2.2706,-24.21421 0.95,-13.48254 2.5823,-24.97108 3.8323,-26.9727 1.1976,-1.91771 5.3877,-5.51766 9.3113,-7.99991 13.4797,-8.52789 13.882,-18.87045 1.7063,-43.86402 -11.7642,-24.14863 -28.1717,-39.59664 -57.9283,-54.54059 -21.544,-10.81952 -32.6062,-13.07365 -78.1276,-15.91987 -14.1559,-0.8851 -17.2467,-0.6315 -19.0693,1.56464 -2.4433,2.94392 -2.3598,3.09959 10.6183,19.80746 9.4038,12.10647 13.7073,23.57205 17.715,47.19698 3.8571,22.73759 3.6862,22.2901 14.6935,38.46637 19.5486,28.7283 21.8449,36.61359 23.342,80.15516 1.1683,33.97926 1.5203,35.58153 8.1754,37.21738 8.0836,1.98697 13.7531,1.12886 17.2691,-2.6138 z m -134.7962,-105.20469 c 1.1737,0 4.1313,-1.85105 6.5725,-4.11345 8.957,-8.30107 3.6117,-23.44717 -8.9814,-25.44953 -7.2212,-1.1482 -14.3162,3.74118 -15.9013,10.95804 -2.1173,9.63975 6.6113,21.74684 13.9422,19.33876 1.2287,-0.4036 3.1943,-0.73382 4.368,-0.73382 z m -248.5054,-3.37528 c 5.6078,-4.41114 7.1754,-11.72941 3.8782,-18.10547 -2.9792,-5.76112 -5.5949,-7.03538 -14.4419,-7.03538 -7.3428,0 -13.4039,5.82883 -13.4039,12.89016 0,4.86908 4.1287,13.31032 7.0937,14.50329 4.8873,1.96637 12.8641,0.9015 16.8739,-2.2526 z"
           style="fill:#040303;stroke-width:1.67742" />
        <path
           style="opacity:1;fill:#ffb2b8;fill-opacity:1;stroke:#ffb2b8;stroke-width:4.04061;stroke-linecap:round;stroke-linejoin:round;stroke-miterlimit:4;stroke-dasharray:none;stroke-opacity:1"
           d="m 6250.0406,-247.56237 c -2.4316,-3.41482 -6.1026,-11.09614 -8.1578,-17.06961 -8.1587,-23.71389 -12.035,-27.68122 -27.0457,-27.68122 -10.3633,0 -11.3262,-1.68101 -11.573,-20.20305 -0.3142,-23.58788 -2.5211,-30.17201 -13.226,-39.45878 -8.6903,-7.53908 -9.8228,-9.45248 -9.8228,-16.59616 0,-13.20074 14.7186,-40.35335 30.3448,-55.97953 15.497,-15.49704 42.2425,-29.78619 64.5177,-34.46956 15.85,-3.33246 59.4359,-6.28902 64.4347,-4.3708 2.6899,1.03224 1.5413,3.85794 -6.7002,16.48269 -11.1705,17.11151 -14.8205,26.75606 -19.4714,51.45075 -3.5384,18.78765 -4.9229,22.01303 -18.3746,42.80731 -13.2574,20.49381 -16.5311,31.57209 -18.8554,63.80753 -1.1043,15.31438 -2.0297,30.57174 -2.0564,33.90524 -0.07,8.73772 -2.4123,11.27955 -11.519,12.50101 -7.276,0.9759 -8.5108,0.46933 -12.4949,-5.12582 z"
           id="path10419"
           inkscape:connector-curvature="0" />
        <path
           style="opacity:1;fill:#ffb2b8;fill-opacity:1;stroke:#ffb2b8;stroke-width:4.04061;stroke-linecap:round;stroke-linejoin:round;stroke-miterlimit:4;stroke-dasharray:none;stroke-opacity:1"
           d="m 6350.5245,-210.16192 c -28.7895,-10.72867 -48.0295,-33.71028 -48.1282,-57.48771 -0.065,-15.54599 5.4579,-39.97054 12.2868,-54.34192 5.7653,-12.13307 25.5024,-32.95111 31.2402,-32.95111 1.2973,0 4.7015,3.54017 7.5649,7.86703 6.3949,9.66347 26.4858,20.41724 38.1447,20.41724 8.65,0 20.5905,-4.34352 26.5929,-9.6735 5.5976,-4.97051 11.3166,-18.45972 11.3166,-26.69199 0,-21.04374 -20.5153,-40.41798 -42.7778,-40.39855 -11.1518,0.01 -19.5866,5.23641 -29.1732,18.07717 -4.188,5.60976 -8.4542,10.19955 -9.4803,10.19955 -1.0617,0 -1.3808,-5.44137 -0.7406,-12.6269 4.1123,-46.15223 23.1333,-60.0094 95.3926,-69.49542 36.1365,-4.74391 115.8768,-4.80247 149.5026,-0.10981 39.8362,5.55935 70.2957,16.07511 81.0643,27.98647 5.1045,5.64618 9.9601,20.07248 12.7474,37.87321 2.9261,18.68723 0.7206,20.40182 -9.4068,7.31299 -10.0929,-13.04428 -15.9933,-17.21992 -26.2828,-18.60003 -25.6546,-3.44101 -50.4546,21.15959 -46.0289,45.65885 3.3422,18.50129 17.7171,29.51329 38.4144,29.42765 15.0876,-0.0624 27.4793,-6.38548 36.2834,-18.51421 3.3787,-4.65457 7.2277,-8.5184 8.5533,-8.5863 1.3256,-0.0679 7.7796,4.84769 14.3422,10.92352 13.4781,12.47834 21.0492,26.89956 25.7376,49.02466 6.6126,31.2055 2.6674,47.85246 -15.4597,65.23258 -14.9205,14.3056 -29.8748,21.2266 -45.2131,20.92509 -12.4484,-0.24472 -63.4159,-10.01799 -66.2101,-12.69612 -0.8583,-0.82255 0.4064,-5.94182 2.8102,-11.37614 3.9966,-9.03494 4.2577,-11.99392 3.0507,-34.57207 -1.5835,-29.62056 -5.6994,-44.41833 -20.1462,-72.43064 -8.0683,-15.64437 -13.8361,-23.64366 -25.5706,-35.46339 -17.4686,-17.59552 -36.635,-30.872 -44.568,-30.872 -6.7605,0 -28.6058,15.25258 -44.1768,30.84456 -29.2969,29.33651 -45.16,69.21603 -45.4675,114.30439 -0.1078,15.80369 0.7088,22.11381 3.7346,28.85636 2.3454,5.22653 3.1421,9.3567 2.0203,10.47338 -2.1876,2.17751 -47.4954,11.55404 -63.4716,13.13556 -7.0248,0.69539 -13.8282,0.0877 -18.4975,-1.65245 z"
           id="path10421"
           inkscape:connector-curvature="0" />
        <path
           style="opacity:1;fill:#ffb2b8;fill-opacity:1;stroke:#ffb2b8;stroke-width:4.04061;stroke-linecap:round;stroke-linejoin:round;stroke-miterlimit:4;stroke-dasharray:none;stroke-opacity:1"
           d="m 6761.0144,-246.35126 c -1.0343,-2.50013 -2.7595,-19.57035 -3.8338,-37.93384 -2.2751,-38.8881 -4.3242,-45.79993 -21.707,-73.22017 -10.4043,-16.41209 -11.9807,-20.41027 -16.1621,-40.99131 -5.6263,-27.69329 -8.2308,-34.19202 -19.9518,-49.78443 -9.9508,-13.2375 -10.532,-14.77983 -6.1964,-16.44355 4.5067,-1.72941 53.2124,2.5243 66.7877,5.83292 16.0289,3.90661 41.7054,16.75405 55.7801,27.91006 17.3196,13.72789 38.1641,48.82207 38.1641,64.25351 0,2.46915 -4.5161,8.56475 -10.8653,14.6653 -10.8048,10.38165 -10.8727,10.52379 -12.1905,25.49826 -0.7288,8.28213 -1.8341,19.37681 -2.4562,24.65486 l -1.1311,9.59645 h -10.609 c -13.0682,0 -14.7124,1.63156 -24.1168,23.93221 -10.3911,24.64053 -11.9604,26.57542 -21.5535,26.57542 -6.4731,0 -8.4515,-0.9031 -9.9584,-4.54569 z"
           id="path10423"
           inkscape:connector-curvature="0" />
        <path
           style="opacity:1;fill:#fef5e4;fill-opacity:1;stroke:#fef5e4;stroke-width:4.04061;stroke-linecap:round;stroke-linejoin:round;stroke-miterlimit:4;stroke-dasharray:none;stroke-opacity:1"
           d="m 6451.8545,-26.887257 c -23.3443,-1.85677 -48.0512,-5.44059 -53.7039,-7.78993 -10.1408,-4.21463 -21.0474,-21.11739 -21.0474,-32.61872 0,-5.87485 -0.5071,-5.88222 18.7648,0.27252 8.6539,2.76373 18.6544,5.005 22.2234,4.9806 15.7918,-0.10799 32.621,-14.01262 38.7575,-32.02218 6.2611,-18.375153 2.7751,-35.446943 -9.8074,-48.029393 -15.7964,-15.7964 -35.7295,-16.65218 -61.2772,-2.6308 -8.7553,4.80523 -15.9297,7.57591 -16.9569,6.54868 -2.4451,-2.4451 -4.6568,-25.29265 -3.0631,-31.64255 1.6785,-6.68747 10.1676,-9.23859 59.587,-17.90679 36.4033,-6.38517 39.42,-6.59852 92.1831,-6.51937 50.4558,0.0757 56.8977,0.50055 85.863,5.66291 66.5277,11.85694 65.7008,11.41071 64.2096,34.64661 -0.5378,8.38025 -1.579,15.83789 -2.3136,16.57254 -0.7347,0.73466 -8.9693,-2.58881 -18.2993,-7.38547 -21.3844,-10.99399 -32.5574,-12.43782 -47.2703,-6.10849 -19.0183,8.18144 -28.204,24.30651 -26.0159,45.66939 1.3384,13.066493 7.1614,24.566813 16.6629,32.909303 13.7332,12.05786 23.7385,13.09982 48.0486,5.00381 18.5598,-6.18098 21.2451,-5.16619 17.479,6.6054 -3.6919,11.53931 -9.7774,20.63666 -15.9344,23.82057 -3.0083,1.55566 -13.1483,4.41425 -22.5333,6.35241 -14.0205,2.89547 -29.4945,3.59601 -86.7643,3.928 -38.3353,0.22224 -73.7916,0.0786 -78.7919,-0.31905 z m 59.7442,-33.75082 c 0.5657,-1.47416 -1.2702,-6.7017 -4.0797,-11.61676 -6.1854,-10.82099 -6.31,-12.83405 -1.1162,-18.02785 5.4365,-5.43652 6.8119,-5.1768 15.8562,2.99415 4.2826,3.86911 8.3764,6.445 9.0972,5.72419 0.7208,-0.7208 1.3105,-4.41095 1.3105,-8.20031 0,-4.98362 -1.7013,-8.59112 -6.1495,-13.039313 -5.5001,-5.5001 -7.0245,-6.00963 -14.4346,-4.82472 -16.9552,2.71125 -24.1793,13.346753 -20.9084,30.781963 2.2746,12.12447 17.389,24.11909 20.4245,16.20865 z"
           id="path10425"
           inkscape:connector-curvature="0" />
        <path
           style="opacity:1;fill:#000000;fill-opacity:0;stroke:#000000;stroke-width:4.04061;stroke-linecap:round;stroke-linejoin:round;stroke-miterlimit:4;stroke-dasharray:none;stroke-opacity:0"
           d="m 6407.4078,-87.621767 c -5.4737,-2.06764 -14.1421,-11.42189 -14.1421,-15.261063 0,-10.50785 11.7725,-21.74505 22.781,-21.74505 13.0537,0 19.541,21.30418 9.4979,31.190893 -5.2976,5.21511 -13.1014,7.71727 -18.1368,5.81522 z"
           id="path10427"
           inkscape:connector-curvature="0" />
        <path
           style="opacity:1;fill:#000000;fill-opacity:0;stroke:#000000;stroke-width:4.04061;stroke-linecap:round;stroke-linejoin:round;stroke-miterlimit:4;stroke-dasharray:none;stroke-opacity:0"
           d="m 6613.0246,-89.391337 c -7.1334,-3.87119 -9.6472,-8.8067 -9.6472,-18.941283 0,-14.81479 11.9601,-20.69069 25.4148,-12.48604 7.3369,4.47401 11.9324,14.22749 10.1152,21.468053 -1.3168,5.24634 -11.8513,13.15309 -17.3473,13.02009 -1.6667,-0.0403 -5.5077,-1.4177 -8.5355,-3.06082 z"
           id="path10429"
           inkscape:connector-curvature="0" />
        <path
           style="opacity:1;fill:#000000;fill-opacity:0;stroke:#000000;stroke-width:4.04061;stroke-linecap:round;stroke-linejoin:round;stroke-miterlimit:4;stroke-dasharray:none;stroke-opacity:0"
           d="m 6633.8286,-354.20496 c -8.3019,-10.55422 -2.1974,-23.83172 10.3793,-22.5751 13.8839,1.38724 17.8315,18.5616 5.7076,24.83111 -8.282,4.28276 -11.2735,3.86322 -16.0869,-2.25601 z"
           id="path10431"
           inkscape:connector-curvature="0" />
        <path
           style="opacity:1;fill:#000000;fill-opacity:0;stroke:#000000;stroke-width:4.04061;stroke-linecap:round;stroke-linejoin:round;stroke-miterlimit:4;stroke-dasharray:none;stroke-opacity:0"
           d="m 6377.9639,-358.01925 c -2.1813,-5.22055 -2.4107,-8.16935 -0.8608,-11.06538 4.5629,-8.52574 15.7114,-10.55282 22.2235,-4.04077 8.8249,8.8249 2.0635,22.22335 -11.2148,22.22335 -6.2983,0 -7.5372,-0.86893 -10.1479,-7.1172 z"
           id="path10433"
           inkscape:connector-curvature="0" />
        <path
           style="opacity:1;fill:#ffb2b8;fill-opacity:1;stroke:#ffb2b8;stroke-width:4.04061;stroke-linecap:round;stroke-linejoin:round;stroke-miterlimit:4;stroke-dasharray:none;stroke-opacity:1"
           d="m 6447.7645,126.54852 c -4.0882,-3.44 -9.8866,-12.39547 -14.7981,-22.85542 -11.2696,-24.000527 -11.9858,-38.537917 -3.5348,-71.747327 4.87,-19.13716 7.2845,-25.2165201 11.4633,-28.8624101 l 5.2939,-4.61874 71.4693,0.57812996 c 69.5449,0.56257 71.5837,0.69251 75.7146,4.82557004 6.0349,6.03809 16.0616,44.6491901 16.0638,61.8593901 0,9.89663 -1.5605,17.85962 -5.7593,29.36475 -9.8509,26.992107 -19.964,39.642267 -27.3653,34.230337 -3.1206,-2.28186 -3.1404,-3.47732 -0.2584,-15.57909 6.0117,-25.243627 15.2021,-78.198267 15.2021,-87.593927 0,-6.7376 -0.9147,-9.83411 -3.1593,-10.69545 -6.8428,-2.6258 -13.5926,2.74682 -52.3647,41.68055 l -19.0487,19.12819 -19.1907,-19.12819 c -32.7484,-32.64187 -43.4011,-42.36171 -46.4277,-42.36171 -6.8671,0 -9.3115,2.5506 -9.3115,9.71622 0,8.21106 10.3878,69.35753 15.147,89.160687 2.6495,11.02504 7.347,17.72305 5,20.07007 -2.347,2.34702 -8.4407,-2.37974 -14.1355,-7.17163 z"
           id="path10435"
           inkscape:connector-curvature="0"
           sodipodi:nodetypes="cccccsccccssccccsscsc" />
        <path
           style="opacity:1;fill:#000000;fill-opacity:0;stroke:#000000;stroke-width:4.04061;stroke-linecap:round;stroke-linejoin:round;stroke-miterlimit:4;stroke-dasharray:none;stroke-opacity:0"
           d="m 6488.1984,244.20859 c -25.8477,-9.52966 -46.581,-24.69016 -52.6747,-38.51659 -4.9146,-11.15082 -8.417,-37.80681 -5.8536,-44.54923 1.9576,-5.14879 2.2978,-5.23596 15.0884,-3.86621 19.5858,2.09747 25.5023,0.26938 38.3022,-11.8347 13.7737,-13.02494 14.1497,-16.93634 3.35,-34.84255 -11.2994,-18.734647 -15.5102,-45.977297 -6.2189,-40.234997 1.3339,0.82442 8.2388,10.45744 15.3441,21.4067 18.9512,29.203847 24.4051,29.126297 42.5736,-0.60533 5.7368,-9.38794 11.8195,-18.22168 13.5171,-19.63055 3.8139,-3.16528 7.7913,-1.03126 6.5459,3.51214 -0.5073,1.85103 -1.4937,7.58074 -2.1919,12.73268 -0.7534,5.55998 -4.5175,14.752737 -9.2612,22.617767 -4.3955,7.28783 -7.9918,15.50349 -7.9918,18.25702 0,6.37204 7.5472,15.35237 19.7418,23.49062 9.1311,6.09376 10.3105,6.34606 26.7252,5.71721 l 17.1726,-0.65789 -0.078,20.20305 c -0.064,16.63126 -0.8422,21.65613 -4.3994,28.42209 -8.2793,15.7476 -31.8488,32.36446 -54.1423,38.1712 -14.3874,3.74744 -45.6309,3.86419 -55.5489,0.20757 z"
           id="path10437"
           inkscape:connector-curvature="0" />
        <path
           style="opacity:1;fill:#ffb2b8;fill-opacity:1;stroke:#ffb2b8;stroke-width:4.04061;stroke-linecap:round;stroke-linejoin:round;stroke-miterlimit:4;stroke-dasharray:none;stroke-opacity:1"
           d="m 6414.8219,238.98904 c -12.4598,-11.38755 -20.5812,-25.9707 -22.6523,-40.67542 -2.235,-15.86901 6.081,-77.72831 11.1858,-83.2063 3.3112,-3.55331 4.4245,4.06317 6.2359,42.66349 2.2069,47.0305 3.7009,56.38088 12.0468,75.39612 3.4538,7.86929 5.8702,14.71729 5.3698,15.21776 -0.5005,0.50048 -5.9842,-3.72756 -12.186,-9.39565 z"
           id="path10439"
           inkscape:connector-curvature="0" />
        <path
           style="opacity:1;fill:#ffb2b8;fill-opacity:1;stroke:#ffb2b8;stroke-width:4.04061;stroke-linecap:round;stroke-linejoin:round;stroke-miterlimit:4;stroke-dasharray:none;stroke-opacity:1"
           d="m 6605.746,245.59303 c 0.3767,-0.83338 3.0986,-6.09747 6.0485,-11.69799 7.5477,-14.32933 9.6946,-28.2414 11.7957,-76.436 1.0112,-23.19463 2.347,-42.68047 2.9684,-43.30187 3.9374,-3.93742 9.3315,16.30051 13.089,49.10843 4.5724,39.92319 1.1104,53.0885 -19.1663,72.88484 -9.8082,9.57588 -16.8297,14.07535 -14.7353,9.44259 z"
           id="path10441"
           inkscape:connector-curvature="0" />
        <path
           style="opacity:1;fill:#ffb2b8;fill-opacity:1;stroke:#ffb2b8;stroke-width:4.04061;stroke-linecap:round;stroke-linejoin:round;stroke-miterlimit:4;stroke-dasharray:none;stroke-opacity:1"
           d="m 6547.9968,332.24871 c -0.589,-0.95297 -0.1881,-4.8108 0.8909,-8.57296 2.8294,-9.86558 2.3743,-27.58655 -0.9934,-38.68512 l -2.9115,-9.59479 5.4587,-2.80239 c 7.3549,-3.77585 39.1271,-13.70343 40.253,-12.57751 0.4936,0.4936 -2.855,8.01909 -7.4415,16.72332 -8.1259,15.42169 -12.5935,28.26517 -15.1451,43.54011 -0.6901,4.13116 -2.6477,8.90413 -4.3501,10.60661 -3.3117,3.31162 -13.9861,4.23456 -15.761,1.36273 z"
           id="path10443"
           inkscape:connector-curvature="0" />
        <path
           style="opacity:1;fill:#ffb2b8;fill-opacity:1;stroke:#ffb2b8;stroke-width:4.04061;stroke-linecap:round;stroke-linejoin:round;stroke-miterlimit:4;stroke-dasharray:none;stroke-opacity:1"
           d="m 6470.6687,332.39409 c -3.2868,-2.08997 -6.6924,-11.59123 -6.6924,-18.6715 0,-8.28733 -6.7192,-25.21528 -16.341,-41.16847 -4.5316,-7.51346 -7.8653,-14.03482 -7.4082,-14.49191 1.0991,-1.09905 33.2329,9.80136 41.5064,14.07978 7.4385,3.84659 7.5426,4.27002 3.456,14.0506 -3.329,7.96759 -4.0105,24.66457 -1.3059,31.9999 0.9484,2.57247 2.3295,7.17734 3.0689,10.23305 1.2873,5.31943 1.0205,5.55452 -6.2701,5.5249 -4.1881,-0.017 -8.6942,-0.71737 -10.0137,-1.55635 z"
           id="path10445"
           inkscape:connector-curvature="0" />
        <path
           style="opacity:1;fill:#ffffff;fill-opacity:1;stroke:#ffffff;stroke-width:2.02031;stroke-linecap:round;stroke-linejoin:round;stroke-miterlimit:4;stroke-dasharray:none;stroke-opacity:1"
           d="m 6490.6328,245.53683 c -18.3208,-5.93276 -40.6027,-19.1892 -48.7901,-29.02733 -8.6586,-10.40443 -11.1648,-17.74958 -13.1787,-38.62433 -1.937,-20.07796 0.2642,-24.18167 11.6183,-21.66019 3.397,0.75439 10.4947,1.36616 15.7728,1.35948 8.7106,-0.011 10.0928,-0.28598 14.974,-2.97889 2.9577,-1.63171 9.1724,-6.66046 13.8106,-11.17499 12.278,-11.95074 12.5218,-15.01252 2.421,-30.40287 -7.2381,-11.02864 -9.4807,-16.609409 -11.5931,-28.850252 -1.6809,-9.740238 -1.2655,-15.979354 1.0639,-15.979354 3.7284,0 12.3695,10.890724 22.084,27.833301 2.5656,4.474425 6.1765,9.884325 8.0244,12.021985 2.9821,3.44975 3.9838,3.93841 8.9115,4.34706 4.9105,0.40721 5.9243,0.14697 8.7761,-2.25266 1.7734,-1.49219 5.8025,-7.10926 8.9537,-12.482387 11.5646,-19.719322 19.0474,-29.467299 22.6198,-29.467299 1.7426,0 1.9795,0.714548 1.9795,5.972054 0,13.359237 -4.4307,28.244642 -11.1514,37.464502 -8.5608,11.74412 -9.8787,18.4178 -4.9924,25.27999 2.9485,4.14081 16.6388,15.80911 21.4346,18.26879 5.512,2.82697 13.9235,3.32318 25.7618,1.51973 5.6895,-0.86673 11.0087,-1.32101 11.8204,-1.00951 0.8118,0.3115 2.0165,2.20429 2.6772,4.20619 1.5605,4.7284 0.5583,28.97823 -1.5066,36.45534 -4.7847,17.32532 -16.3567,29.26339 -39.6555,40.90988 -16.4314,8.21361 -28.6717,10.77141 -51.1808,10.69499 -11.1438,-0.0379 -14.5072,-0.43243 -20.655,-2.42323 z"
           id="path10447"
           inkscape:connector-curvature="0"
           inkscape:export-filename="E:\41_web\myWeb\images\hippo_005.png"
           inkscape:export-xdpi="100"
           inkscape:export-ydpi="100" />
        <path
           style="opacity:1;fill:#ffffff;fill-opacity:1;stroke:#ffffff;stroke-width:2.02031;stroke-linecap:round;stroke-linejoin:round;stroke-miterlimit:4;stroke-dasharray:none;stroke-opacity:1"
           d="m 6405.0199,-88.24531 c -7.3308,-3.330159 -12.6045,-9.97997 -12.6045,-15.8936 0,-7.04838 9.5518,-17.77825 18.0171,-20.23915 4.9621,-1.44253 5.7784,-1.433 9.8309,0.11467 15.2853,5.83751 15.2679,29.061905 -0.027,36.009407 -5.1766,2.351436 -10.0531,2.354215 -15.2165,0.0087 z"
           id="path10449"
           inkscape:connector-curvature="0"
           inkscape:export-filename="E:\41_web\myWeb\images\hippo_005.png"
           inkscape:export-xdpi="100"
           inkscape:export-ydpi="100" />
        <path
           style="opacity:1;fill:#ffffff;fill-opacity:1;stroke:#ffffff;stroke-width:2.02031;stroke-linecap:round;stroke-linejoin:round;stroke-miterlimit:4;stroke-dasharray:none;stroke-opacity:1"
           d="m 6614.649,-87.487342 c -6.8782,-2.734663 -12.2552,-11.364148 -12.453,-19.985818 -0.1782,-7.76529 2.5863,-12.9716 8.5998,-16.19599 4.3437,-2.32911 4.9067,-2.39383 10.3081,-1.18504 10.9147,2.44259 18.7989,11.46295 18.7989,21.50781 0,4.36816 -0.4714,5.425868 -4.2407,9.515127 -2.3324,2.53037 -5.4919,5.247626 -7.0209,6.038345 -3.1675,1.637961 -10.2518,1.792671 -13.9922,0.305566 z"
           id="path10451"
           inkscape:connector-curvature="0"
           inkscape:export-filename="E:\41_web\myWeb\images\hippo_005.png"
           inkscape:export-xdpi="100"
           inkscape:export-ydpi="100" />
        <path
           style="opacity:1;fill:#ffffff;fill-opacity:1;stroke:#ffffff;stroke-width:2.02031;stroke-linecap:round;stroke-linejoin:round;stroke-miterlimit:4;stroke-dasharray:none;stroke-opacity:1"
           d="m 6379.8987,-353.30634 c -1.3849,-1.81571 -3.0764,-5.38904 -3.7589,-7.94074 -1.1036,-4.1265 -1.0207,-5.06356 0.7499,-8.47544 3.3878,-6.52822 11.4665,-9.21875 19.3885,-6.45715 6.5496,2.28324 9.4953,12.50525 5.5653,19.31244 -2.5295,4.38124 -7.6481,6.85866 -14.1749,6.86061 -4.7449,10e-4 -5.4949,-0.3171 -7.7699,-3.29972 z"
           id="path10453"
           inkscape:connector-curvature="0"
           inkscape:export-filename="E:\41_web\myWeb\images\hippo_005.png"
           inkscape:export-xdpi="100"
           inkscape:export-ydpi="100" />
        <path
           style="opacity:1;fill:#ffffff;fill-opacity:1;stroke:#ffffff;stroke-width:2.02031;stroke-linecap:round;stroke-linejoin:round;stroke-miterlimit:4;stroke-dasharray:none;stroke-opacity:1"
           d="m 6636.1012,-350.50688 c -5.8321,-4.21394 -8.0642,-15.28003 -4.3205,-21.41995 5.4573,-8.95025 18.6974,-8.00634 24.1655,1.72281 3.6761,6.54079 2.0589,13.59742 -4.172,18.20413 -4.1526,3.07016 -12.4025,3.85605 -15.673,1.49301 z"
           id="path10455"
           inkscape:connector-curvature="0"
           inkscape:export-filename="E:\41_web\myWeb\images\hippo_005.png"
           inkscape:export-xdpi="100"
           inkscape:export-ydpi="100" />
      </g>
    </g>
  </g>
</svg>
