<?xml version="1.0" encoding="UTF-8" standalone="no"?>
<svg
   xmlns:dc="http://purl.org/dc/elements/1.1/"
   xmlns:cc="http://creativecommons.org/ns#"
   xmlns:rdf="http://www.w3.org/1999/02/22-rdf-syntax-ns#"
   xmlns:svg="http://www.w3.org/2000/svg"
   xmlns="http://www.w3.org/2000/svg"
   xmlns:sodipodi="http://sodipodi.sourceforge.net/DTD/sodipodi-0.dtd"
   xmlns:inkscape="http://www.inkscape.org/namespaces/inkscape"
   width="121.16048"
   height="225.33041"
   version="1.1"
   preserveAspectRatio="none"
   id="svg58"
   sodipodi:docname="hippo_001.svg"
   inkscape:version="1.0.2 (e86c8708, 2021-01-15)"
   inkscape:export-filename="/Users/teppy/Pictures/イラスト/hippo/hippo_001.png"
   inkscape:export-xdpi="92"
   inkscape:export-ydpi="92">
  <defs
     id="defs62" />
  <sodipodi:namedview
     pagecolor="#ffffff"
     bordercolor="#666666"
     borderopacity="1"
     objecttolerance="10"
     gridtolerance="10"
     guidetolerance="10"
     inkscape:pageopacity="0"
     inkscape:pageshadow="2"
     inkscape:window-width="1632"
     inkscape:window-height="943"
     id="namedview60"
     showgrid="false"
     inkscape:snap-global="false"
     fit-margin-top="0"
     fit-margin-left="0"
     fit-margin-right="0"
     fit-margin-bottom="0"
     inkscape:zoom="1.4811805"
     inkscape:cx="-129.24439"
     inkscape:cy="66.596738"
     inkscape:window-x="2039"
     inkscape:window-y="767"
     inkscape:window-maximized="0"
     inkscape:current-layer="svg58"
     inkscape:document-rotation="0" />
  <metadata
     id="metadata2">
    <rdf:RDF>
      <cc:Work
         rdf:about="">
        <dc:format>image/svg+xml</dc:format>
        <dc:type
           rdf:resource="http://purl.org/dc/dcmitype/StillImage" />
        <dc:title></dc:title>
      </cc:Work>
    </rdf:RDF>
  </metadata>
  <g
     transform="translate(-3607.8915,1246.6634)"
     id="g54">
    <g
       transform="matrix(1.4708,0,0,1.4708,-2357.9,230.17)"
       id="g52">
      <path
         d="m 4082.8,-851.32 c -3.3204,-0.36598 -5.657,-1.1537 -6.8783,-2.3188 -1.2684,-1.21 -1.3686,-2.6872 -0.4425,-6.5207 0.7327,-3.0327 0.981,-5.1475 0.8246,-7.0218 -0.1303,-1.5617 -0.1881,-1.6227 -2.1645,-2.2836 -1.8375,-0.61447 -3.023,-1.3195 -4.4272,-2.6331 -2.1151,-1.9786 -2.8237,-3.6092 -2.8217,-6.4932 0,-3.1262 0.7309,-6.5347 2.6333,-12.316 1.4323,-4.3527 1.8442,-6.1948 1.9807,-8.8563 0.2668,-5.2066 1.0542,-9.4675 2.4692,-13.362 0.7337,-2.0195 2.478,-5.4957 3.294,-6.5648 0.3569,-0.46754 0.6489,-0.96855 0.6489,-1.1134 0,-0.46649 -1.0331,-1.4574 -2.0214,-1.9389 -0.5287,-0.25761 -1.6921,-0.72532 -2.5851,-1.0394 -4.2771,-1.504 -6.3439,-3.2453 -8.057,-6.7882 -0.8777,-1.8151 -1.1864,-3.1547 -1.437,-6.2367 -0.1091,-1.3422 -0.2388,-2.7777 -0.2881,-3.1899 l -0.09,-0.74949 -2.1158,-0.07 c -2.5276,-0.0836 -3.3017,-0.37206 -3.8422,-1.4314 -0.7119,-1.3954 -0.4013,-4.3295 0.8392,-7.9277 0.4402,-1.2766 0.621,-2.0772 0.5576,-2.4682 -0.052,-0.31829 -0.4615,-1.5017 -0.9107,-2.6299 -0.9487,-2.3825 -1.2986,-3.7962 -1.4737,-5.9546 -0.3111,-3.8346 0.9709,-8.4102 2.9521,-10.537 0.2667,-0.28629 1.2333,-1.077 2.1479,-1.7572 0.9146,-0.6802 1.7628,-1.4221 1.8848,-1.6488 0.1553,-0.28842 0.2329,-1.7682 0.2587,-4.9314 0.028,-3.3704 0.1113,-4.864 0.3296,-5.8751 0.4142,-1.9192 0.3828,-2.1556 -0.459,-3.4519 -2.1159,-3.2583 -3.2738,-7.8724 -2.406,-9.5879 1.1345,-2.24301 2.2901,-2.54511 11.654,-3.04771 3.4298,-0.184 5.4362,-0.4805 8.406,-1.2419 2.2359,-0.5732 3.9436,-0.6354 8.0444,-0.2929 4.725,0.3947 8.841,0.3942 13.739,0 4.4894,-0.363 5.3521,-0.3127 9.0991,0.5308 3.2817,0.7387 5.0496,0.9579 8.8878,1.1016 3.6458,0.1364 6.0368,0.3769 7.2479,0.729 1.9827,0.5764 3.1466,1.98841 3.1466,3.81751 0,2.0397 -1.2424,5.6628 -2.7203,7.9327 -0.7698,1.1824 -0.8953,1.9533 -0.513,3.1521 0.114,0.35752 0.2527,2.8276 0.3197,5.6932 0.093,3.9605 0.1766,5.1673 0.3861,5.5475 0.1473,0.26721 0.8777,0.91391 1.6232,1.4371 1.9078,1.3391 2.9458,2.4421 3.6915,3.9228 0.8597,1.7072 1.3524,3.581 1.511,5.7467 0.2416,3.2983 -0.07,5.3262 -1.3379,8.6928 -0.943,2.5049 -0.9473,2.919 -0.062,6.0173 0.9709,3.3987 1.1519,5.6632 0.5475,6.8479 -0.5796,1.1362 -1.5376,1.5224 -4.0783,1.6438 l -1.9885,0.095 -0.2197,2.8808 c -0.3004,3.9386 -0.5981,5.264 -1.6726,7.4457 -1.6961,3.444 -3.7326,5.1114 -8.1406,6.6654 -3.9365,1.3878 -5.1103,2.6098 -3.8127,3.9692 0.2893,0.30301 0.9359,1.3237 1.437,2.2683 2.586,4.8747 3.9334,10.183 4.3624,17.187 0.213,3.4778 0.4613,4.6113 2.1762,9.9325 0.6912,2.1447 1.5809,5.1928 1.9772,6.7735 0.8053,3.2124 1.8369,5.5491 3.0956,7.0118 0.977,1.1354 1.3777,1.3194 3.4111,1.5666 2.3535,0.28609 3.0056,0.61409 4.2019,2.1134 1.664,2.0854 2.8207,3.9578 2.5885,4.1899 -0.062,0.0621 -0.7622,0.16875 -1.5556,0.23694 -1.5061,0.12943 -1.9736,0.34116 -1.9736,0.8938 0,0.42007 -0.6683,0.89198 -1.2631,0.89198 -0.2528,0 -0.7727,-0.16783 -1.1555,-0.37296 -0.3827,-0.20513 -0.7948,-0.33499 -0.9158,-0.28856 -0.1209,0.0464 -0.4007,0.58031 -0.6217,1.1864 -0.3543,0.97167 -0.4587,1.102 -0.8824,1.102 -0.5537,0 -2.1101,-1.547 -2.8951,-2.8776 -0.501,-0.84926 -0.5132,-0.98073 -0.4238,-4.568 0.044,-1.7862 -0.1266,-2.4509 -0.8407,-3.2653 -0.4114,-0.46929 -0.5381,-0.39318 -0.6728,0.40433 -0.3302,1.9543 -2.6425,4.03 -6.2532,5.6134 -1.1023,0.4834 -2.1177,0.9731 -2.2564,1.0882 -0.8733,0.72479 -0.7893,4.0156 0.2033,7.9662 0.9929,3.9518 0.9488,5.4666 -0.1979,6.8062 -1.8679,2.1822 -8.577,3.3272 -13.468,2.2984 -3.4329,-0.72214 -5.5456,-2.1558 -5.9381,-4.0295 -0.386,-1.8422 -0.1308,-3.7063 0.9017,-6.5851 0.6438,-1.7951 0.6144,-2.1823 -0.2281,-3.006 -0.6866,-0.67131 -1.4516,-0.8511 -2.4628,-0.57881 -1.6952,0.45647 -1.9043,1.7587 -0.7203,4.4862 0.7369,1.6973 0.7646,1.8294 0.7683,3.659 0,1.705 -0.046,1.9993 -0.4873,2.8924 -0.5866,1.1873 -1.6331,1.9701 -3.5006,2.6186 -2.2118,0.76807 -5.8042,1.1025 -8.5693,0.7977 z m 3.7219,-2.1998 c 0.2046,-0.20458 -0.7186,-2.5156 -1.2188,-3.0511 -0.5682,-0.6083 -0.9278,-0.64726 -1.4211,-0.15397 -0.2921,0.29212 -0.3616,0.60257 -0.3616,1.6167 0,1.5972 0.2923,1.8775 1.8492,1.774 0.5696,-0.0379 1.0881,-0.12141 1.1523,-0.1856 z m 21.965,-0.15172 c 0.3278,-0.32782 0.371,-0.54403 0.3076,-1.5404 -0.056,-0.88134 -0.1673,-1.2525 -0.4641,-1.5493 -0.3348,-0.3348 -0.4556,-0.36048 -0.8503,-0.18067 -0.562,0.25608 -1.0995,1.098 -1.4549,2.279 -0.3477,1.155 -0.1719,1.3727 1.1083,1.3727 0.7479,0 1.06,-0.0879 1.3534,-0.38134 z m -16.848,-0.26329 c 0.8741,-0.25958 0.9441,-0.31991 0.8421,-0.72618 -0.2067,-0.82346 -1.3547,-2.4152 -1.8276,-2.5338 -1.4233,-0.35723 -2.8529,1.5505 -2.2509,3.0038 0.2109,0.50931 0.2806,0.53931 1.2533,0.53931 0.5664,0 1.4588,-0.12739 1.9831,-0.28309 z m 12.102,-0.3285 c 0.3503,-0.7329 0.038,-1.6571 -0.8541,-2.5283 -0.5236,-0.51123 -0.8048,-0.66247 -1.0735,-0.57721 -0.4782,0.15178 -1.8226,1.9425 -1.9549,2.6038 -0.093,0.4671 -0.035,0.5474 0.5916,0.81045 0.447,0.18773 1.1141,0.27778 1.8685,0.25222 1.0983,-0.0372 1.1893,-0.0731 1.4224,-0.56096 z m -22.855,-0.034 c 0.1563,-0.15624 0.2841,-0.50772 0.2841,-0.78106 0,-0.77587 -0.9172,-2.41 -1.5582,-2.7762 -0.5434,-0.31041 -0.5791,-0.30985 -0.9808,0.0154 -0.3296,0.2669 -0.4332,0.56485 -0.4954,1.4238 -0.047,0.64597 0.01,1.249 0.1364,1.4878 0.419,0.78302 2.0645,1.1798 2.6139,0.63038 z m 32.774,-0.30755 c 0.6007,-0.60063 0.7657,-1.9822 0.336,-2.8131 -0.401,-0.77534 -0.9681,-0.825 -1.7115,-0.14985 -0.8394,0.76234 -1.3307,2.3972 -0.9884,3.289 0.1867,0.48663 1.7696,0.2683 2.3639,-0.32607 z m -25.259,-3.6566 c 2.0438,-0.92276 2.2859,-0.94223 3.5819,-0.28803 1.1637,0.58746 1.5672,0.67551 1.7489,0.38159 0.06,-0.0977 -0.3416,-1.3095 -0.8932,-2.6928 -1.4531,-3.6438 -1.3688,-4.8966 0.399,-5.9346 0.775,-0.45506 1.0493,-0.50882 2.8462,-0.55795 1.936,-0.0529 2.0134,-0.0398 2.9336,0.49798 1.8044,1.0545 1.9224,2.3395 0.5345,5.8208 -1.0121,2.5386 -1.0891,2.8042 -0.8547,2.9491 0.1033,0.0638 0.8773,-0.14589 1.72,-0.466 1.7063,-0.64815 1.3791,-0.68202 3.8463,0.39811 0.9271,0.40587 0.9686,0.40836 1.8078,0.10836 0.4724,-0.16887 1.5096,-0.35816 2.305,-0.42062 1.0094,-0.0793 1.8284,-0.27694 2.7116,-0.65445 1.0236,-0.43751 1.4986,-0.53633 2.4857,-0.51713 0.6711,0.0131 1.2202,-0.0187 1.2202,-0.0705 0,-0.0518 -0.1199,-0.84583 -0.2664,-1.7644 -0.3769,-2.363 -0.8147,-6.2208 -0.8166,-7.1956 v -0.82525 l 3.0279,-1.4636 c 3.4818,-1.6829 4.8424,-2.594 5.6144,-3.7595 1.5108,-2.2809 1.1454,-7.0179 -1.2057,-15.633 -0.502,-1.8394 -1.0893,-4.2917 -1.3052,-5.4496 -0.2159,-1.1579 -0.4553,-2.2069 -0.5321,-2.3312 -0.4025,-0.65127 -1.3378,0.7655 -1.5472,2.3436 -0.091,0.6838 -0.036,1.235 0.198,2.009 0.3757,1.2407 0.2944,1.4234 -0.8938,2.0096 -0.4043,0.19949 -1.2291,0.885 -1.8329,1.5234 -1.3559,1.4336 -1.8524,1.5158 -2.9834,0.49395 l -0.738,-0.66669 -1.1452,0.30514 c -2.5642,0.68328 -2.9839,0.388 -2.9839,-2.0994 v -1.601 l -0.9039,-1.0392 c -0.4971,-0.57156 -0.9038,-1.2007 -0.9038,-1.3981 0,-0.37221 0.6335,-1.041 1.4876,-1.5703 0.7152,-0.4433 0.9388,-0.98725 1.9369,-4.7112 1.051,-3.9218 1.6036,-5.3679 1.8695,-4.8928 0.2116,0.37821 0.058,2.0163 -0.4311,4.5923 -0.7558,3.9819 -1.6221,5.9746 -2.5972,5.9746 -0.2276,0 -0.5118,0.11811 -0.6316,0.26247 -0.3963,0.47749 -0.1355,0.89968 0.7179,1.1622 0.4463,0.13729 0.9335,0.30822 1.0826,0.37985 0.3899,0.18727 0.4326,1.323 0.089,2.3585 -0.466,1.4029 -0.1091,1.6023 1.3096,0.73163 1.6151,-0.99116 2.1016,-0.88535 2.5646,0.55782 0.1168,0.36405 0.3283,0.70637 0.4699,0.76071 0.2791,0.1071 0.8056,-0.51601 0.8161,-0.96572 0.015,-0.64406 0.5195,-1.1737 1.3766,-1.4449 1.0004,-0.31655 1.2214,-0.80464 0.6134,-1.3548 -0.5279,-0.47779 -0.4703,-1.1208 0.3492,-3.8985 1.6488,-5.5887 1.6643,-9.0899 0.064,-14.457 -0.7644,-2.5632 -1.8589,-5.1955 -2.4022,-5.7771 -0.6324,-0.677 -1.2805,-0.70862 -3.8938,-0.19 -3.2114,0.63734 -9.0551,0.9506 -15.818,0.84792 -6.3262,-0.096 -9.9903,-0.37732 -13.459,-1.0332 -2.8795,-0.54444 -3.1034,-0.40673 -4.2712,2.6273 -1.4626,3.8001 -2.3346,7.8196 -2.3335,10.756 7e-4,2.1703 0.1804,3.2731 1.2034,7.387 l 0.8254,3.3196 -0.4748,0.44022 c -0.6374,0.59108 -0.3875,1.0466 0.7496,1.3662 0.7861,0.22096 0.8805,0.30898 1.129,1.0523 0.5369,1.6061 0.907,1.6699 1.5289,0.2637 0.2457,-0.55571 0.5571,-0.99425 0.7058,-0.99425 0.1463,0 0.8028,0.28472 1.4587,0.6327 0.656,0.34799 1.3135,0.63271 1.4612,0.63271 0.3746,0 0.3392,-0.6246 -0.1112,-1.9582 -0.4536,-1.3434 -0.3735,-1.5018 0.9812,-1.9399 1.6328,-0.52796 1.8278,-1.1437 0.4892,-1.5448 -0.9489,-0.28429 -1.3155,-0.88074 -1.907,-3.1032 -0.6755,-2.538 -0.9928,-4.5494 -0.976,-6.187 l 0.015,-1.4462 0.4378,0.92484 c 0.2408,0.50866 0.8019,2.2983 1.2469,3.977 1.0319,3.8932 1.3246,4.5278 2.4088,5.2214 0.4688,0.29994 0.8708,0.70405 0.8995,0.90419 0.028,0.19902 -0.2936,0.93115 -0.7158,1.627 -0.722,1.1899 -0.7734,1.3654 -0.8653,2.9519 -0.081,1.3913 -0.1592,1.7318 -0.4487,1.9433 -0.4552,0.33273 -1.4838,0.32657 -2.451,-0.0147 -1.0951,-0.38637 -1.3116,-0.34805 -2.0422,0.36155 -0.3896,0.37838 -0.832,0.63271 -1.1005,0.63271 -0.2667,0 -0.9859,-0.40998 -1.7715,-1.0098 -0.7274,-0.55535 -1.7089,-1.3048 -2.1812,-1.6655 -0.9544,-0.7289 -0.9995,-0.91337 -0.5629,-2.2984 0.1988,-0.63084 0.2563,-1.1985 0.1753,-1.7332 -0.1633,-1.0786 -0.8296,-2.2265 -1.3346,-2.2991 -0.221,-0.0318 -0.4019,-0.0257 -0.4019,0.0136 0,0.64049 -0.9486,4.9736 -1.652,7.5463 -1.3819,5.054 -1.7549,6.8872 -1.9874,9.7654 -0.3538,4.3811 0.087,5.9208 2.1544,7.5171 0.4688,0.36208 2.3037,1.3602 4.0777,2.218 l 3.2254,1.5596 -0.1169,1.5366 c -0.064,0.84511 -0.3129,2.9929 -0.5525,4.7729 -0.2397,1.78 -0.3932,3.3051 -0.3413,3.3892 0.052,0.0841 0.5982,0.14164 1.2138,0.12788 0.8819,-0.0197 1.3495,0.0823 2.204,0.48068 0.8255,0.38486 1.5166,0.54232 2.8924,0.65898 1.3435,0.11393 1.9238,0.24331 2.2596,0.5038 0.2486,0.19278 0.5231,0.35503 0.61,0.36055 0.087,0.006 0.7887,-0.2747 1.5594,-0.62272 z m 41.489,-10.58 c 0.1703,-0.53674 0.7357,-0.84247 2.684,-1.4515 1.9826,-0.61972 2.1167,-0.82307 1.1558,-1.753 -0.778,-0.75306 -1.7276,-1.1293 -2.8503,-1.1293 -1.9443,0 -2.9399,1.1681 -2.6183,3.0718 0.2196,1.2996 1.341,2.1685 1.6288,1.262 z m -25.91,-50.97 c 4.8155,-0.17596 6.2962,-0.38471 7.8245,-1.1031 1.0654,-0.50082 1.0532,-0.82629 -0.038,-1.0127 -0.4722,-0.0807 -7.6919,-0.1451 -16.044,-0.14321 -15.713,0.004 -16.562,0.0408 -16.012,0.70283 0.3092,0.37261 1.877,0.99985 3.0464,1.2188 2.2909,0.4289 13.739,0.61089 21.223,0.3374 z m 3.258,-4.3413 c 7.6019,-0.18905 8.6824,-0.31426 11.022,-1.2772 4.2539,-1.751 7.1135,-4.6904 8.0028,-8.2265 0.3481,-1.384 0.599,-5.1035 0.7518,-11.146 0.1021,-4.0414 0.081,-4.8441 -0.1287,-4.907 -0.138,-0.0413 -1.6745,-0.29255 -3.4144,-0.55823 -5.4904,-0.83836 -19.019,-3.7922 -24.578,-5.3663 -2.2681,-0.64226 -2.7106,-0.71641 -3.3443,-0.56041 -0.4018,0.0989 -2.4794,0.63445 -4.6171,1.1902 -6.3308,1.6458 -14.898,3.4827 -21.602,4.6317 l -3.977,0.68161 -0.062,1.3351 c -0.1147,2.4746 0.3477,13.02 0.6332,14.441 0.7655,3.8093 4.2623,7.1653 9.1,8.7336 1.6902,0.54794 3.2976,0.81995 5.9655,1.0096 2.9816,0.21189 18.048,0.22259 26.248,0.0187 z m -13.053,-7.3999 c -1.5927,-0.48447 -2.3218,-1.2531 -2.5203,-2.6569 -0.365,-2.5825 0.6747,-4.9101 2.4558,-5.4979 0.9069,-0.2993 2.2881,-0.10099 3.2588,0.46789 1.5631,0.91603 1.2201,1.4446 -1.1228,1.7302 -0.8901,0.10853 -1.758,0.27168 -1.9286,0.36255 -0.1706,0.0909 -0.4021,0.50635 -0.5144,0.92329 -0.3186,1.1832 0,1.9655 1.0716,2.655 1.6011,1.0275 1.8068,1.6076 0.7058,1.9914 -0.6237,0.21741 -0.7637,0.21985 -1.4059,0.0245 z m -22.505,-1.3366 c -2.3879,-0.93626 -4.5534,-3.7733 -4.7574,-6.2326 -0.1839,-2.2176 0.8372,-4.7333 2.6625,-6.5596 1.6212,-1.6222 2.3655,-1.8703 5.62,-1.8736 2.2539,-0.002 2.5177,0.0336 3.4516,0.46905 1.3563,0.6324 2.5593,1.9251 3.4444,3.7012 1.6939,3.3988 1.3868,5.9537 -1.0098,8.4021 -1.2237,1.2501 -1.9704,1.721 -3.2578,2.0545 -1.2937,0.33513 -5.3329,0.3607 -6.1535,0.039 z m 4.8928,-4.7286 c 1.5317,-0.8976 1.9235,-2.7623 0.8929,-4.2494 -1.5166,-2.1884 -4.3117,-2.4249 -5.7178,-0.48389 -1.1191,1.5449 -1.0982,2.8934 0.063,4.0857 0.8053,0.82663 1.4685,1.0815 2.8357,1.0899 0.9169,0.006 1.3194,-0.0868 1.9259,-0.4423 z m 36.841,4.3443 c -2.3788,-1.19 -3.9737,-3.3611 -4.1675,-5.6728 -0.2984,-3.5593 1.164,-6.4896 3.9289,-7.8729 2.6186,-1.31 5.1506,-1.2914 7.8738,0.058 2.4668,1.2223 3.7323,2.9431 4.2629,5.7965 0.4121,2.2159 -0.355,4.4363 -2.1691,6.2788 -1.6581,1.6841 -2.7595,2.0368 -6.3606,2.0368 -2.0564,0 -2.1579,-0.0188 -3.3684,-0.62439 z m 6.2406,-4.3219 c 1.7452,-0.84691 2.1743,-2.3279 1.2498,-4.3136 -0.6053,-1.2998 -1.3003,-1.7657 -2.636,-1.7666 -3.1464,-0.002 -5.1801,3.1223 -3.4575,5.3121 1.0329,1.3131 3.0585,1.6343 4.8437,0.76801 z m -56.336,-5.1489 c 0.1586,-0.15827 0.2435,-1.1378 0.2833,-3.2685 0.073,-3.8941 -0.011,-4.1381 -1.6903,-4.9239 -0.6611,-0.30938 -1.2574,-0.48814 -1.3352,-0.4003 -0.572,0.64592 -1.4878,4.5027 -1.5244,6.4201 -0.03,1.5511 0.2127,2.0104 1.2244,2.3211 0.7506,0.23053 2.7607,0.13245 3.0422,-0.14844 z m 69.113,-0.11205 c 0.8858,-0.37009 1.0494,-0.92881 0.8064,-2.7544 -0.271,-2.0367 -0.8432,-4.2092 -1.2521,-4.7541 -0.6867,-0.91521 -2.4767,-0.28962 -3.0419,1.0632 -0.1957,0.46844 -0.2748,1.3813 -0.2855,3.296 -0.013,2.2636 0.033,2.7204 0.3111,3.1456 0.3183,0.48579 0.3554,0.4947 1.5827,0.38063 0.6913,-0.0642 1.537,-0.23385 1.8793,-0.3769 z m -3.4085,-9.8461 c 1.8349,-0.80377 3.2257,-2.827 4.047,-5.8875 0.5442,-2.0279 0.5523,-5.8975 0.016,-7.8896 -1.0335,-3.8425 -3.4261,-6.3487 -6.2955,-6.5945 -1.7683,-0.15145 -1.874,-0.19508 -1.874,-0.77318 0,-0.28455 0.1948,-1.0355 0.433,-1.6687 0.5173,-1.3756 0.7743,-2.9983 1.0101,-6.3802 0.211,-3.0257 0.084,-3.399 -0.7933,-2.3261 -0.8909,1.09 -1.9579,2.0498 -2.5873,2.3273 -1.1451,0.50481 -3.9163,0.21301 -5.6101,-0.59072 -0.9688,-0.45972 -2.5271,-1.9829 -2.7645,-2.702 -0.3397,-1.0295 -0.1494,-2.9047 0.4107,-4.0467 0.6022,-1.228 1.8932,-2.5579 2.9779,-3.0678 0.4516,-0.21227 1.401,-0.45357 2.1097,-0.53624 0.7088,-0.0827 1.5146,-0.23914 1.7908,-0.34773 l 0.5021,-0.19743 -0.3504,-0.68685 c -1.3609,-2.6676 -7.3576,-6.16694 -11.68,-6.81584 -3.3552,-0.5037 -8.5542,-0.6863 -16.616,-0.5836 -9.933,0.1265 -12.427,0.3807 -15.407,1.57034 -1.8206,0.72664 -4.0081,1.9531 -5.5707,3.1233 -1.1506,0.86172 -2.8092,2.7979 -2.8092,3.2794 0,0.242 1.3594,0.65031 2.1651,0.65031 1.6788,0 4.0123,1.6763 5.0746,3.6454 0.5245,0.97239 0.6171,1.3222 0.6137,2.3201 -0.012,3.6572 -4.1647,6.1573 -8.2244,4.9517 -0.8225,-0.24424 -1.189,-0.51121 -2.2925,-1.6697 l -1.3135,-1.379 v 2.438 c 0,2.832 0.3433,5.3235 0.9887,7.2006 0.251,0.73035 0.4565,1.5235 0.4565,1.7625 0,0.4195 -0.046,0.43462 -1.327,0.43462 -1.1232,0 -1.4997,0.0864 -2.4524,0.5624 -3.7754,1.8866 -5.6155,6.8355 -4.628,12.447 0.6846,3.8896 2.1912,6.4962 4.2989,7.4374 0.8319,0.37149 1.2152,0.42082 3.2046,0.41248 2.0152,-0.008 2.6703,-0.10159 6.0559,-0.86094 2.0879,-0.4683 6.196,-1.3808 9.129,-2.0278 6.4094,-1.4138 9.7091,-2.2476 12.159,-3.0727 1.0074,-0.33924 1.9959,-0.6168 2.1966,-0.6168 0.2008,0 1.3847,0.32024 2.6309,0.71164 2.9828,0.93683 5.2987,1.5105 13.112,3.248 14.268,3.1729 14.826,3.2442 17.212,2.199 z m -11.613,-19.491 c -0.3386,-1.6496 -0.5072,-1.9702 -1.6022,-3.0466 -1.2825,-1.2607 -2.6875,-1.9037 -4.1909,-1.9178 -1.5581,-0.0147 -2.1563,0.45426 -3.8024,2.981 -1.1532,1.7701 -1.7366,2.2652 -2.2145,1.8792 -0.6625,-0.53513 0.4008,-3.5738 1.7706,-5.0598 1.066,-1.1564 2.2667,-1.6339 4.0787,-1.6217 1.0217,0.007 1.7443,0.12324 2.462,0.3965 2.2996,0.87568 4.2997,2.9007 4.4543,4.5099 0.1561,1.6243 -0.6732,3.2552 -0.9556,1.8793 z m -43.479,-0.24092 c -0.3112,-0.58141 -0.1268,-2.116 0.3749,-3.1206 0.5617,-1.1247 1.5509,-2.0064 3.0455,-2.7145 1.1163,-0.52894 1.3318,-0.5673 3.1858,-0.5673 1.8006,0 2.0836,0.0467 2.995,0.4943 1.2271,0.60267 2.1899,1.5354 2.6959,2.6118 0.3027,0.64407 0.3691,1.0862 0.3272,2.1807 -0.034,0.88389 -0.1316,1.3989 -0.2745,1.4462 -0.3334,0.11031 -1.0847,-0.78958 -1.9049,-2.2817 -0.4031,-0.7334 -0.9954,-1.5959 -1.3161,-1.9166 -2.1518,-2.1517 -7.0893,-0.10024 -7.9495,3.303 -0.2489,0.98453 -0.8107,1.2536 -1.1793,0.56491 z m 47.648,-12.298 c 1.0893,-0.27427 1.7113,-0.9249 1.7113,-1.7899 0,-1.7864 -1.5893,-3.6129 -3.1438,-3.6129 -0.526,0 -1.4639,0.74316 -1.829,1.4493 -0.4679,0.90467 -0.6633,2.1537 -0.442,2.8242 0.3657,1.1083 1.9131,1.5802 3.7035,1.1293 z m -48.1,-0.23547 c 0.8323,-0.34774 1.0692,-0.85855 0.947,-2.042 -0.1005,-0.97444 -0.7213,-2.2837 -1.3172,-2.7782 -0.1701,-0.14121 -0.6473,-0.25675 -1.0604,-0.25675 -1.2264,0 -2.5792,1.3683 -2.9982,3.0326 -0.2467,0.97952 -0.066,1.4269 0.7884,1.9476 0.7043,0.42943 2.7162,0.48287 3.6404,0.0967 z m -5.5075,-9.7561 c 0.5022,-0.72645 1.6886,-2.1875 2.6365,-3.2469 1.9611,-2.1918 2.0487,-2.0438 -1.0329,-1.7439 -5.3592,0.52153 -6.4644,1.075 -6.2522,3.1308 0.092,0.89342 0.8967,3.2825 1.7708,5.2584 l 0.387,0.87505 0.7889,-1.4763 c 0.4338,-0.81199 1.1997,-2.0707 1.7019,-2.7972 z m 59.595,2.4001 c 0.6972,-1.3981 1.328,-3.5932 1.328,-4.6216 0,-1.7566 -0.9435,-2.222 -5.4299,-2.6784 -3.8815,-0.3948 -3.684,-0.4554 -2.4987,0.76638 1.5571,1.6051 2.8655,3.2352 4.0263,5.0164 1.2112,1.8585 1.7235,2.4737 1.9872,2.3858 0.1015,-0.0338 0.3657,-0.42476 0.5871,-0.86869 z"
         id="path4"
         inkscape:connector-curvature="0"
         style="fill:#151515;stroke:#151515;stroke-width:0.58099997" />
      <path
         transform="translate(7166.3,-594.15)"
         d="m -3086.7,-330.2 c -6.5368,-0.66276 -11.791,-4.0504 -13.299,-8.5743 -0.4632,-1.3896 -0.7063,-4.6597 -0.8484,-11.41 l -0.1103,-5.2391 0.5133,-0.10627 c 0.2823,-0.0584 1.9054,-0.34953 3.6069,-0.64685 7.1366,-1.2471 12.48,-2.3899 20.806,-4.4496 l 5.8683,-1.4518 5.4454,1.3625 c 8.0276,2.0086 15.943,3.6947 22.151,4.7183 1.2153,0.20041 2.4409,0.41151 2.7234,0.46911 l 0.5138,0.10472 -0.1092,5.239 c -0.1236,5.9343 -0.3687,9.3912 -0.7659,10.8 -0.8397,2.9785 -3.0087,5.4865 -6.2512,7.228 -1.9183,1.0303 -3.7459,1.5862 -5.9478,1.809 -2.4492,0.24786 -32.05,0.37509 -34.296,0.14741 z m 16.382,-7.3758 c 0.5606,-0.45388 0.3554,-0.90144 -0.7922,-1.7279 -0.5283,-0.38052 -1.0564,-0.86846 -1.1734,-1.0843 -0.4478,-0.82639 -0.062,-2.4644 0.6151,-2.609 0.2065,-0.0441 1.0473,-0.20076 1.8685,-0.34813 0.8212,-0.14737 1.6167,-0.39488 1.7678,-0.55002 0.2493,-0.25607 0.2139,-0.33515 -0.3838,-0.85774 -1.0354,-0.90522 -2.7665,-1.2541 -3.9705,-0.80024 -0.7964,0.30026 -1.6196,1.2222 -2.0006,2.2406 -0.3906,1.0438 -0.4697,2.8901 -0.1702,3.9686 0.4347,1.5654 3.1112,2.6817 4.2393,1.7682 z m -17.142,-1.4721 c 1.2792,-0.59115 3.1009,-2.4131 3.7862,-3.7866 0.4595,-0.92119 0.5231,-1.2345 0.5178,-2.5527 0,-1.1908 -0.1019,-1.7482 -0.4682,-2.6864 -0.9055,-2.3194 -2.2543,-4.0065 -3.894,-4.8708 -0.8831,-0.46556 -1.0306,-0.48612 -3.4854,-0.48612 -3.526,0 -3.9722,0.14502 -5.6702,1.8429 -2.0486,2.0484 -2.9752,4.2691 -2.7621,6.6194 0.2018,2.2254 2.1108,4.9546 4.21,6.0186 0.9416,0.47729 0.9835,0.48182 3.8687,0.41867 2.6837,-0.0587 2.9952,-0.10006 3.8972,-0.51687 z m 42.45,-0.0263 c 1.2707,-0.62398 2.8578,-2.313 3.5366,-3.7637 0.9317,-1.9909 0.8237,-4.2246 -0.318,-6.5768 -1.4871,-3.0641 -5.9431,-4.9416 -9.5182,-4.0104 -3.2506,0.84666 -5.2688,3.1151 -5.7681,6.483 -0.4954,3.3422 0.9528,6.1419 4.0422,7.8146 l 1.1882,0.64331 2.9168,-0.0486 c 2.7848,-0.0464 2.9623,-0.0709 3.9205,-0.54146 z"
         id="path6"
         inkscape:connector-curvature="0"
         style="fill:#fef5e4;fill-rule:evenodd;stroke:#282814;stroke-width:0.20630001;stroke-linecap:round;stroke-linejoin:round" />
      <g
         id="g18"
         style="fill:#81d8d0;fill-rule:evenodd;stroke:#282814;stroke-width:0.20630001;stroke-linecap:round;stroke-linejoin:round">
        <path
           transform="translate(7166.3,-594.15)"
           d="m -3042,-358.24 c -2.6544,-0.43587 -15.741,-3.2793 -20.241,-4.3978 -1.3612,-0.33836 -3.7133,-0.97416 -5.227,-1.4129 l -2.7522,-0.79769 -2.286,0.70082 c -3.1661,0.97067 -6.6462,1.825 -15.986,3.9244 -7.9145,1.779 -8.0868,1.8092 -10.752,1.8867 -3.2326,0.094 -3.8367,-0.0693 -5.1631,-1.3957 -1.0461,-1.0462 -1.923,-2.8071 -2.4978,-5.0163 -0.3471,-1.334 -0.413,-2.0193 -0.4078,-4.2426 0.01,-2.4209 0.048,-2.7713 0.4866,-4.0267 1.2631,-3.6155 3.5686,-5.6843 6.5889,-5.9128 0.8629,-0.0653 1.3785,-0.18446 1.435,-0.33172 0.049,-0.12643 -0.1239,-0.95077 -0.3831,-1.8319 -0.6908,-2.3478 -0.9727,-4.3911 -0.9734,-7.0565 l -7e-4,-2.3657 1.3944,1.3322 c 1.2105,1.1566 1.5226,1.3609 2.3672,1.5499 1.4899,0.33342 3.5461,0.14949 4.7528,-0.42512 2.0547,-0.97845 3.1972,-2.6505 3.214,-4.7036 0.01,-0.98162 -0.079,-1.3195 -0.5857,-2.2677 -0.6716,-1.2571 -2.0698,-2.6329 -3.2626,-3.2103 -0.4371,-0.21161 -1.3055,-0.45706 -1.9296,-0.54545 -0.6242,-0.0884 -1.3479,-0.24173 -1.6084,-0.34076 l -0.4736,-0.18005 0.3197,-0.5459 c 0.5347,-0.91319 2.3072,-2.6148 3.5844,-3.441 2.771,-1.7926 5.3938,-2.8823 8.0536,-3.3461 4.5121,-0.78683 22.213,-0.83741 27.926,-0.0798 3.6087,0.47854 8.467,2.8689 10.942,5.3835 0.8878,0.90201 1.5088,1.9229 1.2981,2.1336 -0.052,0.0516 -0.7584,0.20923 -1.5706,0.35026 -2.0282,0.35216 -2.5901,0.55245 -3.496,1.2462 -1.7307,1.3254 -2.6654,3.1779 -2.6654,5.2828 0,0.90873 0.086,1.2162 0.5241,1.8778 1.2736,1.9228 3.5376,2.9729 6.4232,2.9792 1.5219,0.003 1.9991,-0.23595 3.5935,-1.8017 0.8369,-0.82194 1.3035,-1.1667 1.3899,-1.027 0.1368,0.22141 0.011,2.5439 -0.2832,5.2179 -0.096,0.87504 -0.4216,2.4831 -0.7232,3.5734 -0.4329,1.5652 -0.5039,2.0359 -0.3372,2.2367 0.1233,0.14862 0.7186,0.30529 1.4323,0.37697 3.1795,0.3193 5.6179,2.8134 6.6542,6.806 0.4389,1.6913 0.3929,5.8106 -0.085,7.6254 -0.7944,3.0156 -2.4131,5.2436 -4.3307,5.9611 -0.9724,0.3638 -2.9878,0.48319 -4.3582,0.25816 z m -6.0897,-19.761 c 0.366,-0.87603 0.3202,-2.1482 -0.1093,-3.0354 -0.4698,-0.97048 -2.1764,-2.5493 -3.4058,-3.1508 -1.8841,-0.9218 -4.6549,-0.93127 -6.2078,-0.0212 -0.9658,0.566 -1.7066,1.4929 -2.4349,3.0468 -0.6649,1.4187 -0.7848,2.8017 -0.2714,3.1307 0.4012,0.25707 0.9688,-0.30392 2.4769,-2.4479 1.3952,-1.9836 1.9586,-2.3892 3.318,-2.3892 1.3,0 2.3019,0.36016 3.4833,1.2521 1.1449,0.86443 1.944,1.9252 2.1019,2.7904 0.2835,1.5523 0.6309,1.8254 1.0491,0.8245 z m -43.13,-0.5802 c 0.7523,-1.9236 1.7092,-3.0053 3.3467,-3.7829 0.8167,-0.38783 1.3164,-0.50372 2.1725,-0.50383 1.5991,-1.7e-4 2.2429,0.38597 3.2192,1.9311 2.2752,3.6008 2.8202,3.8573 2.8257,1.3297 0,-2.0883 -1.0558,-3.6698 -3.1552,-4.7061 -0.7147,-0.35281 -1.0909,-0.40497 -2.9409,-0.40776 -2.041,-0.003 -2.1661,0.0187 -3.3051,0.57587 -2.1394,1.0464 -3.5008,2.9251 -3.5008,4.8309 0,1.4694 0.8647,1.9432 1.3379,0.73305 z"
           id="path8"
           inkscape:connector-curvature="0" />
        <path
           transform="translate(7166.3,-594.15)"
           d="m -3106.3,-348.64 c -0.3067,-0.13851 -0.6167,-0.4377 -0.6888,-0.66487 -0.3392,-1.069 0.032,-4.0584 0.8216,-6.6146 0.2936,-0.95073 0.4142,-1.1347 0.7413,-1.1312 0.5939,0.006 2.1203,0.91134 2.3782,1.4101 0.2574,0.49765 0.2478,6.752 -0.011,7.0098 -0.2657,0.26493 -2.6496,0.25821 -3.2416,-0.009 z"
           id="path10"
           inkscape:connector-curvature="0" />
        <path
           transform="translate(7166.3,-594.15)"
           d="m -3101.6,-398.29 c -1.2759,-3.2269 -1.5862,-4.9273 -1.0323,-5.6568 0.401,-0.52817 1.7149,-0.98215 3.644,-1.2591 2.2928,-0.32914 4.5962,-0.53799 4.5962,-0.41673 0,0.0499 -0.7972,1.0281 -1.7715,2.1737 -1.9326,2.2723 -2.6541,3.292 -3.9002,5.5125 l -0.8192,1.4598 z"
           id="path12"
           inkscape:connector-curvature="0" />
        <path
           transform="translate(7166.3,-594.15)"
           d="m -3040.3,-398.39 c -0.4186,-0.57812 -1.2554,-1.7576 -1.8596,-2.6211 -0.6042,-0.8635 -1.7077,-2.2298 -2.4522,-3.0363 -0.7445,-0.8065 -1.3092,-1.5108 -1.2548,-1.5652 0.1226,-0.12256 4.8241,0.38022 6.0808,0.65027 1.287,0.27658 2.0362,0.82296 2.2254,1.6228 0.1836,0.77639 -0.3074,2.9267 -1.042,4.5637 -0.7126,1.588 -0.8111,1.6103 -1.6976,0.38574 z"
           id="path14"
           inkscape:connector-curvature="0" />
        <path
           transform="translate(7166.3,-594.15)"
           d="m -3037.3,-348.77 c -0.3855,-0.67728 -0.3171,-5.7183 0.088,-6.4842 0.5037,-0.95251 1.8689,-1.5693 2.52,-1.1385 0.8164,0.54012 1.9954,5.9784 1.4978,6.9083 -0.3136,0.58585 -1.1748,0.93276 -2.5795,1.039 -1.2191,0.0922 -1.2986,0.0753 -1.5262,-0.32455 z"
           id="path16"
           inkscape:connector-curvature="0" />
      </g>
      <g
         id="g28"
         style="fill:#ffffff;fill-rule:evenodd;stroke:#282814;stroke-width:0.20630001;stroke-linecap:round;stroke-linejoin:round">
        <path
           transform="translate(7166.3,-594.15)"
           d="m -3050.3,-343.39 c -1.3445,-0.7088 -2.0224,-1.9771 -1.695,-3.1712 0.3591,-1.3096 1.1747,-2.1696 2.5012,-2.6377 1.8039,-0.63645 3.0877,-0.145 3.9354,1.5066 0.6957,1.3552 0.6136,2.5727 -0.2323,3.4455 -1.0286,1.0612 -3.3021,1.4932 -4.5093,0.85681 z"
           id="path20"
           inkscape:connector-curvature="0" />
        <path
           transform="translate(7166.3,-594.15)"
           d="m -3093,-343.27 c -2.0162,-0.60775 -2.848,-2.7199 -1.7519,-4.4482 0.6664,-1.0508 1.4047,-1.557 2.4454,-1.6765 1.7278,-0.19844 3.6929,1.4055 3.8926,3.1771 0.2406,2.1346 -2.1615,3.6786 -4.5861,2.9477 z"
           id="path22"
           inkscape:connector-curvature="0" />
        <path
           transform="translate(7166.3,-594.15)"
           d="m -3095.9,-390.76 c -0.55,-0.15379 -1.2741,-0.7248 -1.3664,-1.0775 -0.1385,-0.52984 0.3018,-1.9191 0.8261,-2.6065 0.6522,-0.85504 1.4511,-1.3218 2.2639,-1.3226 0.7827,-7.8e-4 1.2578,0.40504 1.7274,1.4756 0.6984,1.592 0.6168,2.7575 -0.23,3.2867 -0.405,0.25315 -2.5953,0.41932 -3.221,0.24437 z"
           id="path24"
           inkscape:connector-curvature="0" />
        <path
           transform="translate(7166.3,-594.15)"
           d="m -3047.1,-390.65 c -1.7331,-0.5313 -1.7267,-3.1958 0.012,-4.7219 0.3589,-0.31516 0.764,-0.57301 0.9001,-0.57301 0.9017,0 2.2312,1.0632 2.7631,2.2097 0.8304,1.7897 0.021,2.974 -2.168,3.1724 -0.5188,0.047 -1.1968,0.008 -1.5067,-0.0872 z"
           id="path26"
           inkscape:connector-curvature="0" />
      </g>
      <g
         id="g36"
         style="fill:#81d8d0;fill-rule:evenodd;stroke:#282814;stroke-width:0.20630001;stroke-linecap:round;stroke-linejoin:round">
        <path
           transform="translate(7166.3,-594.15)"
           d="m -3079.5,-325.77 c -3.4889,-0.15572 -4.8593,-0.38827 -6.3118,-1.071 -0.9036,-0.42475 -0.9942,-0.59593 -0.4106,-0.7763 0.6231,-0.19261 20.477,-0.33256 26.494,-0.18674 2.9773,0.0722 5.5229,0.20336 5.6569,0.29157 0.7041,0.46349 -1.8772,1.3103 -4.7945,1.5729 -2.7346,0.24611 -16.403,0.35849 -20.634,0.16964 z"
           id="path30"
           inkscape:connector-curvature="0" />
        <path
           transform="translate(7166.3,-594.15)"
           d="m -3080.1,-263.91 c -0.3515,-0.1803 -1.373,-0.41707 -2.2702,-0.52615 -0.8971,-0.10908 -2.1192,-0.3819 -2.7158,-0.60627 -0.5966,-0.22436 -1.6217,-0.4653 -2.278,-0.53542 -1.4213,-0.15184 -1.3507,0.16719 -0.84,-3.7976 0.194,-1.5064 0.4039,-3.4662 0.4664,-4.3551 l 0.1136,-1.6161 -3.5615,-1.8049 c -4.7501,-2.4073 -5.4993,-3.1473 -5.8796,-5.8077 -0.1897,-1.3268 0.046,-4.8411 0.4784,-7.118 0.1452,-0.7652 0.8574,-3.7425 1.5828,-6.6161 0.7253,-2.8737 1.3698,-5.6591 1.4322,-6.1897 0.073,-0.62544 0.1957,-0.96486 0.3473,-0.96486 0.4138,0 0.9612,0.7629 1.243,1.7322 0.2509,0.86292 0.2489,1.0474 -0.023,2.1563 -0.1635,0.66694 -0.2468,1.3715 -0.1852,1.5657 0.1139,0.35867 3.2058,2.8015 4.1904,3.3106 0.6335,0.32764 1.2703,0.14323 1.93,-0.55895 0.4731,-0.50357 0.6682,-0.51753 2.1017,-0.15028 1.1453,0.2934 1.9637,0.22139 2.3166,-0.20386 0.1175,-0.14148 0.2789,-0.96609 0.3589,-1.8325 0.1244,-1.3485 0.2509,-1.777 0.8792,-2.9769 0.4746,-0.90669 0.6951,-1.5237 0.6242,-1.7471 -0.06,-0.18995 -0.4527,-0.58718 -0.872,-0.88274 -0.9246,-0.65171 -1.2999,-1.4055 -2.0534,-4.1249 -0.8017,-2.893 -1.5716,-5.1977 -1.8664,-5.5872 -0.2266,-0.29929 -0.254,-0.17541 -0.2589,1.1678 -0.01,1.6191 0.2689,3.4489 0.8758,5.8336 0.6142,2.4135 0.8956,2.9144 1.9323,3.4398 1.2673,0.6422 1.1898,0.85389 -0.5508,1.5052 -0.5933,0.22196 -1.0298,0.49818 -1.0686,0.67616 -0.036,0.16549 0.084,0.8437 0.2677,1.5071 0.4828,1.7468 0.4001,1.822 -1.1796,1.0718 -0.7278,-0.34566 -1.467,-0.60111 -1.6427,-0.56768 -0.1756,0.0334 -0.5437,0.47883 -0.8181,0.98978 -0.278,0.51781 -0.5801,0.87871 -0.6826,0.81536 -0.1012,-0.0625 -0.3693,-0.53282 -0.5958,-1.0451 -0.3581,-0.80973 -0.5099,-0.96412 -1.1609,-1.1811 -1.0269,-0.34229 -1.2316,-0.70834 -0.7079,-1.2658 l 0.4081,-0.43437 -0.9414,-3.8604 -0.9415,-3.8604 0.01,-3.0052 c 0.01,-2.6461 0.065,-3.2549 0.4949,-5.0946 0.8308,-3.5534 2.2037,-7.3388 2.9223,-8.0574 0.4709,-0.47086 1.1274,-0.4751 3.9473,-0.0255 3.4854,0.55573 5.8709,0.72047 12.069,0.83345 6.1341,0.11181 11.576,-0.0967 14.592,-0.5591 4.8625,-0.74545 4.5404,-0.72383 5.0735,-0.34039 0.6404,0.4606 1.5765,2.3687 2.3868,4.8651 1.016,3.13 1.3724,4.841 1.4898,7.1515 0.1343,2.6443 -0.074,4.1846 -1.1013,8.1438 -0.432,1.6652 -0.7855,3.1858 -0.7855,3.3791 0,0.1933 0.1591,0.55365 0.3535,0.80086 0.4943,0.62839 0.4481,0.79877 -0.3094,1.1401 -0.9113,0.41067 -1.6351,1.1001 -1.6351,1.5574 0,0.36053 -0.6221,1.1106 -0.7855,0.94716 -0.042,-0.0419 -0.2364,-0.44993 -0.4322,-0.90672 -0.4974,-1.1604 -0.9074,-1.2276 -2.5355,-0.41543 -0.8333,0.41569 -1.3071,0.56797 -1.3517,0.4344 -0.038,-0.11312 0.034,-0.75078 0.16,-1.417 0.3016,-1.5984 0.1381,-1.9606 -1.0661,-2.3605 -0.4997,-0.16598 -0.9515,-0.41385 -1.0041,-0.55081 -0.1357,-0.35364 0.2193,-0.71499 0.8205,-0.83524 1.0011,-0.20023 1.9214,-2.5746 2.6418,-6.8163 0.4447,-2.6183 0.4837,-3.9067 0.1183,-3.9067 -0.3256,0 -0.7668,1.1944 -1.8735,5.0717 -0.4893,1.7144 -1.0082,3.3668 -1.1531,3.6721 -0.1448,0.3053 -0.6582,0.84984 -1.1407,1.2101 -1.3604,1.0156 -1.3475,1.5108 0.081,3.098 0.5614,0.62401 0.5862,0.71393 0.6584,2.395 0.067,1.5629 0.1181,1.7814 0.4833,2.0771 0.5107,0.41357 0.8722,0.41352 2.4486,-3.6e-4 l 1.2601,-0.33085 0.4073,0.43604 c 0.59,0.63171 1.3469,0.97928 1.8549,0.85178 0.2405,-0.0604 0.9678,-0.60765 1.6162,-1.2162 0.6483,-0.60853 1.516,-1.2957 1.9281,-1.5271 0.4122,-0.23138 0.7916,-0.55377 0.8433,-0.71644 0.052,-0.16267 -0.027,-0.81568 -0.1741,-1.4511 -0.3024,-1.3038 -0.1542,-2.6109 0.4044,-3.5673 0.4922,-0.84282 0.7957,-0.69538 1.0616,0.51579 0.128,0.58337 0.8198,3.4472 1.5373,6.364 1.9836,8.0641 2.4687,11.328 2.0349,13.691 -0.4646,2.5298 -1.3602,3.3836 -6.0407,5.7588 l -3.3843,1.7174 0.1231,1.9678 c 0.068,1.0823 0.3073,3.2405 0.5325,4.7962 0.2252,1.5556 0.3937,2.8481 0.3744,2.8722 -0.019,0.0241 -0.5456,0.0908 -1.1697,0.14828 -0.6241,0.0575 -1.737,0.29811 -2.4731,0.53475 -0.7362,0.23663 -2.0914,0.54327 -3.0116,0.68141 -0.9203,0.13814 -1.9075,0.34024 -2.1938,0.44911 -0.4537,0.1725 -0.732,0.11253 -2.1648,-0.46652 l -1.6441,-0.66446 -1.4528,0.47954 c -1.3766,0.45442 -1.8947,0.56421 -1.8947,0.40153 0,-0.0396 0.3967,-1.1499 0.8815,-2.4674 1.3102,-3.5605 1.3385,-4.6248 0.1518,-5.7042 -0.8478,-0.77115 -1.4623,-0.9488 -3.2784,-0.94777 -2.1663,10e-4 -2.9153,0.20655 -3.815,1.0457 -0.6314,0.58896 -0.72,0.77247 -0.7825,1.6207 -0.059,0.79691 0.066,1.34 0.7453,3.2546 1.1121,3.1329 1.1457,3.2506 0.9616,3.3644 -0.088,0.0544 -0.728,-0.15051 -1.4224,-0.45526 -1.4316,-0.62832 -1.8077,-0.61508 -3.4672,0.12205 -1.7007,0.75541 -1.6917,0.75389 -2.3771,0.40227 z"
           id="path32"
           inkscape:connector-curvature="0" />
        <path
           transform="translate(7166.3,-594.15)"
           d="m -3037.1,-274.53 c -0.777,-0.43484 -1.1019,-2.3042 -0.5769,-3.3195 0.5121,-0.99029 2.3703,-1.3854 3.7699,-0.8016 0.7192,0.29993 1.8063,1.2616 1.8063,1.5978 0,0.23811 -0.042,0.25767 -2.1213,0.9811 -1.0926,0.38018 -1.6488,0.68515 -2.0383,1.1176 -0.4207,0.46707 -0.601,0.5582 -0.8397,0.42459 z"
           id="path34"
           inkscape:connector-curvature="0" />
      </g>
      <g
         id="g50"
         style="fill:#ffffff;fill-rule:evenodd;stroke:#282814;stroke-width:0.051575;stroke-linecap:round;stroke-linejoin:round">
        <path
           transform="translate(7166.3,-594.15)"
           d="m -3054.7,-259.91 c -0.3732,-0.098 -0.4441,-0.25332 -0.4365,-0.95613 0,-0.38804 0.029,-0.56533 0.1229,-0.87857 0.2354,-0.78523 0.6254,-1.4089 1.1223,-1.7951 0.331,-0.25725 0.5201,-0.32676 0.8123,-0.29867 0.8182,0.0786 1.2087,1.7562 0.6726,2.8893 -0.2315,0.48945 -0.6406,0.79853 -1.2787,0.96601 -0.319,0.0837 -0.8334,0.12082 -1.0149,0.0732 z"
           id="path38"
           inkscape:connector-curvature="0" />
        <path
           transform="translate(7166.3,-594.15)"
           d="m -3059.9,-259.21 c -0.4197,-0.0888 -0.5226,-0.22884 -0.4862,-0.66216 0.052,-0.61836 0.5677,-1.8773 0.9813,-2.3949 0.3191,-0.39934 0.7881,-0.6617 1.0606,-0.59331 0.191,0.0479 0.528,0.41947 0.6316,0.69637 0.122,0.32617 0.1884,0.83993 0.1974,1.5274 0.01,0.64296 -0.037,0.80434 -0.3071,1.081 -0.2812,0.28862 -0.5165,0.35873 -1.251,0.37274 -0.3525,0.007 -0.7244,-0.005 -0.8266,-0.0271 z"
           id="path40"
           inkscape:connector-curvature="0" />
        <path
           transform="translate(7166.3,-594.15)"
           d="m -3065,-259.61 c -0.6828,-0.0905 -1.404,-0.40714 -1.463,-0.64227 -0.1061,-0.42272 0.5526,-1.5794 1.4128,-2.4808 0.4832,-0.50646 0.6171,-0.56443 0.9413,-0.40758 0.2845,0.13764 0.9405,0.77595 1.207,1.1744 0.3178,0.47518 0.4144,0.75665 0.415,1.2086 4e-4,0.31042 -0.019,0.41786 -0.1123,0.61872 -0.1375,0.29634 -0.283,0.43664 -0.5072,0.48914 -0.2546,0.0596 -1.54,0.0866 -1.8936,0.0397 z"
           id="path42"
           inkscape:connector-curvature="0" />
        <path
           transform="translate(7166.3,-594.15)"
           d="m -3077.4,-259.55 c -0.2694,-0.0689 -0.3343,-0.12308 -0.4646,-0.3877 -0.3981,-0.80875 -0.1853,-1.7985 0.5426,-2.5227 0.4064,-0.40434 0.7128,-0.56029 1.1568,-0.58879 0.457,-0.0293 0.581,0.0254 0.9601,0.42326 0.7634,0.8014 1.4726,2.097 1.325,2.4209 -0.082,0.1794 -0.7586,0.41229 -1.6638,0.57249 -0.3914,0.0693 -1.6834,0.12672 -1.8561,0.0825 z"
           id="path44"
           inkscape:connector-curvature="0" />
        <path
           transform="translate(7166.3,-594.15)"
           d="m -3081.8,-259.21 c -0.7563,-0.069 -0.9586,-0.38012 -1.0036,-1.5427 -0.041,-1.0523 0.061,-1.5316 0.392,-1.8384 0.2382,-0.22111 0.3555,-0.2829 0.5374,-0.2829 0.2534,0 0.4376,0.10758 0.7485,0.43716 0.2157,0.22862 0.3402,0.42024 0.5497,0.84622 0.4929,1.002 0.8394,2.0426 0.7257,2.1796 -0.1093,0.13172 -1.3301,0.25762 -1.9497,0.20107 z"
           id="path46"
           inkscape:connector-curvature="0" />
        <path
           transform="translate(7166.3,-594.15)"
           d="m -3086.8,-260 c -0.4161,-0.11228 -0.7313,-0.28283 -0.983,-0.53192 -0.2849,-0.28196 -0.3297,-0.46961 -0.327,-1.3699 0,-1.0176 0.084,-1.3489 0.4115,-1.6941 0.3065,-0.32281 0.494,-0.36246 0.8532,-0.18047 0.4507,0.22842 0.8987,0.76543 1.2915,1.5481 0.2996,0.59695 0.3976,0.91501 0.4003,1.2987 0,0.28391 -0.016,0.36387 -0.123,0.55744 -0.1759,0.31742 -0.3851,0.4276 -0.8459,0.44549 -0.2509,0.01 -0.4491,-0.0117 -0.6776,-0.0734 z"
           id="path48"
           inkscape:connector-curvature="0" />
      </g>
    </g>
  </g>
  <style
     type="text/css"
     id="style56">.st0{fill:#125159;}
	.st1{fill:#D4DB00;}
	.st2{opacity:0.12;}
	.st3{fill:#FFFFFF;}</style>
</svg>
