<?xml version="1.0" encoding="UTF-8" standalone="no"?>
<svg
   xmlns:dc="http://purl.org/dc/elements/1.1/"
   xmlns:cc="http://creativecommons.org/ns#"
   xmlns:rdf="http://www.w3.org/1999/02/22-rdf-syntax-ns#"
   xmlns:svg="http://www.w3.org/2000/svg"
   xmlns="http://www.w3.org/2000/svg"
   xmlns:sodipodi="http://sodipodi.sourceforge.net/DTD/sodipodi-0.dtd"
   xmlns:inkscape="http://www.inkscape.org/namespaces/inkscape"
   width="133.86765mm"
   height="177.47488mm"
   viewBox="0 0 133.86765 177.47488"
   version="1.1"
   id="svg2840"
   inkscape:version="1.0.2 (e86c8708, 2021-01-15)"
   sodipodi:docname="hippo_beat8.svg">
  <defs
     id="defs2834" />
  <sodipodi:namedview
     id="base"
     pagecolor="#ffffff"
     bordercolor="#666666"
     borderopacity="1.0"
     inkscape:pageopacity="0.0"
     inkscape:pageshadow="2"
     inkscape:zoom="0.35"
     inkscape:cx="252.95647"
     inkscape:cy="389.8985"
     inkscape:document-units="mm"
     inkscape:current-layer="layer1"
     inkscape:document-rotation="0"
     showgrid="false"
     inkscape:window-width="1728"
     inkscape:window-height="995"
     inkscape:window-x="2560"
     inkscape:window-y="170"
     inkscape:window-maximized="1"
     fit-margin-top="0"
     fit-margin-left="0"
     fit-margin-right="0"
     fit-margin-bottom="0" />
  <metadata
     id="metadata2837">
    <rdf:RDF>
      <cc:Work
         rdf:about="">
        <dc:format>image/svg+xml</dc:format>
        <dc:type
           rdf:resource="http://purl.org/dc/dcmitype/StillImage" />
        <dc:title></dc:title>
      </cc:Work>
    </rdf:RDF>
  </metadata>
  <g
     inkscape:label="レイヤー 1"
     inkscape:groupmode="layer"
     id="layer1"
     transform="translate(-38.905267,-45.006023)">
    <path
       style="fill:#000000;fill-opacity:1;stroke-width:0.264583"
       d="m 77.655208,221.82408 c -6.575369,-1.79964 -6.746875,-1.90374 -6.746875,-4.09518 0,-1.40183 0.617347,-2.38102 1.92868,-3.05913 0.962795,-0.49788 3.198649,-0.53986 4.574212,-0.0859 0.524788,0.17319 1.042379,0.21275 1.150205,0.0879 0.107826,-0.12485 0.629793,-1.89387 1.159926,-3.93116 0.530132,-2.03729 1.038113,-3.96428 1.128847,-4.28219 0.144288,-0.50555 0.02066,-0.61449 -0.985845,-0.86884 -7.764749,-1.9622 -13.974613,-5.58196 -17.921437,-10.4465 -6.407571,-7.89747 -7.521578,-19.36493 -2.742483,-28.23083 0.05103,-0.0947 -1.788432,-2.18341 -4.087685,-4.64167 -2.299254,-2.45825 -5.107925,-5.49017 -6.241492,-6.73759 -1.958909,-2.15566 -2.126526,-2.27579 -3.382942,-2.4246 -1.577126,-0.18679 -3.729585,-1.29932 -4.674373,-2.41601 -2.852467,-3.37151 -2.451724,-7.93886 0.827212,-9.42788 1.887464,-0.85714 3.805616,-0.50932 5.466546,0.99123 l 1.032754,0.93303 0.703992,-0.55376 c 1.158973,-0.91165 2.261616,-0.69433 2.918077,0.57512 0.468847,0.90665 0.317034,3.496 -0.312788,5.33499 -0.425778,1.24322 -0.901883,0.61377 6.067862,8.02223 l 4.791773,5.09339 0.755449,-0.86006 c 3.150394,-3.58666 5.228146,-5.67861 7.357608,-7.40789 7.454538,-6.05362 16.691415,-9.99051 26.940135,-11.48228 3.906234,-0.56858 11.230874,-0.55821 15.139394,0.0215 l 3.09675,0.45927 0.89547,-0.68301 c 0.49251,-0.37566 1.23633,-1.30861 1.65294,-2.07322 0.9477,-1.73935 1.21556,-5.08855 0.57688,-7.21305 -0.57536,-1.91388 -4.91721,-13.77965 -11.03612,-30.1605 -6.2017,-16.602472 -13.911982,-37.344144 -17.094697,-45.986994 -1.222293,-3.319203 -2.222349,-6.277763 -2.222349,-6.574575 0,-1.27416 3.254319,-3.048707 7.716052,-4.207484 3.180834,-0.826109 4.269854,-0.634688 4.790144,0.841973 0.12893,0.365932 0.82683,0.449715 4.73657,0.568621 3.70418,0.112657 5.09382,0.268018 7.23119,0.80844 3.61958,0.915186 6.15055,1.852493 9.17776,3.398851 4.68996,2.395728 7.46767,4.455416 15.30598,11.349516 14.34807,12.61967 20.38061,15.592279 31.64259,15.592279 3.08387,0 3.8018,0.07001 3.8018,0.37074 0,0.203906 -0.89128,1.203097 -1.98063,2.220428 -2.65185,2.47654 -6.83323,4.618892 -10.45479,5.356564 -6.18428,1.259676 -11.87074,0.363939 -22.56631,-3.554662 -7.07146,-2.590815 -9.62948,-3.182141 -13.8139,-3.193285 -3.86665,-0.01029 -5.40131,0.285359 -8.26336,1.591956 l -1.91336,0.873495 0.36469,1.011653 c 0.20058,0.556408 1.16111,3.154778 2.13452,5.774153 0.97341,2.619375 2.28637,6.19125 2.91769,7.9375 0.63131,1.74625 2.09678,5.734841 3.25659,8.863541 5.45572,14.71733 6.8947,18.65337 9.43112,25.79688 3.5204,9.9148 4.73279,13.66503 5.97513,18.4826 0.55747,2.16179 1.06121,3.97815 1.11941,4.03635 0.0582,0.0582 0.62785,-0.5199 1.26588,-1.28469 0.63802,-0.76478 3.21509,-3.79215 5.7268,-6.72747 l 4.56676,-5.33696 -0.37869,-1.07334 c -0.58465,-1.65705 -0.77829,-4.05893 -0.4158,-5.15729 0.52547,-1.59219 1.81436,-1.93484 3.1261,-0.83108 l 0.77595,0.65292 0.63341,-0.68702 c 0.87148,-0.94523 2.08923,-1.41257 3.68076,-1.41257 3.92162,0 5.90739,3.96508 3.94876,7.88464 -1.19824,2.39789 -3.15056,3.82509 -5.77402,4.22097 -1.44762,0.21844 -0.36138,-0.91654 -12.66511,13.23344 l -3.24095,3.72727 0.2598,2.46632 c 0.38121,3.61896 0.32857,9.65004 -0.10389,11.9019 -1.13422,5.90605 -3.9719,11.08558 -8.84497,16.14446 l -2.73553,2.83984 1.44716,3.51714 c 0.79594,1.93443 1.78104,4.38848 2.18911,5.45345 0.64773,1.69041 0.81134,1.91626 1.28837,1.77845 2.98877,-0.86344 3.60259,-0.9534 4.62573,-0.6779 1.45841,0.39271 2.60346,1.43101 2.93468,2.66109 0.3366,1.25003 0.14225,2.14359 -0.62248,2.86202 -0.49283,0.46299 -5.5444,2.37713 -8.70365,3.29798 -1.78116,0.51917 -2.15101,-0.003 -4.57655,-6.46128 -2.15949,-5.74992 -3.41023,-8.70395 -3.68526,-8.70395 -0.0837,0 -0.59631,0.27884 -1.13912,0.61965 -4.21,2.64327 -10.04874,5.14828 -15.14214,6.49645 -5.31899,1.40789 -7.37789,1.67719 -14.14447,1.85006 l -6.339269,0.16196 -0.605965,1.98438 c -0.333279,1.0914 -1.211318,4.36562 -1.951196,7.27604 -0.739876,2.91041 -1.532274,5.50002 -1.760879,5.75469 -0.571553,0.63669 -2.054725,0.56872 -4.963843,-0.22749 z m 27.366002,-29.85936 c 0.99936,-0.5168 2.01734,-1.7616 2.40759,-2.94405 0.70123,-2.12474 -0.39253,-4.6338 -2.45529,-5.63236 -3.0035,-1.45397 -6.31172,0.25516 -6.936103,3.58339 -0.348938,1.86 0.797992,4.07089 2.563173,4.94093 1.08661,0.53559 3.4322,0.56322 4.42063,0.0521 z m -26.89494,-2.6478 c 2.403702,-0.50935 4.176892,-1.52228 5.874345,-3.35574 2.620751,-2.83072 3.701185,-6.2545 3.092977,-9.8013 -0.857493,-5.00051 -4.610473,-8.68635 -9.703959,-9.53037 -2.8638,-0.47455 -6.247985,0.43441 -8.774317,2.3567 -1.553527,1.18208 -3.202681,3.6375 -3.829817,5.70221 -1.712132,5.63682 1.418037,12.21909 6.715241,14.12115 2.580352,0.92652 4.098706,1.04279 6.62553,0.50735 z m -4.526246,-4.2208 c -2.209395,-0.72009 -4.016679,-2.41555 -4.815956,-4.51799 -0.501508,-1.31918 -0.399209,-4.10252 0.199776,-5.4355 1.625251,-3.61684 6.099683,-5.32527 9.735873,-3.71735 4.493469,1.98701 5.788666,7.65119 2.601087,11.37516 -1.823048,2.12982 -5.173255,3.12596 -7.72078,2.29568 z m 51.154886,-8.86263 c 2.09552,-0.73651 4.25627,-2.45923 5.6129,-4.47502 1.38758,-2.06179 1.92386,-3.81403 1.92386,-6.28604 0,-5.21961 -3.32267,-9.65598 -8.3102,-11.09563 -5.15468,-1.48789 -10.82783,1.13313 -13.30604,6.14746 -2.18798,4.42707 -1.15687,9.97915 2.46866,13.29268 3.25299,2.97306 7.50787,3.85862 11.61082,2.41655 z m -6.22968,-3.86695 c -2.7963,-0.86201 -4.86807,-3.84061 -4.8575,-6.98368 0.0139,-4.13498 3.07379,-7.15685 7.24685,-7.15685 4.08224,0 7.25801,3.18447 7.251,7.27087 -0.009,5.02013 -4.72881,8.38372 -9.64035,6.86966 z"
       id="path3437" />
  </g>
</svg>
