<?xml version="1.0" encoding="UTF-8" standalone="no"?>
<svg
   xmlns:dc="http://purl.org/dc/elements/1.1/"
   xmlns:cc="http://creativecommons.org/ns#"
   xmlns:rdf="http://www.w3.org/1999/02/22-rdf-syntax-ns#"
   xmlns:svg="http://www.w3.org/2000/svg"
   xmlns="http://www.w3.org/2000/svg"
   xmlns:sodipodi="http://sodipodi.sourceforge.net/DTD/sodipodi-0.dtd"
   xmlns:inkscape="http://www.inkscape.org/namespaces/inkscape"
   width="29.701557mm"
   height="36.306881mm"
   viewBox="0 0 29.701557 36.306881"
   version="1.1"
   id="svg1450"
   inkscape:version="1.0.2 (e86c8708, 2021-01-15)"
   sodipodi:docname="hippo_16beat.svg">
  <defs
     id="defs1444" />
  <sodipodi:namedview
     id="base"
     pagecolor="#ffffff"
     bordercolor="#666666"
     borderopacity="1.0"
     inkscape:pageopacity="0.0"
     inkscape:pageshadow="2"
     inkscape:zoom="4.1245426"
     inkscape:cx="39.318339"
     inkscape:cy="76.858844"
     inkscape:document-units="mm"
     inkscape:current-layer="layer1"
     inkscape:document-rotation="0"
     showgrid="false"
     fit-margin-top="0"
     fit-margin-left="0"
     fit-margin-right="0"
     fit-margin-bottom="0"
     inkscape:window-width="1728"
     inkscape:window-height="995"
     inkscape:window-x="2560"
     inkscape:window-y="170"
     inkscape:window-maximized="1" />
  <metadata
     id="metadata1447">
    <rdf:RDF>
      <cc:Work
         rdf:about="">
        <dc:format>image/svg+xml</dc:format>
        <dc:type
           rdf:resource="http://purl.org/dc/dcmitype/StillImage" />
        <dc:title></dc:title>
      </cc:Work>
    </rdf:RDF>
  </metadata>
  <g
     inkscape:label="レイヤー 1"
     inkscape:groupmode="layer"
     id="layer1"
     transform="translate(-54.409913,-123.94824)">
    <path
       style="fill:#010101;stroke-width:0.10808"
       d="m 60.582896,160.08252 c -0.604282,-0.42326 -0.02292,-1.23679 0.883826,-1.23679 0.20706,0 0.225163,-0.0549 0.20477,-0.62145 -0.0123,-0.34181 -0.0245,-0.65024 -0.02711,-0.68541 -0.0026,-0.0352 -0.211441,-0.12439 -0.464077,-0.19826 -0.789397,-0.23081 -2.056045,-0.97187 -2.658842,-1.55557 -0.341235,-0.33042 -0.712359,-0.83689 -0.905311,-1.23548 -0.179851,-0.37152 -0.364691,-0.67549 -0.410754,-0.67549 -0.08091,0 -0.397535,0.4669 -0.767002,1.13104 -0.167609,0.30128 -0.166075,0.34318 0.02566,0.70091 0.112158,0.20926 0.203924,0.43852 0.203924,0.50946 0,0.23111 -0.337003,0.47917 -0.556378,0.40955 -0.147195,-0.0467 -0.275863,0.0181 -0.433325,0.21827 -0.180521,0.2295 -0.29952,0.27837 -0.613473,0.25192 -0.742871,-0.0626 -0.889629,-1.02935 -0.254541,-1.67681 0.162613,-0.16579 0.509396,-0.6662 0.770628,-1.11203 0.261232,-0.44582 0.685649,-1.05902 0.943148,-1.36264 0.395429,-0.46627 0.468591,-0.62582 0.470822,-1.02676 0.0084,-1.51518 1.085908,-3.49187 2.577041,-4.72772 1.232768,-1.02171 3.180356,-1.92582 4.931858,-2.28947 0.759792,-0.15775 2.734112,-0.19581 3.706854,-0.0715 0.67115,0.0858 0.685059,0.0823 0.999735,-0.25461 0.296356,-0.31725 0.318966,-0.40054 0.316985,-1.1678 -0.002,-0.86195 0.0054,-0.83503 -1.063248,-3.74434 -0.240188,-0.65388 -0.71121,-1.94274 -1.046715,-2.86411 -0.335501,-0.92138 -0.779298,-2.13728 -0.98621,-2.702 -0.206909,-0.56471 -0.563954,-1.56175 -0.793436,-2.21563 -0.740799,-2.11085 -1.621873,-4.53354 -1.729465,-4.75551 -0.05763,-0.11889 -0.240273,-0.63774 -0.405883,-1.15299 -0.27782,-0.86438 -0.287857,-0.95321 -0.129749,-1.14846 0.257374,-0.31785 0.766529,-0.54578 1.620354,-0.72539 1.005649,-0.21154 1.338356,-0.20446 2.906162,0.0618 1.268404,0.21542 1.826132,0.39065 6.331788,1.98931 2.041631,0.72439 3.124821,0.95269 4.539349,0.95675 1.749074,0.005 3.026624,-0.40461 4.577796,-1.4678 0.46476,-0.31855 0.469789,-0.3194 0.394026,-0.0664 -0.332274,1.10943 -1.416657,2.33637 -2.589755,2.93021 -0.959573,0.48576 -1.593717,0.61974 -2.939975,0.62117 -1.408315,0.002 -2.117589,-0.12172 -4.683958,-0.8137 -2.508801,-0.67646 -3.002698,-0.78312 -4.21511,-0.91028 -1.022427,-0.10724 -2.185297,-0.0252 -2.374718,0.16759 -0.05731,0.0583 -4.08e-4,0.38553 0.139181,0.80112 l 0.236063,0.70251 1.242917,0.0671 c 1.416441,0.0765 3.915021,0.67069 6.027598,1.43341 0.480205,0.17338 1.4863,0.41472 2.7809,0.6671 0.91519,0.17841 2.38455,0.19742 3.226686,0.0417 0.84591,-0.15637 1.932984,-0.6153 2.758592,-1.16458 0.379157,-0.25225 0.718984,-0.42904 0.755172,-0.39285 0.03619,0.0362 -0.101559,0.37902 -0.306102,0.76185 -0.743959,1.39242 -2.044265,2.3636 -3.592697,2.68333 -1.041119,0.21497 -1.840559,0.21707 -3.229386,0.008 -1.134304,-0.17037 -1.452052,-0.23687 -2.530418,-0.52954 -1.933846,-0.52485 -4.526289,-0.75637 -5.48578,-0.48992 -0.514967,0.14302 -0.570939,-0.12735 0.725953,3.50671 0.339423,0.9511 0.707918,1.99677 0.818884,2.32371 0.110958,0.32695 0.354811,1.00785 0.541887,1.51312 0.668253,1.80487 1.514564,4.2999 2.034658,5.99843 0.325889,1.06429 0.660296,2.97772 0.663535,3.79666 0.002,0.48638 0.04868,0.5683 0.482035,0.84469 0.552058,0.35209 1.363606,1.16893 1.802072,1.81383 0.231426,0.34037 0.519624,0.67177 0.640443,0.73643 0.293476,0.15706 0.63952,0.7407 0.640023,1.07946 8.17e-4,0.68995 -0.814984,1.02943 -1.27851,0.5319 -0.147857,-0.15871 -0.282818,-0.20255 -0.475029,-0.15431 -0.180545,0.0453 -0.329444,0.006 -0.454548,-0.11866 -0.189225,-0.18922 -0.183853,-0.27353 0.0553,-0.8674 0.123568,-0.30686 0.108887,-0.37104 -0.173057,-0.75656 -0.301054,-0.41165 -1.015058,-1.11165 -1.142123,-1.11972 -0.03513,-0.002 -0.122179,0.25128 -0.193453,0.56336 -0.359177,1.57267 -2.202519,3.64787 -4.092893,4.60773 l -0.45934,0.23323 v 1.02456 c 0,1.02428 7.4e-5,1.02457 0.273669,1.02457 0.780208,0 1.306785,0.55107 1.026687,1.07445 -0.114978,0.21483 -0.195463,0.22792 -1.225087,0.1992 l -1.102025,-0.0307 -0.03031,-1.38831 c -0.02557,-1.17103 -0.05527,-1.37874 -0.189707,-1.32715 -0.679026,0.26056 -2.098252,0.44133 -3.481515,0.44344 l -1.539952,0.002 -2.16e-4,1.14024 c -1.08e-4,0.74252 -0.04542,1.18548 -0.129879,1.26994 -0.199688,0.19969 -1.817887,0.1702 -2.11593,-0.0386 z m 5.533693,-5.27932 c 0.703217,-0.29382 0.738469,-1.39012 0.05605,-1.74301 -0.437812,-0.22641 -0.686914,-0.19814 -1.066154,0.12097 -0.580925,0.48881 -0.405023,1.43382 0.315945,1.69737 0.252598,0.0923 0.307001,0.0864 0.694155,-0.0753 z m -4.319623,-1.39934 c 0.651621,-0.35409 1.061887,-1.01391 1.118686,-1.79916 0.07673,-1.06083 -0.382325,-1.87523 -1.273007,-2.25839 -0.629182,-0.27067 -1.088348,-0.28674 -1.750109,-0.0613 -0.868485,0.29592 -1.496862,1.22019 -1.494227,2.19782 0.0013,0.47431 0.414797,1.38842 0.768217,1.69819 0.688369,0.60337 1.762636,0.69436 2.63044,0.22279 z m -1.990508,-0.9161 c -0.328289,-0.27406 -0.370895,-0.37395 -0.414059,-0.97068 -0.04655,-0.6435 -0.03572,-0.67757 0.332199,-1.04549 0.332283,-0.33229 0.446517,-0.37983 0.904501,-0.37649 0.617887,0.005 0.946397,0.16388 1.232505,0.5979 0.828198,1.25636 -0.896206,2.76229 -2.055146,1.79476 z m 10.910235,-0.47807 c 0.557512,-0.28454 1.127037,-1.053 1.224213,-1.65182 0.198722,-1.22458 -0.647755,-2.45276 -1.84779,-2.68101 -1.112478,-0.21159 -2.365796,0.62588 -2.602365,1.73892 -0.417257,1.96317 1.477171,3.48644 3.225942,2.59391 z m -1.574673,-0.77146 c -0.51538,-0.23 -0.801433,-0.6664 -0.801433,-1.22268 0,-0.90443 0.496042,-1.42945 1.351,-1.42991 0.565939,-3.2e-4 0.816862,0.13709 1.165178,0.63802 0.368552,0.53003 0.121366,1.63585 -0.431848,1.93192 -0.369247,0.19761 -0.942522,0.23455 -1.282897,0.0827 z"
       id="path2123" />
  </g>
</svg>
