<?xml version="1.0" encoding="UTF-8"?>
<!-- Created with Inkscape (http://www.inkscape.org/) -->
<svg width="251.92" height="158.97" version="1.1" xmlns="http://www.w3.org/2000/svg" xmlns:cc="http://creativecommons.org/ns#" xmlns:dc="http://purl.org/dc/elements/1.1/" xmlns:osb="http://www.openswatchbook.org/uri/2009/osb" xmlns:rdf="http://www.w3.org/1999/02/22-rdf-syntax-ns#" xmlns:xlink="http://www.w3.org/1999/xlink">
 <defs>
  <radialGradient id="radialGradient8935" cx="8328.7" cy="-1085.4" r="24.53" gradientTransform="matrix(.7973 0 0 1.1899 1688.2 209.68)" gradientUnits="userSpaceOnUse">
   <stop stop-color="#ff4491" offset="0"/>
   <stop stop-color="#ff4491" stop-opacity="0" offset="1"/>
  </radialGradient>
 </defs>
 <metadata>
  <rdf:RDF>
   <cc:Work rdf:about="">
    <dc:format>image/svg+xml</dc:format>
    <dc:type rdf:resource="http://purl.org/dc/dcmitype/StillImage"/>
    <dc:title/>
   </cc:Work>
  </rdf:RDF>
 </metadata>
 <g transform="translate(-8306 1163.2)">
  <g transform="translate(-.26628 6.0767)">
   <path d="m8400.1-1012.5-2.1347-2.1304-0.08-7.9109c-0.083-8.1817-0.095-8.3979-0.7596-13.539-0.4974-3.848-0.5518-4.9005-0.632-12.22l-0.081-7.3688-2.07-0.2987c-1.1386-0.1643-2.7105-0.4677-3.4932-0.6744-2.141-0.565-9.202-3.002-10.122-3.4934-1.0242-0.547-1.9075-1.4777-2.1075-2.2207-0.1769-0.6567-0.1052-3.1806 0.1319-4.6449 0.095-0.5854 0.1333-1.6634 0.097-2.717-0.076-2.2089-0.4836-3.9126-1.5169-6.3355-0.9929-2.3281-1.1255-2.7757-1.3598-4.5876-0.2372-1.834-0.5986-4.1293-0.9591-6.0901-0.1438-0.7827-0.3244-2.0927-0.4011-2.911-0.077-0.8183-0.2327-2.2156-0.3464-3.1051-0.1774-1.3872-0.2203-4.4232-0.3015-21.347-0.084-17.489-0.1832-23.154-0.4442-25.358-0.038-0.3202-0.2157-2.7363-0.3951-5.3691-0.1794-2.6329-0.4118-6.0097-0.5163-7.504-0.2199-3.1439-0.2484-5.4054-0.072-5.7267 0.068-0.1236 0.3503-0.7195 0.6279-1.3244 1.1232-2.447 3.0332-4.1589 5.9491-5.3324 2.4166-0.9725 3.4768-1.2944 5.4615-1.6585 2.1466-0.3939 3.9902-0.787 6.9864-1.49 2.168-0.5087 3.4551-0.7245 6.5984-1.1066 2.791-0.3392 4.4729-0.4151 8.5389-0.3854 3.636 0.027 4.4924 0.1026 11.126 0.9867 0.8183 0.109 2.2647 0.2525 3.214 0.319 2.4946 0.1745 5.837 1.067 7.7832 2.0782 1.8626 0.9677 3.3983 2.4819 4.1895 4.1309 0.2219 0.4624 0.4758 0.8991 0.5641 0.9703 0.2206 0.1778 0.4025 2.1865 0.416 4.5929 0.01 1.1029 0.037 2.2673 0.069 2.5875 0.032 0.3203 0.092 2.2415 0.1324 4.2695 0.157 7.8056 0.1904 9.1654 0.2598 10.544 0.1525 3.0377 0.1935 3.7893 0.2645 4.8517 0.1011 1.5107 0.911 10.162 2.0703 22.117 1.4244 14.685 1.441 15.512 0.5843 28.923-0.1061 1.661-0.1709 1.983-0.7812 3.8813-0.8791 2.7342-1.0895 4.1199-0.9917 6.5336 0.059 1.4515 0.1624 2.2273 0.4581 3.4285 0.4838 1.9656 0.6207 3.472 0.3909 4.3022-0.1278 0.4614-0.3653 0.8093-0.9548 1.3984-0.8898 0.8892-1.5999 1.2713-6.0245 3.2411-4.2525 1.8933-5.1782 2.2369-7.7303 2.8689-2.3242 0.5755-2.3612 0.5901-2.3612 0.9291 0 0.1894 0.176 2.0581 0.391 4.1527 0.8078 7.8688 0.98 11.648 0.7518 16.487-0.1594 3.3782 0.012 6.9059 0.6703 13.832 0.2837 2.9825 0.5157 5.609 0.5157 5.8366 0 0.3441-0.2646 0.717-1.5686 2.2106-0.8628 0.9882-1.7045 2.0101-1.8708 2.271-0.1661 0.2608-0.3659 0.5137-0.444 0.562-0.3061 0.1892-0.7357-0.068-0.9656-0.5776-0.2319-0.5144-0.2313-0.5215 0.1057-1.2988 0.1865-0.4298 0.835-1.5586 1.4414-2.5084l1.1025-1.7269-0.01-0.8908c-0.01-1.2165-0.3229-4.3099-0.4829-4.7097-0.2851-0.7122-0.4428-4.1642-0.4105-8.9896 0.044-6.5851-0.1068-9.5039-0.9814-19.019-0.1812-1.9732-0.5903-5.3849-0.6567-5.4775-0.017-0.024-0.3706 0.028-0.7854 0.1141-0.4148 0.087-1.1328 0.168-1.5952 0.1805-0.4799 0.013-1.3327 0.1721-1.9864 0.3708-0.63 0.1914-1.9766 0.4685-2.9925 0.6158-1.6395 0.2377-2.056 0.2528-3.7062 0.1349-1.0226-0.073-2.3968-0.2466-3.0537-0.3855-0.9178-0.1941-1.2941-0.222-1.6248-0.1204-0.2822 0.086-0.7515 0.091-1.3625 0.012-0.5126-0.066-0.9604-0.092-0.995-0.057-0.1211 0.121-0.064 13.953 0.069 16.839 0.1402 3.031 0.1798 3.4915 0.7139 8.2803 0.3877 3.477 0.5565 7.7362 0.3393 8.5608-0.1036 0.3932-0.1179 1.2934-0.048 3.0185l0.1 2.4582 1.304 1.6562c0.7171 0.9109 1.4702 1.9739 1.6734 2.3624 0.3568 0.6819 0.3629 0.7249 0.1797 1.2547-0.1641 0.4747-0.242 0.5507-0.5777 0.5632-0.3365 0.013-0.6722-0.269-2.5229-2.1159zm11.461-43.952c6.4095-1.0612 12.004-2.3225 13.962-3.1479 4.213-1.7759 7.9506-3.4426 8.4751-3.7792 0.871-0.5589 1.5189-1.3102 1.6271-1.8869 0.1251-0.667-0.037-2.7083-0.2541-3.2022-0.2685-0.6104-0.6124-2.44-0.7335-3.9021-0.2029-2.4517 0.1356-4.7926 1.0853-7.504 0.4866-1.3887 0.5856-2.0935 0.7367-5.2398 0.077-1.601 0.196-3.4641 0.2646-4.1401 0.1775-1.7463 0.1758-10.349 0-12.356-0.082-0.9251-0.5528-6.0484-1.0461-11.385-2.04-22.074-1.8732-20.131-2.0672-24.064-0.1475-2.9923-0.223-5.9235-0.4535-17.596-0.093-4.712-0.1692-5.8355-0.4089-6.0345-0.1062-0.088-0.3699-0.513-0.5862-0.9442-0.7984-1.5919-3.0411-3.4414-5.0444-4.1598-1.7484-0.627-4.3918-1.229-5.9265-1.3498-0.8895-0.07-2.0248-0.1895-2.5229-0.2654-0.4981-0.076-1.6043-0.2175-2.4582-0.3144-0.8539-0.097-2.4605-0.294-3.5704-0.438-1.5557-0.2017-2.9032-0.2689-5.8866-0.2935-5.2209-0.043-5.6537-0.028-7.8151 0.2662-1.0318 0.1405-2.2544 0.2916-2.7169 0.3357-1.3439 0.128-2.8105 0.4294-8.539 1.7551-0.8894 0.2058-2.1703 0.4641-2.8463 0.5741-0.676 0.1098-1.5784 0.2925-2.0053 0.4058-1.26 0.3344-4.3313 1.5727-5.25 2.1166-1.6501 0.9769-2.9414 2.4221-3.725 4.1684-0.2093 0.4665-0.4442 0.8876-0.5222 0.9357-0.1735 0.1073-0.1794 1.2259-0.016 3.1126 0.1843 2.1313 0.3591 4.5342 0.7154 9.8328 0.177 2.6328 0.352 4.9907 0.3888 5.2398 0.2626 1.7775 0.4514 9.1392 0.4613 17.984 0.016 14.72 0.1959 26.764 0.4289 28.787 0.1066 0.9251 0.2577 2.3224 0.3359 3.1051 0.078 0.7828 0.2598 2.0927 0.4039 2.911 0.4042 2.2975 0.7385 4.4427 0.9576 6.1455 0.224 1.7405 0.4022 2.3643 1.1242 3.9349 1.7227 3.748 2.0709 6.8826 1.2659 11.396-0.1684 0.9439-0.082 2.3918 0.1795 3.0182 0.2357 0.5641 1.0158 1.2215 1.9544 1.647 1.0883 0.4934 4.7007 1.6136 4.8196 1.4946 0.054-0.054 0.099-1.7093 0.099-3.6787v-3.5808l-0.3714-0.9057c-0.6814-1.6614-0.9962-2.7049-1.249-4.1401-0.1378-0.7827-0.3708-2.0926-0.5177-2.9109-0.1468-0.8184-0.3254-2.4485-0.3969-3.6227-0.071-1.1741-0.187-2.9498-0.2568-3.946-0.07-0.9962-0.1857-5.9158-0.2575-10.932-0.072-5.0167-0.1594-9.4997-0.1949-9.9621-0.035-0.4626-0.1475-2.2383-0.2489-3.9461s-0.331-4.2986-0.5102-5.7574c-0.3534-2.8777-0.7579-8.9429-0.9793-14.684-0.077-1.9925-0.2002-4.6706-0.2742-5.9515-0.074-1.2808-0.1659-5.4179-0.2042-9.1936-0.062-6.1604-0.048-6.9063 0.1397-7.2698 0.367-0.7096 2.8618-3.9594 3.4344-4.4736 0.3033-0.2724 0.5317-0.5144 0.5075-0.5379-0.024-0.024-0.3931-0.1967-0.8201-0.385-1.7898-0.7895-3.6096-2.2253-3.9479-3.1149-0.5386-1.4168 0.447-3.1255 2.5895-4.4889 1.8166-1.1561 3.1964-1.7127 6.3507-2.5616 3.8535-1.037 4.9007-1.2799 6.352-1.473 2.7523-0.3662 11.799-0.7989 14.182-0.6783 1.7585 0.089 7.8976 1.0477 9.5997 1.4991 1.9472 0.5165 4.1966 1.5988 5.264 2.533 1.0408 0.9109 1.4623 2.303 1.0187 3.3646-0.4562 1.092-2.5621 2.7521-4.9029 3.8651-1.5392 0.7318-4.0173 1.7191-5.11 2.036-1.0533 0.3052-8.14 1.9919-8.9487 2.1298-0.5507 0.094-2.7514 0.1697-6.3072 0.2175-0.8718 0.012-1.5849 0.062-1.5849 0.1126 0 0.336-0.708 4.17-0.9738 5.2733l-0.324 1.3447 0.1935 2.0191c0.2051 2.1401 0.7328 5.7626 1.3683 9.3937 0.2117 1.2097 0.45 3.042 0.5296 4.0718 0.1696 2.195 0.081 10.037-0.1558 13.847-0.3435 5.5188-0.1413 34.48 0.2601 37.261 0.3161 2.1895 1.1956 7.051 1.2866 7.112 0.056 0.037 0.1754 0.3596 0.2646 0.7154 0.3331 1.3277 0.5346 3.6099 0.6717 7.609 0.1272 3.7119 0.1199 4.2007-0.075 4.9811-0.1188 0.4758-0.3268 1.0545-0.4622 1.2857-0.1355 0.2313-0.2337 0.4275-0.2183 0.4361 0.1777 0.099 3.9983 0.3408 5.6022 0.3547 1.82 0.016 2.4206-0.038 4.787-0.4302zm-11.235-0.5789c0.6463-0.9619 0.7144-1.5471 0.6247-5.3603-0.086-3.6632-0.2722-6.5616-0.4493-7.0034-0.3781-0.9431-1.48-6.6791-1.8267-9.5093-0.1905-1.5546-0.382-9.7792-0.4685-20.118-0.066-7.8278 0.099-15.029 0.4738-20.765 0.308-4.7118 0.09-9.95-0.5769-13.857-0.9271-5.4321-1.4921-9.6338-1.4947-11.116 0-0.393 0.1382-1.2663 0.3086-1.9407 0.343-1.3577 1.0293-5.1699 0.9458-5.2534-0.03-0.029-1.6482-0.2835-3.5977-0.5651-3.5321-0.5101-4.3912-0.6945-6.7047-1.439-1.0727-0.3452-1.2594-0.372-1.5525-0.2228-0.7677 0.3909-1.1497 0.7916-2.612 2.7399l-1.5378 2.0489 0.01 4.9375c0 2.7156 0.06 5.869 0.1289 7.0075 0.069 1.1385 0.241 4.6609 0.383 7.8274 0.3632 8.0971 0.7269 13.406 1.1654 17.013 0.2076 1.7078 0.468 4.5606 0.5787 6.3396 0.1107 1.7789 0.2588 4.1313 0.3291 5.2276 0.07 1.0961 0.1298 4.6767 0.1321 7.9567 0.01 7.6537 0.4008 15.328 0.9536 18.513 0.1729 0.9963 0.4114 2.3644 0.5301 3.0405 0.1186 0.676 0.4495 1.8404 0.7354 2.5875 0.8944 2.3374 0.8817 2.2623 0.8817 5.2021 0 2.0351-0.044 2.7892-0.1776 3.0522-0.098 0.1922-0.2171 0.6749-0.2655 1.0727l-0.088 0.7235 1.7857 0.5941c2.0288 0.675 3.5774 0.9959 6.6374 1.3755 2.3658 0.2934 3.1797 0.3652 3.9418 0.3475 0.4344-0.01 0.5592-0.08 0.812-0.4567zm1.0347-95.672c0.3425-0.1208 1.0998-0.1837 2.248-0.1865 0.9524 0 2.0304-0.01 2.3957-0.01 0.601 0 4.3293-0.8207 8.3897-1.8409 1.5579-0.3914 4.656-1.5686 6.3421-2.4097 2.0333-1.0144 3.6187-2.2572 4.0709-3.1911 0.2651-0.5479 0.2676-0.5945 0.066-1.2105-0.3686-1.1269-1.6214-2.0649-3.9995-2.9946-1.5794-0.6175-2.2254-0.7658-6.2831-1.4417-3.5173-0.5859-6.5012-0.8169-10.674-0.8261-2.2885-0.01-4.6186 0.1964-5.3342 0.4614-0.1586 0.058-1.032 0.1967-1.9407 0.3065-2.2207 0.2686-2.5556 0.3403-6.4383 1.3777-3.5557 0.9501-4.6773 1.3664-6.4248 2.3848-1.3276 0.7737-2.5679 1.9564-2.5679 2.4486 0 0.1882-0.06 0.4535-0.1324 0.5896-0.4907 0.9169 1.5917 2.5843 4.7462 3.8002 1.2593 0.4854 4.3619 1.3988 5.4777 1.6125 0.9033 0.1731 6.9862 1.0229 8.3502 1.1665 0.5663 0.06 1.0661 0.1162 1.1105 0.1257 0.045 0.01 0.3132-0.065 0.5973-0.1651zm-9.8417-3.367c-1.4686-0.3947-2.2826-1.3903-2.2814-2.7903 0-1.3259 0.6108-2.3845 1.762-3.0591 0.5189-0.3041 0.6729-0.3314 1.5713-0.2781 1.0942 0.065 1.5489 0.2499 2.2127 0.9003 0.6976 0.6836 0.9643 1.416 0.8585 2.3591-0.2739 2.4439-1.7866 3.4962-4.1231 2.8681zm1.9456-1.1038c0.7293-0.4447 1.1277-1.2083 1.1809-2.2641 0.043-0.8515 0.019-0.9575-0.305-1.3425-1.217-1.4463-3.5206-1.0365-4.0469 0.7201-0.085 0.2851-0.1553 0.842-0.1553 1.2374 0 0.5925 0.062 0.7921 0.3494 1.1343 0.1921 0.2283 0.5269 0.4925 0.7438 0.587 0.6056 0.2638 1.7424 0.227 2.2331-0.072zm8.5309 0.7149c-0.8913-0.2395-1.4107-0.7913-1.401-1.4886 0.015-1.0909 0.8681-2.2267 1.8145-2.416 1.0083-0.2017 2.349 0.6498 2.349 1.4919 0 0.7287-0.7839 0.9082-0.9053 0.2073-0.076-0.439-0.5009-0.7087-1.1209-0.7116-0.2993 0-0.4989 0.1049-0.7439 0.3962-0.1843 0.2189-0.3358 0.4663-0.3368 0.5498 0 0.083-0.035 0.2739-0.075 0.4231-0.079 0.2943 0.1514 0.4283 1.1933 0.6939 0.2942 0.075 0.6125 0.23 0.7074 0.3443 0.1476 0.1779 0.129 0.2433-0.1286 0.452-0.3478 0.2816-0.4965 0.2879-1.3532 0.058zm10.178-0.6446c-1.04-0.4867-1.7226-1.7295-1.7226-3.1357 0-0.864 0.2258-1.4259 0.8066-2.0067 0.5937-0.5937 1.2648-0.8968 2.1664-0.9786 0.9483-0.086 1.5123 0.1045 2.2613 0.7638 0.763 0.6717 1.1231 1.3826 1.2027 2.3744 0.1401 1.7451-1.1213 2.9192-3.4614 3.2216-0.4552 0.059-0.7286 0.01-1.253-0.2388zm2.843-1.1332c0.7471-0.3747 1.0272-0.9138 0.9522-1.8326-0.1285-1.576-0.981-2.5429-2.242-2.5429-0.8882 0-1.4263 0.2277-1.9517 0.8262-0.3585 0.4082-0.4185 0.5743-0.4185 1.1582 0 1.2125 0.7884 2.3904 1.7843 2.666 0.4876 0.135 1.2945 0.016 1.8757-0.2749z" stroke-width=".12938"/>
   <g fill-rule="evenodd" stroke="#000" stroke-linecap="round" stroke-linejoin="round">
    <path d="m8404.6-1168.6c-7.5025 0.055-14.843 1.8677-22.111 3.52-3.5684 1.0525-7.3696 2.8326-8.8819 6.4925-1.224 1.6968-0.1455 3.8686-0.2796 5.7889 0.9848 11.794 1.4682 23.622 1.4966 35.457 0.2621 9.4928-0.1222 19.028 0.8374 28.488 0.6861 4.7869 1.1631 9.6858 3.1252 14.161 1.3745 3.6685 0.5585 7.5957 0.5264 11.386 0.1731 2.4166 3.0914 2.8171 4.8671 3.579 0.6808 0.082 1.689 0.8468 2.259 0.5009 0.083-3.4196 0.5141-7.0161-0.9608-10.225-1.8771-7.1139-1.5882-14.579-1.9419-21.879-0.1508-8.7548-0.4696-17.508-1.3577-26.22-0.7099-10.416-1.2499-20.882-0.9326-31.316 0.2475-2.472 2.8227-3.8889 3.6907-6.0191-1.6653-0.9589-3.7989-1.8714-4.5308-3.7697-0.2171-2.7256 2.7185-4.0903 4.739-5.172 5.6538-2.1451 11.676-3.2697 17.725-3.324 6.5952-0.362 13.442-0.049 19.588 2.5754 1.6603 0.7124 3.9159 2.3585 2.9295 4.4388-2.0239 3.1866-5.96 4.3605-9.3164 5.5923-4.7801 1.5334-9.7138 2.6708-14.763 2.5577-0.848 0.1038-1.8167-0.039-2.6087 0.2236-0.6915 3.6039-1.6919 7.2852-0.8523 10.962 0.6333 4.5314 1.8027 9.0134 1.4591 13.622 0.047 16.141-0.039 32.295 0.09 48.429 0.4912 3.3645 1.4909 6.6286 2.023 9.9751 0.2808 3.808 0.6605 7.754-0.01 11.515-1.05 1.2902 0.7794 1.0894 1.6084 1.23 5.5513 0.5982 11.483-0.7875 17.072-1.9376 5.1335-1.0372 9.9792-3.2321 14.494-5.835 1.9148-1.2823 1.0029-3.9073 0.5905-5.7268-0.5978-3.5093-0.4765-7.1915 0.7164-10.569 2.2802-13.571 0.3468-27.35-0.8264-40.929-1.4226-13.119-1.5669-26.329-2.0424-39.502-1.7526-3.4109-5.2314-5.5479-8.9336-6.2162-6.4336-1.0595-12.957-1.8639-19.488-1.8537z" fill="#262325" stroke-width=".20805"/>
    <path d="m8386.4-1154.2c-2.0052 0.3871-2.7961 2.7283-4.1283 4.0251-1.0921 1.1895-0.2447 3.0457-0.5157 4.5157-0.022 13.312 1.0155 26.597 2.1954 39.844 0.8213 10.952 0.014 22.023 1.7166 32.902 0.6827 3.5753 2.2887 7.0294 1.746 10.748-0.047 1.1537-0.2908 2.3366-0.2723 3.465 4.0187 1.2885 8.2364 2.204 12.458 2.2844 1.8303-0.8816 1.4103-3.4312 1.482-5.0988-0.017-4.2311-0.5391-8.4333-1.4955-12.55-2.0409-13.879-1.0639-27.973-1.0034-41.946 0.01-7.272 0.5-14.623-1.0166-21.794-0.6618-3.6347-1.1522-7.3911-0.1151-11.008 0.07-1.0046 0.6107-2.1802 0.3891-3.1284-3.7329-0.6997-7.4905-1.3054-11.162-2.2559-0.092-0.01-0.1849-0.01-0.2773 0z" fill="#74c7c7" stroke-width=".20805"/>
    <g stroke-width=".073557">
     <path d="m8403.5-1166.8c-2.0314-0.015-4.0492 0.2351-6.0381 0.6314-2.3204 0.2717-4.606 0.7611-6.8523 1.3995-2.9832 0.808-6.1917 1.5708-8.507 3.7577-0.527 0.4652-1.0374 1.0112-1.0918 1.7504-0.3263 0.8899 0.5752 1.5467 1.1703 2.034 2.4255 1.8466 5.4506 2.5801 8.3332 3.3855 2.5109 0.5547 5.0829 0.7793 7.6227 1.1692 1.1561 0.097 2.3562 0.4944 3.4961 0.1 1.859-0.2373 3.7738-0.086 5.6381-0.3311 5.2669-1.1965 10.765-2.21 15.385-5.1802 0.954-0.6935 2.0846-1.4545 2.3961-2.6648 0.041-1.156-0.9016-2.0915-1.8312-2.6441-2.5425-1.5742-5.5318-2.1016-8.4396-2.5541-3.7246-0.6498-7.5036-0.8797-11.281-0.853zm10.202 3.79c0.858-0.117 1.6186 0.3502 2.1696 0.975 0.9292 0.907 1.2156 2.4803 0.5538 3.6104-0.7742 1.1268-2.2684 1.5958-3.5785 1.5334-1.3461-0.275-2.2571-1.6557-2.2739-2.9887-0.1327-0.9031 0.2303-1.839 0.9688-2.3945 0.5727-0.5537 1.3814-0.7537 2.1602-0.7356zm-21.612 0.969c0.9774 0.029 2.0757 0.1654 2.7235 1.0039 1.0249 0.9857 0.8585 2.6367 0.252 3.8073-0.4623 0.7904-1.3088 1.3624-2.2438 1.3188-1.4518 0.077-3.2265-0.7493-3.4363-2.328-0.2843-1.6223 0.7723-3.4844 2.4588-3.7932 0.077-0.01 0.163-0.01 0.2458-0.01zm10.718 1.8439c0.8389 0.061 1.9974 0.6763 1.7799 1.6881-0.041 0.2983-0.4608 0.4066-0.5716 0.092-0.2025-0.7251-1.0924-1.2326-1.7723-0.7951-0.4461 0.3424-0.8967 0.9855-0.6953 1.5661 0.4875 0.5372 1.4418 0.3421 1.8897 0.9142-0.2007 0.5875-0.9974 0.4138-1.4501 0.2555-0.8316-0.1458-1.5344-0.9845-1.2439-1.8411 0.2172-0.9295 1.0291-1.9278 2.0636-1.8799z" fill="#fef5e4"/>
     <path d="m8392.3-1161.7c-1.17 0-2.2053 0.9911-2.2452 2.164-0.091 0.6762-0.2081 1.4923 0.4029 1.9755 0.6491 0.7982 1.8142 0.8304 2.73 0.5803 1.2023-0.4564 1.4791-1.8719 1.455-3.0121 0.1319-0.6259-0.5195-1.0429-0.9695-1.3645-0.4139-0.2393-0.8952-0.3606-1.3732-0.3432z" fill="#fff"/>
     <path d="m8413.4-1162.6c-1.0692-0.036-2.1486 0.8526-2.2235 1.932 0.03 1.1601 0.684 2.4817 1.8657 2.8173 1.0623 0.1224 2.4971-0.1289 2.8622-1.3001 0.2971-1.254-0.2304-2.8384-1.4876-3.3555-0.324-0.1197-0.6779-0.092-1.0168-0.094z" fill="#fff"/>
    </g>
   </g>
  </g>
  <g transform="matrix(.79279 0 0 .79279 1548 -177.48)">
   <path d="m8737.2-1043.2c-2.5146-1.1149-2.2189-2.9066 1.4928-9.0514 1.4289-2.3654 1.7599-3.1346 1.6582-3.8522-0.4572-3.2244-2.9735-14.129-3.7966-16.452-0.5451-1.5388-1.1798-3.7029-1.4103-4.8092-0.2308-1.1062-1.0002-4.0743-1.7098-6.5957-0.7095-2.5214-2.0055-7.4233-2.8795-10.893-1.6845-6.6879-3.773-13.878-4.5767-15.757-0.2664-0.6224-1.2007-3.5259-2.0765-6.4524-1.8528-6.1899-4.0012-12.975-6.7242-21.236-1.066-3.2333-2.3492-7.2983-2.8521-9.0333-0.568-1.9608-2.0479-5.5713-3.9104-9.5418-1.6667-3.5522-3.2454-7.3594-3.5567-8.5773-0.7632-2.9836-0.7744-8.0564-0.02-9.6975 0.7175-1.5638 4.2486-4.8367 6.4509-5.9794l0.8207-0.4258-0.048-3.2792c-0.085-5.7654 0.8614-9.9375 3.2922-14.507 2.7599-5.1881 5.5448-8.3846 9.7618-11.205l2.1735-1.4536h3.3482c3.1475 0 3.7268 0.098 9.6545 1.6394l6.3062 1.6393 9.3199 0.01c11.55 0.01 12.921-0.2306 24.949-4.3698 5.9112-2.0343 6.7882-2.1408 16.632-2.0208 8.1463 0.099 8.582 0.1333 11.758 0.9167 5.7404 1.416 10.655 4.2033 15.152 8.5931 2.5031 2.4436 4.0336 4.5983 5.5082 7.7554 1.6223 3.4728 2.0922 5.586 1.8681 8.3984l-0.1864 2.3421 1.7104 0.9116c2.1399 1.1407 4.8429 3.3006 5.6745 4.5346 0.7753 1.1503 1.0916 3.2654 1.0801 7.2192-0.01 3.4485-0.217 4.289-2.7362 11.116-2.2399 6.0697-2.3077 6.3114-3.8444 13.702-0.7202 3.4633-1.5565 7.2647-1.8581 8.4477-0.6223 2.4385-1.7263 7.5943-3.5918 16.776-0.705 3.4699-1.6667 7.8575-2.1366 9.7502-1.089 4.3842-2.4291 11.478-3.1472 16.658-0.3081 2.2219-1.0061 6.5449-1.5512 9.6068-0.545 3.0618-1.0772 6.3412-1.1827 7.2876-0.1052 0.9463-0.5012 2.9567-0.8794 4.4675-0.3785 1.5109-0.8852 4.4789-1.1264 6.5958-0.2408 2.1168-0.6479 5.5675-0.9047 7.6683l-0.4663 3.8197 0.8752 0.7687c1.0597 0.9307 4.5425 5.9743 4.9678 7.194 0.3765 1.0804-0.3844 3.3588-1.2092 3.6207-1.464 0.4646-4.6176-2.1636-6.4008-5.3347l-1.2809-2.2775 0.25-3.5111c0.443-6.2215 1.4648-14.914 2.0476-17.419 0.3119-1.3407 0.7659-3.6635 1.0088-5.1618 0.2429-1.4984 1.0094-5.8215 1.703-9.6068 0.694-3.7854 1.3955-7.8504 1.5588-9.0333 0.4605-3.331 2.5435-13.902 3.3062-16.776 0.3764-1.4196 1.147-4.8923 1.7121-7.7173 1.3796-6.8944 2.8398-13.626 3.8618-17.805 0.4631-1.8927 1.4397-6.2157 2.1703-9.6068 1.0706-4.9674 1.7372-7.2552 3.4305-11.773 2.6935-7.1859 3.0097-8.4462 2.9945-11.927-0.018-3.7425-0.3084-5.1112-1.3148-6.1665-0.9068-0.9509-4.4543-3.3989-4.9257-3.3989-0.1636 0-0.388 0.4128-0.4988 0.9174-0.717 3.2651-2.896 6.678-6.4925 10.169-4.8422 4.7004-13.603 9.0069-20.617 10.135-3.2934 0.5296-12.549 0.232-16.181-0.5202-6.7035-1.3885-18.113-1.5715-23.085-0.3702-1.3406 0.3239-2.8995 0.5922-3.4643 0.5963-0.5648 0-1.6618 0.3384-2.4377 0.7431-0.7758 0.4047-2.5721 1.1704-3.9914 1.7016-1.4198 0.5312-4.7547 1.8798-7.4115 2.997-2.6569 1.1173-5.3666 2.1495-6.0222 2.2939-1.643 0.362-12.907 0.7132-14.898 0.4644-3.3246-0.4153-7.8046-4.3034-9.9276-8.6156-0.9051-1.8387-2.4663-7.6136-3.335-12.338-0.2613-1.4196-0.5204-2.6287-0.5764-2.687-0.1836-0.1918-2.8247 1.9-4.2866 3.3949l-1.4338 1.4664 0.01 3.5011c0.011 4.3303 0.3714 5.5248 3.7653 12.529 2.9329 6.0532 3.4042 7.2315 5.1081 12.766 0.7282 2.3659 1.9513 6.1082 2.7181 8.3163 1.5939 4.5914 3.8706 11.729 6.1287 19.214 0.8563 2.8391 1.7752 5.6781 2.0423 6.309 0.5489 1.2984 2.5358 7.9133 4.0478 13.478 0.5571 2.0504 1.9044 6.8896 2.9939 10.754 1.0895 3.8643 2.1833 7.9292 2.4303 9.0333s0.9589 3.5559 1.5821 5.4486c0.9048 2.748 2.7755 10.935 3.6614 16.024 0.085 0.4875 0.3643 0.8831 0.6824 0.9663 0.6721 0.1758 0.9409 1.183 0.6898 2.5835-0.334 1.8604-3.3318 7.5454-4.7624 9.0313-1.4164 1.4711-1.4604 1.4872-2.6333 0.9671zm-3.4412-117.25c3.4415-6.8768 3.6281-7.857 3.6429-19.142 0.011-8.7931-0.2568-11.433-1.717-16.889-0.8973-3.353-1.8459-5.196-3.6783-7.1453-1.6093-1.7123-4.6651-4.3555-5.0354-4.3555-0.5062 0-2.9414 2.4237-4.2615 4.2413-3.3686 4.6381-5.2435 8.6486-5.994 12.822-0.4793 2.666-0.5584 8.33-0.1235 8.8541 0.1635 0.197 0.2885 1.1889 0.2776 2.2043-0.017 1.7039 0.4706 5.5427 0.7662 6.0211 0.07 0.1131 0.5825 1.9167 1.1394 4.008 1.1927 4.4803 2.2097 6.5244 4.4063 8.8557 2.1688 2.3021 4.5931 3.465 7.2238 3.4653l1.8826 2e-4zm5.3028 2.6547c0.5165 0 0.7886-0.1538 0.7886-0.4418 0-0.2418 0.3109-1.0538 0.6916-1.8045 1.0397-2.0519 1.5196-4.0413 2.1567-8.9398 1.254-9.6413 1.3849-17.402 0.4062-24.072-0.8832-6.0184-2.8418-10.339-6.4047-14.13l-2.1552-2.2927-1.8639-0.1288c-1.7261-0.1194-1.9006-0.077-2.3582 0.5754l-0.494 0.7042 2.127 1.9035c1.1697 1.0469 2.6386 2.6702 3.2645 3.6073 1.9739 2.9561 3.7079 9.3461 4.3375 15.985 0.546 5.7587 0.2211 16.364-0.6128 19.998-0.5504 2.3979-2.7785 7.3813-3.7663 8.4239l-0.9206 0.9713 2.0075-0.179c1.104-0.098 2.3622-0.1798 2.7961-0.1809zm7.8143-1.7935c1.8926-0.7784 4.7639-1.9482 6.3805-2.5997 1.617-0.6514 2.9397-1.3461 2.9397-1.5437 0-0.1975 0.4991-1.3626 1.109-2.5891 1.6137-3.2438 3.2475-9.9728 3.6396-14.991 0.3333-4.2674-1.074-13.263-2.7342-17.475-0.7671-1.9463-2.7868-5.0388-4.1121-6.2965-0.9681-0.9187-1.183-0.9869-3.8373-1.2196-1.5639-0.1371-4.987-0.7942-7.7139-1.4808l-4.9024-1.2343 1.67 1.9887c2.2251 2.6502 4.3367 6.9735 5.2774 10.805 1.0557 4.2995 1.532 13.398 1.0401 19.87-0.6952 9.144-1.7503 14.827-3.2224 17.355-0.304 0.5216-0.5525 1.008-0.5525 1.0808 0 0.2646 1.6485-0.2838 5.0185-1.6699zm5.7356-21.418c-2.7971-0.6809-4.4449-2.5612-4.4449-5.0711 0-3.157 2.0756-5.1522 5.1305-4.9312 3.1555 0.2282 5.446 2.1599 5.7004 4.8072 0.1695 1.7647-0.2638 2.8959-1.5385 4.0151-1.4088 1.2369-3.0116 1.627-4.8475 1.18zm3.0204-1.8875c1.5064-0.779 2.2062-3.3266 1.3999-5.0961-0.6848-1.5028-3.5858-2.1586-5.3997-1.2206-0.917 0.4743-1.7457 1.9992-1.7439 3.2104 0 2.5868 3.3002 4.3698 5.7437 3.1063zm6.5774 16.789c0.8496-1.6803 2.7943-7.2157 3.1263-8.8984 1.2799-6.4869 0.8015-13.695-1.428-21.508-0.8773-3.0747-2.2407-6.4078-3.1935-7.8071-0.2924-0.4297-0.4932-1.0104-0.446-1.2905 0.075-0.4443-0.1699-0.5145-1.9215-0.5508-1.104-0.023-2.1092 0.02-2.234 0.096-0.1246 0.075 0.2153 0.6266 0.7556 1.2246 4.5528 5.0393 7.3374 18.526 5.75 27.85-0.7063 4.1493-2.0079 9.03-2.9377 11.017l-0.8392 1.7933 1.428-0.4567c1.1361-0.3633 1.5328-0.6636 1.94-1.4689zm40.568 0.063c0.3882-0.5915 1.3634-2.9466 2.1667-5.2336 1.6484-4.6923 1.8825-6.272 2.1876-14.769 0.2008-5.5877-0.189-9.5909-1.3537-13.904-1.0403-3.8531-2.0721-5.6014-5.1739-8.7667-1.8412-1.8789-2.8262-3.1032-2.8262-3.5129 0-0.6071-0.102-0.6286-2.9393-0.6189-1.6169 0.01-3.9394 0.1882-5.161 0.4061-2.0703 0.3691-9.2953 2.5885-9.7311 2.9892-0.1072 0.099 0.3114 1.0181 0.9304 2.0433 3.1944 5.2907 5.3393 15.604 5.6361 27.1 0.1557 6.0186 0.1551 6.0244-0.7419 9.7005-0.4938 2.023-0.898 3.7329-0.898 3.7997 0 0.067 0.3674 0.1214 0.816 0.1214s2.5459 0.3176 4.6601 0.7057c4.9932 0.9168 5.0356 0.9216 8.6433 0.9719l3.0788 0.043zm-12.026-19.538c-1.5748-0.7233-2.1936-1.5089-2.3616-2.9997-0.2591-2.3005 1.048-4.7242 2.9842-5.5333 1.2257-0.5121 3.7804-0.4992 5.0362 0.025 1.5689 0.6556 2.8011 2.2467 2.8011 3.6174 0 2.1598-1.3245 4.1412-3.3603 5.0277-1.2842 0.5589-3.7262 0.4931-5.0996-0.1376zm3.9195-0.6164c2.2735-0.6314 3.6066-3.3692 2.6205-5.382-0.6478-1.3226-1.5271-1.769-3.4951-1.7744-1.9852 0-3.2549 0.7483-3.8762 2.3012-0.5678 1.4194-0.5719 1.8153-0.03 2.9591 0.5684 1.198 1.4941 1.7558 3.5847 2.1605 0.079 0.015 0.6167-0.1037 1.1951-0.2644zm14.088 19.437c3.4411-3.9973 4.9287-6.933 5.4127-10.683 0.2523-1.9554 0.2488-3.8386-0.015-7.9417-0.8183-12.721-3.2015-20.615-7.6846-25.458l-1.8661-2.0154-2.6257 6e-4 -2.6257 6e-4 2.7525 2.6613c2.3951 2.3157 2.9266 3.014 4.0923 5.3764 1.5645 3.1706 2.5753 7.2436 3.0935 12.465 0.2828 2.8493 0.2621 4.5865-0.1212 10.1l-0.4627 6.6592-1.6067 4.6682c-0.8838 2.5675-1.677 4.8795-1.7629 5.1377-0.1376 0.4138 0.01 0.4393 1.2311 0.2144 1.0262-0.1887 1.5957-0.4974 2.1889-1.1864zm-39.946-0.09c1.3406-0.2248 3.7541-0.4092 5.3634-0.4098h2.9261l0.3112-1.0754c0.1716-0.5914 0.5776-3.1401 0.9024-5.6637 0.5086-3.9501 0.5687-5.5655 0.4328-11.614-0.1636-7.281-0.4596-9.6156-1.6034-12.66-0.8127-2.1622-2.4188-4.582-4.5118-6.7982l-1.7204-1.8216-2.037 0.316c-1.1205 0.1739-3.1967 0.3162-4.6141 0.3162h-2.5767l0.9586 1.5916c1.3596 2.2578 2.8311 6.0851 3.6885 9.5924 2.7144 11.104 2.4461 17.914-1.0657 27.064l-0.7568 1.9717 0.9327-0.1997c0.513-0.1098 2.0294-0.3836 3.3702-0.6084zm4.9456-12.786c-0.6001-0.6002-0.4203-1.5558 0.3597-1.9112 0.5345-0.2435 0.7169-0.5472 0.7169-1.1931 0-0.7236-0.1137-0.8665-0.6889-0.8665-0.5077 0-0.768 0.2264-0.9887 0.8604-0.3553 1.019-1.2945 1.1636-1.7711 0.2727-0.4708-0.8797 0.1485-2.4768 1.164-3.002 1.2297-0.6358 2.6966-0.5368 3.6031 0.2431 0.6254 0.5379 0.8026 0.9777 0.9085 2.2537 0.1191 1.4373 0.055 1.6684-0.6893 2.4759-0.9356 1.0152-2.0847 1.3963-2.6142 0.867zm9.0708 11.73c1.6213-5.1076 1.9973-9.1017 1.5041-15.987-0.7541-10.536-2.5495-18.222-5.4007-23.123l-1.0232-1.7589-2.0391 0.5721c-2.924 0.8203-2.9612 0.8571-1.7811 1.7572 2.266 1.7283 5.0082 6.5102 5.9094 10.305 1.0158 4.2781 1.4212 13.456 0.8467 19.172-0.3441 3.4234-1.0908 8.6859-1.3158 9.2717-0.1479 0.3859-0.02 0.4199 2.5241 0.6757 0.3095 0.031 0.5845-0.2821 0.7756-0.8838zm33.319-1.0891c8.2459-4.124 14.304-10.589 15.468-16.506 0.4814-2.4476 0-6.8787-1.0201-9.4674-1.3764-3.48-2.9434-5.8456-5.6932-8.5943-2.7644-2.7631-5.9749-5.0948-8.8753-6.4459-1.5941-0.7425-6.6857-2.2726-7.5683-2.2743-0.1969-3e-4 0.2368 0.8058 0.9631 1.7916 4.4649 6.0577 6.9942 16.702 6.9942 29.436 0 5.9883-0.6645 8.5039-3.25 12.306-1.2435 1.8285-1.1503 1.8208 2.9812-0.2455z" stroke-width=".28677"/>
   <g fill="#6a6a6a" fill-rule="evenodd" stroke="#000" stroke-linecap="round" stroke-linejoin="round" stroke-width=".11214">
    <path d="m8726.9-1208c-1.2598 0.6523-2.1353 1.8892-3.1222 2.8857-2.8179 3.2998-5.0556 7.1389-6.4242 11.262-1.0851 3.4898-1.2449 7.2071-1.0859 10.835 0.1538 1.006 0.4914 1.9763 0.465 3.0073 0.098 2.9547 0.5526 5.8932 1.5027 8.6981 0.9866 3.5569 1.9358 7.3339 4.5465 10.1 1.918 2.1053 4.5505 3.9275 7.5199 3.7989 0.726-0.019 1.496 0.093 2.1942-0.035 2.0179-4.4056 4.7859-8.7672 4.8562-13.768 0.1336-5.5701 0.2702-11.152-0.011-16.719-0.2559-3.898-1.1573-7.7477-2.4682-11.42-1.3286-3.4351-4.2432-5.8953-7.0173-8.1645-0.2946-0.1886-0.5918-0.4519-0.9557-0.4798z"/>
    <path d="m8737.7-1209.1c-0.236 0.3427 0.4702 0.71 0.5869 1.0363 3.9863 4.5853 6.4198 10.468 6.9084 16.511 0.7663 7.176 0.5798 14.428-0.3235 21.582-0.5275 3.7464-0.9322 7.633-2.6583 11.058-0.037 0.3134-0.8169 0.9686-0.3091 1.1707 2.0053-0.3761 3.8573-1.3556 5.7716-2.0431 2.7994-1.1986 5.7252-2.165 8.3722-3.6843 0.6954-0.7817 0.8967-1.9163 1.3834-2.837 1.8695-4.2728 2.8698-8.8801 3.4973-13.484 0.3906-5.4193-0.3292-10.887-1.6764-16.136-0.8471-3.4693-2.667-6.6674-5.1159-9.2535-1.2599-1.4176-3.3478-1.0779-5.0236-1.4362-3.8589-0.5405-7.6112-1.6557-11.413-2.485zm15.153 18.23c2.5148-0.029 5.3533 1.4791 5.8782 4.0917 0.051 1.308 0.2905 2.8218-0.7529 3.837-1.2138 1.4831-3.2147 2.2814-5.0943 1.8218-2.2271-0.3814-4.4099-2.08-4.5386-4.4728-0.2616-2.1227 0.8729-4.582 3.099-5.0862 0.4642-0.1272 0.9355-0.1854 1.4086-0.1915z"/>
    <path d="m8769.3-1206.8c-2.5318 0.3646-5.1221 0.281-7.667 0.4947 0.1141 0.7202 0.7873 1.3424 1.0774 2.0417 2.9291 5.5125 4.2702 11.738 5.0516 17.894 0.4449 5.2924 0.066 10.711-1.7396 15.74-0.4895 1.5513-1.16 3.0602-1.6402 4.5983 2.375-0.2086 4.7678-0.8705 7.1812-0.9883 1.8777-0.1894 3.8283 0 5.6675-0.1837 0.8458-3.6397 1.3364-7.365 1.6088-11.089 0.066-4.9166 0.1123-9.854-0.3677-14.753-0.3581-3.7292-1.7647-7.3524-4.1707-10.241-1.062-1.3066-2.1912-2.597-3.3839-3.7632-0.5391 0.083-1.0782 0.1658-1.6174 0.2487zm4.9142 21.044c1.4237-0.084 2.7292 1.1298 2.6674 2.5755 0.083 0.9403 0.1048 2.0822-0.7679 2.6852-0.5527 0.6104-1.6549 1.2878-2.3913 0.6107-0.4696-0.6096 0-1.3549 0.5851-1.6654 0.6928-0.4105 0.8478-1.5139 0.2967-2.0807-0.7233-0.4292-1.3963 0.3414-1.6664 0.9449-0.2214 0.7369-1.3076 0.7738-1.5001 0.01-0.3085-1.3196 0.6499-2.7152 1.9745-2.9691 0.2552-0.07 0.5379-0.1081 0.802-0.1092z"/>
    <path d="m8795.4-1213c-3.2309-0.01-6.4586 0.4102-9.538 1.4086-1.9374 0.6206-3.9506 1.0916-5.7956 1.9529-0.5176 0.5744 0.2689 1.3375 0.4628 1.894 2.9785 5.1337 4.1428 11.062 5.0008 16.865 0.6371 5.1471 0.9291 10.354 0.8757 15.537-0.096 2.9096-1.1974 5.6863-1.59 8.5482 0.3364 0.4487 1.0643 0.1097 1.5316 0.3083 4.0305 0.4747 7.991 1.6633 12.086 1.5558 1.2578-0.017 2.5469 0.077 3.7847-0.025 1.6922-2.6312 2.6119-5.6692 3.5865-8.6181 1.4024-4.7988 1.3727-9.8649 1.408-14.821 0.01-3.7974-0.1808-7.6328-1.2707-11.295-0.6337-2.7897-1.8532-5.4668-3.8302-7.5646-1.4655-1.7896-3.4168-3.2595-4.3953-5.3945-0.6105-0.5288-1.5824-0.292-2.316-0.3499zm-1.524 18.742c1.2849-0.102 2.6458 0.1027 3.625 1.0148 1.1628 0.8692 1.8019 2.3829 1.4302 3.786-0.3864 1.8705-1.8912 3.564-3.7575 4.058-1.6969 0.1105-3.5675 0.3431-5.0506-0.69-1.8182-0.9651-1.9424-3.4157-1.2265-5.1051 0.644-1.7633 2.3475-3.2695 4.3185-3.0603h0.6609z"/>
    <path d="m8808.5-1212.4c-0.501 0.1679 0.141 0.7833 0.2394 1.0518 2.4623 3.5471 4.3292 7.5031 5.3742 11.699 1.7101 6.7206 2.3235 13.699 2.1277 20.622-0.058 3.139-0.6628 6.3345-2.3981 9.0057-0.4543 0.8735-1.192 1.6548-1.4458 2.6084 0.4067 0.4008 1.041-0.2271 1.4798-0.3175 6.2096-2.7714 12.016-6.9116 15.792-12.65 1.9208-2.9193 2.6632-6.5294 2.1137-9.9754-0.4922-4.9904-3.065-9.5747-6.5971-13.062-3.3198-3.3161-7.1838-6.304-11.743-7.6585-1.6222-0.513-3.2662-1.0361-4.9427-1.3244z"/>
   </g>
   <g fill-rule="evenodd" stroke-linecap="round" stroke-linejoin="round" stroke-width=".079297">
    <path d="m8801.5-1213c-0.7052 0.033-1.435-0.043-2.1271 0.079-0.027 0.3879 0.5395 0.5927 0.7206 0.9097 1.6027 1.7059 3.4435 3.2093 4.8168 5.1164 1.7127 2.8186 2.8687 5.9511 3.4679 9.1936 0.7886 4.0014 1.1928 8.0836 0.8782 12.161-0.2047 3.3429-0.4095 6.6984-0.6942 10.032-1.1157 3.3252-2.3425 6.6225-3.3642 9.9739 0.1727 0.3809 0.7395 0.098 1.0601 0.1287 1.3541-0.065 2.4341-0.9921 3.2215-2.0196 2.342-2.7659 4.2709-6.0275 4.7627-9.6722 0.4603-3.2262 0.134-6.4992-0.058-9.7342-0.5337-6.3466-1.3431-12.829-4.0486-18.665-1.1175-2.5082-2.7987-4.7112-4.7112-6.6645-0.4068-0.4077-0.7295-1.045-1.4093-0.8398-0.8383 4e-4 -1.6766-1e-3 -2.5149 1e-3z" fill="#e3f12b" stroke="#e3f12b"/>
    <path d="m8793.7-1193.4c-1.4001-0.12-2.8741 0.5113-3.5818 1.7582-0.6976 1.1255-1.0094 2.6482-0.2249 3.8151 0.852 1.4298 2.68 2.1252 4.29 1.8908 2.1241-0.3197 3.7374-2.4356 3.5194-4.5678-0.1164-1.1805-0.8904-2.3252-2.0414-2.7166-0.6147-0.269-1.3115-0.1504-1.9613-0.1797z" fill="#fff" stroke="#000"/>
    <path d="m8777.8-1208.9c-1.4212 0.4649-2.9398 0.695-4.2899 1.3504-0.4656 0.3066 0.1009 0.7883 0.3681 0.9924 2.749 2.3916 4.5229 5.7126 5.6723 9.1201 1.07 3.4908 1.2149 7.1821 1.4026 10.809 0.1857 4.6796-0.01 9.3693-0.7124 13.998-0.1812 1.7191-0.5739 3.4161-0.7331 5.1357 0.097 0.3783 0.6796 0.2464 0.9691 0.3683 0.6637 0.01 1.4378 0.3801 2.0548 0.017 0.6394-0.7998 0.7351-1.8979 1.0486-2.8469 1.6871-6.0919 1.1443-12.492 0.4927-18.693-0.638-5.3396-1.5209-10.735-3.638-15.712-0.7342-1.5297-1.3988-3.1388-2.4619-4.4731-0.048-0.04-0.1078-0.077-0.1729-0.067z" fill="#e3f12b" stroke="#e3f12b"/>
    <path d="m8757.6-1206.3c-0.4861 0.068-1.0917-0.1041-1.5154 0.1593-0.069 0.5305 0.5143 0.914 0.7542 1.3338 2.6751 3.2224 3.9767 7.3244 4.9296 11.33 0.7525 3.3584 1.2358 6.79 1.152 10.244 0.01 2.4738-0.03 4.9606-0.5851 7.3793-0.7923 3.9319-1.7457 7.883-3.4835 11.519-0.1043 0.4534 0.5878 0.021 0.7956 0.01 1.1142-0.3079 2.3651-0.7838 2.8078-1.9615 1.1939-2.7207 2.2022-5.5324 2.9764-8.4015 0.9322-4.2168 0.8706-8.5912 0.4749-12.87-0.594-5.0817-1.8764-10.104-3.9266-14.796-0.4188-1.145-1.3311-2.0821-1.5484-3.2972 0.074-0.6327-0.7543-0.5882-1.1747-0.6165-0.5518-0.027-1.1044-0.032-1.6568-0.029z" fill="#e3f12b" stroke="#e3f12b"/>
    <path d="m8753.5-1189.7c-1.1817-0.038-2.377 0.5107-2.9618 1.5686-0.8684 1.2918-0.9605 3.1743 0.1669 4.3488 1.3616 1.6024 4.1341 2.0429 5.71 0.5163 1.2041-1.3265 1.5469-3.5239 0.5539-5.0623-0.7968-1.0393-2.2215-1.3722-3.469-1.3714z" fill="#fff" stroke="#000"/>
    <path d="m8731.6-1209.8c-0.8981-0.1383-1.3897 0.7654-1.8807 1.3388 0.299 0.564 0.9947 0.9263 1.4354 1.4273 1.382 1.3864 2.8904 2.6906 4.0104 4.3112 1.8456 3.0698 2.7049 6.6052 3.4313 10.078 0.8053 4.0292 1.1322 8.125 1.0688 12.232-0.016 4.3979 0.016 8.8339-0.7983 13.171-0.6377 2.8111-1.8368 5.511-3.2979 7.9908-0.3103 0.6221-0.9243 1.064-1.2232 1.6804 0.1311 0.3834 0.7213 0.09 1.0095 0.133 1.4442-0.2007 2.9326-0.1096 4.3595-0.4155 0.4085-0.4271 0.41-1.1214 0.7167-1.625 1.0375-2.0966 1.6631-4.3667 1.985-6.6786 1.2761-8.3746 1.962-16.919 1.0178-25.366-0.5491-4.7149-1.756-9.527-4.6803-13.365-1.2596-1.7008-2.6983-3.2789-4.2007-4.7566-0.984-0.056-1.967-0.1536-2.9533-0.1563z" fill="#e3f12b" stroke="#e3f12b"/>
   </g>
  </g>
  <g transform="translate(4 4.3303)">
   <path d="m8319.1-1008.8c-0.2676-0.2677-0.2708-0.475-0.011-0.7062 0.3594-0.3195 1.0941-0.4343 2.7843-0.4349h1.6532v-0.8021c0-0.7979-0.4116-4.667-0.5318-4.9981-0.035-0.095-0.1104-0.8785-0.1683-1.7401-0.058-0.8617-0.2118-2.084-0.3419-2.7165-0.1302-0.6323-0.3127-1.8355-0.4056-2.6736-0.093-0.838-0.2359-1.8085-0.3178-2.1565-0.2084-0.886-0.1806-12.442 0.039-16.004 0.1064-1.7287 0.1523-4.4909 0.1361-8.1788-0.022-4.8965-0.1209-16.9-0.1418-17.143-0.01-0.049-0.1278-0.011-0.2746 0.085-0.225 0.1475-0.3023 0.1506-0.493 0.02-0.3696-0.2535-4.1372-0.3184-10.441-0.1799-6.0217 0.1323-7.0812 0.085-7.5941-0.3389-0.19-0.1571-0.3075-0.6386-0.6379-2.6146-0.4124-2.4661-0.4995-3.9951-0.2976-5.2249 0.1277-0.7786 0.3049-0.8799 1.5388-0.8799h1.022v-0.667c0-0.3669-0.1322-1.137-0.292-1.7112-0.1598-0.5743-0.4723-2.0261-0.6947-3.2261l-0.404-2.182v-3.5804c0-1.9692 0.053-4.3545 0.1169-5.3007 0.064-0.9463 0.1931-3.0851 0.2863-4.753 0.1618-2.899 0.7242-7.8859 1.2149-10.773 0.1193-0.7019 0.3023-1.8243 0.4066-2.4942 0.1043-0.67 0.3359-1.7924 0.5147-2.4943s0.5208-2.0592 0.76-3.0163c1.5678-6.2726 3.5456-10.472 6.0213-12.784 2.3562-2.2008 5.1196-3.9905 7.4429-4.8206 0.9495-0.3392 2.645-0.7269 3.9057-0.8931 1.4361-0.1893 8.6524-0.15 10.015 0.055 3.7148 0.5577 6.1796 1.7002 9.6029 4.4512 1.5537 1.2486 2.5733 2.331 3.3938 3.6028 1.3639 2.1144 2.87 5.8192 3.6432 8.9625 0.1954 0.7945 0.5842 2.3019 0.8638 3.3498 0.2796 1.0478 0.6232 2.61 0.7636 3.4713 0.1403 0.8614 0.3531 2.1404 0.4726 2.8423 0.1194 0.7019 0.4007 2.7378 0.6251 4.5245 0.3771 3.0039 0.4837 4.4402 0.8948 12.065 0.068 1.2762 0.101 3.6254 0.071 5.2206-0.051 2.7676-0.073 2.9938-0.4726 4.9447-0.2305 1.1243-0.5511 2.5526-0.7126 3.1739-0.1613 0.6214-0.2934 1.3328-0.2934 1.581v0.4514h1.0841c0.8924 0 1.1172 0.037 1.2711 0.2066 0.2707 0.2991 0.4686 1.7799 0.3911 2.9257-0.078 1.158-0.7371 5.1667-0.8987 5.4686-0.2018 0.377-0.9809 0.4993-3.1818 0.4993-1.1485 0-4.9372-0.024-8.4192-0.055-5.9155-0.051-6.3445-0.041-6.534 0.1484-0.2467 0.2467-0.2437 0.2465-0.5882 0.021l-0.2777-0.182-0.066 6.1276c-0.036 3.3701-0.095 8.007-0.131 10.304-0.05 3.1938-0.022 4.7633 0.1181 6.6707 0.2115 2.8896 0.4646 14.019 0.3654 16.068-0.037 0.7656-0.1435 1.8358-0.2367 2.3782-0.093 0.5423-0.2269 1.5081-0.2971 2.1462-0.07 0.638-0.2558 1.8315-0.4123 2.6523-0.1565 0.8206-0.2845 1.8058-0.2845 2.1891 0 0.3834-0.1002 1.4086-0.2225 2.2782-0.2934 2.0838-0.4765 3.8292-0.507 4.8295l-0.025 0.8122 1.9143 0.068c1.0528 0.038 2.0545 0.1261 2.2262 0.1975 0.5189 0.2157 0.6441 0.7111 0.2581 1.0211-0.1063 0.085-0.8431 0.1083-2.2771 0.071-1.9725-0.052-2.1499-0.075-2.5508-0.3276-0.6544-0.4132-0.7153-0.6087-0.6253-2.0083 0.085-1.3238 0.3587-3.8509 0.5285-4.8797 0.058-0.351 0.1392-1.1862 0.1809-1.8562 0.042-0.67 0.1993-1.8707 0.3503-2.6683 0.1509-0.7975 0.332-1.988 0.4022-2.6453 0.071-0.6574 0.2031-1.6232 0.2952-2.1462 0.133-0.7557 0.1657-2.2619 0.1594-7.3317-0.01-3.5093-0.058-7.1637-0.1207-8.1208-0.062-0.9571-0.1415-4.0633-0.1765-6.9027-0.05-4.1334-0.027-5.6145 0.1209-7.43 0.127-1.5601 0.1846-3.6861 0.1846-6.8156v-4.5483l-0.3191 0.01c-0.1755 0-1.076 0.09-2.0012 0.1957-2.1292 0.2445-5.362 0.2444-7.4247-1e-4 -0.8614-0.1022-1.7358-0.1885-1.9432-0.1919l-0.377-0.01v4.9104c0 2.9924 0.053 5.4053 0.1374 6.1776 0.1877 1.7313 0.19 10.444 0.01 13.854-0.082 1.4995-0.1603 5.5715-0.174 9.0489-0.022 5.5262 0 6.4541 0.1715 7.3668 0.1082 0.5742 0.2552 1.5661 0.3268 2.2042 0.071 0.6381 0.2319 1.6556 0.3563 2.2611 0.1245 0.6056 0.2766 1.7802 0.3381 2.6102 0.061 0.8302 0.1632 1.8225 0.226 2.2054 0.2255 1.375 0.4724 3.8504 0.4995 5.006 0.024 1.018 0 1.2107-0.1928 1.4212-0.1212 0.1339-0.2733 0.2434-0.3382 0.2434-0.065 0-0.2003 0.072-0.301 0.1606-0.1365 0.1195-0.7273 0.174-2.3187 0.2136-1.9612 0.049-2.1531 0.036-2.3493-0.1605zm13.581-58.334c1.621-0.1266 2.9751-0.2582 3.0094-0.2925 0.034-0.034 0.1114-0.8048 0.1716-1.7125 0.09-1.3554 0.072-2.0094-0.1014-3.6581-0.1159-1.1041-0.2547-2.0346-0.3085-2.0678-0.1569-0.097-9.7232-0.1486-11.693-0.063l-1.7981 0.078-0.1942 1.4501c-0.2102 1.5693-0.2535 3.124-0.1363 4.8941l0.075 1.1237 0.708 0.066c4.7912 0.4507 6.4466 0.48 10.268 0.1814zm-18.68-0.3089 4.6858-0.077-0.076-1.1125c-0.042-0.6119-0.1098-2.2224-0.1507-3.5791l-0.075-2.4666-7.8123 0.03-7.8123 0.03 0.01 1.1021c0 0.6061 0.1009 1.6503 0.2199 2.3202 0.119 0.67 0.3103 1.7663 0.4252 2.4362 0.1147 0.67 0.2173 1.2327 0.2279 1.2505 0.097 0.1623 1.4318 0.2403 3.3577 0.1963 1.2761-0.029 4.4288-0.088 7.006-0.1304zm39.139 0.087c0.3038-0.05 0.5833-0.1219 0.6211-0.1597 0.037-0.038 0.1426-0.4768 0.2328-0.9753 0.6423-3.5517 0.7495-4.3287 0.717-5.1989l-0.035-0.9281-7.7788-0.03-7.7789-0.03-0.1412 3.1042c-0.078 1.7073-0.1402 3.326-0.139 3.5972v0.493l2.4653 0.015c1.3558 0.01 3.8486 0.051 5.5396 0.094 4.487 0.116 5.6777 0.1193 6.2947 0.018zm-34.763-8.177c0.01-0.01 0.044-0.3655 0.083-0.7961l0.07-0.7832h-0.6272c-1.3522 0-1.513-0.533-1.5042-4.9884 0.01-3.9198 0.056-4.3045 0.614-4.868l0.4256-0.4299 2.3194-0.098c2.7471-0.1165 16.834-0.1399 16.946-0.028 0.042 0.042-0.1787 0.406-0.4918 0.8076-0.313 0.4017-0.7714 1.0436-1.0187 1.4264s-0.7463 1.0615-1.1089 1.5081c-0.3626 0.4467-1.0085 1.3081-1.4354 1.9143-0.4269 0.6061-1.0637 1.4414-1.4152 1.8561-0.8369 0.9876-1.9614 2.3151-2.2213 2.6222-0.2041 0.2413-0.2434 0.2431-3.5128 0.1589-1.8184-0.047-3.3122-0.078-3.3194-0.07-0.01 0.01-0.047 0.3544-0.087 0.7691l-0.074 0.7542h6.7302c5.557 0 6.7199-0.027 6.6709-0.1546-0.032-0.085-0.059-0.4391-0.059-0.7869v-0.6325l-1.7008 0.08-1.7008 0.08 0.6277-0.7532c0.3453-0.4144 1.1237-1.3698 1.7298-2.1233 0.6063-0.7534 1.3931-1.7147 1.7488-2.1364 0.3556-0.4216 1.1353-1.393 1.7326-2.1588l1.0861-1.392 0.15-1.0807c0.1002-0.7223 0.2304-1.1936 0.3924-1.4211 0.22-0.309 0.3042-0.3406 0.9085-0.3406 0.9888 0 1.0982 0.1241 1.192 1.3528 0.1271 1.6672 0.1086 5.9032-0.033 7.2848-0.247 2.4287-0.4461 2.7414-1.8004 2.8277l-0.7683 0.049 0.071 0.7561c0.039 0.4158 0.085 0.7675 0.1024 0.7816 0.018 0.014 2.8639 0.061 6.3254 0.1032l6.2937 0.078v-0.7869c0-0.4782 0.1149-1.1962 0.2908-1.8309 0.1592-0.5743 0.4754-1.9838 0.7028-3.1323l0.4135-2.0883-0.05-4.9305c-0.056-5.3704-0.3037-10.373-0.6595-13.283-0.1247-1.021-0.2818-2.3522-0.3489-2.9584-0.1237-1.1155-0.5037-3.6351-0.9415-6.2411-0.1318-0.7847-0.3703-1.9071-0.5298-2.4943-0.1596-0.5871-0.5655-2.1639-0.902-3.5037-1.2203-4.8591-2.9852-8.7468-4.8625-10.711-1.7045-1.7835-4.5869-3.8566-6.5832-4.7352-1.2326-0.5425-3.3137-1.1131-4.7816-1.3112-1.1635-0.157-2.6654-0.1575-2.8219 0-0.083 0.083-0.4036 0.086-1.0094 0.012-0.5629-0.07-1.2152-0.069-1.7827 0-0.6614 0.082-0.9631 0.075-1.1563-0.029-0.3667-0.1962-2.4519-0.07-3.9814 0.2413-2.3661 0.4814-4.2602 1.2707-6.1486 2.562-1.6869 1.1536-3.7225 2.9133-4.49 3.8816-1.6964 2.1404-3.4091 6.1926-4.387 10.38-0.1416 0.6062-0.4703 1.9147-0.7306 2.9078-0.4902 1.8711-0.5934 2.4256-1.1745 6.3151-0.5894 3.945-0.946 7.2807-1.1152 10.432-0.3877 7.2217-0.4233 8.2736-0.3702 10.914 0.051 2.5523 0.087 2.934 0.4261 4.5824 0.2036 0.989 0.5237 2.3975 0.7112 3.1298 0.1876 0.7324 0.3412 1.6346 0.3412 2.005v0.6733l6.2936-0.078c3.4615-0.042 6.2994-0.084 6.3064-0.091zm-4.5228-17.295c-1.0507-0.3745-1.8549-1.7075-2.9174-4.8363-1.3007-3.83-1.9903-6.4363-2.0478-7.7405-0.032-0.726-0.01-0.876 0.1721-0.9861 0.3071-0.1903 0.506 0.1411 0.6055 1.009 0.2355 2.0533 3.0086 10.18 3.7898 11.106 0.277 0.3283 0.7213 0.5747 1.0364 0.5747 0.2834 0 0.3181-0.049 0.3871-0.5513 0.1195-0.8682-0.1411-1.7844-1.2087-4.2513-0.6198-1.432-0.7359-2.1748-0.3512-2.2475 0.342-0.065 0.5842 0.2779 1.1705 1.6555 1.1307 2.6575 1.3136 3.2609 1.3177 4.3505 0.01 1.1439-0.1746 1.6765-0.6449 1.9197-0.4001 0.2069-0.7245 0.2064-1.3091 0zm28.502 0.053c-0.4449-0.1792-0.6517-0.6494-0.7056-1.6038-0.061-1.0838 0.1286-1.877 0.8584-3.5855 0.29-0.679 0.6316-1.5134 0.7591-1.8542 0.2654-0.7092 0.6865-1.0766 0.9671-0.8437 0.2966 0.2462 0.1984 0.6616-0.5967 2.5269-0.8437 1.9793-1.0834 2.7425-1.0832 3.4472 0 0.7765 0.099 0.9861 0.4658 0.9861 0.9095 0 1.5797-1.2248 3.047-5.5686 0.95-2.8121 1.584-5.0469 1.7101-6.0288 0.1174-0.9133 0.3082-1.2465 0.6407-1.1189 0.1762 0.068 0.1918 0.2031 0.1319 1.147-0.078 1.2308-0.61 3.2794-1.7843 6.8708-0.952 2.912-1.6987 4.5133-2.3737 5.0912-0.6752 0.5779-1.4341 0.777-2.0366 0.5343zm-15.454-23.467c-0.5524-0.1763-1.1369-0.8017-1.2958-1.3864-0.1475-0.5431-0.075-1.9372 0.1286-2.4804 0.3727-0.9936 1.4021-1.7839 2.3235-1.7839 1.3395 0 2.2592 0.456 2.6843 1.331 0.4874 1.0031-0.1389 1.5711-0.6539 0.5931-0.3414-0.6481-0.6994-0.8624-1.5734-0.9417-0.9322-0.085-1.4068 0.1617-1.7444 0.9052-0.2235 0.4924-0.3052 1.6979-0.1535 2.2644 0.1034 0.386 0.6455 0.6154 1.63 0.6899 0.573 0.043 0.9502 0.1342 1.1166 0.2689 0.2474 0.2004 0.2479 0.2074 0.031 0.4467-0.1908 0.2109-0.3443 0.2416-1.1591 0.2312-0.5165-0.01-1.1169-0.068-1.3342-0.138zm-8.8857-4.0662c-1.2335-0.3183-1.9371-0.8677-2.391-1.867-0.28-0.6164-0.2737-1.1408 0.025-2.1125 0.313-1.0164 0.4817-1.3377 1.0089-1.9226 0.8317-0.9226 1.9907-1.218 3.3548-0.8548 1.6706 0.4448 2.8371 1.9695 2.6587 3.4754-0.268 2.2632-2.5022 3.8375-4.657 3.2815zm2.0267-0.9446c0.395-0.2043 1.0979-1.0321 1.2775-1.5046 0.07-0.1844 0.1311-0.7685 0.1355-1.298 0.01-1.1024-0.1853-1.5716-0.8002-1.9307-0.4913-0.287-1.7591-0.4606-2.3664-0.3242-1.2437 0.2795-2.2343 2.2567-1.8482 3.6889 0.1469 0.5452 0.7619 1.1449 1.4169 1.3819 0.5563 0.2014 1.7843 0.1939 2.1849-0.014zm17.451 0.9358c-0.5404-0.1692-1.3462-0.6979-1.809-1.1871-0.4571-0.4832-0.8113-1.3736-0.8783-2.2087-0.053-0.653-0.019-0.8132 0.3089-1.4791 0.6545-1.3296 1.7497-1.9704 3.3765-1.976 0.8685 0 1.0504 0.035 1.5249 0.3134 0.9395 0.5523 1.5117 1.4467 1.9028 2.9745 0.1541 0.602 0.1647 0.8363 0.057 1.2637-0.2982 1.1842-1.2487 2.0266-2.6084 2.3117-0.8665 0.1816-1.2627 0.179-1.8745-0.012zm2.2721-1.0046c1.0066-0.4565 1.2956-0.9216 1.2918-2.0795-0.01-0.8909-0.1868-1.4279-0.7205-2.1017-0.5379-0.6792-0.9341-0.8442-1.9813-0.8251-1.0864 0.019-1.5864 0.2147-2.0239 0.7891-0.3153 0.4139-0.3337 0.5001-0.3229 1.5095 0.01 0.9309 0.05 1.1374 0.3126 1.5842 0.1657 0.2826 0.513 0.7052 0.772 0.9391 0.4517 0.4082 0.5048 0.4253 1.3115 0.4228 0.5931 0 0.9939-0.072 1.3607-0.2384z" stroke-width=".11601"/>
   <g fill="#ff4491" fill-rule="evenodd" stroke="#000" stroke-linecap="round" stroke-linejoin="round" stroke-width=".080867">
    <path d="m8325.6-1133.6c-3.4703 0.1167-6.8993 1.2665-9.67 3.3745-2.1438 1.5384-4.185 3.3623-5.3461 5.78-2.0751 3.8836-3.0156 8.23-3.9933 12.486-1.7072 8.3391-2.2624 16.873-2.3339 25.371-0.014 2.4275 0.1852 4.861 0.8168 7.2123 0.2846 1.3181 0.688 2.6301 0.6122 3.9919 0.6931 0.1681 1.5208 0 2.2638 0.048 3.4971-0.059 6.9995-0.031 10.493-0.1896 0.2422-0.4774 0.1006-1.1045 0.185-1.6288-0.5072-0.2501-1.4628 0.072-1.7494-0.6353-0.4352-1.4601-0.2249-3.0208-0.292-4.5253 0.064-1.3762-0.1353-2.7975 0.2371-4.1384 0.2616-0.4949 0.6678-1.0635 1.302-0.9154 5.8158-0.1695 11.642-0.1094 17.461-0.092 0.218 0.1024 1.1833-0.182 0.9306 0.1776-2.3332 3.2378-4.649 6.507-7.3051 9.4916-0.2642 0.3923-0.6814 0.5184-1.1355 0.4481-1.9515 0.014-3.9026-0.04-5.8538-0.066-0.1901 0.4823-0.2737 1.1711-0.1317 1.6687 4.4053-0.024 8.8156 0.056 13.218-0.067 0.3836-0.3505 0.1073-1.0091 0.1994-1.4639-0.1533-0.4873-1.0533-0.042-1.4942-0.1564-0.5665 0.01-1.3175 0.087-1.7903 0.095 2.3087-2.7777 4.6069-5.5722 6.7689-8.4646 0.2879-0.8055 0.1194-1.7913 0.6445-2.4983 0.4283-0.236 0.9922-0.2441 1.458-0.1274 0.4789 0.4199 0.2954 1.1927 0.3787 1.7559-0.015 2.5931 0.1255 5.2058-0.1659 7.7823-0.096 0.646-0.3353 1.5388-1.1307 1.5537-0.4038 0.1139-0.9378-0.01-1.2705 0.2368 0.016 0.5249 0.058 1.06 0.1731 1.5721 1.9514 0.1469 3.9544 0.079 5.925 0.1344 2.2437 0.027 4.4873 0.051 6.731 0.077 0.2006-0.8601 0.1535-1.8387 0.4258-2.7218 0.3794-1.7072 0.8063-3.4168 1.0735-5.1407 0.014-7.4909-0.09-15.013-1.198-22.436-0.5042-3.9793-1.255-7.9294-2.4141-11.772-1.1132-3.8638-2.4105-7.9388-5.4335-10.764-2.033-1.8414-4.3355-3.4659-6.919-4.4315-2.1778-0.7903-4.5047-1.0973-6.8153-0.9757-1.5831 0.052-3.164 0.068-4.7391-0.047h-0.1zm-6.6309 6.4741c1.7944-0.043 3.764 1.4148 3.6284 3.3447-0.059 2.3463-2.764 4.0907-4.925 3.2102-1.3211-0.3743-2.3796-1.801-2.0011-3.1731 0.2805-1.4502 1.1284-3.109 2.7537-3.3368 0.1798-0.03 0.3618-0.043 0.544-0.045zm19.911 0.053c1.3704-0.089 2.3207 1.219 2.7307 2.3857 0.3523 0.8937 0.577 1.958-0.021 2.7931-0.8456 1.3158-2.6478 1.8098-4.1036 1.4227-1.0773-0.4609-2.1139-1.2998-2.3744-2.5047-0.346-0.9047-0.1681-1.8954 0.4214-2.6557 0.6898-1.1579 2.0784-1.5277 3.3469-1.4411zm-10.677 5.2541c1.1097-0.02 2.4367 0.5369 2.6512 1.7294 0.095 0.2541-0.1327 0.6857-0.3785 0.3673-0.3948-0.5568-0.831-1.2064-1.5901-1.2521-0.6751-0.1099-1.5117-0.1285-1.9139 0.5409-0.5438 0.7888-0.56 1.8614-0.3514 2.7638 0.4869 0.7092 1.509 0.5814 2.2452 0.7934 0.2104 0.028 0.8819 0.2351 0.4584 0.4815-0.6916 0.2725-1.4872 0.1665-2.2059 0.046-1.1933-0.323-1.6399-1.71-1.418-2.8126 0.066-1.02 0.6222-2.0018 1.5812-2.4308 0.2844-0.1486 0.5983-0.2419 0.9218-0.2266zm20.155 15.451c0.2969 0.3081 0.086 0.8913 0.1019 1.2993-0.4203 2.847-1.3983 5.5735-2.3442 8.279-0.5388 1.2723-0.9383 2.7752-2.0998 3.6356-0.5191 0.3088-1.3877 0.5542-1.8535 0.042-0.747-1.3838-0.2347-3.0433 0.3244-4.4124 0.4312-0.9911 0.7242-2.0901 1.3558-2.9742 0.2134-0.2555 0.5533-0.049 0.4256 0.2687-0.3676 1.997-1.796 3.7418-1.7301 5.8268-0.078 0.4385 0.285 0.8887 0.7465 0.7098 1.1738-0.5247 1.5146-1.9316 1.9901-3.0064 1.1582-3.0685 2.1541-6.209 2.8417-9.4151 0.048-0.096 0.1074-0.2574 0.2416-0.2533zm-39.062 0.017c0.3744 0.4297 0.2697 1.1236 0.4622 1.6462 0.834 3.2936 1.8781 6.547 3.2357 9.6636 0.2967 0.6759 0.9603 1.5558 1.7962 1.3151 0.4075-0.5455 0.2251-1.3395 0.087-1.9555-0.4328-1.6084-1.3082-3.0812-1.6244-4.7153-0.019-0.4429 0.5947-0.1505 0.6297 0.1405 0.7221 1.4995 1.438 3.0353 1.8046 4.664 0.04 0.8161 0.1789 1.8032-0.3331 2.5181-0.8175 0.6393-1.9406-0.022-2.4664-0.7395-1.3048-1.8882-1.8649-4.1624-2.587-6.311-0.5403-1.9035-1.2264-3.8169-1.2795-5.8078 0.016-0.1709 0.041-0.4318 0.2752-0.4184z" fill-opacity=".39216"/>
    <g fill-opacity=".86275">
     <path d="m8310.6-1074.7c-2.6092 0.01-5.2184 0.017-7.8276 0.025-0.1561 0.6302-0.029 1.3869-0.031 2.0677 0.161 1.7205 0.4462 3.441 0.8573 5.1174 0.2558 0.4567 0.9249 0.1285 1.3365 0.2387 4.5917-0.021 9.1866 0.01 13.775-0.1868 0.1311-0.6417-0.07-1.3971-0.045-2.0836-0.071-1.7109-0.114-3.4223-0.165-5.1343-0.7288-0.1669-1.5863-0.014-2.3629-0.063-1.8456 0.01-3.6913 0.012-5.537 0.018z"/>
     <path d="m8327.4-1075c-1.8007 0.016-3.6041-0.012-5.403 0.059-0.351 0.8935-0.3444 1.9337-0.4087 2.8968-0.021 1.5458-0.1653 3.12 0.053 4.6514 0.9304 0.2878 1.9726 0.2341 2.9453 0.3579 3.6219 0.3421 7.2823 0.1689 10.886-0.2885 0.5279-0.053 0.3528-0.7697 0.4449-1.131 0.093-2.1291 0.086-4.3022-0.3729-6.388-0.8063-0.2394-1.7076-0.085-2.5467-0.1481-1.8661-0.013-3.7322-0.011-5.5983-0.01z"/>
     <path d="m8339-1074.7c-0.088 2.4039-0.2807 4.8109-0.2614 7.2151 0.6356 0.2057 1.3976 0.069 2.0754 0.1336 3.6735 7e-4 7.3469 0.1155 11.019 0.165 0.6394-0.089 1.3757 0 1.9536-0.3035 0.4343-1.259 0.5103-2.6257 0.7703-3.9311 0.1928-1.065 0.2054-2.1488 0.1465-3.2266-0.7615-0.1707-1.6524-0.025-2.4622-0.078-4.3896-0.014-8.7791-0.029-13.169-0.043l-0.072 0.069z"/>
    </g>
   </g>
   <g fill-rule="evenodd" stroke="#000" stroke-linecap="round" stroke-linejoin="round">
    <path d="m8338.3-1126.4c-0.8192-0.021-1.6859 0.2313-2.135 0.9695-0.4866 0.6967-0.1929 1.625-0.1373 2.4044 0.1568 0.8299 0.8172 1.5107 1.5098 1.9464 0.8755 0.1243 1.8683 0.1127 2.6584-0.3388 0.7326-0.4324 1.052-1.2978 0.9284-2.1183-0.01-1.5084-1.1624-3.1165-2.8243-2.8632z" fill="#fff" stroke-width=".080867"/>
    <path d="m8318.9-1126.4c-1.4086-0.051-2.3207 1.3485-2.5086 2.5999-0.2271 0.966 0.2024 2.0144 1.0892 2.4853 0.7696 0.4575 1.753 0.3628 2.5921 0.1864 0.9174-0.528 1.5669-1.5525 1.5045-2.6324 0.037-0.8128 0.012-1.8655-0.8523-2.2536-0.5569-0.2922-1.2025-0.3857-1.8249-0.3856z" fill="#fff" stroke-width=".080867"/>
    <path d="m8325.6-1133.6c-3.4703 0.1167-6.8993 1.2665-9.67 3.3745-2.1438 1.5384-4.185 3.3623-5.3461 5.78-2.0751 3.8836-3.0156 8.23-3.9933 12.486-1.7072 8.3391-2.2624 16.873-2.3339 25.371-0.014 2.4275 0.1852 4.861 0.8168 7.2123 0.2846 1.3181 0.688 2.6301 0.6122 3.9919 0.6931 0.1681 1.5208 0 2.2638 0.048 3.4971-0.059 6.9995-0.031 10.493-0.1896 0.2422-0.4774 0.1006-1.1045 0.185-1.6288-0.5072-0.2501-1.4628 0.072-1.7494-0.6353-0.4352-1.4601-0.2249-3.0208-0.292-4.5253 0.064-1.3762-0.1353-2.7975 0.2371-4.1384 0.2616-0.4949 0.6678-1.0635 1.302-0.9154 5.8158-0.1695 11.642-0.1094 17.461-0.092 0.218 0.1024 1.1833-0.182 0.9306 0.1776-2.3332 3.2378-4.649 6.507-7.3051 9.4916-0.2642 0.3923-0.6814 0.5184-1.1355 0.4481-1.9515 0.014-3.9026-0.04-5.8538-0.066-0.1901 0.4823-0.2737 1.1711-0.1317 1.6687 4.4053-0.024 8.8156 0.056 13.218-0.067 0.3836-0.3505 0.1073-1.0091 0.1994-1.4639-0.1533-0.4873-1.0533-0.042-1.4942-0.1564-0.5665 0.01-1.3175 0.087-1.7903 0.095 2.3087-2.7777 4.6069-5.5722 6.7689-8.4646 0.2879-0.8055 0.1194-1.7913 0.6445-2.4983 0.4283-0.236 0.9922-0.2441 1.458-0.1274 0.4789 0.4199 0.2954 1.1927 0.3787 1.7559-0.015 2.5931 0.1255 5.2058-0.1659 7.7823-0.096 0.646-0.3353 1.5388-1.1307 1.5537-0.4038 0.1139-0.9378-0.01-1.2705 0.2368 0.016 0.5249 0.058 1.06 0.1731 1.5721 1.9514 0.1469 3.9544 0.079 5.925 0.1344 2.2437 0.027 4.4873 0.051 6.731 0.077 0.2006-0.8601 0.1535-1.8387 0.4258-2.7218 0.3794-1.7072 0.8063-3.4168 1.0735-5.1407 0.014-7.4909-0.09-15.013-1.198-22.436-0.5042-3.9793-1.255-7.9294-2.4141-11.772-1.1132-3.8638-2.4105-7.9388-5.4335-10.764-2.033-1.8414-4.3355-3.4659-6.919-4.4315-2.1778-0.7903-4.5047-1.0973-6.8153-0.9757-1.5831 0.052-3.164 0.068-4.7391-0.047h-0.1zm-6.6309 6.4741c1.7944-0.043 3.764 1.4148 3.6284 3.3447-0.059 2.3463-2.764 4.0907-4.925 3.2102-1.3211-0.3743-2.3796-1.801-2.0011-3.1731 0.2805-1.4502 1.1284-3.109 2.7537-3.3368 0.1798-0.03 0.3618-0.043 0.544-0.045zm19.911 0.053c1.3704-0.089 2.3207 1.219 2.7307 2.3857 0.3523 0.8937 0.577 1.958-0.021 2.7931-0.8456 1.3158-2.6478 1.8098-4.1036 1.4227-1.0773-0.4609-2.1139-1.2998-2.3744-2.5047-0.346-0.9047-0.1681-1.8954 0.4214-2.6557 0.6898-1.1579 2.0784-1.5277 3.3469-1.4411zm-10.677 5.2541c1.1097-0.02 2.4367 0.5369 2.6512 1.7294 0.095 0.2541-0.1327 0.6857-0.3785 0.3673-0.3948-0.5568-0.831-1.2064-1.5901-1.2521-0.6751-0.1099-1.5117-0.1285-1.9139 0.5409-0.5438 0.7888-0.56 1.8614-0.3514 2.7638 0.4869 0.7092 1.509 0.5814 2.2452 0.7934 0.2104 0.028 0.8819 0.2351 0.4584 0.4815-0.6916 0.2725-1.4872 0.1665-2.2059 0.046-1.1933-0.323-1.6399-1.71-1.418-2.8126 0.066-1.02 0.6222-2.0018 1.5812-2.4308 0.2844-0.1486 0.5983-0.2419 0.9218-0.2266zm20.155 15.451c0.2969 0.3081 0.086 0.8913 0.1019 1.2993-0.4203 2.847-1.3983 5.5735-2.3442 8.279-0.5388 1.2723-0.9383 2.7752-2.0998 3.6356-0.5191 0.3088-1.3877 0.5542-1.8535 0.042-0.747-1.3838-0.2347-3.0433 0.3244-4.4124 0.4312-0.9911 0.7242-2.0901 1.3558-2.9742 0.2134-0.2555 0.5533-0.049 0.4256 0.2687-0.3676 1.997-1.796 3.7418-1.7301 5.8268-0.078 0.4385 0.285 0.8887 0.7465 0.7098 1.1738-0.5247 1.5146-1.9316 1.9901-3.0064 1.1582-3.0685 2.1541-6.209 2.8417-9.4151 0.048-0.096 0.1074-0.2574 0.2416-0.2533zm-39.062 0.017c0.3744 0.4297 0.2697 1.1236 0.4622 1.6462 0.834 3.2936 1.8781 6.547 3.2357 9.6636 0.2967 0.6759 0.9603 1.5558 1.7962 1.3151 0.4075-0.5455 0.2251-1.3395 0.087-1.9555-0.4328-1.6084-1.3082-3.0812-1.6244-4.7153-0.019-0.4429 0.5947-0.1505 0.6297 0.1405 0.7221 1.4995 1.438 3.0353 1.8046 4.664 0.04 0.8161 0.1789 1.8032-0.3331 2.5181-0.8175 0.6393-1.9406-0.022-2.4664-0.7395-1.3048-1.8882-1.8649-4.1624-2.587-6.311-0.5403-1.9035-1.2264-3.8169-1.2795-5.8078 0.016-0.1709 0.041-0.4318 0.2752-0.4184z" fill="url(#radialGradient8935)" stroke-width=".081"/>
   </g>
  </g>
 </g>
 <style type="text/css">.st0{fill:#125159;}
	.st1{fill:#D4DB00;}
	.st2{opacity:0.12;}
	.st3{fill:#FFFFFF;}</style>
</svg>
