<?xml version="1.0" encoding="UTF-8" standalone="no"?>
<svg
   xmlns:dc="http://purl.org/dc/elements/1.1/"
   xmlns:cc="http://creativecommons.org/ns#"
   xmlns:rdf="http://www.w3.org/1999/02/22-rdf-syntax-ns#"
   xmlns:svg="http://www.w3.org/2000/svg"
   xmlns="http://www.w3.org/2000/svg"
   xmlns:sodipodi="http://sodipodi.sourceforge.net/DTD/sodipodi-0.dtd"
   xmlns:inkscape="http://www.inkscape.org/namespaces/inkscape"
   width="111.08191mm"
   height="177.01236mm"
   viewBox="0 0 111.08191 177.01236"
   version="1.1"
   id="svg2210"
   inkscape:version="1.0.2 (e86c8708, 2021-01-15)"
   sodipodi:docname="hippo_beat4.svg">
  <defs
     id="defs2204" />
  <sodipodi:namedview
     id="base"
     pagecolor="#ffffff"
     bordercolor="#666666"
     borderopacity="1.0"
     inkscape:pageopacity="0.0"
     inkscape:pageshadow="2"
     inkscape:zoom="0.35"
     inkscape:cx="329.02367"
     inkscape:cy="407.14279"
     inkscape:document-units="mm"
     inkscape:current-layer="layer1"
     inkscape:document-rotation="0"
     showgrid="false"
     fit-margin-top="0"
     fit-margin-left="0"
     fit-margin-right="0"
     fit-margin-bottom="0"
     inkscape:window-width="1728"
     inkscape:window-height="995"
     inkscape:window-x="2560"
     inkscape:window-y="170"
     inkscape:window-maximized="1" />
  <metadata
     id="metadata2207">
    <rdf:RDF>
      <cc:Work
         rdf:about="">
        <dc:format>image/svg+xml</dc:format>
        <dc:type
           rdf:resource="http://purl.org/dc/dcmitype/StillImage" />
        <dc:title></dc:title>
      </cc:Work>
    </rdf:RDF>
  </metadata>
  <g
     inkscape:label="レイヤー 1"
     inkscape:groupmode="layer"
     id="layer1"
     transform="translate(-18.779155,-40.443471)">
    <path
       style="fill:#333333;fill-opacity:1;stroke-width:0.264583"
       d="m 57.864729,216.85309 c -0.38648,-0.3267 -0.83296,-0.85406 -0.99219,-1.17192 -0.40804,-0.81454 -0.35959,-2.62013 0.0938,-3.49698 0.37237,-0.7201 2.08887,-2.39885 2.47012,-2.41579 0.10407,-0.005 0.40338,-0.17084 0.66513,-0.36933 0.44294,-0.33589 0.30139,-0.62509 -2.04326,-4.17447 l -2.51916,-3.81357 -3.11612,-0.85441 c -5.54549,-1.52051 -10.75578,-4.4343 -14.42272,-8.06571 -4.95552,-4.90752 -7.3681,-10.85446 -7.37056,-18.16828 -0.002,-5.15925 1.15201,-9.11673 4.13364,-14.17878 l 0.48143,-0.81734 -4.69966,-8.92978 c -5.63811,-10.71294 -5.65019,-10.73386 -6.20136,-10.73699 -0.74643,-0.004 -3.14852,-1.53316 -3.84653,-2.44829 -2.73757,-3.58915 -2.11701,-8.42896 1.24406,-9.70244 1.97639,-0.74883 4.0973,-0.11487 5.6721,1.69547 0.94916,1.09113 0.97941,1.10367 1.68506,0.69869 0.93774,-0.53819 2.08312,-0.16219 2.56433,0.84181 0.44738,0.93343 0.0736,2.88049 -0.98107,5.11059 l -0.7486,1.58292 3.2913,6.2051 c 1.81021,3.4128 3.82697,7.19269 4.48168,8.39976 l 1.19039,2.19467 2.46164,-2.35334 c 6.79401,-6.49513 14.88598,-10.94416 24.17745,-13.29299 6.61888,-1.67321 14.80327,-2.1287 21.28366,-1.18451 l 3.11652,0.45407 0.85901,-0.6552 c 0.47246,-0.36036 1.20739,-1.29459 1.63317,-2.07607 0.6435,-1.18107 0.7927,-1.80633 0.88398,-3.70464 0.0665,-1.38321 -0.0182,-2.68736 -0.2148,-3.30729 -0.66242,-2.08858 -6.75072,-18.70899 -11.91745,-32.533333 -10.70699,-28.648173 -18.27449,-49.128444 -18.41778,-49.844886 -0.0807,-0.403587 -0.006,-0.996553 0.16574,-1.317701 0.6463,-1.20762 7.85312,-3.978659 10.34755,-3.978659 1.24101,0 1.47129,0.307499 2.57579,3.439583 0.78833,2.23551 3.58031,9.788552 6.79731,18.388542 0.92539,2.473854 4.00139,10.86776 6.83556,18.653125 2.83416,7.785366 6.36413,17.429426 7.84437,21.431249 7.843821,21.20572 13.343171,36.84557 14.305711,40.68464 0.19223,0.76671 0.45904,1.35751 0.59292,1.31288 0.22893,-0.0763 5.98364,-12.37247 6.39078,-13.65525 0.13418,-0.42277 -0.0884,-1.15571 -0.76962,-2.53441 -0.52712,-1.0668 -1.02863,-2.53266 -1.11448,-3.25746 -0.13384,-1.1301 -0.0723,-1.40159 0.43197,-1.90587 0.58398,-0.58398 1.58519,-0.64677 2.67603,-0.16782 0.30269,0.1329 0.61693,-0.11309 1.12477,-0.8805 2.11272,-3.19253 7.28864,-2.67638 8.62481,0.86008 0.41628,1.10177 0.34183,3.34922 -0.1597,4.82113 -0.55161,1.61889 -2.45187,3.57424 -4.07652,4.1947 l -1.18963,0.45432 -2.35813,5.07897 c -1.29697,2.79343 -3.53831,7.57928 -4.98076,10.63522 l -2.62263,5.55625 0.42674,4.10104 c 1.17561,11.29785 0.003,17.18361 -4.88788,24.53482 -1.9578,2.94263 -7.15101,7.98366 -10.568191,10.25852 -1.52442,1.01481 -2.82891,1.88394 -2.89887,1.93139 -0.07,0.0474 0.55729,1.43582 1.39389,3.08529 l 1.52107,2.99903 1.781121,-0.75986 c 2.08518,-0.88959 3.77485,-0.98645 5.07209,-0.29073 1.74562,0.93619 2.41351,3.37579 1.27309,4.65022 -0.85946,0.96044 -8.123091,4.65591 -9.151451,4.65591 -0.46136,0 -1.05624,-0.21967 -1.32634,-0.48978 -0.26937,-0.26936 -1.6362,-2.68038 -3.0374,-5.3578 -1.4012,-2.67743 -2.65321,-5.02798 -2.78224,-5.22345 -0.18754,-0.28409 -0.84035,-0.11306 -3.25346,0.85239 -6.16597,2.46695 -13.36148,3.86424 -20.34883,3.95153 -2.17437,0.0272 -3.95375,0.081 -3.95418,0.11966 -5.3e-4,0.0386 1.1303,1.76441 2.51275,3.83504 2.06326,3.09035 2.51354,3.94322 2.51354,4.7609 0,1.12309 0.23165,0.92444 -5.02708,4.3111 -3.39752,2.18802 -4.35692,2.4237 -5.59747,1.37502 z m 17.82623,-29.31292 c 2.05835,-0.57167 3.44271,-2.37876 3.44271,-4.49401 0,-4.03177 -4.40613,-6.28404 -7.57104,-3.87005 -2.34727,1.79035 -2.35281,5.69639 -0.0106,7.48287 1.41534,1.07954 2.5528,1.32169 4.13894,0.88119 z m -24.36492,-5.66109 c 6.15256,-1.30411 10.04144,-6.86739 9.00902,-12.88799 -1.02404,-5.97176 -5.75904,-9.75166 -11.81736,-9.43367 -1.79278,0.0941 -2.52,0.27173 -3.90617,0.95413 -4.47304,2.20208 -6.71354,6.0452 -6.50595,11.15967 0.0761,1.87428 0.23534,2.55866 0.94426,4.05769 1.52464,3.22388 4.69287,5.6757 8.0574,6.23545 2.00654,0.33382 2.26624,0.32858 4.2188,-0.0853 z m -3.87113,-4.08416 c -2.04726,-0.53841 -4.26952,-2.53693 -4.91553,-4.42059 -0.8874,-2.5875 -0.17094,-5.72155 1.74624,-7.63873 1.42395,-1.42395 2.81782,-1.98354 4.95811,-1.99048 2.10508,-0.007 3.61456,0.59746 5.10281,2.04282 1.41375,1.37302 1.95917,2.75371 1.9661,4.97702 0.009,3.0154 -1.28812,5.1035 -4.04526,6.5101 -1.16423,0.59393 -3.55059,0.85172 -4.81247,0.51986 z m 49.42956,-3.60332 c 2.23009,-0.58085 3.547951,-1.34218 5.211881,-3.01083 3.55314,-3.56325 4.38239,-8.82224 2.11678,-13.42433 -1.04661,-2.12597 -3.40056,-4.33808 -5.486051,-5.15547 -2.07371,-0.81278 -5.54449,-0.98271 -7.65905,-0.37499 -4.16554,1.19718 -7.34595,4.89346 -8.03572,9.33915 -1.23578,7.96478 6.09505,14.64695 13.85216,12.62647 z m -5.25399,-4.24275 c -3.46372,-1.28172 -5.39553,-5.27402 -4.35329,-8.99655 0.43162,-1.54161 2.25391,-3.59128 3.90595,-4.39334 2.52432,-1.22554 5.94714,-0.66591 8.08863,1.32248 3.478281,3.22961 2.510441,9.50707 -1.81061,11.74372 -1.37212,0.71022 -4.34074,0.87502 -5.83068,0.32369 z"
       id="path2789" />
  </g>
</svg>
