<?xml version="1.0" encoding="UTF-8" standalone="no"?>
<!-- Created with Inkscape (http://www.inkscape.org/) -->

<svg
   width="50.010319mm"
   height="69.511192mm"
   viewBox="0 0 50.010319 69.511192"
   version="1.1"
   id="svg1"
   inkscape:version="1.3.2 (091e20e, 2023-11-25, custom)"
   sodipodi:docname="hippo_016.svg"
   xmlns:inkscape="http://www.inkscape.org/namespaces/inkscape"
   xmlns:sodipodi="http://sodipodi.sourceforge.net/DTD/sodipodi-0.dtd"
   xmlns:xlink="http://www.w3.org/1999/xlink"
   xmlns="http://www.w3.org/2000/svg"
   xmlns:svg="http://www.w3.org/2000/svg">
  <sodipodi:namedview
     id="namedview1"
     pagecolor="#ffffff"
     bordercolor="#000000"
     borderopacity="0.25"
     inkscape:showpageshadow="2"
     inkscape:pageopacity="0.0"
     inkscape:pagecheckerboard="0"
     inkscape:deskcolor="#d1d1d1"
     inkscape:document-units="mm"
     inkscape:zoom="1.6311518"
     inkscape:cx="58.854118"
     inkscape:cy="-117.4017"
     inkscape:window-width="3840"
     inkscape:window-height="2066"
     inkscape:window-x="-11"
     inkscape:window-y="-11"
     inkscape:window-maximized="1"
     inkscape:current-layer="layer1" />
  <defs
     id="defs1">
    <radialGradient
       inkscape:collect="always"
       xlink:href="#linearGradient7111"
       id="radialGradient10696"
       gradientUnits="userSpaceOnUse"
       gradientTransform="matrix(2.4504288,0.03742183,-0.00625606,0.58304092,-10447.98,-744.68144)"
       cx="7200.71"
       cy="-997.92633"
       fx="7200.71"
       fy="-997.92633"
       r="248.14999" />
    <linearGradient
       inkscape:collect="always"
       id="linearGradient7111">
      <stop
         style="stop-color:#ffff59;stop-opacity:1;"
         offset="0"
         id="stop7107" />
      <stop
         style="stop-color:#ffff59;stop-opacity:0;"
         offset="1"
         id="stop7109" />
    </linearGradient>
    <filter
       inkscape:collect="always"
       style="color-interpolation-filters:sRGB"
       id="filter8126"
       x="-0.21609329"
       width="1.4321866"
       y="-0.44677774"
       height="1.8935555">
      <feGaussianBlur
         inkscape:collect="always"
         stdDeviation="36.964909"
         id="feGaussianBlur8128" />
    </filter>
    <filter
       inkscape:label="Inset"
       inkscape:menu="Shadows and Glows"
       inkscape:menu-tooltip="Shadowy outer bevel"
       style="color-interpolation-filters:sRGB"
       id="filter10282"
       x="-0.08551392"
       y="-0.074334902"
       width="1.1710837"
       height="1.1486803">
      <feMorphology
         result="result1"
         in="SourceAlpha"
         operator="dilate"
         radius="3.6"
         id="feMorphology10270" />
      <feGaussianBlur
         stdDeviation="3.6"
         in="result1"
         result="result0"
         id="feGaussianBlur10272" />
      <feDiffuseLighting
         surfaceScale="-5"
         id="feDiffuseLighting10276">
        <feDistantLight
           elevation="45"
           azimuth="225"
           id="feDistantLight10274" />
      </feDiffuseLighting>
      <feComposite
         in2="result0"
         operator="in"
         result="result91"
         id="feComposite10278" />
      <feComposite
         in="SourceGraphic"
         in2="result91"
         id="feComposite10280" />
    </filter>
  </defs>
  <g
     inkscape:label="Layer 1"
     inkscape:groupmode="layer"
     id="layer1"
     transform="translate(-89.429054,-179.65208)">
    <g
       id="g10794"
       inkscape:export-xdpi="85.151764"
       inkscape:export-ydpi="85.151764"
       transform="matrix(0.26458333,0,0,0.26458333,-1790.7604,508.85217)">
      <path
         d="m 7403.6919,-1162.9124 a 205.27194,99.284019 0 0 1 -180.1892,98.5401 205.27194,99.284019 0 0 1 -224.2249,-74.4583 205.27194,99.284019 0 0 1 125.392,-116.7366 205.27194,99.284019 0 0 1 254.8688,45.9296 l -181.1187,46.7252 z"
         sodipodi:end="5.79319"
         sodipodi:start="0"
         sodipodi:ry="99.284019"
         sodipodi:rx="205.27194"
         sodipodi:cy="-1162.9124"
         sodipodi:cx="7198.4199"
         sodipodi:type="arc"
         transform="matrix(0.32146815,0,0,0.42100641,4886.6729,-675.47816)"
         id="path7105-0"
         style="opacity:1;fill:url(#radialGradient10696);fill-opacity:1;fill-rule:evenodd;stroke:none;stroke-width:1.96201;stroke-linecap:round;stroke-linejoin:round;stroke-miterlimit:4;stroke-dasharray:none;stroke-opacity:1;filter:url(#filter8126)"
         sodipodi:arc-type="slice" />
      <g
         transform="translate(4.237521e-5)"
         id="g10298">
        <path
           style="opacity:0.444;fill:#ffffff;fill-opacity:1;fill-rule:evenodd;stroke:#ffff8b;stroke-width:0.2875;stroke-linecap:round;stroke-linejoin:round;stroke-miterlimit:4;stroke-dasharray:none;stroke-opacity:1"
           d="m 7262.227,-1162.3047 c -0.7652,-0.6438 -1.2447,-1.9499 -1.8756,-5.1091 -1.0704,-5.3589 -4.3656,-18.5602 -6.0097,-24.0755 -2.4417,-8.1912 -4.3044,-12.1897 -6.8744,-14.7562 -1.2147,-1.2132 -1.3941,-1.5544 -0.9132,-1.7373 1.3553,-0.5152 3.1189,0.8611 5.6952,4.4444 3.4659,4.8208 8.5577,14.9227 12.6011,25 1.9618,4.8895 2.3688,6.575 2.4621,10.1963 0.072,2.7854 -0.053,4.0355 -0.4716,4.7237 -0.4874,0.8015 -2.3413,1.6425 -3.6209,1.6425 -0.468,0 -0.6894,-0.073 -0.993,-0.3288 z"
           id="path7101"
           inkscape:connector-curvature="0" />
        <path
           style="opacity:0.444;fill:#ffffff;fill-opacity:1;fill-rule:evenodd;stroke:#ffff8b;stroke-width:0.2875;stroke-linecap:round;stroke-linejoin:round;stroke-miterlimit:4;stroke-dasharray:none;stroke-opacity:1"
           d="m 7269.0351,-1143.8311 c -1.3305,-0.8114 -2.5445,-4.2033 -2.1902,-6.1197 0.2674,-1.4468 1.1101,-2.1435 2.7197,-2.2486 1.1687,-0.076 1.5706,0.091 2.0065,0.8344 0.2991,0.5102 0.3433,0.7318 0.3842,1.9247 0.1049,3.0605 -0.9217,5.8404 -2.1563,5.8389 -0.2134,-2e-4 -0.5571,-0.1036 -0.7639,-0.2297 z"
           id="path7103"
           inkscape:connector-curvature="0" />
        <path
           style="opacity:0.444;fill:none;fill-opacity:1;fill-rule:evenodd;stroke:#ffff8b;stroke-width:1.61471;stroke-linecap:round;stroke-linejoin:round;stroke-miterlimit:4;stroke-dasharray:none;stroke-opacity:1;filter:url(#filter10282)"
           d="m 7204.4022,-1228.8868 c -1.6157,0.01 -3.4905,0.041 -5.7336,0.099 -9.9981,0.2584 -11.7575,0.4667 -17.7047,2.1012 -19.6443,5.399 -32.3215,13.7282 -42.4001,27.8571 -9.6263,13.4947 -13.3443,27.1024 -13.9269,50.9667 -0.3619,14.8208 -0.3489,14.8948 4.2667,25.0935 5.0888,11.2441 6.2966,12.8419 20.1396,26.6314 7.1257,7.098 13.7187,14.0586 14.6504,15.4664 l 1.6932,2.5587 0.7763,-4.5938 c 0.4268,-2.5269 1.3515,-5.932 2.055,-7.5672 3.5626,-8.2816 13.7196,-11.2178 36.3642,-10.5108 16.0944,0.5025 22.2057,2.0721 26.3241,6.7627 2.7278,3.1068 3.6874,5.7395 4.057,11.1319 0.1751,2.555 0.5134,4.6467 0.7516,4.6467 0.2382,0 1.1051,-1.0097 1.9261,-2.2432 2.3966,-3.601 9.0733,-10.5093 16.6524,-17.2323 10.3204,-9.1544 14.3739,-15.1707 20.2965,-30.1118 l 2.3837,-6.0128 -0.078,-9.1299 c -0.066,-7.6228 -0.1556,-8.4723 -0.5434,-5.1489 -0.8479,7.2645 -3.6903,10.56 -7.6812,8.9069 -3.7897,-1.5697 -6.0508,-5.3048 -6.0508,-9.9955 0,-2.2702 0.3218,-3.0325 1.9723,-4.683 3.8227,-3.8227 9.2771,-3.8582 10.9255,-0.071 0.7971,1.8313 0.8111,1.7984 0.8342,-1.8551 0.034,-5.3525 -1.584,-16.1377 -3.3186,-22.1234 -1.9119,-6.5973 -7.2254,-16.9855 -11.7779,-23.0271 -3.7693,-5.0023 -8.9145,-11.1588 -6.16,-6.8054 2.214,3.4991 10.6451,18.8646 13.9866,27.2671 2.5391,6.3847 2.7375,7.2774 2.7718,12.4501 l 0.036,5.5718 -2.4762,2.3126 c -3.1725,2.9629 -6.1753,3.6287 -9.1579,2.0318 -2.4968,-1.3369 -3.3308,-3.6331 -6.9246,-19.051 -3.6684,-15.7374 -6.8132,-24.1189 -10.4448,-27.834 -2.0933,-2.1413 -2.2824,-4.0368 -0.5831,-5.8608 1.2294,-1.3196 9.606,1.9462 12.8424,1.6504 1.7345,-0.1585 -5.513,-3.9501 -9.2711,-6.4375 -8.1577,-5.3992 -20.0608,-10.1409 -31.06,-12.3741 -3.0593,-0.6211 -5.5663,-0.8567 -10.4134,-0.8375 z m 11.6886,77.1257 c 0.5773,-0.012 1.2567,0.021 2.1194,0.076 3.9829,0.2536 5.9497,1.2878 8.1932,4.3081 1.9505,2.6258 1.5713,10.1083 -0.8276,16.3287 -3.4431,8.9284 -12.138,21.5107 -15.6299,22.619 -1.1464,0.3638 -2.942,-0.5538 -2.942,-1.5032 0,-0.2444 1.8846,-2.9706 4.1891,-6.0574 4.6589,-6.2403 8.9491,-14.0851 10.4035,-19.0262 0.9915,-3.3687 1.2646,-8.8222 0.4988,-9.969 -1.4612,-2.1885 -6.4993,-2.732 -8.1734,-0.8821 -0.9924,1.0966 -0.9831,1.2287 0.2015,2.8395 2.9854,4.0595 1.9545,10.2875 -2.1193,12.8053 -4.5524,2.8135 -7.0563,-0.4095 -6.7016,-8.626 l 0.2065,-4.7574 -2.3094,-0.8012 c -1.7431,-0.6043 -2.9174,-0.6483 -4.7854,-0.1784 l -2.4745,0.6228 0.2081,5.6642 c 0.2605,7.1015 -0.4721,8.6228 -4.1544,8.6228 -5.9067,0 -8.6971,-8.5686 -4.4386,-13.6296 l 1.4338,-1.7047 -1.6997,-1.0043 c -2.1195,-1.252 -5.3228,-1.2922 -7.0403,-0.089 -4.2875,3.0031 -0.1419,15.9462 9.3777,29.2826 2.5575,3.583 4.1964,6.4552 4.0933,7.1708 -0.7301,5.0664 -10.1005,-4.9182 -15.6878,-16.7153 -2.754,-5.8148 -4.5179,-11.8395 -4.5179,-15.4301 0,-3.8436 2.1146,-7.6615 5.0036,-9.0324 4.0205,-1.9078 10.9879,-0.7551 13.4627,2.2267 0.6574,0.7921 1.1318,0.7618 4.09,-0.256 4.0819,-1.4044 6.2465,-1.4093 9.6717,-0.02 l 2.6264,1.0655 3.056,-2.055 c 2.119,-1.4259 2.9348,-1.8598 4.6665,-1.8946 z m -45.9301,88.2575 0.1321,0.8342 c 0.2971,1.8777 1.9199,7.1701 2.3539,7.6746 l 0.4543,0.5286 11.9364,0.3965 c 6.5646,0.2183 15.027,0.4838 18.8065,0.5897 7.0711,0.1981 11.2073,0.1375 13.5601,-0.1966 0.7406,-0.1052 3.5823,-0.2977 6.3151,-0.4295 2.7329,-0.1318 5.0299,-0.3023 5.1026,-0.3783 0.4103,-0.4285 2.3747,-7.4118 2.2565,-8.0214 -0.045,-0.2334 -0.4924,0.046 -1.5445,0.9663 -3.9122,3.421 -7.7108,4.7947 -15.435,5.5833 -3.6712,0.3748 -22.739,0.3654 -26.7438,-0.013 -7.8023,-0.7376 -11.5577,-2.1765 -15.5226,-5.945 z"
           id="path7078"
           inkscape:connector-curvature="0"
           sodipodi:nodetypes="cssssssccccsscssscccccsccscscsccccscsssscscsscssccccsccccccscccsscssccccccscccccsccccccccc" />
        <path
           style="opacity:1;fill:#b6b6b6;fill-opacity:1;fill-rule:evenodd;stroke:none;stroke-width:0.554383;stroke-linecap:round;stroke-linejoin:round;stroke-miterlimit:4;stroke-dasharray:none;stroke-opacity:1"
           d="m 7190.0714,-996.82124 c -1.4325,-1.69538 -2.7954,-2.38282 -7.779,-3.92376 -3.3232,-1.0275 -7.0515,-2.2899 -8.285,-2.8053 -2.0948,-0.8753 -2.1795,-1.0071 -1.2838,-1.9969 1.3364,-1.4766 1.2005,-2.6799 -0.5354,-4.743 l -1.4945,-1.7761 1.1823,-2.6056 c 1.4253,-3.1409 1.5005,-5.022 0.2934,-7.3367 -0.8553,-1.64 -0.8204,-1.8674 0.6017,-3.9194 1.719,-2.4806 1.9153,-4.5581 0.607,-6.426 -0.7273,-1.0382 -0.7668,-1.587 -0.2032,-2.8239 0.5413,-1.188 0.5274,-2.0566 -0.062,-3.8413 -0.6262,-1.8976 -0.6176,-2.5599 0.049,-3.7381 0.4454,-0.7876 0.8121,-2.7775 0.8148,-4.4221 l 0.01,-2.9902 2.0931,0.07 c 1.1513,0.039 7.7446,0.3743 14.652,0.7459 6.9074,0.3716 18.2375,0.6764 25.1782,0.6773 h 12.6193 l 2.1758,3.0521 c 4.1923,5.8808 -2.2425,12.6419 -2.9306,15.9691 -0.3145,1.5207 -0.1365,2.28 0.7711,3.2892 1.9753,2.1967 2.0264,2.6301 0.6451,5.4732 -1.1902,2.4497 -1.249,2.9511 -0.5487,4.6739 1.4184,3.4888 1.4286,4.5082 0.068,6.7103 -0.9962,1.6118 -1.2287,2.645 -0.9408,4.1798 0.4772,2.5436 0.1653,2.7249 -7.7332,4.4955 -6.8105,1.52676 -7.7222,1.91645 -9.6021,4.10425 -1.3312,1.54931 -1.5076,1.58056 -9.9878,1.76928 l -8.6326,0.19213 z m 23.856,-16.58516 c 5.5912,-1.8581 8.7945,-3.6107 8.7945,-4.8115 0,-1.005 -2.4908,-0.5827 -9.0296,1.5312 -10.7905,3.4883 -15.3511,3.4317 -27.3084,-0.3391 -5.7397,-1.81 -7.9169,-2.1393 -7.9169,-1.1975 0,0.7648 3.2694,2.6999 7.1765,4.2475 9.1216,3.6131 18.5539,3.803 28.2839,0.5694 z m -8.5189,-3.8864 c 0.9704,-0.5018 1.7644,-1.3092 1.7644,-1.7941 0,-0.7209 -1.145,-0.8817 -6.2794,-0.8817 -5.1223,0 -6.2794,0.1618 -6.2794,0.8779 0,2.3651 7.335,3.5868 10.7944,1.7979 z m -14.0753,-0.891 c 0.6695,-0.7397 1.1951,-2.4625 1.3607,-4.4595 0.2255,-2.7187 0.016,-3.6878 -1.2743,-5.8891 -2.3382,-3.9899 -5.3619,-6.3872 -8.056,-6.3872 -2.9618,0 -4.8966,1.3995 -4.8966,3.5418 0,2.5567 3.9135,9.8274 6.5921,12.2475 2.6816,2.4226 4.6672,2.7222 6.2741,0.9465 z m 23.6845,0.1549 c 2.1676,-1.4438 4.2058,-3.9895 6.832,-8.533 1.2311,-2.1298 2.671,-4.3723 3.1999,-4.9833 0.8998,-1.0396 0.8308,-1.2201 -1.0735,-2.8111 -3.6023,-3.0095 -6.3634,-2.692 -10.2139,1.1742 -3.4175,3.4315 -5.0567,6.7402 -5.0778,10.2496 -0.031,5.076 2.7926,7.2619 6.3333,4.9036 z m -9.762,-7.662 c 0.7365,-0.5159 1.2075,-1.1511 1.0465,-1.4116 -0.8856,-1.4329 -11.0901,-1.2063 -11.0901,0.2463 0,1.9907 7.6054,2.873 10.0436,1.1653 z m 10.8878,-13.3527 c 4.149,-1.3053 8.8479,-4.6105 7.9008,-5.5575 -0.5104,-0.5105 -2.5132,0.077 -9.6949,2.8425 -1.4954,0.5759 -5.5139,0.8136 -14.0708,0.8323 l -11.9777,0.026 -4.3676,-2.0932 c -4.906,-2.3511 -6.8565,-2.6625 -6.5544,-1.0465 0.24,1.2837 6.8833,4.8853 10.9557,5.9394 4.778,1.2367 22.8253,0.6245 27.8089,-0.9433 z"
           id="path7062"
           inkscape:connector-curvature="0"
           sodipodi:nodetypes="cccsscsscccscscccccssccsccssscccssssccssssscssssscsscssssccscccccccsccc" />
        <path
           style="fill:#0f0c0a;fill-opacity:1;stroke:#0f0c0a;stroke-width:1.94524;stroke-miterlimit:4;stroke-dasharray:none;stroke-opacity:1"
           d="m 7181.4133,-984.39061 c -1.7377,-2.65203 -3.8576,-8.87569 -3.8576,-11.32526 0,-1.20596 -0.6027,-2.2141 -1.48,-2.47527 -0.8141,-0.24239 -3.0976,-1.2348 -5.0746,-2.20536 -3.7769,-1.8543 -4.5871,-3.8817 -2.3074,-5.7738 1.1368,-0.9434 1.0875,-1.208 -0.4228,-2.2659 -2.1335,-1.4944 -2.1373,-2.4433 -0.025,-6.585 1.6819,-3.2988 1.6819,-3.3062 0,-5.0964 -2.2023,-2.3443 -2.1295,-3.1394 0.583,-6.3629 2.0391,-2.4233 2.1242,-2.7745 0.8457,-3.4899 -1.729,-0.9676 -1.7787,-2.1211 -0.2202,-5.1084 1.0247,-1.9642 1.0239,-2.421 -0.01,-3.2752 -1.5886,-1.3183 -1.5117,-3.2635 0.2037,-5.1591 1.3024,-1.4391 1.3024,-1.6541 0,-3.0932 -1.5707,-1.7357 -1.8318,-4.0068 -0.5517,-4.798 0.513,-0.317 0.557,-1.0886 0.1113,-1.9529 -0.4052,-0.7858 -1.2179,-4.0928 -1.8059,-7.349 -2.634,-14.5852 -4.8198,-18.0039 -20.8751,-32.6486 -13.0148,-11.8715 -15.7882,-15.8268 -22.9506,-32.7319 l -3.8327,-9.046 -0.029,-12.6863 c -0.031,-14.0401 1.4992,-22.4381 6.4743,-35.5218 9.1706,-24.1172 27.7412,-40.1348 54.4661,-46.9782 5.2752,-1.3509 9.3753,-1.6957 20.1545,-1.6952 12.4986,5e-4 14.2293,0.1966 22.6605,2.5665 27.9799,7.8652 45.7494,25.3534 54.1527,53.2959 3.3932,11.283 5.2495,25.5494 4.4591,34.2709 -0.6734,7.4312 -5.4106,20.2257 -11.3228,30.5811 -3.7335,6.5393 -5.7435,8.8172 -16.2849,18.4549 -13.3284,12.1857 -17.7993,18.2873 -19.4285,26.514 -0.5205,2.6285 -1.4116,6.9125 -1.9804,9.5202 -0.6842,3.1371 -0.7555,5.1829 -0.2108,6.0463 0.5812,0.9214 0.3856,1.9729 -0.6651,3.5764 -1.3582,2.0731 -1.3717,2.4001 -0.1532,3.7465 1.672,1.8474 1.7055,3.7875 0.089,5.1293 -1.0963,0.91 -1.0889,1.3388 0.062,3.5635 1.1981,2.317 1.1853,2.6646 -0.1534,4.1437 -1.315,1.453 -1.332,1.7628 -0.1701,3.0947 0.7101,0.8141 1.7531,2.3724 2.3179,3.4629 0.8836,1.7059 0.7681,2.2582 -0.8275,3.9566 -1.7385,1.8505 -1.7695,2.0953 -0.4953,3.9143 1.7899,2.5556 1.7146,4.2669 -0.3008,6.829 -1.4657,1.8633 -1.5183,2.2972 -0.4497,3.7086 0.6655,0.8791 1.2162,1.9789 1.2237,2.4441 0.013,0.7723 -5.9011,3.88532 -9.4747,4.98776 -0.814,0.2511 -1.4801,1.07597 -1.4801,1.83301 0,2.85611 -2.7696,10.74955 -4.3133,12.29331 -1.9515,1.9515 -5.4638,2.10475 -6.1681,0.26912 -0.2824,-0.73581 -0.5134,-3.04954 -0.5134,-5.14169 v -3.80395 l -2.7487,0.62915 c -3.359,0.7688 -15.8336,0.74114 -18.2967,-0.0406 -1.6554,-0.52547 -1.79,-0.25872 -1.79,3.54845 0,2.26417 -0.4567,4.57334 -1.0149,5.13154 -1.6348,1.63476 -4.7621,1.17399 -6.1223,-0.90192 z m 4.6,-5.21171 c 0,-4.98167 -1.3763,-7.24931 -4.3999,-7.24931 -1.4988,0 -1.6785,0.39006 -1.2879,2.79649 0.721,4.44309 2.9472,9.04409 4.376,9.04409 1.0241,0 1.3118,-1.00687 1.3118,-4.59127 z m 32.0779,-0.0921 c 2.098,-5.60736 2.1907,-7.15721 0.4281,-7.15721 -3.5165,0 -4.5961,1.59628 -4.5961,6.79581 0,6.6331 1.7643,6.78609 4.168,0.3614 z m -10.1223,-5.16284 c 1.6546,-0.33094 2.968,-1.22795 3.3635,-2.29707 0.5226,-1.41266 2.0831,-2.03641 8.0172,-3.20437 8.533,-1.6795 10.2022,-2.6335 8.7305,-4.9901 -0.8117,-1.2996 -0.6514,-2.0461 0.8852,-4.1246 1.8226,-2.4652 1.835,-2.6242 0.4326,-5.565 -1.3746,-2.8825 -1.368,-3.1679 0.1368,-5.9621 1.5659,-2.9077 1.5636,-2.9524 -0.2495,-4.8825 -2.1013,-2.2366 -2.2488,-3.3053 -0.7807,-5.6561 0.798,-1.2777 0.8168,-2.0522 0.079,-3.2339 -0.7551,-1.2091 -0.675,-2.1638 0.361,-4.3029 1.084,-2.2382 1.1249,-2.8766 0.2197,-3.436 -0.7293,-0.4508 -0.9527,-1.6667 -0.6493,-3.5357 l 0.4623,-2.8487 -12.3899,0.01 c -15.3166,0.011 -38.1716,-0.9699 -40.132,-1.7222 -2.3701,-0.9094 -4.0552,1.063 -2.9607,3.4653 0.7283,1.5984 0.6147,2.4788 -0.549,4.2549 -1.0615,1.6201 -1.2117,2.4951 -0.5429,3.1639 1.1719,1.1719 1.1962,4.2051 0.043,5.3583 -0.6115,0.6117 -0.4821,1.2131 0.4229,1.9642 1.8344,1.5225 1.6212,4.2353 -0.5111,6.5051 -1.2893,1.3724 -1.5699,2.2464 -0.968,3.0147 1.738,2.2181 1.8329,5.161 0.2655,8.2333 -1.5479,3.0342 -1.5469,3.1159 0.047,4.1111 1.7279,1.0791 2.1913,3.9348 0.7801,4.8069 -1.4754,0.9119 -0.926,1.6732 1.9029,2.6367 1.5118,0.5149 4.4614,1.5485 6.5546,2.2968 2.0933,0.7483 4.8272,1.56274 6.0754,1.80996 1.2482,0.24713 2.5031,1.18524 2.7885,2.08453 0.2854,0.89938 1.1671,1.80586 1.9593,2.01434 2.2982,0.60497 13.235,0.62687 16.207,0.0321 z m -19.5562,-18.40834 c -6.14,-2.072 -10.9836,-4.8287 -9.4074,-5.3541 0.5457,-0.1818 4.3889,0.8356 8.5407,2.2611 9.7563,3.3499 16.159,3.4535 24.8161,0.4018 8.1475,-2.8721 10.0187,-3.2769 10.0187,-2.1671 0,1.2148 -2.3718,2.4225 -9.5572,4.8664 -7.8153,2.6581 -16.5186,2.6552 -24.4109,-0.01 z m 8.3417,-4.0355 c -2.5912,-0.9449 -2.6535,-2.9722 -0.078,-2.5406 0.8802,0.1475 2.7423,0.2682 4.1378,0.2682 1.3955,0 3.2574,-0.1207 4.1376,-0.2682 2.4647,-0.413 2.5177,1.4324 0.074,2.5462 -2.58,1.1756 -5.0359,1.1739 -8.2705,-0.01 z m -12.5987,-3.0588 c -3.721,-4.1188 -6.4233,-10.7593 -5.1839,-12.7389 0.4783,-0.7639 2.1966,-1.5034 3.8184,-1.6433 2.522,-0.2175 3.3938,0.2384 6.0247,3.1503 3.6143,4.0007 4.4868,6.7724 3.4509,10.9636 -1.1172,4.5207 -4.1769,4.622 -8.1101,0.2683 z m 5.6943,-1.2631 c 1.0195,-4.0624 -3.3006,-10.7504 -6.9443,-10.7504 -1.0818,0 -1.9669,0.3995 -1.9669,0.8878 0,2.337 6.1256,11.7986 7.6387,11.7986 0.4326,0 1.0052,-0.8712 1.2725,-1.936 z m 19.8742,2.8373 c -2.3212,-4.3371 -0.2454,-10.5406 5.0532,-15.1017 3.571,-3.0739 5.5676,-3.0895 9.2949,-0.073 1.4559,1.1784 1.7771,1.8483 1.0314,2.1509 -0.5957,0.2417 -2.0222,2.2928 -3.1701,4.558 -4.3926,8.6684 -10.0146,12.5663 -12.2094,8.4652 z m 6.0863,-3.65 c 2.4998,-3.2908 5.7698,-10.4562 5.0845,-11.1415 -1.1321,-1.1321 -2.8987,-0.2957 -5.6692,2.6839 -2.929,3.15 -4.4738,7.4885 -3.5365,9.9313 0.743,1.9361 1.8248,1.5492 4.1212,-1.4737 z m -19.0138,-3.2394 c -2.6729,-1.5568 -1.5613,-2.1523 4.0173,-2.1523 5.6257,0 6.7561,0.6411 3.8615,2.1903 -2.0648,1.1051 -5.9485,1.0864 -7.8788,-0.038 z m -10.4687,-13.2868 c -4.9393,-1.7529 -8.7723,-4.0563 -8.7723,-5.2716 0,-1.3315 1.4662,-0.9746 6.1598,1.4996 4.2256,2.2275 4.9307,2.3258 16.6756,2.3258 11.7434,0 12.4885,-0.1038 17.5671,-2.4492 5.2769,-2.4369 8.0676,-2.3929 4.8441,0.076 -5.0777,3.8898 -9.0283,4.865 -20.7197,5.1145 -9.3321,0.1993 -12.2099,-0.037 -15.7546,-1.2954 z m 37.3214,-14.1766 5.9203,-0.2318 0.9968,-2.9158 c 0.5482,-1.6037 1.2732,-4.3961 1.6111,-6.2052 l 0.6144,-3.2894 -3.4791,3.1377 c -5.5561,5.011 -10.5639,6.0793 -28.4989,6.0793 -18.2615,0 -23.3977,-1.1228 -28.5064,-6.2315 -3.7374,-3.7374 -4.0838,-2.8704 -1.8807,4.7076 1.3241,4.555 1.3404,4.5708 4.8631,4.6888 31.473,1.0552 39.3219,1.2268 40.7476,0.8908 0.9304,-0.2192 4.3557,-0.503 7.6118,-0.6305 z m -2.9794,-7.4182 c 5.7692,-1.5817 8.769,-4.751 10.6628,-11.2652 1.1822,-4.0668 1.2494,-5.7147 0.4344,-10.6494 -1.5998,-9.6874 -4.749,-12.5967 -15.4369,-14.2603 -7.4699,-1.1627 -31.7372,-0.5366 -36.6503,0.9455 -4.7444,1.4313 -8.5358,5.7473 -9.6621,10.9993 -2.8063,13.0852 1.7551,22.4127 11.9271,24.3895 2.4702,0.4799 5.2523,1.0557 6.1827,1.2792 3.6635,0.8803 28.0097,-0.196 32.5423,-1.4386 z m -23.6099,-8.9779 c -2.2112,-2.2112 -2.2043,-3.82 0.026,-6.0505 1.172,-1.172 2.3861,-1.6044 3.5945,-1.2802 1.0036,0.2692 2.1102,0.4947 2.459,0.501 0.3489,0.01 0.6344,0.5969 0.6344,1.3122 0,0.9107 -0.6883,1.2277 -2.2958,1.0572 -3.166,-0.3357 -3.7207,2.297 -0.6466,3.0685 1.2192,0.306 2.0648,1.0181 1.879,1.5824 -0.5758,1.749 -3.8204,1.6396 -5.6507,-0.1906 z m -20.2887,-4.8178 c -0.9641,-1.2256 -1.7529,-3.0772 -1.7529,-4.1147 0,-1.0374 0.7888,-2.8891 1.7529,-4.1146 2.4635,-3.132 5.9183,-2.9843 8.7438,0.3736 2.7373,3.2531 2.7671,5.3548 0.1136,8.0083 -2.825,2.825 -6.566,2.7605 -8.8574,-0.1526 z m 6.5425,-3.4077 c 0.2707,-1.9004 -2.3561,-3.4557 -4.0591,-2.4031 -0.9803,0.6058 -1.1422,3.2396 -0.2538,4.1281 1.2199,1.2198 4.0549,0.086 4.3129,-1.725 z m 32.3622,3.4077 c -2.0792,-2.6432 -2.1659,-3.8229 -0.5155,-7.0143 2.1117,-4.0834 6.1183,-4.6223 9.4675,-1.2731 1.7447,1.7447 2.067,2.6878 1.6431,4.8076 -1.176,5.8795 -7.1612,7.8453 -10.5951,3.4798 z m 7.4097,-3.1473 c 0.4099,-2.1496 -1.0184,-3.3647 -3.1571,-2.6859 -1.7216,0.5464 -2.3976,2.9301 -1.1772,4.1505 1.1083,1.1083 4.032,0.1203 4.3343,-1.4646 z m 14.7602,-1.1788 c 3.094,-4.9834 10.6391,-12.7397 19.8466,-20.4022 7.4329,-6.1857 12.618,-14.2898 17.9324,-28.0272 l 2.7772,-7.179 -0.4511,-14.8008 c -0.6217,-20.3999 -2.9785,-31.015 -9.5642,-43.078 -10.0667,-18.4389 -24.8082,-29.5955 -46.9474,-35.5302 -8.4013,-2.2522 -11.0342,-2.5818 -20.6255,-2.5818 -9.5919,0 -12.2359,0.3311 -20.721,2.594 -22.249,5.9338 -36.4562,16.6491 -47.2328,35.6235 -6.287,11.07 -9.5704,26.8943 -9.7057,46.7784 -0.08,11.7922 -0.068,11.8712 3.0211,19.318 6.0612,14.6121 9.7789,19.7927 22.4911,31.3411 7.002,6.3609 12.7141,12.3347 14.5043,15.1684 l 2.9533,4.6748 1.0446,-7.2358 c 1.189,-8.2357 3.3577,-11.9282 8.5329,-14.5286 9.3311,-4.6885 41.53,-4.5334 50.7693,0.2444 1.4756,0.7631 3.7026,2.9281 4.9487,4.8112 1.8875,2.852 2.3282,4.6135 2.6398,10.5483 0.2056,3.9185 0.4623,7.1246 0.5705,7.1246 0.1081,0 1.5553,-2.1884 3.2159,-4.8631 z m -50.375,-34.8557 c -7.0872,-7.8828 -14.0557,-24.0616 -12.9356,-30.0326 0.2883,-1.5367 1.5183,-3.7882 2.7333,-5.0032 3.1057,-3.1057 9.2138,-3.1284 12.8747,-0.048 l 2.5684,2.1612 4.1491,-1.4737 c 3.9534,-1.4041 4.3342,-1.4029 8.0727,0.025 l 3.9236,1.4984 2.5979,-2.186 c 3.8505,-3.24 9.3187,-3.0773 12.776,0.38 2.4382,2.4382 2.5496,2.8493 2.2358,8.2462 -0.2641,4.5389 -1.0388,7.1245 -3.8561,12.869 -4.9447,10.0826 -12.479,19.3259 -14.2825,17.5224 -0.246,-0.246 1.5098,-2.862 3.9017,-5.8133 9.4269,-11.6309 14.4501,-26.8622 10.2456,-31.0667 -2.3619,-2.3619 -7.7022,-2.436 -9.7837,-0.136 -1.4316,1.5819 -1.4195,1.7445 0.2918,3.92 2.4625,3.1306 2.3823,7.9519 -0.1722,10.3516 -4.3497,4.0864 -6.844,1.6072 -6.3403,-6.3019 l 0.3575,-5.6148 -2.8274,-1.1813 c -2.2583,-0.9436 -3.4872,-0.9837 -6.1052,-0.1993 l -3.2779,0.982 0.4567,6.0386 c 0.5166,6.83 -0.5554,8.7358 -4.3746,7.7773 -4.2919,-1.0773 -5.5105,-8.3448 -2.0229,-12.0638 l 1.9875,-2.1194 -1.9966,-1.6196 c -2.7478,-2.229 -7.8376,-2.1457 -9.9243,0.1624 -1.1651,1.2887 -1.5765,2.9089 -1.4859,5.852 0.1626,5.2787 6.1449,18.0577 11.565,24.7041 2.176,2.6681 3.9562,5.2371 3.9562,5.7089 0,1.7685 -1.6477,0.732 -5.3083,-3.3394 z m 5.3083,-22.7979 c 0,-4.6436 -0.7234,-6.2981 -2.2131,-5.0618 -2.2287,1.8497 -1.0314,8.3756 1.5365,8.3756 0.3722,0 0.6766,-1.4912 0.6766,-3.3138 z m 18.4375,2.2989 c 1.2519,-1.2519 1.3128,-4.46 0.1267,-6.6762 -1.3941,-2.6048 -2.4948,-1.0551 -2.4948,3.5122 0,4.2488 0.5493,4.9828 2.3681,3.164 z m 55.0782,-8.2234 c -2.0013,-2.0013 -2.4722,-3.1985 -2.4722,-6.2856 0,-3.2438 0.3669,-4.0745 2.4564,-5.5624 2.9411,-2.0943 6.218,-2.2574 7.7703,-0.3869 1.6479,1.9855 1.4367,9.7549 -0.3388,12.4646 -1.9105,2.9158 -4.3456,2.8403 -7.4157,-0.2297 z m 6.3176,-3.5524 c 1.1234,-4.5324 0.1236,-7.5074 -2.5232,-7.5074 -3.2831,0 -4.8542,2.0529 -4.2078,5.4986 1.1201,5.9705 5.4302,7.2568 6.731,2.0088 z m -13.4433,-14.5805 c -0.7202,-1.0991 -1.892,-4.8099 -2.6039,-8.2461 -4.4762,-21.6034 -8.9759,-34.5137 -13.0158,-37.3433 -2.2182,-1.5537 -1.3652,-4.5111 1.5992,-5.5445 5.3582,-1.8678 10.2779,3.4362 17.3748,18.7316 8.1308,17.524 10.0536,24.5259 8.058,29.3438 -2.0075,4.8465 -9.0109,6.7235 -11.4123,3.0585 z m 7.6635,-1.7407 c 1.3135,-0.9617 1.6304,-2.1873 1.5856,-6.1318 -0.046,-4.0115 -0.8913,-6.8602 -4.5401,-15.2944 -7.0436,-16.2813 -13.0746,-25.5799 -16.5908,-25.5799 -2.358,0 -2.7476,1.7689 -0.754,3.4234 2.8632,2.3762 5.3983,8.5681 8.6405,21.1035 1.8648,7.2101 3.647,14.577 3.9605,16.3711 0.9755,5.5823 1.9405,7.3101 4.0828,7.3101 1.0856,0 2.7125,-0.5409 3.6155,-1.202 z"
           id="path7058"
           inkscape:connector-curvature="0" />
        <path
           style="opacity:1;fill:#fef5e4;fill-opacity:1;fill-rule:evenodd;stroke:#0f0c0a;stroke-width:0.570885;stroke-linecap:round;stroke-linejoin:round;stroke-miterlimit:4;stroke-dasharray:none;stroke-opacity:1"
           d="m 7185.3186,-1060.7023 c -6.476,-1.34 -8.1635,-2.0669 -10.6976,-4.608 -1.8338,-1.8388 -3.0485,-4.0305 -3.8223,-6.8961 -0.6675,-2.4723 -0.6675,-8.342 10e-5,-11.5234 1.1191,-5.3332 4.3671,-9.4131 8.6836,-10.9082 4.7273,-1.6372 29.2998,-2.3195 37.2349,-1.0338 3.003,0.4865 5.836,1.2932 7.5996,2.1638 3.7961,1.8741 5.589,5.2095 6.6516,12.3747 0.4239,2.8584 0.4273,4.601 0.013,6.6078 -1.4778,7.1547 -4.4191,10.9945 -9.766,12.7498 -3.1517,1.0347 -15.8868,1.9556 -26.5715,1.9215 l -5.3079,-0.017 -4.0173,-0.8312 z m 17.0609,-6.8763 c 1.3559,-0.6938 1.6799,-2.4132 0.6223,-3.3031 -0.3334,-0.2806 -0.9281,-0.6282 -1.3215,-0.7725 -1.1352,-0.4166 -1.7286,-0.7469 -1.7513,-0.9751 -0.012,-0.1192 0.7966,-0.2604 1.8529,-0.3237 1.7191,-0.1029 1.9157,-0.1607 2.3787,-0.6989 0.5915,-0.6877 0.6761,-1.9442 0.1938,-2.8769 -0.2665,-0.5153 -0.5461,-0.6559 -1.9558,-0.9838 -3.0391,-0.7069 -4.1563,-0.4549 -6.0494,1.3644 -1.2889,1.2387 -1.833,2.2828 -1.833,3.5173 0,1.2785 0.4089,2.198 1.5073,3.3897 1.8136,1.9675 4.425,2.6506 6.356,1.6626 z m -18.7324,-4.1313 c 1.3682,-0.5037 3.4011,-2.3274 4.1706,-3.7413 0.8,-1.4697 0.9313,-2.8091 0.4095,-4.1755 -0.8388,-2.1963 -2.8566,-4.5278 -4.7916,-5.5368 -1.5902,-0.8291 -3.6102,-0.8082 -5.1696,0.054 -1.4089,0.7785 -2.6049,2.117 -3.4224,3.8299 -0.8867,1.858 -0.9792,2.8552 -0.4187,4.5162 1.5502,4.5941 5.135,6.5586 9.2222,5.0539 z m 38.4102,0.3754 c 2.9851,-0.8984 5.2643,-4.2789 5.298,-7.8578 0.015,-1.6041 -0.5413,-2.6572 -2.2653,-4.2876 -1.6657,-1.5754 -3.2121,-2.2575 -5.0954,-2.2477 -2.6262,0.014 -4.5029,1.4323 -5.9922,4.5292 -0.8624,1.7933 -1.1235,3.7481 -0.6578,4.9239 0.4275,1.0792 1.9964,3.1958 2.8535,3.8495 1.6892,1.2884 3.8593,1.6923 5.8592,1.0905 z"
           id="path7064"
           inkscape:connector-curvature="0" />
        <path
           style="opacity:1;fill:#ffffff;fill-opacity:1;fill-rule:evenodd;stroke:#ffffff;stroke-width:0.100919;stroke-linecap:round;stroke-linejoin:round;stroke-miterlimit:4;stroke-dasharray:none;stroke-opacity:1"
           d="m 7179.9649,-1076.4891 c -0.2134,-0.076 -0.3567,-0.1974 -0.4419,-0.3736 -0.2584,-0.5337 -0.25,-1.6387 0.017,-2.2218 0.1274,-0.2784 0.1767,-0.3272 0.4249,-0.421 0.6197,-0.2342 1.5701,0.043 2.076,0.6059 0.5395,0.6 0.499,1.2609 -0.1115,1.8203 -0.1334,0.1222 -0.359,0.2834 -0.5014,0.3582 -0.4737,0.2489 -1.1262,0.3524 -1.4631,0.232 z"
           id="path7066"
           inkscape:connector-curvature="0" />
        <path
           style="opacity:1;fill:#ffffff;fill-opacity:1;fill-rule:evenodd;stroke:#ffffff;stroke-width:0.100919;stroke-linecap:round;stroke-linejoin:round;stroke-miterlimit:4;stroke-dasharray:none;stroke-opacity:1"
           d="m 7219.6577,-1076.5314 c -0.1204,-0.039 -0.2214,-0.1093 -0.3251,-0.2271 -0.2044,-0.2323 -0.2851,-0.4803 -0.2847,-0.8752 8e-4,-0.689 0.4128,-1.3543 1.0086,-1.6286 0.2801,-0.1289 0.7651,-0.2148 1.0988,-0.1946 0.4976,0.03 0.8048,0.2241 0.9904,0.6253 0.067,0.1453 0.079,0.2407 0.079,0.656 0,0.4325 -0.01,0.5052 -0.087,0.6617 -0.1775,0.3604 -0.6577,0.7074 -1.259,0.9096 -0.375,0.1261 -0.9496,0.1605 -1.2211,0.073 z"
           id="path7068"
           inkscape:connector-curvature="0" />
        <path
           style="opacity:1;fill:#ffffff;fill-opacity:1;fill-rule:evenodd;stroke:#0f0c0a;stroke-width:0.285443;stroke-linecap:round;stroke-linejoin:round;stroke-miterlimit:4;stroke-dasharray:none;stroke-opacity:1"
           d="m 7187.8513,-1021.4271 c -1.6644,-1.7463 -4.2586,-5.75 -5.3871,-8.3143 -0.5965,-1.3553 -0.6166,-1.5112 -0.2107,-1.63 1.5431,-0.4518 3.8795,1.236 5.4001,3.9011 1.326,2.3241 1.7448,4.717 1.0811,6.1776 l -0.2438,0.5366 z"
           id="path7070"
           inkscape:connector-curvature="0" />
        <path
           style="opacity:1;fill:#ffffff;fill-opacity:1;fill-rule:evenodd;stroke:#0f0c0a;stroke-width:0.285443;stroke-linecap:round;stroke-linejoin:round;stroke-miterlimit:4;stroke-dasharray:none;stroke-opacity:1"
           d="m 7212.6039,-1021.208 c -0.7171,-1.7923 0.2581,-5.0895 2.3162,-7.8306 0.8297,-1.1052 2.988,-3.1989 3.7815,-3.6684 0.329,-0.1947 0.7547,-0.3612 0.946,-0.37 0.3264,-0.015 0.3456,0 0.3131,0.301 -0.1303,1.1961 -2.3951,5.9764 -4.007,8.4577 -1.1752,1.8089 -2.68,3.5416 -3.0759,3.5416 -0.056,0 -0.179,-0.1941 -0.2739,-0.4313 z"
           id="path7072"
           inkscape:connector-curvature="0" />
        <path
           style="opacity:1;fill:#ffffff;fill-opacity:1;fill-rule:evenodd;stroke:#0f0c0a;stroke-width:0.285443;stroke-linecap:round;stroke-linejoin:round;stroke-miterlimit:4;stroke-dasharray:none;stroke-opacity:1"
           d="m 7184.423,-986.22407 c -0.7458,-0.78706 -1.6325,-2.52182 -2.2761,-4.45313 -0.4849,-1.45528 -0.9642,-3.62157 -1.0225,-4.62113 l -0.034,-0.58146 0.4535,-0.0327 c 0.2495,-0.018 0.717,0.0439 1.0389,0.13746 1.1061,0.32154 1.8409,1.30881 2.2222,2.98585 0.3321,1.46032 0.2968,6.36667 -0.048,6.71175 -0.063,0.0629 -0.1868,0.008 -0.3338,-0.14663 z"
           id="path7074"
           inkscape:connector-curvature="0" />
        <path
           style="opacity:1;fill:#ffffff;fill-opacity:1;fill-rule:evenodd;stroke:#0f0c0a;stroke-width:0.285443;stroke-linecap:round;stroke-linejoin:round;stroke-miterlimit:4;stroke-dasharray:none;stroke-opacity:1"
           d="m 7215.0649,-986.92007 c -0.097,-0.47939 -0.1441,-1.51165 -0.1441,-3.14515 0,-2.00087 0.035,-2.58134 0.1973,-3.2773 0.4296,-1.84156 1.0629,-2.40149 2.891,-2.55603 l 0.7704,-0.0651 v 0.50007 c 0,1.32243 -1.9295,6.83917 -3.0197,8.63387 -0.2082,0.3428 -0.4173,0.62327 -0.4647,0.62327 -0.047,0 -0.1509,-0.32112 -0.2302,-0.71361 z"
           id="path7076"
           inkscape:connector-curvature="0" />
        <path
           style="opacity:0.444;fill:#ffff8b;fill-opacity:1;fill-rule:evenodd;stroke:#ffff8b;stroke-width:0.100919;stroke-linecap:round;stroke-linejoin:round;stroke-miterlimit:4;stroke-dasharray:none;stroke-opacity:1"
           d="m 7191.4543,-1134.2927 c -0.4899,-0.5293 -0.867,-1.4442 -1.0647,-2.5832 -0.08,-0.4602 -0.089,-1.7628 -0.015,-2.1678 0.1316,-0.7234 0.3763,-1.2622 0.7234,-1.5933 l 0.2258,-0.2153 0.07,0.136 c 0.038,0.075 0.1114,0.301 0.1623,0.5025 0.2102,0.833 0.2941,1.8426 0.2976,3.5809 0,1.2816 -0.028,1.7966 -0.1409,2.3505 l -0.045,0.2199 z"
           id="path7083"
           inkscape:connector-curvature="0" />
        <path
           style="opacity:0.444;fill:#ffff8b;fill-opacity:1;fill-rule:evenodd;stroke:#ffff8b;stroke-width:0.100919;stroke-linecap:round;stroke-linejoin:round;stroke-miterlimit:4;stroke-dasharray:none;stroke-opacity:1"
           d="m 7209.9318,-1134.343 c -0.081,-0.4078 -0.1159,-0.7983 -0.1558,-1.7172 -0.059,-1.3534 5e-4,-2.8314 0.1504,-3.7498 0.073,-0.4473 0.219,-1.0279 0.2585,-1.0279 0.014,0 0.094,0.1136 0.1788,0.2523 0.6018,0.9851 0.9096,2.1367 0.9096,3.4035 0,1.2725 -0.2443,2.0571 -0.8141,2.614 -0.1534,0.15 -0.326,0.3062 -0.3837,0.3473 l -0.1049,0.075 z"
           id="path7085"
           inkscape:connector-curvature="0" />
      </g>
    </g>
  </g>
</svg>
