<?xml version="1.0" encoding="UTF-8" standalone="no"?>
<!-- Created with Inkscape (http://www.inkscape.org/) -->

<svg
   width="53.327442mm"
   height="72.930588mm"
   viewBox="0 0 53.327442 72.930588"
   version="1.1"
   id="svg1"
   inkscape:version="1.3.2 (091e20e, 2023-11-25, custom)"
   sodipodi:docname="hippo_014_all.svg"
   xml:space="preserve"
   xmlns:inkscape="http://www.inkscape.org/namespaces/inkscape"
   xmlns:sodipodi="http://sodipodi.sourceforge.net/DTD/sodipodi-0.dtd"
   xmlns="http://www.w3.org/2000/svg"
   xmlns:svg="http://www.w3.org/2000/svg"><sodipodi:namedview
     id="namedview1"
     pagecolor="#5e5e5e"
     bordercolor="#000000"
     borderopacity="0.25"
     inkscape:showpageshadow="2"
     inkscape:pageopacity="0.0"
     inkscape:pagecheckerboard="0"
     inkscape:deskcolor="#d1d1d1"
     inkscape:document-units="mm"
     inkscape:zoom="4"
     inkscape:cx="226.125"
     inkscape:cy="180.875"
     inkscape:window-width="3840"
     inkscape:window-height="2066"
     inkscape:window-x="-11"
     inkscape:window-y="-11"
     inkscape:window-maximized="1"
     inkscape:current-layer="layer1" /><defs
     id="defs1" /><g
     inkscape:label="Layer 1"
     inkscape:groupmode="layer"
     id="layer1"
     transform="translate(-51.473855,-3.7019776)"><g
       id="g6"
       inkscape:export-filename="hippo_014.svg"
       inkscape:export-xdpi="96"
       inkscape:export-ydpi="96"><path
         inkscape:connector-curvature="0"
         id="path5120"
         d="m 75.280563,31.097649 c -0.642612,-0.205705 -1.015955,-0.810443 -1.015184,-1.64434 0,-0.573605 0.103905,-0.896833 0.387082,-1.21027 0.306768,-0.339561 0.790489,-0.511868 1.43657,-0.511718 0.576865,1.34e-4 0.92719,0.110309 1.248937,0.392802 0.693244,0.608687 0.767444,1.909359 0.143362,2.513261 -0.496661,0.480601 -1.488966,0.688127 -2.200767,0.460265 z"
         style="fill:#ffffff;fill-opacity:1;fill-rule:evenodd;stroke:#ffffff;stroke-width:0.0825979;stroke-linecap:round;stroke-linejoin:round;stroke-miterlimit:4;stroke-dasharray:none;stroke-opacity:1" /><path
         inkscape:connector-curvature="0"
         id="path5122"
         d="m 56.295402,31.136872 c -0.770725,-0.203727 -1.241099,-0.743814 -1.269073,-1.457188 -0.0446,-1.136798 0.759102,-1.929621 1.964273,-1.937649 0.903676,-0.0062 1.408835,0.289607 1.665057,0.974382 0.274688,0.734177 0.153722,1.537989 -0.302827,2.012188 -0.464172,0.48214 -1.214626,0.631053 -2.05743,0.408267 z"
         style="fill:#ffffff;fill-opacity:1;fill-rule:evenodd;stroke:#ffffff;stroke-width:0.0834239;stroke-linecap:round;stroke-linejoin:round;stroke-miterlimit:4;stroke-dasharray:none;stroke-opacity:1" /><path
         inkscape:connector-curvature="0"
         id="path5106"
         d="M 87.07308,36.044608 C 86.426119,35.935669 86.039462,35.746666 84.918747,34.991587 83.589411,34.095928 82.975814,33.769932 82.42906,33.66886 81.903812,33.571769 81.416457,33.296298 81.051228,32.890088 80.683271,32.480823 80.68676,32.561066 80.92226,29.941469 c 0.242915,-2.702403 0.30564,-3.002883 0.881345,-4.221476 1.693721,-3.585257 4.780703,-7.116494 7.247929,-8.291023 0.966586,-0.460147 1.712584,-0.619029 2.944494,-0.627133 1.196989,-0.0079 1.826095,0.09586 2.802087,0.462054 1.954137,0.733193 3.443899,2.238549 3.919339,3.960302 0.148351,0.537346 0.210558,3.336076 0.098,4.410987 -0.170811,1.631274 -0.562319,2.980078 -1.291662,4.44997 -1.184831,2.387782 -2.368898,3.64551 -4.332385,4.601899 -2.107829,1.026696 -4.685975,1.598742 -6.118327,1.357559 z"
         style="fill:#fefefe;fill-opacity:1;fill-rule:evenodd;stroke:#fefefe;stroke-width:0.0817801;stroke-linecap:round;stroke-linejoin:round;stroke-miterlimit:4;stroke-dasharray:none;stroke-opacity:1" /><path
         inkscape:connector-curvature="0"
         id="path5141"
         d="M 92.820096,40.474747 C 92.573244,40.426903 92.27827,40.294715 91.93741,40.079194 91.145842,39.578722 88.667959,37.63661 88.025351,37.01303 c -0.183452,-0.178041 -0.198945,-0.199921 -0.16518,-0.233682 0.08635,-0.08635 0.57041,-0.209767 1.119065,-0.285336 0.867922,-0.119536 1.342976,-0.215971 2.009174,-0.407855 2.319911,-0.668206 4.430216,-2.009904 5.587985,-3.552733 0.237379,-0.316321 0.698938,-1.092476 0.99672,-1.676079 0.132198,-0.259036 0.243747,-0.475165 0.247931,-0.480286 0.01322,-0.01614 0.823362,0.531481 1.016206,0.686844 0.807302,0.65036 1.290928,1.418934 1.465128,2.328342 0.0554,0.289411 0.0553,0.913435 0,1.239494 -0.19948,1.16963 -0.777905,2.256992 -1.716406,3.226571 -1.262626,1.304447 -2.966703,2.204611 -4.823221,2.547831 -0.315056,0.05825 -0.809892,0.09427 -0.942305,0.0686 z"
         style="fill:#fefefe;fill-opacity:1;fill-rule:evenodd;stroke:#fefefe;stroke-width:0.0286273;stroke-linecap:round;stroke-linejoin:round;stroke-miterlimit:4;stroke-dasharray:none;stroke-opacity:1" /><path
         inkscape:connector-curvature="0"
         id="path5139"
         d="m 102.29,50.014435 -0.16764,-0.1366 0.12372,-0.232005 c 0.26305,-0.4933 1.15359,-1.330154 1.41547,-1.330154 0.11245,0 0.003,0.687358 -0.17394,1.079607 -0.20763,0.46362 -0.43412,0.675831 -0.76925,0.720784 -0.19775,0.02652 -0.30119,0.0019 -0.42836,-0.101632 z"
         style="fill:#ffffff;fill-opacity:1;fill-rule:evenodd;stroke:#ffffff;stroke-width:0.0809704;stroke-linecap:round;stroke-linejoin:round;stroke-miterlimit:4;stroke-dasharray:none;stroke-opacity:1" /><path
         inkscape:connector-curvature="0"
         id="path5130"
         d="m 92.758189,58.064045 c -0.265029,-0.265352 -0.549883,-0.847425 -0.6009,-1.227953 -0.04562,-0.340066 0.05377,-0.459703 0.691345,-0.832059 1.518232,-0.886695 4.178904,-3.796868 5.316086,-5.814608 l 0.316324,-0.561259 1.182719,0.304831 c 0.650517,0.167655 1.275667,0.333301 1.389247,0.368098 0.11356,0.0348 0.33749,0.097 0.4976,0.138241 l 0.29107,0.07496 -1.874205,1.840654 c -4.372707,4.294393 -5.508511,5.316077 -6.431598,5.785437 -0.39069,0.19866 -0.515219,0.186433 -0.777688,-0.07635 z"
         style="fill:#fffd00;fill-opacity:1;fill-rule:evenodd;stroke:#fffd00;stroke-width:0.0825979;stroke-linecap:round;stroke-linejoin:round;stroke-miterlimit:4;stroke-dasharray:none;stroke-opacity:1" /><path
         inkscape:connector-curvature="0"
         id="path5136"
         d="M 87.116093,64.510207 C 86.890604,64.264108 86.708858,63.855966 86.435314,62.981453 86.104869,61.92506 85.928717,61.856802 85.188963,61.574695 84.437751,61.288227 83.909015,60.8719 83.34369,60.420007 c -0.51554,-0.412123 -0.532333,-0.405864 0.670083,-0.24976 1.714725,0.222613 2.354569,0.451474 3.734079,1.335632 0.534177,0.342377 1.010855,0.670225 1.059278,0.728553 0.119794,0.14436 0.0032,0.564308 -0.368684,1.329092 -0.497585,1.023021 -0.953412,1.34936 -1.322353,0.946683 z"
         style="fill:#fef5e4;fill-opacity:1;fill-rule:evenodd;stroke:none;stroke-width:0.0851007;stroke-linecap:round;stroke-linejoin:round;stroke-miterlimit:4;stroke-dasharray:none;stroke-opacity:1"
         sodipodi:nodetypes="ssssssccs" /><path
         inkscape:connector-curvature="0"
         id="path5134"
         d="m 84.503494,59.411432 c -1.31932,-0.0823 -2.072517,-0.19322 -2.468405,-0.363537 -0.271841,-0.116933 -0.321371,-0.161946 -0.232778,-0.21152 0.06189,-0.03464 0.902406,-0.139096 1.867819,-0.232129 2.140794,-0.206307 3.442069,-0.396159 4.630074,-0.675522 1.031876,-0.242651 1.318241,-0.258802 1.532752,-0.08645 0.193035,0.155082 0.640837,0.860382 0.702648,1.106657 0.04139,0.164831 0.01702,0.199234 -0.20793,0.293206 -0.140132,0.05855 -0.550546,0.137619 -0.911968,0.175696 -0.764603,0.08055 -3.57707,0.07688 -4.912212,-0.0067 z"
         style="fill:#fffd00;fill-opacity:1;fill-rule:evenodd;stroke:#fffd00;stroke-width:0.0851007;stroke-linecap:round;stroke-linejoin:round;stroke-miterlimit:4;stroke-dasharray:none;stroke-opacity:1" /><path
         inkscape:connector-curvature="0"
         id="path5132"
         d="m 91.647685,61.295586 c 0.0295,-1.66394 -0.02612,-1.911382 -0.605096,-2.680464 -0.212886,-0.282851 -0.612442,-0.813758 -0.8879,-1.179791 -0.983785,-1.30725 -2.027804,-3.220069 -2.027804,-3.71527 0,-0.167809 0.05062,-0.238626 0.231816,-0.32425 0.12748,-0.06025 0.520489,-0.310858 0.873362,-0.556901 0.713523,-0.497527 1.041318,-0.671243 1.26662,-0.671243 0.242756,0 0.64766,0.42967 0.885685,2.08321 0.254714,1.769299 0.440094,2.936048 1.507285,4.306369 0.76045,0.976458 1.072756,1.459469 1.073709,1.660651 0,0.220763 -0.56625,0.868597 -1.511681,1.726228 l -0.83095,0.753812 z"
         style="fill:#fef5e4;fill-opacity:1;fill-rule:evenodd;stroke:none;stroke-width:0.0881387;stroke-linecap:round;stroke-linejoin:round;stroke-miterlimit:4;stroke-dasharray:none;stroke-opacity:1"
         sodipodi:nodetypes="ccssssscscccc" /><path
         inkscape:connector-curvature="0"
         id="path5126"
         d="m 77.518122,55.929599 c -1.434697,-0.117531 -1.992135,-0.210918 -2.264765,-0.379411 -0.340454,-0.210418 -0.566754,-0.72685 -0.888326,-2.027229 l -0.297297,-1.202136 1.464509,-0.04205 c 1.462395,-0.04199 1.793391,-0.07831 3.167718,-0.347606 4.609117,-0.903127 8.094206,-2.473349 10.949389,-4.933289 0.665863,-0.573694 2.256061,-2.171429 3.247361,-3.262766 l 0.599901,-0.660438 0.220183,0.208559 c 0.254971,0.241483 0.909265,1.215186 1.040297,1.54813 0.123272,0.313177 0.06253,0.655271 -0.237397,1.337432 -0.618004,1.4056 -1.878319,3.351788 -2.784747,4.300234 -2.253391,2.357836 -5.971178,4.534807 -8.898552,5.210604 -1.612945,0.372354 -3.018109,0.438399 -5.318274,0.249967 z"
         style="fill:#fffd00;fill-opacity:1;fill-rule:evenodd;stroke:none;stroke-width:0.0834239;stroke-linecap:round;stroke-linejoin:round;stroke-miterlimit:4;stroke-dasharray:none;stroke-opacity:1" /><path
         inkscape:connector-curvature="0"
         id="path5128"
         d="m 68.684392,51.601274 c -0.04315,-0.08065 -0.100121,-0.407758 -0.126602,-0.726902 -0.04657,-0.561878 -0.05411,-0.580955 -0.237316,-0.602138 -0.10405,-0.01203 -0.350304,0.05977 -0.547255,0.159563 -0.196925,0.0998 -0.406981,0.18144 -0.466779,0.18144 -0.17976,0 -0.12229,-0.229425 0.140161,-0.559587 0.136134,-0.171258 0.247533,-0.324943 0.247533,-0.341518 0,-0.128334 -0.197749,-0.330217 -0.479999,-0.490061 -0.184556,-0.104523 -0.410584,-0.236022 -0.502322,-0.29224 l -0.166741,-0.102206 0.197548,-0.206204 c 0.32429,-0.338487 0.879345,-0.506487 1.644458,-0.497744 0.620527,0.0073 0.660779,-0.0013 0.716093,-0.152074 0.03225,-0.08777 0.165608,-0.486695 0.296378,-0.88649 0.130801,-0.399796 0.260891,-0.726904 0.289116,-0.726904 0.101358,0 0.851433,0.964862 1.025295,1.318896 0.24038,0.489535 0.361593,1.860122 0.254594,2.878634 -0.104818,0.997527 -0.240725,1.115238 -0.7214,0.624847 -0.152925,-0.156018 -0.326419,-0.283671 -0.385535,-0.283671 -0.05908,0 -0.211931,0.117969 -0.339664,0.262152 -0.554349,0.625864 -0.698537,0.701989 -0.837563,0.442214 z"
         style="fill:#fef5e4;fill-opacity:1;fill-rule:evenodd;stroke:none;stroke-width:0.0851007;stroke-linecap:round;stroke-linejoin:round;stroke-miterlimit:4;stroke-dasharray:none;stroke-opacity:1" /><path
         inkscape:connector-curvature="0"
         id="path5114"
         d="m 78.10785,49.603958 c -0.09584,-0.09583 -0.230721,-0.353376 -0.299741,-0.572336 -0.15778,-0.500537 -0.276449,-0.567891 -0.885704,-0.502647 l -0.470672,0.0504 0.0502,-0.575357 c 0.04761,-0.546073 0.04185,-0.581186 -0.113315,-0.689876 -0.08993,-0.06297 -0.296361,-0.114514 -0.458781,-0.114514 -0.385322,0 -0.563012,-0.173055 -0.430704,-0.419482 0.13036,-0.242816 0.620744,-0.549812 1.170374,-0.732725 0.626964,-0.208632 1.081877,-0.630699 1.414624,-1.312422 0.350168,-0.717425 0.472823,-1.24551 0.508148,-2.18774 0.03639,-0.970152 0.07779,-1.039225 0.795369,-1.326485 0.686352,-0.274768 1.025145,-0.305581 1.202951,-0.109407 0.122509,0.135189 0.146463,0.279077 0.166775,1.002159 0.02959,1.053703 -0.09111,1.732635 -0.573068,3.223203 -0.306446,0.947702 -0.354782,1.173001 -0.329282,1.534265 0.0255,0.360809 0.05925,0.445566 0.22823,0.57301 0.587538,0.443105 0.686211,0.582365 0.686211,0.968357 0,0.458486 -0.05471,0.483982 -0.794997,0.370656 -0.682542,-0.104481 -0.807831,-0.05498 -1.008414,0.398474 -0.266653,0.602836 -0.542213,0.738472 -0.858201,0.422461 z"
         style="fill:#fef5e4;fill-opacity:1;fill-rule:evenodd;stroke:none;stroke-width:0.0859517;stroke-linecap:round;stroke-linejoin:round;stroke-miterlimit:4;stroke-dasharray:none;stroke-opacity:1" /><path
         inkscape:connector-curvature="0"
         id="path5116"
         d="m 74.194664,48.548059 c -1.004299,-0.182459 -1.699434,-0.580106 -2.71971,-1.555816 -0.680109,-0.650406 -1.101768,-1.159518 -1.101768,-1.330257 0,-0.145764 0.340655,-0.237016 1.707577,-0.457384 0.686932,-0.110729 2.078334,-0.356438 3.092003,-0.545987 1.01367,-0.18955 2.097622,-0.365376 2.408788,-0.39073 0.551501,-0.04494 0.563632,-0.04215 0.482078,0.110232 -0.136017,0.254144 -0.824738,1.178012 -1.04323,1.22328 -0.409738,0.0849 -0.876693,0.02409 -1.32839,0.442304 -0.546829,0.506259 -0.746522,0.863394 -0.639752,1.144184 0.09924,0.261067 0.547322,0.58785 0.880056,0.641849 0.494176,0.08019 0.543632,0.383609 0.09991,0.613061 -0.277255,0.143362 -1.304103,0.202192 -1.837572,0.105259 z"
         style="fill:#fffd00;fill-opacity:1;fill-rule:evenodd;stroke:#fffd00;stroke-width:0.0921519;stroke-linecap:round;stroke-linejoin:round;stroke-miterlimit:4;stroke-dasharray:none;stroke-opacity:1"
         sodipodi:nodetypes="ssssssssccssss" /><path
         inkscape:connector-curvature="0"
         id="path5118"
         d="m 80.471193,47.289513 c -0.404298,-0.204579 -0.343858,-0.813056 0.263278,-2.650968 l 0.335601,-1.015846 1.76167,-0.881202 c 3.08323,-1.54222 4.022625,-2.159716 6.106245,-4.013857 0.148378,-0.132036 0.149951,-0.130764 0.814439,0.661114 0.765458,0.912179 1.178462,1.506503 1.178462,1.695855 0,0.734713 -4.232566,4.151165 -6.662292,5.377693 -1.322151,0.667415 -3.273262,1.092436 -3.797403,0.827211 z"
         style="fill:#fffd00;fill-opacity:1;fill-rule:evenodd;stroke:#fffd00;stroke-width:0.0842581;stroke-linecap:round;stroke-linejoin:round;stroke-miterlimit:4;stroke-dasharray:none;stroke-opacity:1" /><path
         inkscape:connector-curvature="0"
         id="path5112"
         d="m 70.533699,42.059071 c -1.993882,-0.08205 -2.559475,-0.276202 -3.219086,-1.105064 -0.233699,-0.293671 -0.597322,-1.135353 -0.597322,-1.382653 0,-0.216438 0.112011,-0.212998 1.241069,0.03812 1.588498,0.353314 3.027664,0.460728 4.653917,0.347346 3.856397,-0.268869 5.782592,-1.011428 10.086872,-3.888573 l 1.130038,-0.755369 0.83173,0.456193 c 1.496277,0.820695 1.763699,1.020351 1.700319,1.269549 -0.164514,0.647045 -2.939261,2.469073 -5.197265,3.41277 -1.091956,0.456365 -1.461383,0.562649 -3.37343,0.970498 -2.234996,0.476739 -2.898534,0.567878 -4.462687,0.61298 -0.693442,0.02 -1.352781,0.04403 -1.465229,0.05341 -0.112447,0.0094 -0.710478,-0.0037 -1.328926,-0.02921 z"
         style="fill:#fffd00;fill-opacity:1;fill-rule:evenodd;stroke:#fffd00;stroke-width:0.0817801;stroke-linecap:round;stroke-linejoin:round;stroke-miterlimit:4;stroke-dasharray:none;stroke-opacity:1" /><path
         inkscape:connector-curvature="0"
         id="path5100"
         d="m 52.365761,25.58442 c 0,-0.222752 0.09469,-0.607959 0.254846,-1.041479 0.09642,-0.261011 0.216403,-0.368882 1.079553,-0.970836 2.712429,-1.891665 4.390774,-3.166533 6.890372,-3.976793 2.638901,-0.85545 4.80314,-1.102744 7.562083,-1.099489 3.569599,0.004 6.742734,0.896077 9.301916,2.141789 1.346147,0.65532 2.475098,1.520613 2.778575,2.129843 0.169069,0.339222 0.302815,1.071827 0.39026,2.137039 0.04294,0.522711 0.03598,0.606981 -0.04471,0.543719 -0.05255,-0.0412 0.05352,0.589412 -0.249317,0.350335 -1.58967,-1.254787 -3.811614,-3.047868 -6.1672,-3.810291 -2.472954,-0.800471 -4.356946,-1.062223 -7.651855,-1.063043 -4.428199,0 -6.85374,0.484743 -9.911742,1.985645 -1.20134,0.58965 -2.105236,1.174194 -3.125152,2.021046 -0.401241,0.33311 -0.814599,0.660559 -0.918713,0.727684 L 52.36539,25.781614 V 25.58442 Z"
         style="fill:#fffd00;fill-opacity:1;fill-rule:evenodd;stroke:#fffd00;stroke-width:0.0825979;stroke-linecap:round;stroke-linejoin:round;stroke-miterlimit:4;stroke-dasharray:none;stroke-opacity:1"
         sodipodi:nodetypes="csccccccscccccsccc"
         inkscape:export-filename="..\..\C0_イラスト\hippo\hippo_014"
         inkscape:export-xdpi="96"
         inkscape:export-ydpi="96" /><path
         inkscape:connector-curvature="0"
         id="path5102"
         d="m 53.04484,21.689013 c 0.237014,-0.760651 0.524616,-1.480688 0.72308,-1.810279 0.689637,-1.145381 3.055051,-3.845348 4.585216,-5.067115 1.017296,-0.812244 1.604989,-1.145593 2.602865,-1.476322 2.782173,-0.92202 6.136653,-0.818594 10.55702,0.07644 3.105494,0.628835 5.053674,1.57361 6.16712,2.990903 0.321284,0.40894 1.233223,1.922859 1.186471,1.969664 -0.01508,0.01455 -0.693208,0.02172 -1.567789,-0.409522 -2.220145,-1.094872 -3.715913,-1.890607 -5.740955,-2.112116 -1.82999,-0.200236 -6.227154,-0.232833 -8.053308,-0.05974 -1.162685,0.110199 -3.195664,0.695272 -4.852643,1.396498 -0.7053,0.298503 -1.578372,0.979672 -3.192965,2.491105 -1.397424,1.308047 -2.176833,2.008134 -2.337277,2.099177 -0.111866,0.0635 -0.12102,0.05294 -0.07684,-0.08869 z"
         style="fill:#fffd00;fill-opacity:1;fill-rule:evenodd;stroke:#fffd00;stroke-width:0.0825979;stroke-linecap:round;stroke-linejoin:round;stroke-miterlimit:4;stroke-dasharray:none;stroke-opacity:1"
         sodipodi:nodetypes="sccccscccscccss" /><path
         inkscape:connector-curvature="0"
         id="path4"
         d="M 75.380441,8.813614 C 74.843617,8.7317211 74.576902,8.5973091 74.280121,8.2590805 73.954152,7.8876176 73.857682,7.5332221 73.897992,6.8551152 c 0.08298,-1.3965353 1.031095,-2.3354538 2.615229,-2.5898484 1.09832,-0.1763836 1.803932,0.095182 2.192395,0.843782 0.634691,1.2230754 0.220344,2.8118274 -0.876702,3.3615906 -0.628963,0.3151867 -1.672423,0.461353 -2.448473,0.3429746 z"
         style="fill:#ffffff;fill-opacity:1;fill-rule:evenodd;stroke:none;stroke-width:0.0909521;stroke-linecap:round;stroke-linejoin:round;stroke-miterlimit:4;stroke-dasharray:none;stroke-opacity:1" /><path
         inkscape:connector-curvature="0"
         id="path3"
         d="M 55.777648,8.3764425 C 55.330086,8.2820934 54.776359,7.9483873 54.594068,7.6631534 54.330291,7.2504228 54.262655,6.8879131 54.292102,6.0447691 c 0.03427,-0.9815443 0.186691,-1.3163951 0.727584,-1.598212 0.313558,-0.1633632 0.433037,-0.1827143 1.128213,-0.1827143 0.710041,0 0.812652,0.017513 1.182199,0.2016191 0.65143,0.3245628 1.160987,1.0948409 1.327004,2.0059258 0.125316,0.6877796 -0.111129,1.5718066 -0.487331,1.8221556 -0.14303,0.095197 -0.376542,0.1225803 -1.135294,0.1331602 -0.525352,0.00732 -1.090925,-0.015282 -1.256829,-0.050261 z"
         style="fill:#ffffff;fill-opacity:1;fill-rule:evenodd;stroke:none;stroke-width:0.085232;stroke-linecap:round;stroke-linejoin:round;stroke-miterlimit:4;stroke-dasharray:none;stroke-opacity:1" /><path
         inkscape:connector-curvature="0"
         id="path5098"
         d="m 60.903948,37.08042 c -1.664838,-0.20823 -3.633814,-0.8217 -5.245524,-1.723012 -1.401445,-0.783736 -2.325472,-1.22818 -2.597384,-2.237987 -0.178091,-0.661424 -0.784487,-7.079587 -0.666721,-7.16233 0.02871,-0.02017 0.789696,-0.582745 1.473829,-1.06448 1.537229,-1.082461 4.349816,-2.710048 6.212298,-3.253392 1.168479,-0.34088 1.867839,-0.316302 5.001061,-0.392458 4.10382,-0.09975 6.744652,0.06051 8.616817,0.694123 1.719236,0.58185 4.895348,1.941506 5.617687,3.028866 l 1.055356,1.004746 0.0528,3.65176 c 0.04738,3.276832 -0.263313,3.711163 -0.871802,4.901329 -0.770573,1.507153 -1.664229,1.961636 -4.236799,2.397764 -2.089389,0.35421 -12.209569,0.430489 -14.411616,0.155071 z m 5.52614,-3.626272 c 0.169016,-0.273515 -0.26117,-0.533899 -0.888021,-0.537484 -0.550624,-0.0031 -1.276429,-0.757881 -1.276429,-1.327283 0,-0.186183 0.189415,-0.554319 0.420952,-0.81808 0.392086,-0.446683 0.469027,-0.464492 1.122362,-0.259725 0.863018,0.270489 1.133422,0.06033 0.540703,-0.420211 -0.622194,-0.50441 -1.724581,-0.473235 -2.223347,0.06288 -0.84365,0.90677 -0.6223,2.915733 0.364861,3.311918 0.605446,0.242984 1.785831,0.235671 1.938919,-0.01201 z m -7.064613,-1.420841 c 1.222084,-0.912423 1.623351,-2.266787 1.087358,-3.670241 -0.939085,-2.458969 -3.983381,-3.133651 -5.75392,-1.27519 -1.501008,1.575543 -0.974593,4.16275 1.039469,5.10884 0.981974,0.461274 2.906527,0.374569 3.627093,-0.163409 z m 18.270193,0.01962 c 1.215919,-0.631008 1.503522,-1.181804 1.503522,-2.879552 0,-1.292093 -0.05382,-1.525182 -0.449157,-1.946004 -1.087464,-1.157548 -3.965628,-1.433919 -4.988586,-0.479021 -0.601848,0.561808 -1.130512,1.561546 -1.298099,2.454755 -0.194099,1.03472 0.624813,2.403826 1.87153,3.128834 0.559858,0.325584 2.507297,0.163908 3.36079,-0.279012 z"
         style="fill:#fef5e4;fill-opacity:1;fill-rule:evenodd;stroke:none;stroke-width:0.224506;stroke-linecap:round;stroke-linejoin:round;stroke-miterlimit:4;stroke-dasharray:none;stroke-opacity:1"
         sodipodi:nodetypes="ssssssssscscssssscsccscssssssssscsss" /><path
         sodipodi:nodetypes="ccccccccscccccccsccccscccccsccscccccccsccssccccccccccccsccscccccscscsccccccccccccccccccccccscccscccccsccccscsccccccsscccccscccccccscsccscsccsscsccsccscccscccccscssccsccccccccccccccccccccccccccccccscccsccccsccsccccccccccccccccccccccccscccccccccccccccccccccscssccccccsscscccccccssscsscssssc"
         style="fill:#050405;stroke-width:0.267229"
         d="M 86.425758,64.53106 C 86.21634,64.200384 85.964986,63.545646 85.86717,63.07609 85.729851,62.416907 85.489186,62.156345 84.8109,61.932481 c -0.483156,-0.159464 -1.346888,-0.68826 -1.91942,-1.175146 -0.572558,-0.48686 -1.702382,-1.091856 -2.510763,-1.344507 -2.428611,-0.758957 -4.585653,-2.053325 -5.387076,-3.232653 -0.39952,-0.587904 -0.930671,-1.910688 -1.180306,-2.939521 -0.509164,-2.098357 -0.714719,-2.571432 -1.519317,-3.496812 -0.812032,-0.933926 -0.999093,-0.807509 -0.999093,0.675137 0,1.435788 -0.256487,1.786705 -1.010814,1.38303 -0.373433,-0.199866 -0.561604,-0.142028 -0.804809,0.247412 -0.4014,0.642699 -1.025181,0.418438 -1.242299,-0.44667 -0.118533,-0.472175 -0.299111,-0.622697 -0.625369,-0.521202 -0.252333,0.07847 -0.639127,0.02884 -0.859604,-0.110279 -0.324327,-0.204681 -0.339487,-0.352001 -0.0794,-0.771842 0.2599,-0.419444 0.247094,-0.54737 -0.06681,-0.667835 -0.908712,-0.348694 -0.08599,-1.569482 1.288997,-1.912646 1.457616,-0.363802 1.621922,-1.594036 0.444791,-3.33047 -1.198404,-1.767813 -2.29153,-4.007881 -2.490867,-5.104368 L 65.673826,38.221793 62.805743,38.062726 C 57.096087,37.746046 53.325325,35.91124 52.4708,33.033764 51.030065,28.182258 52.220796,20.250923 55.013764,16.095801 c 1.039918,-1.547125 3.477392,-3.763222 4.898601,-4.453679 1.457537,-0.70813 1.563767,-1.264179 0.453549,-2.3743968 C 59.607433,8.5092442 59.574043,8.5021798 58.732932,8.9217825 57.539582,9.5171215 55.160449,9.2638358 54.293277,8.4491308 53.7993,7.9850781 53.657801,7.5730425 53.657801,6.5986086 c 0,-2.2856031 1.720611,-3.4454306 3.813862,-2.5707975 0.986843,0.4123267 1.467697,1.1054292 2.06891,2.9821981 0.188357,0.5879042 0.631613,1.3395854 0.985017,1.6703675 0.353404,0.3308085 0.764566,0.9514152 0.913686,1.3791933 0.253126,0.726149 0.327527,0.760598 1.121754,0.51943 1.375568,-0.417645 5.621972,-0.487733 7.208493,-0.11893 l 1.449784,0.337026 0.319405,-0.8833377 C 71.714396,9.427904 72.152837,8.798619 72.51304,8.5152767 72.873244,8.2319608 73.244693,7.5969609 73.338514,7.1042273 73.634133,5.5516259 74.218941,4.7196965 75.387897,4.1889953 76.748596,3.5712197 77.238578,3.5511642 78.2459,4.0720494 c 0.524986,0.271489 0.879819,0.7418123 1.090665,1.4455511 0.381635,1.2737306 0.161714,2.2655476 -0.691541,3.1188024 -0.528214,0.5282142 -0.915935,0.6450542 -2.140241,0.6450542 -0.837115,0 -1.852904,-0.1849702 -2.307908,-0.4202642 -0.753507,-0.3896518 -0.851879,-0.3848364 -1.350221,0.066172 -0.295646,0.2675467 -0.707205,0.8145992 -0.914586,1.2156551 -0.373459,0.722154 -0.364278,0.735674 0.951812,1.402582 2.199852,1.114743 4.650211,3.623972 5.831682,5.971779 1.177395,2.339683 1.554638,3.572748 2.017765,6.595295 l 0.327581,2.137833 1.196445,-2.249514 c 1.473492,-2.770293 4.286171,-5.757968 6.393127,-6.790875 3.437705,-1.685211 8.026268,-0.392615 9.732143,2.741612 1.693467,3.1115 1.046162,8.011584 -1.618351,12.251002 -1.323842,2.106348 -4.521491,3.891836 -7.62889,4.259871 -0.699743,0.08287 -1.272249,0.23704 -1.272249,0.342556 0,0.105543 1.048041,0.996871 2.329022,1.980751 2.209561,1.697143 2.384319,1.78009 3.407171,1.617688 2.942273,-0.46728 5.622608,-2.52468 6.421094,-4.92879 0.7385,-2.2234 -0.218043,-3.794125 -1.902354,-4.82391 -0.489718,-0.299402 -0.63373,-0.490564 -0.370099,-0.491172 0.623755,-0.0026 2.350713,1.218088 2.841603,2.167334 1.30569,2.524945 -1.600919,7.067682 -5.187293,8.107283 -2.757144,0.799253 -2.650146,0.567478 -1.208485,2.617893 0.706967,1.00547 1.766385,2.387891 2.354289,3.072051 0.587904,0.684159 1.313895,1.556835 1.613297,1.939237 0.573934,0.733028 1.970402,1.569535 2.620192,1.569535 0.21188,0 0.98711,-0.541126 1.72273,-1.202531 1.45992,-1.312598 1.92704,-1.478757 1.92704,-0.685457 0,1.082093 -0.63524,2.063486 -3.25509,5.028804 -2.884591,3.264958 -4.142526,4.325355 -6.164736,5.196654 -1.261322,0.543481 -1.513761,0.832961 -1.00211,1.149165 0.550863,0.340466 0.255852,1.71032 -0.613939,2.8507 -0.953188,1.24976 -1.582288,1.530112 -2.229009,0.993378 -0.320913,-0.266356 -0.373671,-0.650478 -0.238204,-1.734555 l 0.173963,-1.392476 -1.018275,0.236353 c -0.560043,0.130016 -1.409091,0.239236 -1.88677,0.242728 -1.089237,0.0079 -1.116489,0.373301 -0.06048,0.810684 0.444421,0.184097 0.912389,0.521176 1.039945,0.749088 0.241538,0.431615 -0.266462,2.238296 -0.815314,2.899648 -0.46347,0.558403 -1.510982,0.42627 -1.935559,-0.244184 z m 1.980512,-1.068917 c 0.470138,-1.032695 0.478049,-1.159959 0.08739,-1.402953 -0.236273,-0.146976 -0.865452,-0.554408 -1.398085,-0.90543 -0.588513,-0.387853 -1.588532,-0.711333 -2.548996,-0.824574 l -1.580568,-0.186373 0.747052,0.595657 c 0.410871,0.327633 1.116885,0.701781 1.568926,0.8314 0.661088,0.1896 0.876379,0.443653 1.10027,1.298363 0.551815,2.106719 1.243012,2.309522 2.024009,0.59391 z m 5.335905,-3.325468 c 0,-0.189362 -0.409813,-0.881168 -0.910696,-1.537335 -1.035976,-1.357233 -1.378611,-2.302642 -1.625626,-4.485957 -0.09536,-0.842804 -0.287682,-1.603005 -0.427382,-1.689339 -0.139673,-0.08636 -0.607827,0.140759 -1.040315,0.504693 -0.432488,0.363908 -0.9389,0.712497 -1.125299,0.774647 -0.399124,0.133033 0.995309,2.934785 2.278856,4.5788 0.713237,0.9135 0.801396,1.221078 0.761841,2.657501 l -0.04479,1.624489 1.066721,-1.041585 c 0.58666,-0.572902 1.066694,-1.196552 1.066694,-1.385914 z m -3.814392,-0.782876 c 0.461804,-0.123798 0.538506,-0.257492 0.342979,-0.59764 -0.661643,-1.150832 -0.638016,-1.142683 -2.161434,-0.74676 -0.796793,0.207062 -2.591117,0.46937 -3.987403,0.582824 -2.398739,0.194971 -2.494465,0.225557 -1.736989,0.555281 0.826611,0.35978 6.401434,0.512233 7.542847,0.206295 z m 4.441216,-1.751356 c 0.463603,-0.320093 2.317697,-2.029195 4.120171,-3.798014 l 3.27729,-3.215984 -1.67172,-0.457597 c -0.919426,-0.251698 -1.68132,-0.436589 -1.693094,-0.410898 -0.88257,1.923547 -3.993568,5.434065 -5.511059,6.218793 -0.622538,0.321945 -0.742871,0.520806 -0.599069,0.99023 0.223281,0.728874 0.631983,1.255421 0.974486,1.255421 0.143008,0 0.639366,-0.261885 1.102995,-0.581951 z M 82.82081,55.661671 c 2.857421,-0.605631 6.568493,-2.764525 8.826923,-5.134954 1.119982,-1.175517 2.900813,-4.295986 2.886499,-5.057907 -0.0095,-0.518848 -1.211792,-2.19837 -1.411129,-1.971569 -3.306286,3.762163 -5.08164,5.193295 -8.293761,6.685545 -2.302987,1.069895 -6.580452,2.122566 -8.62502,2.122566 h -1.712833 l 0.176133,0.734881 c 0.62357,2.601515 0.61468,2.591752 2.506345,2.759789 3.009344,0.267308 3.827568,0.247279 5.646843,-0.138351 z M 70.206324,51.079114 c 0.56851,0.685033 0.792241,0.243497 0.769725,-1.519237 -0.0172,-1.337839 -0.144832,-1.811602 -0.652065,-2.418212 l -0.630793,-0.754407 -0.268076,0.705009 c -0.147399,0.387747 -0.268023,0.814388 -0.268023,0.948134 0,0.133721 -0.330703,0.178568 -0.73488,0.09964 -0.737209,-0.143986 -2.084255,0.597747 -1.536568,0.846085 0.89117,0.404098 1.062011,0.627142 0.732631,0.956495 -0.507285,0.507286 -0.394864,0.811927 0.185129,0.501544 0.732182,-0.391874 0.81923,-0.354991 0.81923,0.346896 0,0.910616 0.320251,1.083627 0.808302,0.436615 0.383328,-0.508212 0.464079,-0.52369 0.775388,-0.148564 z m 33.084766,-1.245631 c 0.3555,-0.454369 0.60381,-1.536568 0.35256,-1.536568 -0.40145,0 -1.64391,1.344268 -1.48304,1.604566 0.2277,0.368379 0.81679,0.332951 1.13048,-0.068 z m -24.375001,-0.75102 c 0.142505,-0.449025 0.3184,-0.51906 0.953321,-0.379624 0.66802,0.146738 0.778536,0.09094 0.778536,-0.393065 0,-0.310251 -0.17108,-0.629709 -0.38018,-0.709957 -0.654076,-0.250984 -0.694743,-0.871246 -0.148114,-2.25806 0.290566,-0.737155 0.528294,-1.937094 0.528294,-2.666523 0,-1.433354 -0.167957,-1.553978 -1.47275,-1.05791 -0.584888,0.222382 -0.695405,0.417009 -0.644949,1.135723 0.09488,1.351651 -0.726281,3.056917 -1.574588,3.269801 -1.304078,0.327316 -1.900978,1.20515 -0.819441,1.20515 0.463735,0 0.541893,0.124063 0.433943,0.688737 -0.115887,0.606266 -0.05906,0.670507 0.474848,0.536522 0.48469,-0.121655 0.64008,-0.01852 0.773668,0.513795 0.202433,0.806582 0.856218,0.875347 1.097412,0.115411 z m -2.876338,-0.98597 c 0.0604,-0.1837 -0.06583,-0.334036 -0.280538,-0.334036 -0.214735,0 -0.535913,-0.175313 -0.71374,-0.389573 -0.261646,-0.315277 -0.193728,-0.519245 0.355971,-1.068917 0.373644,-0.373644 0.846534,-0.679344 1.050898,-0.679344 0.210565,-0.09508 0.589227,-0.240506 0.855239,-0.534458 0.576845,-0.637408 0.486093,-0.644128 -2.042424,-0.15113 -1.081326,0.21082 -2.537222,0.458655 -3.235352,0.55081 -0.698129,0.09213 -1.265528,0.250375 -1.260898,0.351604 0.01693,0.364649 1.314768,1.658065 2.180511,2.172812 0.979249,0.582136 2.909041,0.633544 3.090333,0.08223 z M 84.447786,46.39935 C 86.860072,45.174911 90.816942,41.959456 90.7926,41.243388 90.787,41.080987 90.37858,40.47607 89.884815,39.899119 l -0.897811,-1.04902 -1.296829,1.149086 c -0.713237,0.63201 -2.429748,1.707039 -3.814471,2.388949 l -2.517669,1.239864 -0.513953,1.541754 c -0.658654,1.976067 -0.425662,2.349288 1.268994,2.032688 0.65495,-0.122344 1.705584,-0.483738 2.33471,-0.80309 z m -8.075507,-4.663599 c 0.955358,-0.217884 2.037795,-0.444659 2.405433,-0.503978 2.587123,-0.417354 7.903898,-3.543591 7.393279,-4.347184 -0.07414,-0.116681 -0.669343,-0.501279 -1.322626,-0.854683 l -1.187847,-0.642541 -2.314707,1.540166 c -1.273069,0.84709 -3.183493,1.844993 -4.245372,2.217605 -2.471102,0.867066 -6.258216,1.097174 -8.685424,0.527738 -1.668383,-0.391398 -1.676453,-0.390472 -1.508707,0.173646 0.321628,1.081855 0.921835,1.756384 1.784535,2.005542 1.347973,0.389255 5.757281,0.322501 7.681436,-0.116311 z m -2.292694,-4.911725 c 3.223181,-0.428889 4.166235,-0.788114 4.888998,-1.862111 0.893392,-1.327653 1.129744,-2.498275 1.190519,-5.89616 l 0.05432,-3.039084 -1.003221,-0.867224 c -1.266772,-1.095031 -4.35819,-2.627868 -6.445514,-3.195929 -2.267585,-0.617114 -8.237776,-0.779065 -10.965577,-0.297524 -2.676446,0.47252 -5.660681,1.707383 -7.697417,3.185187 l -1.560301,1.132099 0.152162,3.085147 c 0.220398,4.46868 0.453972,4.914212 3.351504,6.392413 2.096584,1.069578 3.320229,1.404302 5.763233,1.576546 3.515677,0.247835 9.600829,0.142028 12.271294,-0.21336 z M 64.012375,33.13166 c -0.814467,-0.912469 -0.610182,-2.767886 0.361976,-3.288215 0.606743,-0.324723 2.332617,-0.199879 2.373542,0.715366 0,0.144859 -0.180366,0.190394 -0.400843,0.101203 -0.220451,-0.08922 -0.559885,-0.153256 -0.761392,-0.235171 -0.507233,-0.206296 -1.283752,0.421477 -1.283752,1.181942 0,0.860531 0.655667,1.194975 1.614834,1.194975 0.464212,0 0.729245,0.111865 0.633228,0.267229 0.117899,1.173912 -2.086637,0.567866 -2.537593,0.06267 z m -8.373004,-0.966523 c -2.776538,-1.257961 -2.582915,-5.220917 0.293899,-6.015223 2.032741,-0.561287 4.270495,0.521502 4.725472,2.54657 0.276146,1.228857 -0.166678,2.397926 -1.177118,3.312326 -0.710433,0.642964 -2.782491,0.636466 -3.842253,0.156327 z m 2.607098,-1.41314 c 0.608912,-0.551047 0.633439,-1.89439 0.04644,-2.543042 -0.598356,-0.661168 -2.082112,-0.636614 -2.764499,0.04577 -0.726255,0.726254 -0.696357,1.994138 0.05945,2.523543 0.775335,0.543057 2.04335,0.530542 2.658612,-0.02619 z m 16.02951,1.598024 c -0.826479,-0.334327 -1.912137,-1.906819 -1.912137,-2.640614 0,-1.176999 0.831056,-2.79228 1.656159,-3.218947 1.689047,-0.873443 4.198204,-0.320391 4.988911,1.174161 0.487125,0.920776 0.326258,2.940499 -0.374015,3.685936 -0.92882,0.988669 -3.140538,1.492356 -4.358918,0.999464 z m 3.193078,-1.718065 c 0.652806,-0.652806 0.538559,-2.015305 -0.216138,-2.57765 -0.632434,-0.471197 -1.951885,-0.414761 -2.529788,0.108241 -0.608912,0.551048 -0.633438,1.89439 -0.04641,2.543043 0.610658,0.674766 2.08272,0.635978 2.792333,-0.07363 z m 13.372279,4.840737 c 2.807441,-0.878866 4.395682,-1.954662 5.571411,-3.773752 1.624938,-2.514071 2.273088,-4.716118 2.272347,-7.71988 0,-2.116005 -0.100224,-2.725155 -0.598699,-3.658923 -1.604936,-3.006222 -5.960004,-4.260876 -9.232423,-2.65983 -2.00832,0.982584 -4.799833,3.992404 -6.366008,6.863821 -1.112308,2.039276 -1.252564,2.496556 -1.431104,4.665901 -0.108903,1.322784 -0.227039,2.645568 -0.26252,2.939521 -0.07207,0.596476 0.997506,1.453065 1.857825,1.487884 0.293952,0.01164 1.255977,0.542925 2.137833,1.180094 1.372923,0.991923 1.800966,1.161918 2.978203,1.182635 0.756126,0.01349 2.139024,-0.215027 3.073135,-0.507471 z M 54.028984,24.53921 c 1.458648,-1.262459 4.146445,-2.569686 6.39072,-3.108166 2.699702,-0.647779 7.141183,-0.772398 10.292185,-0.288819 3.024029,0.464079 6.502559,1.876663 8.437642,3.426407 l 1.040289,0.833094 -0.138033,-1.436291 C 79.934471,22.744542 79.778499,22.415823 79.011525,21.773283 75.68976,18.990342 68.290952,17.854777 62.707979,19.271012 c -3.651938,0.926386 -5.865098,2.010119 -9.619985,4.710721 -0.24048,0.172985 -0.606822,1.600703 -0.410713,1.600703 0.08046,0 0.688737,-0.46945 1.351703,-1.043226 z m 4.305327,-7.3084 c 0.440928,-0.226192 1.703599,-0.694346 2.805906,-1.040341 1.761675,-0.552979 2.505445,-0.62656 6.146271,-0.607881 4.72268,0.02434 6.563545,0.38145 9.431046,1.83015 l 1.814989,0.91694 -0.797957,-1.384168 c -1.004491,-1.742334 -2.895309,-2.855119 -5.988817,-3.524567 -4.992688,-1.080373 -8.85743,-0.983986 -11.654843,0.290724 -1.783292,0.812588 -5.934287,5.015124 -6.420353,6.500045 -0.17309,0.528796 -0.383169,1.141836 -0.46683,1.362287 -0.08366,0.220477 0.856112,-0.574014 2.088409,-1.765539 1.23227,-1.191524 2.601251,-2.351457 3.042179,-2.57765 z M 77.993646,8.062654 C 78.936965,7.2089759 78.8682,5.3431607 77.868842,4.6758551 77.38656,4.3538042 76.130106,4.4446357 75.327731,4.8595817 c -1.551411,0.8022696 -1.743207,3.2301391 -0.28919,3.660775 0.94705,0.2804848 2.385642,0.057653 2.955105,-0.4577027 z M 58.47499,7.7931494 C 58.804026,6.9277238 58.556984,5.8492028 57.851817,5.0725978 57.450841,4.6310346 57.007531,4.4713321 56.182613,4.4713321 c -1.364403,0 -1.844569,0.49022 -1.844569,1.8830131 0,1.5310909 0.682546,2.1254244 2.440914,2.1254244 1.295082,0 1.46042,-0.06694 1.696032,-0.6866202 z"
         id="path5088"
         inkscape:connector-curvature="0" /><path
         inkscape:connector-curvature="0"
         id="path5108"
         d="M 75.458121,8.824672 C 74.989491,8.753224 74.756658,8.6359553 74.497578,8.3408655 74.213018,8.0167801 74.128802,7.7075853 74.163991,7.1159664 c 0.07244,-1.2184168 0.900113,-2.0375826 2.28301,-2.259531 0.958797,-0.153887 1.574774,0.083042 1.91389,0.7361634 0.554064,1.0670805 0.192352,2.4531981 -0.765333,2.9328427 -0.549064,0.2749868 -1.459971,0.4025106 -2.137437,0.2992305 z"
         style="fill:#fffd00;fill-opacity:1;fill-rule:evenodd;stroke:#fffd00;stroke-width:0.079375;stroke-linecap:round;stroke-linejoin:round;stroke-miterlimit:4;stroke-dasharray:none;stroke-opacity:1" /><path
         inkscape:connector-curvature="0"
         id="path5110"
         d="M 56.040774,8.6283856 C 55.620933,8.5411551 55.101503,8.2326272 54.930503,7.9689143 54.683064,7.5873243 54.619617,7.252166 54.64724,6.4726374 c 0.03215,-0.9074865 0.175128,-1.2170728 0.682519,-1.4776265 0.294137,-0.1510374 0.406215,-0.1689285 1.058333,-0.1689285 0.666062,0 0.762318,0.016192 1.108975,0.1864069 0.611082,0.3000745 1.089078,1.0122349 1.244812,1.8545783 0.117554,0.6358864 -0.104246,1.4532134 -0.457147,1.6846735 -0.134171,0.088014 -0.353219,0.1133316 -1.064975,0.1231133 -0.492813,0.00677 -1.023355,-0.014129 -1.178983,-0.046469 z"
         style="fill:#fffd00;fill-opacity:1;fill-rule:evenodd;stroke:#fffd00;stroke-width:0.079375;stroke-linecap:round;stroke-linejoin:round;stroke-miterlimit:4;stroke-dasharray:none;stroke-opacity:1" /><path
         style="fill:#000000;fill-opacity:0.389666;stroke:none"
         d="m 66.292045,69.642029 0.0954,0.143135 -0.33399,0.04771 c 0.0923,0.280781 0.50604,0.270247 0.76339,0.284577 0.68774,0.0383 1.43022,0.01943 2.09932,0.192541 v 0.04771 c -0.82903,0.265091 -1.69463,0.40333 -2.52872,0.654601 -0.34847,0.104975 -0.70018,0.386266 -1.04966,0.435885 -1.12301,0.159444 -2.34811,-0.02022 -3.48296,0.0076 -2.06959,0.0507 -4.13588,0.14469 -6.20253,0.235981 -1.0509,0.04642 -2.17709,0.110391 -3.19668,0.391119 -0.39608,0.109052 -0.89789,0.351544 -0.97224,0.803553 -0.14284,0.86839 1.35978,1.366971 1.97418,1.574303 1.65008,0.556818 3.47601,0.72621 5.20058,0.898645 0.67339,0.06733 1.39245,0.0419 2.05161,0.198909 v 0.04771 c -0.416,0.01786 -0.82356,0.137991 -1.24051,0.142951 -1.47325,0.01753 -2.96231,-0.144256 -4.43719,-0.04326 -0.4389,0.03006 -0.90535,0.04394 -1.33593,0.139601 -0.15712,0.03491 -0.4215,0.11027 -0.3501,0.328828 0.11038,0.337896 0.91894,0.361965 1.20891,0.381841 1.22642,0.08406 2.50459,0.09891 3.72152,-0.104774 1.09494,-0.183264 2.13337,-0.680458 3.2444,-0.837054 0.72553,-0.102262 1.51503,0.0058 2.24245,0.0377 1.15623,0.05063 2.32552,0.0019 3.48296,0.0019 0.94074,0 1.87633,-0.04771 2.81499,-0.04771 0.31948,0 0.69073,-0.08231 1.00195,-0.03185 1.01136,0.164008 1.96713,0.603605 2.95813,0.81121 1.36306,0.28555 2.91257,0.298238 4.29405,0.16677 0.21873,-0.02081 1.35695,-0.07497 1.25236,-0.460881 -0.0449,-0.165724 -0.30043,-0.214734 -0.44126,-0.245959 -0.47145,-0.104532 -0.94996,-0.143872 -1.43135,-0.143872 -1.90343,0 -3.90664,0.241906 -5.77312,-0.143135 v -0.04771 c 2.28095,0 4.82184,-0.333381 7.01363,-0.974482 0.49932,-0.146055 1.04336,-0.29522 1.47906,-0.588041 0.23951,-0.160966 0.51408,-0.559302 0.8111,-0.579756 0.38372,-0.02643 0.86949,0.217431 1.2405,0.311378 0.81685,0.206836 1.65004,0.353771 2.48102,0.491144 3.32922,0.550373 6.659712,0.629942 10.019462,0.482824 1.30841,-0.05729 3.17042,0.02542 4.34173,-0.647533 0.917933,-0.527371 -0.28558,-1.119092 -0.81106,-1.262815 v -0.04771 c 0.72755,0 1.48033,-0.08883 2.194743,-0.229208 0.17542,-0.03447 0.69654,-0.126967 0.52259,-0.420313 -0.25048,-0.422392 -1.374243,-0.489766 -1.810813,-0.563005 -1.85886,-0.311845 -3.7965,-0.441811 -5.67769,-0.457385 v -0.04771 c 0.719,-0.05722 1.43729,-0.28115 2.14702,-0.409158 2.10855,-0.3803 4.200043,-0.814723 6.345673,-0.584874 0.64827,0.06945 1.30403,0.213967 1.95618,0.229944 0.12392,0.003 0.59326,0.06853 0.62401,-0.107277 0.0362,-0.206931 -0.39691,-0.271627 -0.52859,-0.301144 -0.61557,-0.137981 -1.23879,-0.238825 -1.86076,-0.342486 -2.616023,-0.436004 -5.310183,-0.958683 -7.967863,-0.966016 v -0.04771 l 0.14314,-0.04771 c -0.14426,-0.288617 -0.47098,-0.331325 -0.76339,-0.398334 -0.66687,-0.152824 -1.36779,-0.237976 -2.05161,-0.22122 -0.32784,0.008 -0.93846,0.02794 -0.62025,0.476419 l -2.576432,-0.04771 v -0.04771 l 0.90652,-0.143135 c -0.25494,-0.441104 -0.93054,-0.457719 -1.38364,-0.511208 -0.90741,-0.107121 -1.58759,0.229811 -2.4333,0.393438 -0.59247,0.11463 -1.21414,0.08096 -1.81305,0.15186 -2.83795,0.335951 -5.71406,0.258349 -8.5404,0.694692 -1.26631,0.1955 -2.28125,0.961067 -3.57838,1.076128 -0.39334,0.03489 -0.45411,-0.332667 -0.81113,-0.368551 -0.69309,-0.06966 -1.55262,-0.143619 -2.24242,-0.09616 -0.29764,0.02048 -0.56641,0.158151 -0.85881,0.182123 -0.5097,0.04179 -1.02847,-0.04879 -1.52678,0.09988 m 14.07497,0.620253 0.14313,0.238559 h -0.0477 z"
         id="path2" /><ellipse
         style="fill:#ffffff;fill-opacity:1;stroke:none;stroke-width:0.085992;stroke-opacity:1"
         id="ellipse5"
         cx="57.471302"
         cy="28.217499"
         rx="0.18889321"
         ry="0.35884306" /><ellipse
         style="fill:#ffffff;fill-opacity:1;stroke:none;stroke-width:0.137571;stroke-opacity:1"
         id="ellipse6"
         cx="57.793079"
         cy="29.258785"
         rx="0.21296771"
         ry="0.52774805" /></g></g></svg>
