<svg xmlns="http://www.w3.org/2000/svg" xml:space="preserve" width="126.86" height="205.003" viewBox="0 0 33.565 54.24"><path d="M611.078 569.878c-8.618.097-17.174 1.484-25.556 3.412-2.911.738-5.873 1.334-8.688 2.401-3.614 1.441-7.083 3.448-9.792 6.274-1.115 1.24-2.3 2.779-2.077 4.552.15 1.305 1.38 2.088 2.548 2.403 1.398.328 2.548 1.452 2.877 2.855.341 1.423.25 2.935-.053 4.358-.776 3.038-2.512 6.018-5.31 7.588-1.19.724-2.613.777-3.958.624-1.189-.082-2.675-.197-3.488.868-.825 1.073-.882 2.492-1.275 3.743-.211 1.109-.685 2.19-.665 3.33.083 1.215.81 2.233 1.418 3.238.372.85-.055 1.811-.769 2.33-1.318 1.136-3.192 1.282-4.529 2.4-2.987 2.196-4.551 5.818-5.191 9.375-.735 4.227-.235 8.713 1.627 12.594.74 1.533 2.127 2.78 3.82 3.122 2.415.516 4.893-.038 7.269-.508 5.042-1.129 9.96-2.734 14.924-4.155 3.93-1.128 7.822-2.398 11.776-3.441 2.147-.544 4.4-.28 6.524.237 8.192 1.844 16.333 3.967 24.595 5.503 2.844.503 5.727.93 8.623.738 2.453-.077 4.852-1.172 6.485-3.011 1.846-2.078 3.4-4.42 4.647-6.902 1.857-3.934 2.845-8.386 2.276-12.734-.348-2.492-1.364-5.137-3.583-6.532-1.072-.705-2.358-.932-3.62-.96-.703-.068-1.646-.101-1.998-.823-.23-1.308.769-2.342 1.409-3.351 1.608-2.287 2.41-5.055 2.717-7.809.089-1.317.12-2.9-.937-3.866-.73-.66-1.764-.3-2.529.09-1.423.606-2.972.839-4.513.798-1.453.024-3.083-.123-4.408-.919-.706-.445-.866-1.365-1.103-2.105-.179-1.107-.114-2.246-.059-3.363a16.17 16.17 0 0 1 3.502-7.7c1.174-1.42 2.733-2.466 4.357-3.35 1.199-.732 2.593-1.71 2.684-3.248-.017-1.478-1.181-2.58-2.15-3.56-2.258-2.234-5.417-3.17-8.452-3.77-3.088-.577-6.24-.74-9.375-.726zm4.406 34.792c1.322-.055 2.747.263 3.807 1.137 1.903 1.5 2.304 4.19 1.8 6.438-.298 1.236-.833 2.552-1.932 3.275-.295.146-.377-.383-.466-.54-.576-1.735-.484-3.637-1.2-5.329-.597-1.266-1.976-2.094-3.378-1.986-2.306.056-4.231 1.605-5.758 3.191-1.121 1.186-2.123 2.604-3.64 3.31-.378.16-.146-.429-.125-.615.74-2.434 2.262-4.613 4.203-6.246 1.652-1.348 3.649-2.395 5.795-2.605q.446-.03.894-.03zm-41.865 2.891c1.878.12 3.381 1.559 4.344 3.073.78 1.313 1.401 2.997.763 4.486-.181.378-.482.726-.869.888-.762-.989-1.137-2.23-1.968-3.179-.937-1.254-2.526-2.068-4.106-1.775-1.98.369-3.41 2.008-4.335 3.696-.755 1.262-1.282 2.72-2.381 3.736-.216.085-.399-.28-.513-.456-.253-1.537.585-2.953 1.345-4.218 1.377-2.106 3.115-4.021 5.219-5.419.75-.466 1.6-.848 2.501-.832zM638.482 569.65c-1.43.06-2.942-.093-4.29.478-.957.425-1.479 1.58-1.09 2.567.662 1.88 1.719 3.591 2.46 5.44.585 1.163.794 2.532 1.643 3.548.664.752 1.868.912 2.675.29 1.548-1.07 2.33-2.892 2.985-4.59.61-1.787 1.102-3.642 1.238-5.532.08-.876-.455-1.766-1.331-1.984-1.233-.357-2.544-.16-3.81-.218zM560.454 579.542c-1.996-.072-3.901 1.254-4.586 3.121-.988 2.563-.54 5.406.132 7.99.19.819.592 1.891 1.575 1.942 1.049-.088 1.579-1.162 2.098-1.94 1.37-2.373 2.714-4.778 3.747-7.32.352-.959.8-2.233-.015-3.087-.804-.662-1.96-.666-2.95-.706z" style="fill:#81d8d0;fill-opacity:1;stroke:#fb0404;stroke-width:.00289636" transform="matrix(.26458 0 0 .26458 -138.116 -149.436)"/><path d="M564.583 592.152c-1.228-.069-2.305.83-2.612 1.994-.508 1.74-.55 3.614-.291 5.398.24 1.327 1.673 2.503 3.027 1.93 1.243-.512 2.208-1.6 2.856-2.752 1.022-2.06.666-5.05-1.477-6.25-.46-.24-.988-.326-1.503-.32zM628.738 585.147c-2.161.112-3.714 2.019-4.55 3.848-.845 1.782-1.052 4.219.481 5.7 1.467 1.272 3.697.69 5.047-.462 1.968-1.562 2.807-4.442 2.004-6.818-.44-1.256-1.596-2.305-2.982-2.268z" style="fill:#fff;fill-opacity:1;stroke:#fb0404;stroke-width:.00409608" transform="matrix(.26458 0 0 .26458 -138.116 -149.436)"/><path d="M630.31 645.894c-2.13-.06-2.697 2.42-2.978 4.067-.367 2.659-.929 5.504-.107 8.124.565 1.25 2.306 1.58 3.187.469 1.591-1.39 2.844-3.31 2.697-5.503-.035-2.264.198-4.89-1.257-6.785-.421-.37-1.01-.387-1.541-.372zM548.357 646.954c-1.817.383-2.223 2.615-2.817 4.087-.489 2.126-1.638 4.546-.572 6.666.833 1.261 3.301 2.006 3.959.174.907-2.72 1.393-5.655 1.224-8.525-.092-1.021-.51-2.463-1.794-2.402z" style="fill:#81d8d0;fill-opacity:1;stroke:#fb0404;stroke-width:.00819216" transform="matrix(.26458 0 0 .26458 -138.116 -149.436)"/><path d="M588.303 639.334c-3.664.315-7.06 1.948-10.628 2.744-7.39 2.12-14.964 3.622-22.247 6.102-1.912.61-3.774 2.033-3.935 4.183-.122 1.376-.522 3.345.84 4.22 1.445.322 2.27-1.388 3.276-2.135 2.034-2.172 4.744-4.629 7.968-3.96 3.336.773 4.644 4.628 4.873 7.621.226 3.233.59 7.201-2.22 9.496-2.664 2.152-6.374 1.91-9.593 1.759-1.984-.519-2.622-2.817-3.316-4.516-.265-.935-.725-2.662-2.056-2.103-1.151.88-.733 2.607-.814 3.877.116 4.053 3.554 6.91 6.844 8.692 7.878 4.144 16.838 5.72 25.637 6.357 10.425.544 21.15-.542 30.752-4.87 2.448-.969 4.822-2.435 6.03-4.873 2.24-4.265 2.733-9.167 3.813-13.8.431-2.955 1.549-6.034.763-9.015-.925-2.408-3.954-2.401-6.044-3.04-9.54-2.136-19.15-3.926-28.526-6.624a7 7 0 0 0-1.417-.115zm25.707 10.731c3.557-.173 6.079 3.295 6.316 6.568.452 4.72-1.624 9.707-5.383 12.607-2.644 1.613-5.876 1.58-8.861 1.242-2.617-.422-4.79-2.597-4.986-5.282-.517-5.472 2.88-10.71 7.31-13.658 1.658-1.067 3.64-1.561 5.604-1.477zm-29.147 11.006c1.368.046 3.102 1.278 2.917 2.754-.477.916-1.688-.098-2.317-.348-1.593-1.002-4.005-.574-4.69 1.322-.933 1.735.37 3.623 1.898 4.463.585.313 1.065 1.29.018 1.318-1.283.317-3.102-.162-3.208-1.722-.845-3.41 1.671-7.698 5.382-7.787z" style="fill:#fef5e4;fill-opacity:1;stroke:#fb0404;stroke-width:.00819216" transform="matrix(.26458 0 0 .26458 -138.116 -149.436)"/><path d="M561.268 654.736c-2.975.234-5.063 3.102-5.759 5.799-.42 2.537.663 5.903 3.368 6.663 4.16.793 7.804-3.51 7.144-7.501-.219-2.452-2.084-5.033-4.753-4.96zM612.003 654.802c-4.385.1-8.541 4.421-7.44 8.901.475 2.8 3.46 4.83 6.222 3.98 4.175-.944 7.113-5.559 5.89-9.725-.592-1.987-2.625-3.295-4.672-3.156z" style="fill:#fff;fill-opacity:1;stroke:#fb0404;stroke-width:.00819216" transform="matrix(.26458 0 0 .26458 -138.116 -149.436)"/><path d="M582.4 682.923c-3.645.146-7.358-.14-10.954.549-1.292.384-.665 2.266.573 2.047 8.299 1.11 16.704.699 25.05.596 1.21-.157 3.27.22 3.642-1.306-.014-1.607-2.116-1.314-3.213-1.492-5.025-.352-10.062-.438-15.099-.394zM570.891 687.061c-3.486.267-6.568 2.28-9.338 4.268-3.61 2.755-5.85 6.837-9.303 9.756-4.515 4.918-7.782 10.868-12.443 15.655-1.074.795-2.928 1.862-2.169 3.46.684 1.223 2.11.522 3.145.462 1.354.617 2.7 1.621 4.304 1.349 2.525-.212 5.717-1.283 6.095-4.186.788-4.106 2.77-7.93 5.092-11.371.59-.612 1.19-1.983 2.138-1.803-.693 2.931-2.22 5.627-3.29 8.442-1.546 3.501-2.915 7.123-4.576 10.547-4.383 4.75-10.572 7.215-15.89 10.765-3.43 2.324-7.321 4.507-9.419 8.224-1.26 2.84.521 5.968 2.798 7.693 3.262 2.97 8.285 2.469 11.87.38 5.757-3.158 9.621-8.757 12.52-14.488.427-1.237 1.967-.383 2.914-.385 6.037 1.05 11.85 3.307 17.975 3.831 1.521.223 2.867-.82 4.328-.783.64.26.97.985.257 1.437-4.327 5.11-10.682 8.374-14.085 14.28-1.443 2.382-.876 5.53 1.113 7.422 2.385 2.302 5.24 4.328 8.476 5.193 3.18.733 6.297-1.068 8.23-3.502 4.705-5.388 7.422-12.126 11.575-17.905 2.46-3.913 5.573-7.311 8.127-11.154 2.528-4.068 2.806-9.02 3.237-13.663.394-3.549-.611-7.026-1.99-10.26-.884-2.4-2.023-4.724-2.632-7.215 1.677.096 3.17 1.121 3.771 2.704 3.01 5.512 2.878 12.029 2.57 18.115-.093 1.822-1.089 3.674-.618 5.473 1.203 1.355 3.119-.58 4.503.524.982.838 2.583 1.3 3.528.142.733-1.256 2.25-.498 3.407-.514 1.081.351 3.194.263 2.914-1.43-1.588-3.692-2.545-7.625-3.58-11.506-2.5-8.28-6.028-16.237-10.107-23.853-.934-1.916-2.488-3.7-4.724-3.974-6.444-1.046-13.033-.866-19.522-1.297-3.74-.121-7.472-.503-11.2-.833z" style="fill:#81d8d0;fill-opacity:1;stroke:#fb0404;stroke-width:.00819216" transform="matrix(.26458 0 0 .26458 -138.116 -149.436)"/><path d="M151.629 203.51c-3.788-1.012-4.467-3.04-1.915-5.715 1.451-1.52 1.451-1.52-.608-2.085s-2.06-.565-2.54.033c-3.366 4.187-3.944 4.631-5.616 4.318-3.745-.703-3.786-4.094-.074-6.094 3.01-1.62 3.295-1.901 2.15-2.116-1.682-.314-2.064-.913-1.205-1.89.522-.596.92-1.197 1.553-2.351.404-.736 1.816-2.317 4.493-5.033 1.085-1.101 1.085-1.101.331-1.606-.414-.278-.754-.64-.754-.804s-.363-.448-.805-.631c-1.115-.462-1.577-1.231-1.581-2.635-.004-1.31-.129-1.581-.922-2.018-.707-.39-.789-1.385-.262-3.199.361-1.241.382-1.691.123-2.617-.537-1.919.504-5.206 1.882-5.944.294-.157.516-.572.531-.989.014-.395.163-1.373.33-2.173.26-1.235.237-1.656-.148-2.778-1.092-3.18-.403-4.457 2.703-5.006 1.091-.193 2.46-.54 3.043-.77 3.237-1.284 6.233-1.783 10.45-1.742 2.256.021 4.84-.049 5.74-.157 3.707-.443 4.118 1.127 1.376 5.257-.66.994-1.03 1.857-1.03 2.4 0 .465-.128 1.541-.285 2.39-.275 1.484-.26 1.565.372 2.1 1.64 1.386 1.597 4.969-.086 7.108-.435.553-.53 1.074-.53 2.897 0 2.531-.203 2.95-1.676 3.454-.897.307-1.07.514-1.502 1.79-.604 1.783-1.61 2.717-3.53 3.275-1.918.557-1.907.483-.415 2.933.79 1.297 1.606 3.14 2.106 4.762.45 1.455.991 3.134 1.204 3.731s.318 1.265.233 1.486c-.312.814-3.025 1.558-3.684 1.01-.303-.25-.476-.197-.857.265-.263.318-.607.716-.766.884-.158.169-1.035 1.692-1.949 3.387-2.442 4.529-3.594 5.484-5.88 4.873m2.135-1.62a12 12 0 0 0 1.388-2.05c.702-1.382 2.393-3.893 3.385-5.03.409-.467.824-1.327.922-1.909.465-2.746.438-3.148-.34-5.027-.858-2.07-.856-2.115.08-1.88 1.134.285 1.923 3.92 1.35 6.224-.2.805-.174.885.247.723.26-.1.645-.038.856.137.3.25.43.243.6-.03.14-.227.458-.29.905-.177.753.189.807.121.457-.568-.128-.253-.43-1.293-.672-2.312-.413-1.74-2.303-6.054-3.1-7.076-.303-.388-.968-.482-4.193-.597-2.107-.075-4.036-.2-4.285-.28-.798-.253-2.82.887-3.68 2.075-.445.613-.98 1.212-1.191 1.33s-1.037 1.148-1.837 2.288c-.799 1.14-1.63 2.141-1.846 2.225-.217.083-.394.27-.394.415 0 .146.19.192.423.102s.501-.044.596.1c.347.53 2.156.073 2.156-.545 0-1.07 1.516-3.873 2.095-3.873.498 0 .472.135-.41 2.182a759 759 0 0 0-1.286 2.994c-.258.608-.964 1.165-2.819 2.222-4.059 2.313-4.791 3.258-3.556 4.59 1.626 1.755 4.699.1 6.286-3.384.258-.566.258-.566 3.055.166 2.052.537 2.93.661 3.294.466.546-.292 1.016-.12 1.01.37-.002.174-.784.955-1.74 1.737-2.888 2.365-3.056 3.42-.77 4.833 1.224.756 2.072.632 3.014-.441m5.056-20.731c0-.128-1.875-.236-4.167-.239-2.499-.003-3.85.078-3.374.202 1.11.29 7.541.321 7.541.037m2.058-1.763c2.9-.984 3.027-1.15 3.793-4.907.61-2.993.618-2.973-1.22-3.35-3.933-.807-6.43-1.38-7.071-1.625-.535-.204-.995-.178-1.785.101-.585.207-2.583.753-4.439 1.214-3.816.948-4.036 1.065-4.036 2.148 0 .78 0 .78.891-.165 1.772-1.878 3.585-.977 3.694 1.836.067 1.75-.696 2.62-2.386 2.721-1.426.085-1.678-.08-2.143-1.4-.272-.775-.28-.765-.3.421-.052 3.02 9.39 4.912 15.002 3.006m-7.718-2.127c-.646-1.683 1.358-3.453 2.438-2.152.447.539-.063 1.176-.59.738-.228-.189-.595-.274-.815-.19-.515.198-.518.936-.003 1.133.219.084.397.319.397.521 0 .513-1.228.47-1.427-.05zm6.19-.11c-1.77-1.77.868-5.899 3.44-5.384 2.018.403 2.16 3.56.243 5.346-.83.773-2.927.794-3.684.038m3.254-1.392c.292-.338.445-.867.397-1.366-.163-1.662-2.858-.903-2.858.804 0 1.405 1.448 1.735 2.46.562m-13.528.16c.86-.78.49-2.472-.54-2.472-.643 0-1.358.829-1.358 1.575 0 1.262.982 1.726 1.898.897m-3.787-3.075c.297-1.59-.327-2.016-.746-.51-.354 1.277-.345 1.573.056 1.716.444.158.43.182.69-1.206m21.795.754c.372-.543.232-2.533-.179-2.533-.52 0-.616.212-.828 1.806-.182 1.376.317 1.736 1.007.727m-17.298-3.726c1.258-.366 3.092-.909 4.076-1.207 1.79-.543 1.79-.543 3.97-.023 8.177 1.95 8.487 1.943 9.968-.234 1.669-2.452 1.385-5.81-.491-5.81-.973 0-1.192-.58-.535-1.416.802-1.02 1.04-3.24.306-2.848-.93.498-2.644.373-2.959-.216-.678-1.267.233-3.605 1.715-4.404 1.078-.58 1.137-.876.326-1.635-1.588-1.488-6.713-1.394-12.742.233-2.558.69-4.708 2.873-3.203 3.25 2.133.536.596 4.86-1.634 4.6-.779-.092-.91-.02-1.038.57-.08.372-.198.84-.261 1.04s.016.522.176.715c.487.586.164 1.218-.783 1.533-1.67.555-2.425 3.377-1.496 5.599.484 1.16 1.325 1.206 4.605.253m-.616-6.203c-.48-.778 1.45-3.187 2.554-3.187 1.208 0 2.261 1.937 1.429 2.628-.303.251-.444.168-.731-.43-.542-1.131-1.538-1.016-2.157.25-.486.995-.804 1.21-1.095.739m14.285-.872c-.061-.182-.147-.628-.19-.992-.134-1.123-1.298-1.035-2.294.174-1.044 1.267-1.739.924-.93-.46 1.418-2.42 4.6-2.408 4.6.018 0 1.134-.905 2.096-1.186 1.26m-13.643-4.285c.486-.586.242-1.602-.385-1.602-.42 0-.546.204-.61.992-.089 1.064.38 1.351.995.61m16.809-1.635c.238-.238.394-.74.35-1.125-.108-.922-.988-.927-1.504-.008-.693 1.234.188 2.098 1.154 1.133zm-17.809-3.232c-1.376-.349-1.964.683-1.46 2.564.149.556.254.459.99-.926.604-1.135.729-1.572.47-1.638m21.284-1.85c.167-.838.167-.838-1.012-.838-1.454 0-1.584.12-1.107 1.012.208.39.502 1.061.654 1.494.321.92 1.132-.003 1.465-1.668" style="fill:#000" transform="translate(-138.116 -149.436)"/></svg>