<?xml version="1.0" encoding="UTF-8" standalone="no"?>
<!-- Created with Inkscape (http://www.inkscape.org/) -->

<svg
   width="34.520405mm"
   height="49.096889mm"
   viewBox="0 0 34.520405 49.096889"
   version="1.1"
   id="svg1"
   inkscape:version="1.3.2 (091e20e, 2023-11-25, custom)"
   sodipodi:docname="obj_001.svg"
   xmlns:inkscape="http://www.inkscape.org/namespaces/inkscape"
   xmlns:sodipodi="http://sodipodi.sourceforge.net/DTD/sodipodi-0.dtd"
   xmlns="http://www.w3.org/2000/svg"
   xmlns:svg="http://www.w3.org/2000/svg">
  <sodipodi:namedview
     id="namedview1"
     pagecolor="#ffffff"
     bordercolor="#000000"
     borderopacity="0.25"
     inkscape:showpageshadow="2"
     inkscape:pageopacity="0.0"
     inkscape:pagecheckerboard="0"
     inkscape:deskcolor="#d1d1d1"
     inkscape:document-units="mm"
     inkscape:zoom="1.6311518"
     inkscape:cx="49.658162"
     inkscape:cy="123.53234"
     inkscape:window-width="3840"
     inkscape:window-height="2066"
     inkscape:window-x="-11"
     inkscape:window-y="-11"
     inkscape:window-maximized="1"
     inkscape:current-layer="layer1" />
  <defs
     id="defs1" />
  <g
     inkscape:label="Layer 1"
     inkscape:groupmode="layer"
     id="layer1"
     transform="translate(-91.810403,-115.8875)">
    <g
       id="g9385"
       transform="matrix(0.1301365,0,0,0.1301365,-402.12611,91.222121)">
      <path
         inkscape:connector-curvature="0"
         id="path11643-8"
         d="m 3938.5718,564.50521 c -18.2565,-1.8473 -44.5165,-8.1826 -51.526,-12.4308 -5.8227,-3.5289 -11.7336,-11.4766 -13.5966,-18.2817 -1.8576,-6.785 -0.3586,-26.145 3.5457,-45.7965 3.6829,-18.5369 6.5697,-27.007 13.9111,-40.8168 7.8808,-14.8245 9.7914,-28.2627 5.2523,-36.9421 l -2.3231,-4.442 -29.5942,-3.7271 c -43.9034,-5.5291 -50.2482,-7.165 -57.6446,-14.8632 -2.1398,-2.2271 -5.1582,-6.6315 -6.7076,-9.7875 -2.7243,-5.5492 -2.8121,-6.2155 -2.669,-20.2381 0.1411,-13.8233 0.3805,-15.4271 5.1295,-34.3665 2.7398,-10.9266 5.45,-20.1561 6.0227,-20.51 0.5727,-0.354 1.3588,-1.989 1.7469,-3.6335 1.9908,-8.4356 16.1005,-32.7563 28.3834,-48.9241 7.5943,-9.9962 30.3338,-34.44 39.0619,-41.9895 9.4191,-8.1473 30.0176,-16.5821 40.4678,-16.5711 6.6235,0.01 27.5935,3.5725 32.1098,5.4595 1.9536,0.8163 4.762,2.4225 6.241,3.5694 1.4789,1.1469 8.314,5.794 15.189,10.3269 13.4134,8.8437 27.749,19.9377 32.3181,25.0103 6.709,7.4481 14.7074,17.6006 18.5495,23.545 6.0188,9.3122 15.1701,28.5709 20.9477,44.0836 2.7654,7.425 6.1323,15.975 7.482,19 1.3496,3.025 3.7265,10.4964 5.2819,16.6031 l 2.8281,11.1031 -3.662,4.2782 c -6.3238,7.388 -15.0696,12.4602 -43.2453,25.0805 -28.9051,12.947 -30.2552,13.9399 -35.1572,25.8556 -1.8938,4.6034 -2.2953,7.4163 -2.2953,16.0795 0,8.9954 0.3633,11.3597 2.5358,16.5 1.3946,3.3 6.2903,15.2607 10.8792,26.5793 4.5889,11.3185 10.1247,24.1435 12.3018,28.5 4.8204,9.6457 5.9411,13.0344 7.0845,21.4207 2.5428,18.6509 -6.7302,37.9275 -21.636,44.9769 -10.6767,5.0493 -29.3104,7.1603 -47.2128,5.3489 z m 39.1318,-12.6816 c 7.9227,-3.2999 16.0444,-10.9203 18.5047,-17.3624 3.4767,-9.1035 -0.065,-31.3674 -7.5759,-47.6193 -1.738,-3.7607 -4.666,-10.9607 -6.5069,-16 -3.4565,-9.4623 -5.0289,-13.2184 -10.5337,-25.1625 -5.9609,-12.9338 -8.3107,-32.179 -5.4451,-44.5949 l 0.599,-2.5949 -7.337,1.8823 c -9.0784,2.3291 -32.0379,4.7614 -45.1939,4.7877 -9.0134,0.018 -9.7904,0.1696 -9.0791,1.7698 0.4279,0.9625 0.9713,5.4402 1.2076,9.9506 0.6083,11.6097 -1.6392,21.2333 -9.3045,39.8414 -7.5262,18.2705 -10.5341,28.0029 -13.9969,45.2888 -5.6008,27.959 -1.6458,37.4782 18.8969,45.4827 14.6378,5.7037 29.2193,7.6509 54.633,7.2957 13.3157,-0.1862 15.0417,-0.4283 21.1318,-2.965 z m -16.6318,-161.3951 c 10.5567,-3.3896 25.6522,-9.2217 37.6785,-14.5567 l 5.6786,-2.5191 -7.4591,-7.6801 c -4.1024,-4.224 -8.6146,-9.9605 -10.027,-12.7479 -7.1486,-14.1069 2.2765,-37.2486 18.8425,-46.265 4.2161,-2.2946 6.8563,-2.9475 13.2855,-3.2849 4.4131,-0.2316 9.7062,0.043 11.7624,0.6111 4.7988,1.325 4.8086,0.6799 0.1605,-10.6131 -5.7865,-14.0592 -19.0301,-36.9412 -22.209,-38.3724 -0.3921,-0.1766 -1.9966,-2.2937 -3.5656,-4.7048 -3.7503,-5.763 -10.5717,-13.1162 -12.1677,-13.1162 -1.8193,0 -2.4796,2.3702 -2.4796,8.9003 0,11.7575 -4.2115,21.0784 -13.4975,29.8727 -7.2051,6.8236 -9.6547,7.8031 -22.0025,8.7982 -22.5441,1.8169 -46.0023,-14.1289 -50.5683,-34.3741 -2.2499,-9.9755 3.401,-30.0757 10.3514,-36.8199 4.0747,-3.9539 13.7769,-9.1383 18.553,-9.9138 8.4717,-1.3757 7.5043,-2.1228 -5.1161,-3.9513 l -12.6683,-1.8354 -7.7326,2.2468 c -9.1269,2.6519 -13.3883,4.7226 -22.8191,11.088 -8.5732,5.7866 -30.0096,28.2495 -41.3339,43.3134 -8.3789,11.1459 -19.1661,27.8562 -19.1661,29.6901 0,0.6177 1.1289,0.4526 2.7943,-0.4087 5.658,-2.9258 15.521,-4.8262 22.713,-4.3762 14.3256,0.8962 22.0612,10.0005 23.214,27.3217 0.6276,9.4298 -1.2432,17.3769 -5.7553,24.4482 -5.9249,9.2854 -12.5415,12.4687 -24.3749,11.7269 -17.3219,-1.0858 -25.4329,-6.4308 -30.6938,-20.2269 -1.0768,-2.8235 -1.3409,-2.2057 -4.4901,10.5 -3.9152,15.7961 -4.5925,30.1652 -1.8071,38.3397 1.4536,4.266 2.1632,4.9663 7.75,7.6473 9.9514,4.7755 23.5191,7.3514 47.6499,9.0468 7.425,0.5217 16.5784,1.2397 20.3408,1.5955 l 6.8408,0.647 -2.0358,-3.9906 c -2.9325,-5.7482 -4.4316,-15.9606 -3.9829,-27.1327 0.3254,-8.1015 0.8522,-10.6635 3.1641,-15.3889 8.1144,-16.5853 30.6686,-25.3973 51.9746,-20.3067 9.3698,2.2387 17.5172,9.9675 20.3181,19.2739 2.1837,7.2559 1.8544,27.9996 -0.5447,34.3135 -2.2017,5.7944 -8.2233,13.61 -11.7099,15.1986 -1.3008,0.5927 -2.3651,1.4911 -2.3651,1.9966 0,1.2285 4.2948,0.2491 17.5,-3.9909 z m -25.9227,-0.3639 c 11.7305,-4.389 16.8611,-13.3264 16.8689,-29.3852 0,-7.7491 -0.3864,-9.853 -2.8068,-15.1371 -3.7893,-8.2724 -7.7296,-11.8837 -15.1394,-13.875 -16.8798,-4.5363 -33.8236,1.5009 -40.9516,14.5915 -2.48,4.5547 -3.0198,6.8401 -3.3788,14.3061 -0.8882,18.4743 3.3013,25.7789 17.3304,30.2157 6.7066,2.121 21.5032,1.7437 28.0773,-0.716 z m 88.9799,-25.8104 c 6.4511,-2.0229 13.9018,-6.0715 21.7834,-11.8371 4.5005,-3.2923 4.8085,-3.7938 4.3839,-7.1394 -0.2511,-1.979 -2.5378,-8.5483 -5.0814,-14.5983 -2.5436,-6.05 -4.6289,-11.7091 -4.6339,-12.5757 -0.01,-1.7268 -3.2656,-5.0339 -6.6935,-6.7993 -3.191,-1.6435 -15.1146,-1.3739 -21.3682,0.4832 -10.6153,3.1524 -16.4635,13.5228 -15.7362,27.9042 0.6143,12.1462 4.9192,19.1111 15.2231,24.6294 4.0526,2.1703 5.0047,2.1651 12.1228,-0.067 z m -169.5572,-32.9987 c 1.925,-0.9648 4.8483,-3.663 6.4963,-5.996 2.5903,-3.6671 3.0443,-5.3005 3.3511,-12.057 0.233,-5.1314 -0.1864,-9.6774 -1.2214,-13.2375 -2.7365,-9.4136 -6.2642,-11.8941 -17.0738,-12.0061 -8.9057,-0.092 -14.8552,2.4201 -20.02,8.4539 -6.8467,7.9988 -7.3607,17.5023 -1.4723,27.2182 5.2202,8.6133 9.7677,10.8149 20.4401,9.8956 3.3,-0.2842 7.575,-1.3062 9.5,-2.2711 z m 111,-57.2124 c 10.3993,-4.5437 16.1213,-14.5897 16.8083,-29.5102 0.5898,-12.8071 -1.1209,-17.5759 -8.8828,-24.762 -4.1351,-3.8284 -7.0846,-5.7099 -9.6856,-6.1785 -2.057,-0.3706 -4.309,-1.1257 -5.0045,-1.678 -0.6955,-0.5523 -4.3228,-1.2229 -8.0606,-1.4904 -5.5379,-0.3962 -8.2251,-0.01 -14.5151,2.1063 -4.2455,1.426 -9.303,3.8008 -11.239,5.2774 -6.3352,4.8321 -11.3811,16.3386 -11.4088,26.0164 -0.01,2.2795 0.915,7.1455 2.0478,10.8132 2.8317,9.1679 7.0625,13.6428 16.2474,17.1845 14.6863,5.6632 24.3561,6.3007 33.6929,2.2213 z"
         style="fill:#000000;stroke:#141414;stroke-width:3.3;stroke-miterlimit:4;stroke-dasharray:none;stroke-opacity:1" />
      <path
         inkscape:connector-curvature="0"
         id="path11645-2"
         d="m 3925.7962,552.78501 c -12.162,-1.5714 -28.4401,-7.1377 -34.5892,-11.8279 -8.1588,-6.223 -9.6275,-10.6458 -8.684,-26.1508 0.9636,-15.8362 5.1401,-31.9275 14.8845,-57.3475 8.1079,-21.1508 10.689,-33.1947 9.3724,-43.7327 l -0.9279,-7.4264 17.4592,-0.981 c 9.6026,-0.5396 22.5505,-1.9001 28.773,-3.0234 6.2225,-1.1233 11.6319,-2.0539 12.0208,-2.0681 0.3889,-0.014 0.7762,6.4964 0.8607,14.4679 0.1778,16.7803 0.8392,19.0484 16.7806,57.5379 5.9395,14.3405 11.7092,29.9322 12.8215,34.6482 2.6019,11.032 2.6172,23.9089 0.034,28.9036 -3.3963,6.5677 -12.8383,14.0052 -20.7701,16.3607 -8.1358,2.4161 -31.843,2.7317 -48.0359,0.6395 z"
         style="opacity:1;fill:#fef1bc;fill-opacity:1;fill-rule:evenodd;stroke:none;stroke-width:24.6073;stroke-linecap:round;stroke-linejoin:round;stroke-miterlimit:4;stroke-dasharray:none;stroke-opacity:1" />
      <path
         inkscape:connector-curvature="0"
         id="path11647-3"
         d="m 3944.0071,395.78141 c -0.1324,-0.2143 0.7457,-0.9678 1.9514,-1.6744 3.669,-2.1502 9.07,-8.8392 11.2574,-13.9423 1.915,-4.4675 2.2822,-7.691 2.2915,-20.1181 0.01,-11.0222 -0.081,-12.2852 -1.0999,-15.5 -3.2471,-10.2484 -11.4914,-17.7315 -22.141,-20.0968 -5.6861,-1.2629 -16.4856,-1.1356 -22.1651,0.2612 -9.3683,2.3041 -16.0333,5.8569 -21.8877,11.6674 -3.1007,3.0775 -4.3132,4.7508 -6.1591,8.5 -2.5671,5.2142 -3.0361,7.2286 -3.5313,15.1682 -0.6316,10.1275 0.9849,21.3342 3.9902,27.6626 0.9642,2.0301 1.753,3.7354 1.753,3.7894 0,0.054 -1.7437,-0.068 -3.875,-0.2715 -2.1312,-0.2033 -11.3,-0.9557 -20.375,-1.672 -28.4967,-2.2492 -39.5683,-4.3022 -50,-9.2715 -6.1005,-2.906 -7.5332,-4.973 -8.7697,-12.6523 -0.8166,-5.0713 -0.3636,-15.6498 1.0037,-23.437 1.1217,-6.3887 4.1347,-18.805 4.8913,-20.157 0.3806,-0.6802 0.9333,0.098 2.8091,3.9536 5.1043,10.4924 12.4725,14.923 27.2109,16.3621 6.9987,0.6834 11.9694,0.064 16.5122,-2.059 9.8686,-4.6109 17.0094,-19.8089 15.8563,-33.7474 -1.45,-17.5276 -8.4616,-26.3682 -21.9583,-27.6862 -7.4241,-0.725 -16.1088,0.6572 -23.3925,3.7228 -1.6618,0.6995 -3.1336,1.1594 -3.2708,1.0222 -0.5729,-0.5729 8.1107,-14.3571 15.7862,-25.0588 8.6714,-12.0903 24.4678,-29.9055 35.5716,-40.1178 10.6476,-9.7928 19.4556,-14.9692 31.7813,-18.6777 7.8903,-2.374 7.671,-2.3718 21.3697,-0.2176 9.6115,1.5115 10.6396,1.9391 6.5648,2.7305 -7.3374,1.4251 -16.5481,6.0325 -21.1858,10.5976 -4.3124,4.2449 -8.6245,14.3113 -10.2372,23.8981 -1.7838,10.6042 -0.4672,16.794 5.4941,25.8297 6.0333,9.1448 17.0358,16.8572 28.9631,20.302 3.5254,1.0181 5.068,1.1542 13,1.1464 10.072,-0.01 13.5037,-0.552 17.7752,-2.8082 5.8751,-3.1033 13.9656,-11.8532 17.1807,-18.5811 2.43,-5.0849 3.3224,-9.0733 3.7793,-16.8912 0.3995,-6.8349 0.9369,-8.9607 2.2654,-8.9607 0.9877,0 7.0206,6.1841 9.7494,9.9937 1.2375,1.7277 3.15,4.2426 4.25,5.5887 7.9779,9.7632 11.5163,15.4763 18.9939,30.6676 5.6914,11.5626 8.5717,18.7063 8.0698,20.0143 -0.2315,0.6032 -0.6499,0.7559 -1.4448,0.5271 -5.7619,-1.6587 -18.1801,-1.2834 -23.5092,0.7105 -15.238,5.7013 -27.2976,26.5064 -24.3559,42.0183 1.1104,5.855 3.9246,10.1313 13.3713,20.3187 3.1054,3.3489 5.4726,6.1934 5.2605,6.3211 -0.2121,0.1277 -4.8856,2.1395 -10.3856,4.4706 -21.43,9.0828 -48.0196,17.9556 -49.0094,16.3542 z"
         style="opacity:1;fill:#ffb2b8;fill-opacity:1;fill-rule:evenodd;stroke:none;stroke-width:8.7;stroke-linecap:round;stroke-linejoin:round;stroke-miterlimit:4;stroke-dasharray:none;stroke-opacity:1" />
      <path
         inkscape:connector-curvature="0"
         id="path11649-4"
         d="m 3834.5548,332.59021 c -4.9471,-1.5848 -11.1046,-9.6144 -13.0241,-16.9839 -1.9821,-7.6099 0.4312,-14.9806 6.9117,-21.1096 4.8254,-4.5636 9.2853,-6.1143 17.5854,-6.1143 9.1134,0 12.575,1.6292 15.159,7.1344 2.3268,4.9575 2.8316,7.8517 2.8108,16.1156 -0.018,7.0715 -0.096,7.6669 -1.3681,10.4202 -0.8422,1.8231 -2.4746,4.0216 -4.3446,5.8514 -2.4479,2.3952 -3.6148,3.1276 -6.382,4.0055 -4.5661,1.4486 -13.8176,1.8116 -17.3481,0.6807 z"
         style="opacity:1;fill:#ff2728;fill-opacity:1;fill-rule:evenodd;stroke:none;stroke-width:8.7;stroke-linecap:round;stroke-linejoin:round;stroke-miterlimit:4;stroke-dasharray:none;stroke-opacity:1" />
      <path
         inkscape:connector-curvature="0"
         id="path11651-7"
         d="m 3910.9676,391.41761 c -8.9834,-1.4359 -16.749,-6.846 -19.1896,-13.3691 -2.4594,-6.5736 -2.4975,-21.7446 -0.071,-28.132 5.7158,-15.0427 24.0161,-22.8724 42.0722,-18.0003 4.6282,1.2488 8.567,3.6495 11.0193,6.7162 2.3288,2.9122 5.8803,10.5308 6.5264,14 0.7418,3.9835 0.2376,16.0761 -0.8339,20 -2.5551,9.357 -9.0207,15.7321 -18.2715,18.0158 -3.6771,0.9078 -17.3008,1.401 -21.2524,0.7694 z"
         style="opacity:1;fill:#ff2728;fill-opacity:1;fill-rule:evenodd;stroke:none;stroke-width:8.7;stroke-linecap:round;stroke-linejoin:round;stroke-miterlimit:4;stroke-dasharray:none;stroke-opacity:1" />
      <path
         inkscape:connector-curvature="0"
         id="path11653-8"
         d="m 4014.6335,365.16581 c -3.0716,-1.0946 -7.3472,-3.8606 -10.1392,-6.5591 -4.9734,-4.807 -7.3653,-11.6185 -7.3653,-20.9743 0,-9.1216 1.9702,-15.0182 6.6829,-20.0012 4.8758,-5.1555 10.213,-6.9074 21.2046,-6.9604 6.2581,-0.03 7.2147,0.081 9.0257,1.0484 3.165,1.6909 5.8992,4.7232 6.591,7.3096 0.3337,1.2479 2.2784,6.5067 4.3216,11.6862 3.9879,10.1101 5.3117,14.1209 5.3117,16.0939 0,3.4626 -15.3136,13.5675 -25.75,16.9914 -5.9024,1.9365 -7.6165,2.1733 -9.883,1.3655 z"
         style="opacity:1;fill:#ff2728;fill-opacity:1;fill-rule:evenodd;stroke:none;stroke-width:8.7;stroke-linecap:round;stroke-linejoin:round;stroke-miterlimit:4;stroke-dasharray:none;stroke-opacity:1" />
      <path
         inkscape:connector-curvature="0"
         id="path11655-6"
         d="m 3945.0165,275.59311 c -1.925,-0.4252 -5.7886,-1.5344 -8.5857,-2.4649 -12.898,-4.2905 -17.5609,-8.7428 -20.956,-20.0092 -2.6331,-8.7377 -1.6865,-17.5724 2.8081,-26.2083 3.1113,-5.9779 5.7976,-8.6841 11.1626,-11.2451 5.3419,-2.5499 11.4221,-4.541 15.3621,-5.0306 3.5744,-0.4442 11.4447,0.5077 14.4121,1.7431 1.2632,0.5259 3.3093,1.208 4.5468,1.5158 3.0223,0.7517 6.51,3.1453 10.85,7.4465 6.2968,6.2403 7.9737,11.2379 7.48,22.292 -0.7535,16.8708 -6.7229,26.5175 -19.2702,31.1411 -4.3061,1.5868 -12.6073,1.9688 -17.8098,0.8196 z"
         style="opacity:1;fill:#ff2728;fill-opacity:1;fill-rule:evenodd;stroke:none;stroke-width:8.7;stroke-linecap:round;stroke-linejoin:round;stroke-miterlimit:4;stroke-dasharray:none;stroke-opacity:1" />
    </g>
  </g>
</svg>
