<?xml version="1.0" encoding="UTF-8"?>
<svg id="a" data-name="レイヤー 1" xmlns="http://www.w3.org/2000/svg" viewBox="0 0 63.75 207.02">
  <path d="M32.67,37.63c-.13.84.18,1.79.32,2.37l-.86.39.23,1c.57-.44,1.14-.9,1.72-1.27.14-.1.29-.17.43-.26-.18-.24-.39-.19-.76-.43l-.36-2.7s-.02.01-.03.02c-.1.6-.31,1.17-.69.87Z" fill="currentColor"/>
  <path d="M32.42,38.5c-.03-.48-.03-.88-.01-1.24-.11.06-.22.12-.34.18.11.47.24.92.35,1.06Z" fill="currentColor"/>
  <path d="M34.45,36.18c-.34.18-.68.36-1.02.54.37.28.73.27,1.02.31-.06-.24-.03-.54,0-.85Z" fill="currentColor"/>
  <path d="M31.97,37.5s-.07.04-.11.06c.03.07.07.15.11.22.03-.1,0-.19,0-.28Z" fill="currentColor"/>
  <path d="M11.98,202.07c.13-.07.26-.13.38-.28.11-.7.19-1.43.19-2.11-.41-.19-.47,1.22-.56,2.39Z" fill="currentColor"/>
  <path d="M28.85,39.13l.19.08c0-.05-.03-.09-.03-.14-.03.01-.05.03-.08.04-.03,0-.05,0-.08.01Z" fill="currentColor"/>
  <path d="M29.61,39.09c-.02-.13-.06-.2-.09-.3-.07.04-.13.07-.2.11l.29.19Z" fill="currentColor"/>
  <path d="M25.16,60.46c.06-.06.12.04.16.22.12.12.23.2.36.36-.16.92-.24.09-.36-.36-.05-.05-.11-.13-.16-.22-.04.03-.08.12-.13.29l.05.4c-.02.77-.12-.43-.21-1.23-.05.04-.1.06-.15.1-.17.12-.21.27-.28.41-.02.11-.04.21-.08.29.01.18.06.37.23.57,1.2,1.32,1.26,2.64.18,4.02-1.28,1.4-2.76,2.57-4.33,3.62.02.07.04.12.06.22,0,.23-.02.35-.04.43.53-.27,1.06-.54,1.58-.81l-.04-.09.04-.21.11.25c.53-.27,1.1-.54,1.61-.82,1.62-.96,3.36-1.32,5.22-1.08.36.06.6,0,.9-.12.42-.18.9-.24,1.32-.12.48.12.96.18,1.38.24.24.06.54.18.78.3-.24.06-.42.12-.66.18-1.98.36-4.02.78-6.06,1.26-1.15.31-2.3.65-3.45.97l.34,1.11.04-.22c.14.38.33.94.47,1.33-.56.95-.55-.83-.86-2.22-.2.05-.4.11-.6.17l.13.28-.04.21-.2-.46c-.74.21-1.49.41-2.23.63.12.42.24.8.34,1.03l.04-.22c.65.3,1.07,1.23,1.42,3.19-.59-1.93-.47,1.91-.98-.43l.73-.74-.58-1.31c-.39.43-1.8-.34-2.36,1.76.63-.32,1.22-.6,1.86-.93.12-.06.3-.12.42-.18-.06.12-.12.3-.12.54-.12.6-.3,1.26-.48,1.86-.18.66-.18,1.32,0,1.92.3,1.26.84,2.4,1.62,3.42.78,1.02,1.68,1.92,2.76,2.7.66.36,1.38.48,2.16.3.72-.18,1.44-.18,2.1-.06h.12c.3-.3.72-.48,1.2-.36.48.12.9.06,1.32-.18.3-.3.66-.48,1.08-.6.42-.06.78-.24,1.08-.42.42-.36.84-.84,1.14-1.38.6-.69,1.15-1.37,1.73-2.05-.02-.09-.03-.14-.05-.24.1-.1.26-.14.41-.18.63-.75,1.28-1.51,1.89-2.24-.18-.44-.36-.67-.54-.4l.06.39c-.83-1.46-1.14-2.41-2.1-3.02-.02-.6.36-1.5-.14-2.01.75.46,1.89.62,2.42,1.73-.11-.45-.1-.82-.09-1.24-.21-.24-.43-.47-.7-.64-.42-.36-.84-.72-1.26-1.08-.72-.6-1.56-.72-2.46-.3-1.68.72-3.3,1.5-4.92,2.4-1.38.84-2.58,1.86-3.72,3-.12.12-.18.24-.18.3h.3l3.6-.6v.06h.54c.18.06.42.06.66.06-.12.24-.18.48-.3.66-1.02,1.44-2.34,2.58-3.9,3.36-.24.12-.42.06-.54-.12-1.26-1.38-1.98-3-2.22-4.8.06-.48.18-.96.42-1.44.24-.42.6-.78,1.02-1.08,1.8-.66,3.72-1.26,5.7-1.8,1.86-.42,3.72-.72,5.64-.84,2.58,0,5.1.54,7.44,1.62,1.2.42,2.22,1.02,3.18,1.8.54.54,1.14.9,1.8,1.14.66.18,1.32.3,2.1.3.12,0,.18-.06.3-.18,0-.66-.06-1.32-.18-1.98-.9-1.8-2.22-3.06-4.02-3.78-.66-.42-1.32-.6-1.98-.54-3.3.06-6.54.18-9.71.36-.54.12-.72-.06-.54-.6.48-1.32.54-2.64.24-3.9-.42-2.52-1.8-4.2-4.14-5.1-.78-.18-1.5-.12-2.22.18-.42.12-.84.3-1.26.54-.42.18-.78.48-1.02.96-.18.06-.36.18-.48.3-.35.15-.66.41-.96.66.09.26.17.44.26.57ZM36.39,74.54c-.31.48.17,1.8-.28,1.69-.19-.98-.09-1.61.28-1.69ZM22.67,72.18l-.14-1.19.34.75-.2.44Z" fill="currentColor"/>
  <path d="M47.63,89.4c.9.12,1.74-.12,2.4-.78.66-.6.84-1.38.54-2.34-.42-1.02-1.08-1.98-1.92-2.76-.9-.9-1.92-1.62-3.12-2.22-1.2-.6-2.4-1.26-3.6-1.86-.48-.24-1.02-.18-1.5.18-.56.28-1.11.51-1.67.78l-.07.17s0-.08,0-.14c-.62.3-1.25.62-1.87.87-.78.3-1.56.6-2.4.84-1.08.36-2.16.78-3.24,1.08-.54.24-1.02.36-1.56.42-1.8.54-3.6,1.08-5.52,1.56-1.15.22-2.32.4-3.5.58-.2.69-.18,1.04-.38.67,0-.31.02-.45.04-.61-.3.05-.59.1-.9.15l-2.25.48c.19.8.6,1.51.57,1.22-.04.81-1.04,1.6-1.45.06.32-.45,1.07.64.83-1.27l-.27.06c-.02.16-.04.31-.14.33v-.3s-.1.02-.1.02c-.12.06-.36.06-.54,0,.06-.18.12-.42.18-.66.15-.15.31-.32.46-.47v-.41c.16-.03.32-.08.47-.07.16-.16.31-.32.46-.48-.1.03-.23-.05-.4-.37.16-.81.61-.93,1-.25.17-.18.35-.35.52-.54.66-.54,1.32-1.14,2.04-1.74.06-.12.12-.24.18-.48h-.48c-.24,0-.36.06-.54.18-1.4.91-2.73,1.88-4.09,2.83.08.18.17.31.21.41l-.25-.38c-.96.67-1.95,1.31-2.89,2-1.14,1.02-2.16,2.04-3,3.24-1.08.84-1.08,1.74-.12,2.7.36.36.72.84,1.08,1.26.35.61.85,1.02,1.42,1.29,0-.1-.01-.21,0-.37.43-1.59.78-.79,1.02-.21-.15,0-.38.39-.58.67.39.12.76.27,1.21.25.12-.12.12-.06.12.06.6.84,1.2,1.68,1.92,2.52.9,1.2,1.86,2.34,2.94,3.42.03.03.06.05.09.08.07-.07.15-.14.22-.28-.18-.41-.3-.75-.39-1.15-.22-.13-.42-.26-.64-.4-.12-.12-.12-.24-.12-.42,0,.06.12.18.3.24.13.08.27.17.4.25-.04-.26-.07-.58-.1-.93-1.5-1.03-2.83-2.24-3.9-3.7-.36-.42-.42-.84-.18-1.26.18-.12.24-.36.18-.54.06-.9.48-1.5,1.2-1.92.54-.42,1.14-.96,1.74-1.5.48-.54,1.08-.9,1.8-1.2s1.44-.54,2.16-.72c.3-.11.6-.22.9-.33-.11-.37-.19-.82-.12-1.61.32.93.38.69.47,1.48.11-.04.22-.08.33-.12l.09-.38c-.03.18-.01.22-.02.35.21-.07.41-.15.62-.22l-.13-.54.29-.4c.04.34.14.55.23.8.97-.35,1.94-.69,2.92-1.07,1.56-.42,3.12-.78,4.74-.9,1.62-.24,3.24-.42,4.86-.54.84-.12,1.8-.12,2.76-.06.48.12.84.36,1.14.78-.18.24-.36.54-.54.72-.72.54-1.38,1.02-2.04,1.56-.36.24-.6.24-.84-.12-.3-.36-.6-.66-.96-1.02-.96-1.02-1.98-1.02-2.94-.06-.74.56-1.52,1.04-2.32,1.49.06.12.1.26.12.4-.15.81-.29-.18-.45-.18,0,0,0,0,0,0-.98.53-2,.99-3.05,1.36-.9.3-1.8.6-2.7.78-.64.17-1.25.41-1.87.64,0,.39-.01.81-.04,1.17.14-.28.45-.02.62-.05l.14,1.19-.8-.26c-.03-.29-.02-.43,0-.59-.05.54-.11,1.08-.31,1.75l-.19-.79s.02-.14.04-.19l-.38-.84c0-.6.08-.41.21-.44.15.11.2.5.24.97.14-.5.24-1.12.28-1.85-.19.07-.39.12-.57.2-.96.6-1.86,1.32-2.64,2.22.18.3.42.6.72.84.59.21,1.19.4,1.8.59-.21-.53-.44-.83-.28-1.25.16.36.3.77.4,1.29.22.07.43.15.66.22.84.24,1.74.3,2.7.24h1.32c.78-.18,1.2.18,1.26,1.02v2.7c0,.66,0,1.26-.12,1.92-.24.36-.48.72-.78,1.08-.54.42-1.14.6-1.8.48-.66-.12-1.26-.36-1.86-.72-.84-.46-1.73-.89-2.6-1.34.03.29.06.58.06.75l-.33-.9c-.13-.06-.25-.13-.38-.19.05.12.06.26.12.38-.02.18-.07.31-.09.48,1.15.7,2.31,1.39,3.41,2.13.12,0,.24.12.36.24h-.36c-1.12-.69-2.3-1.41-3.46-2.13-.09.5-.16,1.02-.28,1.45,1.19,1.05,2.37,2.11,3.56,3.08.84.78,1.62,1.62,2.34,2.52.61.71,1.27.79,2,.47-.15-.33-.21-.98-.15-2.01.22-1.61.39-1.61.71-1.22l-.42.81.2,1.39.06-.2.08,1.1c.39-.16.78-.28,1.18-.39.42-.12.84-.24,1.26-.42.84-.48,1.5-1.14,1.92-1.98s.72-1.74.96-2.64c-.12-1.32-.24-2.64-.36-3.96-.06-1.02-.18-2.1-.18-3.18,0-.48.06-.96.18-1.38.06-.42.24-.84.48-1.14.54-.48,1.08-.78,1.68-1.08.6-.3,1.2-.54,1.74-.9.24-.06.48-.18.84-.3.3-.12.36-.42.24-.78.12-.12.3-.18.48-.24.9-.12,1.8-.24,2.7-.3.9-.06,1.8,0,2.64.24.42.12.84.12,1.2.06.66-.18,1.38-.3,2.1-.24ZM16.29,89.28c-.23.2-.73.4-.54-.99.11.19.74-1.01.54.99ZM24.13,92.72l-.25-2.58c.18.32.49-.12.67.28.02-.02.03-.08.05-.1l.05.4c-.02-.17-.06-.23-.09-.31-.23.35-.49,1.75-.42,2.3ZM21.01,101.67c.17.99.6.71.86,1.27-.3-.35-1.19.41-.86-1.27ZM32.74,92.36c.15,1.19-.14,1.45-.4.89.08-.42.14-1.44.4-.89ZM30.6,99.49c-.18-.98-.16-1.8-.17-2.41.25-.04.89.44,1.46,1.95-.95-1.43-.66.95-1.3.46ZM31.98,98.67l.35-2.4c.38.19.05,2.18-.18,2.39l.2,1.99c-.32-.39-.14-2.18-.37-1.98ZM33.04,104.8c-.11-.8-.64,1.02-.85.22.32-1.4.41-.21.79-1.22.03.2.21.79.06,1ZM39,89.4c-.18-.18-.36-.36-.54-.54.06-.12.24-.24.36-.36.24,0,.42,0,.6-.06.06.06.12.06.18.06-.18.3-.36.6-.6.9ZM41.58,85.47c.07-.42.21-1.27.41-.29.05.4-.14.85.04,1.21l-.44-.92ZM43.18,85.14l-.63-1.31.04-.21.62,1.3-.03.22Z" fill="currentColor"/>
  <path d="M63.75,147.62v-.54c-.07.06-.07.24,0,.54Z" fill="currentColor"/>
  <path d="M19.8,70.47s0-.02,0-.03c-.14.04-.28.08-.41.12.13.24.26-.21.42-.09Z" fill="currentColor"/>
  <path d="M46.51,152.96l-.02.4.38-.33c-.12-.02-.24-.05-.36-.07Z" fill="currentColor"/>
  <path d="M62.84,111.87c-.22.66-1.07-.18-.95,1.43-.29-1.97-.66.36-1.18-.97.02-.28,0-.51-.04-.74-.26.7-.5,2.09-.54,2.46-.31-.74.23-2.76-.13-3.1v69.71c.07.39.11.74.15.87.19.38.33-.22.38-.83l.48,1.15s0,.01,0,.02l.31-.25-.51-2.34c.95,1.01.57,2.74,1.65,3.71-.32-1.16.5-.94.72-1.6.17.43.41,1.11.58,1.77v-4.28c-.01-.09-.04-.2-.05-.28-.67-1.28-.82-.22-1.26-.52l.44,1.13c-.67-.47-.64-2.31-.73-2.49l1.58.86s.02.11.02.16v-9.17c-.19-.05-.37-.28-.19,1.42l-.3-2.76c.06.06.24,0,.48-.11v-2.08c-.09.39-.17.62-.14,1.41l-.61-2.32c.41,1.55.43.1.76,0v-4.81c-.51-.91-1.11-1.37-1.49-3.4.47.5.7.82,1,.59,0,0,0,0,0,0,0,0,0,0,0,0,.11-.08.22-.23.36-.47l-.09-.18c.1.19.17.24.23.24v-7.69c-.22-.41-.5.39-.69-.22.4.2.47-1.15.69-1.41v-5.47l-.28.02.28-.84v-11.14c-.07-.14-.15-.15-.29.21-.06.94-.18,1.44-.31,1.76.05.09.1.22.14.28l-.32.49c0-.17-.01-.29-.02-.44-.48.45-1.09-.76-1.09,1.43-.53-1.33-.21-2.48,0-3.68-.03-.03-.07-.06-.1-.09-.02.01-.05-.03-.07,0l-.02-.11c-.1-.16-.15-.35-.1-.67l.1.67s.06.09.09.12c.04-.02.07.01.11.01.14-.87.22-1.77-.22-2.82-.51-.75-.15,2.01-.45,1.42v-1.39c-.14,1.61-.54.03-.75-.54.05-1.6.47.96.71-1.05l-.04-.2c.21.58.59,1.16.68,1.15.11-2.2.67.14.98-1.47.22.61.6,1.3.96,1.89v-13.61c-.32.25-.64.55-.91-.84ZM63.55,180.49c0,1.64-.32-.33-.54-.49.25-.06.38-.09.54.49ZM60.76,177.86l.31-.48v1.64s-.31-1.16-.31-1.16ZM60.95,164.58c.03.19.05.39.05.65-.13-.24-.11-.45-.05-.65-.23-1.69-1.4-.82-.71-2.49.33-.23.77.95,1.04,1.73-.06.23-.23.48-.32.75ZM61.16,162.84l.21-.82.34,1.17-.56-.35ZM61.48,159.82l.23.19.13.59-.36-.78ZM63.27,172.99c.04-.22.11-.24.24.24-.07-.14-.15-.22-.24-.24-.11.58-.01,2.65-.36,1.08.05-.9.21-1.12.36-1.08ZM63.17,171.35l-.6-.06-.52-1.25,1.12,1.31ZM63.22,154.5c-.15.21-.14,2-.46,1.43-.01-1.4.3-.82.46-1.43ZM62.75,141.68l.06-.98.12.4c.02-.11.04-.19.05-.33.12.32.19.73.22,1.22l.25.82-.24-.36c0,.29.03.55.02.9l-.34-.88.07,1.05-.28-.55.05-.91-.1-.26s.06-.02.12-.11ZM62.63,143.99l.55,1.91c-.31-.33-.85-1.65-.55-1.91ZM61.08,129.13c.22.18.58-1.24.48.56-.31-1.57-.22,1.22-.36,1.42l-.38-.97c.26.38.31.18.26-1.01ZM61.62,149.31c.07,1.83.66,1.29.94,1.83-.04-1.21-.32-.33-.49-1.53l.79,1.26c-.27.88-1.01,2.26-1.47,2.77.05-1.03-.17-1.18-.56-1.1.15.58.17,1.19.4,1.34-.65.15-.96-2.44-1.03-4.26.49,1.53,1.21.96,1.43-.31ZM61.08,123.14l.15-.61c.13.19.19-.41.26.38l-.41.23Z" fill="currentColor"/>
  <path d="M52.01,184.88c.06-.18.12-.36.12-.54-.06.06-.18.18-.36.24l-.36.48c-1.8,2.16-3.72,4.14-5.76,6-2.1,1.86-4.32,3.48-6.77,4.86-2.1,1.38-4.44,1.8-6.96,1.2-2.48-.53-3.25-1.94-2.36-4.27l-.27-.77c.2,0,.39-2.2.16-2.39.17-4.59,1.3-1.04,1.46-5.62.14.79-.16,4.58.51,3.38l-.33,1.99s0,.03,0,.06c.13-.19.3-.36.44-.54.11-1.18.18-1.8.36-2.13-.26,1.92.19.62.3,1.33.03-.03.05-.07.08-.1.66-.6,1.26-1.26,1.74-1.98.3-.58.43-1.16.45-1.74-.16-.28-.24-.64-.23-1.07-.09-.32-.1-.65-.28-.97-.07-.1-.15-.18-.23-.28-.07.46-.13.88-.07.96,0-.57-.01-.89-.04-1.09-.06-.08-.13-.15-.19-.23-.14.12-.34.42-.57.15.1-.24.17-.41.24-.56-1.04-1.05-2.35-1.62-3.88-1.71-1.33-.08-2.55.23-3.74.71-.08.19-.12.34-.24.57l.11.26c.06-.11.13-.01.22.52l-.22-.52c-.16.3-.26,2.23-.52,1.94.52-.4.34,1.99.48,3.37.08,1.59.75-.8.69.59l-.42,1.01.7.57c-.58,1.22-1.12-.77-1.68-.56l.48-1.2-.44-2.58-.06.8-.3-1.79.39-.59c-.2,0-.27-1.59-.56-.39,0-.51.05-.96.1-1.4-.14.08-.3.11-.45.2-2.22,1.5-4.2,3.3-5.94,5.52-.12.12-.18.18-.36.24,0-.12.06-.3.12-.42.84-1.2,1.68-2.34,2.52-3.42.66-.84,1.32-1.68,1.92-2.52.99-1.34,1.98-2.62,2.97-3.91.01-1.26.42-2.58.14-3.27-.26-1.59-.8,2.2-.87.01.71-2.52,1.63-.09,2.33-1.46l-.06-.57h.29c-.07.25-.15.41-.23.57l.11,1.02c.03-.39-.13-.19-.23-.19-.25,3.31.82-.11.96,1.83,1.06-1.17,2.25-2.18,3.7-2.84.18-.12.36-.18.48-.18-.06.12-.12.3-.12.48-.06.12-.12.18-.18.24.06,0,.12,0,.18-.12.72-.42,1.44-.9,2.16-1.38.78-.48,1.56-.9,2.34-1.26.66-.18,1.26-.48,1.86-.84.6-.42,1.08-.84,1.56-1.32s.78-1.08.9-1.8c.44-1.94.09-3.71-.96-5.3-.02.03-.02.1-.04.12-.03-.15-.05-.23-.08-.33-.04-.06-.07-.13-.11-.19-.05-.05-.08-.12-.13-.17-.25.1-.52,1.28-.81.74.15-.52.38-.78.63-.99-.32-.35-.6-.73-.84-1.16-.02.18-.05.35-.04.65-.1-1.4-.32-.96-.64-.69l.05-.59c-.12-.08-.22-.21-.35-.24-.31.08-.6.11-.68.57.03.27.05.52-.01.65-.04-.31-.01-.49.01-.65-.02-.13-.04-.27-.05-.41-.03.01-.05,0-.08.02-.66.3-1.32.66-1.98,1.02-1.08.48-2.16,1.08-3.18,1.8-5.82,4.98-10.37,10.91-13.67,17.87-1.92,4.14-3.84,8.27-5.88,12.35-1.08,2.28-1.86,4.68-2.28,7.19-.3,1.86.3,3.3,1.86,4.32.35.23.64.2.91.06.01-1.12-.36-.91-.31-2.39-.14.4-.37.8-.14.99-.7-.6-1.56-.99-1.67-3.58l.53.2s.04-.4,0-.6c.69,1.19,1.22.79,2.09,1.18,0-1.19-.26-1.58-.04-3.38.53-.4.64,2.78,1.08,2.39.1-.59.07-1.4-.13-1.39.23-.4,1.1-1.2.89,1.2,0,.58-.83-.21-.61,1.79-.33-.2-.56-.99-.93-.2.03.79-.21,2.39.15,2.19.27-.54.56-.87.61-.51.62-1.27.96-2.64.92-4.12-.06-.36-.06-.72.06-1.14,1.26-3.78,3.6-6.66,7.02-8.64.54-.3,1.14-.42,1.8-.42.48-.06.72.18.6.72-.12,1.68-.36,3.36-.6,5.04-.36,1.8-.12,3.54.6,5.22.62,1.34,1.54,2.38,2.65,3.23l-.07-.75.38.99s0,0,0,.01c.19.13.32.31.52.42,1.98,1.2,4.14,1.8,6.42,1.68,1.26.24,2.34,0,3.36-.6,1.02-.6,1.98-1.32,2.82-2.1.9-.9,1.74-1.86,2.46-2.94.36-.54.72-1.08,1.08-1.56.24-.23.49-.43.74-.66.12-.58.45-1.3.16-1.84.27.3.62.54.95.87.25-.21.49-.44.73-.65.9-.78,1.62-1.68,2.28-2.7,1.08-1.74,2.34-3.48,3.66-5.16ZM37.43,159.35c-.43,2.41-.86-.55-1.23.06.56-.62.91-1.83,1.23-.06ZM34.88,163.83c.03.2.34,1.38.04,2.38l-.3-1.18.38-.02-.12-1.19ZM33.67,162.86c.09.27.34.21.55.31.02-.04.04-.03.06-.12.02.06.01.12.03.18.2.16.32.57.13,1.81-.47-.18.05-1.06-.13-1.81-.03-.02-.05-.04-.08-.05-.15.32-.34-.57-.41.49,0,.55-.07,1.36.15,1.21l.09-.42-.02.39s-.04.01-.06.03l-.12.58c-.21-1.19-.3-1.18-.36-2.57l.19-.02ZM30.43,162.38l.24,1.38-.58-.58-.24,1.4c-.44.21-.02-1.78-.21-2.37.37-.61.59,1.77.79.17ZM23.92,173.48c.1.59.2,1.19.1,1.79l-.55-.39c.13-.99.45.39.45-1.4ZM10.73,193.93c.14-.99.3-.6.51-1.19-.14.99-.31,1.79-.51,1.19ZM11.99,194.32l-.09-1.19c.17-.2.23.19.36-.2-.17.2-.17.8-.27,1.4ZM13.71,188.34c.5-.61.08,2.38.59,1.19-.21,1.2-.72-.19-.59-1.19ZM13.69,186.95c.2,0,.46-.2.62.19-.17.2-.63,1-.62-.19ZM14.69,190.13l.12-2.99c.09,1.19.29,1.79.62.79l-.74,2.2ZM15.88,188.33l-.06-1.6c.1-.59.06.41.23.21l-.17,1.39ZM26.71,187.56l-.18-1.59.17,1.01.06-.21-.06.8ZM28.92,186.1l-.02,1-.16.79.17-1.79ZM27.78,189.72l.11-2.19c-.2,0-.32.4-.45.81-.02.27-.07.79-.07,1.18.01.15.02.32.06.42-.04-.07-.06-.23-.06-.42-.08-.79.02-2.08-.39-1.57.19-.6.48-1.2.54-2,.08,1.58.98-.04.84,1.37-.56-.38-.3,2.2-.56,2.41ZM28.42,200.45l-.14-.19.38-1.21-.24,1.4ZM28.24,189.25s-.07,0-.07-.14c0,0,.03.06.07.14.16-.1.54-1.39.59.23-.24.3-.47-.02-.59-.23ZM28.85,191.28l.24-2,.14.8c.25,1.38-.58,1.2-.38,1.2ZM30.6,199.2c.03-.4-.27-1.99.13-2l-.13,2Z" fill="currentColor"/>
  <path d="M35.6,34.14c.11-.03.22-.06.33-.1-.1-.09-.2-.17-.29-.29,0,0,0,.01-.01.01-.03.11-.03.24-.02.38Z" fill="currentColor"/>
  <path d="M61.18,89.34c.34.95.61,3.13.95,2.44-.1,1.45-1.22-.53-.95,1.65-.62,1.27-.67-2.04-1.18-1.68v.88c.06.27.15.51.26.6,0,.7-.16.1-.26-.21v1.21l.31,1.03c-.13.08-.23-.05-.31-.26v11.19c.41.76.65,2.08,1.05,2.37-.01-2.24,1.25.55,1.61-1.78l.92,2.66c.06-.18.11-.22.17-.33v-5.63c-.2.13-.33.21-.35-.96-.19.45-.19,2.09.24,2.4-.71.78-.8-2.68-1.72-2.05.03,1.42.65,1.29.76,2.89-.62.15-.03-1.43-.52-1.31l-.37.91.18.37-.95-1.63c.87.63.63-1.78,1.06-2.28l.74,1.46c-.17-2.09.66-.64.93-1.22v-4.33c-.17.3-.46.42-.28,1.11-.15-.58-.37-.73-.61-.68l.31,1.15-.83-.82.06.4-.46-.92c.15-.24.34.13.59.07-.09-.19-.09-1-.31-1.16l1.54.06v-.02l-.06-.37c.05.15.03.2.06.31v-2.99c-.17-.17-.34-.44-.48-.91.25.77.09,1-.06,1.24-.3-.85.07-2.24.55-1.74v-.36c-.33-1.03-.83-2.04-1.22-1.42.28-.27-.12-2.43-.64-2.93-.73-.65.24,3.22-.71,1.6ZM60.03,96.36c.31.34.37-.9.68.25-.09.64-.46-.09-.68-.25ZM62.05,100.4c-.34-.07-.92-2.14-1.19-2.51,0,0,0-.01-.01-.01-.01-.02-.02,0-.04,0-.05,0-.09.1-.1.38,0-.33.04-.4.1-.38.01,0,.02,0,.04,0,0,0,0,0,.01.01.19.16.51,1.17.7.98-.06-.39.22-.66-.03-1.42l.51,2.95ZM62.62,94.94c-.08-.06-.12-.23-.16-.44-.21-.34-.51-.42-.33-1.08.2.21.25.71.33,1.08.07.11.13.25.16.44Z" fill="currentColor"/>
  <path d="M0,120.12v.85l.2-.9c-.06,0-.13.03-.2.06Z" fill="currentColor"/>
  <path d="M49.41,156.21s0,0-.01.01c-.05.13-.08.3-.1.48.14.04.29.08.44.12-.12-.19-.23-.36-.33-.61Z" fill="currentColor"/>
  <path d="M4.03,206.85c-.04.08-.06.11-.09.17h.41c.21-.51.38-.92.07-1.56l-.39,1.39Z" fill="currentColor"/>
  <path d="M49.41,156.21c.29-.14.58-.17.84-.07.11-.4.26-.61.24-1.2-.2.41-.83-.36-.55-1.37.31.79.38.71.48.44-.93-1.02-1.84-2.03-2.75-3.05l.12.24-.67-.47.06-.32c-.15-.17-.31-.35-.47-.52.01.04.03.05.04.09-.13-.03-.23.11-.33.31.06.12.14.24.2.36v-.08c.12-.15.15.12.2.43.25.45.47.91.75,1.35l.36.72c-.3.06-.54.06-.84,0-.01,0-.02,0-.04,0-.47.95-1.1,1.92-1.31.33.02-.14.08-.38.13-.57-.19-.04-.39-.08-.58-.12-.66-.06-1.2-.3-1.8-.54-1.24-.72-2.49-1.5-3.77-2.27.04.23.12.38-.02.39-.13,1.4.23.79.28,1.58l-.51-.77c.02-.29.01-.99.09-1.29-.15-.09-.3-.18-.45-.27-.17-.11-.37-.2-.54-.3l.26,1.5-1.03-1.18.55.03.18-.38c-.32-.2-.67-.38-1-.57.02.09.04.18.06.35l-.06-.35s-.1-.05-.14-.08c-.12.36-.24,1.35-.45.46l.24-.58c-.87-.49-1.73-1-2.62-1.48-.18-.12-.3-.24-.42-.36.12-.12.24-.18.42-.24.2-.1.37-.22.56-.33-.17-.8-.45.09-.5.28.17-1.2.37-2.2.69-2.01l-.08.6h-.18s.1,1.13.1,1.13c.5-.28.99-.56,1.47-.86.07-.06.12-.13.19-.19,0-.05,0-.07,0-.12l.45-.33c.04-.05.1-.09.14-.14.3-.3.54-.48.9-.72.78-.24,1.2-.78,1.32-1.62.18-.84.24-1.62.24-2.46,0-1.74.06-3.48.12-5.22.24-2.4.48-4.74.84-7.02v-2.1c.06-.78.48-1.38,1.2-1.74.3-.12.66-.12,1.02,0,.41.14.82.3,1.23.44-.03-.31-.07-.63-.11-.93.17-1.66.09.19.72-.55v1.42s-.33-.95-.33-.95c-.14.03-.08.57-.04,1.1.23.09.46.15.69.25.6.12,1.2-.06,1.68-.48.03-.03.03-.06.05-.08l-.3-1.42c.09.65.39.67.66.86.13-.31.19-.63.12-.98-.18-1.02-.42-2.04-.66-3.06-.24-1.08-.66-1.98-1.32-2.88-1.02-2.16-2.4-3.9-4.26-5.34-.66-.6-1.44-1.08-2.34-1.44-.9-.3-1.8-.6-2.7-.84h-.48c-1.92.3-3.48,1.26-4.62,2.82-.06.18-.24.42-.36.6s-.18.42-.12.66c.12.66.48,1.08,1.08,1.26.42.06.9.12,1.32.3,1.8.48,2.22,1.5,1.26,3.06,0,.12-.06.3-.18.48h.42c.84-.36,1.26-.06,1.2.78-.24.9-.54,1.68-.96,2.4-1.62,1.98-3.6,3.54-5.94,4.68-.48.36-.72.18-.66-.36-.18-.06-.36-.06-.48,0-.6.54-1.26,1.02-1.92,1.44-.66.4-1.25.87-1.79,1.4.37.69.84.96.85,3.12l.07-.8c.14,2.19-.21-.19-.29,1.8-.38-.34-.52-.77-.29-2.3-.61-.16-.34,1.55-.46,2.36.07.1.16.2.23.3.36.54.78.9,1.32,1.14.14.04.24.13.37.18.16-.2.31-.29.56.23v.04c.19.12.43.2.63.32.12-.06.24-.06.42-.06.34-.09.73-.12,1.11-.17l-.08-.53.58.18c-.01.07-.01.14-.02.21l.07.06c1.75-.08,3.04-.79,3.98-2.27.3-.6.78-1.02,1.5-1.14.12-.07.2-.03.29-.03l.07-1.26c.18.38.32.96.49.72.18.85.07,1.36-.1,1.52.09,1.06.16,2.15.21,3.3,0,1.02.12,2.04.24,3,.12,1.02.12,2.04-.12,3-.42,1.68-1.32,3-2.7,4.02-.24.12-.48.12-.72,0-1.62-1.32-3.42-2.4-5.4-3.24-.36-.18-.72-.3-1.08-.36-.42-.06-.78,0-1.08.3-.36.24-.66.48-.9.78-.48.36-.54.72-.12,1.08.06.12.06.24,0,.36-.11.28-.2.58-.3.86.08-.03.15-.02.22,0,.11-.44.31-.72.23-.46l.1.63c.09.07.2.14.34.21.05-.47.18-.93.22-1.45.25-1.21.32-.08.46.49.08-.05.16-.02.21.17.01-.11.04-.19.09-.24l.05-.64-.03.57c.1-.07.25-.06.46.04,1.32.42,2.52,1.14,3.42,2.22.06.18.06.3-.06.42l-3.24.72c-.72.06-1.02-.24-.84-.96.12-.66.18-1.32.12-2.04,0-.01,0-.01.01-.03-.08.08-.14-.03-.19-.23-.28.17-.66,1.44-.68,1.71-.07-.27-.02-.5,0-.74-.05.06-.19,0-.31-.01l.02.15-.44.22c-.02-.14,0-.28,0-.42-.09-.03-.18-.04-.27-.05-.19.53-.39,1.06-.56,1.62-.3.96-.48,1.92-.42,2.88.06.3.12.6.18.96.12.36.36.54.66.66.14.05.29.05.43.08-.04-.81-.06-1.5.14-2.14.5-.41.28,0,.5.79h-.56c.2.38.27.91.34,1.43.4.02.8-.01,1.19-.15l5.4-2.94c.3-.12.6-.18.84-.18,1.32.6,2.58,1.14,3.84,1.74,1.17.53,2.15,1.26,3.08,2.07.02-.14.04-.25.06-.41v.44c.1.09.24.14.35.24.6.54,1.32.96,2.1,1.2.42.18.85.32,1.27.49l.36-1.76c-.19,1.83.2,1.67.42,2.07.61.25,1.24.48,1.86.72.08-1.33-.4-.55-.36-2.08.75-1.03.21,3.18,1.02,1.95l-.07-.4c.21-.41.39.58.62.76l-.06.21c.29.11.57.23.86.34v-.39c0,.16,0,.25.01.39.11.04.21.09.32.13,0-.35,0-.72-.05-.93.12-.4.15.79.28.98,0,.02-.01.02-.01.04.47.17.91.38,1.38.54.12.04.27.06.4.11.13-.22.3-.3.47-.38,0,0,0-.02,0-.03,0,0,0,0,0,.01ZM45.55,122.73l.75.66-.83-.24.08-.42ZM40.51,113c-.14-.6-.37-1.35-.26-1.99.79,1.06-.2.45.26,1.99ZM38.63,136.53c.16-.84-.51-1.92-.13-2.62l.98.83c-.21,1.05-.92.79-.85,1.79ZM39.62,127.21l-.12-1.78.23,1.38-.12.41ZM39.7,111.32l.2.98-.27-.55-.23,1.27.3-1.7ZM38.72,111.31v.61s.41.53.41.53c-.1,1.23-.62-.7-.89-1.25l.47.11ZM34.46,130.2l-.19-1.18.3.19-.11.99ZM36.7,117.58c0,.6-.08,1.2.04,1.38-.23.82-.29-2.37-.57-.16-.04-1.4.32-.82.53-1.22ZM36.16,124.97c.37,1.17-.23.79-.19,2.19-.37-.58.17-1.19.19-2.19ZM35.52,133.35l.1-2.2c.15-.2.27-.01.37.58l-.47,1.62ZM22.82,148.59v.03c.1-.03.15-.16.12.21l-.11-.21s-.01,0-.02,0c0-.02,0-.02,0-.04l-.28-.55c.28.59.13-1.6.59-1.01-.09.59-.33.81-.31,1.56Z" fill="currentColor"/>
  <path d="M29.64,16.08c-.06,1.2-.18,2.4-.42,3.54,0,.6-.06,1.26-.06,1.92s-.18,1.32-.54,1.92c-.42.72-.84,1.5-1.2,2.28-.54.66-.66,1.38-.3,2.28.54.9,1.02,1.86,1.44,2.76.16.24.19.44.16.63.57-.18.75,3.12,1.45,1.87l-.17-.38c.18-.45.6.48.92.62l-.19,1.27c.06.3.2.61.32.91.4-.26.84-.45,1.32-.6-.02-.12-.07-.28-.1-.42-.02-.02-.02.01-.05-.02l-.27-1.16c.17.47.25.83.32,1.18.08.08.14.1.18.07.03-.04.04-.12.06-.16.05-.37-.11-1.2-.27-1.57.07-.42.34.74.54.91-.05.31-.16.48-.27.66-.01.08-.03.14-.06.16-.01.02-.02.05-.03.07.03.1.06.13.09.22.13-.04.24-.11.38-.14.48-.06.9-.18,1.32-.36.32-.07.61-.18.91-.27,0,0-.01-.03-.02-.03.12-.25.33-.37.53-.49,0,0,0-.02,0-.03,0,0,0,0,.01.01.33-.2.7-.29,1.03-.24.06-.42.21-.65.07-1.23-.18.44-1.1-.18-.95-1.23.82,1.07.59.39.91-.17-.04-.13-.05-.26-.11-.39-.36-.9-.84-1.68-1.38-2.46-.84-.96-1.38-2.04-1.68-3.3-.06-.36-.06-.72,0-1.14,0-.42.24-.72.6-.9.36-.18.72-.24,1.08-.3.73-.09,1.49-.04,2.24.08-.08-.68-.11-1.38-.15-1.95.65,2.2,1.44,1.22,2.14,1.52.04-.07.11-.1.15-.19.06-.12.18-.24.3-.36,0,.12,0,.3.06.42.03.36.05.71.08,1.06.1.55.15,1.28.22,2.01-.04-.17-.07-.27-.1-.41.03.47.08.94.1,1.42h.18v6.54c-.12.3-.3.6-.54.84-.96.54-1.98,1.02-3.06,1.56,0,0-.02,0-.03.01l.08.16c-.04-.07-.08-.08-.12-.14-.57.3-1.14.6-1.7.9l.27.59c-.02,1.42-.48,2.06-.55,3.26.49-.32.97-.66,1.48-.9l-.51-.61.25-1.68c.19.93.14,1.38.31,2.27.02,0,.03-.02.05-.03,1.32-.42,2.58-.9,3.84-1.32.3-.18.42-.06.42.3l.12,2.58v4.02c0,.6,0,1.14.06,1.74-.06,1.68-.12,3.3-.18,4.98v1.8c0,.6-.06,1.14-.18,1.62-.42.84-.24,1.5.54,1.92.18.24.36.42.6.54.3.18.66.24,1.02.18.36-.06.6-.24.84-.6.3-.42.48-.96.42-1.5,0-.54-.12-1.08-.3-1.56-.42-1.14-.9-2.22-1.32-3.36-.3-.66-.36-1.32-.3-1.98,0-.48,0-.96.06-1.5.06-.48-.06-.96-.36-1.32v-.3c.54-1.08.48-2.22-.06-3.3v-.66c.24-.78.42-1.62.54-2.46,0-.42.06-.84.12-1.26.12-.42.36-.72.78-.9.36-.18.78-.36,1.14-.48,1.38-.72,2.7-1.38,4.08-2.04,1.62-.66,3.3-1.2,5.04-1.68.3-.06.54-.24.6-.54.12-.3.06-.6-.06-.84-.12-.6-.36-1.08-.78-1.56-.42-.48-.9-.9-1.32-1.26-.3-.3-.66-.6-1.08-.78-.48-.18-.9-.18-1.32.06-.12,0-.18,0-.3-.06-1.08-.72-2.16-1.5-3.12-2.34-1.02-.9-1.8-1.98-2.4-3.18-.24-.36-.36-.78-.3-1.2.12-1.62.3-3.24.48-4.86.12-.3.3-.48.42-.66.24-.3.48-.54.78-.78.06-.18.18-.42.3-.66.84-.42,1.38-1.14,1.56-2.16.12-.24.3-.48.48-.72.3-.6.42-1.26.36-1.92-.11-.35-.4-.58-.64-.85.02.14,0,.23.04.41-.26-.34-.41-.68-.52-1.02-1.19-.83-2.44-1.67-3.69-2.44-.48-.42-.96-.54-1.5-.42-.48.12-.9.42-1.26.84-.42.36-.84.6-1.44.72-.06-.12-.18-.06-.3.06,0,0,0,.06.06.12l.42,2.58c.18,1.26.36,2.46.54,3.72.12,1.68.3,3.42.48,5.16l-.24.9c-.06-.3-.12-.6-.24-.9,0-.18-.06-.3-.18-.48-1.38-1.98-3.06-3.6-5.1-4.86-.24-.06-.48-.06-.66.12-.36.48-.9.78-1.62.84-1.38.42-2.1,1.38-2.1,2.82ZM53.1,31.05c.22,1.79-.41.5-.62.35.17-.45.56.07.62-.35ZM52.67,29.1c-.15.24.19,2-.31,1.51-.27-1.37.23-.87.31-1.51ZM40.75,38.14l-.17-1.19.32.14-.15,1.05ZM41.59,25.9l-.46-1.53.96.4c0,1.64-1.04-1.41-.49,1.13ZM41.08,21.52c.14,1.4.81.63.52,1.92-.64-.27-.06-.4-.52-1.92ZM46.02,26.76c.36.72.72,1.44,1.02,2.16,0,.3-.12.54-.3.84-.18.24-.36.42-.6.6-.34.22-.71.34-1.05.52l.4,1.09c.7,1.48.29-2.12.93-.21-.5-.5-.32,1.51-.61,1.98-.44-.1-1.11-3.42-1.26-.73l-.15-1.79c-.36.16-.69.39-1.08.53-.36.18-.54.18-.6-.12-.06-.24-.06-.54-.06-.78.18-1.38.36-2.7.48-4.08-.12-.6-.18-1.14-.18-1.74-.12-.54-.12-1.02-.12-1.56.06-.06.18-.06.3,0,1.02,1.02,1.98,2.16,2.88,3.3ZM44.33,12.4l-1.03.24.03.25c.08.25.14.59.12,1.15l-.12-1.15c-.22-.67-.68-.66-.89-2.1-.09-.19.37-1.92-.18-2.82.74,1.05,1.44,2.53,2.08,4.43ZM41.43,11.64c.1.16.18.26.26.39,0-.02.02-.03.02-.05.01.04.02.09.03.13.66.97.96,1.32,1.23,2.84-.56.13-.87-1.52-1.23-2.84-.02-.03-.04-.06-.06-.08-.24.81-.79.9-1.13-.61.03.6.86,1.02.86.22ZM40.68,33.59c-.05-.35,0-.45.36.2l-.36-.2c.07.53.36,1.64.15,1.68l-.31-1.78.17.09ZM36.9,16.45s.09.09.16.25c-.06-.1-.11-.17-.16-.25-.22-.13.05,1.73-.58.82-.07-1.61.16-1.49.58-.82ZM35.16,20.79l.22,1.58-.59-1.3.37-.28ZM31.53,29.51c-.11-.09-.28-.34-.43-.52l.34,2.58.79-.78c-.39,1.1-1.08,2.68-1.72.98-.02-.61.37-1.7-.13-2.82-.2-.16-.21.66-.24.86-.76-1.67-.72-1.88-1.23-4.42.43.12.22.77.77,2.29.11-.02.35-.08.21-.67.36.82.82,1.5,1.21,1.99l-.03-.19c.15-.24.29.34.46.71Z" fill="currentColor"/>
  <path d="M14.71,10.75c-.25.55-.38,1.13-.49,1.71,0,.01,0,.01.01.02l-.1.66c-.05.6-.06,1.2.04,1.8.05.33.07.65.12.97.31-.05.63.45,1.22.8-.11-2.01-.54-2.74-.93-3.69.09-1.71.65.7,1.01.81,0-.07-.03-.11-.03-.19l.22-.03c-.05.21-.12.25-.19.22.16,1.8.93,2.08,1.4,2.38l-.21.65.55,1.32c-.08,1.14-1.64-1.22-1.63,1.32,0,0,0,0,0,0,.02.28.02.47.02.62.19.2.36,1.14.61.88-.18,2.47-.87-2.06-1.13.22-.07-1.97.49.07.52-1.1,0,0,0-.01,0-.02-.02-.25,0-.41-.01-.6-.42.31-.76,0-1.01-.27.06.52.14,1.04.19,1.58.3,1.32-.06,2.34-1.2,3.06-1.2.72-2.46,1.44-3.66,2.16-.12.18-.3.24-.54.18-.18,0-.36-.06-.54-.18-.54-.6-1.02-.6-1.5.06-.3.66-.66,1.26-1.02,1.92-.24.3-.42.6-.66.84-.24.24-.42.54-.48.9.06.42.24.72.48.96s.54.48.78.72c.72.78,1.5,1.44,2.4,2.04.9.54,1.92.78,2.94.72.06.06.12.12.06.24-.72,1.2-1.5,2.28-2.34,3.36-1.08,1.08-1.2,2.28-.3,3.54.06.18.12.36.18.48h-.42c-.36-.18-.66-.36-1.02-.48-.06-.06-.12-.12-.24-.12.06.12.12.18.18.24.27.15.54.32.82.48.2-.02.43.14.66.39.2.12.4.23.6.35l-.14-.58.62.29-.1.54s.06.03.11.09c-.04,0-.08-.01-.13-.02l-.04.23c.47.52,1.03,2.45,1.61,1.73.04.21.07.38.09.51.58.47,1.12,1,1.59,1.63.78.84,1.38,1.68,1.92,2.52.21.5.53.88.9,1.21-.05-1.63.2-2.91-.34-4.42l-.66.54c-.28-.43.08-.61.21-1.05h-.53c-.12,0-.12.12-.06.18.06.12.12.24.24.3-.06,0-.12.06-.12.12-.06-.06-.18-.12-.36-.12-.57-.57-1.26-1.03-1.91-1.52l-.02,1.14c-.36.21-.39-.79-.51-1.57-.28-.2-.5-.44-.79-.63,0-.12-.06-.18-.06-.24.12,0,.24,0,.24.06.17.07.3.14.44.21-.01-.03-.02-.09-.04-.12.18-.36.47.11.69.4.1.03.19.08.29.08.02-.09.04-.22.03-.47l.16.38c.09-.04.2-.04.28-.12.06-.02.13-.02.19-.04-.03-.4-.05-.8-.02-1.15.47-.09,1.22.79,1.61.51l-.05-.4c1.11-.57.61,2.38,1.36,2.72,0-.05,0-.07,0-.12.08-.43.24-.05.32.14-.13.04-.22.02-.31-.02.02,2.4.79.58.94,2.94.23-.04.47-2.73.78-.55l-.4-.34c.25,1.17.75,3.51.83,3.09l.21,1.91c.66.18,1.32.36,1.97.48.12-.06.12-.12.12-.18.12-.36.12-.72,0-1.14-.42-1.2-1.08-2.28-1.92-3.3-.72-.72-1.2-1.62-1.38-2.64,0-.02,0-.03,0-.05-.4-.89-.53-1-.84-2.24l.23-.05c.16.25.46.14.73.19.02-.04.04-.04.05-.13.04.05.04.11.07.17h0c.05-.31.04-.63.11-.94,0-.12.06-.24.18-.3.66-.54,1.32-1.08,1.92-1.74.17-.18.38-.31.57-.46-.37-.07-.93-1.13-1.16-.69.57-.72.78-1.99,1.51-.31-.01.43-.06.66-.13.81.44-.3.91-.55,1.42-.73.06-.06.12-.12.18-.24,0-.36.06-.66.24-.9.17-.25.4-.36.62-.5l-.29-1.3.16.38c.04.18.12.5.21.85.07-.04.12-.13.2-.16.66-.54,1.26-1.14,1.68-1.8.84-.96,1.74-1.86,2.64-2.64l.3-.12c0,.12.06.24.06.36-.12.84-.24,1.68-.48,2.46-.37.7-.67,1.47-.99,2.22-.01.06-.03.1-.06.13-.12.3-.28.57-.39.88-.3.9-.9,1.44-1.8,1.68-.42.18-.72.36-1.08.6-.12.18-.3.36-.36.54-.6.78-1.14,1.56-1.68,2.34.24.36.48.72.72,1.02.84,1.2,1.86,1.56,3.24.96,1.02-.48,1.98-1.02,2.94-1.68.48-.3.9-.66,1.26-1.02.13-.13.26-.24.4-.37-.34-.7-.64-1.46-.6-2.62-.45.09-.7-.45-.99-1.35-.28.08-.55.15-.84.15.18-.3.36-.6.54-.9l.79-.93c0-.16,0-.3.05-.54-.07.01-.14-.09-.21-.2-.04.02-.05.07-.11.07-.04-.17-.08-.32-.11-.48-.21-.48-.42-1-.62-.6.17-1.09.39-.36.62.6.07.17.15.3.22.41.61-.34-.62-3.41.37-2.26-.05-2.56-.58-1.22-.88-2.75-.08.11-.13.24-.3.33-.54.35-1.15.58-1.71.89.16.11.33.17.47.38l-1.16.23.02-.27c-.67.34-1.29.77-2,1.04-1.56.66-3.06,1.26-4.62,1.8-.24.12-.48.12-.72.12.18-.18.3-.42.36-.6.3-.35.63-.68.94-1.02-.1-.07-.21-.13-.28-.21.45-.7,1.44.12,1.26-2.89l.28,1.73c.6-.64,1.18-1.28,1.78-1.93l-.61-.5c-.05-.39-.3-1.56,0-1.43.05.4.36.54.13.59.09,1.18.34.93.54,1.26.01-.01.02-.02.03-.03.42-.53.47-1.07.24-1.72-.07,0-.14-.08-.22-.44h0c-.31-.7-.72-1.28-1.29-1.75l-.35.85-.24-1.29c-.7-.45-1.46-.77-2.28-.87-.25,0-.34-.12-.51-.17.02.22.09.44.3.66.51.3,1.29-.47,1.9.63-.28,3.11-1.31-2.18-1.48.91l.29.69c.05.08.11.21.19.43l-.19-.43c-.32-.53-.03,1.72-.62.6l.25-.87c-.58-1.91-.97-.83-1.25-3.21l.05-.04c-.02-.19-.11-.33-.03-.58v-.66c0-.66,0-1.38.06-2.1.12-.72.48-1.26.9-1.8.48-.48.96-.9,1.44-1.38.18-.3.42-.54.78-.72.33-.16.61-.2.97-.08,0-.07,0-.15,0-.2.04.03.05.14.08.21.01,0,.02,0,.03,0,.28.14.53.26.79.37.09-.27.12-.54-.19-.94l.74-.56-.28-1.78,1.15,1.82c-.45.08.11,1.39-.06,1.84l-.8-1.27c.01.46.16.85.3,1.22,1.12.42,2.28.68,3.49.68.42.06.78,0,1.14-.12.3-.24.54-.54.6-.96,0-.18-.08-.34-.12-.51l-.07.02c-.02-.16-.02-.27-.01-.37-.02-.05-.02-.1-.03-.15.06-.24.06-.48-.06-.66-.29-.52-.75-1.02-1.21-1.43.31,1.06-.03,2.91-.49,1.37-.25-.56.7.46.38-1.1l-.18-.49c-.24-.16-.47-.3-.71-.46.01.14.03.28.08.51q.11-.02.2.17c-.45.09-1.05-.99-1.39.48l.26-1.71c-.78-.51-1.56-1.05-2.34-1.52-.3-.06-.54-.06-.72.12-.42.24-.84.48-1.26.72-.54.24-1.08.42-1.62.6-.36.24-.6.12-.66-.3-.06-1.2-.12-2.4-.18-3.54,0-.3-.12-.54-.24-.78s-.36-.48-.6-.6c-.3-.18-.54-.18-.84,0-.9.6-1.68,1.32-2.4,2.22ZM6.96,29.05l-.49-.92.49.33v.6ZM14.17,31.5c0,.12-.06.12-.18.12-.06-.12-.12-.3-.12-.48.36-.48.72-.96,1.14-1.38.18.06.24.06.36.12-.42.6-.78,1.14-1.2,1.62ZM14.17,29.76c-.18,0-.3-.06-.36-.24-.12-.42-.24-.84-.3-1.26-.12-.48-.36-.84-.66-1.2-.12-.24-.06-.48.06-.72.54-.72,1.14-1.44,1.74-2.1.3-.24.42-.18.42.24v2.16h.12c0,.42.06.78.18,1.14.06.9-.3,1.62-1.2,1.98ZM15.35,27.09c-.02-1.21.04-2.24.46-2.11v.61s-.21.04-.21.04l.36,1.15c-.4-.94-.57.11-.61.31ZM28.97,41.04l.46,2.15-.87-1.66.42-.49ZM28.56,36.46v1.42s-.21-.77-.21-.77l.21-.65ZM20.61,29.56l.17-.47.65,1.49-1.51-.94.69-.08ZM18.85,16.74c.12-.12.18-.24.3-.42l.3.3c.24.42.48.9.66,1.38-.06.12-.12.18-.18.3l-1.62,1.38c0-.12-.06-.24-.12-.42.24-.78.48-1.62.66-2.52Z" fill="currentColor"/>
  <path d="M17.54,73.12c.24-.05.07-2.24-.26-2.38,0,0,0,0,0-.02-.11.05-.22.1-.33.14l.14.31c.58,1.31-.49,1.3-.24,1.25l-.07-1.5c-.13.05-.26.12-.39.17-1.02.42-2.04.78-3.06,1.2-.66.12-1.26.42-1.8.72-.48.48-.9.9-1.26,1.38-.18.3-.36.66-.54,1.02.36.12.72.24,1.14.36.96,0,1.92-.12,2.88-.24.19,0,.37-.08.55-.1l.02-.06v.05c.15-.02.32-.06.47-.09.2-.97.38-2.29.41-1.96.02.2.15.59,0,.79l.06-.19-.19.59c.03.24,0,.48-.04.73.21-.05.42-.04.63-.12.79-.38,1.63-.82,2.45-1.22l-.58-.84ZM15.33,74.58c.23-1.79.27-.6.5-.8-.13.4-.36.59-.5.8Z" fill="currentColor"/>
  <path d="M10.25,43.45l-.12-.52c-.1-.05-.19-.11-.29-.16.14.21.28.43.41.68Z" fill="currentColor"/>
  <path d="M9.17,204.28c.09-.49,0-.72-.06-1.01h-.25c.06.39.13.76.3,1.01Z" fill="currentColor"/>
  <path d="M13.24,200.51c.09-.15.15-.31.22-.46-.12-.1-.17.1-.22.46Z" fill="currentColor"/>
  <path d="M12.78,201.19c.04-.07.09-.13.13-.2-.02-.05-.05-.05-.07-.11-.02.09-.04.21-.06.3Z" fill="currentColor"/>
  <path d="M.71,41.04l-.13-2.21c-.21.52-.38,1.46-.58,2.2v16.56c.54-.09,1.04-.62,1.7,1l-.1-.59c.18.79.82,1.7.94.67.94,3.29-1.59.03-.66,3.31.02-.6.16.39.21.18.03.4.1.58,0,1-.14-.98-.67-.3-.37-1.56-.38.06-.65.71-.73,1.52.08.18.21.17.28.36l-.48.46.12-1.02c-.05.52-.58-.29-.92-.3v7.94c.04.06.08.08.12.02l.05,1.39-.17-.72v5.23l.16-.19c.23.46-.03,1.5-.16,2.4v.78h.01s0,.01-.01.03v5.12c.1-.07.2-.16.33-.38.5,1.55.92-.33,1.41,1.82l-.16,1.22-.13-1.59c-.36-.51-.9-.25-1.46-.17v33.01c.15.08.31.03.52-.49l-.23,1.98c.11.19.59-.38.49.4-.11-.99-.43.21-.5,1.19l-.28-.15v2.91c.02.06.04.11.06.23-.02.09-.04.15-.06.24v24.08c.21-.05.45-.14.52-.84.47.79.05,3.09-.52,2.65v19.11c.06.1.09.24.08.54.01.06.03.12.04.17l.93-2.39c.09,1.4.44.41.6,1.6-.54-.4-.59,2.78-.87,2.19.16,1.19.12,1.59.49,2.19-.17.2-.52,2.58-.75,1.58-.04.4.01.8,0,1.41l-.44-1.8.14-.4c-.04-.55-.12-.58-.21-.5v5.8c.44.28.87.42,1.22.97.12.26.12-1.16.32-2.18l-.33-1.1.14-.4.2,1.46c.09-.45.21-.81.41-.9,0,0,.82,1.11.88-.11.27.44.6,1.01.91,1.6v-9.25c-.37.54-.79,1.34-.95.85.49-1.4.21-2,.2-2.79l-.65.19c.45-2.38-.17-1.99-.33-3.18.28-.81.41-1.01.59-1.91-.37-.12-.76-.53-1.11-.84l.52.13-.72-2.93c-.63-.72-.2,1.24-.46,1.68-.43-.95-.66-1.12-.74-2.32l.42.95c-.11-1.59.6-.68.46-2.68l-.6-.33c-.57-1.94.99-.13.2-2.24.59-.68,1.45,1.21,1.87,1.16.01,2.01-.85.11-1.19.35.46,1.36-.4.46,0,2.02.2.78.68.51.48-.27.03,1.41,1.06.67.43,1.96-.2-.78-.66-.1-.69.5.83,1.5,1.43-.19,2.17,1.12-.06.48-.15.81-.24,1.08.08.39.15.92.32.61v-19.31s-.03-.01-.05,0l-.05.19c.01-.12.03-.17.05-.19l.05-.2v-15.21c-.02.1-.08.34-.21.87.15-1.72-.61.94-.37-1.19-.02,0-.05.01-.06,0-.16.34-.28.71-.27,1.38.27,0,.23,2.79.68.41-.09.79-.4,2.78-.4,1.98-.3.6-.07.99-.18,1.59l-.92-1.6c.2-.59.48-1.39.73-1.59l.06-3.38c.07.6.13,1.09.3,1.2.03-.07.05-.14.09-.21-.01.09-.01.13-.02.21.04,0,.08.03.14,0,.5-1.98-.48-.99-.14-2.78l.38-.59c-.11,1.39-.11.59-.29.59-.15.93.22,1.47.49,1.54v-13.17c-.08.38-.16.8-.18,1.24-.63.49-1.39-3.23-2.09-1.93.11-2.03.61.12.93-1.75.08,2.65.85.59,1.33,1.8V39.64c-.04.11-.11.17-.14.3-.03-1.61-.88-.05-.82-2.69-.96.36.41,1.95-.1,3.45l-1.04-.42c.07.19.37,1.55.11.59-.45-1.14-.62.92-1.04.18ZM.81,179.69l-.38-1.16.47.34c-.06.21-.27.44-.09.82ZM3.03,159.06l.17-.75.23,2.31-.41-1.56ZM3.08,155.83c.23.18.37.16.29.97l-.57.07c.68-.49-.43-.94.28-1.04ZM.43,123.05l.15.6c-.07.2-.23.4-.25.99l.1-1.59ZM.44,124.84c.34-.2,0,.8.07,1.39.16-.99-.43-.6-.07-1.39ZM2.12,130.82l-.3-.21c-.09.8-.02,1.4-.25,1.79.04-2.78-1.54.98-1.23-2.79l-.05,1.19c-.48-.21.23-1.19.17-2.59.13,1.99.96-.39,1.23.41.09-.81-.09-.8-.14-1.19l.39-1.4c.82,1.6-.62,1.79,0,3.98.07-.2.2-.6.25-.99.14,1.19-.11.59-.07,1.79ZM1.59,121.27c.27.8.91-3.17.93-.58-.34.98-.72-.01-.95,1.98.07.59.14,1.18-.16,1.78.12-2.98,0,0,.19-3.18ZM2.95,101.85l-.14.63-.43-1.35.58.72Z" fill="currentColor"/>
  <path d="M.08,170.43c-.03-.11-.05-.23-.08-.34v4.04c.22-.38.43-.62.66-.14-.07-1.07-.29-2.3-.55-3.39l-.07.18c.03-.16.03-.25.03-.36Z" fill="currentColor"/>
  <path d="M3.77,203.87l-.22-.8.2-.66v-13.92c-.07.51-.04,1.52-.33,1.65.12-1.97-.57-2.22-.65-4.13-.32-.02-.64,0-.86-.21-.38-1.16.39-.86.15-2.03-.41-.45-.56-.18-.63.33.05.58.08,1.34.17,1.64.03-.1.08-.25.12-.42.01-.23.03-.44.03-.57.03.2,0,.4-.03.57-.05.79-.1,1.88.22,1.41l.04-.39.04.99.41-.59c-.65,2.61-1.06.15-1.47-.99-.04-.06-.07-.08-.11-.13-.22.63-.58,1.91-.45,2.11-.12-.19.03-1.65.03-2.47-.1-.04-.21-.06-.31-.07v1.34s-.13-1.37-.13-1.37c0,0,0,0,0,0v21.88h.39c-.01-.12-.03-.25-.03-.4l.33.19c-.01.1-.02.13-.04.2h3.02c-.07-.46-.04-1.49-.34-1.36.43-1.79.74.2,1.04-1.8,0-.49-.15-.33-.2-.59h-.33l-.07.6ZM1.46,205.82l-.37.2c.11-.59.38-.79.39-1.38-.42,1.19-1.06-1-1.36,2.38l.07-1.59c.46.4.18-2.19.6-1.39-.13-.2.45-2.38.15-2.39l.19.6c-.35.99.7,2,.34,3.58ZM1.74,205.04l.28-.8c.04-.4-.2,0-.23-.2l.24-.4c-.01.6.07,1.79-.29,1.39Z" fill="currentColor"/>
  <path d="M3.75,128.74v-1.36l-.37.86c.02,1.28.37.35.37.5Z" fill="currentColor"/>
  <path d="M17.68,44.3c.1.46.15,1.15.32,1.22.02-.58.11-1.16.21-1.74h0s-.08-.03-.11-.03c-.12.34-.53-.49-.41.56Z" fill="currentColor"/>
  <path d="M50.86,154.5c.06.89.19,1.73.31,1.99-.33-1-.58.02-.83.49.3.07.59.18.89.24.18.06.36,0,.48-.12.42-.66.36-1.32-.18-1.86-.22-.25-.44-.49-.67-.74Z" fill="currentColor"/>
  <path d="M17.32,51.38s.02.02.03.02c.48.39.97.69,1.46,1.02-.29-.68-.55-1.59-.94-2.07-.23.23-.4.6-.55,1.03Z" fill="currentColor"/>
  <path d="M7.46,41.45c.25.96.78.93,1.08.88l-.08-.19c.03-.05.08-.04.12-.07-.37-.21-.74-.4-1.12-.62Z" fill="currentColor"/>
  <path d="M26.06,206.29c.33-.42.79.97.86-1.42-.24-.19-.2.6-.4.6l.28-1.79c.2,0,.47-.21.54.19-.1,0-.24-.19-.33.4-.22,1.01.17,2.58.2,2.19-.04.22-.15.41-.27.56h20.35l-.06-.3.06-.2.11.5h8.19c.16-.36.32-.57.32-.57,0,.29-.03.41-.05.57h6.3c.03-.16.05-.32.13-.49l-.03.49h.95c-.28-.42-.55-1.29-.83-2.09-.3-.46-.6-1.13-.94-1.38-.06.02-.12,0-.19.09l.04-.16c-.15-.04-.3-.02-.47.18l.02.09c.12.27.19.69.04,1.53-.14.13-.25-.54-.38-.9-.08,0-.15-.05-.22-.1-.03.06-.06.13-.09.26v.4c-.1-.79-.24-.58-.39-.76l.07-.4c-.08-.15-.17-.32-.25-.51h-3.43v1.57s-.14-1.57-.14-1.57h-27.78c.02.13.05.21.06.37-.02-.17-.05-.26-.07-.37h-.58s-.05,0-.08,0h-12.76l-.1.4.03-.4h-2.48c-.07.13-.15.16-.23,0,0,0,0,0,0,0h-1.89c.18.13.34.44.47,1.2v-.6c.03.8.4,1.79.64.8.22,3.02-.93.53-1.01,2.35h16c-.09-.16-.16-.37-.18-.73Z" fill="currentColor"/>
  <path d="M5.72,41.63c.19.14.4.28.61.42.26-.09.49-.17.63-.25,0-.26-.01-.46-.02-.64,0,0-.01,0-.02,0l-.72-.3c-.18,0-.36.12-.6.24-.06.18,0,.36.12.54Z" fill="currentColor"/>
  <path d="M63.03,192.28c.24-.23.49-.02.72.18v-2.27c-.24.86-.87-.57-1.03-.56.47.3.66-1.19,1.03-1.08v-3.56c-.07.03-.15.04-.26,0-.12-.3-.22-.49-.33-.67-.06-.01-.13-.09-.21-.29,0,0,0-.01,0-.02-.48-.58-.85-.07-1.23.26.24.18.48.34.71.35-.25.17-.67,0-1.12-.17-.1,0-.2-.02-.3-.1-.25-.08-.49-.13-.7-.09.13-.34.29-.48.45-.51.1-.39.25-.74.11-1.14-.19.77-.44-.02-.64.49-.07-.16-.15-.23-.25-.28v2l.17.88-.17.04v3.61c.21.14.4.32.36,1.07l-.36-.57v1.24c.5.91.02.7.58,2.76-.1-.37-.35-.53-.58-.54v2.82l3.58-2.46c-.3-.42-.53-1.05-.55-1.41ZM62.26,188.48l.09.39c.12.99-.06.2-.03,1.2-.23-.59-.08-.79-.06-1.59ZM61.76,193.4l-.35-1.76c-.19.45.25,1.58-.44,1.33-.7-1.88.54-2.79-.6-4.16,1.05.37.83,4.32,1.65,2.9.12.75.29.82.45.87,0,0,.02.01.03.01.08.03.16.05.22.17-.09-.16-.16-.19-.22-.17,0,0-.02,0-.03-.01-.21.11-.35.89-.71.82Z" fill="currentColor"/>
  <path d="M0,12.8c.15.35.3.77.42,1.4l-.07-.8c.58,2.13-.3-.15-.01,1.82-.13-.07-.24-.14-.34-.23v20.57l.09-.48c1.57,3.37,1.49-.87,2.93,1.52-.18-2-.93-3.28-.69-4.53.54-.5.34-.06.76.68l-.68.11c.65.68.82,2.15,1.35,2.68V4.08l-.52-.48c.04-1.5.35-.17.52.17v-.02h.09c.02-.1.02-.28,0-.67.15.23.25.45.32.67h.97c0-.32-.03-.74-.07-1.09.15.39,1.02.85.97-.77l.25,1.86h2.38c0-.2.04-.3.02-.54l.5.54h.47c0-.55-.02-1.11.05-1.55l1.15,1.4c-.04.06-.08.11-.13.16h35.55c-.08-.6-.28-1.21-.79-1.84-.8-.63.19,2.01-.31,1.5l-.26-1.36c.12,1.61-.68.15-1.06-.37-.24-1.58.77.85.7-1.19l-.09-.18c.37.53.97,1.01,1.09.98-.24-1.96.65-.43.92-1.29h-8.79c.18,3.67-1.72-.11-1.61,1.4-.28-.96-.06-1.03.06-1.4H8.8s0,.07-.05.16l-.11-.16h-2.29s0,0,0,0c-.19,2.35-.83,1.27-1.48,0H0v12.8ZM2.25,26.62c.08-1.24.38-.14.65.39.09-.07.19-.04.3.15.02-.04.05-.04.07-.11l-.07-.8.18,1.39c-.06-.22-.12-.37-.18-.48-.09.14-.19.05-.3-.15-.31.22-.54,1.54-.51,1.81-.41-.75-.07-1.41-.14-2.21ZM1.57,27.34l.37.95-.49.3c-.3-.77.2-1.65.12-1.25ZM1.39,30c0,.6-.25.86-.09,1.6l.02.03c.1-.04.14-.18.17.18l-.17-.18s-.01.01-.02.01c0-.02,0-.02,0-.04l-.45-.49c.45.53-.14-1.6.54-1.11Z" fill="currentColor"/>
  <path d="M5.65,0h-.47c.2.69.33.41.47,0Z" fill="currentColor"/>
  <path d="M37.17,0h-.53c.19.18.37.15.53,0Z" fill="currentColor"/>
  <path d="M45.92,148.99s-.03-.08-.08-.11c-.05.1-.03.2,0,.3.04-.02.06-.1.08-.18Z" fill="currentColor"/>
  <path d="M46.13,149.24c.04.17.08.34.13.5.06-.07.12-.13.18-.16-.1-.11-.21-.23-.31-.34Z" fill="currentColor"/>
  <path d="M19.27,70.17s0,0,0,0c.17-.08.32-.17.49-.25-.01-.18-.03-.39-.04-.55-.15.09-.29.19-.44.27v.53Z" fill="currentColor"/>
  <path d="M46.49,115.48c.18.3.36.6.48.9.18.3.42.54.72.72,1.5.72,3.12,1.32,4.74,1.86.24-.12.48-.18.72-.24.24-.06.42-.18.54-.42,0-.42-.06-.84-.18-1.26-.12-.18-.24-.3-.36-.48-.39-.39-.84-.69-1.26-1.04l.25.47-.11.4-.25-.95c-1.12-.89-2.32-1.68-3.68-2.24-.3-.06-.54,0-.84.12-.3.06-.54.12-.78.24-.24.06-.42.24-.54.48-.06.24,0,.48.12.72.12.3.3.48.42.72ZM52.59,116.96l-.02.4c.21.18.45-.03.61.36-.5.22-.71,1.03-.89.05.36.97.18-2.01.3-.82Z" fill="currentColor"/>
  <path d="M20,69.42c.03.11.06.21.09.33.1-.05.19-.1.28-.15-.12-.17-.28-.69-.38-.18Z" fill="currentColor"/>
  <path d="M60.53,110.94c-.06-.19-.11-.35-.18-.5.04.31.1.46.18.5Z" fill="currentColor"/>
  <path d="M60,109.77v.96l.16-.64c-.07-.12-.14-.21-.16-.25,0-.02,0-.04,0-.06Z" fill="currentColor"/>
  <path d="M61.85,200.17l.08,1.2c.23.22.65.66,1.1.97v-.28c.18-.17.44-.01.72.17v-3.08c-.51.22-1.01,0-1.18-.45v-1.19s.3.55.3.55l.53-1.95.35,1.13v-3.2l-3.39,2.44s.03.05.05.1c-.2.45.09,1,.22,1.78-.37-.44-.28-1.42-.63-1.45v2.77c.35.74.81,1.32,1.26,1.68l.58-1.19Z" fill="currentColor"/>
  <path d="M18.09,84c-.11,0-.19.14-.28.29.09-.1.19-.19.28-.29Z" fill="currentColor"/>
  <path d="M25.43,176.19s0-.01.02-.01c.21-.09.41-.19.6-.3-.03-.02-.06-.05-.09-.05l.15-1.4c-.5-2.95-.33.16-.68,1.76Z" fill="currentColor"/>
  <path d="M25.18,181.02c-.08-.14-.09-.36-.11-.57-.08.04-.16.07-.25.11,0,.77,0,1.59.36.46Z" fill="currentColor"/>
  <path d="M49.73,109.66c-.12,0-.24,0-.36.06.06.12.12.24.18.42.3.24.54.54.78.84s.36.6.48,1.02c.12.96.6,1.56,1.56,1.86.36.24.66.48,1.02.66.96.36,1.86.78,2.76,1.2,0-.06.06-.12.12-.12.36-.12.72-.18,1.08-.18l1.08-.36c.06-.54,0-1.08-.24-1.56-.48-.78-1.08-1.5-1.86-2.04-1-.71-2.1-1.36-3.18-2.01.04.31.06.6.07.84.07.3.1.57-.03.66.03-.18.03-.41.03-.66-.08-.34-.17-.67-.21-.93-.42-.25-.79-.53-1.23-.78-.48-.24-.78-.18-.96.3-.12.54-.48.84-1.08.78ZM56.21,112.74l-.03.8-.53-.96.57.16ZM52.74,112.36c-.03.81-.81,1.45-.87-.34.34.38.39.17.87.34Z" fill="currentColor"/>
  <path d="M61.95,201.74s.02.01.03.01l-.04-.26.02.25Z" fill="currentColor"/>
  <path d="M10.98,144.37c-.27-.98-.2-2.59-.3-3.76.63.1.4-1.67,1.02-.96-.16,1.24-.11,1.03-.46.28-.04,1.82.9,2.28,1.32,1.6l-.07-.8c.21.59.43.59.67.5-.05-1.34.03-2.68.24-4.04.3-2.94.54-5.88.84-8.82.24-2.94.72-5.88,1.5-8.7.12-.66.12-1.32,0-1.92,0-.24-.12-.42-.3-.48-.24,0-.42.12-.54.3-.18.12-.24.3-.3.48-2.88,5.52-4.44,11.46-4.62,17.69-.05,2.94.36,5.79,1,8.62Z" fill="currentColor"/>
  <path d="M7.85,207.02h.19c-.06-.15-.13-.29-.2-.35.02.14,0,.24,0,.35Z" fill="currentColor"/>
  <path d="M13.87,151.7c.06.06.12.12.18.18.24.06.42.18.54.36.02.05.02.13.02.2l.21-.12.06.23c.04-.06.09-.13.13-.13h.24c.48.48.9,1.02,1.32,1.56l.3.3v-.54c-.6-.66-1.08-1.5-1.44-2.34-.72-2.04-1.32-4.14-1.8-6.24-.15-.73-.18-1.47-.27-2.21-.49-.57-.96-.84-1.14,1.05l.86.27c-.03,1.23-.71,1.34-.66,1.12-.69-1.5.11-2.64-.8-2.7.02,1-.79.52-.19,2.45-.2-.12-.33-.36-.43-.67.22.95.36,1.91.65,2.86.18.9.54,1.68,1.08,2.46.54.54.9,1.2,1.14,1.92Z" fill="currentColor"/>
  <path d="M60,88.57v.05l.16.55c.09.13.18.33.23.77l-.23-.77c-.05-.07-.1-.14-.16-.16v1.86s0-.03.02-.03c.76,3.71.65-2,1.5.27-.3-1.15-1.12-4.4-1.52-2.54Z" fill="currentColor"/>
  <path d="M21.69,27.25c-.07-.06-.12-.14-.2-.2-.05-.04-.1-.05-.15-.09.07.25.17.39.35.28Z" fill="currentColor"/>
  <path d="M0,38.78c.12.06.25.19.39.5-.12-.66-.26-.88-.39-1.18v.69Z" fill="currentColor"/>
  <path d="M38.62,22.28c0,.1.02.19.03.28.02,0,.05,0,.07-.01-.03-.09-.06-.15-.1-.27Z" fill="currentColor"/>
  <path d="M2.89,164.06c.05-.25.08-.35.12-.53-.06.03-.12.03-.18.04l.07.49Z" fill="currentColor"/>
  <path d="M49.33,2.25c-.27-.11.07,1.08-.11,1.5h10.78v24.48c.31.36.83,2.49,1.06,1.98-.47.1.19,1.99.01,1.63-.37-.55-.68-1.31-1.08-1.86v1.06l.55,1.34-.27.25c0,.82.46,1.74.58,1.71-.04-.61.54-1.57-.17-2.22,1.07.58.62,3.14,1.49,4.37l-.32.68c.34.95.76,2.08.97,2.23-.9,1.65-1.35-5.42-2.52-3.5.15.58.19,1.18.39,1.34l-.72-.66c.24.64.48,1.5.77,2.06.1.14.21.31.31.46.13.1.27.13.42,0l-.21-.97c.18.36.39.52.43,1.14-.13.54-.37.24-.64-.16-.11-.09-.21-.27-.31-.46-.16-.22-.31-.38-.42-.29.06,1-.1,1.41-.34,1.59v22.81s.02.01.03.03c0,.55.02.53-.03.49v22.73c.71.09,1.42-.71,2.28.63l-.18-.37c.3-1.3.76,1.26,1.19.75-.03-.95.22-1.16.46-1.33v-21.69c-.09-.05-.19-.07-.27-.04l-.22.75c0-.51.1-.7.22-.75l.27-.9v-.98l-.26-.7c.07,0,.18.11.26.16v-24.79c-.12-.25-.25-.47-.38-.55.07-.27.21-.19.38,0V10.56c-.08-.13-.18-.17-.3,0l.19,1.19-.13-.79c.14,1.61-.4.5-.48,1.14.48-1.14-.46-1.74-.07-3.06.27,1.11.54,1.33.79,1.44V0h-1.37c.06.15.11.29.16.52-.79-.01.26,1.58.1,2.85-1.02-1.81-1.55-.24-2.66-2.23.6,1.03.38-.15.28-1.15h-.9l.03.47-.12-.47h-7.86c.16,1.14-.08,2.14-.48,1.05-.1-.44-.05-.81.04-1.05h-4.1c.82.96,2.1,1.96,2.46,2.25ZM61.84,33.92c.68.04.3.34.79,1.86l-.79-1.86ZM61.9,31.65l.45.91-.41.51-.04-1.42ZM62.28,54.91c-.48.11-.4-1.34-.76-2.08l.84.63-.08,1.45ZM63.16,50.34c-.49-.43-.66,1.85-1.22-.68.27-.27.81.02.23-1.68l.87,1.22c-.07-.14-.06.61.12,1.14.08.07.16.19.25.41-.11-.08-.19-.23-.25-.41ZM63.67,39.22l-.66-.25c-.06-.39,0-.82-.16-1.39l-.35.09v-.82c.31-.7.95,1.4,1.17,2.38ZM62.37,8.36l-.08.64-.46-1.73.54,1.09ZM61.86,12.39c-.11.84-.29.47-.53-.29.23-.05.38-.29.53.29ZM62.74,29.6c.17,2.22-1.32-1.33-.75,1.42-.41.51-.61-1.5-.85-2.26.47-.1,1.01.17,1.6.84ZM49.71.11l.69,1.26c.07.1.16.26.3.55l-.3-.55c-.38-.54.03,1.13-.38.72.49.49-.11.83.04,1.43-.64-1.08-.45-2.56-.26-3.22l-.09-.18Z" fill="currentColor"/>
  <path d="M39.48,72.13c-.15-.31-.34-.59-.54-.87.34,1.03.23,2.72.28,4.08.13-.15.26-.31.39-.46.12-.12.24-.24.3-.36.03-.37,0-.72-.04-1.07-.09.43-.13.2-.4-.38l.31-.06c-.07-.3-.14-.59-.28-.89Z" fill="currentColor"/>
</svg>