<?xml version="1.0" encoding="UTF-8"?>
<svg id="b" data-name="レイヤー 2" xmlns="http://www.w3.org/2000/svg" viewBox="0 0 358.48 72.93">
  <g id="c" data-name="レイヤー 1">
    <g>
      <path d="M28.95,26.55c-.44,0-.75.31-.75.82v3.15c0,.31.31.76.75.76h29.14c.44,0,.75.31.75.82v28.25c0,.5-.13,1.13-.44,1.45l-5.98,5.98c-.31.31-.94.63-1.45.63H4.91c-.5,0-.82-.5-.82-.94v-19.51c0-.31.31-.75.82-.75h26.56c.5,0,.82-.31.82-.82v-3.15c0-.44-.31-.94-.82-.94H4.91c-.5,0-.82-.31-.82-.76v-21.27c0-.44.31-1.07.63-1.26l5.98-5.98c.31-.31.94-.63,1.45-.63h45.94c.44,0,.75.5.75.82v12.58c0,.44-.31.76-.75.76h-29.14Z" fill="currentColor"/>
      <path d="M118.18,30.83c0,.31-.5.76-.94.76h-11.2c-.44,0-.76.31-.76.82v35.05c0,.44-.5.94-.94.94h-27.37c-.5,0-.82-.5-.82-.94v-35.05c0-.5-.31-.82-.75-.82h-11.33c-.5,0-.82-.44-.82-.76V13.21c0-.31.31-.82.82-.82h53.17c.44,0,.94.5.94.82v17.62Z" fill="currentColor"/>
      <path d="M177.34,67.46c0,.44-.5.75-.82.75h-46.06c-.5,0-1.13-.13-1.45-.44l-5.98-5.98c-.31-.31-.63-.94-.63-1.45V13.34c0-.44.31-.75.82-.75h25.49c.44,0,.75.31.75.75v29.14c0,.44.31.76.82.76h7.99c.5,0,.82-.31.82-.76V13.34c0-.44.44-.75.94-.75h16.49c.31,0,.82.31.82.75v54.12Z" fill="currentColor"/>
      <path d="M235.86,19c.31.31.63.94.63,1.45v47.01c0,.44-.5.75-.94.75h-53.17c-.5,0-.82-.31-.82-.75V13.21c0-.31.31-.82.82-.82h46.06c.5,0,1.13.31,1.45.63l5.98,5.98ZM217.43,43.23c.5,0,.82-.31.82-.76v-14.16c0-.5-.31-.82-.82-.82h-7.99c-.5,0-.82.31-.82.82v14.16c0,.44.31.76.82.76h7.99Z" fill="currentColor"/>
      <path d="M269.22,68.21h-27.56c-.44,0-.75-.31-.75-.75V13.21c0-.31.31-.82.75-.82h27.56c.31,0,.76.5.76.82v54.24c0,.44-.44.75-.76.75Z" fill="currentColor"/>
      <path d="M328.88,19c.31.31.63.94.63,1.45v47.01c0,.44-.5.75-.82.75h-46.06c-.5,0-1.13-.13-1.45-.44l-5.98-6.17c-.31-.31-.63-.75-.63-1.26V13.21c0-.31.31-.82.82-.82h46.06c.5,0,1.13.31,1.45.63l5.98,5.98ZM310.44,43.23c.5,0,.94-.31.94-.76v-15.1c0-.5-.44-.82-.94-.82h-7.99c-.5,0-.82.31-.82.82v15.1c0,.44.31.76.82.76h7.99Z" fill="currentColor"/>
    </g>
    <path d="M356.04,17.39c0,.27-.17.43-.4.43h-6.01c-.27,0-.43.23-.43.4v8.18c0,.17-.17.4-.4.4h-9.78c-.23,0-.4-.23-.4-.4v-8.18c0-.17-.27-.4-.43-.4h-6.01c-.23,0-.4-.17-.4-.43v-6.57c0-.27.17-.43.4-.43h6.01c.17,0,.43-.17.43-.4V2.97c0-.27.17-.43.4-.43h9.78c.23,0,.4.17.4.43v7.01c0,.23.17.4.43.4h6.01c.23,0,.4.17.4.43v6.57Z" fill="currentColor"/>
  </g>
</svg>