<?xml version="1.0" encoding="UTF-8" standalone="no"?>
<svg
   xmlns:dc="http://purl.org/dc/elements/1.1/"
   xmlns:cc="http://creativecommons.org/ns#"
   xmlns:rdf="http://www.w3.org/1999/02/22-rdf-syntax-ns#"
   xmlns:svg="http://www.w3.org/2000/svg"
   xmlns="http://www.w3.org/2000/svg"
   xmlns:sodipodi="http://sodipodi.sourceforge.net/DTD/sodipodi-0.dtd"
   xmlns:inkscape="http://www.inkscape.org/namespaces/inkscape"
   width="29.092209mm"
   height="29.092209mm"
   viewBox="0 0 29.092209 29.092209"
   version="1.1"
   id="svg7513"
   inkscape:version="1.0.1 (3bc2e813f5, 2020-09-07)"
   sodipodi:docname="hippo_006_cir2.svg">
  <defs
     id="defs7507">
    <clipPath
       clipPathUnits="userSpaceOnUse"
       id="clipPath8134">
      <circle
         r="94.69075"
         cy="-772.75208"
         cx="3832.4658"
         id="circle8136"
         style="opacity:1;fill:#81d8d0;fill-opacity:1;fill-rule:evenodd;stroke:#282814;stroke-width:2.82659;stroke-linecap:round;stroke-linejoin:round;stroke-miterlimit:4;stroke-dasharray:none;stroke-opacity:1" />
    </clipPath>
    <filter
       style="color-interpolation-filters:sRGB"
       inkscape:label="Emergence"
       id="filter8142"
       inkscape:menu="Shadows and Glows"
       inkscape:menu-tooltip="Cut out, add inner shadow and colorize some parts of an image">
      <feTurbulence
         type="fractalNoise"
         numOctaves="5"
         seed="1"
         baseFrequency="0.013 0.013"
         result="turbulence"
         id="feTurbulence8138" />
      <feDisplacementMap
         in="SourceGraphic"
         in2="turbulence"
         scale="6.6"
         yChannelSelector="G"
         xChannelSelector="R"
         id="feDisplacementMap8140"
         result="fbSourceGraphic" />
      <feColorMatrix
         result="fbSourceGraphicAlpha"
         in="fbSourceGraphic"
         values="0 0 0 -1 0 0 0 0 -1 0 0 0 0 -1 0 0 0 0 1 0"
         id="feColorMatrix8144" />
      <feColorMatrix
         id="feColorMatrix8146"
         values="0 0 0 0 0 0 0 0 0 0 0 0 0 0 0 0.21 0.72 0.07 0 0 "
         result="result1"
         in="fbSourceGraphic" />
      <feColorMatrix
         id="feColorMatrix8148"
         values="1 0 0 0 0 0 1 0 0 0 0 0 1 0 0 0 0 0 2 0 "
         result="result9" />
      <feComposite
         in2="result9"
         id="feComposite8150"
         in="fbSourceGraphic"
         operator="in"
         result="result4" />
      <feFlood
         id="feFlood8152"
         result="result2"
         flood-color="rgb(0,0,0)" />
      <feComposite
         in2="result9"
         id="feComposite8154"
         operator="in"
         result="result10" />
      <feComposite
         in2="result4"
         id="feComposite8156"
         operator="atop" />
      <feGaussianBlur
         id="feGaussianBlur8158"
         stdDeviation="3"
         result="result8" />
      <feOffset
         id="feOffset8160"
         dx="3"
         dy="3"
         result="result3"
         in="result8" />
      <feFlood
         id="feFlood8162"
         flood-opacity="1"
         flood-color="rgb(219,173,62)"
         result="result5" />
      <feMerge
         id="feMerge8164"
         result="result6">
        <feMergeNode
           id="feMergeNode8166"
           in="result5" />
        <feMergeNode
           id="feMergeNode8168"
           in="result3" />
        <feMergeNode
           id="feMergeNode8170"
           in="result4" />
      </feMerge>
      <feComposite
         in2="fbSourceGraphic"
         id="feComposite8172"
         operator="in"
         result="result7" />
    </filter>
    <clipPath
       clipPathUnits="userSpaceOnUse"
       id="clipPath7206">
      <circle
         style="opacity:1;fill:#81d8d0;fill-opacity:1;fill-rule:evenodd;stroke:#282814;stroke-width:8.57701;stroke-linecap:round;stroke-linejoin:round;stroke-miterlimit:4;stroke-dasharray:none;stroke-opacity:1"
         id="circle7208"
         cx="4142.0654"
         cy="-268.1604"
         r="287.32996" />
    </clipPath>
    <filter
       inkscape:menu="Shadows and Glows"
       inkscape:menu-tooltip="Cut out, add inner shadow and colorize some parts of an image"
       style="color-interpolation-filters:sRGB"
       inkscape:label="Roughen"
       id="filter7384">
      <feColorMatrix
         values="0 0 0 0 0 0 0 0 0 0 0 0 0 0 0 0.21 0.72 0.07 0 0 "
         result="result1"
         id="feColorMatrix7356" />
      <feColorMatrix
         values="1 0 0 0 0 0 1 0 0 0 0 0 1 0 0 0 0 0 2 0 "
         result="result9"
         id="feColorMatrix7358" />
      <feComposite
         in2="result9"
         in="SourceGraphic"
         operator="in"
         result="result4"
         id="feComposite7360" />
      <feFlood
         result="result2"
         flood-color="rgb(0,0,0)"
         id="feFlood7362" />
      <feComposite
         in2="result9"
         operator="in"
         result="result10"
         id="feComposite7364" />
      <feComposite
         in2="result4"
         operator="atop"
         id="feComposite7366" />
      <feGaussianBlur
         stdDeviation="3"
         result="result8"
         id="feGaussianBlur7368" />
      <feOffset
         dx="3"
         dy="3"
         result="result3"
         in="result8"
         id="feOffset7370" />
      <feFlood
         flood-opacity="1"
         flood-color="rgb(219,173,62)"
         result="result5"
         id="feFlood7372" />
      <feMerge
         result="result6"
         id="feMerge7380">
        <feMergeNode
           in="result5"
           id="feMergeNode7374" />
        <feMergeNode
           in="result3"
           id="feMergeNode7376" />
        <feMergeNode
           in="result4"
           id="feMergeNode7378" />
      </feMerge>
      <feComposite
         in2="SourceGraphic"
         operator="in"
         result="fbSourceGraphic"
         id="feComposite7382" />
      <feColorMatrix
         result="fbSourceGraphicAlpha"
         in="fbSourceGraphic"
         values="0 0 0 -1 0 0 0 0 -1 0 0 0 0 -1 0 0 0 0 1 0"
         id="feColorMatrix8174" />
      <feTurbulence
         id="feTurbulence8176"
         type="fractalNoise"
         numOctaves="5"
         seed="1"
         baseFrequency="0.013 0.013"
         result="turbulence" />
      <feDisplacementMap
         in2="turbulence"
         id="feDisplacementMap8178"
         in="fbSourceGraphic"
         scale="6.6"
         yChannelSelector="G"
         xChannelSelector="R" />
    </filter>
    <clipPath
       clipPathUnits="userSpaceOnUse"
       id="clipPath7468">
      <circle
         r="376.35712"
         cy="-248.93507"
         cx="6516.6523"
         id="circle7470"
         style="opacity:1;fill:#81d8d0;fill-opacity:1;fill-rule:evenodd;stroke:#282814;stroke-width:11.2345;stroke-linecap:round;stroke-linejoin:round;stroke-miterlimit:4;stroke-dasharray:none;stroke-opacity:1" />
    </clipPath>
    <filter
       style="color-interpolation-filters:sRGB"
       inkscape:label="Emergence"
       id="filter8018"
       inkscape:menu="Shadows and Glows"
       inkscape:menu-tooltip="Cut out, add inner shadow and colorize some parts of an image">
      <feTurbulence
         type="fractalNoise"
         numOctaves="5"
         seed="1"
         baseFrequency="0.013 0.013"
         result="turbulence"
         id="feTurbulence8014" />
      <feDisplacementMap
         in="SourceGraphic"
         in2="turbulence"
         scale="6.6"
         yChannelSelector="G"
         xChannelSelector="R"
         id="feDisplacementMap8016"
         result="fbSourceGraphic" />
      <feColorMatrix
         result="fbSourceGraphicAlpha"
         in="fbSourceGraphic"
         values="0 0 0 -1 0 0 0 0 -1 0 0 0 0 -1 0 0 0 0 1 0"
         id="feColorMatrix8020" />
      <feColorMatrix
         id="feColorMatrix8022"
         values="0 0 0 0 0 0 0 0 0 0 0 0 0 0 0 0.21 0.72 0.07 0 0 "
         result="result1"
         in="fbSourceGraphic" />
      <feColorMatrix
         id="feColorMatrix8024"
         values="1 0 0 0 0 0 1 0 0 0 0 0 1 0 0 0 0 0 2 0 "
         result="result9" />
      <feComposite
         in2="result9"
         id="feComposite8026"
         in="fbSourceGraphic"
         operator="in"
         result="result4" />
      <feFlood
         id="feFlood8028"
         result="result2"
         flood-color="rgb(0,0,0)" />
      <feComposite
         in2="result9"
         id="feComposite8030"
         operator="in"
         result="result10" />
      <feComposite
         in2="result4"
         id="feComposite8032"
         operator="atop" />
      <feGaussianBlur
         id="feGaussianBlur8034"
         stdDeviation="3"
         result="result8" />
      <feOffset
         id="feOffset8036"
         dx="3"
         dy="3"
         result="result3"
         in="result8" />
      <feFlood
         id="feFlood8038"
         flood-opacity="1"
         flood-color="rgb(219,173,62)"
         result="result5" />
      <feMerge
         id="feMerge8040"
         result="result6">
        <feMergeNode
           id="feMergeNode8042"
           in="result5" />
        <feMergeNode
           id="feMergeNode8044"
           in="result3" />
        <feMergeNode
           id="feMergeNode8046"
           in="result4" />
      </feMerge>
      <feComposite
         in2="fbSourceGraphic"
         id="feComposite8048"
         operator="in"
         result="result7" />
    </filter>
    <clipPath
       clipPathUnits="userSpaceOnUse"
       id="clipPath8509">
      <circle
         style="opacity:1;fill:#ffb2b8;fill-opacity:1;fill-rule:evenodd;stroke:#282814;stroke-width:9.1974;stroke-linecap:round;stroke-linejoin:round;stroke-miterlimit:4;stroke-dasharray:none;stroke-opacity:1"
         id="circle8511"
         cx="7198.3696"
         cy="-215.13184"
         r="308.11301" />
    </clipPath>
    <filter
       style="color-interpolation-filters:sRGB"
       inkscape:label="Emergence"
       id="filter8475"
       inkscape:menu="Shadows and Glows"
       inkscape:menu-tooltip="Cut out, add inner shadow and colorize some parts of an image">
      <feTurbulence
         type="fractalNoise"
         numOctaves="5"
         seed="1"
         baseFrequency="0.013 0.013"
         result="turbulence"
         id="feTurbulence8471" />
      <feDisplacementMap
         in="SourceGraphic"
         in2="turbulence"
         scale="6.6"
         yChannelSelector="G"
         xChannelSelector="R"
         id="feDisplacementMap8473"
         result="fbSourceGraphic" />
      <feColorMatrix
         result="fbSourceGraphicAlpha"
         in="fbSourceGraphic"
         values="0 0 0 -1 0 0 0 0 -1 0 0 0 0 -1 0 0 0 0 1 0"
         id="feColorMatrix8477" />
      <feColorMatrix
         id="feColorMatrix8479"
         values="0 0 0 0 0 0 0 0 0 0 0 0 0 0 0 0.21 0.72 0.07 0 0 "
         result="result1"
         in="fbSourceGraphic" />
      <feColorMatrix
         id="feColorMatrix8481"
         values="1 0 0 0 0 0 1 0 0 0 0 0 1 0 0 0 0 0 2 0 "
         result="result9" />
      <feComposite
         in2="result9"
         id="feComposite8483"
         in="fbSourceGraphic"
         operator="in"
         result="result4" />
      <feFlood
         id="feFlood8485"
         result="result2"
         flood-color="rgb(0,0,0)" />
      <feComposite
         in2="result9"
         id="feComposite8487"
         operator="in"
         result="result10" />
      <feComposite
         in2="result4"
         id="feComposite8489"
         operator="atop" />
      <feGaussianBlur
         id="feGaussianBlur8491"
         stdDeviation="3"
         result="result8" />
      <feOffset
         id="feOffset8493"
         dx="3"
         dy="3"
         result="result3"
         in="result8" />
      <feFlood
         id="feFlood8495"
         flood-opacity="1"
         flood-color="rgb(219,173,62)"
         result="result5" />
      <feMerge
         id="feMerge8497"
         result="result6">
        <feMergeNode
           id="feMergeNode8499"
           in="result5" />
        <feMergeNode
           id="feMergeNode8501"
           in="result3" />
        <feMergeNode
           id="feMergeNode8503"
           in="result4" />
      </feMerge>
      <feComposite
         in2="fbSourceGraphic"
         id="feComposite8505"
         operator="in"
         result="result7" />
    </filter>
  </defs>
  <sodipodi:namedview
     id="base"
     pagecolor="#ffffff"
     bordercolor="#666666"
     borderopacity="1.0"
     inkscape:pageopacity="0.0"
     inkscape:pageshadow="2"
     inkscape:zoom="0.35"
     inkscape:cx="830.60019"
     inkscape:cy="342.35077"
     inkscape:document-units="mm"
     inkscape:current-layer="layer1"
     inkscape:document-rotation="0"
     showgrid="false"
     inkscape:window-width="1920"
     inkscape:window-height="1017"
     inkscape:window-x="-8"
     inkscape:window-y="-8"
     inkscape:window-maximized="1"
     fit-margin-top="0"
     fit-margin-left="0"
     fit-margin-right="0"
     fit-margin-bottom="0" />
  <metadata
     id="metadata7510">
    <rdf:RDF>
      <cc:Work
         rdf:about="">
        <dc:format>image/svg+xml</dc:format>
        <dc:type
           rdf:resource="http://purl.org/dc/dcmitype/StillImage" />
        <dc:title></dc:title>
      </cc:Work>
    </rdf:RDF>
  </metadata>
  <g
     inkscape:label="レイヤー 1"
     inkscape:groupmode="layer"
     id="layer1"
     transform="translate(189.72013,170.82133)">
    <circle
       r="14.332191"
       cy="-156.27522"
       cx="-175.17403"
       id="circle8447"
       style="opacity:1;fill:#6b4804;fill-opacity:1;fill-rule:evenodd;stroke:#282814;stroke-width:0.427826;stroke-linecap:round;stroke-linejoin:round;stroke-miterlimit:4;stroke-dasharray:none;stroke-opacity:1" />
    <g
       id="g8469"
       transform="matrix(0.04651602,0,0,0.04651602,-510.0136,-146.26815)"
       style="filter:url(#filter8475)"
       clip-path="url(#clipPath8509)">
      <path
         style="fill:#060606;stroke-width:3.31249"
         d="m 7128.4048,356.43308 c -21.103,-2.77604 -35.6523,-10.94984 -37.654,-21.15414 -0.6693,-3.41131 0.6429,-16.05817 2.9158,-28.10418 5.3052,-28.11647 1.0947,-42.86743 -14.9359,-52.32576 -13.988,-8.25308 -33.3802,-34.54288 -37.5372,-50.88877 -3.4761,-13.66816 -0.06,-35.55805 13.8428,-88.68258 5.1337,-19.617571 8.184,-40.201074 8.0995,-54.656129 -0.075,-12.753098 1.6542,-29.895249 3.8412,-38.093664 4.8543,-18.1953869 26.7087,-62.937367 30.7423,-62.937367 1.6062,0 1.9992,-1.490619 0.8732,-3.31249 -1.126,-1.821872 -4.7403,-3.312491 -8.0317,-3.312491 -11.0637,0 -53.1438,-23.49094 -61.348,-34.247169 -14.1537,-18.556411 -16.9045,-36.50247 -11.9638,-78.04884 l 4.3572,-36.63952 -17.2929,-15.54791 c -9.5113,-8.55136 -18.4602,-18.64155 -19.8867,-22.42266 -6.666,-17.6696 9.1245,-78.9966 29.4897,-114.53073 20.2839,-35.3924 21.4365,-39.86258 16.7213,-64.85184 -4.3128,-22.85726 -2.7064,-56.28018 2.9782,-61.96481 2.2059,-2.20594 16.9155,-1.90141 44.0812,0.91262 30.7917,3.18963 44.0134,3.30921 54.0204,0.48854 17.1802,-4.84258 112.0071,-4.84258 129.1872,0 10.0117,2.82199 23.2487,2.69898 54.1611,-0.50329 46.8947,-4.85793 45.273,-5.60844 48.7954,22.58307 1.4659,11.73294 0.4824,24.48059 -2.9413,38.12219 l -5.1437,20.49487 9.6295,20.91416 c 5.2962,11.50279 12.5865,25.06681 16.2004,30.14226 10.4472,14.67163 23.7443,59.3519 25.7166,86.41203 l 1.8109,24.84369 -16.2949,15.23198 c -8.9623,8.37759 -17.8856,15.83069 -19.8297,16.56246 -2.4608,0.92627 -2.1402,10.89124 1.0553,32.79917 8.1988,56.21059 0.5959,80.967456 -30.9191,100.680228 -10.4365,6.528065 -24.2663,13.489996 -30.733,15.470965 -6.4667,1.980968 -13.5554,4.161943 -15.7527,4.846601 -2.6139,0.814449 0,7.88556 7.5733,20.451503 16.1109,26.7479132 24.578,56.286099 24.578,85.742674 0,16.511416 3.1054,35.996594 9.5789,60.104059 16.2866,60.65108 13.3908,57.17183 59.4243,71.39465 56.7415,17.53127 105.1237,47.18798 118.4353,72.59699 10.8468,20.7044 2.9165,53.86835 -17.37,72.63974 -24.869,23.01196 -70.4303,19.39634 -96.0558,-7.6227 -9.1992,-9.69938 -34.7343,-49.46195 -55.4572,-86.35642 -7.9439,-14.14305 -10.2972,-15.06555 -15.1761,-5.94914 -1.9134,3.57501 -10.0432,11.01646 -18.0664,16.5366 -18.1058,12.45712 -20.5537,21.78944 -14.8798,56.72789 3.8454,23.67879 3.7088,26.66046 -1.4836,32.398 -13.4743,14.88906 -68.9525,19.70903 -81.5743,7.08721 -7.555,-7.55501 -8.7916,-25.92139 -2.8857,-42.86276 3.2,-9.17991 2.7913,-11.99735 -2.8355,-19.54116 -8.7521,-11.73394 -16.3304,-12.6929 -26.299,-3.32789 -6.5878,6.18893 -7.815,9.73886 -6.1155,17.69039 1.1694,5.47125 2.8999,15.96374 3.8455,23.31661 3.2448,25.22804 -15.0846,35.7455 -53.491,30.69326 z m 356.1009,-20.93449 c 18.3998,-9.39115 31.7594,-34.8561 28.2106,-53.77292 -5.312,-28.31542 -54.9419,-62.50641 -118.6763,-81.75821 -21.5128,-6.49825 -39.7729,-11.81497 -40.578,-11.81497 -0.8051,0 -1.4639,3.82454 -1.4639,8.49899 0,4.67446 -1.603,11.49436 -3.5624,15.15532 -3.0019,5.60941 0.217,12.99922 20.4675,46.98526 34.2944,57.55601 41.6997,67.77758 53.6416,74.04173 21.11,11.07332 43.5918,12.04022 61.9609,2.6648 z M 7186.797,267.76746 c 7.1518,-3.3869 10.6979,-3.23111 19.8751,0.87304 14.8244,6.62975 31.976,9.46826 33.2966,5.51049 0.5835,-1.74903 9.9372,-3.80707 20.786,-4.57349 14.1572,-1.00014 20.9762,-3.10477 24.1581,-7.45619 2.4382,-3.33448 5.5935,-6.06272 7.0115,-6.06272 1.4182,0 5.1538,-2.5754 8.3015,-5.72306 3.1477,-3.1477 8.526,-7.68634 11.9518,-10.08585 9.8182,-6.87696 29.8831,-38.69949 29.8831,-47.39405 0,-10.77056 -9.2052,-58.45363 -15.801,-81.85054 -5.3221,-18.877957 -5.4761,-19.04666 -9.8203,-10.75545 -3.1845,6.07802 -3.4601,10.2045 -0.9897,14.82039 6.1983,11.5818 4.1831,16.77008 -6.5139,16.77008 -5.4657,0 -9.9375,1.38417 -9.9375,3.07589 0,1.69175 -2.3939,5.46976 -5.3197,8.39557 -4.1073,4.10723 -6.3722,4.4462 -9.9375,1.48725 -2.5398,-2.10784 -4.6178,-5.93827 -4.6178,-8.51211 0,-3.60018 -1.478,-3.8887 -6.4072,-1.25064 -3.524,1.88597 -9.6007,3.42903 -13.5038,3.42903 -6.1273,0 -6.9565,-1.62561 -6.0711,-11.90205 0.7183,-8.33661 -0.6942,-13.15947 -4.715,-16.09955 -7.9411,-5.80673 -7.2611,-9.05181 4.1971,-20.029546 7.0347,-6.739598 9.9376,-12.65322 9.9376,-20.244399 0,-5.898057 4.2911,-21.643335 9.5358,-34.989559 5.2448,-13.346235 10.4081,-32.2304587 11.4742,-41.964982 1.736,-15.851603 1.3457,-17.441297 -3.739,-15.229215 -5.7309,2.493179 -26.6484,7.625098 -60.6213,14.872825 -10.1787,2.17151 -24.3395,3.15717 -31.4687,2.190418 -26.0695,-3.53529 -63.6003,-11.680477 -70.2716,-15.250847 -3.7667,-2.015886 -7.8637,-3.665233 -9.1043,-3.665233 -4.4433,0 2.6598,38.464989 10.9075,59.067342 7.7885,19.455359 9.2244,25.180046 10.3649,41.322285 0.2325,3.290956 5.1715,10.320833 10.9753,15.621915 10.4,9.498836 10.4627,9.737706 4.3391,16.504196 -3.4174,3.77624 -6.3028,11.65258 -6.412,17.50301 -0.1587,8.51258 -1.7235,10.85332 -7.8338,11.71953 -4.1995,0.59532 -9.6641,-0.60111 -12.1433,-2.65876 -3.5108,-2.91361 -4.9853,-2.2371 -6.6659,3.05822 -2.7643,8.70957 -13.8719,8.82614 -16.6179,0.17424 -1.4729,-4.64094 -5.0119,-6.62499 -11.8169,-6.62499 -10.469,0 -12.444,-5.27255 -6.2852,-16.78022 3.7616,-7.02845 -2.0321,-22.718676 -6.4724,-17.52846 -7.3711,8.61599 -21.6623,83.29452 -19.0366,99.47512 2.5543,15.73971 18.4914,37.03671 40.8762,54.62314 16.1685,12.70271 22.8591,15.78399 38.5228,17.741 10.4256,1.30264 19.6493,3.49051 20.497,4.86202 1.8988,3.07246 23.439,-0.88019 35.2322,-6.46526 z m 53.6222,-289.835533 c 24.2514,-4.322832 42.0166,-11.835959 42.0166,-17.769303 0,-1.423205 -16.0241,-0.489156 -35.6093,2.075648 -44.7681,5.862717 -60.3742,5.854197 -102.6873,-0.05601 -18.6741,-2.608425 -33.9531,-3.547652 -33.9531,-2.087272 0,5.864703 17.5913,13.567081 40.4443,17.708619 31.7013,5.74506 58.0676,5.782755 89.7888,0.128196 z m 7.9369,-28.24208 c 47.1062,-5.93406 54.7385,-7.825028 76.8759,-19.046827 13.5176,-6.852284 27.5508,-16.496079 31.1848,-21.430671 8.0468,-10.926709 10.4814,-35.281809 7.3203,-73.230199 l -2.313,-27.76739 -37.0098,0.32859 c -20.3553,0.18086 -47.4441,-1.50509 -60.1972,-3.74632 -29.8459,-5.24517 -105.9663,-5.24517 -135.8123,0 -12.753,2.24123 -39.778,3.92904 -60.0554,3.75063 l -36.8681,-0.32429 -3.6579,33.44925 c -6.0079,54.93881 0.3537,69.292699 39.4224,88.950852 21.659,10.898134 30.672,13.218908 72.7528,18.733147 26.4172,3.461678 49.8374,6.435144 52.045,6.607657 2.2077,0.172579 27.5484,-2.650984 56.3125,-6.274462 z m -75.2326,-46.411718 c -8.9528,-8.952779 -8.3423,-21.771199 1.5057,-31.619239 9.8577,-9.85771 19.4448,-10.36767 28.3068,-1.50568 9.5519,9.55196 8.1833,15.86871 -1.4729,6.79726 -14.2581,-13.39473 -32.5672,-2.14835 -26.6833,16.39017 1.1565,3.64375 4.9834,6.811309 8.5045,7.039049 3.5209,0.22757 7.8923,0.78672 9.7141,1.24218 1.822,0.45547 4.4305,1.03728 5.7969,1.29291 4.365,0.81662 -7.2247,6.88488 -13.2499,6.93762 -3.1883,0.0279 -8.7781,-2.93053 -12.4219,-6.57427 z m -101.644,0.64123 c -20.4408,-6.488259 -34.697,-33.384559 -28.8301,-54.392259 4.4276,-15.85447 26.497,-26.65725 50.7027,-24.81852 15.086,1.146 19.4425,3.037 27.328,11.8625 15.8145,17.69948 12.1697,49.78044 -6.9381,61.06766 -10.7722,6.363289 -32.0433,9.524369 -42.2625,6.280619 z m 34.7317,-21.178689 c 5.8679,-5.86788 4.8976,-29.26508 -1.5072,-36.34221 -7.4968,-8.28392 -28.0993,-8.07887 -35.7324,0.35566 -6.9725,7.7045 -8.1583,27.38911 -2.0904,34.70047 5.2523,6.32869 33.368,7.24807 39.33,1.28608 z m 181.5346,18.958779 c -16.7625,-5.973779 -21.7086,-11.232719 -25.3374,-26.939529 -6.3497,-27.48339 11.677,-50.98162 39.1106,-50.98162 22.4346,0 42.8964,10.90907 46.769,24.93466 6.1811,22.38585 -4.2551,44.51466 -25.1677,53.366109 -13.1219,5.55388 -18.899,5.49188 -35.3745,-0.37962 z m 37.0899,-18.958779 c 5.8679,-5.86788 4.8976,-29.26508 -1.5071,-36.34221 -6.9308,-7.65849 -26.6486,-7.98427 -34.8351,-0.57555 -7.0211,6.35395 -8.3895,30.61097 -2.0828,36.91776 2.1864,2.18625 10.832,3.97499 19.2125,3.97499 8.3806,0 17.0262,-1.78874 19.2125,-3.97499 z m -90.3467,-198.32203 c 7.4428,-7.44274 8.1939,-10.21075 6.1831,-22.7858 -1.4076,-8.8028 -6.1184,-18.67544 -12.2351,-25.64202 -13.4516,-15.32045 -16.0588,-38.43296 -5.8012,-51.42601 16.0943,-20.38635 56.7651,-18.11484 86.3,4.81992 11.4361,8.88062 43.0623,49.04789 43.0623,54.69203 0,2.53877 3.7941,11.09005 8.4313,19.00283 15.1176,25.79624 27.2984,30.32305 12.9531,4.81385 -4.5493,-8.08968 -15.4877,-29.75514 -24.3077,-48.14546 -24.9719,-52.06838 -44.4735,-69.83821 -92.4717,-84.26023 -21.22,-6.376 -29.7262,-7.08447 -69.5623,-5.79386 -36.1598,1.17151 -49.0557,2.91689 -63.4385,8.58599 -40.4513,15.94428 -62.4622,38.47833 -81.9586,83.90644 -4.9713,11.58362 -14.0792,29.74382 -20.2396,40.35599 -10.9703,18.89773 -12.1125,26.93302 -2.7208,19.13855 2.5957,-2.15425 10.2433,-15.09632 16.9948,-28.76017 26.0403,-52.70157 59.8992,-81.01215 97.5271,-81.54568 22.5628,-0.31992 34.9347,5.77989 40.3091,19.87392 5.0627,13.27637 0.7018,34.91107 -8.8447,43.87951 -9.4324,8.86137 -16.1517,30.17353 -13.2093,41.8972 3.0938,12.3269 19.0572,17.7921 48.9382,16.75449 22.4244,-0.77866 26.675,-1.94593 34.0905,-9.36149 z m -51.4626,-8.90299 c -13.4737,-6.7237 -17.3056,-19.4287 -7.9281,-26.28575 7.0672,-5.16765 32.3018,-5.71576 41.3054,-0.89717 8.8228,4.72181 8.2319,18.45501 -1.0459,24.30588 -12.9225,8.1494 -20.4278,8.81726 -32.3314,2.87704 z m -51.7626,-48.85028 c 9.3813,-9.38133 10.1944,-18.9437 2.1636,-25.44658 -12.5277,-10.14443 -28.3615,-7.07873 -33.5204,6.49013 -6.7993,17.88339 17.6495,32.66368 31.3568,18.95645 z m 157.1345,1.01336 c 5.6837,-5.68374 4.9055,-19.31888 -1.5072,-26.40474 -10.5112,-11.6148 -34.2678,-3.97633 -34.2678,11.01817 0,14.64486 25.5345,25.62705 35.775,15.38657 z"
         id="path8449"
         inkscape:connector-curvature="0" />
      <path
         inkscape:connector-curvature="0"
         id="path8451"
         d="m 7154.8656,273.88821 c -0.4555,-0.45558 -9.803,-2.61993 -20.772,-4.80966 -16.9814,-3.38995 -21.9764,-5.36377 -33.6288,-13.28872 -7.5268,-5.11907 -19.0836,-15.199 -25.6819,-22.39987 -15.4457,-16.85625 -22.2524,-30.35892 -22.2524,-44.14318 0,-19.05865 12.5983,-80.94746 18.2766,-89.783803 3.2299,-5.026067 6.271,1.802383 4.9633,11.144273 -2.7769,19.83746 -2.7814,19.8215 6.0546,21.6381 5.3059,1.09084 9.8814,3.83387 13.323,7.98717 4.2536,5.13318 6.2278,6.07827 10.4719,5.01306 2.8766,-0.72198 5.8241,-3.1838 6.5499,-5.47071 1.1113,-3.50128 2.3291,-3.92605 7.7108,-2.68933 14.3474,3.29709 19.4168,0.61757 19.5165,-10.31585 0.03,-3.3335 2.3171,-10.01754 5.0817,-14.85343 2.7645,-4.83588 5.0264,-9.51348 5.0264,-10.39467 0,-0.88119 -4.0507,-5.890455 -9.0015,-11.131704 -7.183,-7.60433 -9.2389,-11.422575 -10.1764,-18.899752 -0.6461,-5.153613 -4.8392,-20.437239 -9.3178,-33.963614 -7.3414,-22.17226 -15.1181,-56.715029 -13.2001,-58.632969 0.4146,-0.414629 8.7992,1.577582 18.6324,4.427135 29.0133,8.407715 62.5806,13.7518779 77.6116,12.3563495 12.1834,-1.1311385 66.8591,-13.1040995 75.5597,-16.5461495 3.5935,-1.421651 3.7685,-0.690658 2.7388,11.4407559 -0.6049,7.1276933 -5.1778,25.6873631 -10.1619,41.2437121 -4.9842,15.556349 -9.6874,32.641625 -10.4518,37.967278 -1.0777,7.508909 -3.4003,11.946786 -10.3444,19.765413 -10.2749,11.569025 -10.9598,15.440645 -3.9038,22.069355 4.1684,3.91605 5.0508,6.63561 5.0508,15.56787 0,14.29678 4.0184,15.54368 23.7385,7.36601 1.5093,-0.62587 2.5254,0.52027 2.5254,2.84861 0,4.11959 5.8682,10.58301 9.6085,10.58301 1.2205,0 4.8209,-3.15632 8.0007,-7.01404 3.946,-4.78712 8.319,-7.54123 13.7735,-8.67451 9.2648,-1.92494 10.7028,-5.42622 6.9272,-16.86647 -2.0429,-6.19 -2.0152,-8.86368 0.146,-14.08151 2.6625,-6.427734 2.6715,-6.431007 4.4673,-1.62039 3.5676,9.5566 13.2469,51.73656 16.6914,72.7363 l 3.5182,21.44892 -7.7752,14.91658 c -5.5011,10.55387 -12.4557,19.49592 -23.7786,30.57392 -8.8019,8.61155 -16.8878,15.65737 -17.9687,15.65737 -1.0809,0 -4.9153,2.59011 -8.5208,5.75582 -5.4331,4.77031 -9.524,6.13902 -23.8928,7.99385 -9.5355,1.23091 -19.1671,3.38075 -21.4035,4.77743 -3.3883,2.11603 -6.5228,1.76442 -18.8003,-2.10899 -21.0289,-6.63434 -26.5155,-7.15869 -36.3442,-3.47333 -9.4691,3.5505 -27.2598,7.21245 -28.5878,5.88436 z"
         style="opacity:1;fill:#6b4804;fill-opacity:1;stroke:#060606;stroke-width:7.6358;stroke-linecap:round;stroke-linejoin:round;stroke-miterlimit:4;stroke-dasharray:none;stroke-opacity:1" />
      <path
         inkscape:connector-curvature="0"
         id="path8453"
         d="m 7185.2132,-45.197629 c -1.389,-0.262821 -16.3898,-2.269802 -33.3351,-4.459954 -51.7767,-6.692089 -61.3655,-8.941376 -82.1987,-19.281843 -27.8407,-13.818614 -37.7216,-23.938049 -41.7417,-42.749254 -1.9496,-9.12239 -1.2483,-34.08748 1.6618,-59.15847 1.1285,-9.72272 2.056,-18.24588 2.0612,-18.94036 0.01,-0.97879 6.1984,-1.26494 27.5359,-1.27268 29.453,-0.0107 50.3739,-1.10381 67.4277,-3.52312 19.5041,-2.7669 35.6134,-3.59863 69.7006,-3.59863 34.0871,0 50.1965,0.83173 69.7005,3.59863 17.0538,2.41931 37.9747,3.51243 67.4277,3.52312 15.1396,0.006 27.5322,0.35092 27.539,0.7676 0.01,0.41669 0.7203,8.48529 1.5854,17.93021 2.1419,23.38324 2.1212,53.09342 -0.044,63.63961 -2.1905,10.668536 -5.6769,17.684965 -10.9221,21.980568 -11.4321,9.362406 -34.6936,21.864287 -49.1998,26.442439 -11.2129,3.538757 -24.2907,5.715514 -63.9492,10.644069 -32.5207,4.041509 -48.4171,5.372375 -53.249,4.458065 z m 9.849,-47.326091 c 2.9168,-1.357978 5.3033,-2.927007 5.3033,-3.486733 0,-1.219911 -5.5157,-2.768869 -13.132,-3.687834 -6.8689,-0.828793 -9.8528,-2.626683 -11.7012,-7.050303 -3.0212,-7.2308 -0.7502,-15.17898 5.5371,-19.37917 5.9937,-4.00405 12.6058,-2.57926 21.7078,4.67762 4.3036,3.4312 6.6796,3.98808 6.6796,1.56553 0,-4.15791 -6.5736,-11.83817 -12.8292,-14.98903 -12.1451,-6.11725 -29.9862,7.93505 -29.9955,23.62549 0,6.15858 1.7592,10.29684 6.3358,14.873406 6.6779,6.677936 13.4769,7.862987 22.0943,3.851024 z m 119.9136,-2.088419 c 23.7238,-6.179281 38.5361,-27.666651 34.874,-50.590031 -0.5869,-3.67394 -1.9403,-8.39155 -3.0076,-10.48358 -3.9578,-7.75797 -15.3246,-15.40929 -27.6686,-18.62449 -25.0293,-6.51931 -45.4127,1.12464 -54.44,20.41546 -5.3909,11.52016 -4.8302,28.6262 1.3343,40.70974 4.0383,7.91574 16.7401,15.135544 32.7874,18.636682 8.0309,1.75214 9.166,1.747644 16.1205,-0.06374 z m -214.2947,-2.446721 c 13.9987,-3.58027 20.9355,-8.92206 26.2968,-20.2502 5.5419,-11.70969 4.7893,-29.80731 -1.6802,-40.40611 -3.362,-5.50783 -9.8302,-12.1038 -13.9108,-14.18557 -11.7982,-6.01899 -36.6497,-5.01452 -51.0653,2.064 -11.7623,5.77572 -17.9474,14.13978 -19.1805,25.93804 -2.1437,20.50924 14.3179,44.964219 32.9553,48.957776 5.1997,1.114178 17.9048,0.102006 26.5847,-2.117936 z"
         style="opacity:1;fill:#fef5e4;fill-opacity:1;stroke:#060606;stroke-width:3.8179;stroke-linecap:round;stroke-linejoin:round;stroke-miterlimit:4;stroke-dasharray:none;stroke-opacity:1" />
      <path
         inkscape:connector-curvature="0"
         id="path8455"
         d="m 7174.1015,-19.410834 c -27.391,-2.620418 -51.8572,-9.329845 -60.4273,-16.571163 -6.3879,-5.397469 -4.3099,-5.418498 37.6537,-0.38104 37.3006,4.477686 53.1432,4.284346 97.9721,-1.195627 8.8575,-1.08276 19.9512,-1.968655 24.6527,-1.968655 8.5295,0 8.5442,0.0045 6.6904,2.052919 -5.046,5.575738 -19.4026,10.891355 -39.3665,14.575702 -23.4742,4.332185 -46.0803,5.505938 -67.1751,3.487864 z"
         style="opacity:1;fill:#060606;fill-opacity:1;stroke:#060606;stroke-width:3.8179;stroke-linecap:round;stroke-linejoin:round;stroke-miterlimit:4;stroke-dasharray:none;stroke-opacity:1" />
      <path
         inkscape:connector-curvature="0"
         id="path8457"
         d="m 7444.8983,340.20189 c -13.7436,-2.69646 -26.5554,-9.17986 -33.4695,-16.93734 -6.8726,-7.71095 -17.2122,-23.46914 -36.8086,-56.09908 -16.9951,-28.29838 -26.7729,-46.75298 -26.772,-50.52957 3e-4,-1.16042 0.8851,-4.43723 1.9663,-7.28181 1.0812,-2.84457 2.2801,-8.64032 2.6642,-12.87944 0.3842,-4.23912 1.0619,-7.7075 1.5062,-7.7075 2.7703,0 53.8378,16.09367 65.5214,20.64876 18.1782,7.08717 39.2564,17.80236 53.1954,27.0421 15.1144,10.01892 31.1722,25.95658 35.8477,35.57971 8.1671,16.80938 3.3057,37.5471 -12.555,53.55739 -7.8935,7.96784 -14.4217,11.65513 -25.0861,14.16926 -6.9287,1.63343 -18.8891,1.83461 -26.01,0.43752 z"
         style="opacity:1;fill:#6b4804;fill-opacity:1;stroke:#060606;stroke-width:3.8179;stroke-linecap:round;stroke-linejoin:round;stroke-miterlimit:4;stroke-dasharray:none;stroke-opacity:1" />
      <path
         inkscape:connector-curvature="0"
         id="path8459"
         d="m 7069.2212,-118.85005 c -3.9879,-3.23202 -4.7528,-5.6724 -4.6676,-14.89161 0.1309,-14.15298 4.3851,-20.79744 15.1765,-23.70326 20.003,-5.38626 34.2969,10.95423 28.1947,32.23161 -2.6202,9.13582 -4.6837,10.16129 -20.5208,10.19781 -10.2345,0.0236 -14.5436,-0.88512 -18.1828,-3.83455 z"
         style="opacity:1;fill:#ffffff;fill-opacity:1;stroke:#ffffff;stroke-width:7.6358;stroke-linecap:round;stroke-linejoin:round;stroke-miterlimit:4;stroke-dasharray:none;stroke-opacity:1" />
      <path
         inkscape:connector-curvature="0"
         id="path8461"
         d="m 7287.6954,-119.02517 c -4.8939,-4.89396 -5.4579,-18.96093 -1.1715,-29.21979 3.2833,-7.85812 12.7741,-11.67224 24.3643,-9.79142 11.5127,1.86826 16.1231,8.75315 16.1663,24.14136 0.047,16.72542 -2.4446,18.91046 -21.5625,18.91046 -11.0622,0 -14.5472,-0.79124 -17.7966,-4.04061 z"
         style="opacity:1;fill:#ffffff;fill-opacity:1;stroke:#ffffff;stroke-width:7.6358;stroke-linecap:round;stroke-linejoin:round;stroke-miterlimit:4;stroke-dasharray:none;stroke-opacity:1" />
      <path
         inkscape:connector-curvature="0"
         id="path8463"
         d="m 7169.5915,-309.75213 c -12.8544,-3.60776 -17.2694,-9.02611 -17.2122,-21.12381 0.05,-10.52741 4.1355,-20.58619 14.6468,-36.06041 7.9933,-11.7673 10.6194,-22.79515 8.6137,-36.17056 -5.0935,-33.96545 -61.4637,-35.56864 -98.6047,-2.80435 -14.0918,12.43124 -25.6198,28.33524 -41.8573,57.7464 -14.0635,25.47331 -19.1332,32.91362 -21.092,30.95483 -0.5305,-0.53054 9.6478,-22.29571 22.6184,-48.36707 22.911,-46.05157 24.0454,-47.86632 39.8074,-63.67942 28.1385,-28.22973 48.9415,-36.3553 101.0772,-39.48044 38.3255,-2.29732 53.7315,-1.40298 75.3341,4.37328 32.6566,8.73193 55.2005,22.64372 71.4368,44.08336 9.4959,12.53925 55.5783,100.58954 53.6527,102.51512 -2.1993,2.19929 -14.9827,-15.90891 -22.266,-31.54055 -8.6754,-18.61948 -27.4736,-44.30448 -42.6614,-58.29066 -25.9321,-23.88029 -67.1176,-29.64799 -87.0072,-12.18466 -8.2725,7.26335 -12.0025,18.73928 -10.0002,30.76763 1.4409,8.65641 4.5026,15.01675 15.9574,33.14999 8.7505,13.85222 10.9904,27.39667 5.7021,34.47977 -8.5009,11.38606 -13.0363,13.10753 -36.3524,13.79815 -14.3189,0.42412 -25.206,-0.3178 -31.7932,-2.1666 z m 36.824,-12.41013 c 16.098,-6.72618 21.8318,-19.82369 12.4108,-28.34956 -5.7785,-5.22953 -30.3222,-6.5495 -40.752,-2.19165 -14.5576,6.08256 -11.4124,19.90484 6.6268,29.12241 10.5577,5.39472 11.9767,5.48744 21.7144,1.4188 z"
         style="opacity:1;fill:#6b4804;fill-opacity:1;stroke:#6b4804;stroke-width:7.6358;stroke-linecap:round;stroke-linejoin:round;stroke-miterlimit:4;stroke-dasharray:none;stroke-opacity:1" />
      <path
         inkscape:connector-curvature="0"
         id="path8465"
         d="m 7106.023,-374.77336 c -8.2496,-6.94153 -8.3595,-15.16026 -0.3104,-23.20932 6.6406,-6.64065 13.4263,-7.50452 22.4192,-2.85414 11.535,5.96499 12.7823,13.91178 3.7908,24.15245 -7.8983,8.99569 -16.7075,9.64568 -25.8996,1.91101 z"
         style="opacity:1;fill:#ffffff;fill-opacity:1;stroke:#6b4804;stroke-width:7.6358;stroke-linecap:round;stroke-linejoin:round;stroke-miterlimit:4;stroke-dasharray:none;stroke-opacity:1" />
      <path
         inkscape:connector-curvature="0"
         id="path8467"
         d="m 7264.0858,-373.48305 c -12.7744,-7.78909 -13.6911,-19.34925 -2.0951,-26.41964 7.8055,-4.75916 11.8881,-4.96566 19.5759,-0.99017 10.2653,5.3084 12.9007,24.62412 4.0089,29.38285 -5.7877,3.09749 -14.4832,2.29912 -21.4897,-1.97304 z"
         style="opacity:1;fill:#ffffff;fill-opacity:1;stroke:#6b4804;stroke-width:7.6358;stroke-linecap:round;stroke-linejoin:round;stroke-miterlimit:4;stroke-dasharray:none;stroke-opacity:1" />
    </g>
  </g>
</svg>
